M48
; DRILL file {KiCad (5.1.6)-1} date 12/18/23 11:35:21
; FORMAT={-:-/ absolute / metric / decimal}
; #@! TF.CreationDate,2023-12-18T11:35:21+08:00
; #@! TF.GenerationSoftware,Kicad,Pcbnew,(5.1.6)-1
; #@! TF.FileFunction,Plated,1,2,PTH
FMAT,2
METRIC
T1C0.300
T2C0.500
T3C0.650
T4C0.750
T5C0.800
T6C2.500
%
G90
G05
T1
X1.27Y17.907
X1.27Y15.113
X1.27Y14.478
X1.27Y13.716
X1.778Y17.907
X2.415Y12.444
X3.048Y6.35
X3.365Y22.86
X3.429Y18.542
X3.619Y12.509
X4.445Y23.241
X4.572Y9.906
X5.271Y3.429
X5.588Y23.495
X5.588Y22.352
X5.842Y9.335
X6.223Y12.319
X6.223Y11.049
X6.246Y7.366
X7.747Y13.97
X8.509Y9.144
X9.525Y10.414
X9.842Y11.493
X10.223Y7.302
X10.287Y16.51
X10.287Y6.35
X11.303Y8.128
X11.43Y7.239
X11.684Y19.05
X11.811Y18.034
X12.065Y7.894
X12.319Y19.939
X12.763Y12.7
X12.827Y15.367
X12.89Y13.652
X13.081Y2.917
X13.208Y6.667
X13.716Y3.302
X13.843Y7.556
X14.478Y8.128
X14.536Y3.111
X14.859Y22.225
X15.24Y2.731
X15.494Y21.844
X15.748Y17.272
X16.066Y4.0
X16.256Y6.35
X16.764Y17.272
X17.018Y11.938
X17.145Y1.905
X17.843Y0.635
X18.161Y20.574
X18.161Y19.558
X18.161Y15.494
X18.161Y14.605
X18.542Y12.065
X18.605Y4.127
X18.86Y0.635
X18.986Y8.382
X19.05Y20.574
X19.05Y19.558
X19.05Y15.494
X19.05Y14.605
X19.304Y10.731
X20.066Y10.89
X20.637Y11.43
X21.209Y6.731
X21.249Y9.566
X21.717Y12.827
X21.844Y18.288
X22.352Y12.827
X22.479Y18.288
X23.05Y6.921
X24.511Y16.637
X24.511Y15.748
X24.638Y18.288
X24.638Y12.827
X25.082Y16.192
T2
X23.625Y2.5
X24.174Y3.826
X24.174Y1.174
X25.5Y4.375
X25.5Y0.625
X26.826Y3.826
X26.826Y1.174
X27.375Y2.5
X23.625Y25.5
X24.174Y26.826
X24.174Y24.174
X25.5Y27.375
X25.5Y23.625
X26.826Y26.826
X26.826Y24.174
X27.375Y25.5
X0.625Y25.5
X1.174Y26.826
X1.174Y24.174
X2.5Y27.375
X2.5Y23.625
X3.826Y26.826
X3.826Y24.174
X4.375Y25.5
X0.625Y2.5
X1.174Y3.826
X1.174Y1.174
X2.5Y4.375
X2.5Y0.625
X3.826Y3.826
X3.826Y1.174
X4.375Y2.5
T3
X5.461Y1.27
X6.731Y1.27
X8.001Y1.27
X9.271Y1.27
T4
X11.335Y25.146
X13.335Y25.146
X15.335Y25.146
X17.335Y25.146
T5
X26.543Y20.351
X26.543Y18.351
X26.543Y16.351
X26.543Y14.351
T6
X25.5Y2.5
X25.5Y25.5
X2.5Y25.5
X2.5Y2.5
T0
M30
