%TF.GenerationSoftware,KiCad,Pcbnew,(5.1.6)-1*%
%TF.CreationDate,2023-12-18T11:35:21+08:00*%
%TF.ProjectId,stepper_motor,73746570-7065-4725-9f6d-6f746f722e6b,1*%
%TF.SameCoordinates,PX6979f40PYa1135a0*%
%TF.FileFunction,Legend,Bot*%
%TF.FilePolarity,Positive*%
%FSLAX46Y46*%
G04 Gerber Fmt 4.6, Leading zero omitted, Abs format (unit mm)*
G04 Created by KiCad (PCBNEW (5.1.6)-1) date 2023-12-18 11:35:21*
%MOMM*%
%LPD*%
G01*
G04 APERTURE LIST*
%ADD10C,0.120000*%
G04 APERTURE END LIST*
D10*
%TO.C,U6*%
X5608000Y8763000D02*
X5608000Y5313000D01*
X5608000Y8763000D02*
X5608000Y10713000D01*
X488000Y8763000D02*
X488000Y6813000D01*
X488000Y8763000D02*
X488000Y10713000D01*
%TO.C,U1*%
X14000000Y16560000D02*
X15950000Y16560000D01*
X14000000Y16560000D02*
X12050000Y16560000D01*
X14000000Y11440000D02*
X15950000Y11440000D01*
X14000000Y11440000D02*
X10550000Y11440000D01*
%TO.C,NTC1*%
X19212779Y11301000D02*
X18887221Y11301000D01*
X19212779Y12321000D02*
X18887221Y12321000D01*
%TO.C,C22*%
X20098936Y16277000D02*
X21303064Y16277000D01*
X20098936Y14457000D02*
X21303064Y14457000D01*
%TO.C,C21*%
X20098936Y18182000D02*
X21303064Y18182000D01*
X20098936Y16362000D02*
X21303064Y16362000D01*
%TO.C,C18*%
X23093000Y19273436D02*
X23093000Y20477564D01*
X24913000Y19273436D02*
X24913000Y20477564D01*
%TO.C,C17*%
X20098936Y20087000D02*
X21303064Y20087000D01*
X20098936Y18267000D02*
X21303064Y18267000D01*
%TO.C,C14*%
X20098936Y14372000D02*
X21303064Y14372000D01*
X20098936Y12552000D02*
X21303064Y12552000D01*
%TO.C,C13*%
X20098936Y21992000D02*
X21303064Y21992000D01*
X20098936Y20172000D02*
X21303064Y20172000D01*
%TD*%
M02*
