%TF.GenerationSoftware,KiCad,Pcbnew,(5.1.6)-1*%
%TF.CreationDate,2023-12-18T11:35:21+08:00*%
%TF.ProjectId,stepper_motor,73746570-7065-4725-9f6d-6f746f722e6b,1*%
%TF.SameCoordinates,PX6979f40PYa1135a0*%
%TF.FileFunction,Soldermask,Bot*%
%TF.FilePolarity,Negative*%
%FSLAX46Y46*%
G04 Gerber Fmt 4.6, Leading zero omitted, Abs format (unit mm)*
G04 Created by KiCad (PCBNEW (5.1.6)-1) date 2023-12-18 11:35:21*
%MOMM*%
%LPD*%
G01*
G04 APERTURE LIST*
%ADD10C,0.350000*%
G04 APERTURE END LIST*
D10*
G36*
X3022767Y4741075D02*
G01*
X3170885Y4711613D01*
X3589459Y4538234D01*
X3966165Y4286527D01*
X4286527Y3966165D01*
X4538234Y3589459D01*
X4538235Y3589457D01*
X4711613Y3170884D01*
X4800000Y2726532D01*
X4800000Y2273468D01*
X4768553Y2115372D01*
X4711613Y1829115D01*
X4538234Y1410541D01*
X4286527Y1033835D01*
X3966165Y713473D01*
X3589459Y461766D01*
X3170885Y288387D01*
X3081086Y270525D01*
X2726532Y200000D01*
X2273468Y200000D01*
X1918914Y270525D01*
X1829115Y288387D01*
X1410541Y461766D01*
X1033835Y713473D01*
X713473Y1033835D01*
X461766Y1410541D01*
X288387Y1829115D01*
X231447Y2115372D01*
X200000Y2273468D01*
X200000Y2726532D01*
X288387Y3170884D01*
X461765Y3589457D01*
X461766Y3589459D01*
X713473Y3966165D01*
X1033835Y4286527D01*
X1410541Y4538234D01*
X1829115Y4711613D01*
X1977233Y4741075D01*
X2273468Y4800000D01*
X2726532Y4800000D01*
X3022767Y4741075D01*
G37*
G36*
X26022767Y4741075D02*
G01*
X26170885Y4711613D01*
X26589459Y4538234D01*
X26966165Y4286527D01*
X27286527Y3966165D01*
X27538234Y3589459D01*
X27538235Y3589457D01*
X27711613Y3170884D01*
X27800000Y2726532D01*
X27800000Y2273468D01*
X27768553Y2115372D01*
X27711613Y1829115D01*
X27538234Y1410541D01*
X27286527Y1033835D01*
X26966165Y713473D01*
X26589459Y461766D01*
X26170885Y288387D01*
X26081086Y270525D01*
X25726532Y200000D01*
X25273468Y200000D01*
X24918914Y270525D01*
X24829115Y288387D01*
X24410541Y461766D01*
X24033835Y713473D01*
X23713473Y1033835D01*
X23461766Y1410541D01*
X23288387Y1829115D01*
X23231447Y2115372D01*
X23200000Y2273468D01*
X23200000Y2726532D01*
X23288387Y3170884D01*
X23461765Y3589457D01*
X23461766Y3589459D01*
X23713473Y3966165D01*
X24033835Y4286527D01*
X24410541Y4538234D01*
X24829115Y4711613D01*
X24977233Y4741075D01*
X25273468Y4800000D01*
X25726532Y4800000D01*
X26022767Y4741075D01*
G37*
G36*
X5606843Y1750786D02*
G01*
X5606846Y1750785D01*
X5606845Y1750785D01*
X5697839Y1713094D01*
X5739063Y1685549D01*
X5779730Y1658376D01*
X5849376Y1588730D01*
X5904095Y1506837D01*
X5941786Y1415843D01*
X5961000Y1319247D01*
X5961000Y1220753D01*
X5941786Y1124157D01*
X5941785Y1124155D01*
X5904094Y1033161D01*
X5849375Y951269D01*
X5779731Y881625D01*
X5697839Y826906D01*
X5697838Y826905D01*
X5697837Y826905D01*
X5606843Y789214D01*
X5510247Y770000D01*
X5411753Y770000D01*
X5315157Y789214D01*
X5224163Y826905D01*
X5224162Y826905D01*
X5224161Y826906D01*
X5142269Y881625D01*
X5072625Y951269D01*
X5017906Y1033161D01*
X4980215Y1124155D01*
X4980214Y1124157D01*
X4961000Y1220753D01*
X4961000Y1319247D01*
X4980214Y1415843D01*
X5017905Y1506837D01*
X5072624Y1588730D01*
X5142270Y1658376D01*
X5182937Y1685549D01*
X5224161Y1713094D01*
X5315155Y1750785D01*
X5315154Y1750785D01*
X5315157Y1750786D01*
X5411753Y1770000D01*
X5510247Y1770000D01*
X5606843Y1750786D01*
G37*
G36*
X8146843Y1750786D02*
G01*
X8146846Y1750785D01*
X8146845Y1750785D01*
X8237839Y1713094D01*
X8279063Y1685549D01*
X8319730Y1658376D01*
X8389376Y1588730D01*
X8444095Y1506837D01*
X8481786Y1415843D01*
X8501000Y1319247D01*
X8501000Y1220753D01*
X8481786Y1124157D01*
X8481785Y1124155D01*
X8444094Y1033161D01*
X8389375Y951269D01*
X8319731Y881625D01*
X8237839Y826906D01*
X8237838Y826905D01*
X8237837Y826905D01*
X8146843Y789214D01*
X8050247Y770000D01*
X7951753Y770000D01*
X7855157Y789214D01*
X7764163Y826905D01*
X7764162Y826905D01*
X7764161Y826906D01*
X7682269Y881625D01*
X7612625Y951269D01*
X7557906Y1033161D01*
X7520215Y1124155D01*
X7520214Y1124157D01*
X7501000Y1220753D01*
X7501000Y1319247D01*
X7520214Y1415843D01*
X7557905Y1506837D01*
X7612624Y1588730D01*
X7682270Y1658376D01*
X7722937Y1685549D01*
X7764161Y1713094D01*
X7855155Y1750785D01*
X7855154Y1750785D01*
X7855157Y1750786D01*
X7951753Y1770000D01*
X8050247Y1770000D01*
X8146843Y1750786D01*
G37*
G36*
X9771000Y770000D02*
G01*
X8771000Y770000D01*
X8771000Y1770000D01*
X9771000Y1770000D01*
X9771000Y770000D01*
G37*
G36*
X6876843Y1750786D02*
G01*
X6876846Y1750785D01*
X6876845Y1750785D01*
X6967839Y1713094D01*
X7009063Y1685549D01*
X7049730Y1658376D01*
X7119376Y1588730D01*
X7174095Y1506837D01*
X7211786Y1415843D01*
X7231000Y1319247D01*
X7231000Y1220753D01*
X7211786Y1124157D01*
X7211785Y1124155D01*
X7174094Y1033161D01*
X7119375Y951269D01*
X7049731Y881625D01*
X6967839Y826906D01*
X6967838Y826905D01*
X6967837Y826905D01*
X6876843Y789214D01*
X6780247Y770000D01*
X6681753Y770000D01*
X6585157Y789214D01*
X6494163Y826905D01*
X6494162Y826905D01*
X6494161Y826906D01*
X6412269Y881625D01*
X6342625Y951269D01*
X6287906Y1033161D01*
X6250215Y1124155D01*
X6250214Y1124157D01*
X6231000Y1220753D01*
X6231000Y1319247D01*
X6250214Y1415843D01*
X6287905Y1506837D01*
X6342624Y1588730D01*
X6412270Y1658376D01*
X6452937Y1685549D01*
X6494161Y1713094D01*
X6585155Y1750785D01*
X6585154Y1750785D01*
X6585157Y1750786D01*
X6681753Y1770000D01*
X6780247Y1770000D01*
X6876843Y1750786D01*
G37*
G36*
X5182453Y7260726D02*
G01*
X5198753Y7255781D01*
X5213775Y7247751D01*
X5226944Y7236944D01*
X5237751Y7223775D01*
X5245781Y7208753D01*
X5250726Y7192453D01*
X5253000Y7169360D01*
X5253000Y5406640D01*
X5250726Y5383547D01*
X5245781Y5367247D01*
X5237751Y5352225D01*
X5226944Y5339056D01*
X5213775Y5328249D01*
X5198753Y5320219D01*
X5182453Y5315274D01*
X5159360Y5313000D01*
X4746640Y5313000D01*
X4723547Y5315274D01*
X4707247Y5320219D01*
X4692225Y5328249D01*
X4679056Y5339056D01*
X4668249Y5352225D01*
X4660219Y5367247D01*
X4655274Y5383547D01*
X4653000Y5406640D01*
X4653000Y7169360D01*
X4655274Y7192453D01*
X4660219Y7208753D01*
X4668249Y7223775D01*
X4679056Y7236944D01*
X4692225Y7247751D01*
X4707247Y7255781D01*
X4723547Y7260726D01*
X4746640Y7263000D01*
X5159360Y7263000D01*
X5182453Y7260726D01*
G37*
G36*
X3912453Y7260726D02*
G01*
X3928753Y7255781D01*
X3943775Y7247751D01*
X3956944Y7236944D01*
X3967751Y7223775D01*
X3975781Y7208753D01*
X3980726Y7192453D01*
X3983000Y7169360D01*
X3983000Y5406640D01*
X3980726Y5383547D01*
X3975781Y5367247D01*
X3967751Y5352225D01*
X3956944Y5339056D01*
X3943775Y5328249D01*
X3928753Y5320219D01*
X3912453Y5315274D01*
X3889360Y5313000D01*
X3476640Y5313000D01*
X3453547Y5315274D01*
X3437247Y5320219D01*
X3422225Y5328249D01*
X3409056Y5339056D01*
X3398249Y5352225D01*
X3390219Y5367247D01*
X3385274Y5383547D01*
X3383000Y5406640D01*
X3383000Y7169360D01*
X3385274Y7192453D01*
X3390219Y7208753D01*
X3398249Y7223775D01*
X3409056Y7236944D01*
X3422225Y7247751D01*
X3437247Y7255781D01*
X3453547Y7260726D01*
X3476640Y7263000D01*
X3889360Y7263000D01*
X3912453Y7260726D01*
G37*
G36*
X1372453Y7260726D02*
G01*
X1388753Y7255781D01*
X1403775Y7247751D01*
X1416944Y7236944D01*
X1427751Y7223775D01*
X1435781Y7208753D01*
X1440726Y7192453D01*
X1443000Y7169360D01*
X1443000Y5406640D01*
X1440726Y5383547D01*
X1435781Y5367247D01*
X1427751Y5352225D01*
X1416944Y5339056D01*
X1403775Y5328249D01*
X1388753Y5320219D01*
X1372453Y5315274D01*
X1349360Y5313000D01*
X936640Y5313000D01*
X913547Y5315274D01*
X897247Y5320219D01*
X882225Y5328249D01*
X869056Y5339056D01*
X858249Y5352225D01*
X850219Y5367247D01*
X845274Y5383547D01*
X843000Y5406640D01*
X843000Y7169360D01*
X845274Y7192453D01*
X850219Y7208753D01*
X858249Y7223775D01*
X869056Y7236944D01*
X882225Y7247751D01*
X897247Y7255781D01*
X913547Y7260726D01*
X936640Y7263000D01*
X1349360Y7263000D01*
X1372453Y7260726D01*
G37*
G36*
X2642453Y7260726D02*
G01*
X2658753Y7255781D01*
X2673775Y7247751D01*
X2686944Y7236944D01*
X2697751Y7223775D01*
X2705781Y7208753D01*
X2710726Y7192453D01*
X2713000Y7169360D01*
X2713000Y5406640D01*
X2710726Y5383547D01*
X2705781Y5367247D01*
X2697751Y5352225D01*
X2686944Y5339056D01*
X2673775Y5328249D01*
X2658753Y5320219D01*
X2642453Y5315274D01*
X2619360Y5313000D01*
X2206640Y5313000D01*
X2183547Y5315274D01*
X2167247Y5320219D01*
X2152225Y5328249D01*
X2139056Y5339056D01*
X2128249Y5352225D01*
X2120219Y5367247D01*
X2115274Y5383547D01*
X2113000Y5406640D01*
X2113000Y7169360D01*
X2115274Y7192453D01*
X2120219Y7208753D01*
X2128249Y7223775D01*
X2139056Y7236944D01*
X2152225Y7247751D01*
X2167247Y7255781D01*
X2183547Y7260726D01*
X2206640Y7263000D01*
X2619360Y7263000D01*
X2642453Y7260726D01*
G37*
G36*
X2642453Y12210726D02*
G01*
X2658753Y12205781D01*
X2673775Y12197751D01*
X2686944Y12186944D01*
X2697751Y12173775D01*
X2705781Y12158753D01*
X2710726Y12142453D01*
X2713000Y12119360D01*
X2713000Y10356640D01*
X2710726Y10333547D01*
X2705781Y10317247D01*
X2697751Y10302225D01*
X2686944Y10289056D01*
X2673775Y10278249D01*
X2658753Y10270219D01*
X2642453Y10265274D01*
X2619360Y10263000D01*
X2206640Y10263000D01*
X2183547Y10265274D01*
X2167247Y10270219D01*
X2152225Y10278249D01*
X2139056Y10289056D01*
X2128249Y10302225D01*
X2120219Y10317247D01*
X2115274Y10333547D01*
X2113000Y10356640D01*
X2113000Y12119360D01*
X2115274Y12142453D01*
X2120219Y12158753D01*
X2128249Y12173775D01*
X2139056Y12186944D01*
X2152225Y12197751D01*
X2167247Y12205781D01*
X2183547Y12210726D01*
X2206640Y12213000D01*
X2619360Y12213000D01*
X2642453Y12210726D01*
G37*
G36*
X3912453Y12210726D02*
G01*
X3928753Y12205781D01*
X3943775Y12197751D01*
X3956944Y12186944D01*
X3967751Y12173775D01*
X3975781Y12158753D01*
X3980726Y12142453D01*
X3983000Y12119360D01*
X3983000Y10356640D01*
X3980726Y10333547D01*
X3975781Y10317247D01*
X3967751Y10302225D01*
X3956944Y10289056D01*
X3943775Y10278249D01*
X3928753Y10270219D01*
X3912453Y10265274D01*
X3889360Y10263000D01*
X3476640Y10263000D01*
X3453547Y10265274D01*
X3437247Y10270219D01*
X3422225Y10278249D01*
X3409056Y10289056D01*
X3398249Y10302225D01*
X3390219Y10317247D01*
X3385274Y10333547D01*
X3383000Y10356640D01*
X3383000Y12119360D01*
X3385274Y12142453D01*
X3390219Y12158753D01*
X3398249Y12173775D01*
X3409056Y12186944D01*
X3422225Y12197751D01*
X3437247Y12205781D01*
X3453547Y12210726D01*
X3476640Y12213000D01*
X3889360Y12213000D01*
X3912453Y12210726D01*
G37*
G36*
X5182453Y12210726D02*
G01*
X5198753Y12205781D01*
X5213775Y12197751D01*
X5226944Y12186944D01*
X5237751Y12173775D01*
X5245781Y12158753D01*
X5250726Y12142453D01*
X5253000Y12119360D01*
X5253000Y10356640D01*
X5250726Y10333547D01*
X5245781Y10317247D01*
X5237751Y10302225D01*
X5226944Y10289056D01*
X5213775Y10278249D01*
X5198753Y10270219D01*
X5182453Y10265274D01*
X5159360Y10263000D01*
X4746640Y10263000D01*
X4723547Y10265274D01*
X4707247Y10270219D01*
X4692225Y10278249D01*
X4679056Y10289056D01*
X4668249Y10302225D01*
X4660219Y10317247D01*
X4655274Y10333547D01*
X4653000Y10356640D01*
X4653000Y12119360D01*
X4655274Y12142453D01*
X4660219Y12158753D01*
X4668249Y12173775D01*
X4679056Y12186944D01*
X4692225Y12197751D01*
X4707247Y12205781D01*
X4723547Y12210726D01*
X4746640Y12213000D01*
X5159360Y12213000D01*
X5182453Y12210726D01*
G37*
G36*
X1372453Y12210726D02*
G01*
X1388753Y12205781D01*
X1403775Y12197751D01*
X1416944Y12186944D01*
X1427751Y12173775D01*
X1435781Y12158753D01*
X1440726Y12142453D01*
X1443000Y12119360D01*
X1443000Y10356640D01*
X1440726Y10333547D01*
X1435781Y10317247D01*
X1427751Y10302225D01*
X1416944Y10289056D01*
X1403775Y10278249D01*
X1388753Y10270219D01*
X1372453Y10265274D01*
X1349360Y10263000D01*
X936640Y10263000D01*
X913547Y10265274D01*
X897247Y10270219D01*
X882225Y10278249D01*
X869056Y10289056D01*
X858249Y10302225D01*
X850219Y10317247D01*
X845274Y10333547D01*
X843000Y10356640D01*
X843000Y12119360D01*
X845274Y12142453D01*
X850219Y12158753D01*
X858249Y12173775D01*
X869056Y12186944D01*
X882225Y12197751D01*
X897247Y12205781D01*
X913547Y12210726D01*
X936640Y12213000D01*
X1349360Y12213000D01*
X1372453Y12210726D01*
G37*
G36*
X18574116Y12282405D02*
G01*
X18603311Y12273548D01*
X18630223Y12259163D01*
X18653808Y12239808D01*
X18673163Y12216223D01*
X18687548Y12189311D01*
X18696405Y12160116D01*
X18700000Y12123610D01*
X18700000Y11498390D01*
X18696405Y11461884D01*
X18687548Y11432689D01*
X18673163Y11405777D01*
X18653808Y11382192D01*
X18630223Y11362837D01*
X18603311Y11348452D01*
X18574116Y11339595D01*
X18537610Y11336000D01*
X17987390Y11336000D01*
X17950884Y11339595D01*
X17921689Y11348452D01*
X17894777Y11362837D01*
X17871192Y11382192D01*
X17851837Y11405777D01*
X17837452Y11432689D01*
X17828595Y11461884D01*
X17825000Y11498390D01*
X17825000Y12123610D01*
X17828595Y12160116D01*
X17837452Y12189311D01*
X17851837Y12216223D01*
X17871192Y12239808D01*
X17894777Y12259163D01*
X17921689Y12273548D01*
X17950884Y12282405D01*
X17987390Y12286000D01*
X18537610Y12286000D01*
X18574116Y12282405D01*
G37*
G36*
X20149116Y12282405D02*
G01*
X20178311Y12273548D01*
X20205223Y12259163D01*
X20228808Y12239808D01*
X20248163Y12216223D01*
X20262548Y12189311D01*
X20271405Y12160116D01*
X20275000Y12123610D01*
X20275000Y11498390D01*
X20271405Y11461884D01*
X20262548Y11432689D01*
X20248163Y11405777D01*
X20228808Y11382192D01*
X20205223Y11362837D01*
X20178311Y11348452D01*
X20149116Y11339595D01*
X20112610Y11336000D01*
X19562390Y11336000D01*
X19525884Y11339595D01*
X19496689Y11348452D01*
X19469777Y11362837D01*
X19446192Y11382192D01*
X19426837Y11405777D01*
X19412452Y11432689D01*
X19403595Y11461884D01*
X19400000Y11498390D01*
X19400000Y12123610D01*
X19403595Y12160116D01*
X19412452Y12189311D01*
X19426837Y12216223D01*
X19446192Y12239808D01*
X19469777Y12259163D01*
X19496689Y12273548D01*
X19525884Y12282405D01*
X19562390Y12286000D01*
X20112610Y12286000D01*
X20149116Y12282405D01*
G37*
G36*
X17379453Y12392726D02*
G01*
X17395753Y12387781D01*
X17410775Y12379751D01*
X17423944Y12368944D01*
X17434751Y12355775D01*
X17442781Y12340753D01*
X17447726Y12324453D01*
X17450000Y12301360D01*
X17450000Y11888640D01*
X17447726Y11865547D01*
X17442781Y11849247D01*
X17434751Y11834225D01*
X17423944Y11821056D01*
X17410775Y11810249D01*
X17395753Y11802219D01*
X17379453Y11797274D01*
X17356360Y11795000D01*
X15593640Y11795000D01*
X15570547Y11797274D01*
X15554247Y11802219D01*
X15539225Y11810249D01*
X15526056Y11821056D01*
X15515249Y11834225D01*
X15507219Y11849247D01*
X15502274Y11865547D01*
X15500000Y11888640D01*
X15500000Y12301360D01*
X15502274Y12324453D01*
X15507219Y12340753D01*
X15515249Y12355775D01*
X15526056Y12368944D01*
X15539225Y12379751D01*
X15554247Y12387781D01*
X15570547Y12392726D01*
X15593640Y12395000D01*
X17356360Y12395000D01*
X17379453Y12392726D01*
G37*
G36*
X12429453Y12392726D02*
G01*
X12445753Y12387781D01*
X12460775Y12379751D01*
X12473944Y12368944D01*
X12484751Y12355775D01*
X12492781Y12340753D01*
X12497726Y12324453D01*
X12500000Y12301360D01*
X12500000Y11888640D01*
X12497726Y11865547D01*
X12492781Y11849247D01*
X12484751Y11834225D01*
X12473944Y11821056D01*
X12460775Y11810249D01*
X12445753Y11802219D01*
X12429453Y11797274D01*
X12406360Y11795000D01*
X10643640Y11795000D01*
X10620547Y11797274D01*
X10604247Y11802219D01*
X10589225Y11810249D01*
X10576056Y11821056D01*
X10565249Y11834225D01*
X10557219Y11849247D01*
X10552274Y11865547D01*
X10550000Y11888640D01*
X10550000Y12301360D01*
X10552274Y12324453D01*
X10557219Y12340753D01*
X10565249Y12355775D01*
X10576056Y12368944D01*
X10589225Y12379751D01*
X10604247Y12387781D01*
X10620547Y12392726D01*
X10643640Y12395000D01*
X12406360Y12395000D01*
X12429453Y12392726D01*
G37*
G36*
X19785024Y21953045D02*
G01*
X19817738Y21943121D01*
X19847885Y21927007D01*
X19874315Y21905315D01*
X19896007Y21878885D01*
X19912121Y21848738D01*
X19922045Y21816024D01*
X19926000Y21775862D01*
X19926000Y20388138D01*
X19922045Y20347976D01*
X19912121Y20315262D01*
X19896007Y20285115D01*
X19874315Y20258685D01*
X19843386Y20233301D01*
X19832648Y20226126D01*
X19815321Y20208800D01*
X19801707Y20188425D01*
X19792330Y20165787D01*
X19787549Y20141753D01*
X19787549Y20117249D01*
X19792329Y20093216D01*
X19801706Y20070577D01*
X19815320Y20050202D01*
X19832646Y20032875D01*
X19843387Y20025698D01*
X19874315Y20000315D01*
X19896007Y19973885D01*
X19912121Y19943738D01*
X19922045Y19911024D01*
X19926000Y19870862D01*
X19926000Y18483138D01*
X19922045Y18442976D01*
X19912121Y18410262D01*
X19896007Y18380115D01*
X19874315Y18353685D01*
X19843386Y18328301D01*
X19832648Y18321126D01*
X19815321Y18303800D01*
X19801707Y18283425D01*
X19792330Y18260787D01*
X19787549Y18236753D01*
X19787549Y18212249D01*
X19792329Y18188216D01*
X19801706Y18165577D01*
X19815320Y18145202D01*
X19832646Y18127875D01*
X19843387Y18120698D01*
X19874315Y18095315D01*
X19896007Y18068885D01*
X19912121Y18038738D01*
X19922045Y18006024D01*
X19926000Y17965862D01*
X19926000Y16578138D01*
X19922045Y16537976D01*
X19912121Y16505262D01*
X19896007Y16475115D01*
X19874315Y16448685D01*
X19843386Y16423301D01*
X19832648Y16416126D01*
X19815321Y16398800D01*
X19801707Y16378425D01*
X19792330Y16355787D01*
X19787549Y16331753D01*
X19787549Y16307249D01*
X19792329Y16283216D01*
X19801706Y16260577D01*
X19815320Y16240202D01*
X19832646Y16222875D01*
X19843387Y16215698D01*
X19874315Y16190315D01*
X19896007Y16163885D01*
X19912121Y16133738D01*
X19922045Y16101024D01*
X19926000Y16060862D01*
X19926000Y14673138D01*
X19922045Y14632976D01*
X19912121Y14600262D01*
X19896007Y14570115D01*
X19874315Y14543685D01*
X19843386Y14518301D01*
X19832648Y14511126D01*
X19815321Y14493800D01*
X19801707Y14473425D01*
X19792330Y14450787D01*
X19787549Y14426753D01*
X19787549Y14402249D01*
X19792329Y14378216D01*
X19801706Y14355577D01*
X19815320Y14335202D01*
X19832646Y14317875D01*
X19843387Y14310698D01*
X19874315Y14285315D01*
X19896007Y14258885D01*
X19912121Y14228738D01*
X19922045Y14196024D01*
X19926000Y14155862D01*
X19926000Y12768138D01*
X19922045Y12727976D01*
X19912121Y12695262D01*
X19896007Y12665115D01*
X19874315Y12638685D01*
X19847885Y12616993D01*
X19817738Y12600879D01*
X19785024Y12590955D01*
X19744862Y12587000D01*
X18857138Y12587000D01*
X18816976Y12590955D01*
X18784262Y12600879D01*
X18754115Y12616993D01*
X18727685Y12638685D01*
X18705993Y12665115D01*
X18689879Y12695262D01*
X18679955Y12727976D01*
X18676000Y12768138D01*
X18676000Y14155862D01*
X18679955Y14196024D01*
X18689879Y14228738D01*
X18705993Y14258885D01*
X18727685Y14285315D01*
X18758614Y14310699D01*
X18769352Y14317874D01*
X18786679Y14335200D01*
X18800293Y14355575D01*
X18809670Y14378213D01*
X18814451Y14402247D01*
X18814451Y14426751D01*
X18809671Y14450784D01*
X18800294Y14473423D01*
X18786680Y14493798D01*
X18769354Y14511125D01*
X18758613Y14518302D01*
X18727685Y14543685D01*
X18705993Y14570115D01*
X18689879Y14600262D01*
X18679955Y14632976D01*
X18676000Y14673138D01*
X18676000Y16060862D01*
X18679955Y16101024D01*
X18689879Y16133738D01*
X18705993Y16163885D01*
X18727685Y16190315D01*
X18758614Y16215699D01*
X18769352Y16222874D01*
X18786679Y16240200D01*
X18800293Y16260575D01*
X18809670Y16283213D01*
X18814451Y16307247D01*
X18814451Y16331751D01*
X18809671Y16355784D01*
X18800294Y16378423D01*
X18786680Y16398798D01*
X18769354Y16416125D01*
X18758613Y16423302D01*
X18727685Y16448685D01*
X18705993Y16475115D01*
X18689879Y16505262D01*
X18679955Y16537976D01*
X18676000Y16578138D01*
X18676000Y17965862D01*
X18679955Y18006024D01*
X18689879Y18038738D01*
X18705993Y18068885D01*
X18727685Y18095315D01*
X18758614Y18120699D01*
X18769352Y18127874D01*
X18786679Y18145200D01*
X18800293Y18165575D01*
X18809670Y18188213D01*
X18814451Y18212247D01*
X18814451Y18236751D01*
X18809671Y18260784D01*
X18800294Y18283423D01*
X18786680Y18303798D01*
X18769354Y18321125D01*
X18758613Y18328302D01*
X18727685Y18353685D01*
X18705993Y18380115D01*
X18689879Y18410262D01*
X18679955Y18442976D01*
X18676000Y18483138D01*
X18676000Y19870862D01*
X18679955Y19911024D01*
X18689879Y19943738D01*
X18705993Y19973885D01*
X18727685Y20000315D01*
X18758614Y20025699D01*
X18769352Y20032874D01*
X18786679Y20050200D01*
X18800293Y20070575D01*
X18809670Y20093213D01*
X18814451Y20117247D01*
X18814451Y20141751D01*
X18809671Y20165784D01*
X18800294Y20188423D01*
X18786680Y20208798D01*
X18769354Y20226125D01*
X18758613Y20233302D01*
X18727685Y20258685D01*
X18705993Y20285115D01*
X18689879Y20315262D01*
X18679955Y20347976D01*
X18676000Y20388138D01*
X18676000Y21775862D01*
X18679955Y21816024D01*
X18689879Y21848738D01*
X18705993Y21878885D01*
X18727685Y21905315D01*
X18754115Y21927007D01*
X18784262Y21943121D01*
X18816976Y21953045D01*
X18857138Y21957000D01*
X19744862Y21957000D01*
X19785024Y21953045D01*
G37*
G36*
X22585024Y21953045D02*
G01*
X22617738Y21943121D01*
X22647885Y21927007D01*
X22674315Y21905315D01*
X22696007Y21878885D01*
X22712121Y21848738D01*
X22722045Y21816024D01*
X22726000Y21775862D01*
X22726000Y20388138D01*
X22722045Y20347976D01*
X22712121Y20315262D01*
X22696007Y20285115D01*
X22674315Y20258685D01*
X22643386Y20233301D01*
X22632648Y20226126D01*
X22615321Y20208800D01*
X22601707Y20188425D01*
X22592330Y20165787D01*
X22587549Y20141753D01*
X22587549Y20117249D01*
X22592329Y20093216D01*
X22601706Y20070577D01*
X22615320Y20050202D01*
X22632646Y20032875D01*
X22643387Y20025698D01*
X22674315Y20000315D01*
X22696007Y19973885D01*
X22712121Y19943738D01*
X22722045Y19911024D01*
X22726000Y19870862D01*
X22726000Y18483138D01*
X22722045Y18442976D01*
X22712121Y18410262D01*
X22696007Y18380115D01*
X22674315Y18353685D01*
X22643386Y18328301D01*
X22632648Y18321126D01*
X22615321Y18303800D01*
X22601707Y18283425D01*
X22592330Y18260787D01*
X22587549Y18236753D01*
X22587549Y18212249D01*
X22592329Y18188216D01*
X22601706Y18165577D01*
X22615320Y18145202D01*
X22632646Y18127875D01*
X22643387Y18120698D01*
X22674315Y18095315D01*
X22696007Y18068885D01*
X22712121Y18038738D01*
X22722045Y18006024D01*
X22726000Y17965862D01*
X22726000Y16578138D01*
X22722045Y16537976D01*
X22712121Y16505262D01*
X22696007Y16475115D01*
X22674315Y16448685D01*
X22643386Y16423301D01*
X22632648Y16416126D01*
X22615321Y16398800D01*
X22601707Y16378425D01*
X22592330Y16355787D01*
X22587549Y16331753D01*
X22587549Y16307249D01*
X22592329Y16283216D01*
X22601706Y16260577D01*
X22615320Y16240202D01*
X22632646Y16222875D01*
X22643387Y16215698D01*
X22674315Y16190315D01*
X22696007Y16163885D01*
X22712121Y16133738D01*
X22722045Y16101024D01*
X22726000Y16060862D01*
X22726000Y14673138D01*
X22722045Y14632976D01*
X22712121Y14600262D01*
X22696007Y14570115D01*
X22674315Y14543685D01*
X22643386Y14518301D01*
X22632648Y14511126D01*
X22615321Y14493800D01*
X22601707Y14473425D01*
X22592330Y14450787D01*
X22587549Y14426753D01*
X22587549Y14402249D01*
X22592329Y14378216D01*
X22601706Y14355577D01*
X22615320Y14335202D01*
X22632646Y14317875D01*
X22643387Y14310698D01*
X22674315Y14285315D01*
X22696007Y14258885D01*
X22712121Y14228738D01*
X22722045Y14196024D01*
X22726000Y14155862D01*
X22726000Y12768138D01*
X22722045Y12727976D01*
X22712121Y12695262D01*
X22696007Y12665115D01*
X22674315Y12638685D01*
X22647885Y12616993D01*
X22617738Y12600879D01*
X22585024Y12590955D01*
X22544862Y12587000D01*
X21657138Y12587000D01*
X21616976Y12590955D01*
X21584262Y12600879D01*
X21554115Y12616993D01*
X21527685Y12638685D01*
X21505993Y12665115D01*
X21489879Y12695262D01*
X21479955Y12727976D01*
X21476000Y12768138D01*
X21476000Y14155862D01*
X21479955Y14196024D01*
X21489879Y14228738D01*
X21505993Y14258885D01*
X21527685Y14285315D01*
X21558614Y14310699D01*
X21569352Y14317874D01*
X21586679Y14335200D01*
X21600293Y14355575D01*
X21609670Y14378213D01*
X21614451Y14402247D01*
X21614451Y14426751D01*
X21609671Y14450784D01*
X21600294Y14473423D01*
X21586680Y14493798D01*
X21569354Y14511125D01*
X21558613Y14518302D01*
X21527685Y14543685D01*
X21505993Y14570115D01*
X21489879Y14600262D01*
X21479955Y14632976D01*
X21476000Y14673138D01*
X21476000Y16060862D01*
X21479955Y16101024D01*
X21489879Y16133738D01*
X21505993Y16163885D01*
X21527685Y16190315D01*
X21558614Y16215699D01*
X21569352Y16222874D01*
X21586679Y16240200D01*
X21600293Y16260575D01*
X21609670Y16283213D01*
X21614451Y16307247D01*
X21614451Y16331751D01*
X21609671Y16355784D01*
X21600294Y16378423D01*
X21586680Y16398798D01*
X21569354Y16416125D01*
X21558613Y16423302D01*
X21527685Y16448685D01*
X21505993Y16475115D01*
X21489879Y16505262D01*
X21479955Y16537976D01*
X21476000Y16578138D01*
X21476000Y17965862D01*
X21479955Y18006024D01*
X21489879Y18038738D01*
X21505993Y18068885D01*
X21527685Y18095315D01*
X21558614Y18120699D01*
X21569352Y18127874D01*
X21586679Y18145200D01*
X21600293Y18165575D01*
X21609670Y18188213D01*
X21614451Y18212247D01*
X21614451Y18236751D01*
X21609671Y18260784D01*
X21600294Y18283423D01*
X21586680Y18303798D01*
X21569354Y18321125D01*
X21558613Y18328302D01*
X21527685Y18353685D01*
X21505993Y18380115D01*
X21489879Y18410262D01*
X21479955Y18442976D01*
X21476000Y18483138D01*
X21476000Y19870862D01*
X21479955Y19911024D01*
X21489879Y19943738D01*
X21505993Y19973885D01*
X21527685Y20000315D01*
X21558614Y20025699D01*
X21569352Y20032874D01*
X21586679Y20050200D01*
X21600293Y20070575D01*
X21609670Y20093213D01*
X21614451Y20117247D01*
X21614451Y20141751D01*
X21609671Y20165784D01*
X21600294Y20188423D01*
X21586680Y20208798D01*
X21569354Y20226125D01*
X21558613Y20233302D01*
X21527685Y20258685D01*
X21505993Y20285115D01*
X21489879Y20315262D01*
X21479955Y20347976D01*
X21476000Y20388138D01*
X21476000Y21775862D01*
X21479955Y21816024D01*
X21489879Y21848738D01*
X21505993Y21878885D01*
X21527685Y21905315D01*
X21554115Y21927007D01*
X21584262Y21943121D01*
X21616976Y21953045D01*
X21657138Y21957000D01*
X22544862Y21957000D01*
X22585024Y21953045D01*
G37*
G36*
X17379453Y13662726D02*
G01*
X17395753Y13657781D01*
X17410775Y13649751D01*
X17423944Y13638944D01*
X17434751Y13625775D01*
X17442781Y13610753D01*
X17447726Y13594453D01*
X17450000Y13571360D01*
X17450000Y13158640D01*
X17447726Y13135547D01*
X17442781Y13119247D01*
X17434751Y13104225D01*
X17423944Y13091056D01*
X17410775Y13080249D01*
X17395753Y13072219D01*
X17379453Y13067274D01*
X17356360Y13065000D01*
X15593640Y13065000D01*
X15570547Y13067274D01*
X15554247Y13072219D01*
X15539225Y13080249D01*
X15526056Y13091056D01*
X15515249Y13104225D01*
X15507219Y13119247D01*
X15502274Y13135547D01*
X15500000Y13158640D01*
X15500000Y13571360D01*
X15502274Y13594453D01*
X15507219Y13610753D01*
X15515249Y13625775D01*
X15526056Y13638944D01*
X15539225Y13649751D01*
X15554247Y13657781D01*
X15570547Y13662726D01*
X15593640Y13665000D01*
X17356360Y13665000D01*
X17379453Y13662726D01*
G37*
G36*
X12429453Y13662726D02*
G01*
X12445753Y13657781D01*
X12460775Y13649751D01*
X12473944Y13638944D01*
X12484751Y13625775D01*
X12492781Y13610753D01*
X12497726Y13594453D01*
X12500000Y13571360D01*
X12500000Y13158640D01*
X12497726Y13135547D01*
X12492781Y13119247D01*
X12484751Y13104225D01*
X12473944Y13091056D01*
X12460775Y13080249D01*
X12445753Y13072219D01*
X12429453Y13067274D01*
X12406360Y13065000D01*
X10643640Y13065000D01*
X10620547Y13067274D01*
X10604247Y13072219D01*
X10589225Y13080249D01*
X10576056Y13091056D01*
X10565249Y13104225D01*
X10557219Y13119247D01*
X10552274Y13135547D01*
X10550000Y13158640D01*
X10550000Y13571360D01*
X10552274Y13594453D01*
X10557219Y13610753D01*
X10565249Y13625775D01*
X10576056Y13638944D01*
X10589225Y13649751D01*
X10604247Y13657781D01*
X10620547Y13662726D01*
X10643640Y13665000D01*
X12406360Y13665000D01*
X12429453Y13662726D01*
G37*
G36*
X27218000Y13676000D02*
G01*
X25868000Y13676000D01*
X25868000Y15026000D01*
X27218000Y15026000D01*
X27218000Y13676000D01*
G37*
G36*
X17379453Y14932726D02*
G01*
X17395753Y14927781D01*
X17410775Y14919751D01*
X17423944Y14908944D01*
X17434751Y14895775D01*
X17442781Y14880753D01*
X17447726Y14864453D01*
X17450000Y14841360D01*
X17450000Y14428640D01*
X17447726Y14405547D01*
X17442781Y14389247D01*
X17434751Y14374225D01*
X17423944Y14361056D01*
X17410775Y14350249D01*
X17395753Y14342219D01*
X17379453Y14337274D01*
X17356360Y14335000D01*
X15593640Y14335000D01*
X15570547Y14337274D01*
X15554247Y14342219D01*
X15539225Y14350249D01*
X15526056Y14361056D01*
X15515249Y14374225D01*
X15507219Y14389247D01*
X15502274Y14405547D01*
X15500000Y14428640D01*
X15500000Y14841360D01*
X15502274Y14864453D01*
X15507219Y14880753D01*
X15515249Y14895775D01*
X15526056Y14908944D01*
X15539225Y14919751D01*
X15554247Y14927781D01*
X15570547Y14932726D01*
X15593640Y14935000D01*
X17356360Y14935000D01*
X17379453Y14932726D01*
G37*
G36*
X12429453Y14932726D02*
G01*
X12445753Y14927781D01*
X12460775Y14919751D01*
X12473944Y14908944D01*
X12484751Y14895775D01*
X12492781Y14880753D01*
X12497726Y14864453D01*
X12500000Y14841360D01*
X12500000Y14428640D01*
X12497726Y14405547D01*
X12492781Y14389247D01*
X12484751Y14374225D01*
X12473944Y14361056D01*
X12460775Y14350249D01*
X12445753Y14342219D01*
X12429453Y14337274D01*
X12406360Y14335000D01*
X10643640Y14335000D01*
X10620547Y14337274D01*
X10604247Y14342219D01*
X10589225Y14350249D01*
X10576056Y14361056D01*
X10565249Y14374225D01*
X10557219Y14389247D01*
X10552274Y14405547D01*
X10550000Y14428640D01*
X10550000Y14841360D01*
X10552274Y14864453D01*
X10557219Y14880753D01*
X10565249Y14895775D01*
X10576056Y14908944D01*
X10589225Y14919751D01*
X10604247Y14927781D01*
X10620547Y14932726D01*
X10643640Y14935000D01*
X12406360Y14935000D01*
X12429453Y14932726D01*
G37*
G36*
X12429453Y16202726D02*
G01*
X12445753Y16197781D01*
X12460775Y16189751D01*
X12473944Y16178944D01*
X12484751Y16165775D01*
X12492781Y16150753D01*
X12497726Y16134453D01*
X12500000Y16111360D01*
X12500000Y15698640D01*
X12497726Y15675547D01*
X12492781Y15659247D01*
X12484751Y15644225D01*
X12473944Y15631056D01*
X12460775Y15620249D01*
X12445753Y15612219D01*
X12429453Y15607274D01*
X12406360Y15605000D01*
X10643640Y15605000D01*
X10620547Y15607274D01*
X10604247Y15612219D01*
X10589225Y15620249D01*
X10576056Y15631056D01*
X10565249Y15644225D01*
X10557219Y15659247D01*
X10552274Y15675547D01*
X10550000Y15698640D01*
X10550000Y16111360D01*
X10552274Y16134453D01*
X10557219Y16150753D01*
X10565249Y16165775D01*
X10576056Y16178944D01*
X10589225Y16189751D01*
X10604247Y16197781D01*
X10620547Y16202726D01*
X10643640Y16205000D01*
X12406360Y16205000D01*
X12429453Y16202726D01*
G37*
G36*
X17379453Y16202726D02*
G01*
X17395753Y16197781D01*
X17410775Y16189751D01*
X17423944Y16178944D01*
X17434751Y16165775D01*
X17442781Y16150753D01*
X17447726Y16134453D01*
X17450000Y16111360D01*
X17450000Y15698640D01*
X17447726Y15675547D01*
X17442781Y15659247D01*
X17434751Y15644225D01*
X17423944Y15631056D01*
X17410775Y15620249D01*
X17395753Y15612219D01*
X17379453Y15607274D01*
X17356360Y15605000D01*
X15593640Y15605000D01*
X15570547Y15607274D01*
X15554247Y15612219D01*
X15539225Y15620249D01*
X15526056Y15631056D01*
X15515249Y15644225D01*
X15507219Y15659247D01*
X15502274Y15675547D01*
X15500000Y15698640D01*
X15500000Y16111360D01*
X15502274Y16134453D01*
X15507219Y16150753D01*
X15515249Y16165775D01*
X15526056Y16178944D01*
X15539225Y16189751D01*
X15554247Y16197781D01*
X15570547Y16202726D01*
X15593640Y16205000D01*
X17356360Y16205000D01*
X17379453Y16202726D01*
G37*
G36*
X26739889Y17000061D02*
G01*
X26862731Y16949178D01*
X26973287Y16875307D01*
X27067307Y16781287D01*
X27141178Y16670731D01*
X27192061Y16547889D01*
X27218000Y16417483D01*
X27218000Y16284517D01*
X27192061Y16154111D01*
X27141178Y16031269D01*
X27067307Y15920713D01*
X26973287Y15826693D01*
X26862731Y15752822D01*
X26739889Y15701939D01*
X26609483Y15676000D01*
X26476517Y15676000D01*
X26346111Y15701939D01*
X26223269Y15752822D01*
X26112713Y15826693D01*
X26018693Y15920713D01*
X25944822Y16031269D01*
X25893939Y16154111D01*
X25868000Y16284517D01*
X25868000Y16417483D01*
X25893939Y16547889D01*
X25944822Y16670731D01*
X26018693Y16781287D01*
X26112713Y16875307D01*
X26223269Y16949178D01*
X26346111Y17000061D01*
X26476517Y17026000D01*
X26609483Y17026000D01*
X26739889Y17000061D01*
G37*
G36*
X26739889Y19000061D02*
G01*
X26862731Y18949178D01*
X26973287Y18875307D01*
X27067307Y18781287D01*
X27141178Y18670731D01*
X27192061Y18547889D01*
X27218000Y18417483D01*
X27218000Y18284517D01*
X27192061Y18154111D01*
X27141178Y18031269D01*
X27067307Y17920713D01*
X26973287Y17826693D01*
X26862731Y17752822D01*
X26739889Y17701939D01*
X26609483Y17676000D01*
X26476517Y17676000D01*
X26346111Y17701939D01*
X26223269Y17752822D01*
X26112713Y17826693D01*
X26018693Y17920713D01*
X25944822Y18031269D01*
X25893939Y18154111D01*
X25868000Y18284517D01*
X25868000Y18417483D01*
X25893939Y18547889D01*
X25944822Y18670731D01*
X26018693Y18781287D01*
X26112713Y18875307D01*
X26223269Y18949178D01*
X26346111Y19000061D01*
X26476517Y19026000D01*
X26609483Y19026000D01*
X26739889Y19000061D01*
G37*
G36*
X24737024Y19096545D02*
G01*
X24769738Y19086621D01*
X24799885Y19070507D01*
X24826315Y19048815D01*
X24848007Y19022385D01*
X24864121Y18992238D01*
X24874045Y18959524D01*
X24878000Y18919362D01*
X24878000Y18031638D01*
X24874045Y17991476D01*
X24864121Y17958762D01*
X24848007Y17928615D01*
X24826315Y17902185D01*
X24799885Y17880493D01*
X24769738Y17864379D01*
X24737024Y17854455D01*
X24696862Y17850500D01*
X23309138Y17850500D01*
X23268976Y17854455D01*
X23236262Y17864379D01*
X23206115Y17880493D01*
X23179685Y17902185D01*
X23157993Y17928615D01*
X23141879Y17958762D01*
X23131955Y17991476D01*
X23128000Y18031638D01*
X23128000Y18919362D01*
X23131955Y18959524D01*
X23141879Y18992238D01*
X23157993Y19022385D01*
X23179685Y19048815D01*
X23206115Y19070507D01*
X23236262Y19086621D01*
X23268976Y19096545D01*
X23309138Y19100500D01*
X24696862Y19100500D01*
X24737024Y19096545D01*
G37*
G36*
X26739889Y21000061D02*
G01*
X26862731Y20949178D01*
X26973287Y20875307D01*
X27067307Y20781287D01*
X27141178Y20670731D01*
X27192061Y20547889D01*
X27218000Y20417483D01*
X27218000Y20284517D01*
X27192061Y20154111D01*
X27141178Y20031269D01*
X27067307Y19920713D01*
X26973287Y19826693D01*
X26862731Y19752822D01*
X26739889Y19701939D01*
X26609483Y19676000D01*
X26476517Y19676000D01*
X26346111Y19701939D01*
X26223269Y19752822D01*
X26112713Y19826693D01*
X26018693Y19920713D01*
X25944822Y20031269D01*
X25893939Y20154111D01*
X25868000Y20284517D01*
X25868000Y20417483D01*
X25893939Y20547889D01*
X25944822Y20670731D01*
X26018693Y20781287D01*
X26112713Y20875307D01*
X26223269Y20949178D01*
X26346111Y21000061D01*
X26476517Y21026000D01*
X26609483Y21026000D01*
X26739889Y21000061D01*
G37*
G36*
X24737024Y21896545D02*
G01*
X24769738Y21886621D01*
X24799885Y21870507D01*
X24826315Y21848815D01*
X24848007Y21822385D01*
X24864121Y21792238D01*
X24874045Y21759524D01*
X24878000Y21719362D01*
X24878000Y20831638D01*
X24874045Y20791476D01*
X24864121Y20758762D01*
X24848007Y20728615D01*
X24826315Y20702185D01*
X24799885Y20680493D01*
X24769738Y20664379D01*
X24737024Y20654455D01*
X24696862Y20650500D01*
X23309138Y20650500D01*
X23268976Y20654455D01*
X23236262Y20664379D01*
X23206115Y20680493D01*
X23179685Y20702185D01*
X23157993Y20728615D01*
X23141879Y20758762D01*
X23131955Y20791476D01*
X23128000Y20831638D01*
X23128000Y21719362D01*
X23131955Y21759524D01*
X23141879Y21792238D01*
X23157993Y21822385D01*
X23179685Y21848815D01*
X23206115Y21870507D01*
X23236262Y21886621D01*
X23268976Y21896545D01*
X23309138Y21900500D01*
X24696862Y21900500D01*
X24737024Y21896545D01*
G37*
G36*
X26022767Y27741075D02*
G01*
X26170885Y27711613D01*
X26589459Y27538234D01*
X26966165Y27286527D01*
X27286527Y26966165D01*
X27538234Y26589459D01*
X27538235Y26589457D01*
X27711613Y26170884D01*
X27800000Y25726532D01*
X27800000Y25273468D01*
X27768553Y25115372D01*
X27711613Y24829115D01*
X27633394Y24640277D01*
X27544360Y24425329D01*
X27538234Y24410541D01*
X27286527Y24033835D01*
X26966165Y23713473D01*
X26589459Y23461766D01*
X26170885Y23288387D01*
X26081086Y23270525D01*
X25726532Y23200000D01*
X25273468Y23200000D01*
X24918914Y23270525D01*
X24829115Y23288387D01*
X24410541Y23461766D01*
X24033835Y23713473D01*
X23713473Y24033835D01*
X23461766Y24410541D01*
X23455641Y24425329D01*
X23366606Y24640277D01*
X23288387Y24829115D01*
X23231447Y25115372D01*
X23200000Y25273468D01*
X23200000Y25726532D01*
X23288387Y26170884D01*
X23461765Y26589457D01*
X23461766Y26589459D01*
X23713473Y26966165D01*
X24033835Y27286527D01*
X24410541Y27538234D01*
X24829115Y27711613D01*
X24977233Y27741075D01*
X25273468Y27800000D01*
X25726532Y27800000D01*
X26022767Y27741075D01*
G37*
G36*
X3022767Y27741075D02*
G01*
X3170885Y27711613D01*
X3589459Y27538234D01*
X3966165Y27286527D01*
X4286527Y26966165D01*
X4538234Y26589459D01*
X4538235Y26589457D01*
X4711613Y26170884D01*
X4800000Y25726532D01*
X4800000Y25273468D01*
X4768553Y25115372D01*
X4711613Y24829115D01*
X4633394Y24640277D01*
X4544360Y24425329D01*
X4538234Y24410541D01*
X4286527Y24033835D01*
X3966165Y23713473D01*
X3589459Y23461766D01*
X3170885Y23288387D01*
X3081086Y23270525D01*
X2726532Y23200000D01*
X2273468Y23200000D01*
X1918914Y23270525D01*
X1829115Y23288387D01*
X1410541Y23461766D01*
X1033835Y23713473D01*
X713473Y24033835D01*
X461766Y24410541D01*
X455641Y24425329D01*
X366606Y24640277D01*
X288387Y24829115D01*
X231447Y25115372D01*
X200000Y25273468D01*
X200000Y25726532D01*
X288387Y26170884D01*
X461765Y26589457D01*
X461766Y26589459D01*
X713473Y26966165D01*
X1033835Y27286527D01*
X1410541Y27538234D01*
X1829115Y27711613D01*
X1977233Y27741075D01*
X2273468Y27800000D01*
X2726532Y27800000D01*
X3022767Y27741075D01*
G37*
G36*
X13453121Y26012318D02*
G01*
X13566221Y25978010D01*
X13670455Y25922296D01*
X13761817Y25847317D01*
X13836796Y25755955D01*
X13892510Y25651721D01*
X13926818Y25538621D01*
X13935500Y25450474D01*
X13935500Y24841526D01*
X13926818Y24753379D01*
X13892510Y24640279D01*
X13836796Y24536045D01*
X13761817Y24444683D01*
X13670454Y24369704D01*
X13566220Y24313990D01*
X13453120Y24279682D01*
X13335500Y24268097D01*
X13217879Y24279682D01*
X13104779Y24313990D01*
X13000545Y24369704D01*
X12909183Y24444683D01*
X12834204Y24536046D01*
X12778490Y24640280D01*
X12744182Y24753380D01*
X12735500Y24841527D01*
X12735500Y25450474D01*
X12744182Y25538621D01*
X12778490Y25651721D01*
X12834205Y25755955D01*
X12909184Y25847317D01*
X13000546Y25922296D01*
X13104780Y25978010D01*
X13217880Y26012318D01*
X13335500Y26023903D01*
X13453121Y26012318D01*
G37*
G36*
X15453121Y26012318D02*
G01*
X15566221Y25978010D01*
X15670455Y25922296D01*
X15761817Y25847317D01*
X15836796Y25755955D01*
X15892510Y25651721D01*
X15926818Y25538621D01*
X15935500Y25450474D01*
X15935500Y24841526D01*
X15926818Y24753379D01*
X15892510Y24640279D01*
X15836796Y24536045D01*
X15761817Y24444683D01*
X15670454Y24369704D01*
X15566220Y24313990D01*
X15453120Y24279682D01*
X15335500Y24268097D01*
X15217879Y24279682D01*
X15104779Y24313990D01*
X15000545Y24369704D01*
X14909183Y24444683D01*
X14834204Y24536046D01*
X14778490Y24640280D01*
X14744182Y24753380D01*
X14735500Y24841527D01*
X14735500Y25450474D01*
X14744182Y25538621D01*
X14778490Y25651721D01*
X14834205Y25755955D01*
X14909184Y25847317D01*
X15000546Y25922296D01*
X15104780Y25978010D01*
X15217880Y26012318D01*
X15335500Y26023903D01*
X15453121Y26012318D01*
G37*
G36*
X11453121Y26012318D02*
G01*
X11566221Y25978010D01*
X11670455Y25922296D01*
X11761817Y25847317D01*
X11836796Y25755955D01*
X11892510Y25651721D01*
X11926818Y25538621D01*
X11935500Y25450474D01*
X11935500Y24841526D01*
X11926818Y24753379D01*
X11892510Y24640279D01*
X11836796Y24536045D01*
X11761817Y24444683D01*
X11670454Y24369704D01*
X11566220Y24313990D01*
X11453120Y24279682D01*
X11335500Y24268097D01*
X11217879Y24279682D01*
X11104779Y24313990D01*
X11000545Y24369704D01*
X10909183Y24444683D01*
X10834204Y24536046D01*
X10778490Y24640280D01*
X10744182Y24753380D01*
X10735500Y24841527D01*
X10735500Y25450474D01*
X10744182Y25538621D01*
X10778490Y25651721D01*
X10834205Y25755955D01*
X10909184Y25847317D01*
X11000546Y25922296D01*
X11104780Y25978010D01*
X11217880Y26012318D01*
X11335500Y26023903D01*
X11453121Y26012318D01*
G37*
G36*
X17792845Y26017005D02*
G01*
X17825951Y26006962D01*
X17856464Y25990653D01*
X17883206Y25968706D01*
X17905153Y25941964D01*
X17921462Y25911451D01*
X17931505Y25878345D01*
X17935500Y25837779D01*
X17935500Y24454221D01*
X17931505Y24413655D01*
X17921462Y24380549D01*
X17905153Y24350036D01*
X17883206Y24323294D01*
X17856464Y24301347D01*
X17825951Y24285038D01*
X17792845Y24274995D01*
X17752279Y24271000D01*
X16918721Y24271000D01*
X16878155Y24274995D01*
X16845049Y24285038D01*
X16814536Y24301347D01*
X16787794Y24323294D01*
X16765847Y24350036D01*
X16749538Y24380549D01*
X16739495Y24413655D01*
X16735500Y24454221D01*
X16735500Y25837779D01*
X16739495Y25878345D01*
X16749538Y25911451D01*
X16765847Y25941964D01*
X16787794Y25968706D01*
X16814536Y25990653D01*
X16845049Y26006962D01*
X16878155Y26017005D01*
X16918721Y26021000D01*
X17752279Y26021000D01*
X17792845Y26017005D01*
G37*
M02*
