%TF.GenerationSoftware,KiCad,Pcbnew,(6.0.7)*%
%TF.CreationDate,2024-01-02T21:25:37+08:00*%
%TF.ProjectId,stepper-motor-20,73746570-7065-4722-9d6d-6f746f722d32,1*%
%TF.SameCoordinates,PX6979f40PYa1135a0*%
%TF.FileFunction,Legend,Top*%
%TF.FilePolarity,Positive*%
%FSLAX46Y46*%
G04 Gerber Fmt 4.6, Leading zero omitted, Abs format (unit mm)*
G04 Created by KiCad (PCBNEW (6.0.7)) date 2024-01-02 21:25:37*
%MOMM*%
%LPD*%
G01*
G04 APERTURE LIST*
G04 Aperture macros list*
%AMRoundRect*
0 Rectangle with rounded corners*
0 $1 Rounding radius*
0 $2 $3 $4 $5 $6 $7 $8 $9 X,Y pos of 4 corners*
0 Add a 4 corners polygon primitive as box body*
4,1,4,$2,$3,$4,$5,$6,$7,$8,$9,$2,$3,0*
0 Add four circle primitives for the rounded corners*
1,1,$1+$1,$2,$3*
1,1,$1+$1,$4,$5*
1,1,$1+$1,$6,$7*
1,1,$1+$1,$8,$9*
0 Add four rect primitives between the rounded corners*
20,1,$1+$1,$2,$3,$4,$5,0*
20,1,$1+$1,$4,$5,$6,$7,0*
20,1,$1+$1,$6,$7,$8,$9,0*
20,1,$1+$1,$8,$9,$2,$3,0*%
G04 Aperture macros list end*
%ADD10C,0.150000*%
%ADD11C,0.100000*%
%ADD12C,0.120000*%
%ADD13RoundRect,0.147500X0.147500X0.172500X-0.147500X0.172500X-0.147500X-0.172500X0.147500X-0.172500X0*%
%ADD14RoundRect,0.147500X-0.147500X-0.172500X0.147500X-0.172500X0.147500X0.172500X-0.147500X0.172500X0*%
%ADD15RoundRect,0.147500X-0.172500X0.147500X-0.172500X-0.147500X0.172500X-0.147500X0.172500X0.147500X0*%
%ADD16RoundRect,0.140000X-0.140000X-0.170000X0.140000X-0.170000X0.140000X0.170000X-0.140000X0.170000X0*%
%ADD17RoundRect,0.140000X0.140000X0.170000X-0.140000X0.170000X-0.140000X-0.170000X0.140000X-0.170000X0*%
%ADD18RoundRect,0.225000X-0.250000X0.225000X-0.250000X-0.225000X0.250000X-0.225000X0.250000X0.225000X0*%
%ADD19R,0.450000X0.600000*%
%ADD20C,0.600000*%
%ADD21C,3.600000*%
%ADD22R,0.850000X0.850000*%
%ADD23O,0.850000X0.850000*%
%ADD24R,1.350000X1.350000*%
%ADD25O,1.350000X1.350000*%
%ADD26R,2.700000X0.800000*%
%ADD27RoundRect,0.243750X0.456250X-0.243750X0.456250X0.243750X-0.456250X0.243750X-0.456250X-0.243750X0*%
%ADD28RoundRect,0.147500X0.172500X-0.147500X0.172500X0.147500X-0.172500X0.147500X-0.172500X-0.147500X0*%
%ADD29RoundRect,0.050000X0.387500X0.050000X-0.387500X0.050000X-0.387500X-0.050000X0.387500X-0.050000X0*%
%ADD30RoundRect,0.050000X0.050000X0.387500X-0.050000X0.387500X-0.050000X-0.387500X0.050000X-0.387500X0*%
%ADD31R,2.600000X2.600000*%
%ADD32RoundRect,0.150000X-0.825000X-0.150000X0.825000X-0.150000X0.825000X0.150000X-0.825000X0.150000X0*%
%ADD33R,2.410000X3.300000*%
%ADD34R,1.060000X0.650000*%
%ADD35RoundRect,0.135000X-0.135000X-0.185000X0.135000X-0.185000X0.135000X0.185000X-0.135000X0.185000X0*%
%ADD36RoundRect,0.200000X-0.200000X-0.800000X0.200000X-0.800000X0.200000X0.800000X-0.200000X0.800000X0*%
%ADD37RoundRect,0.135000X0.135000X0.185000X-0.135000X0.185000X-0.135000X-0.185000X0.135000X-0.185000X0*%
%ADD38RoundRect,0.225000X0.250000X-0.225000X0.250000X0.225000X-0.250000X0.225000X-0.250000X-0.225000X0*%
G04 APERTURE END LIST*
D10*
X4419600Y19507200D02*
X4419600Y17373600D01*
X14060000Y19509200D02*
X15697200Y19507200D01*
X5892800Y19507200D02*
X4419600Y19507200D01*
X15697200Y19507200D02*
X15697200Y17424400D01*
X15697200Y17424400D02*
X14013000Y17419000D01*
X4419600Y17373600D02*
X5940000Y17389200D01*
D11*
X14211333Y18390400D02*
X14744666Y18390400D01*
X14478000Y18123734D02*
X14478000Y18657067D01*
X4825200Y18490400D02*
X4925200Y18457067D01*
X4958533Y18423734D01*
X4991866Y18357067D01*
X4991866Y18257067D01*
X4958533Y18190400D01*
X4925200Y18157067D01*
X4858533Y18123734D01*
X4591866Y18123734D01*
X4591866Y18823734D01*
X4825200Y18823734D01*
X4891866Y18790400D01*
X4925200Y18757067D01*
X4958533Y18690400D01*
X4958533Y18623734D01*
X4925200Y18557067D01*
X4891866Y18523734D01*
X4825200Y18490400D01*
X4591866Y18490400D01*
X3251333Y4599734D02*
X3484666Y3899734D01*
X3718000Y4599734D01*
X4318000Y3899734D02*
X3918000Y3899734D01*
X4118000Y3899734D02*
X4118000Y4599734D01*
X4051333Y4499734D01*
X3984666Y4433067D01*
X3918000Y4399734D01*
X4618000Y3966400D02*
X4651333Y3933067D01*
X4618000Y3899734D01*
X4584666Y3933067D01*
X4618000Y3966400D01*
X4618000Y3899734D01*
X5084666Y4599734D02*
X5151333Y4599734D01*
X5218000Y4566400D01*
X5251333Y4533067D01*
X5284666Y4466400D01*
X5318000Y4333067D01*
X5318000Y4166400D01*
X5284666Y4033067D01*
X5251333Y3966400D01*
X5218000Y3933067D01*
X5151333Y3899734D01*
X5084666Y3899734D01*
X5018000Y3933067D01*
X4984666Y3966400D01*
X4951333Y4033067D01*
X4918000Y4166400D01*
X4918000Y4333067D01*
X4951333Y4466400D01*
X4984666Y4533067D01*
X5018000Y4566400D01*
X5084666Y4599734D01*
X14973333Y18390400D02*
X15506666Y18390400D01*
X5319733Y18323734D02*
X5653066Y18323734D01*
X5253066Y18123734D02*
X5486400Y18823734D01*
X5719733Y18123734D01*
D12*
%TO.C,C12*%
X7126364Y9546000D02*
X7342036Y9546000D01*
X7126364Y10266000D02*
X7342036Y10266000D01*
%TO.C,C16*%
X7128764Y8640400D02*
X7344436Y8640400D01*
X7128764Y7920400D02*
X7344436Y7920400D01*
%TO.C,C19*%
X16668636Y7776800D02*
X16452964Y7776800D01*
X16668636Y7056800D02*
X16452964Y7056800D01*
%TO.C,C20*%
X16668636Y12145600D02*
X16452964Y12145600D01*
X16668636Y11425600D02*
X16452964Y11425600D01*
%TO.C,C24*%
X201200Y9810180D02*
X201200Y9529020D01*
X1221200Y9810180D02*
X1221200Y9529020D01*
%TO.C,C26*%
X13846836Y6303600D02*
X13631164Y6303600D01*
X13846836Y5583600D02*
X13631164Y5583600D01*
D11*
%TO.C,D1*%
X253000Y5159000D02*
G75*
G03*
X253000Y5159000I-50000J0D01*
G01*
%TO.C,D2*%
X253000Y6096000D02*
G75*
G03*
X253000Y6096000I-50000J0D01*
G01*
D12*
%TO.C,D3*%
X5879200Y11609200D02*
X4179200Y11609200D01*
X5879200Y11609200D02*
X5879200Y9059200D01*
X4179200Y11609200D02*
X4179200Y9059200D01*
%TO.C,J2*%
X7847800Y1406200D02*
X7847800Y711200D01*
X6477800Y16200D02*
X3602800Y16200D01*
X3602800Y1406200D02*
X3602800Y1105693D01*
X6477800Y1406200D02*
X3602800Y1406200D01*
X6477800Y102924D02*
X6477800Y16200D01*
X7162800Y1406200D02*
X7847800Y1406200D01*
X6477800Y1406200D02*
X6477800Y1319476D01*
X3602800Y316707D02*
X3602800Y16200D01*
%TO.C,J3*%
X20110000Y9176000D02*
X17990000Y9176000D01*
X20110000Y9176000D02*
X20110000Y15236000D01*
X20110000Y15236000D02*
X17990000Y15236000D01*
X20110000Y8176000D02*
X20110000Y7116000D01*
X17990000Y9176000D02*
X17990000Y15236000D01*
X20110000Y7116000D02*
X19050000Y7116000D01*
%TO.C,L1*%
X1244800Y11525200D02*
X1244800Y8525200D01*
X4444800Y11525200D02*
X4444800Y8525200D01*
%TO.C,R10*%
X16562000Y13965422D02*
X16562000Y14482578D01*
X17982000Y13965422D02*
X17982000Y14482578D01*
%TO.C,R11*%
X17982000Y9647422D02*
X17982000Y10164578D01*
X16562000Y9647422D02*
X16562000Y10164578D01*
%TO.C,U2*%
X10619000Y5970800D02*
X10619000Y5420800D01*
X6399000Y5970800D02*
X6399000Y5420800D01*
X10069000Y1750800D02*
X10619000Y1750800D01*
X6949000Y1750800D02*
X6399000Y1750800D01*
X10069000Y5970800D02*
X10619000Y5970800D01*
X6399000Y1750800D02*
X6399000Y2300800D01*
X6949000Y5970800D02*
X6399000Y5970800D01*
%TO.C,U3*%
X12063000Y12299000D02*
X10113000Y12299000D01*
X12063000Y17419000D02*
X14013000Y17419000D01*
X12063000Y12299000D02*
X14013000Y12299000D01*
X12063000Y17419000D02*
X8613000Y17419000D01*
%TO.C,U4*%
X12065000Y7219000D02*
X10115000Y7219000D01*
X12065000Y12339000D02*
X14015000Y12339000D01*
X12065000Y7219000D02*
X14015000Y7219000D01*
X12065000Y12339000D02*
X8615000Y12339000D01*
%TO.C,U5*%
X4075000Y14886400D02*
X2275000Y14886400D01*
X2275000Y11666400D02*
X4725000Y11666400D01*
%TO.C,R17*%
X11733559Y4801600D02*
X12040841Y4801600D01*
X11733559Y5561600D02*
X12040841Y5561600D01*
%TO.C,J1*%
X12000000Y19509200D02*
X12000000Y17389200D01*
X12000000Y17389200D02*
X5940000Y17389200D01*
X5940000Y19509200D02*
X5940000Y17389200D01*
X14060000Y19509200D02*
X14060000Y18449200D01*
X12000000Y19509200D02*
X5940000Y19509200D01*
X13000000Y19509200D02*
X14060000Y19509200D01*
%TO.C,C15*%
X7108164Y13187000D02*
X7323836Y13187000D01*
X7108164Y12467000D02*
X7323836Y12467000D01*
%TO.C,C11*%
X7108164Y13991000D02*
X7323836Y13991000D01*
X7108164Y14711000D02*
X7323836Y14711000D01*
%TO.C,SW1*%
X19342000Y4068800D02*
X15202000Y4068800D01*
X19342000Y7208800D02*
X19342000Y6908800D01*
X15202000Y6908800D02*
X15202000Y7208800D01*
X19342000Y4368800D02*
X19342000Y4068800D01*
X15202000Y7208800D02*
X19342000Y7208800D01*
X15202000Y4068800D02*
X15202000Y4368800D01*
%TO.C,C27*%
X11759364Y5583600D02*
X11975036Y5583600D01*
X11759364Y6303600D02*
X11975036Y6303600D01*
%TO.C,NTC1*%
X12040841Y6325600D02*
X11733559Y6325600D01*
X12040841Y7085600D02*
X11733559Y7085600D01*
%TO.C,C23*%
X201200Y12272220D02*
X201200Y12553380D01*
X1221200Y12272220D02*
X1221200Y12553380D01*
%TD*%
%LPC*%
D13*
%TO.C,C3*%
X14224000Y1981200D03*
X13254000Y1981200D03*
%TD*%
D14*
%TO.C,C4*%
X6728600Y11836400D03*
X7698600Y11836400D03*
%TD*%
%TO.C,C5*%
X4645800Y1828800D03*
X5615800Y1828800D03*
%TD*%
D15*
%TO.C,C6*%
X4978400Y6123800D03*
X4978400Y5153800D03*
%TD*%
D14*
%TO.C,C7*%
X11402200Y1016000D03*
X12372200Y1016000D03*
%TD*%
%TO.C,C8*%
X13254000Y4318000D03*
X14224000Y4318000D03*
%TD*%
D13*
%TO.C,C9*%
X14201000Y1016000D03*
X13231000Y1016000D03*
%TD*%
D14*
%TO.C,C10*%
X4747400Y16764000D03*
X5717400Y16764000D03*
%TD*%
D16*
%TO.C,C12*%
X6754200Y9906000D03*
X7714200Y9906000D03*
%TD*%
%TO.C,C16*%
X6756600Y8280400D03*
X7716600Y8280400D03*
%TD*%
D17*
%TO.C,C19*%
X17040800Y7416800D03*
X16080800Y7416800D03*
%TD*%
%TO.C,C20*%
X17040800Y11785600D03*
X16080800Y11785600D03*
%TD*%
D18*
%TO.C,C24*%
X711200Y10444600D03*
X711200Y8894600D03*
%TD*%
D17*
%TO.C,C26*%
X14219000Y5943600D03*
X13259000Y5943600D03*
%TD*%
D14*
%TO.C,D1*%
X808000Y5159000D03*
X1778000Y5159000D03*
%TD*%
%TO.C,D2*%
X808000Y6096000D03*
X1778000Y6096000D03*
%TD*%
D19*
%TO.C,D3*%
X5029200Y11159200D03*
X5029200Y9059200D03*
%TD*%
D20*
%TO.C,H1*%
X16582400Y3265200D03*
X17700000Y3773200D03*
X17700000Y826800D03*
X19173200Y2300000D03*
X18665200Y1182400D03*
X18665200Y3417600D03*
X16633200Y1284000D03*
X16226800Y2300000D03*
D21*
X17700000Y2300000D03*
%TD*%
D20*
%TO.C,H2*%
X2300000Y19173200D03*
X3265200Y16582400D03*
D21*
X2300000Y17700000D03*
D20*
X2300000Y16226800D03*
X3773200Y17700000D03*
X826800Y17700000D03*
X1233200Y16684000D03*
X3265200Y18817600D03*
X1182400Y18665200D03*
%TD*%
D21*
%TO.C,H3*%
X17700000Y17700000D03*
D20*
X18665200Y16582400D03*
X18665200Y18817600D03*
X16633200Y16684000D03*
X16226800Y17700000D03*
X17700000Y16226800D03*
X16582400Y18665200D03*
X17700000Y19173200D03*
X19173200Y17700000D03*
%TD*%
D22*
%TO.C,J2*%
X7162800Y711200D03*
D23*
X6162800Y711200D03*
X5162800Y711200D03*
X4162800Y711200D03*
%TD*%
D24*
%TO.C,J3*%
X19050000Y8176000D03*
D25*
X19050000Y10176000D03*
X19050000Y12176000D03*
X19050000Y14176000D03*
%TD*%
D26*
%TO.C,L1*%
X2844800Y11125200D03*
X2844800Y8925200D03*
%TD*%
D14*
%TO.C,R2*%
X2671000Y6096000D03*
X3641000Y6096000D03*
%TD*%
D13*
%TO.C,R3*%
X14224000Y2758200D03*
X13254000Y2758200D03*
%TD*%
D14*
%TO.C,R4*%
X11402200Y1981200D03*
X12372200Y1981200D03*
%TD*%
%TO.C,R5*%
X13254000Y3530000D03*
X14224000Y3530000D03*
%TD*%
%TO.C,R7*%
X6751600Y10668000D03*
X7721600Y10668000D03*
%TD*%
%TO.C,R9*%
X6751600Y9093200D03*
X7721600Y9093200D03*
%TD*%
D27*
%TO.C,R10*%
X17272000Y13286500D03*
X17272000Y15161500D03*
%TD*%
%TO.C,R11*%
X17272000Y8968500D03*
X17272000Y10843500D03*
%TD*%
D28*
%TO.C,R12*%
X711200Y14163000D03*
X711200Y15133000D03*
%TD*%
D14*
%TO.C,R13*%
X1801000Y15189200D03*
X2771000Y15189200D03*
%TD*%
%TO.C,R14*%
X3528200Y15189200D03*
X4498200Y15189200D03*
%TD*%
D13*
%TO.C,R15*%
X14224000Y6705600D03*
X13254000Y6705600D03*
%TD*%
%TO.C,R18*%
X7698600Y16764000D03*
X6728600Y16764000D03*
%TD*%
D14*
%TO.C,R19*%
X835800Y7874000D03*
X1805800Y7874000D03*
%TD*%
D29*
%TO.C,U2*%
X10446500Y2660800D03*
X10446500Y3060800D03*
X10446500Y3460800D03*
X10446500Y3860800D03*
X10446500Y4260800D03*
X10446500Y4660800D03*
X10446500Y5060800D03*
D30*
X9709000Y5798300D03*
X9309000Y5798300D03*
X8909000Y5798300D03*
X8509000Y5798300D03*
X8109000Y5798300D03*
X7709000Y5798300D03*
X7309000Y5798300D03*
D29*
X6571500Y5060800D03*
X6571500Y4660800D03*
X6571500Y4260800D03*
X6571500Y3860800D03*
X6571500Y3460800D03*
X6571500Y3060800D03*
X6571500Y2660800D03*
D30*
X7309000Y1923300D03*
X7709000Y1923300D03*
X8109000Y1923300D03*
X8509000Y1923300D03*
X8909000Y1923300D03*
X9309000Y1923300D03*
X9709000Y1923300D03*
D31*
X8509000Y3860800D03*
%TD*%
D32*
%TO.C,U3*%
X9588000Y16764000D03*
X9588000Y15494000D03*
X9588000Y14224000D03*
X9588000Y12954000D03*
X14538000Y12954000D03*
X14538000Y14224000D03*
X14538000Y15494000D03*
X14538000Y16764000D03*
D33*
X12063000Y14859000D03*
%TD*%
D32*
%TO.C,U4*%
X9590000Y11684000D03*
X9590000Y10414000D03*
X9590000Y9144000D03*
X9590000Y7874000D03*
X14540000Y7874000D03*
X14540000Y9144000D03*
X14540000Y10414000D03*
X14540000Y11684000D03*
D33*
X12065000Y9779000D03*
%TD*%
D34*
%TO.C,U5*%
X4275000Y12326400D03*
X4275000Y13276400D03*
X4275000Y14226400D03*
X2075000Y14226400D03*
X2075000Y13276400D03*
X2075000Y12326400D03*
%TD*%
D20*
%TO.C,H4*%
X3265200Y3417600D03*
X1182400Y3265200D03*
X826800Y2300000D03*
X3773200Y2300000D03*
X2300000Y826800D03*
X3265200Y1182400D03*
X2300000Y3773200D03*
D21*
X2300000Y2300000D03*
D20*
X1233200Y1284000D03*
%TD*%
D13*
%TO.C,R16*%
X14224000Y5181600D03*
X13254000Y5181600D03*
%TD*%
D35*
%TO.C,R17*%
X11377200Y5181600D03*
X12397200Y5181600D03*
%TD*%
D14*
%TO.C,R1*%
X2671000Y5159000D03*
X3641000Y5159000D03*
%TD*%
D13*
%TO.C,R20*%
X1805800Y7061200D03*
X835800Y7061200D03*
%TD*%
D14*
%TO.C,R6*%
X6731000Y15113000D03*
X7701000Y15113000D03*
%TD*%
D24*
%TO.C,J1*%
X13000000Y18449200D03*
D25*
X11000000Y18449200D03*
X9000000Y18449200D03*
X7000000Y18449200D03*
%TD*%
D14*
%TO.C,R8*%
X6731000Y13589000D03*
X7701000Y13589000D03*
%TD*%
D16*
%TO.C,C15*%
X6736000Y12827000D03*
X7696000Y12827000D03*
%TD*%
%TO.C,C11*%
X6736000Y14351000D03*
X7696000Y14351000D03*
%TD*%
D36*
%TO.C,SW1*%
X15172000Y5638800D03*
X19372000Y5638800D03*
%TD*%
D16*
%TO.C,C27*%
X11387200Y5943600D03*
X12347200Y5943600D03*
%TD*%
D37*
%TO.C,NTC1*%
X12397200Y6705600D03*
X11377200Y6705600D03*
%TD*%
D38*
%TO.C,C23*%
X711200Y11637800D03*
X711200Y13187800D03*
%TD*%
M02*
