%TF.GenerationSoftware,KiCad,Pcbnew,(6.0.7)*%
%TF.CreationDate,2024-01-02T21:25:37+08:00*%
%TF.ProjectId,stepper-motor-20,73746570-7065-4722-9d6d-6f746f722d32,1*%
%TF.SameCoordinates,PX6979f40PYa1135a0*%
%TF.FileFunction,Copper,L3,Inr*%
%TF.FilePolarity,Positive*%
%FSLAX46Y46*%
G04 Gerber Fmt 4.6, Leading zero omitted, Abs format (unit mm)*
G04 Created by KiCad (PCBNEW (6.0.7)) date 2024-01-02 21:25:37*
%MOMM*%
%LPD*%
G01*
G04 APERTURE LIST*
%TA.AperFunction,ComponentPad*%
%ADD10C,0.600000*%
%TD*%
%TA.AperFunction,ComponentPad*%
%ADD11C,3.600000*%
%TD*%
%TA.AperFunction,ComponentPad*%
%ADD12R,0.850000X0.850000*%
%TD*%
%TA.AperFunction,ComponentPad*%
%ADD13O,0.850000X0.850000*%
%TD*%
%TA.AperFunction,ComponentPad*%
%ADD14R,1.350000X1.350000*%
%TD*%
%TA.AperFunction,ComponentPad*%
%ADD15O,1.350000X1.350000*%
%TD*%
%TA.AperFunction,ViaPad*%
%ADD16C,0.450000*%
%TD*%
%TA.AperFunction,ViaPad*%
%ADD17C,0.430000*%
%TD*%
G04 APERTURE END LIST*
D10*
%TO.N,GND*%
%TO.C,H1*%
X16582400Y3265200D03*
X17700000Y3773200D03*
X17700000Y826800D03*
X19173200Y2300000D03*
X18665200Y1182400D03*
X18665200Y3417600D03*
X16633200Y1284000D03*
X16226800Y2300000D03*
D11*
X17700000Y2300000D03*
%TD*%
D10*
%TO.N,GND*%
%TO.C,H2*%
X2300000Y19173200D03*
X3265200Y16582400D03*
D11*
X2300000Y17700000D03*
D10*
X2300000Y16226800D03*
X3773200Y17700000D03*
X826800Y17700000D03*
X1233200Y16684000D03*
X3265200Y18817600D03*
X1182400Y18665200D03*
%TD*%
D11*
%TO.N,GND*%
%TO.C,H3*%
X17700000Y17700000D03*
D10*
X18665200Y16582400D03*
X18665200Y18817600D03*
X16633200Y16684000D03*
X16226800Y17700000D03*
X17700000Y16226800D03*
X16582400Y18665200D03*
X17700000Y19173200D03*
X19173200Y17700000D03*
%TD*%
D12*
%TO.N,SWCLK*%
%TO.C,J2*%
X7162800Y711200D03*
D13*
%TO.N,SWDIO*%
X6162800Y711200D03*
%TO.N,VCC*%
X5162800Y711200D03*
%TO.N,GND*%
X4162800Y711200D03*
%TD*%
D14*
%TO.N,Net-(J3-Pad1)*%
%TO.C,J3*%
X19050000Y8176000D03*
D15*
%TO.N,Net-(J3-Pad2)*%
X19050000Y10176000D03*
%TO.N,Net-(J3-Pad3)*%
X19050000Y12176000D03*
%TO.N,Net-(J3-Pad4)*%
X19050000Y14176000D03*
%TD*%
D10*
%TO.N,GND*%
%TO.C,H4*%
X3265200Y3417600D03*
X1182400Y3265200D03*
X826800Y2300000D03*
X3773200Y2300000D03*
X2300000Y826800D03*
X3265200Y1182400D03*
X2300000Y3773200D03*
D11*
X2300000Y2300000D03*
D10*
X1233200Y1284000D03*
%TD*%
D14*
%TO.N,GND*%
%TO.C,J1*%
X13000000Y18449200D03*
D15*
%TO.N,V_SUPPLY*%
X11000000Y18449200D03*
%TO.N,/RS485/RS485_A*%
X9000000Y18449200D03*
%TO.N,/RS485/RS485_B*%
X7000000Y18449200D03*
%TD*%
D16*
%TO.N,GND*%
X4267200Y7823200D03*
X3302000Y13512800D03*
X10871200Y13614400D03*
X3302000Y13055600D03*
X6146800Y14173200D03*
X7924800Y3911600D03*
X12141200Y7366000D03*
X11125200Y10769600D03*
X18389600Y15392400D03*
X11684000Y15646400D03*
X16865600Y10617200D03*
X11734800Y14427200D03*
X3302000Y14071600D03*
X12344400Y2387600D03*
X10871200Y14833600D03*
X11480800Y3200400D03*
X14681200Y2032000D03*
X508000Y6858000D03*
X17424400Y11531600D03*
X17678400Y10617200D03*
X5232400Y5892800D03*
X7569200Y3048000D03*
X508000Y12293600D03*
X12344400Y5638800D03*
X3302000Y12446000D03*
X10617200Y5791200D03*
X12598400Y14427200D03*
X11176000Y8636000D03*
X10922000Y16205200D03*
X12598400Y15646400D03*
X4978400Y7823200D03*
X1066800Y12344400D03*
X11988800Y2946400D03*
X12954000Y7416800D03*
X16662400Y11226800D03*
X6276500Y9992462D03*
X11734800Y8077200D03*
X762000Y11836400D03*
X11277600Y7670800D03*
X17983200Y11531600D03*
X11125200Y9906000D03*
X7569200Y4826000D03*
%TO.N,VCC*%
X13004800Y762000D03*
X3302000Y8178800D03*
X5689600Y16916400D03*
X12598400Y762000D03*
X5334000Y5181600D03*
X8026400Y11905000D03*
X14224000Y3048000D03*
X4521200Y10058400D03*
X3809769Y8178980D03*
X1320800Y8636000D03*
X12496800Y6756400D03*
%TO.N,V_SUPPLY*%
X14630400Y7823200D03*
X15240000Y7823200D03*
X1168400Y13309600D03*
X14833600Y12954000D03*
X15341600Y12954000D03*
%TO.N,/RS485/RS485_B*%
X6728600Y16408400D03*
X1879600Y7162800D03*
%TO.N,/RS485/RS485_A*%
X7670800Y17170400D03*
X1879600Y7975600D03*
%TO.N,/LED_GREEN*%
X4648200Y7289800D03*
D17*
X6399263Y6554279D03*
%TO.N,/LED_RED*%
X6857249Y6232888D03*
D16*
X3860800Y6807200D03*
%TO.N,/SPI1_SCK*%
X8483600Y406400D03*
%TO.N,/SPI1_MISO*%
X8991601Y685251D03*
%TO.N,/SPI1_MOSI*%
X9499600Y406400D03*
%TO.N,/MT6816_CS*%
X8026400Y812800D03*
%TO.N,/485_RE*%
X4368800Y3657600D03*
%TO.N,/IN_AP*%
X8347144Y15343453D03*
D17*
X6276500Y7120744D03*
D16*
%TO.N,/IN_AM*%
X8382000Y14122400D03*
D17*
X8008300Y7416800D03*
D16*
%TO.N,/IN_BP*%
X10363200Y10261600D03*
X10312400Y6502400D03*
%TO.N,/IN_BM*%
X10007600Y7061200D03*
X10160500Y9034400D03*
%TO.N,/UART0_TX*%
X711200Y4419600D03*
%TO.N,/UART0_RX*%
X4927600Y3911600D03*
%TD*%
%TA.AperFunction,Conductor*%
%TO.N,GND*%
G36*
X17988169Y19796982D02*
G01*
X17999641Y19794344D01*
X18010516Y19796805D01*
X18021662Y19796785D01*
X18021662Y19796631D01*
X18031712Y19797421D01*
X18113994Y19792028D01*
X18228410Y19784529D01*
X18241237Y19782841D01*
X18459387Y19739449D01*
X18471887Y19736099D01*
X18682500Y19664605D01*
X18694449Y19659656D01*
X18893944Y19561276D01*
X18905137Y19554813D01*
X19042444Y19463067D01*
X19090072Y19431243D01*
X19100345Y19423360D01*
X19267560Y19276717D01*
X19276717Y19267560D01*
X19423360Y19100345D01*
X19431243Y19090072D01*
X19554813Y18905137D01*
X19561276Y18893944D01*
X19659656Y18694449D01*
X19664605Y18682500D01*
X19736098Y18471891D01*
X19739449Y18459387D01*
X19778863Y18261239D01*
X19782840Y18241244D01*
X19784529Y18228412D01*
X19793821Y18086647D01*
X19797388Y18032228D01*
X19796595Y18022372D01*
X19796862Y18022372D01*
X19796842Y18011224D01*
X19794344Y18000359D01*
X19796804Y17989487D01*
X19797059Y17988362D01*
X19799500Y17966512D01*
X19799500Y14907365D01*
X19780593Y14849174D01*
X19731093Y14813210D01*
X19669907Y14813210D01*
X19639470Y14830785D01*
X19639050Y14830207D01*
X19494352Y14935336D01*
X19490161Y14938381D01*
X19485429Y14940488D01*
X19485427Y14940489D01*
X19326774Y15011126D01*
X19326771Y15011127D01*
X19322034Y15013236D01*
X19142019Y15051500D01*
X18957981Y15051500D01*
X18777966Y15013236D01*
X18773229Y15011127D01*
X18773226Y15011126D01*
X18614573Y14940489D01*
X18614571Y14940488D01*
X18609839Y14938381D01*
X18460950Y14830207D01*
X18457484Y14826358D01*
X18457480Y14826354D01*
X18341277Y14697297D01*
X18341273Y14697292D01*
X18337805Y14693440D01*
X18335210Y14688945D01*
X18248380Y14538553D01*
X18248378Y14538548D01*
X18245786Y14534059D01*
X18244184Y14529128D01*
X18190517Y14363961D01*
X18190516Y14363956D01*
X18188915Y14359029D01*
X18169678Y14176000D01*
X18188915Y13992971D01*
X18190516Y13988044D01*
X18190517Y13988039D01*
X18192371Y13982334D01*
X18245786Y13817941D01*
X18248378Y13813452D01*
X18248380Y13813447D01*
X18290552Y13740404D01*
X18337805Y13658560D01*
X18341273Y13654708D01*
X18341277Y13654703D01*
X18457480Y13525646D01*
X18457484Y13525642D01*
X18460950Y13521793D01*
X18609839Y13413619D01*
X18614571Y13411512D01*
X18614573Y13411511D01*
X18773226Y13340874D01*
X18773229Y13340873D01*
X18777966Y13338764D01*
X18783039Y13337686D01*
X18783038Y13337686D01*
X18952110Y13301748D01*
X18957981Y13300500D01*
X19142019Y13300500D01*
X19147891Y13301748D01*
X19316962Y13337686D01*
X19316961Y13337686D01*
X19322034Y13338764D01*
X19326771Y13340873D01*
X19326774Y13340874D01*
X19485427Y13411511D01*
X19485429Y13411512D01*
X19490161Y13413619D01*
X19639050Y13521793D01*
X19639849Y13520694D01*
X19690142Y13543092D01*
X19749992Y13530376D01*
X19790937Y13484911D01*
X19799500Y13444635D01*
X19799500Y12907365D01*
X19780593Y12849174D01*
X19731093Y12813210D01*
X19669907Y12813210D01*
X19639470Y12830785D01*
X19639050Y12830207D01*
X19494352Y12935336D01*
X19490161Y12938381D01*
X19485429Y12940488D01*
X19485427Y12940489D01*
X19326774Y13011126D01*
X19326771Y13011127D01*
X19322034Y13013236D01*
X19142019Y13051500D01*
X18957981Y13051500D01*
X18777966Y13013236D01*
X18773229Y13011127D01*
X18773226Y13011126D01*
X18614573Y12940489D01*
X18614571Y12940488D01*
X18609839Y12938381D01*
X18460950Y12830207D01*
X18457484Y12826358D01*
X18457480Y12826354D01*
X18341277Y12697297D01*
X18341273Y12697292D01*
X18337805Y12693440D01*
X18335210Y12688945D01*
X18248380Y12538553D01*
X18248378Y12538548D01*
X18245786Y12534059D01*
X18229803Y12484868D01*
X18190517Y12363961D01*
X18190516Y12363956D01*
X18188915Y12359029D01*
X18169678Y12176000D01*
X18188915Y11992971D01*
X18190516Y11988044D01*
X18190517Y11988039D01*
X18214998Y11912696D01*
X18245786Y11817941D01*
X18248378Y11813452D01*
X18248380Y11813447D01*
X18300500Y11723174D01*
X18337805Y11658560D01*
X18341273Y11654708D01*
X18341277Y11654703D01*
X18457480Y11525646D01*
X18457484Y11525642D01*
X18460950Y11521793D01*
X18609839Y11413619D01*
X18614571Y11411512D01*
X18614573Y11411511D01*
X18773226Y11340874D01*
X18773229Y11340873D01*
X18777966Y11338764D01*
X18957981Y11300500D01*
X19142019Y11300500D01*
X19322034Y11338764D01*
X19326771Y11340873D01*
X19326774Y11340874D01*
X19485427Y11411511D01*
X19485429Y11411512D01*
X19490161Y11413619D01*
X19639050Y11521793D01*
X19639849Y11520694D01*
X19690142Y11543092D01*
X19749992Y11530376D01*
X19790937Y11484911D01*
X19799500Y11444635D01*
X19799500Y10907365D01*
X19780593Y10849174D01*
X19731093Y10813210D01*
X19669907Y10813210D01*
X19639470Y10830785D01*
X19639050Y10830207D01*
X19494352Y10935336D01*
X19490161Y10938381D01*
X19485429Y10940488D01*
X19485427Y10940489D01*
X19326774Y11011126D01*
X19326771Y11011127D01*
X19322034Y11013236D01*
X19142019Y11051500D01*
X18957981Y11051500D01*
X18777966Y11013236D01*
X18773229Y11011127D01*
X18773226Y11011126D01*
X18614573Y10940489D01*
X18614571Y10940488D01*
X18609839Y10938381D01*
X18460950Y10830207D01*
X18457484Y10826358D01*
X18457480Y10826354D01*
X18341277Y10697297D01*
X18341273Y10697292D01*
X18337805Y10693440D01*
X18335210Y10688945D01*
X18248380Y10538553D01*
X18248378Y10538548D01*
X18245786Y10534059D01*
X18244184Y10529128D01*
X18190517Y10363961D01*
X18190516Y10363956D01*
X18188915Y10359029D01*
X18169678Y10176000D01*
X18188915Y9992971D01*
X18190516Y9988044D01*
X18190517Y9988039D01*
X18208411Y9932969D01*
X18245786Y9817941D01*
X18248378Y9813452D01*
X18248380Y9813447D01*
X18256332Y9799674D01*
X18337805Y9658560D01*
X18341273Y9654708D01*
X18341277Y9654703D01*
X18457480Y9525646D01*
X18457484Y9525642D01*
X18460950Y9521793D01*
X18609839Y9413619D01*
X18614571Y9411512D01*
X18614573Y9411511D01*
X18773226Y9340874D01*
X18773229Y9340873D01*
X18777966Y9338764D01*
X18957981Y9300500D01*
X19142019Y9300500D01*
X19322034Y9338764D01*
X19326771Y9340873D01*
X19326774Y9340874D01*
X19485427Y9411511D01*
X19485429Y9411512D01*
X19490161Y9413619D01*
X19639050Y9521793D01*
X19639849Y9520694D01*
X19690142Y9543092D01*
X19749992Y9530376D01*
X19790937Y9484911D01*
X19799500Y9444635D01*
X19799500Y9150500D01*
X19780593Y9092309D01*
X19731093Y9056345D01*
X19700500Y9051500D01*
X18355252Y9051500D01*
X18329005Y9046279D01*
X18306334Y9041770D01*
X18306332Y9041769D01*
X18296769Y9039867D01*
X18230448Y8995552D01*
X18186133Y8929231D01*
X18184231Y8919668D01*
X18184230Y8919666D01*
X18180572Y8901274D01*
X18174500Y8870748D01*
X18174500Y7481252D01*
X18186133Y7422769D01*
X18230448Y7356448D01*
X18296769Y7312133D01*
X18306332Y7310231D01*
X18306334Y7310230D01*
X18329005Y7305721D01*
X18355252Y7300500D01*
X19700500Y7300500D01*
X19758691Y7281593D01*
X19794655Y7232093D01*
X19799500Y7201500D01*
X19799500Y2034017D01*
X19796982Y2011831D01*
X19794344Y2000359D01*
X19796805Y1989484D01*
X19796785Y1978338D01*
X19796631Y1978338D01*
X19797421Y1968288D01*
X19784530Y1771596D01*
X19782840Y1758756D01*
X19739450Y1540618D01*
X19736098Y1528109D01*
X19664605Y1317500D01*
X19659656Y1305551D01*
X19561276Y1106056D01*
X19554813Y1094863D01*
X19500671Y1013833D01*
X19431243Y909928D01*
X19423360Y899655D01*
X19276717Y732440D01*
X19267560Y723283D01*
X19100345Y576640D01*
X19090072Y568757D01*
X18905137Y445187D01*
X18893944Y438724D01*
X18694449Y340344D01*
X18682501Y335395D01*
X18471887Y263901D01*
X18459387Y260551D01*
X18241237Y217159D01*
X18228412Y215471D01*
X18032225Y202612D01*
X18022372Y203405D01*
X18022372Y203138D01*
X18011224Y203158D01*
X18000359Y205656D01*
X17988359Y202941D01*
X17966512Y200500D01*
X13252404Y200500D01*
X13194213Y219407D01*
X13158249Y268907D01*
X13158249Y330093D01*
X13194213Y379593D01*
X13207459Y387710D01*
X13251081Y409936D01*
X13251083Y409937D01*
X13258020Y413472D01*
X13353328Y508780D01*
X13387905Y576640D01*
X13410983Y621934D01*
X13410983Y621935D01*
X13414519Y628874D01*
X13435604Y762000D01*
X13429747Y798978D01*
X13415738Y887431D01*
X13415738Y887432D01*
X13414519Y895126D01*
X13385099Y952866D01*
X13356864Y1008281D01*
X13356863Y1008283D01*
X13353328Y1015220D01*
X13258020Y1110528D01*
X13251083Y1114063D01*
X13251081Y1114064D01*
X13144866Y1168183D01*
X13144865Y1168183D01*
X13137926Y1171719D01*
X13130232Y1172938D01*
X13130231Y1172938D01*
X13012496Y1191585D01*
X13004800Y1192804D01*
X12997104Y1191585D01*
X12879368Y1172938D01*
X12879366Y1172937D01*
X12871674Y1171719D01*
X12846544Y1158915D01*
X12786115Y1149343D01*
X12756658Y1158913D01*
X12731526Y1171719D01*
X12723834Y1172937D01*
X12723832Y1172938D01*
X12606096Y1191585D01*
X12598400Y1192804D01*
X12590704Y1191585D01*
X12472969Y1172938D01*
X12472968Y1172938D01*
X12465274Y1171719D01*
X12458335Y1168183D01*
X12458334Y1168183D01*
X12352119Y1114064D01*
X12352117Y1114063D01*
X12345180Y1110528D01*
X12249872Y1015220D01*
X12246337Y1008283D01*
X12246336Y1008281D01*
X12218101Y952866D01*
X12188681Y895126D01*
X12187462Y887432D01*
X12187462Y887431D01*
X12173453Y798978D01*
X12167596Y762000D01*
X12188681Y628874D01*
X12192217Y621935D01*
X12192217Y621934D01*
X12215296Y576640D01*
X12249872Y508780D01*
X12345180Y413472D01*
X12352117Y409937D01*
X12352119Y409936D01*
X12395741Y387710D01*
X12439006Y344445D01*
X12448577Y284013D01*
X12420800Y229497D01*
X12366283Y201719D01*
X12350796Y200500D01*
X10013707Y200500D01*
X9955516Y219407D01*
X9919552Y268907D01*
X9915926Y314987D01*
X9929185Y398703D01*
X9929185Y398704D01*
X9930404Y406400D01*
X9909319Y539526D01*
X9892136Y573250D01*
X9851664Y652681D01*
X9851663Y652683D01*
X9848128Y659620D01*
X9752820Y754928D01*
X9745883Y758463D01*
X9745881Y758464D01*
X9639666Y812583D01*
X9639665Y812583D01*
X9632726Y816119D01*
X9625032Y817338D01*
X9625031Y817338D01*
X9507296Y835985D01*
X9499600Y837204D01*
X9470823Y832646D01*
X9410394Y842217D01*
X9367128Y885482D01*
X9343665Y931532D01*
X9343664Y931534D01*
X9340129Y938471D01*
X9244821Y1033779D01*
X9237884Y1037314D01*
X9237882Y1037315D01*
X9131667Y1091434D01*
X9131666Y1091434D01*
X9124727Y1094970D01*
X9117033Y1096189D01*
X9117032Y1096189D01*
X9026497Y1110528D01*
X8991601Y1116055D01*
X8956705Y1110528D01*
X8866170Y1096189D01*
X8866169Y1096189D01*
X8858475Y1094970D01*
X8851536Y1091434D01*
X8851535Y1091434D01*
X8745320Y1037315D01*
X8745318Y1037314D01*
X8738381Y1033779D01*
X8643073Y938471D01*
X8639538Y931533D01*
X8639535Y931529D01*
X8624421Y901866D01*
X8581156Y858602D01*
X8520724Y849031D01*
X8466208Y876809D01*
X8438431Y931327D01*
X8436119Y945926D01*
X8400812Y1015220D01*
X8378464Y1059081D01*
X8378463Y1059083D01*
X8374928Y1066020D01*
X8279620Y1161328D01*
X8272683Y1164863D01*
X8272681Y1164864D01*
X8166466Y1218983D01*
X8166465Y1218983D01*
X8159526Y1222519D01*
X8151832Y1223738D01*
X8151831Y1223738D01*
X8034096Y1242385D01*
X8026400Y1243604D01*
X8018704Y1242385D01*
X7900969Y1223738D01*
X7900968Y1223738D01*
X7893274Y1222519D01*
X7886333Y1218982D01*
X7886332Y1218982D01*
X7880634Y1216079D01*
X7820202Y1206509D01*
X7765686Y1234288D01*
X7753376Y1249288D01*
X7737771Y1272642D01*
X7732352Y1280752D01*
X7666031Y1325067D01*
X7656468Y1326969D01*
X7656466Y1326970D01*
X7633795Y1331479D01*
X7607548Y1336700D01*
X6718052Y1336700D01*
X6691805Y1331479D01*
X6669134Y1326970D01*
X6669132Y1326969D01*
X6659569Y1325067D01*
X6593248Y1280752D01*
X6587959Y1272836D01*
X6533573Y1245126D01*
X6471762Y1255414D01*
X6388605Y1299443D01*
X6382817Y1300897D01*
X6382814Y1300898D01*
X6247560Y1334872D01*
X6247561Y1334872D01*
X6241772Y1336326D01*
X6166076Y1336722D01*
X6096345Y1337087D01*
X6096343Y1337087D01*
X6090379Y1337118D01*
X5943167Y1301776D01*
X5886721Y1272642D01*
X5813941Y1235078D01*
X5813939Y1235076D01*
X5808635Y1232339D01*
X5798776Y1223738D01*
X5727660Y1161700D01*
X5671381Y1137695D01*
X5611739Y1151355D01*
X5596723Y1162385D01*
X5547333Y1206389D01*
X5522403Y1228601D01*
X5496370Y1242385D01*
X5471762Y1255414D01*
X5388605Y1299443D01*
X5382817Y1300897D01*
X5382814Y1300898D01*
X5247560Y1334872D01*
X5247561Y1334872D01*
X5241772Y1336326D01*
X5166076Y1336722D01*
X5096345Y1337087D01*
X5096343Y1337087D01*
X5090379Y1337118D01*
X4943167Y1301776D01*
X4886721Y1272642D01*
X4813941Y1235078D01*
X4813939Y1235076D01*
X4808635Y1232339D01*
X4694549Y1132815D01*
X4691118Y1127933D01*
X4691117Y1127932D01*
X4611902Y1015220D01*
X4607496Y1008951D01*
X4605329Y1003393D01*
X4605328Y1003391D01*
X4559358Y885482D01*
X4552502Y867898D01*
X4532741Y717798D01*
X4533396Y711865D01*
X4533396Y711861D01*
X4542558Y628874D01*
X4549354Y567317D01*
X4551406Y561710D01*
X4599330Y430749D01*
X4599332Y430745D01*
X4601382Y425143D01*
X4604711Y420189D01*
X4648707Y354717D01*
X4665470Y295873D01*
X4644443Y238414D01*
X4593659Y204288D01*
X4566536Y200500D01*
X2034017Y200500D01*
X2011831Y203018D01*
X2011813Y203022D01*
X2000359Y205656D01*
X1989484Y203195D01*
X1978338Y203215D01*
X1978338Y203369D01*
X1968288Y202579D01*
X1886006Y207972D01*
X1771590Y215471D01*
X1758763Y217159D01*
X1540613Y260551D01*
X1528113Y263901D01*
X1317499Y335395D01*
X1305551Y340344D01*
X1106056Y438724D01*
X1094863Y445187D01*
X909928Y568757D01*
X899655Y576640D01*
X732440Y723283D01*
X723283Y732440D01*
X576640Y899655D01*
X568757Y909928D01*
X499329Y1013833D01*
X445187Y1094863D01*
X438724Y1106056D01*
X340344Y1305551D01*
X335395Y1317500D01*
X263902Y1528109D01*
X260550Y1540618D01*
X217160Y1758756D01*
X215470Y1771595D01*
X202629Y1967515D01*
X204311Y1988181D01*
X203747Y1988246D01*
X204388Y1993818D01*
X205655Y1999282D01*
X205656Y2000000D01*
X203096Y2011224D01*
X202980Y2011734D01*
X200500Y2033752D01*
X200500Y3048000D01*
X13793196Y3048000D01*
X13814281Y2914874D01*
X13875472Y2794780D01*
X13970780Y2699472D01*
X13977717Y2695937D01*
X13977719Y2695936D01*
X14083934Y2641817D01*
X14090874Y2638281D01*
X14098568Y2637062D01*
X14098569Y2637062D01*
X14216304Y2618415D01*
X14224000Y2617196D01*
X14231696Y2618415D01*
X14349431Y2637062D01*
X14349432Y2637062D01*
X14357126Y2638281D01*
X14364066Y2641817D01*
X14470281Y2695936D01*
X14470283Y2695937D01*
X14477220Y2699472D01*
X14572528Y2794780D01*
X14633719Y2914874D01*
X14654804Y3048000D01*
X14633719Y3181126D01*
X14572528Y3301220D01*
X14477220Y3396528D01*
X14470283Y3400063D01*
X14470281Y3400064D01*
X14364066Y3454183D01*
X14364065Y3454183D01*
X14357126Y3457719D01*
X14349432Y3458938D01*
X14349431Y3458938D01*
X14231696Y3477585D01*
X14224000Y3478804D01*
X14216304Y3477585D01*
X14098569Y3458938D01*
X14098568Y3458938D01*
X14090874Y3457719D01*
X14083935Y3454183D01*
X14083934Y3454183D01*
X13977719Y3400064D01*
X13977717Y3400063D01*
X13970780Y3396528D01*
X13875472Y3301220D01*
X13814281Y3181126D01*
X13793196Y3048000D01*
X200500Y3048000D01*
X200500Y3657600D01*
X3937996Y3657600D01*
X3959081Y3524474D01*
X3962617Y3517535D01*
X3962617Y3517534D01*
X4016735Y3411322D01*
X4020272Y3404380D01*
X4115580Y3309072D01*
X4122517Y3305537D01*
X4122519Y3305536D01*
X4228734Y3251417D01*
X4235674Y3247881D01*
X4243368Y3246662D01*
X4243369Y3246662D01*
X4361104Y3228015D01*
X4368800Y3226796D01*
X4376496Y3228015D01*
X4494231Y3246662D01*
X4494232Y3246662D01*
X4501926Y3247881D01*
X4508866Y3251417D01*
X4615081Y3305536D01*
X4615083Y3305537D01*
X4622020Y3309072D01*
X4717328Y3404380D01*
X4720864Y3411319D01*
X4720866Y3411322D01*
X4736405Y3441819D01*
X4779670Y3485083D01*
X4840100Y3494654D01*
X4919902Y3482015D01*
X4919904Y3482015D01*
X4927600Y3480796D01*
X4935296Y3482015D01*
X5053031Y3500662D01*
X5053032Y3500662D01*
X5060726Y3501881D01*
X5091447Y3517534D01*
X5173881Y3559536D01*
X5173883Y3559537D01*
X5180820Y3563072D01*
X5276128Y3658380D01*
X5337319Y3778474D01*
X5358404Y3911600D01*
X5352547Y3948578D01*
X5338538Y4037031D01*
X5338538Y4037032D01*
X5337319Y4044726D01*
X5295204Y4127381D01*
X5279664Y4157881D01*
X5279663Y4157883D01*
X5276128Y4164820D01*
X5180820Y4260128D01*
X5173883Y4263663D01*
X5173881Y4263664D01*
X5067666Y4317783D01*
X5067665Y4317783D01*
X5060726Y4321319D01*
X5053032Y4322538D01*
X5053031Y4322538D01*
X4935296Y4341185D01*
X4927600Y4342404D01*
X4919904Y4341185D01*
X4802169Y4322538D01*
X4802168Y4322538D01*
X4794474Y4321319D01*
X4787535Y4317783D01*
X4787534Y4317783D01*
X4681319Y4263664D01*
X4681317Y4263663D01*
X4674380Y4260128D01*
X4579072Y4164820D01*
X4575537Y4157882D01*
X4575534Y4157878D01*
X4559995Y4127381D01*
X4516730Y4084117D01*
X4456300Y4074546D01*
X4376498Y4087185D01*
X4376496Y4087185D01*
X4368800Y4088404D01*
X4361104Y4087185D01*
X4243369Y4068538D01*
X4243368Y4068538D01*
X4235674Y4067319D01*
X4228735Y4063783D01*
X4228734Y4063783D01*
X4122519Y4009664D01*
X4122517Y4009663D01*
X4115580Y4006128D01*
X4020272Y3910820D01*
X3959081Y3790726D01*
X3937996Y3657600D01*
X200500Y3657600D01*
X200500Y4089544D01*
X219407Y4147735D01*
X268907Y4183699D01*
X330093Y4183699D01*
X369504Y4159548D01*
X457980Y4071072D01*
X464917Y4067537D01*
X464919Y4067536D01*
X524789Y4037031D01*
X578074Y4009881D01*
X585768Y4008662D01*
X585769Y4008662D01*
X703504Y3990015D01*
X711200Y3988796D01*
X718896Y3990015D01*
X836631Y4008662D01*
X836632Y4008662D01*
X844326Y4009881D01*
X897611Y4037031D01*
X957481Y4067536D01*
X957483Y4067537D01*
X964420Y4071072D01*
X1059728Y4166380D01*
X1068553Y4183699D01*
X1117383Y4279534D01*
X1117383Y4279535D01*
X1120919Y4286474D01*
X1129778Y4342404D01*
X1140785Y4411904D01*
X1142004Y4419600D01*
X1120919Y4552726D01*
X1070400Y4651875D01*
X1063264Y4665881D01*
X1063263Y4665883D01*
X1059728Y4672820D01*
X964420Y4768128D01*
X957483Y4771663D01*
X957481Y4771664D01*
X851266Y4825783D01*
X851265Y4825783D01*
X844326Y4829319D01*
X836632Y4830538D01*
X836631Y4830538D01*
X718896Y4849185D01*
X711200Y4850404D01*
X703504Y4849185D01*
X585769Y4830538D01*
X585768Y4830538D01*
X578074Y4829319D01*
X571135Y4825783D01*
X571134Y4825783D01*
X464919Y4771664D01*
X464917Y4771663D01*
X457980Y4768128D01*
X369504Y4679652D01*
X314987Y4651875D01*
X254555Y4661446D01*
X211290Y4704711D01*
X200500Y4749656D01*
X200500Y5181600D01*
X4903196Y5181600D01*
X4924281Y5048474D01*
X4985472Y4928380D01*
X5080780Y4833072D01*
X5087717Y4829537D01*
X5087719Y4829536D01*
X5095085Y4825783D01*
X5200874Y4771881D01*
X5208568Y4770662D01*
X5208569Y4770662D01*
X5326304Y4752015D01*
X5334000Y4750796D01*
X5341696Y4752015D01*
X5459431Y4770662D01*
X5459432Y4770662D01*
X5467126Y4771881D01*
X5572915Y4825783D01*
X5580281Y4829536D01*
X5580283Y4829537D01*
X5587220Y4833072D01*
X5682528Y4928380D01*
X5743719Y5048474D01*
X5764804Y5181600D01*
X5743719Y5314726D01*
X5682528Y5434820D01*
X5587220Y5530128D01*
X5580283Y5533663D01*
X5580281Y5533664D01*
X5474066Y5587783D01*
X5474065Y5587783D01*
X5467126Y5591319D01*
X5459432Y5592538D01*
X5459431Y5592538D01*
X5341696Y5611185D01*
X5334000Y5612404D01*
X5326304Y5611185D01*
X5208569Y5592538D01*
X5208568Y5592538D01*
X5200874Y5591319D01*
X5193935Y5587783D01*
X5193934Y5587783D01*
X5087719Y5533664D01*
X5087717Y5533663D01*
X5080780Y5530128D01*
X4985472Y5434820D01*
X4924281Y5314726D01*
X4903196Y5181600D01*
X200500Y5181600D01*
X200500Y8636000D01*
X889996Y8636000D01*
X891215Y8628304D01*
X909274Y8514286D01*
X911081Y8502874D01*
X914617Y8495935D01*
X914617Y8495934D01*
X958103Y8410589D01*
X972272Y8382780D01*
X1067580Y8287472D01*
X1074517Y8283937D01*
X1074519Y8283936D01*
X1135657Y8252785D01*
X1187674Y8226281D01*
X1195368Y8225062D01*
X1195369Y8225062D01*
X1313104Y8206415D01*
X1320800Y8205196D01*
X1328496Y8206415D01*
X1354806Y8210582D01*
X1415238Y8201011D01*
X1458503Y8157746D01*
X1468074Y8097316D01*
X1448796Y7975600D01*
X1469881Y7842474D01*
X1473417Y7835535D01*
X1473417Y7835534D01*
X1511561Y7760673D01*
X1531072Y7722380D01*
X1614248Y7639204D01*
X1642025Y7584687D01*
X1632454Y7524255D01*
X1614248Y7499196D01*
X1531072Y7416020D01*
X1527537Y7409083D01*
X1527536Y7409081D01*
X1473417Y7302866D01*
X1469881Y7295926D01*
X1468662Y7288232D01*
X1468662Y7288231D01*
X1456807Y7213381D01*
X1448796Y7162800D01*
X1469881Y7029674D01*
X1473417Y7022735D01*
X1473417Y7022734D01*
X1521649Y6928074D01*
X1531072Y6909580D01*
X1626380Y6814272D01*
X1633317Y6810737D01*
X1633319Y6810736D01*
X1724622Y6764215D01*
X1746474Y6753081D01*
X1754168Y6751862D01*
X1754169Y6751862D01*
X1871904Y6733215D01*
X1879600Y6731996D01*
X1887296Y6733215D01*
X2005031Y6751862D01*
X2005032Y6751862D01*
X2012726Y6753081D01*
X2034578Y6764215D01*
X2118941Y6807200D01*
X3429996Y6807200D01*
X3431215Y6799504D01*
X3438008Y6756617D01*
X3451081Y6674074D01*
X3454617Y6667135D01*
X3454617Y6667134D01*
X3508198Y6561976D01*
X3512272Y6553980D01*
X3607580Y6458672D01*
X3614517Y6455137D01*
X3614519Y6455136D01*
X3714220Y6404336D01*
X3727674Y6397481D01*
X3735368Y6396262D01*
X3735369Y6396262D01*
X3853104Y6377615D01*
X3860800Y6376396D01*
X3868496Y6377615D01*
X3986231Y6396262D01*
X3986232Y6396262D01*
X3993926Y6397481D01*
X4007380Y6404336D01*
X4107081Y6455136D01*
X4107083Y6455137D01*
X4114020Y6458672D01*
X4209328Y6553980D01*
X4213403Y6561976D01*
X4266983Y6667134D01*
X4266983Y6667135D01*
X4270519Y6674074D01*
X4283593Y6756617D01*
X4290385Y6799504D01*
X4291604Y6807200D01*
X4289825Y6818432D01*
X4290385Y6821968D01*
X4290385Y6822687D01*
X4290499Y6822687D01*
X4299396Y6878864D01*
X4342661Y6922129D01*
X4403093Y6931700D01*
X4432551Y6922128D01*
X4508128Y6883619D01*
X4508134Y6883617D01*
X4515074Y6880081D01*
X4522768Y6878862D01*
X4522769Y6878862D01*
X4640504Y6860215D01*
X4648200Y6858996D01*
X4655896Y6860215D01*
X4773631Y6878862D01*
X4773632Y6878862D01*
X4781326Y6880081D01*
X4799863Y6889526D01*
X4894481Y6937736D01*
X4894483Y6937737D01*
X4901420Y6941272D01*
X4996728Y7036580D01*
X5005340Y7053481D01*
X5039612Y7120744D01*
X5855821Y7120744D01*
X5857040Y7113047D01*
X5874520Y7002681D01*
X5876410Y6990747D01*
X5936164Y6873475D01*
X5990907Y6818732D01*
X6018684Y6764215D01*
X6009112Y6703782D01*
X5999173Y6684276D01*
X5997955Y6676585D01*
X5997954Y6676582D01*
X5980712Y6567716D01*
X5978584Y6554279D01*
X5979803Y6546582D01*
X5988020Y6494704D01*
X5999173Y6424282D01*
X6058927Y6307010D01*
X6151994Y6213943D01*
X6269266Y6154189D01*
X6276957Y6152971D01*
X6276960Y6152970D01*
X6395399Y6134212D01*
X6449915Y6106435D01*
X6468121Y6081377D01*
X6516913Y5985619D01*
X6609980Y5892552D01*
X6727252Y5832798D01*
X6734943Y5831580D01*
X6734946Y5831579D01*
X6849552Y5813428D01*
X6857249Y5812209D01*
X6864946Y5813428D01*
X6979552Y5831579D01*
X6979555Y5831580D01*
X6987246Y5832798D01*
X7104518Y5892552D01*
X7197585Y5985619D01*
X7257339Y6102891D01*
X7263501Y6141794D01*
X7276709Y6225191D01*
X7277928Y6232888D01*
X7263052Y6326815D01*
X7258558Y6355191D01*
X7258557Y6355194D01*
X7257339Y6362885D01*
X7197585Y6480157D01*
X7104518Y6573224D01*
X6987246Y6632978D01*
X6979555Y6634196D01*
X6979552Y6634197D01*
X6861113Y6652955D01*
X6806597Y6680732D01*
X6788391Y6705790D01*
X6772130Y6737703D01*
X6739599Y6801548D01*
X6684856Y6856291D01*
X6657079Y6910808D01*
X6666651Y6971241D01*
X6673053Y6983806D01*
X6676590Y6990747D01*
X6678481Y7002681D01*
X6695960Y7113047D01*
X6697179Y7120744D01*
X6691638Y7155728D01*
X6677809Y7243047D01*
X6677808Y7243050D01*
X6676590Y7250741D01*
X6616836Y7368013D01*
X6568049Y7416800D01*
X7587621Y7416800D01*
X7588840Y7409103D01*
X7606041Y7300500D01*
X7608210Y7286803D01*
X7667964Y7169531D01*
X7761031Y7076464D01*
X7878303Y7016710D01*
X7885994Y7015492D01*
X7885997Y7015491D01*
X8000603Y6997340D01*
X8008300Y6996121D01*
X8015997Y6997340D01*
X8130603Y7015491D01*
X8130606Y7015492D01*
X8138297Y7016710D01*
X8225612Y7061200D01*
X9576796Y7061200D01*
X9578015Y7053504D01*
X9596351Y6937736D01*
X9597881Y6928074D01*
X9601417Y6921135D01*
X9601417Y6921134D01*
X9653594Y6818732D01*
X9659072Y6807980D01*
X9754380Y6712672D01*
X9761317Y6709137D01*
X9761319Y6709136D01*
X9838825Y6669645D01*
X9882090Y6626380D01*
X9891661Y6565948D01*
X9881596Y6502400D01*
X9882815Y6494704D01*
X9898407Y6396262D01*
X9902681Y6369274D01*
X9906217Y6362335D01*
X9906217Y6362334D01*
X9937213Y6301502D01*
X9963872Y6249180D01*
X10059180Y6153872D01*
X10066117Y6150337D01*
X10066119Y6150336D01*
X10172334Y6096217D01*
X10179274Y6092681D01*
X10186968Y6091462D01*
X10186969Y6091462D01*
X10304704Y6072815D01*
X10312400Y6071596D01*
X10320096Y6072815D01*
X10437831Y6091462D01*
X10437832Y6091462D01*
X10445526Y6092681D01*
X10452466Y6096217D01*
X10558681Y6150336D01*
X10558683Y6150337D01*
X10565620Y6153872D01*
X10660928Y6249180D01*
X10687588Y6301502D01*
X10718583Y6362334D01*
X10718583Y6362335D01*
X10722119Y6369274D01*
X10726394Y6396262D01*
X10741985Y6494704D01*
X10743204Y6502400D01*
X10731987Y6573224D01*
X10723338Y6627831D01*
X10723338Y6627832D01*
X10722119Y6635526D01*
X10713990Y6651481D01*
X10664464Y6748681D01*
X10664463Y6748683D01*
X10660928Y6755620D01*
X10660148Y6756400D01*
X12065996Y6756400D01*
X12067215Y6748704D01*
X12079737Y6669645D01*
X12087081Y6623274D01*
X12090617Y6616335D01*
X12090617Y6616334D01*
X12126158Y6546582D01*
X12148272Y6503180D01*
X12243580Y6407872D01*
X12250517Y6404337D01*
X12250519Y6404336D01*
X12331872Y6362885D01*
X12363674Y6346681D01*
X12371368Y6345462D01*
X12371369Y6345462D01*
X12489104Y6326815D01*
X12496800Y6325596D01*
X12504496Y6326815D01*
X12622231Y6345462D01*
X12622232Y6345462D01*
X12629926Y6346681D01*
X12661728Y6362885D01*
X12743081Y6404336D01*
X12743083Y6404337D01*
X12750020Y6407872D01*
X12845328Y6503180D01*
X12867443Y6546582D01*
X12902983Y6616334D01*
X12902983Y6616335D01*
X12906519Y6623274D01*
X12913864Y6669645D01*
X12926385Y6748704D01*
X12927604Y6756400D01*
X12911783Y6856291D01*
X12907738Y6881831D01*
X12907738Y6881832D01*
X12906519Y6889526D01*
X12900026Y6902270D01*
X12848864Y7002681D01*
X12848863Y7002683D01*
X12845328Y7009620D01*
X12750020Y7104928D01*
X12743083Y7108463D01*
X12743081Y7108464D01*
X12636866Y7162583D01*
X12636865Y7162583D01*
X12629926Y7166119D01*
X12622232Y7167338D01*
X12622231Y7167338D01*
X12504496Y7185985D01*
X12496800Y7187204D01*
X12489104Y7185985D01*
X12371369Y7167338D01*
X12371368Y7167338D01*
X12363674Y7166119D01*
X12356735Y7162583D01*
X12356734Y7162583D01*
X12250519Y7108464D01*
X12250517Y7108463D01*
X12243580Y7104928D01*
X12148272Y7009620D01*
X12144737Y7002683D01*
X12144736Y7002681D01*
X12093574Y6902270D01*
X12087081Y6889526D01*
X12085862Y6881832D01*
X12085862Y6881831D01*
X12081817Y6856291D01*
X12065996Y6756400D01*
X10660148Y6756400D01*
X10565620Y6850928D01*
X10558683Y6854463D01*
X10558681Y6854464D01*
X10481175Y6893955D01*
X10437910Y6937220D01*
X10428339Y6997652D01*
X10431164Y7015491D01*
X10438404Y7061200D01*
X10423432Y7155728D01*
X10418538Y7186631D01*
X10418538Y7186632D01*
X10417319Y7194326D01*
X10395064Y7238004D01*
X10359664Y7307481D01*
X10359663Y7307483D01*
X10356128Y7314420D01*
X10260820Y7409728D01*
X10253883Y7413263D01*
X10253881Y7413264D01*
X10147666Y7467383D01*
X10147665Y7467383D01*
X10140726Y7470919D01*
X10133032Y7472138D01*
X10133031Y7472138D01*
X10015296Y7490785D01*
X10007600Y7492004D01*
X9999904Y7490785D01*
X9882169Y7472138D01*
X9882168Y7472138D01*
X9874474Y7470919D01*
X9867535Y7467383D01*
X9867534Y7467383D01*
X9761319Y7413264D01*
X9761317Y7413263D01*
X9754380Y7409728D01*
X9659072Y7314420D01*
X9655537Y7307483D01*
X9655536Y7307481D01*
X9620136Y7238004D01*
X9597881Y7194326D01*
X9596662Y7186632D01*
X9596662Y7186631D01*
X9591768Y7155728D01*
X9576796Y7061200D01*
X8225612Y7061200D01*
X8255569Y7076464D01*
X8348636Y7169531D01*
X8408390Y7286803D01*
X8410560Y7300500D01*
X8427760Y7409103D01*
X8428979Y7416800D01*
X8414008Y7511328D01*
X8409609Y7539103D01*
X8409608Y7539106D01*
X8408390Y7546797D01*
X8348636Y7664069D01*
X8255569Y7757136D01*
X8138297Y7816890D01*
X8130606Y7818108D01*
X8130603Y7818109D01*
X8098458Y7823200D01*
X14199596Y7823200D01*
X14200815Y7815504D01*
X14216039Y7719385D01*
X14220681Y7690074D01*
X14224217Y7683135D01*
X14224217Y7683134D01*
X14259369Y7614145D01*
X14281872Y7569980D01*
X14377180Y7474672D01*
X14384117Y7471137D01*
X14384119Y7471136D01*
X14475654Y7424497D01*
X14497274Y7413481D01*
X14504968Y7412262D01*
X14504969Y7412262D01*
X14622704Y7393615D01*
X14630400Y7392396D01*
X14638096Y7393615D01*
X14755831Y7412262D01*
X14755832Y7412262D01*
X14763526Y7413481D01*
X14883620Y7474672D01*
X14884122Y7473687D01*
X14935206Y7490282D01*
X14986278Y7473687D01*
X14986780Y7474672D01*
X15106874Y7413481D01*
X15114568Y7412262D01*
X15114569Y7412262D01*
X15232304Y7393615D01*
X15240000Y7392396D01*
X15247696Y7393615D01*
X15365431Y7412262D01*
X15365432Y7412262D01*
X15373126Y7413481D01*
X15394746Y7424497D01*
X15486281Y7471136D01*
X15486283Y7471137D01*
X15493220Y7474672D01*
X15588528Y7569980D01*
X15611032Y7614145D01*
X15646183Y7683134D01*
X15646183Y7683135D01*
X15649719Y7690074D01*
X15654362Y7719385D01*
X15669585Y7815504D01*
X15670804Y7823200D01*
X15649719Y7956326D01*
X15643820Y7967904D01*
X15592064Y8069481D01*
X15592063Y8069483D01*
X15588528Y8076420D01*
X15493220Y8171728D01*
X15486283Y8175263D01*
X15486281Y8175264D01*
X15380066Y8229383D01*
X15380065Y8229383D01*
X15373126Y8232919D01*
X15365432Y8234138D01*
X15365431Y8234138D01*
X15247696Y8252785D01*
X15240000Y8254004D01*
X15232304Y8252785D01*
X15114569Y8234138D01*
X15114568Y8234138D01*
X15106874Y8232919D01*
X14986780Y8171728D01*
X14986278Y8172713D01*
X14935194Y8156118D01*
X14884122Y8172713D01*
X14883620Y8171728D01*
X14877404Y8174895D01*
X14877405Y8174895D01*
X14763526Y8232919D01*
X14755832Y8234138D01*
X14755831Y8234138D01*
X14638096Y8252785D01*
X14630400Y8254004D01*
X14622704Y8252785D01*
X14504969Y8234138D01*
X14504968Y8234138D01*
X14497274Y8232919D01*
X14490335Y8229383D01*
X14490334Y8229383D01*
X14384119Y8175264D01*
X14384117Y8175263D01*
X14377180Y8171728D01*
X14281872Y8076420D01*
X14278337Y8069483D01*
X14278336Y8069481D01*
X14226580Y7967904D01*
X14220681Y7956326D01*
X14199596Y7823200D01*
X8098458Y7823200D01*
X8015997Y7836260D01*
X8008300Y7837479D01*
X8000603Y7836260D01*
X7885997Y7818109D01*
X7885994Y7818108D01*
X7878303Y7816890D01*
X7761031Y7757136D01*
X7667964Y7664069D01*
X7608210Y7546797D01*
X7606992Y7539106D01*
X7606991Y7539103D01*
X7602592Y7511328D01*
X7587621Y7416800D01*
X6568049Y7416800D01*
X6523769Y7461080D01*
X6406497Y7520834D01*
X6398806Y7522052D01*
X6398803Y7522053D01*
X6284197Y7540204D01*
X6276500Y7541423D01*
X6268803Y7540204D01*
X6154197Y7522053D01*
X6154194Y7522052D01*
X6146503Y7520834D01*
X6029231Y7461080D01*
X5936164Y7368013D01*
X5876410Y7250741D01*
X5875192Y7243050D01*
X5875191Y7243047D01*
X5861362Y7155728D01*
X5855821Y7120744D01*
X5039612Y7120744D01*
X5054383Y7149734D01*
X5054383Y7149735D01*
X5057919Y7156674D01*
X5059956Y7169531D01*
X5077785Y7282104D01*
X5079004Y7289800D01*
X5065744Y7373521D01*
X5059138Y7415231D01*
X5059138Y7415232D01*
X5057919Y7422926D01*
X5038479Y7461080D01*
X5000264Y7536081D01*
X5000263Y7536083D01*
X4996728Y7543020D01*
X4901420Y7638328D01*
X4894483Y7641863D01*
X4894481Y7641864D01*
X4788266Y7695983D01*
X4788265Y7695983D01*
X4781326Y7699519D01*
X4773632Y7700738D01*
X4773631Y7700738D01*
X4655896Y7719385D01*
X4648200Y7720604D01*
X4640504Y7719385D01*
X4522769Y7700738D01*
X4522768Y7700738D01*
X4515074Y7699519D01*
X4508135Y7695983D01*
X4508134Y7695983D01*
X4401919Y7641864D01*
X4401917Y7641863D01*
X4394980Y7638328D01*
X4299672Y7543020D01*
X4296137Y7536083D01*
X4296136Y7536081D01*
X4257921Y7461080D01*
X4238481Y7422926D01*
X4237262Y7415232D01*
X4237262Y7415231D01*
X4230656Y7373521D01*
X4217396Y7289800D01*
X4218615Y7282104D01*
X4219175Y7278568D01*
X4218615Y7275032D01*
X4218615Y7274313D01*
X4218501Y7274313D01*
X4209604Y7218136D01*
X4166339Y7174871D01*
X4105907Y7165300D01*
X4076449Y7174872D01*
X4000872Y7213381D01*
X4000866Y7213383D01*
X3993926Y7216919D01*
X3986232Y7218138D01*
X3986231Y7218138D01*
X3868496Y7236785D01*
X3860800Y7238004D01*
X3853104Y7236785D01*
X3735369Y7218138D01*
X3735368Y7218138D01*
X3727674Y7216919D01*
X3720735Y7213383D01*
X3720734Y7213383D01*
X3614519Y7159264D01*
X3614517Y7159263D01*
X3607580Y7155728D01*
X3512272Y7060420D01*
X3508737Y7053483D01*
X3508736Y7053481D01*
X3486388Y7009620D01*
X3451081Y6940326D01*
X3449862Y6932632D01*
X3449862Y6932631D01*
X3438393Y6860215D01*
X3429996Y6807200D01*
X2118941Y6807200D01*
X2125881Y6810736D01*
X2125883Y6810737D01*
X2132820Y6814272D01*
X2228128Y6909580D01*
X2237552Y6928074D01*
X2285783Y7022734D01*
X2285783Y7022735D01*
X2289319Y7029674D01*
X2310404Y7162800D01*
X2302393Y7213381D01*
X2290538Y7288231D01*
X2290538Y7288232D01*
X2289319Y7295926D01*
X2285783Y7302866D01*
X2231664Y7409081D01*
X2231663Y7409083D01*
X2228128Y7416020D01*
X2144952Y7499196D01*
X2117175Y7553713D01*
X2126746Y7614145D01*
X2144952Y7639204D01*
X2228128Y7722380D01*
X2247640Y7760673D01*
X2285783Y7835534D01*
X2285783Y7835535D01*
X2289319Y7842474D01*
X2310404Y7975600D01*
X2300376Y8038914D01*
X2290538Y8101031D01*
X2290538Y8101032D01*
X2289319Y8108726D01*
X2264342Y8157746D01*
X2253615Y8178800D01*
X2871196Y8178800D01*
X2872415Y8171104D01*
X2891034Y8053549D01*
X2892281Y8045674D01*
X2895817Y8038735D01*
X2895817Y8038734D01*
X2949845Y7932699D01*
X2953472Y7925580D01*
X3048780Y7830272D01*
X3055717Y7826737D01*
X3055719Y7826736D01*
X3161581Y7772797D01*
X3168874Y7769081D01*
X3176568Y7767862D01*
X3176569Y7767862D01*
X3221960Y7760673D01*
X3293168Y7749395D01*
X3294304Y7749215D01*
X3302000Y7747996D01*
X3309696Y7749215D01*
X3310833Y7749395D01*
X3382040Y7760673D01*
X3427431Y7767862D01*
X3427432Y7767862D01*
X3435126Y7769081D01*
X3511116Y7807800D01*
X3571548Y7817371D01*
X3601006Y7807800D01*
X3676643Y7769261D01*
X3684337Y7768042D01*
X3684338Y7768042D01*
X3802073Y7749395D01*
X3809769Y7748176D01*
X3817465Y7749395D01*
X3935200Y7768042D01*
X3935201Y7768042D01*
X3942895Y7769261D01*
X3949835Y7772797D01*
X4056050Y7826916D01*
X4056052Y7826917D01*
X4062989Y7830452D01*
X4158297Y7925760D01*
X4169951Y7948631D01*
X4215952Y8038914D01*
X4215952Y8038915D01*
X4219488Y8045854D01*
X4227639Y8097314D01*
X4238552Y8166222D01*
X4240573Y8178980D01*
X4231807Y8234326D01*
X4220707Y8304411D01*
X4220707Y8304412D01*
X4219488Y8312106D01*
X4215952Y8319046D01*
X4161833Y8425261D01*
X4161832Y8425263D01*
X4158297Y8432200D01*
X4062989Y8527508D01*
X4056052Y8531043D01*
X4056050Y8531044D01*
X3949835Y8585163D01*
X3949834Y8585163D01*
X3942895Y8588699D01*
X3935201Y8589918D01*
X3935200Y8589918D01*
X3841142Y8604815D01*
X3809769Y8609784D01*
X3778396Y8604815D01*
X3684338Y8589918D01*
X3684337Y8589918D01*
X3676643Y8588699D01*
X3669704Y8585163D01*
X3669703Y8585163D01*
X3600653Y8549980D01*
X3540221Y8540409D01*
X3510763Y8549980D01*
X3442066Y8584983D01*
X3442065Y8584983D01*
X3435126Y8588519D01*
X3427432Y8589738D01*
X3427431Y8589738D01*
X3309696Y8608385D01*
X3302000Y8609604D01*
X3294304Y8608385D01*
X3176569Y8589738D01*
X3176568Y8589738D01*
X3168874Y8588519D01*
X3161935Y8584983D01*
X3161934Y8584983D01*
X3055719Y8530864D01*
X3055717Y8530863D01*
X3048780Y8527328D01*
X2953472Y8432020D01*
X2949937Y8425083D01*
X2949936Y8425081D01*
X2928383Y8382780D01*
X2892281Y8311926D01*
X2891062Y8304232D01*
X2891062Y8304231D01*
X2879118Y8228820D01*
X2871196Y8178800D01*
X2253615Y8178800D01*
X2231664Y8221881D01*
X2231663Y8221883D01*
X2228128Y8228820D01*
X2132820Y8324128D01*
X2125883Y8327663D01*
X2125881Y8327664D01*
X2019666Y8381783D01*
X2019665Y8381783D01*
X2012726Y8385319D01*
X2005032Y8386538D01*
X2005031Y8386538D01*
X1887296Y8405185D01*
X1879600Y8406404D01*
X1845594Y8401018D01*
X1785162Y8410589D01*
X1741897Y8453854D01*
X1732326Y8514286D01*
X1733549Y8522002D01*
X1751604Y8636000D01*
X1730519Y8769126D01*
X1720842Y8788119D01*
X1672864Y8882281D01*
X1672863Y8882283D01*
X1669328Y8889220D01*
X1574020Y8984528D01*
X1567083Y8988063D01*
X1567081Y8988064D01*
X1476141Y9034400D01*
X9729696Y9034400D01*
X9750781Y8901274D01*
X9811972Y8781180D01*
X9907280Y8685872D01*
X9914217Y8682337D01*
X9914219Y8682336D01*
X9990055Y8643696D01*
X10027374Y8624681D01*
X10035068Y8623462D01*
X10035069Y8623462D01*
X10152804Y8604815D01*
X10160500Y8603596D01*
X10168196Y8604815D01*
X10285931Y8623462D01*
X10285932Y8623462D01*
X10293626Y8624681D01*
X10330945Y8643696D01*
X10406781Y8682336D01*
X10406783Y8682337D01*
X10413720Y8685872D01*
X10509028Y8781180D01*
X10570219Y8901274D01*
X10591304Y9034400D01*
X10570219Y9167526D01*
X10509028Y9287620D01*
X10413720Y9382928D01*
X10406783Y9386463D01*
X10406781Y9386464D01*
X10300566Y9440583D01*
X10300565Y9440583D01*
X10293626Y9444119D01*
X10285932Y9445338D01*
X10285931Y9445338D01*
X10168196Y9463985D01*
X10160500Y9465204D01*
X10152804Y9463985D01*
X10035069Y9445338D01*
X10035068Y9445338D01*
X10027374Y9444119D01*
X10020435Y9440583D01*
X10020434Y9440583D01*
X9914219Y9386464D01*
X9914217Y9386463D01*
X9907280Y9382928D01*
X9811972Y9287620D01*
X9750781Y9167526D01*
X9729696Y9034400D01*
X1476141Y9034400D01*
X1460866Y9042183D01*
X1460865Y9042183D01*
X1453926Y9045719D01*
X1446232Y9046938D01*
X1446231Y9046938D01*
X1328496Y9065585D01*
X1320800Y9066804D01*
X1313104Y9065585D01*
X1195369Y9046938D01*
X1195368Y9046938D01*
X1187674Y9045719D01*
X1180735Y9042183D01*
X1180734Y9042183D01*
X1074519Y8988064D01*
X1074517Y8988063D01*
X1067580Y8984528D01*
X972272Y8889220D01*
X968737Y8882283D01*
X968736Y8882281D01*
X920758Y8788119D01*
X911081Y8769126D01*
X889996Y8636000D01*
X200500Y8636000D01*
X200500Y10058400D01*
X4090396Y10058400D01*
X4111481Y9925274D01*
X4115017Y9918335D01*
X4115017Y9918334D01*
X4168460Y9813447D01*
X4172672Y9805180D01*
X4267980Y9709872D01*
X4274917Y9706337D01*
X4274919Y9706336D01*
X4359863Y9663055D01*
X4388074Y9648681D01*
X4395768Y9647462D01*
X4395769Y9647462D01*
X4513504Y9628815D01*
X4521200Y9627596D01*
X4528896Y9628815D01*
X4646631Y9647462D01*
X4646632Y9647462D01*
X4654326Y9648681D01*
X4682537Y9663055D01*
X4767481Y9706336D01*
X4767483Y9706337D01*
X4774420Y9709872D01*
X4869728Y9805180D01*
X4873941Y9813447D01*
X4927383Y9918334D01*
X4927383Y9918335D01*
X4930919Y9925274D01*
X4952004Y10058400D01*
X4942005Y10121534D01*
X4932138Y10183831D01*
X4932138Y10183832D01*
X4930919Y10191526D01*
X4899136Y10253904D01*
X4895215Y10261600D01*
X9932396Y10261600D01*
X9933615Y10253904D01*
X9943495Y10191526D01*
X9953481Y10128474D01*
X9957017Y10121535D01*
X9957017Y10121534D01*
X9989186Y10058400D01*
X10014672Y10008380D01*
X10109980Y9913072D01*
X10116917Y9909537D01*
X10116919Y9909536D01*
X10223134Y9855417D01*
X10230074Y9851881D01*
X10237768Y9850662D01*
X10237769Y9850662D01*
X10355504Y9832015D01*
X10363200Y9830796D01*
X10370896Y9832015D01*
X10488631Y9850662D01*
X10488632Y9850662D01*
X10496326Y9851881D01*
X10503266Y9855417D01*
X10609481Y9909536D01*
X10609483Y9909537D01*
X10616420Y9913072D01*
X10711728Y10008380D01*
X10737215Y10058400D01*
X10769383Y10121534D01*
X10769383Y10121535D01*
X10772919Y10128474D01*
X10782906Y10191526D01*
X10792785Y10253904D01*
X10794004Y10261600D01*
X10772919Y10394726D01*
X10737325Y10464583D01*
X10715264Y10507881D01*
X10715263Y10507883D01*
X10711728Y10514820D01*
X10616420Y10610128D01*
X10609483Y10613663D01*
X10609481Y10613664D01*
X10503266Y10667783D01*
X10503265Y10667783D01*
X10496326Y10671319D01*
X10488632Y10672538D01*
X10488631Y10672538D01*
X10370896Y10691185D01*
X10363200Y10692404D01*
X10355504Y10691185D01*
X10237769Y10672538D01*
X10237768Y10672538D01*
X10230074Y10671319D01*
X10223135Y10667783D01*
X10223134Y10667783D01*
X10116919Y10613664D01*
X10116917Y10613663D01*
X10109980Y10610128D01*
X10014672Y10514820D01*
X10011137Y10507883D01*
X10011136Y10507881D01*
X9989075Y10464583D01*
X9953481Y10394726D01*
X9932396Y10261600D01*
X4895215Y10261600D01*
X4873264Y10304681D01*
X4873263Y10304683D01*
X4869728Y10311620D01*
X4774420Y10406928D01*
X4767483Y10410463D01*
X4767481Y10410464D01*
X4661266Y10464583D01*
X4661265Y10464583D01*
X4654326Y10468119D01*
X4646632Y10469338D01*
X4646631Y10469338D01*
X4528896Y10487985D01*
X4521200Y10489204D01*
X4513504Y10487985D01*
X4395769Y10469338D01*
X4395768Y10469338D01*
X4388074Y10468119D01*
X4381135Y10464583D01*
X4381134Y10464583D01*
X4274919Y10410464D01*
X4274917Y10410463D01*
X4267980Y10406928D01*
X4172672Y10311620D01*
X4169137Y10304683D01*
X4169136Y10304681D01*
X4143264Y10253904D01*
X4111481Y10191526D01*
X4110262Y10183832D01*
X4110262Y10183831D01*
X4100395Y10121534D01*
X4090396Y10058400D01*
X200500Y10058400D01*
X200500Y11905000D01*
X7595596Y11905000D01*
X7596815Y11897304D01*
X7610097Y11813447D01*
X7616681Y11771874D01*
X7677872Y11651780D01*
X7773180Y11556472D01*
X7780117Y11552937D01*
X7780119Y11552936D01*
X7824396Y11530376D01*
X7893274Y11495281D01*
X7900968Y11494062D01*
X7900969Y11494062D01*
X8018704Y11475415D01*
X8026400Y11474196D01*
X8034096Y11475415D01*
X8151831Y11494062D01*
X8151832Y11494062D01*
X8159526Y11495281D01*
X8228404Y11530376D01*
X8272681Y11552936D01*
X8272683Y11552937D01*
X8279620Y11556472D01*
X8374928Y11651780D01*
X8436119Y11771874D01*
X8442704Y11813447D01*
X8455985Y11897304D01*
X8457204Y11905000D01*
X8436119Y12038126D01*
X8374928Y12158220D01*
X8279620Y12253528D01*
X8272683Y12257063D01*
X8272681Y12257064D01*
X8166466Y12311183D01*
X8166465Y12311183D01*
X8159526Y12314719D01*
X8151832Y12315938D01*
X8151831Y12315938D01*
X8034096Y12334585D01*
X8026400Y12335804D01*
X8018704Y12334585D01*
X7900969Y12315938D01*
X7900968Y12315938D01*
X7893274Y12314719D01*
X7886335Y12311183D01*
X7886334Y12311183D01*
X7780119Y12257064D01*
X7780117Y12257063D01*
X7773180Y12253528D01*
X7677872Y12158220D01*
X7616681Y12038126D01*
X7595596Y11905000D01*
X200500Y11905000D01*
X200500Y13309600D01*
X737596Y13309600D01*
X758681Y13176474D01*
X819872Y13056380D01*
X915180Y12961072D01*
X922117Y12957537D01*
X922119Y12957536D01*
X1020586Y12907365D01*
X1035274Y12899881D01*
X1042968Y12898662D01*
X1042969Y12898662D01*
X1160704Y12880015D01*
X1168400Y12878796D01*
X1176096Y12880015D01*
X1293831Y12898662D01*
X1293832Y12898662D01*
X1301526Y12899881D01*
X1316214Y12907365D01*
X1407741Y12954000D01*
X14402796Y12954000D01*
X14404015Y12946304D01*
X14410808Y12903417D01*
X14423881Y12820874D01*
X14485072Y12700780D01*
X14580380Y12605472D01*
X14587317Y12601937D01*
X14587319Y12601936D01*
X14693534Y12547817D01*
X14700474Y12544281D01*
X14708168Y12543062D01*
X14708169Y12543062D01*
X14825904Y12524415D01*
X14833600Y12523196D01*
X14841296Y12524415D01*
X14959031Y12543062D01*
X14959032Y12543062D01*
X14966726Y12544281D01*
X15042656Y12582969D01*
X15103087Y12592540D01*
X15132544Y12582969D01*
X15208474Y12544281D01*
X15216168Y12543062D01*
X15216169Y12543062D01*
X15333904Y12524415D01*
X15341600Y12523196D01*
X15349296Y12524415D01*
X15467031Y12543062D01*
X15467032Y12543062D01*
X15474726Y12544281D01*
X15481666Y12547817D01*
X15587881Y12601936D01*
X15587883Y12601937D01*
X15594820Y12605472D01*
X15690128Y12700780D01*
X15751319Y12820874D01*
X15764393Y12903417D01*
X15771185Y12946304D01*
X15772404Y12954000D01*
X15751319Y13087126D01*
X15690128Y13207220D01*
X15594820Y13302528D01*
X15587883Y13306063D01*
X15587881Y13306064D01*
X15481666Y13360183D01*
X15481665Y13360183D01*
X15474726Y13363719D01*
X15467032Y13364938D01*
X15467031Y13364938D01*
X15349296Y13383585D01*
X15341600Y13384804D01*
X15333904Y13383585D01*
X15216169Y13364938D01*
X15216168Y13364938D01*
X15208474Y13363719D01*
X15157382Y13337686D01*
X15132545Y13325031D01*
X15072113Y13315460D01*
X15042655Y13325031D01*
X15017819Y13337686D01*
X14966726Y13363719D01*
X14959032Y13364938D01*
X14959031Y13364938D01*
X14841296Y13383585D01*
X14833600Y13384804D01*
X14825904Y13383585D01*
X14708169Y13364938D01*
X14708168Y13364938D01*
X14700474Y13363719D01*
X14693535Y13360183D01*
X14693534Y13360183D01*
X14587319Y13306064D01*
X14587317Y13306063D01*
X14580380Y13302528D01*
X14485072Y13207220D01*
X14423881Y13087126D01*
X14402796Y12954000D01*
X1407741Y12954000D01*
X1414681Y12957536D01*
X1414683Y12957537D01*
X1421620Y12961072D01*
X1516928Y13056380D01*
X1578119Y13176474D01*
X1599204Y13309600D01*
X1593347Y13346578D01*
X1579338Y13435031D01*
X1579338Y13435032D01*
X1578119Y13442726D01*
X1556625Y13484911D01*
X1520464Y13555881D01*
X1520463Y13555883D01*
X1516928Y13562820D01*
X1421620Y13658128D01*
X1414683Y13661663D01*
X1414681Y13661664D01*
X1308466Y13715783D01*
X1308465Y13715783D01*
X1301526Y13719319D01*
X1293832Y13720538D01*
X1293831Y13720538D01*
X1176096Y13739185D01*
X1168400Y13740404D01*
X1160704Y13739185D01*
X1042969Y13720538D01*
X1042968Y13720538D01*
X1035274Y13719319D01*
X1028335Y13715783D01*
X1028334Y13715783D01*
X922119Y13661664D01*
X922117Y13661663D01*
X915180Y13658128D01*
X819872Y13562820D01*
X816337Y13555883D01*
X816336Y13555881D01*
X780175Y13484911D01*
X758681Y13442726D01*
X757462Y13435032D01*
X757462Y13435031D01*
X743453Y13346578D01*
X737596Y13309600D01*
X200500Y13309600D01*
X200500Y14122400D01*
X7951196Y14122400D01*
X7952415Y14114704D01*
X7970879Y13998129D01*
X7972281Y13989274D01*
X8033472Y13869180D01*
X8128780Y13773872D01*
X8135717Y13770337D01*
X8135719Y13770336D01*
X8196857Y13739185D01*
X8248874Y13712681D01*
X8256568Y13711462D01*
X8256569Y13711462D01*
X8374304Y13692815D01*
X8382000Y13691596D01*
X8389696Y13692815D01*
X8507431Y13711462D01*
X8507432Y13711462D01*
X8515126Y13712681D01*
X8567143Y13739185D01*
X8628281Y13770336D01*
X8628283Y13770337D01*
X8635220Y13773872D01*
X8730528Y13869180D01*
X8791719Y13989274D01*
X8793122Y13998129D01*
X8811585Y14114704D01*
X8812804Y14122400D01*
X8791719Y14255526D01*
X8730528Y14375620D01*
X8635220Y14470928D01*
X8628283Y14474463D01*
X8628281Y14474464D01*
X8522066Y14528583D01*
X8522065Y14528583D01*
X8515126Y14532119D01*
X8507432Y14533338D01*
X8507431Y14533338D01*
X8389696Y14551985D01*
X8382000Y14553204D01*
X8374304Y14551985D01*
X8256569Y14533338D01*
X8256568Y14533338D01*
X8248874Y14532119D01*
X8241935Y14528583D01*
X8241934Y14528583D01*
X8135719Y14474464D01*
X8135717Y14474463D01*
X8128780Y14470928D01*
X8033472Y14375620D01*
X7972281Y14255526D01*
X7951196Y14122400D01*
X200500Y14122400D01*
X200500Y15343453D01*
X7916340Y15343453D01*
X7937425Y15210327D01*
X7998616Y15090233D01*
X8093924Y14994925D01*
X8100861Y14991390D01*
X8100863Y14991389D01*
X8204898Y14938381D01*
X8214018Y14933734D01*
X8221712Y14932515D01*
X8221713Y14932515D01*
X8339448Y14913868D01*
X8347144Y14912649D01*
X8354840Y14913868D01*
X8472575Y14932515D01*
X8472576Y14932515D01*
X8480270Y14933734D01*
X8489390Y14938381D01*
X8593425Y14991389D01*
X8593427Y14991390D01*
X8600364Y14994925D01*
X8695672Y15090233D01*
X8756863Y15210327D01*
X8777948Y15343453D01*
X8756863Y15476579D01*
X8695672Y15596673D01*
X8600364Y15691981D01*
X8593427Y15695516D01*
X8593425Y15695517D01*
X8487210Y15749636D01*
X8487209Y15749636D01*
X8480270Y15753172D01*
X8472576Y15754391D01*
X8472575Y15754391D01*
X8354840Y15773038D01*
X8347144Y15774257D01*
X8339448Y15773038D01*
X8221713Y15754391D01*
X8221712Y15754391D01*
X8214018Y15753172D01*
X8207079Y15749636D01*
X8207078Y15749636D01*
X8100863Y15695517D01*
X8100861Y15695516D01*
X8093924Y15691981D01*
X7998616Y15596673D01*
X7937425Y15476579D01*
X7916340Y15343453D01*
X200500Y15343453D01*
X200500Y16408400D01*
X6297796Y16408400D01*
X6318881Y16275274D01*
X6380072Y16155180D01*
X6475380Y16059872D01*
X6482317Y16056337D01*
X6482319Y16056336D01*
X6588534Y16002217D01*
X6595474Y15998681D01*
X6603168Y15997462D01*
X6603169Y15997462D01*
X6720904Y15978815D01*
X6728600Y15977596D01*
X6736296Y15978815D01*
X6854031Y15997462D01*
X6854032Y15997462D01*
X6861726Y15998681D01*
X6868666Y16002217D01*
X6974881Y16056336D01*
X6974883Y16056337D01*
X6981820Y16059872D01*
X7077128Y16155180D01*
X7138319Y16275274D01*
X7159404Y16408400D01*
X7153547Y16445378D01*
X7139538Y16533831D01*
X7139538Y16533832D01*
X7138319Y16541526D01*
X7077128Y16661620D01*
X6981820Y16756928D01*
X6974883Y16760463D01*
X6974881Y16760464D01*
X6868666Y16814583D01*
X6868665Y16814583D01*
X6861726Y16818119D01*
X6854032Y16819338D01*
X6854031Y16819338D01*
X6736296Y16837985D01*
X6728600Y16839204D01*
X6720904Y16837985D01*
X6603169Y16819338D01*
X6603168Y16819338D01*
X6595474Y16818119D01*
X6588535Y16814583D01*
X6588534Y16814583D01*
X6482319Y16760464D01*
X6482317Y16760463D01*
X6475380Y16756928D01*
X6380072Y16661620D01*
X6318881Y16541526D01*
X6317662Y16533832D01*
X6317662Y16533831D01*
X6303653Y16445378D01*
X6297796Y16408400D01*
X200500Y16408400D01*
X200500Y16916400D01*
X5258796Y16916400D01*
X5260015Y16908704D01*
X5271023Y16839204D01*
X5279881Y16783274D01*
X5341072Y16663180D01*
X5436380Y16567872D01*
X5443317Y16564337D01*
X5443319Y16564336D01*
X5503189Y16533831D01*
X5556474Y16506681D01*
X5564168Y16505462D01*
X5564169Y16505462D01*
X5681904Y16486815D01*
X5689600Y16485596D01*
X5697296Y16486815D01*
X5815031Y16505462D01*
X5815032Y16505462D01*
X5822726Y16506681D01*
X5876011Y16533831D01*
X5935881Y16564336D01*
X5935883Y16564337D01*
X5942820Y16567872D01*
X6038128Y16663180D01*
X6099319Y16783274D01*
X6108178Y16839204D01*
X6119185Y16908704D01*
X6120404Y16916400D01*
X6099319Y17049526D01*
X6038128Y17169620D01*
X5942820Y17264928D01*
X5935883Y17268463D01*
X5935881Y17268464D01*
X5829666Y17322583D01*
X5829665Y17322583D01*
X5822726Y17326119D01*
X5815032Y17327338D01*
X5815031Y17327338D01*
X5697296Y17345985D01*
X5689600Y17347204D01*
X5681904Y17345985D01*
X5564169Y17327338D01*
X5564168Y17327338D01*
X5556474Y17326119D01*
X5549535Y17322583D01*
X5549534Y17322583D01*
X5443319Y17268464D01*
X5443317Y17268463D01*
X5436380Y17264928D01*
X5341072Y17169620D01*
X5279881Y17049526D01*
X5258796Y16916400D01*
X200500Y16916400D01*
X200500Y17965719D01*
X203057Y17988074D01*
X203141Y17988435D01*
X205655Y17999282D01*
X205656Y18000000D01*
X204413Y18005449D01*
X203791Y18011008D01*
X204259Y18011060D01*
X202596Y18031969D01*
X215470Y18228404D01*
X217160Y18241244D01*
X221138Y18261239D01*
X258525Y18449200D01*
X6119678Y18449200D01*
X6138915Y18266171D01*
X6140516Y18261244D01*
X6140517Y18261239D01*
X6147014Y18241244D01*
X6195786Y18091141D01*
X6198378Y18086652D01*
X6198380Y18086647D01*
X6248199Y18000359D01*
X6287805Y17931760D01*
X6291273Y17927908D01*
X6291277Y17927903D01*
X6407480Y17798846D01*
X6407484Y17798842D01*
X6410950Y17794993D01*
X6559839Y17686819D01*
X6564571Y17684712D01*
X6564573Y17684711D01*
X6723226Y17614074D01*
X6723229Y17614073D01*
X6727966Y17611964D01*
X6778587Y17601204D01*
X6894418Y17576583D01*
X6907981Y17573700D01*
X7092019Y17573700D01*
X7097088Y17574777D01*
X7097093Y17574778D01*
X7248100Y17606876D01*
X7308950Y17600480D01*
X7354419Y17559539D01*
X7367141Y17499691D01*
X7338687Y17440035D01*
X7322272Y17423620D01*
X7261081Y17303526D01*
X7239996Y17170400D01*
X7261081Y17037274D01*
X7322272Y16917180D01*
X7417580Y16821872D01*
X7424517Y16818337D01*
X7424519Y16818336D01*
X7506953Y16776334D01*
X7537674Y16760681D01*
X7545368Y16759462D01*
X7545369Y16759462D01*
X7663104Y16740815D01*
X7670800Y16739596D01*
X7678496Y16740815D01*
X7796231Y16759462D01*
X7796232Y16759462D01*
X7803926Y16760681D01*
X7834647Y16776334D01*
X7917081Y16818336D01*
X7917083Y16818337D01*
X7924020Y16821872D01*
X8019328Y16917180D01*
X8080519Y17037274D01*
X8101604Y17170400D01*
X8080519Y17303526D01*
X8019328Y17423620D01*
X7924020Y17518928D01*
X7917083Y17522463D01*
X7917081Y17522464D01*
X7810866Y17576583D01*
X7810865Y17576583D01*
X7803926Y17580119D01*
X7796232Y17581338D01*
X7796231Y17581338D01*
X7678496Y17599985D01*
X7670800Y17601204D01*
X7663104Y17599985D01*
X7663102Y17599985D01*
X7632465Y17595133D01*
X7572033Y17604705D01*
X7528769Y17647970D01*
X7519198Y17708402D01*
X7546976Y17762918D01*
X7558789Y17773007D01*
X7584854Y17791944D01*
X7584856Y17791946D01*
X7589050Y17794993D01*
X7592516Y17798842D01*
X7592520Y17798846D01*
X7708723Y17927903D01*
X7708727Y17927908D01*
X7712195Y17931760D01*
X7751801Y18000359D01*
X7801620Y18086647D01*
X7801622Y18086652D01*
X7804214Y18091141D01*
X7852986Y18241244D01*
X7859483Y18261239D01*
X7859484Y18261244D01*
X7861085Y18266171D01*
X7880322Y18449200D01*
X8119678Y18449200D01*
X8138915Y18266171D01*
X8140516Y18261244D01*
X8140517Y18261239D01*
X8147014Y18241244D01*
X8195786Y18091141D01*
X8198378Y18086652D01*
X8198380Y18086647D01*
X8248199Y18000359D01*
X8287805Y17931760D01*
X8291273Y17927908D01*
X8291277Y17927903D01*
X8407480Y17798846D01*
X8407484Y17798842D01*
X8410950Y17794993D01*
X8559839Y17686819D01*
X8564571Y17684712D01*
X8564573Y17684711D01*
X8723226Y17614074D01*
X8723229Y17614073D01*
X8727966Y17611964D01*
X8778587Y17601204D01*
X8894418Y17576583D01*
X8907981Y17573700D01*
X9092019Y17573700D01*
X9105583Y17576583D01*
X9221413Y17601204D01*
X9272034Y17611964D01*
X9276771Y17614073D01*
X9276774Y17614074D01*
X9435427Y17684711D01*
X9435429Y17684712D01*
X9440161Y17686819D01*
X9589050Y17794993D01*
X9592516Y17798842D01*
X9592520Y17798846D01*
X9708723Y17927903D01*
X9708727Y17927908D01*
X9712195Y17931760D01*
X9751801Y18000359D01*
X9801620Y18086647D01*
X9801622Y18086652D01*
X9804214Y18091141D01*
X9852986Y18241244D01*
X9859483Y18261239D01*
X9859484Y18261244D01*
X9861085Y18266171D01*
X9880322Y18449200D01*
X10119678Y18449200D01*
X10138915Y18266171D01*
X10140516Y18261244D01*
X10140517Y18261239D01*
X10147014Y18241244D01*
X10195786Y18091141D01*
X10198378Y18086652D01*
X10198380Y18086647D01*
X10248199Y18000359D01*
X10287805Y17931760D01*
X10291273Y17927908D01*
X10291277Y17927903D01*
X10407480Y17798846D01*
X10407484Y17798842D01*
X10410950Y17794993D01*
X10559839Y17686819D01*
X10564571Y17684712D01*
X10564573Y17684711D01*
X10723226Y17614074D01*
X10723229Y17614073D01*
X10727966Y17611964D01*
X10778587Y17601204D01*
X10894418Y17576583D01*
X10907981Y17573700D01*
X11092019Y17573700D01*
X11105583Y17576583D01*
X11221413Y17601204D01*
X11272034Y17611964D01*
X11276771Y17614073D01*
X11276774Y17614074D01*
X11435427Y17684711D01*
X11435429Y17684712D01*
X11440161Y17686819D01*
X11589050Y17794993D01*
X11592516Y17798842D01*
X11592520Y17798846D01*
X11708723Y17927903D01*
X11708727Y17927908D01*
X11712195Y17931760D01*
X11751801Y18000359D01*
X11801620Y18086647D01*
X11801622Y18086652D01*
X11804214Y18091141D01*
X11852986Y18241244D01*
X11859483Y18261239D01*
X11859484Y18261244D01*
X11861085Y18266171D01*
X11880322Y18449200D01*
X11861085Y18632229D01*
X11859484Y18637156D01*
X11859483Y18637161D01*
X11805816Y18802328D01*
X11804214Y18807259D01*
X11801622Y18811748D01*
X11801620Y18811753D01*
X11714790Y18962145D01*
X11712195Y18966640D01*
X11708727Y18970492D01*
X11708723Y18970497D01*
X11592520Y19099554D01*
X11592516Y19099558D01*
X11589050Y19103407D01*
X11440161Y19211581D01*
X11435429Y19213688D01*
X11435427Y19213689D01*
X11276774Y19284326D01*
X11276771Y19284327D01*
X11272034Y19286436D01*
X11092019Y19324700D01*
X10907981Y19324700D01*
X10727966Y19286436D01*
X10723229Y19284327D01*
X10723226Y19284326D01*
X10564573Y19213689D01*
X10564571Y19213688D01*
X10559839Y19211581D01*
X10410950Y19103407D01*
X10407484Y19099558D01*
X10407480Y19099554D01*
X10291277Y18970497D01*
X10291273Y18970492D01*
X10287805Y18966640D01*
X10285210Y18962145D01*
X10198380Y18811753D01*
X10198378Y18811748D01*
X10195786Y18807259D01*
X10194184Y18802328D01*
X10140517Y18637161D01*
X10140516Y18637156D01*
X10138915Y18632229D01*
X10119678Y18449200D01*
X9880322Y18449200D01*
X9861085Y18632229D01*
X9859484Y18637156D01*
X9859483Y18637161D01*
X9805816Y18802328D01*
X9804214Y18807259D01*
X9801622Y18811748D01*
X9801620Y18811753D01*
X9714790Y18962145D01*
X9712195Y18966640D01*
X9708727Y18970492D01*
X9708723Y18970497D01*
X9592520Y19099554D01*
X9592516Y19099558D01*
X9589050Y19103407D01*
X9440161Y19211581D01*
X9435429Y19213688D01*
X9435427Y19213689D01*
X9276774Y19284326D01*
X9276771Y19284327D01*
X9272034Y19286436D01*
X9092019Y19324700D01*
X8907981Y19324700D01*
X8727966Y19286436D01*
X8723229Y19284327D01*
X8723226Y19284326D01*
X8564573Y19213689D01*
X8564571Y19213688D01*
X8559839Y19211581D01*
X8410950Y19103407D01*
X8407484Y19099558D01*
X8407480Y19099554D01*
X8291277Y18970497D01*
X8291273Y18970492D01*
X8287805Y18966640D01*
X8285210Y18962145D01*
X8198380Y18811753D01*
X8198378Y18811748D01*
X8195786Y18807259D01*
X8194184Y18802328D01*
X8140517Y18637161D01*
X8140516Y18637156D01*
X8138915Y18632229D01*
X8119678Y18449200D01*
X7880322Y18449200D01*
X7861085Y18632229D01*
X7859484Y18637156D01*
X7859483Y18637161D01*
X7805816Y18802328D01*
X7804214Y18807259D01*
X7801622Y18811748D01*
X7801620Y18811753D01*
X7714790Y18962145D01*
X7712195Y18966640D01*
X7708727Y18970492D01*
X7708723Y18970497D01*
X7592520Y19099554D01*
X7592516Y19099558D01*
X7589050Y19103407D01*
X7440161Y19211581D01*
X7435429Y19213688D01*
X7435427Y19213689D01*
X7276774Y19284326D01*
X7276771Y19284327D01*
X7272034Y19286436D01*
X7092019Y19324700D01*
X6907981Y19324700D01*
X6727966Y19286436D01*
X6723229Y19284327D01*
X6723226Y19284326D01*
X6564573Y19213689D01*
X6564571Y19213688D01*
X6559839Y19211581D01*
X6410950Y19103407D01*
X6407484Y19099558D01*
X6407480Y19099554D01*
X6291277Y18970497D01*
X6291273Y18970492D01*
X6287805Y18966640D01*
X6285210Y18962145D01*
X6198380Y18811753D01*
X6198378Y18811748D01*
X6195786Y18807259D01*
X6194184Y18802328D01*
X6140517Y18637161D01*
X6140516Y18637156D01*
X6138915Y18632229D01*
X6119678Y18449200D01*
X258525Y18449200D01*
X260551Y18459387D01*
X263902Y18471891D01*
X335395Y18682500D01*
X340344Y18694449D01*
X438724Y18893944D01*
X445187Y18905137D01*
X568757Y19090072D01*
X576640Y19100345D01*
X723283Y19267560D01*
X732440Y19276717D01*
X899655Y19423360D01*
X909928Y19431243D01*
X957556Y19463067D01*
X1094863Y19554813D01*
X1106056Y19561276D01*
X1305551Y19659656D01*
X1317500Y19664605D01*
X1528113Y19736099D01*
X1540613Y19739449D01*
X1758763Y19782841D01*
X1771588Y19784529D01*
X1967775Y19797388D01*
X1977628Y19796595D01*
X1977628Y19796862D01*
X1988776Y19796842D01*
X1999641Y19794344D01*
X2011641Y19797059D01*
X2033488Y19799500D01*
X17965983Y19799500D01*
X17988169Y19796982D01*
G37*
%TD.AperFunction*%
%TD*%
M02*
