%TF.GenerationSoftware,KiCad,Pcbnew,(6.0.7)*%
%TF.CreationDate,2024-01-02T21:25:37+08:00*%
%TF.ProjectId,stepper-motor-20,73746570-7065-4722-9d6d-6f746f722d32,1*%
%TF.SameCoordinates,PX6979f40PYa1135a0*%
%TF.FileFunction,Soldermask,Bot*%
%TF.FilePolarity,Negative*%
%FSLAX46Y46*%
G04 Gerber Fmt 4.6, Leading zero omitted, Abs format (unit mm)*
G04 Created by KiCad (PCBNEW (6.0.7)) date 2024-01-02 21:25:37*
%MOMM*%
%LPD*%
G01*
G04 APERTURE LIST*
G04 Aperture macros list*
%AMRoundRect*
0 Rectangle with rounded corners*
0 $1 Rounding radius*
0 $2 $3 $4 $5 $6 $7 $8 $9 X,Y pos of 4 corners*
0 Add a 4 corners polygon primitive as box body*
4,1,4,$2,$3,$4,$5,$6,$7,$8,$9,$2,$3,0*
0 Add four circle primitives for the rounded corners*
1,1,$1+$1,$2,$3*
1,1,$1+$1,$4,$5*
1,1,$1+$1,$6,$7*
1,1,$1+$1,$8,$9*
0 Add four rect primitives between the rounded corners*
20,1,$1+$1,$2,$3,$4,$5,0*
20,1,$1+$1,$4,$5,$6,$7,0*
20,1,$1+$1,$6,$7,$8,$9,0*
20,1,$1+$1,$8,$9,$2,$3,0*%
G04 Aperture macros list end*
%ADD10C,0.600000*%
%ADD11C,3.600000*%
%ADD12R,0.850000X0.850000*%
%ADD13O,0.850000X0.850000*%
%ADD14R,1.350000X1.350000*%
%ADD15O,1.350000X1.350000*%
%ADD16RoundRect,0.250000X-0.325000X-0.650000X0.325000X-0.650000X0.325000X0.650000X-0.325000X0.650000X0*%
%ADD17RoundRect,0.250000X-0.650000X0.325000X-0.650000X-0.325000X0.650000X-0.325000X0.650000X0.325000X0*%
%ADD18RoundRect,0.250000X0.650000X-0.325000X0.650000X0.325000X-0.650000X0.325000X-0.650000X-0.325000X0*%
%ADD19RoundRect,0.162500X-0.825000X-0.162500X0.825000X-0.162500X0.825000X0.162500X-0.825000X0.162500X0*%
%ADD20RoundRect,0.150000X0.150000X-0.825000X0.150000X0.825000X-0.150000X0.825000X-0.150000X-0.825000X0*%
%ADD21RoundRect,0.140000X0.140000X0.170000X-0.140000X0.170000X-0.140000X-0.170000X0.140000X-0.170000X0*%
G04 APERTURE END LIST*
D10*
%TO.C,H1*%
X16582400Y3265200D03*
X17700000Y3773200D03*
X17700000Y826800D03*
X19173200Y2300000D03*
X18665200Y1182400D03*
X18665200Y3417600D03*
X16633200Y1284000D03*
X16226800Y2300000D03*
D11*
X17700000Y2300000D03*
%TD*%
D10*
%TO.C,H2*%
X2300000Y19173200D03*
X3265200Y16582400D03*
D11*
X2300000Y17700000D03*
D10*
X2300000Y16226800D03*
X3773200Y17700000D03*
X826800Y17700000D03*
X1233200Y16684000D03*
X3265200Y18817600D03*
X1182400Y18665200D03*
%TD*%
D11*
%TO.C,H3*%
X17700000Y17700000D03*
D10*
X18665200Y16582400D03*
X18665200Y18817600D03*
X16633200Y16684000D03*
X16226800Y17700000D03*
X17700000Y16226800D03*
X16582400Y18665200D03*
X17700000Y19173200D03*
X19173200Y17700000D03*
%TD*%
D12*
%TO.C,J2*%
X7162800Y711200D03*
D13*
X6162800Y711200D03*
X5162800Y711200D03*
X4162800Y711200D03*
%TD*%
D14*
%TO.C,J3*%
X19050000Y8176000D03*
D15*
X19050000Y10176000D03*
X19050000Y12176000D03*
X19050000Y14176000D03*
%TD*%
D10*
%TO.C,H4*%
X3265200Y3417600D03*
X1182400Y3265200D03*
X826800Y2300000D03*
X3773200Y2300000D03*
X2300000Y826800D03*
X3265200Y1182400D03*
X2300000Y3773200D03*
D11*
X2300000Y2300000D03*
D10*
X1233200Y1284000D03*
%TD*%
D14*
%TO.C,J1*%
X13000000Y18449200D03*
D15*
X11000000Y18449200D03*
X9000000Y18449200D03*
X7000000Y18449200D03*
%TD*%
D16*
%TO.C,C13*%
X11479000Y14020800D03*
X14429000Y14020800D03*
%TD*%
D17*
%TO.C,C14*%
X16662400Y9806200D03*
X16662400Y6856200D03*
%TD*%
D16*
%TO.C,C17*%
X11479000Y16052800D03*
X14429000Y16052800D03*
%TD*%
%TO.C,C18*%
X11479000Y4419600D03*
X14429000Y4419600D03*
%TD*%
D18*
%TO.C,C21*%
X16662400Y11529800D03*
X16662400Y14479800D03*
%TD*%
D16*
%TO.C,C22*%
X11479000Y6502400D03*
X14429000Y6502400D03*
%TD*%
D19*
%TO.C,U1*%
X7462500Y8095000D03*
X7462500Y9365000D03*
X7462500Y10635000D03*
X7462500Y11905000D03*
X12537500Y11905000D03*
X12537500Y10635000D03*
X12537500Y9365000D03*
X12537500Y8095000D03*
%TD*%
D20*
%TO.C,U6*%
X4495800Y5449800D03*
X3225800Y5449800D03*
X1955800Y5449800D03*
X685800Y5449800D03*
X685800Y10399800D03*
X1955800Y10399800D03*
X3225800Y10399800D03*
X4495800Y10399800D03*
%TD*%
D21*
%TO.C,C28*%
X4442400Y11938000D03*
X3482400Y11938000D03*
%TD*%
G36*
X6738970Y1022111D02*
G01*
X6739800Y1020489D01*
X6739800Y401914D01*
X6738800Y400182D01*
X6736800Y400182D01*
X6735881Y401351D01*
X6716205Y468363D01*
X6663862Y513718D01*
X6595309Y523575D01*
X6532132Y494723D01*
X6518278Y480018D01*
X6516362Y479443D01*
X6514906Y480814D01*
X6515040Y482297D01*
X6565074Y580495D01*
X6585775Y711200D01*
X6565074Y841905D01*
X6514183Y941783D01*
X6514288Y943780D01*
X6516070Y944688D01*
X6517144Y944306D01*
X6571219Y904821D01*
X6640354Y900702D01*
X6700742Y934615D01*
X6733301Y995965D01*
X6735810Y1020691D01*
X6736980Y1022313D01*
X6738970Y1022111D01*
G37*
G36*
X5519579Y939932D02*
G01*
X5531514Y924378D01*
X5531775Y923925D01*
X5549054Y882209D01*
X5592699Y828050D01*
X5658414Y806178D01*
X5725520Y823306D01*
X5772186Y873430D01*
X5774098Y874016D01*
X5775562Y872653D01*
X5775432Y871159D01*
X5760526Y841905D01*
X5739825Y711200D01*
X5760526Y580495D01*
X5809390Y484594D01*
X5809285Y482597D01*
X5807503Y481689D01*
X5806021Y482468D01*
X5794086Y498022D01*
X5793825Y498475D01*
X5776546Y540191D01*
X5732901Y594350D01*
X5667186Y616222D01*
X5600080Y599094D01*
X5553414Y548970D01*
X5551502Y548384D01*
X5550038Y549747D01*
X5550168Y551241D01*
X5565074Y580495D01*
X5585775Y711200D01*
X5565074Y841905D01*
X5516210Y937806D01*
X5516315Y939803D01*
X5518097Y940711D01*
X5519579Y939932D01*
G37*
G36*
X4519579Y939932D02*
G01*
X4531514Y924378D01*
X4531775Y923925D01*
X4549054Y882209D01*
X4592699Y828050D01*
X4658414Y806178D01*
X4725520Y823306D01*
X4772186Y873430D01*
X4774098Y874016D01*
X4775562Y872653D01*
X4775432Y871159D01*
X4760526Y841905D01*
X4739825Y711200D01*
X4760526Y580495D01*
X4809390Y484594D01*
X4809285Y482597D01*
X4807503Y481689D01*
X4806021Y482468D01*
X4794086Y498022D01*
X4793825Y498475D01*
X4776546Y540191D01*
X4732901Y594350D01*
X4667186Y616222D01*
X4600080Y599094D01*
X4553414Y548970D01*
X4551502Y548384D01*
X4550038Y549747D01*
X4550168Y551241D01*
X4565074Y580495D01*
X4585775Y711200D01*
X4565074Y841905D01*
X4516210Y937806D01*
X4516315Y939803D01*
X4518097Y940711D01*
X4519579Y939932D01*
G37*
G36*
X3823759Y1348920D02*
G01*
X3823678Y1346946D01*
X3757671Y1241108D01*
X3757505Y1240879D01*
X3753061Y1235591D01*
X3725117Y1171891D01*
X3736002Y1103495D01*
X3782138Y1051839D01*
X3848876Y1033327D01*
X3906715Y1051258D01*
X3908665Y1050816D01*
X3909257Y1048906D01*
X3908721Y1047934D01*
X3820607Y959820D01*
X3780031Y880185D01*
X3778354Y879096D01*
X3776572Y880004D01*
X3776401Y881858D01*
X3785419Y903628D01*
X3792854Y972791D01*
X3761854Y1034720D01*
X3702291Y1070061D01*
X3632990Y1067586D01*
X3589676Y1042448D01*
X3578792Y1032700D01*
X3576835Y1032290D01*
X3575501Y1033779D01*
X3575954Y1035509D01*
X3735944Y1217943D01*
X3820299Y1349086D01*
X3822077Y1350002D01*
X3823759Y1348920D01*
G37*
G36*
X11883694Y15169672D02*
G01*
X11884084Y15167710D01*
X11883071Y15166558D01*
X11875122Y15162655D01*
X11874531Y15162471D01*
X11847919Y15158565D01*
X11784732Y15129485D01*
X11747459Y15071112D01*
X11747661Y15001853D01*
X11785276Y14943699D01*
X11848022Y14915076D01*
X11874063Y14911277D01*
X11874652Y14911095D01*
X11882851Y14907087D01*
X11883968Y14905428D01*
X11883090Y14903631D01*
X11881583Y14903328D01*
X11803801Y14918800D01*
X11154199Y14918800D01*
X11076200Y14903285D01*
X11074306Y14903928D01*
X11073916Y14905890D01*
X11074929Y14907042D01*
X11082878Y14910945D01*
X11083469Y14911129D01*
X11110081Y14915035D01*
X11173268Y14944115D01*
X11210541Y15002488D01*
X11210339Y15071747D01*
X11172724Y15129901D01*
X11109978Y15158524D01*
X11083937Y15162323D01*
X11083348Y15162505D01*
X11075149Y15166513D01*
X11074032Y15168172D01*
X11074910Y15169969D01*
X11076417Y15170272D01*
X11154199Y15154800D01*
X11803801Y15154800D01*
X11881800Y15170315D01*
X11883694Y15169672D01*
G37*
G36*
X14833694Y15169672D02*
G01*
X14834084Y15167710D01*
X14833071Y15166558D01*
X14825122Y15162655D01*
X14824531Y15162471D01*
X14797919Y15158565D01*
X14734732Y15129485D01*
X14697459Y15071112D01*
X14697661Y15001853D01*
X14735276Y14943699D01*
X14798022Y14915076D01*
X14824063Y14911277D01*
X14824652Y14911095D01*
X14832851Y14907087D01*
X14833968Y14905428D01*
X14833090Y14903631D01*
X14831583Y14903328D01*
X14753801Y14918800D01*
X14104199Y14918800D01*
X14026200Y14903285D01*
X14024306Y14903928D01*
X14023916Y14905890D01*
X14024929Y14907042D01*
X14032878Y14910945D01*
X14033469Y14911129D01*
X14060081Y14915035D01*
X14123268Y14944115D01*
X14160541Y15002488D01*
X14160339Y15071747D01*
X14122724Y15129901D01*
X14059978Y15158524D01*
X14033937Y15162323D01*
X14033348Y15162505D01*
X14025149Y15166513D01*
X14024032Y15168172D01*
X14024910Y15169969D01*
X14026417Y15170272D01*
X14104199Y15154800D01*
X14753801Y15154800D01*
X14831800Y15170315D01*
X14833694Y15169672D01*
G37*
M02*
