%TF.GenerationSoftware,KiCad,Pcbnew,(6.0.7)*%
%TF.CreationDate,2024-01-02T21:25:37+08:00*%
%TF.ProjectId,stepper-motor-20,73746570-7065-4722-9d6d-6f746f722d32,1*%
%TF.SameCoordinates,PX6979f40PYa1135a0*%
%TF.FileFunction,Soldermask,Top*%
%TF.FilePolarity,Negative*%
%FSLAX46Y46*%
G04 Gerber Fmt 4.6, Leading zero omitted, Abs format (unit mm)*
G04 Created by KiCad (PCBNEW (6.0.7)) date 2024-01-02 21:25:37*
%MOMM*%
%LPD*%
G01*
G04 APERTURE LIST*
G04 Aperture macros list*
%AMRoundRect*
0 Rectangle with rounded corners*
0 $1 Rounding radius*
0 $2 $3 $4 $5 $6 $7 $8 $9 X,Y pos of 4 corners*
0 Add a 4 corners polygon primitive as box body*
4,1,4,$2,$3,$4,$5,$6,$7,$8,$9,$2,$3,0*
0 Add four circle primitives for the rounded corners*
1,1,$1+$1,$2,$3*
1,1,$1+$1,$4,$5*
1,1,$1+$1,$6,$7*
1,1,$1+$1,$8,$9*
0 Add four rect primitives between the rounded corners*
20,1,$1+$1,$2,$3,$4,$5,0*
20,1,$1+$1,$4,$5,$6,$7,0*
20,1,$1+$1,$6,$7,$8,$9,0*
20,1,$1+$1,$8,$9,$2,$3,0*%
G04 Aperture macros list end*
%ADD10RoundRect,0.147500X0.147500X0.172500X-0.147500X0.172500X-0.147500X-0.172500X0.147500X-0.172500X0*%
%ADD11RoundRect,0.147500X-0.147500X-0.172500X0.147500X-0.172500X0.147500X0.172500X-0.147500X0.172500X0*%
%ADD12RoundRect,0.147500X-0.172500X0.147500X-0.172500X-0.147500X0.172500X-0.147500X0.172500X0.147500X0*%
%ADD13RoundRect,0.140000X-0.140000X-0.170000X0.140000X-0.170000X0.140000X0.170000X-0.140000X0.170000X0*%
%ADD14RoundRect,0.140000X0.140000X0.170000X-0.140000X0.170000X-0.140000X-0.170000X0.140000X-0.170000X0*%
%ADD15RoundRect,0.225000X-0.250000X0.225000X-0.250000X-0.225000X0.250000X-0.225000X0.250000X0.225000X0*%
%ADD16R,0.450000X0.600000*%
%ADD17C,0.600000*%
%ADD18C,3.600000*%
%ADD19R,0.850000X0.850000*%
%ADD20O,0.850000X0.850000*%
%ADD21R,1.350000X1.350000*%
%ADD22O,1.350000X1.350000*%
%ADD23R,2.700000X0.800000*%
%ADD24RoundRect,0.243750X0.456250X-0.243750X0.456250X0.243750X-0.456250X0.243750X-0.456250X-0.243750X0*%
%ADD25RoundRect,0.147500X0.172500X-0.147500X0.172500X0.147500X-0.172500X0.147500X-0.172500X-0.147500X0*%
%ADD26RoundRect,0.050000X0.387500X0.050000X-0.387500X0.050000X-0.387500X-0.050000X0.387500X-0.050000X0*%
%ADD27RoundRect,0.050000X0.050000X0.387500X-0.050000X0.387500X-0.050000X-0.387500X0.050000X-0.387500X0*%
%ADD28R,2.600000X2.600000*%
%ADD29RoundRect,0.150000X-0.825000X-0.150000X0.825000X-0.150000X0.825000X0.150000X-0.825000X0.150000X0*%
%ADD30R,2.410000X3.300000*%
%ADD31R,1.060000X0.650000*%
%ADD32RoundRect,0.135000X-0.135000X-0.185000X0.135000X-0.185000X0.135000X0.185000X-0.135000X0.185000X0*%
%ADD33RoundRect,0.200000X-0.200000X-0.800000X0.200000X-0.800000X0.200000X0.800000X-0.200000X0.800000X0*%
%ADD34RoundRect,0.135000X0.135000X0.185000X-0.135000X0.185000X-0.135000X-0.185000X0.135000X-0.185000X0*%
%ADD35RoundRect,0.225000X0.250000X-0.225000X0.250000X0.225000X-0.250000X0.225000X-0.250000X-0.225000X0*%
G04 APERTURE END LIST*
D10*
%TO.C,C3*%
X14224000Y1981200D03*
X13254000Y1981200D03*
%TD*%
D11*
%TO.C,C4*%
X6728600Y11836400D03*
X7698600Y11836400D03*
%TD*%
%TO.C,C5*%
X4645800Y1828800D03*
X5615800Y1828800D03*
%TD*%
D12*
%TO.C,C6*%
X4978400Y6123800D03*
X4978400Y5153800D03*
%TD*%
D11*
%TO.C,C7*%
X11402200Y1016000D03*
X12372200Y1016000D03*
%TD*%
%TO.C,C8*%
X13254000Y4318000D03*
X14224000Y4318000D03*
%TD*%
D10*
%TO.C,C9*%
X14201000Y1016000D03*
X13231000Y1016000D03*
%TD*%
D11*
%TO.C,C10*%
X4747400Y16764000D03*
X5717400Y16764000D03*
%TD*%
D13*
%TO.C,C12*%
X6754200Y9906000D03*
X7714200Y9906000D03*
%TD*%
%TO.C,C16*%
X6756600Y8280400D03*
X7716600Y8280400D03*
%TD*%
D14*
%TO.C,C19*%
X17040800Y7416800D03*
X16080800Y7416800D03*
%TD*%
%TO.C,C20*%
X17040800Y11785600D03*
X16080800Y11785600D03*
%TD*%
D15*
%TO.C,C24*%
X711200Y10444600D03*
X711200Y8894600D03*
%TD*%
D14*
%TO.C,C26*%
X14219000Y5943600D03*
X13259000Y5943600D03*
%TD*%
D11*
%TO.C,D1*%
X808000Y5159000D03*
X1778000Y5159000D03*
%TD*%
%TO.C,D2*%
X808000Y6096000D03*
X1778000Y6096000D03*
%TD*%
D16*
%TO.C,D3*%
X5029200Y11159200D03*
X5029200Y9059200D03*
%TD*%
D17*
%TO.C,H1*%
X16582400Y3265200D03*
X17700000Y3773200D03*
X17700000Y826800D03*
X19173200Y2300000D03*
X18665200Y1182400D03*
X18665200Y3417600D03*
X16633200Y1284000D03*
X16226800Y2300000D03*
D18*
X17700000Y2300000D03*
%TD*%
D17*
%TO.C,H2*%
X2300000Y19173200D03*
X3265200Y16582400D03*
D18*
X2300000Y17700000D03*
D17*
X2300000Y16226800D03*
X3773200Y17700000D03*
X826800Y17700000D03*
X1233200Y16684000D03*
X3265200Y18817600D03*
X1182400Y18665200D03*
%TD*%
D18*
%TO.C,H3*%
X17700000Y17700000D03*
D17*
X18665200Y16582400D03*
X18665200Y18817600D03*
X16633200Y16684000D03*
X16226800Y17700000D03*
X17700000Y16226800D03*
X16582400Y18665200D03*
X17700000Y19173200D03*
X19173200Y17700000D03*
%TD*%
D19*
%TO.C,J2*%
X7162800Y711200D03*
D20*
X6162800Y711200D03*
X5162800Y711200D03*
X4162800Y711200D03*
%TD*%
D21*
%TO.C,J3*%
X19050000Y8176000D03*
D22*
X19050000Y10176000D03*
X19050000Y12176000D03*
X19050000Y14176000D03*
%TD*%
D23*
%TO.C,L1*%
X2844800Y11125200D03*
X2844800Y8925200D03*
%TD*%
D11*
%TO.C,R2*%
X2671000Y6096000D03*
X3641000Y6096000D03*
%TD*%
D10*
%TO.C,R3*%
X14224000Y2758200D03*
X13254000Y2758200D03*
%TD*%
D11*
%TO.C,R4*%
X11402200Y1981200D03*
X12372200Y1981200D03*
%TD*%
%TO.C,R5*%
X13254000Y3530000D03*
X14224000Y3530000D03*
%TD*%
%TO.C,R7*%
X6751600Y10668000D03*
X7721600Y10668000D03*
%TD*%
%TO.C,R9*%
X6751600Y9093200D03*
X7721600Y9093200D03*
%TD*%
D24*
%TO.C,R10*%
X17272000Y13286500D03*
X17272000Y15161500D03*
%TD*%
%TO.C,R11*%
X17272000Y8968500D03*
X17272000Y10843500D03*
%TD*%
D25*
%TO.C,R12*%
X711200Y14163000D03*
X711200Y15133000D03*
%TD*%
D11*
%TO.C,R13*%
X1801000Y15189200D03*
X2771000Y15189200D03*
%TD*%
%TO.C,R14*%
X3528200Y15189200D03*
X4498200Y15189200D03*
%TD*%
D10*
%TO.C,R15*%
X14224000Y6705600D03*
X13254000Y6705600D03*
%TD*%
%TO.C,R18*%
X7698600Y16764000D03*
X6728600Y16764000D03*
%TD*%
D11*
%TO.C,R19*%
X835800Y7874000D03*
X1805800Y7874000D03*
%TD*%
D26*
%TO.C,U2*%
X10446500Y2660800D03*
X10446500Y3060800D03*
X10446500Y3460800D03*
X10446500Y3860800D03*
X10446500Y4260800D03*
X10446500Y4660800D03*
X10446500Y5060800D03*
D27*
X9709000Y5798300D03*
X9309000Y5798300D03*
X8909000Y5798300D03*
X8509000Y5798300D03*
X8109000Y5798300D03*
X7709000Y5798300D03*
X7309000Y5798300D03*
D26*
X6571500Y5060800D03*
X6571500Y4660800D03*
X6571500Y4260800D03*
X6571500Y3860800D03*
X6571500Y3460800D03*
X6571500Y3060800D03*
X6571500Y2660800D03*
D27*
X7309000Y1923300D03*
X7709000Y1923300D03*
X8109000Y1923300D03*
X8509000Y1923300D03*
X8909000Y1923300D03*
X9309000Y1923300D03*
X9709000Y1923300D03*
D28*
X8509000Y3860800D03*
%TD*%
D29*
%TO.C,U3*%
X9588000Y16764000D03*
X9588000Y15494000D03*
X9588000Y14224000D03*
X9588000Y12954000D03*
X14538000Y12954000D03*
X14538000Y14224000D03*
X14538000Y15494000D03*
X14538000Y16764000D03*
D30*
X12063000Y14859000D03*
%TD*%
D29*
%TO.C,U4*%
X9590000Y11684000D03*
X9590000Y10414000D03*
X9590000Y9144000D03*
X9590000Y7874000D03*
X14540000Y7874000D03*
X14540000Y9144000D03*
X14540000Y10414000D03*
X14540000Y11684000D03*
D30*
X12065000Y9779000D03*
%TD*%
D31*
%TO.C,U5*%
X4275000Y12326400D03*
X4275000Y13276400D03*
X4275000Y14226400D03*
X2075000Y14226400D03*
X2075000Y13276400D03*
X2075000Y12326400D03*
%TD*%
D17*
%TO.C,H4*%
X3265200Y3417600D03*
X1182400Y3265200D03*
X826800Y2300000D03*
X3773200Y2300000D03*
X2300000Y826800D03*
X3265200Y1182400D03*
X2300000Y3773200D03*
D18*
X2300000Y2300000D03*
D17*
X1233200Y1284000D03*
%TD*%
D10*
%TO.C,R16*%
X14224000Y5181600D03*
X13254000Y5181600D03*
%TD*%
D32*
%TO.C,R17*%
X11377200Y5181600D03*
X12397200Y5181600D03*
%TD*%
D11*
%TO.C,R1*%
X2671000Y5159000D03*
X3641000Y5159000D03*
%TD*%
D10*
%TO.C,R20*%
X1805800Y7061200D03*
X835800Y7061200D03*
%TD*%
D11*
%TO.C,R6*%
X6731000Y15113000D03*
X7701000Y15113000D03*
%TD*%
D21*
%TO.C,J1*%
X13000000Y18449200D03*
D22*
X11000000Y18449200D03*
X9000000Y18449200D03*
X7000000Y18449200D03*
%TD*%
D11*
%TO.C,R8*%
X6731000Y13589000D03*
X7701000Y13589000D03*
%TD*%
D13*
%TO.C,C15*%
X6736000Y12827000D03*
X7696000Y12827000D03*
%TD*%
%TO.C,C11*%
X6736000Y14351000D03*
X7696000Y14351000D03*
%TD*%
D33*
%TO.C,SW1*%
X15172000Y5638800D03*
X19372000Y5638800D03*
%TD*%
D13*
%TO.C,C27*%
X11387200Y5943600D03*
X12347200Y5943600D03*
%TD*%
D34*
%TO.C,NTC1*%
X12397200Y6705600D03*
X11377200Y6705600D03*
%TD*%
D35*
%TO.C,C23*%
X711200Y11637800D03*
X711200Y13187800D03*
%TD*%
G36*
X6738970Y1022111D02*
G01*
X6739800Y1020489D01*
X6739800Y401914D01*
X6738800Y400182D01*
X6736800Y400182D01*
X6735881Y401351D01*
X6716205Y468363D01*
X6663862Y513718D01*
X6595309Y523575D01*
X6532132Y494723D01*
X6518278Y480018D01*
X6516362Y479443D01*
X6514906Y480814D01*
X6515040Y482297D01*
X6565074Y580495D01*
X6585775Y711200D01*
X6565074Y841905D01*
X6514183Y941783D01*
X6514288Y943780D01*
X6516070Y944688D01*
X6517144Y944306D01*
X6571219Y904821D01*
X6640354Y900702D01*
X6700742Y934615D01*
X6733301Y995965D01*
X6735810Y1020691D01*
X6736980Y1022313D01*
X6738970Y1022111D01*
G37*
G36*
X5519579Y939932D02*
G01*
X5531514Y924378D01*
X5531775Y923925D01*
X5549054Y882209D01*
X5592699Y828050D01*
X5658414Y806178D01*
X5725520Y823306D01*
X5772186Y873430D01*
X5774098Y874016D01*
X5775562Y872653D01*
X5775432Y871159D01*
X5760526Y841905D01*
X5739825Y711200D01*
X5760526Y580495D01*
X5809390Y484594D01*
X5809285Y482597D01*
X5807503Y481689D01*
X5806021Y482468D01*
X5794086Y498022D01*
X5793825Y498475D01*
X5776546Y540191D01*
X5732901Y594350D01*
X5667186Y616222D01*
X5600080Y599094D01*
X5553414Y548970D01*
X5551502Y548384D01*
X5550038Y549747D01*
X5550168Y551241D01*
X5565074Y580495D01*
X5585775Y711200D01*
X5565074Y841905D01*
X5516210Y937806D01*
X5516315Y939803D01*
X5518097Y940711D01*
X5519579Y939932D01*
G37*
G36*
X4519579Y939932D02*
G01*
X4531514Y924378D01*
X4531775Y923925D01*
X4549054Y882209D01*
X4592699Y828050D01*
X4658414Y806178D01*
X4725520Y823306D01*
X4772186Y873430D01*
X4774098Y874016D01*
X4775562Y872653D01*
X4775432Y871159D01*
X4760526Y841905D01*
X4739825Y711200D01*
X4760526Y580495D01*
X4809390Y484594D01*
X4809285Y482597D01*
X4807503Y481689D01*
X4806021Y482468D01*
X4794086Y498022D01*
X4793825Y498475D01*
X4776546Y540191D01*
X4732901Y594350D01*
X4667186Y616222D01*
X4600080Y599094D01*
X4553414Y548970D01*
X4551502Y548384D01*
X4550038Y549747D01*
X4550168Y551241D01*
X4565074Y580495D01*
X4585775Y711200D01*
X4565074Y841905D01*
X4516210Y937806D01*
X4516315Y939803D01*
X4518097Y940711D01*
X4519579Y939932D01*
G37*
G36*
X3823759Y1348920D02*
G01*
X3823678Y1346946D01*
X3757671Y1241108D01*
X3757505Y1240879D01*
X3753061Y1235591D01*
X3725117Y1171891D01*
X3736002Y1103495D01*
X3782138Y1051839D01*
X3848876Y1033327D01*
X3906715Y1051258D01*
X3908665Y1050816D01*
X3909257Y1048906D01*
X3908721Y1047934D01*
X3820607Y959820D01*
X3780031Y880185D01*
X3778354Y879096D01*
X3776572Y880004D01*
X3776401Y881858D01*
X3785419Y903628D01*
X3792854Y972791D01*
X3761854Y1034720D01*
X3702291Y1070061D01*
X3632990Y1067586D01*
X3589676Y1042448D01*
X3578792Y1032700D01*
X3576835Y1032290D01*
X3575501Y1033779D01*
X3575954Y1035509D01*
X3735944Y1217943D01*
X3820299Y1349086D01*
X3822077Y1350002D01*
X3823759Y1348920D01*
G37*
G36*
X7807488Y2326385D02*
G01*
X7859944Y2282546D01*
X7928660Y2273913D01*
X7991290Y2303878D01*
X8010190Y2325689D01*
X8012080Y2326343D01*
X8013591Y2325033D01*
X8013663Y2323989D01*
X8011000Y2310601D01*
X8011000Y1535999D01*
X8013757Y1522140D01*
X8013114Y1520246D01*
X8011152Y1519856D01*
X8010512Y1520215D01*
X7958056Y1564054D01*
X7889340Y1572687D01*
X7826710Y1542722D01*
X7807810Y1520911D01*
X7805920Y1520257D01*
X7804409Y1521567D01*
X7804337Y1522611D01*
X7807000Y1535999D01*
X7807000Y2310601D01*
X7804243Y2324460D01*
X7804886Y2326354D01*
X7806848Y2326744D01*
X7807488Y2326385D01*
G37*
G36*
X8207488Y2326385D02*
G01*
X8259944Y2282546D01*
X8328660Y2273913D01*
X8391290Y2303878D01*
X8410190Y2325689D01*
X8412080Y2326343D01*
X8413591Y2325033D01*
X8413663Y2323989D01*
X8411000Y2310601D01*
X8411000Y1535999D01*
X8413757Y1522140D01*
X8413114Y1520246D01*
X8411152Y1519856D01*
X8410512Y1520215D01*
X8358056Y1564054D01*
X8289340Y1572687D01*
X8226710Y1542722D01*
X8207810Y1520911D01*
X8205920Y1520257D01*
X8204409Y1521567D01*
X8204337Y1522611D01*
X8207000Y1535999D01*
X8207000Y2310601D01*
X8204243Y2324460D01*
X8204886Y2326354D01*
X8206848Y2326744D01*
X8207488Y2326385D01*
G37*
G36*
X7407488Y2326385D02*
G01*
X7459944Y2282546D01*
X7528660Y2273913D01*
X7591290Y2303878D01*
X7610190Y2325689D01*
X7612080Y2326343D01*
X7613591Y2325033D01*
X7613663Y2323989D01*
X7611000Y2310601D01*
X7611000Y1535999D01*
X7613757Y1522140D01*
X7613114Y1520246D01*
X7611152Y1519856D01*
X7610512Y1520215D01*
X7558056Y1564054D01*
X7489340Y1572687D01*
X7426710Y1542722D01*
X7407810Y1520911D01*
X7405920Y1520257D01*
X7404409Y1521567D01*
X7404337Y1522611D01*
X7407000Y1535999D01*
X7407000Y2310601D01*
X7404243Y2324460D01*
X7404886Y2326354D01*
X7406848Y2326744D01*
X7407488Y2326385D01*
G37*
G36*
X9007488Y2326385D02*
G01*
X9059944Y2282546D01*
X9128660Y2273913D01*
X9191290Y2303878D01*
X9210190Y2325689D01*
X9212080Y2326343D01*
X9213591Y2325033D01*
X9213663Y2323989D01*
X9211000Y2310601D01*
X9211000Y1535999D01*
X9213757Y1522140D01*
X9213114Y1520246D01*
X9211152Y1519856D01*
X9210512Y1520215D01*
X9158056Y1564054D01*
X9089340Y1572687D01*
X9026710Y1542722D01*
X9007810Y1520911D01*
X9005920Y1520257D01*
X9004409Y1521567D01*
X9004337Y1522611D01*
X9007000Y1535999D01*
X9007000Y2310601D01*
X9004243Y2324460D01*
X9004886Y2326354D01*
X9006848Y2326744D01*
X9007488Y2326385D01*
G37*
G36*
X9407488Y2326385D02*
G01*
X9459944Y2282546D01*
X9528660Y2273913D01*
X9591290Y2303878D01*
X9610190Y2325689D01*
X9612080Y2326343D01*
X9613591Y2325033D01*
X9613663Y2323989D01*
X9611000Y2310601D01*
X9611000Y1535999D01*
X9613757Y1522140D01*
X9613114Y1520246D01*
X9611152Y1519856D01*
X9610512Y1520215D01*
X9558056Y1564054D01*
X9489340Y1572687D01*
X9426710Y1542722D01*
X9407810Y1520911D01*
X9405920Y1520257D01*
X9404409Y1521567D01*
X9404337Y1522611D01*
X9407000Y1535999D01*
X9407000Y2310601D01*
X9404243Y2324460D01*
X9404886Y2326354D01*
X9406848Y2326744D01*
X9407488Y2326385D01*
G37*
G36*
X8607488Y2326385D02*
G01*
X8659944Y2282546D01*
X8728660Y2273913D01*
X8791290Y2303878D01*
X8810190Y2325689D01*
X8812080Y2326343D01*
X8813591Y2325033D01*
X8813663Y2323989D01*
X8811000Y2310601D01*
X8811000Y1535999D01*
X8813757Y1522140D01*
X8813114Y1520246D01*
X8811152Y1519856D01*
X8810512Y1520215D01*
X8758056Y1564054D01*
X8689340Y1572687D01*
X8626710Y1542722D01*
X8607810Y1520911D01*
X8605920Y1520257D01*
X8604409Y1521567D01*
X8604337Y1522611D01*
X8607000Y1535999D01*
X8607000Y2310601D01*
X8604243Y2324460D01*
X8604886Y2326354D01*
X8606848Y2326744D01*
X8607488Y2326385D01*
G37*
G36*
X13486377Y2467223D02*
G01*
X13485916Y2465809D01*
X13446593Y2418755D01*
X13437962Y2350039D01*
X13467926Y2287409D01*
X13476594Y2279898D01*
X13477248Y2278008D01*
X13475938Y2276497D01*
X13474173Y2276724D01*
X13457167Y2288087D01*
X13401301Y2299200D01*
X13106699Y2299200D01*
X13050833Y2288087D01*
X13024730Y2270645D01*
X13022734Y2270514D01*
X13021623Y2272177D01*
X13022084Y2273591D01*
X13061407Y2320645D01*
X13070038Y2389361D01*
X13040074Y2451991D01*
X13031406Y2459502D01*
X13030752Y2461392D01*
X13032062Y2462903D01*
X13033827Y2462676D01*
X13050833Y2451313D01*
X13106699Y2440200D01*
X13401301Y2440200D01*
X13457167Y2451313D01*
X13483270Y2468755D01*
X13485266Y2468886D01*
X13486377Y2467223D01*
G37*
G36*
X14456377Y2467223D02*
G01*
X14455916Y2465809D01*
X14416593Y2418755D01*
X14407962Y2350039D01*
X14437926Y2287409D01*
X14446594Y2279898D01*
X14447248Y2278008D01*
X14445938Y2276497D01*
X14444173Y2276724D01*
X14427167Y2288087D01*
X14371301Y2299200D01*
X14076699Y2299200D01*
X14020833Y2288087D01*
X13994730Y2270645D01*
X13992734Y2270514D01*
X13991623Y2272177D01*
X13992084Y2273591D01*
X14031407Y2320645D01*
X14040038Y2389361D01*
X14010074Y2451991D01*
X14001406Y2459502D01*
X14000752Y2461392D01*
X14002062Y2462903D01*
X14003827Y2462676D01*
X14020833Y2451313D01*
X14076699Y2440200D01*
X14371301Y2440200D01*
X14427167Y2451313D01*
X14453270Y2468755D01*
X14455266Y2468886D01*
X14456377Y2467223D01*
G37*
G36*
X9482588Y2561800D02*
G01*
X9482588Y2559800D01*
X9481419Y2558881D01*
X9414407Y2539205D01*
X9369052Y2486862D01*
X9359195Y2418309D01*
X9382535Y2367203D01*
X9382345Y2365212D01*
X9381827Y2364709D01*
X9381584Y2364546D01*
X9390801Y2350752D01*
X9390932Y2348756D01*
X9389269Y2347645D01*
X9388027Y2347978D01*
X9377355Y2355109D01*
X9358801Y2358800D01*
X9259199Y2358800D01*
X9240645Y2355109D01*
X9229973Y2347978D01*
X9227977Y2347847D01*
X9226866Y2349510D01*
X9227199Y2350752D01*
X9236416Y2364546D01*
X9234977Y2365508D01*
X9234092Y2367302D01*
X9234553Y2368453D01*
X9249845Y2386752D01*
X9258472Y2455470D01*
X9228578Y2517943D01*
X9169514Y2554424D01*
X9136881Y2558818D01*
X9135298Y2560040D01*
X9135565Y2562022D01*
X9137148Y2562800D01*
X9480856Y2562800D01*
X9482588Y2561800D01*
G37*
G36*
X8682588Y2561800D02*
G01*
X8682588Y2559800D01*
X8681419Y2558881D01*
X8614407Y2539205D01*
X8569052Y2486862D01*
X8559195Y2418309D01*
X8582535Y2367203D01*
X8582345Y2365212D01*
X8581827Y2364709D01*
X8581584Y2364546D01*
X8590801Y2350752D01*
X8590932Y2348756D01*
X8589269Y2347645D01*
X8588027Y2347978D01*
X8577355Y2355109D01*
X8558801Y2358800D01*
X8459199Y2358800D01*
X8440645Y2355109D01*
X8429973Y2347978D01*
X8427977Y2347847D01*
X8426866Y2349510D01*
X8427199Y2350752D01*
X8436416Y2364546D01*
X8434978Y2365507D01*
X8434093Y2367301D01*
X8434554Y2368453D01*
X8449838Y2386739D01*
X8458474Y2455454D01*
X8428586Y2517933D01*
X8369530Y2554419D01*
X8337007Y2558800D01*
X8281147Y2558800D01*
X8214408Y2539204D01*
X8169053Y2486861D01*
X8159196Y2418308D01*
X8182535Y2367203D01*
X8182345Y2365212D01*
X8181827Y2364709D01*
X8181584Y2364546D01*
X8190801Y2350752D01*
X8190932Y2348756D01*
X8189269Y2347645D01*
X8188027Y2347978D01*
X8177355Y2355109D01*
X8158801Y2358800D01*
X8059199Y2358800D01*
X8040645Y2355109D01*
X8029973Y2347978D01*
X8027977Y2347847D01*
X8026866Y2349510D01*
X8027199Y2350752D01*
X8036416Y2364546D01*
X8034978Y2365507D01*
X8034093Y2367301D01*
X8034554Y2368453D01*
X8049838Y2386739D01*
X8058474Y2455454D01*
X8028586Y2517933D01*
X7969530Y2554419D01*
X7937007Y2558800D01*
X7881147Y2558800D01*
X7814408Y2539204D01*
X7769053Y2486861D01*
X7759196Y2418308D01*
X7782535Y2367203D01*
X7782345Y2365212D01*
X7781827Y2364709D01*
X7781584Y2364546D01*
X7790801Y2350752D01*
X7790932Y2348756D01*
X7789269Y2347645D01*
X7788027Y2347978D01*
X7777355Y2355109D01*
X7758801Y2358800D01*
X7659199Y2358800D01*
X7640645Y2355109D01*
X7629973Y2347978D01*
X7627977Y2347847D01*
X7626866Y2349510D01*
X7627199Y2350752D01*
X7636416Y2364546D01*
X7634978Y2365507D01*
X7634093Y2367301D01*
X7634554Y2368453D01*
X7649838Y2386739D01*
X7658474Y2455454D01*
X7628586Y2517933D01*
X7569530Y2554419D01*
X7537007Y2558800D01*
X7481147Y2558800D01*
X7414408Y2539204D01*
X7369053Y2486861D01*
X7359196Y2418308D01*
X7382535Y2367203D01*
X7382345Y2365212D01*
X7381827Y2364709D01*
X7381584Y2364546D01*
X7390801Y2350752D01*
X7390932Y2348756D01*
X7389269Y2347645D01*
X7388027Y2347978D01*
X7377355Y2355109D01*
X7358801Y2358800D01*
X7259199Y2358800D01*
X7240645Y2355109D01*
X7232293Y2349529D01*
X7230297Y2349398D01*
X7229186Y2351061D01*
X7229647Y2352475D01*
X7268973Y2399531D01*
X7277604Y2468247D01*
X7247640Y2530876D01*
X7224498Y2550927D01*
X7212211Y2559137D01*
X7211326Y2560931D01*
X7212437Y2562594D01*
X7213322Y2562800D01*
X8680856Y2562800D01*
X8682588Y2561800D01*
G37*
G36*
X9082588Y2561800D02*
G01*
X9082588Y2559800D01*
X9081419Y2558881D01*
X9014407Y2539205D01*
X8969052Y2486862D01*
X8959195Y2418309D01*
X8982535Y2367203D01*
X8982345Y2365212D01*
X8981827Y2364709D01*
X8981584Y2364546D01*
X8990801Y2350752D01*
X8990932Y2348756D01*
X8989269Y2347645D01*
X8988027Y2347978D01*
X8977355Y2355109D01*
X8958801Y2358800D01*
X8859199Y2358800D01*
X8840645Y2355109D01*
X8829973Y2347978D01*
X8827977Y2347847D01*
X8826866Y2349510D01*
X8827199Y2350752D01*
X8836416Y2364546D01*
X8834977Y2365508D01*
X8834092Y2367302D01*
X8834553Y2368453D01*
X8849845Y2386752D01*
X8858472Y2455470D01*
X8828578Y2517943D01*
X8769514Y2554424D01*
X8736881Y2558818D01*
X8735298Y2560040D01*
X8735565Y2562022D01*
X8737148Y2562800D01*
X9080856Y2562800D01*
X9082588Y2561800D01*
G37*
G36*
X9806410Y2561800D02*
G01*
X9806410Y2559800D01*
X9805789Y2559137D01*
X9793635Y2551016D01*
X9749027Y2497640D01*
X9740395Y2428925D01*
X9770360Y2366294D01*
X9779321Y2358529D01*
X9779975Y2356639D01*
X9778665Y2355128D01*
X9777621Y2355056D01*
X9758801Y2358800D01*
X9659199Y2358800D01*
X9640645Y2355109D01*
X9629973Y2347978D01*
X9627977Y2347847D01*
X9626866Y2349510D01*
X9627199Y2350752D01*
X9636416Y2364546D01*
X9634977Y2365508D01*
X9634092Y2367302D01*
X9634553Y2368453D01*
X9649845Y2386752D01*
X9658472Y2455470D01*
X9628578Y2517943D01*
X9569514Y2554424D01*
X9536881Y2558818D01*
X9535298Y2560040D01*
X9535565Y2562022D01*
X9537148Y2562800D01*
X9804678Y2562800D01*
X9806410Y2561800D01*
G37*
G36*
X9810919Y2833222D02*
G01*
X9830596Y2766208D01*
X9882939Y2720853D01*
X9951492Y2710996D01*
X10002597Y2734335D01*
X10004588Y2734145D01*
X10005091Y2733627D01*
X10005254Y2733384D01*
X10019048Y2742601D01*
X10021044Y2742732D01*
X10022155Y2741069D01*
X10021822Y2739827D01*
X10014691Y2729155D01*
X10011000Y2710601D01*
X10011000Y2610999D01*
X10014691Y2592445D01*
X10020271Y2584093D01*
X10020402Y2582097D01*
X10018739Y2580986D01*
X10017325Y2581447D01*
X9970269Y2620773D01*
X9901553Y2629404D01*
X9838924Y2599440D01*
X9818873Y2576298D01*
X9810663Y2564011D01*
X9808869Y2563126D01*
X9807206Y2564237D01*
X9807000Y2565122D01*
X9807000Y2832659D01*
X9808000Y2834391D01*
X9810000Y2834391D01*
X9810919Y2833222D01*
G37*
G36*
X7210222Y2834235D02*
G01*
X7211000Y2832652D01*
X7211000Y2565122D01*
X7210000Y2563390D01*
X7208000Y2563390D01*
X7207337Y2564011D01*
X7199216Y2576165D01*
X7145840Y2620773D01*
X7077125Y2629405D01*
X7014494Y2599440D01*
X7006729Y2590479D01*
X7004839Y2589825D01*
X7003328Y2591135D01*
X7003256Y2592179D01*
X7007000Y2610999D01*
X7007000Y2710601D01*
X7003309Y2729155D01*
X6996178Y2739827D01*
X6996047Y2741823D01*
X6997710Y2742934D01*
X6998952Y2742601D01*
X7012746Y2733384D01*
X7013708Y2734823D01*
X7015502Y2735708D01*
X7016653Y2735247D01*
X7034952Y2719955D01*
X7103670Y2711328D01*
X7166143Y2741222D01*
X7202624Y2800286D01*
X7207018Y2832919D01*
X7208240Y2834502D01*
X7210222Y2834235D01*
G37*
G36*
X6974554Y2964914D02*
G01*
X6974944Y2962952D01*
X6974585Y2962312D01*
X6930746Y2909856D01*
X6922113Y2841140D01*
X6952078Y2778510D01*
X6973889Y2759610D01*
X6974543Y2757720D01*
X6973233Y2756209D01*
X6972189Y2756137D01*
X6958801Y2758800D01*
X6184199Y2758800D01*
X6170340Y2756043D01*
X6168446Y2756686D01*
X6168056Y2758648D01*
X6168415Y2759288D01*
X6212254Y2811744D01*
X6220887Y2880460D01*
X6190922Y2943090D01*
X6169111Y2961990D01*
X6168457Y2963880D01*
X6169767Y2965391D01*
X6170811Y2965463D01*
X6184199Y2962800D01*
X6958801Y2962800D01*
X6972660Y2965557D01*
X6974554Y2964914D01*
G37*
G36*
X10849554Y2964914D02*
G01*
X10849944Y2962952D01*
X10849585Y2962312D01*
X10805746Y2909856D01*
X10797113Y2841140D01*
X10827078Y2778510D01*
X10848889Y2759610D01*
X10849543Y2757720D01*
X10848233Y2756209D01*
X10847189Y2756137D01*
X10833801Y2758800D01*
X10059199Y2758800D01*
X10045340Y2756043D01*
X10043446Y2756686D01*
X10043056Y2758648D01*
X10043415Y2759288D01*
X10087254Y2811744D01*
X10095887Y2880460D01*
X10065922Y2943090D01*
X10044111Y2961990D01*
X10043457Y2963880D01*
X10044767Y2965391D01*
X10045811Y2965463D01*
X10059199Y2962800D01*
X10833801Y2962800D01*
X10847660Y2965557D01*
X10849554Y2964914D01*
G37*
G36*
X9810919Y3233222D02*
G01*
X9830596Y3166208D01*
X9882939Y3120853D01*
X9951492Y3110996D01*
X10002597Y3134335D01*
X10004588Y3134145D01*
X10005091Y3133627D01*
X10005254Y3133384D01*
X10019048Y3142601D01*
X10021044Y3142732D01*
X10022155Y3141069D01*
X10021822Y3139827D01*
X10014691Y3129155D01*
X10011000Y3110601D01*
X10011000Y3010999D01*
X10014691Y2992445D01*
X10021822Y2981773D01*
X10021953Y2979777D01*
X10020290Y2978666D01*
X10019048Y2978999D01*
X10005254Y2988216D01*
X10004293Y2986778D01*
X10002499Y2985893D01*
X10001347Y2986354D01*
X9983061Y3001638D01*
X9914346Y3010274D01*
X9851867Y2980386D01*
X9815381Y2921330D01*
X9810982Y2888674D01*
X9809760Y2887091D01*
X9807778Y2887358D01*
X9807000Y2888941D01*
X9807000Y3232659D01*
X9808000Y3234391D01*
X9810000Y3234391D01*
X9810919Y3233222D01*
G37*
G36*
X7210222Y3234235D02*
G01*
X7211000Y3232652D01*
X7211000Y2888944D01*
X7210000Y2887212D01*
X7208000Y2887212D01*
X7207081Y2888381D01*
X7187405Y2955393D01*
X7135062Y3000748D01*
X7066509Y3010605D01*
X7015403Y2987265D01*
X7013412Y2987455D01*
X7012909Y2987973D01*
X7012746Y2988216D01*
X6998952Y2978999D01*
X6996956Y2978868D01*
X6995845Y2980531D01*
X6996178Y2981773D01*
X7003309Y2992445D01*
X7007000Y3010999D01*
X7007000Y3110601D01*
X7003309Y3129155D01*
X6996178Y3139827D01*
X6996047Y3141823D01*
X6997710Y3142934D01*
X6998952Y3142601D01*
X7012746Y3133384D01*
X7013708Y3134823D01*
X7015502Y3135708D01*
X7016653Y3135247D01*
X7034952Y3119955D01*
X7103670Y3111328D01*
X7166143Y3141222D01*
X7202624Y3200286D01*
X7207018Y3232919D01*
X7208240Y3234502D01*
X7210222Y3234235D01*
G37*
G36*
X14460270Y3241624D02*
G01*
X14459809Y3240210D01*
X14420484Y3193155D01*
X14411852Y3124440D01*
X14441817Y3061809D01*
X14450486Y3054297D01*
X14451140Y3052407D01*
X14449830Y3050896D01*
X14448065Y3051123D01*
X14427167Y3065087D01*
X14371301Y3076200D01*
X14076699Y3076200D01*
X14020833Y3065087D01*
X13990837Y3045044D01*
X13988841Y3044913D01*
X13987730Y3046576D01*
X13988191Y3047990D01*
X14027516Y3095045D01*
X14036148Y3163760D01*
X14006183Y3226391D01*
X13997514Y3233903D01*
X13996860Y3235793D01*
X13998170Y3237304D01*
X13999935Y3237077D01*
X14020833Y3223113D01*
X14076699Y3212000D01*
X14371301Y3212000D01*
X14427167Y3223113D01*
X14457163Y3243156D01*
X14459159Y3243287D01*
X14460270Y3241624D01*
G37*
G36*
X13490270Y3241624D02*
G01*
X13489809Y3240210D01*
X13450484Y3193155D01*
X13441852Y3124440D01*
X13471817Y3061809D01*
X13480486Y3054297D01*
X13481140Y3052407D01*
X13479830Y3050896D01*
X13478065Y3051123D01*
X13457167Y3065087D01*
X13401301Y3076200D01*
X13106699Y3076200D01*
X13050833Y3065087D01*
X13020837Y3045044D01*
X13018841Y3044913D01*
X13017730Y3046576D01*
X13018191Y3047990D01*
X13057516Y3095045D01*
X13066148Y3163760D01*
X13036183Y3226391D01*
X13027514Y3233903D01*
X13026860Y3235793D01*
X13028170Y3237304D01*
X13029935Y3237077D01*
X13050833Y3223113D01*
X13106699Y3212000D01*
X13401301Y3212000D01*
X13457167Y3223113D01*
X13487163Y3243156D01*
X13489159Y3243287D01*
X13490270Y3241624D01*
G37*
G36*
X6974554Y3364914D02*
G01*
X6974944Y3362952D01*
X6974585Y3362312D01*
X6930746Y3309856D01*
X6922113Y3241140D01*
X6952078Y3178510D01*
X6973889Y3159610D01*
X6974543Y3157720D01*
X6973233Y3156209D01*
X6972189Y3156137D01*
X6958801Y3158800D01*
X6184199Y3158800D01*
X6170340Y3156043D01*
X6168446Y3156686D01*
X6168056Y3158648D01*
X6168415Y3159288D01*
X6212254Y3211744D01*
X6220887Y3280460D01*
X6190922Y3343090D01*
X6169111Y3361990D01*
X6168457Y3363880D01*
X6169767Y3365391D01*
X6170811Y3365463D01*
X6184199Y3362800D01*
X6958801Y3362800D01*
X6972660Y3365557D01*
X6974554Y3364914D01*
G37*
G36*
X10849554Y3364914D02*
G01*
X10849944Y3362952D01*
X10849585Y3362312D01*
X10805746Y3309856D01*
X10797113Y3241140D01*
X10827078Y3178510D01*
X10848889Y3159610D01*
X10849543Y3157720D01*
X10848233Y3156209D01*
X10847189Y3156137D01*
X10833801Y3158800D01*
X10059199Y3158800D01*
X10045340Y3156043D01*
X10043446Y3156686D01*
X10043056Y3158648D01*
X10043415Y3159288D01*
X10087254Y3211744D01*
X10095887Y3280460D01*
X10065922Y3343090D01*
X10044111Y3361990D01*
X10043457Y3363880D01*
X10044767Y3365391D01*
X10045811Y3365463D01*
X10059199Y3362800D01*
X10833801Y3362800D01*
X10847660Y3365557D01*
X10849554Y3364914D01*
G37*
G36*
X9810919Y3633222D02*
G01*
X9830596Y3566208D01*
X9882939Y3520853D01*
X9951492Y3510996D01*
X10002597Y3534335D01*
X10004588Y3534145D01*
X10005091Y3533627D01*
X10005254Y3533384D01*
X10019048Y3542601D01*
X10021044Y3542732D01*
X10022155Y3541069D01*
X10021822Y3539827D01*
X10014691Y3529155D01*
X10011000Y3510601D01*
X10011000Y3410999D01*
X10014691Y3392445D01*
X10021822Y3381773D01*
X10021953Y3379777D01*
X10020290Y3378666D01*
X10019048Y3378999D01*
X10005254Y3388216D01*
X10004293Y3386778D01*
X10002499Y3385893D01*
X10001347Y3386354D01*
X9983061Y3401638D01*
X9914346Y3410274D01*
X9851867Y3380386D01*
X9815381Y3321330D01*
X9810982Y3288674D01*
X9809760Y3287091D01*
X9807778Y3287358D01*
X9807000Y3288941D01*
X9807000Y3632659D01*
X9808000Y3634391D01*
X9810000Y3634391D01*
X9810919Y3633222D01*
G37*
G36*
X7210222Y3634235D02*
G01*
X7211000Y3632652D01*
X7211000Y3288944D01*
X7210000Y3287212D01*
X7208000Y3287212D01*
X7207081Y3288381D01*
X7187405Y3355393D01*
X7135062Y3400748D01*
X7066509Y3410605D01*
X7015403Y3387265D01*
X7013412Y3387455D01*
X7012909Y3387973D01*
X7012746Y3388216D01*
X6998952Y3378999D01*
X6996956Y3378868D01*
X6995845Y3380531D01*
X6996178Y3381773D01*
X7003309Y3392445D01*
X7007000Y3410999D01*
X7007000Y3510601D01*
X7003309Y3529155D01*
X6996178Y3539827D01*
X6996047Y3541823D01*
X6997710Y3542934D01*
X6998952Y3542601D01*
X7012746Y3533384D01*
X7013708Y3534823D01*
X7015502Y3535708D01*
X7016653Y3535247D01*
X7034952Y3519955D01*
X7103670Y3511328D01*
X7166143Y3541222D01*
X7202624Y3600286D01*
X7207018Y3632919D01*
X7208240Y3634502D01*
X7210222Y3634235D01*
G37*
G36*
X6974554Y3764914D02*
G01*
X6974944Y3762952D01*
X6974585Y3762312D01*
X6930746Y3709856D01*
X6922113Y3641140D01*
X6952078Y3578510D01*
X6973889Y3559610D01*
X6974543Y3557720D01*
X6973233Y3556209D01*
X6972189Y3556137D01*
X6958801Y3558800D01*
X6184199Y3558800D01*
X6170340Y3556043D01*
X6168446Y3556686D01*
X6168056Y3558648D01*
X6168415Y3559288D01*
X6212254Y3611744D01*
X6220887Y3680460D01*
X6190922Y3743090D01*
X6169111Y3761990D01*
X6168457Y3763880D01*
X6169767Y3765391D01*
X6170811Y3765463D01*
X6184199Y3762800D01*
X6958801Y3762800D01*
X6972660Y3765557D01*
X6974554Y3764914D01*
G37*
G36*
X10849554Y3764914D02*
G01*
X10849944Y3762952D01*
X10849585Y3762312D01*
X10805746Y3709856D01*
X10797113Y3641140D01*
X10827078Y3578510D01*
X10848889Y3559610D01*
X10849543Y3557720D01*
X10848233Y3556209D01*
X10847189Y3556137D01*
X10833801Y3558800D01*
X10059199Y3558800D01*
X10045340Y3556043D01*
X10043446Y3556686D01*
X10043056Y3558648D01*
X10043415Y3559288D01*
X10087254Y3611744D01*
X10095887Y3680460D01*
X10065922Y3743090D01*
X10044111Y3761990D01*
X10043457Y3763880D01*
X10044767Y3765391D01*
X10045811Y3765463D01*
X10059199Y3762800D01*
X10833801Y3762800D01*
X10847660Y3765557D01*
X10849554Y3764914D01*
G37*
G36*
X9810919Y4033219D02*
G01*
X9830595Y3966207D01*
X9882938Y3920852D01*
X9951491Y3910995D01*
X10002597Y3934335D01*
X10004588Y3934145D01*
X10005091Y3933627D01*
X10005254Y3933384D01*
X10019048Y3942601D01*
X10021044Y3942732D01*
X10022155Y3941069D01*
X10021822Y3939827D01*
X10014691Y3929155D01*
X10011000Y3910601D01*
X10011000Y3810999D01*
X10014691Y3792445D01*
X10021822Y3781773D01*
X10021953Y3779777D01*
X10020290Y3778666D01*
X10019048Y3778999D01*
X10005254Y3788216D01*
X10004293Y3786778D01*
X10002499Y3785893D01*
X10001347Y3786354D01*
X9983061Y3801638D01*
X9914346Y3810274D01*
X9851867Y3780386D01*
X9815381Y3721330D01*
X9810982Y3688674D01*
X9809760Y3687091D01*
X9807778Y3687358D01*
X9807000Y3688941D01*
X9807000Y4032656D01*
X9808000Y4034388D01*
X9810000Y4034388D01*
X9810919Y4033219D01*
G37*
G36*
X7210222Y4034242D02*
G01*
X7211000Y4032659D01*
X7211000Y3688944D01*
X7210000Y3687212D01*
X7208000Y3687212D01*
X7207081Y3688381D01*
X7187405Y3755393D01*
X7135062Y3800748D01*
X7066509Y3810605D01*
X7015403Y3787265D01*
X7013412Y3787455D01*
X7012909Y3787973D01*
X7012746Y3788216D01*
X6998952Y3778999D01*
X6996956Y3778868D01*
X6995845Y3780531D01*
X6996178Y3781773D01*
X7003309Y3792445D01*
X7007000Y3810999D01*
X7007000Y3910601D01*
X7003309Y3929155D01*
X6996178Y3939827D01*
X6996047Y3941823D01*
X6997710Y3942934D01*
X6998952Y3942601D01*
X7012746Y3933384D01*
X7013707Y3934822D01*
X7015501Y3935707D01*
X7016653Y3935246D01*
X7034939Y3919962D01*
X7103654Y3911326D01*
X7166133Y3941214D01*
X7202619Y4000270D01*
X7207018Y4032926D01*
X7208240Y4034509D01*
X7210222Y4034242D01*
G37*
G36*
X13478147Y4021523D02*
G01*
X13477686Y4020109D01*
X13438362Y3973054D01*
X13429731Y3904339D01*
X13459695Y3841709D01*
X13468364Y3834197D01*
X13469018Y3832307D01*
X13467708Y3830796D01*
X13465943Y3831023D01*
X13457167Y3836887D01*
X13401301Y3848000D01*
X13106699Y3848000D01*
X13050833Y3836887D01*
X13032960Y3824945D01*
X13030964Y3824814D01*
X13029853Y3826477D01*
X13030314Y3827891D01*
X13069638Y3874946D01*
X13078269Y3943661D01*
X13048305Y4006291D01*
X13039636Y4013803D01*
X13038982Y4015693D01*
X13040292Y4017204D01*
X13042057Y4016977D01*
X13050833Y4011113D01*
X13106699Y4000000D01*
X13401301Y4000000D01*
X13457167Y4011113D01*
X13475040Y4023055D01*
X13477036Y4023186D01*
X13478147Y4021523D01*
G37*
G36*
X14448147Y4021523D02*
G01*
X14447686Y4020109D01*
X14408362Y3973054D01*
X14399731Y3904339D01*
X14429695Y3841709D01*
X14438364Y3834197D01*
X14439018Y3832307D01*
X14437708Y3830796D01*
X14435943Y3831023D01*
X14427167Y3836887D01*
X14371301Y3848000D01*
X14076699Y3848000D01*
X14020833Y3836887D01*
X14002960Y3824945D01*
X14000964Y3824814D01*
X13999853Y3826477D01*
X14000314Y3827891D01*
X14039638Y3874946D01*
X14048269Y3943661D01*
X14018305Y4006291D01*
X14009636Y4013803D01*
X14008982Y4015693D01*
X14010292Y4017204D01*
X14012057Y4016977D01*
X14020833Y4011113D01*
X14076699Y4000000D01*
X14371301Y4000000D01*
X14427167Y4011113D01*
X14445040Y4023055D01*
X14447036Y4023186D01*
X14448147Y4021523D01*
G37*
G36*
X10849554Y4164914D02*
G01*
X10849944Y4162952D01*
X10849585Y4162312D01*
X10805746Y4109856D01*
X10797113Y4041140D01*
X10827078Y3978510D01*
X10848889Y3959610D01*
X10849543Y3957720D01*
X10848233Y3956209D01*
X10847189Y3956137D01*
X10833801Y3958800D01*
X10059199Y3958800D01*
X10045340Y3956043D01*
X10043446Y3956686D01*
X10043056Y3958648D01*
X10043415Y3959288D01*
X10087254Y4011744D01*
X10095887Y4080460D01*
X10065922Y4143090D01*
X10044111Y4161990D01*
X10043457Y4163880D01*
X10044767Y4165391D01*
X10045811Y4165463D01*
X10059199Y4162800D01*
X10833801Y4162800D01*
X10847660Y4165557D01*
X10849554Y4164914D01*
G37*
G36*
X6974554Y4164914D02*
G01*
X6974944Y4162952D01*
X6974585Y4162312D01*
X6930746Y4109856D01*
X6922113Y4041140D01*
X6952078Y3978510D01*
X6973889Y3959610D01*
X6974543Y3957720D01*
X6973233Y3956209D01*
X6972189Y3956137D01*
X6958801Y3958800D01*
X6184199Y3958800D01*
X6170340Y3956043D01*
X6168446Y3956686D01*
X6168056Y3958648D01*
X6168415Y3959288D01*
X6212254Y4011744D01*
X6220887Y4080460D01*
X6190922Y4143090D01*
X6169111Y4161990D01*
X6168457Y4163880D01*
X6169767Y4165391D01*
X6170811Y4165463D01*
X6184199Y4162800D01*
X6958801Y4162800D01*
X6972660Y4165557D01*
X6974554Y4164914D01*
G37*
G36*
X9810919Y4433219D02*
G01*
X9830595Y4366207D01*
X9882938Y4320852D01*
X9951491Y4310995D01*
X10002597Y4334335D01*
X10004588Y4334145D01*
X10005091Y4333627D01*
X10005254Y4333384D01*
X10019048Y4342601D01*
X10021044Y4342732D01*
X10022155Y4341069D01*
X10021822Y4339827D01*
X10014691Y4329155D01*
X10011000Y4310601D01*
X10011000Y4210999D01*
X10014691Y4192445D01*
X10021822Y4181773D01*
X10021953Y4179777D01*
X10020290Y4178666D01*
X10019048Y4178999D01*
X10005254Y4188216D01*
X10004292Y4186777D01*
X10002498Y4185892D01*
X10001347Y4186353D01*
X9983048Y4201645D01*
X9914330Y4210272D01*
X9851857Y4180378D01*
X9815376Y4121314D01*
X9810982Y4088681D01*
X9809760Y4087098D01*
X9807778Y4087365D01*
X9807000Y4088948D01*
X9807000Y4432656D01*
X9808000Y4434388D01*
X9810000Y4434388D01*
X9810919Y4433219D01*
G37*
G36*
X7210222Y4434242D02*
G01*
X7211000Y4432659D01*
X7211000Y4088941D01*
X7210000Y4087209D01*
X7208000Y4087209D01*
X7207081Y4088378D01*
X7187404Y4155392D01*
X7135061Y4200747D01*
X7066508Y4210604D01*
X7015403Y4187265D01*
X7013412Y4187455D01*
X7012909Y4187973D01*
X7012746Y4188216D01*
X6998952Y4178999D01*
X6996956Y4178868D01*
X6995845Y4180531D01*
X6996178Y4181773D01*
X7003309Y4192445D01*
X7007000Y4210999D01*
X7007000Y4310601D01*
X7003309Y4329155D01*
X6996178Y4339827D01*
X6996047Y4341823D01*
X6997710Y4342934D01*
X6998952Y4342601D01*
X7012746Y4333384D01*
X7013707Y4334822D01*
X7015501Y4335707D01*
X7016653Y4335246D01*
X7034939Y4319962D01*
X7103654Y4311326D01*
X7166133Y4341214D01*
X7202619Y4400270D01*
X7207018Y4432926D01*
X7208240Y4434509D01*
X7210222Y4434242D01*
G37*
G36*
X6974554Y4564914D02*
G01*
X6974944Y4562952D01*
X6974585Y4562312D01*
X6930746Y4509856D01*
X6922113Y4441140D01*
X6952078Y4378510D01*
X6973889Y4359610D01*
X6974543Y4357720D01*
X6973233Y4356209D01*
X6972189Y4356137D01*
X6958801Y4358800D01*
X6184199Y4358800D01*
X6170340Y4356043D01*
X6168446Y4356686D01*
X6168056Y4358648D01*
X6168415Y4359288D01*
X6212254Y4411744D01*
X6220887Y4480460D01*
X6190922Y4543090D01*
X6169111Y4561990D01*
X6168457Y4563880D01*
X6169767Y4565391D01*
X6170811Y4565463D01*
X6184199Y4562800D01*
X6958801Y4562800D01*
X6972660Y4565557D01*
X6974554Y4564914D01*
G37*
G36*
X10849554Y4564914D02*
G01*
X10849944Y4562952D01*
X10849585Y4562312D01*
X10805746Y4509856D01*
X10797113Y4441140D01*
X10827078Y4378510D01*
X10848889Y4359610D01*
X10849543Y4357720D01*
X10848233Y4356209D01*
X10847189Y4356137D01*
X10833801Y4358800D01*
X10059199Y4358800D01*
X10045340Y4356043D01*
X10043446Y4356686D01*
X10043056Y4358648D01*
X10043415Y4359288D01*
X10087254Y4411744D01*
X10095887Y4480460D01*
X10065922Y4543090D01*
X10044111Y4561990D01*
X10043457Y4563880D01*
X10044767Y4565391D01*
X10045811Y4565463D01*
X10059199Y4562800D01*
X10833801Y4562800D01*
X10847660Y4565557D01*
X10849554Y4564914D01*
G37*
G36*
X9810919Y4833219D02*
G01*
X9830595Y4766207D01*
X9882938Y4720852D01*
X9951491Y4710995D01*
X10002597Y4734335D01*
X10004588Y4734145D01*
X10005091Y4733627D01*
X10005254Y4733384D01*
X10019048Y4742601D01*
X10021044Y4742732D01*
X10022155Y4741069D01*
X10021822Y4739827D01*
X10014691Y4729155D01*
X10011000Y4710601D01*
X10011000Y4610999D01*
X10014691Y4592445D01*
X10021822Y4581773D01*
X10021953Y4579777D01*
X10020290Y4578666D01*
X10019048Y4578999D01*
X10005254Y4588216D01*
X10004292Y4586777D01*
X10002498Y4585892D01*
X10001347Y4586353D01*
X9983048Y4601645D01*
X9914330Y4610272D01*
X9851857Y4580378D01*
X9815376Y4521314D01*
X9810982Y4488681D01*
X9809760Y4487098D01*
X9807778Y4487365D01*
X9807000Y4488948D01*
X9807000Y4832656D01*
X9808000Y4834388D01*
X9810000Y4834388D01*
X9810919Y4833219D01*
G37*
G36*
X7210222Y4834242D02*
G01*
X7211000Y4832659D01*
X7211000Y4488941D01*
X7210000Y4487209D01*
X7208000Y4487209D01*
X7207081Y4488378D01*
X7187404Y4555392D01*
X7135061Y4600747D01*
X7066508Y4610604D01*
X7015403Y4587265D01*
X7013412Y4587455D01*
X7012909Y4587973D01*
X7012746Y4588216D01*
X6998952Y4578999D01*
X6996956Y4578868D01*
X6995845Y4580531D01*
X6996178Y4581773D01*
X7003309Y4592445D01*
X7007000Y4610999D01*
X7007000Y4710601D01*
X7003309Y4729155D01*
X6996178Y4739827D01*
X6996047Y4741823D01*
X6997710Y4742934D01*
X6998952Y4742601D01*
X7012746Y4733384D01*
X7013707Y4734822D01*
X7015501Y4735707D01*
X7016653Y4735246D01*
X7034939Y4719962D01*
X7103654Y4711326D01*
X7166133Y4741214D01*
X7202619Y4800270D01*
X7207018Y4832926D01*
X7208240Y4834509D01*
X7210222Y4834242D01*
G37*
G36*
X13437417Y4869764D02*
G01*
X13437807Y4867802D01*
X13436840Y4866673D01*
X13382506Y4838252D01*
X13348233Y4778067D01*
X13351941Y4708909D01*
X13392483Y4652685D01*
X13434798Y4633361D01*
X13435958Y4631732D01*
X13435127Y4629913D01*
X13433577Y4629580D01*
X13401301Y4636000D01*
X13106699Y4636000D01*
X13072477Y4629193D01*
X13070583Y4629836D01*
X13070193Y4631798D01*
X13071160Y4632927D01*
X13125494Y4661348D01*
X13159767Y4721533D01*
X13156059Y4790691D01*
X13115517Y4846915D01*
X13073202Y4866239D01*
X13072042Y4867868D01*
X13072873Y4869687D01*
X13074423Y4870020D01*
X13106699Y4863600D01*
X13401301Y4863600D01*
X13435523Y4870407D01*
X13437417Y4869764D01*
G37*
G36*
X14407417Y4869764D02*
G01*
X14407807Y4867802D01*
X14406840Y4866673D01*
X14352506Y4838252D01*
X14318233Y4778067D01*
X14321941Y4708909D01*
X14362483Y4652685D01*
X14404798Y4633361D01*
X14405958Y4631732D01*
X14405127Y4629913D01*
X14403577Y4629580D01*
X14371301Y4636000D01*
X14076699Y4636000D01*
X14042477Y4629193D01*
X14040583Y4629836D01*
X14040193Y4631798D01*
X14041160Y4632927D01*
X14095494Y4661348D01*
X14129767Y4721533D01*
X14126059Y4790691D01*
X14085517Y4846915D01*
X14043202Y4866239D01*
X14042042Y4867868D01*
X14042873Y4869687D01*
X14044423Y4870020D01*
X14076699Y4863600D01*
X14371301Y4863600D01*
X14405523Y4870407D01*
X14407417Y4869764D01*
G37*
G36*
X6974554Y4964914D02*
G01*
X6974944Y4962952D01*
X6974585Y4962312D01*
X6930746Y4909856D01*
X6922113Y4841140D01*
X6952078Y4778510D01*
X6973889Y4759610D01*
X6974543Y4757720D01*
X6973233Y4756209D01*
X6972189Y4756137D01*
X6958801Y4758800D01*
X6184199Y4758800D01*
X6170340Y4756043D01*
X6168446Y4756686D01*
X6168056Y4758648D01*
X6168415Y4759288D01*
X6212254Y4811744D01*
X6220887Y4880460D01*
X6190922Y4943090D01*
X6169111Y4961990D01*
X6168457Y4963880D01*
X6169767Y4965391D01*
X6170811Y4965463D01*
X6184199Y4962800D01*
X6958801Y4962800D01*
X6972660Y4965557D01*
X6974554Y4964914D01*
G37*
G36*
X10849554Y4964914D02*
G01*
X10849944Y4962952D01*
X10849585Y4962312D01*
X10805746Y4909856D01*
X10797113Y4841140D01*
X10827078Y4778510D01*
X10848889Y4759610D01*
X10849543Y4757720D01*
X10848233Y4756209D01*
X10847189Y4756137D01*
X10833801Y4758800D01*
X10059199Y4758800D01*
X10045340Y4756043D01*
X10043446Y4756686D01*
X10043056Y4758648D01*
X10043415Y4759288D01*
X10087254Y4811744D01*
X10095887Y4880460D01*
X10065922Y4943090D01*
X10044111Y4961990D01*
X10043457Y4963880D01*
X10044767Y4965391D01*
X10045811Y4965463D01*
X10059199Y4962800D01*
X10833801Y4962800D01*
X10847660Y4965557D01*
X10849554Y4964914D01*
G37*
G36*
X9810663Y5157589D02*
G01*
X9818784Y5145435D01*
X9872160Y5100827D01*
X9940875Y5092195D01*
X10003506Y5122160D01*
X10011271Y5131121D01*
X10013161Y5131775D01*
X10014672Y5130465D01*
X10014744Y5129421D01*
X10011000Y5110601D01*
X10011000Y5010999D01*
X10014691Y4992445D01*
X10021822Y4981773D01*
X10021953Y4979777D01*
X10020290Y4978666D01*
X10019048Y4978999D01*
X10005254Y4988216D01*
X10004292Y4986777D01*
X10002498Y4985892D01*
X10001347Y4986353D01*
X9983048Y5001645D01*
X9914330Y5010272D01*
X9851857Y4980378D01*
X9815376Y4921314D01*
X9810982Y4888681D01*
X9809760Y4887098D01*
X9807778Y4887365D01*
X9807000Y4888948D01*
X9807000Y5156478D01*
X9808000Y5158210D01*
X9810000Y5158210D01*
X9810663Y5157589D01*
G37*
G36*
X7210794Y5157363D02*
G01*
X7211000Y5156478D01*
X7211000Y4888941D01*
X7210000Y4887209D01*
X7208000Y4887209D01*
X7207081Y4888378D01*
X7187404Y4955392D01*
X7135061Y5000747D01*
X7066508Y5010604D01*
X7015403Y4987265D01*
X7013412Y4987455D01*
X7012909Y4987973D01*
X7012746Y4988216D01*
X6998952Y4978999D01*
X6996956Y4978868D01*
X6995845Y4980531D01*
X6996178Y4981773D01*
X7003309Y4992445D01*
X7007000Y5010999D01*
X7007000Y5110601D01*
X7003309Y5129155D01*
X6997729Y5137507D01*
X6997598Y5139503D01*
X6999261Y5140614D01*
X7000675Y5140153D01*
X7047731Y5100827D01*
X7116447Y5092196D01*
X7179076Y5122160D01*
X7199127Y5145302D01*
X7207337Y5157589D01*
X7209131Y5158474D01*
X7210794Y5157363D01*
G37*
G36*
X11108422Y5199521D02*
G01*
X11109200Y5197938D01*
X11109200Y4996799D01*
X11113989Y4972724D01*
X11113346Y4970830D01*
X11111384Y4970440D01*
X11110255Y4971407D01*
X11081832Y5025742D01*
X11021648Y5060015D01*
X10952490Y5056307D01*
X10896100Y5015645D01*
X10891092Y5008699D01*
X10883081Y4996710D01*
X10881287Y4995825D01*
X10879624Y4996936D01*
X10879456Y4998211D01*
X10882000Y5010999D01*
X10882000Y5110601D01*
X10878960Y5125885D01*
X10879603Y5127779D01*
X10881565Y5128169D01*
X10882205Y5127810D01*
X10933145Y5085238D01*
X11001860Y5076605D01*
X11064336Y5106495D01*
X11100821Y5165557D01*
X11105218Y5198205D01*
X11106440Y5199788D01*
X11108422Y5199521D01*
G37*
G36*
X7629973Y5373622D02*
G01*
X7640645Y5366491D01*
X7659199Y5362800D01*
X7758801Y5362800D01*
X7777355Y5366491D01*
X7788027Y5373622D01*
X7790023Y5373753D01*
X7791134Y5372090D01*
X7790801Y5370848D01*
X7781584Y5357054D01*
X7783023Y5356092D01*
X7783908Y5354298D01*
X7783447Y5353147D01*
X7768155Y5334848D01*
X7759528Y5266130D01*
X7789422Y5203657D01*
X7848486Y5167176D01*
X7881119Y5162782D01*
X7882702Y5161560D01*
X7882435Y5159578D01*
X7880852Y5158800D01*
X7537144Y5158800D01*
X7535412Y5159800D01*
X7535412Y5161800D01*
X7536581Y5162719D01*
X7603593Y5182395D01*
X7648948Y5234738D01*
X7658805Y5303291D01*
X7635465Y5354397D01*
X7635655Y5356388D01*
X7636173Y5356891D01*
X7636416Y5357054D01*
X7627199Y5370848D01*
X7627068Y5372844D01*
X7628731Y5373955D01*
X7629973Y5373622D01*
G37*
G36*
X9229973Y5373622D02*
G01*
X9240645Y5366491D01*
X9259199Y5362800D01*
X9358801Y5362800D01*
X9377355Y5366491D01*
X9388027Y5373622D01*
X9390023Y5373753D01*
X9391134Y5372090D01*
X9390801Y5370848D01*
X9381584Y5357054D01*
X9383022Y5356093D01*
X9383907Y5354299D01*
X9383446Y5353147D01*
X9368162Y5334861D01*
X9359526Y5266146D01*
X9389414Y5203667D01*
X9448470Y5167181D01*
X9481127Y5162782D01*
X9482710Y5161560D01*
X9482443Y5159578D01*
X9480860Y5158800D01*
X9137140Y5158800D01*
X9135408Y5159800D01*
X9135408Y5161800D01*
X9136577Y5162719D01*
X9203592Y5182396D01*
X9248947Y5234739D01*
X9258804Y5303292D01*
X9235465Y5354397D01*
X9235655Y5356388D01*
X9236173Y5356891D01*
X9236416Y5357054D01*
X9227199Y5370848D01*
X9227068Y5372844D01*
X9228731Y5373955D01*
X9229973Y5373622D01*
G37*
G36*
X8029973Y5373622D02*
G01*
X8040645Y5366491D01*
X8059199Y5362800D01*
X8158801Y5362800D01*
X8177355Y5366491D01*
X8188027Y5373622D01*
X8190023Y5373753D01*
X8191134Y5372090D01*
X8190801Y5370848D01*
X8181584Y5357054D01*
X8183023Y5356092D01*
X8183908Y5354298D01*
X8183447Y5353147D01*
X8168155Y5334848D01*
X8159528Y5266130D01*
X8189422Y5203657D01*
X8248486Y5167176D01*
X8281119Y5162782D01*
X8282702Y5161560D01*
X8282435Y5159578D01*
X8280852Y5158800D01*
X7937144Y5158800D01*
X7935412Y5159800D01*
X7935412Y5161800D01*
X7936581Y5162719D01*
X8003593Y5182395D01*
X8048948Y5234738D01*
X8058805Y5303291D01*
X8035465Y5354397D01*
X8035655Y5356388D01*
X8036173Y5356891D01*
X8036416Y5357054D01*
X8027199Y5370848D01*
X8027068Y5372844D01*
X8028731Y5373955D01*
X8029973Y5373622D01*
G37*
G36*
X9629973Y5373622D02*
G01*
X9640645Y5366491D01*
X9659199Y5362800D01*
X9758801Y5362800D01*
X9777355Y5366491D01*
X9785707Y5372071D01*
X9787703Y5372202D01*
X9788814Y5370539D01*
X9788353Y5369125D01*
X9749027Y5322069D01*
X9740396Y5253353D01*
X9770360Y5190724D01*
X9793502Y5170673D01*
X9805789Y5162463D01*
X9806674Y5160669D01*
X9805563Y5159006D01*
X9804678Y5158800D01*
X9537140Y5158800D01*
X9535408Y5159800D01*
X9535408Y5161800D01*
X9536577Y5162719D01*
X9603592Y5182396D01*
X9648947Y5234739D01*
X9658804Y5303292D01*
X9635465Y5354397D01*
X9635655Y5356388D01*
X9636173Y5356891D01*
X9636416Y5357054D01*
X9627199Y5370848D01*
X9627068Y5372844D01*
X9628731Y5373955D01*
X9629973Y5373622D01*
G37*
G36*
X7391134Y5372090D02*
G01*
X7390801Y5370848D01*
X7381584Y5357054D01*
X7383023Y5356092D01*
X7383908Y5354298D01*
X7383447Y5353147D01*
X7368155Y5334848D01*
X7359528Y5266130D01*
X7389422Y5203657D01*
X7448486Y5167176D01*
X7481119Y5162782D01*
X7482702Y5161560D01*
X7482435Y5159578D01*
X7480852Y5158800D01*
X7213322Y5158800D01*
X7211590Y5159800D01*
X7211590Y5161800D01*
X7212211Y5162463D01*
X7224365Y5170584D01*
X7268973Y5223960D01*
X7277605Y5292675D01*
X7247640Y5355306D01*
X7238679Y5363071D01*
X7238025Y5364961D01*
X7239335Y5366472D01*
X7240379Y5366544D01*
X7259199Y5362800D01*
X7358801Y5362800D01*
X7377355Y5366491D01*
X7388027Y5373622D01*
X7390023Y5373753D01*
X7391134Y5372090D01*
G37*
G36*
X8829973Y5373622D02*
G01*
X8840645Y5366491D01*
X8859199Y5362800D01*
X8958801Y5362800D01*
X8977355Y5366491D01*
X8988027Y5373622D01*
X8990023Y5373753D01*
X8991134Y5372090D01*
X8990801Y5370848D01*
X8981584Y5357054D01*
X8983022Y5356093D01*
X8983907Y5354299D01*
X8983446Y5353147D01*
X8968162Y5334861D01*
X8959526Y5266146D01*
X8989414Y5203667D01*
X9048470Y5167181D01*
X9081127Y5162782D01*
X9082710Y5161560D01*
X9082443Y5159578D01*
X9080860Y5158800D01*
X8337144Y5158800D01*
X8335412Y5159800D01*
X8335412Y5161800D01*
X8336581Y5162719D01*
X8403593Y5182395D01*
X8448948Y5234738D01*
X8458805Y5303291D01*
X8435465Y5354397D01*
X8435655Y5356388D01*
X8436173Y5356891D01*
X8436416Y5357054D01*
X8427199Y5370848D01*
X8427068Y5372844D01*
X8428731Y5373955D01*
X8429973Y5373622D01*
X8440645Y5366491D01*
X8459199Y5362800D01*
X8558801Y5362800D01*
X8577355Y5366491D01*
X8588027Y5373622D01*
X8590023Y5373753D01*
X8591134Y5372090D01*
X8590801Y5370848D01*
X8581584Y5357054D01*
X8583022Y5356093D01*
X8583907Y5354299D01*
X8583446Y5353147D01*
X8568162Y5334861D01*
X8559526Y5266146D01*
X8589414Y5203667D01*
X8648470Y5167181D01*
X8680993Y5162800D01*
X8736853Y5162800D01*
X8803592Y5182396D01*
X8848947Y5234739D01*
X8858804Y5303292D01*
X8835465Y5354397D01*
X8835655Y5356388D01*
X8836173Y5356891D01*
X8836416Y5357054D01*
X8827199Y5370848D01*
X8827068Y5372844D01*
X8828731Y5373955D01*
X8829973Y5373622D01*
G37*
G36*
X7807488Y6201385D02*
G01*
X7859944Y6157546D01*
X7928660Y6148913D01*
X7991290Y6178878D01*
X8010190Y6200689D01*
X8012080Y6201343D01*
X8013591Y6200033D01*
X8013663Y6198989D01*
X8011000Y6185601D01*
X8011000Y5410999D01*
X8013757Y5397140D01*
X8013114Y5395246D01*
X8011152Y5394856D01*
X8010512Y5395215D01*
X7958056Y5439054D01*
X7889340Y5447687D01*
X7826710Y5417722D01*
X7807810Y5395911D01*
X7805920Y5395257D01*
X7804409Y5396567D01*
X7804337Y5397611D01*
X7807000Y5410999D01*
X7807000Y6185601D01*
X7804243Y6199460D01*
X7804886Y6201354D01*
X7806848Y6201744D01*
X7807488Y6201385D01*
G37*
G36*
X8207488Y6201385D02*
G01*
X8259944Y6157546D01*
X8328660Y6148913D01*
X8391290Y6178878D01*
X8410190Y6200689D01*
X8412080Y6201343D01*
X8413591Y6200033D01*
X8413663Y6198989D01*
X8411000Y6185601D01*
X8411000Y5410999D01*
X8413757Y5397140D01*
X8413114Y5395246D01*
X8411152Y5394856D01*
X8410512Y5395215D01*
X8358056Y5439054D01*
X8289340Y5447687D01*
X8226710Y5417722D01*
X8207810Y5395911D01*
X8205920Y5395257D01*
X8204409Y5396567D01*
X8204337Y5397611D01*
X8207000Y5410999D01*
X8207000Y6185601D01*
X8204243Y6199460D01*
X8204886Y6201354D01*
X8206848Y6201744D01*
X8207488Y6201385D01*
G37*
G36*
X9407488Y6201385D02*
G01*
X9459944Y6157546D01*
X9528660Y6148913D01*
X9591290Y6178878D01*
X9610190Y6200689D01*
X9612080Y6201343D01*
X9613591Y6200033D01*
X9613663Y6198989D01*
X9611000Y6185601D01*
X9611000Y5410999D01*
X9613757Y5397140D01*
X9613114Y5395246D01*
X9611152Y5394856D01*
X9610512Y5395215D01*
X9558056Y5439054D01*
X9489340Y5447687D01*
X9426710Y5417722D01*
X9407810Y5395911D01*
X9405920Y5395257D01*
X9404409Y5396567D01*
X9404337Y5397611D01*
X9407000Y5410999D01*
X9407000Y6185601D01*
X9404243Y6199460D01*
X9404886Y6201354D01*
X9406848Y6201744D01*
X9407488Y6201385D01*
G37*
G36*
X9007488Y6201385D02*
G01*
X9059944Y6157546D01*
X9128660Y6148913D01*
X9191290Y6178878D01*
X9210190Y6200689D01*
X9212080Y6201343D01*
X9213591Y6200033D01*
X9213663Y6198989D01*
X9211000Y6185601D01*
X9211000Y5410999D01*
X9213757Y5397140D01*
X9213114Y5395246D01*
X9211152Y5394856D01*
X9210512Y5395215D01*
X9158056Y5439054D01*
X9089340Y5447687D01*
X9026710Y5417722D01*
X9007810Y5395911D01*
X9005920Y5395257D01*
X9004409Y5396567D01*
X9004337Y5397611D01*
X9007000Y5410999D01*
X9007000Y6185601D01*
X9004243Y6199460D01*
X9004886Y6201354D01*
X9006848Y6201744D01*
X9007488Y6201385D01*
G37*
G36*
X7407488Y6201385D02*
G01*
X7459944Y6157546D01*
X7528660Y6148913D01*
X7591290Y6178878D01*
X7610190Y6200689D01*
X7612080Y6201343D01*
X7613591Y6200033D01*
X7613663Y6198989D01*
X7611000Y6185601D01*
X7611000Y5410999D01*
X7613757Y5397140D01*
X7613114Y5395246D01*
X7611152Y5394856D01*
X7610512Y5395215D01*
X7558056Y5439054D01*
X7489340Y5447687D01*
X7426710Y5417722D01*
X7407810Y5395911D01*
X7405920Y5395257D01*
X7404409Y5396567D01*
X7404337Y5397611D01*
X7407000Y5410999D01*
X7407000Y6185601D01*
X7404243Y6199460D01*
X7404886Y6201354D01*
X7406848Y6201744D01*
X7407488Y6201385D01*
G37*
G36*
X8607488Y6201385D02*
G01*
X8659944Y6157546D01*
X8728660Y6148913D01*
X8791290Y6178878D01*
X8810190Y6200689D01*
X8812080Y6201343D01*
X8813591Y6200033D01*
X8813663Y6198989D01*
X8811000Y6185601D01*
X8811000Y5410999D01*
X8813757Y5397140D01*
X8813114Y5395246D01*
X8811152Y5394856D01*
X8810512Y5395215D01*
X8758056Y5439054D01*
X8689340Y5447687D01*
X8626710Y5417722D01*
X8607810Y5395911D01*
X8605920Y5395257D01*
X8604409Y5396567D01*
X8604337Y5397611D01*
X8607000Y5410999D01*
X8607000Y6185601D01*
X8604243Y6199460D01*
X8604886Y6201354D01*
X8606848Y6201744D01*
X8607488Y6201385D01*
G37*
G36*
X12582974Y5671250D02*
G01*
X12582641Y5670008D01*
X12573424Y5656214D01*
X12573685Y5656039D01*
X12574570Y5654245D01*
X12574109Y5653093D01*
X12555850Y5631246D01*
X12547214Y5562531D01*
X12577176Y5499899D01*
X12585851Y5492381D01*
X12586505Y5490491D01*
X12585195Y5488980D01*
X12583429Y5489207D01*
X12583081Y5489440D01*
X12532001Y5499600D01*
X12262399Y5499600D01*
X12211317Y5489439D01*
X12173070Y5463883D01*
X12171074Y5463752D01*
X12169963Y5465415D01*
X12170296Y5466657D01*
X12178918Y5479561D01*
X12199704Y5545943D01*
X12181360Y5612807D01*
X12152394Y5642826D01*
X12151911Y5644767D01*
X12153350Y5646156D01*
X12154223Y5646177D01*
X12207399Y5635600D01*
X12487001Y5635600D01*
X12539997Y5646142D01*
X12579867Y5672782D01*
X12581863Y5672913D01*
X12582974Y5671250D01*
G37*
G36*
X11170969Y5661800D02*
G01*
X11194403Y5646142D01*
X11247399Y5635600D01*
X11527001Y5635600D01*
X11579997Y5646142D01*
X11602525Y5661195D01*
X11604521Y5661326D01*
X11605632Y5659663D01*
X11605171Y5658249D01*
X11565847Y5611193D01*
X11557216Y5542478D01*
X11587179Y5479849D01*
X11595846Y5472340D01*
X11596500Y5470450D01*
X11595190Y5468938D01*
X11593425Y5469165D01*
X11563083Y5489439D01*
X11512001Y5499600D01*
X11242399Y5499600D01*
X11191317Y5489439D01*
X11161874Y5469766D01*
X11159878Y5469635D01*
X11158767Y5471298D01*
X11159228Y5472712D01*
X11198553Y5519766D01*
X11207185Y5588481D01*
X11177220Y5651111D01*
X11168548Y5658626D01*
X11167894Y5660516D01*
X11169204Y5662027D01*
X11170969Y5661800D01*
G37*
G36*
X14452865Y5669975D02*
G01*
X14452404Y5668561D01*
X14413077Y5621503D01*
X14404446Y5552787D01*
X14434410Y5490158D01*
X14443077Y5482649D01*
X14443731Y5480759D01*
X14442421Y5479247D01*
X14440656Y5479474D01*
X14427167Y5488487D01*
X14371301Y5499600D01*
X14076699Y5499600D01*
X14020833Y5488487D01*
X13993246Y5470054D01*
X13991250Y5469923D01*
X13990139Y5471586D01*
X13990600Y5473000D01*
X14029922Y5520052D01*
X14038555Y5588767D01*
X14008591Y5651398D01*
X13999919Y5658913D01*
X13999265Y5660803D01*
X14000575Y5662314D01*
X14002340Y5662087D01*
X14026203Y5646142D01*
X14079199Y5635600D01*
X14358801Y5635600D01*
X14411797Y5646142D01*
X14449758Y5671507D01*
X14451754Y5671638D01*
X14452865Y5669975D01*
G37*
G36*
X13487862Y5666632D02*
G01*
X13487401Y5665218D01*
X13448077Y5618162D01*
X13439446Y5549446D01*
X13469411Y5486816D01*
X13478075Y5479308D01*
X13478729Y5477418D01*
X13477419Y5475907D01*
X13475654Y5476134D01*
X13457167Y5488487D01*
X13401301Y5499600D01*
X13106699Y5499600D01*
X13050833Y5488487D01*
X13028244Y5473394D01*
X13026248Y5473263D01*
X13025137Y5474926D01*
X13025598Y5476340D01*
X13064922Y5523393D01*
X13073555Y5592109D01*
X13043591Y5654738D01*
X13034915Y5662255D01*
X13034261Y5664146D01*
X13035571Y5665657D01*
X13037336Y5665430D01*
X13066203Y5646142D01*
X13119199Y5635600D01*
X13398801Y5635600D01*
X13451797Y5646142D01*
X13484755Y5668164D01*
X13486751Y5668295D01*
X13487862Y5666632D01*
G37*
G36*
X12173070Y6423317D02*
G01*
X12211317Y6397761D01*
X12262399Y6387600D01*
X12532001Y6387600D01*
X12583083Y6397761D01*
X12592524Y6404069D01*
X12594520Y6404200D01*
X12595631Y6402537D01*
X12595170Y6401123D01*
X12555847Y6354069D01*
X12547216Y6285354D01*
X12572527Y6232450D01*
X12572519Y6232341D01*
X12572653Y6232140D01*
X12572793Y6231893D01*
X12577180Y6222724D01*
X12581167Y6219269D01*
X12581520Y6218869D01*
X12582640Y6217192D01*
X12582771Y6215196D01*
X12581107Y6214085D01*
X12579866Y6214418D01*
X12539997Y6241058D01*
X12487001Y6251600D01*
X12207399Y6251600D01*
X12154404Y6241059D01*
X12152832Y6240008D01*
X12150837Y6239877D01*
X12149725Y6241540D01*
X12150186Y6242954D01*
X12189510Y6290010D01*
X12198150Y6358801D01*
X12178960Y6407577D01*
X12170296Y6420543D01*
X12170165Y6422539D01*
X12171828Y6423650D01*
X12173070Y6423317D01*
G37*
G36*
X13487861Y6415614D02*
G01*
X13487400Y6414200D01*
X13448078Y6367148D01*
X13439445Y6298433D01*
X13469409Y6235802D01*
X13478081Y6228287D01*
X13478735Y6226397D01*
X13477425Y6224886D01*
X13475660Y6225113D01*
X13451797Y6241058D01*
X13398801Y6251600D01*
X13119199Y6251600D01*
X13066203Y6241058D01*
X13028242Y6215693D01*
X13026246Y6215562D01*
X13025135Y6217225D01*
X13025596Y6218639D01*
X13064923Y6265697D01*
X13073554Y6334413D01*
X13043590Y6397042D01*
X13034923Y6404551D01*
X13034269Y6406441D01*
X13035579Y6407953D01*
X13037344Y6407726D01*
X13050833Y6398713D01*
X13106699Y6387600D01*
X13401301Y6387600D01*
X13457167Y6398713D01*
X13484754Y6417146D01*
X13486750Y6417277D01*
X13487861Y6415614D01*
G37*
G36*
X14452863Y6412274D02*
G01*
X14452402Y6410860D01*
X14413078Y6363807D01*
X14404445Y6295091D01*
X14434409Y6232462D01*
X14443085Y6224945D01*
X14443739Y6223054D01*
X14442429Y6221543D01*
X14440664Y6221770D01*
X14411797Y6241058D01*
X14358801Y6251600D01*
X14079199Y6251600D01*
X14026203Y6241058D01*
X13993245Y6219036D01*
X13991249Y6218905D01*
X13990138Y6220568D01*
X13990599Y6221982D01*
X14029923Y6269038D01*
X14038554Y6337754D01*
X14008589Y6400384D01*
X13999925Y6407892D01*
X13999271Y6409782D01*
X14000581Y6411293D01*
X14002346Y6411066D01*
X14020833Y6398713D01*
X14076699Y6387600D01*
X14371301Y6387600D01*
X14427167Y6398713D01*
X14449756Y6413806D01*
X14451752Y6413937D01*
X14452863Y6412274D01*
G37*
G36*
X11604437Y6421785D02*
G01*
X11604104Y6420543D01*
X11601999Y6417393D01*
X11601871Y6417221D01*
X11565848Y6374118D01*
X11557215Y6305402D01*
X11587178Y6242773D01*
X11595854Y6235256D01*
X11596508Y6233365D01*
X11595198Y6231854D01*
X11593433Y6232081D01*
X11579997Y6241058D01*
X11527001Y6251600D01*
X11247399Y6251600D01*
X11194403Y6241058D01*
X11161875Y6219324D01*
X11159879Y6219193D01*
X11158768Y6220856D01*
X11159229Y6222270D01*
X11198553Y6269324D01*
X11207184Y6338040D01*
X11177221Y6400669D01*
X11168552Y6408179D01*
X11167898Y6410069D01*
X11169208Y6411581D01*
X11170973Y6411354D01*
X11191317Y6397761D01*
X11242399Y6387600D01*
X11512001Y6387600D01*
X11563083Y6397761D01*
X11601330Y6423317D01*
X11603326Y6423448D01*
X11604437Y6421785D01*
G37*
G36*
X2011063Y7566510D02*
G01*
X2011453Y7564548D01*
X2011094Y7563908D01*
X1971604Y7516655D01*
X1962973Y7447939D01*
X1992936Y7385310D01*
X2008248Y7372043D01*
X2008902Y7370153D01*
X2007592Y7368641D01*
X2006548Y7368569D01*
X1953101Y7379200D01*
X1658499Y7379200D01*
X1602431Y7368047D01*
X1600537Y7368690D01*
X1600147Y7370652D01*
X1600506Y7371292D01*
X1639996Y7418545D01*
X1648627Y7487261D01*
X1618664Y7549890D01*
X1603352Y7563157D01*
X1602698Y7565047D01*
X1604008Y7566559D01*
X1605052Y7566631D01*
X1658499Y7556000D01*
X1953101Y7556000D01*
X2009169Y7567153D01*
X2011063Y7566510D01*
G37*
G36*
X1041063Y7566510D02*
G01*
X1041453Y7564548D01*
X1041094Y7563908D01*
X1001604Y7516655D01*
X992973Y7447939D01*
X1022936Y7385310D01*
X1038248Y7372043D01*
X1038902Y7370153D01*
X1037592Y7368641D01*
X1036548Y7368569D01*
X983101Y7379200D01*
X688499Y7379200D01*
X632431Y7368047D01*
X630537Y7368690D01*
X630147Y7370652D01*
X630506Y7371292D01*
X669996Y7418545D01*
X678627Y7487261D01*
X648664Y7549890D01*
X633352Y7563157D01*
X632698Y7565047D01*
X634008Y7566559D01*
X635052Y7566631D01*
X688499Y7556000D01*
X983101Y7556000D01*
X1039169Y7567153D01*
X1041063Y7566510D01*
G37*
G36*
X6951704Y8784684D02*
G01*
X6952094Y8782722D01*
X6951735Y8782082D01*
X6907663Y8729345D01*
X6899032Y8660630D01*
X6928995Y8598001D01*
X6947379Y8582072D01*
X6948033Y8580182D01*
X6946723Y8578670D01*
X6945679Y8578598D01*
X6896401Y8588400D01*
X6616799Y8588400D01*
X6563414Y8577781D01*
X6563397Y8577865D01*
X6561862Y8577766D01*
X6560752Y8579430D01*
X6561213Y8580842D01*
X6600537Y8627896D01*
X6609168Y8696612D01*
X6579205Y8759241D01*
X6556062Y8779293D01*
X6552698Y8781541D01*
X6551813Y8783335D01*
X6552924Y8784998D01*
X6554199Y8785166D01*
X6604299Y8775200D01*
X6898901Y8775200D01*
X6949810Y8785327D01*
X6951704Y8784684D01*
G37*
G36*
X7574299Y8775200D02*
G01*
X7868901Y8775200D01*
X7919001Y8785166D01*
X7920895Y8784523D01*
X7921285Y8782561D01*
X7920502Y8781541D01*
X7917271Y8779382D01*
X7872663Y8726006D01*
X7864031Y8657291D01*
X7893996Y8594660D01*
X7908865Y8581775D01*
X7909519Y8579885D01*
X7908209Y8578374D01*
X7907165Y8578302D01*
X7856401Y8588400D01*
X7576799Y8588400D01*
X7525917Y8578279D01*
X7524023Y8578922D01*
X7523633Y8580884D01*
X7523992Y8581524D01*
X7565536Y8631235D01*
X7574169Y8699951D01*
X7544205Y8762581D01*
X7522045Y8781783D01*
X7521391Y8783673D01*
X7522701Y8785184D01*
X7523745Y8785256D01*
X7574299Y8775200D01*
G37*
G36*
X7911247Y9607774D02*
G01*
X7910786Y9606360D01*
X7871463Y9559306D01*
X7862832Y9490590D01*
X7892795Y9427961D01*
X7915938Y9407909D01*
X7920502Y9404859D01*
X7921387Y9403065D01*
X7920276Y9401402D01*
X7919001Y9401234D01*
X7868901Y9411200D01*
X7574299Y9411200D01*
X7522755Y9400947D01*
X7520861Y9401590D01*
X7520471Y9403552D01*
X7520830Y9404192D01*
X7564337Y9456252D01*
X7572968Y9524968D01*
X7543005Y9587597D01*
X7523776Y9604257D01*
X7523122Y9606147D01*
X7524432Y9607659D01*
X7525476Y9607731D01*
X7574399Y9598000D01*
X7854001Y9598000D01*
X7906996Y9608541D01*
X7908140Y9609306D01*
X7910135Y9609437D01*
X7911247Y9607774D01*
G37*
G36*
X6947413Y9607605D02*
G01*
X6947803Y9605643D01*
X6947444Y9605003D01*
X6906463Y9555965D01*
X6897832Y9487249D01*
X6927795Y9424620D01*
X6950798Y9404689D01*
X6951452Y9402799D01*
X6950142Y9401287D01*
X6949098Y9401215D01*
X6898901Y9411200D01*
X6604299Y9411200D01*
X6554199Y9401234D01*
X6552305Y9401877D01*
X6551915Y9403839D01*
X6552698Y9404859D01*
X6554730Y9406217D01*
X6599337Y9459594D01*
X6607968Y9528309D01*
X6578005Y9590938D01*
X6562291Y9604553D01*
X6561637Y9606443D01*
X6562947Y9607955D01*
X6563991Y9608027D01*
X6614399Y9598000D01*
X6894001Y9598000D01*
X6945519Y9608248D01*
X6947413Y9607605D01*
G37*
G36*
X6984263Y10377214D02*
G01*
X6983802Y10375800D01*
X6944478Y10328745D01*
X6935845Y10260030D01*
X6965810Y10197400D01*
X6974483Y10189884D01*
X6975137Y10187994D01*
X6973827Y10186483D01*
X6972062Y10186710D01*
X6946997Y10203458D01*
X6894001Y10214000D01*
X6614399Y10214000D01*
X6561403Y10203458D01*
X6524645Y10178897D01*
X6522649Y10178766D01*
X6521538Y10180429D01*
X6521999Y10181842D01*
X6561323Y10228898D01*
X6569954Y10297615D01*
X6539989Y10360245D01*
X6531326Y10367752D01*
X6530672Y10369642D01*
X6531982Y10371153D01*
X6533747Y10370926D01*
X6548433Y10361113D01*
X6604299Y10350000D01*
X6898901Y10350000D01*
X6954767Y10361113D01*
X6981156Y10378746D01*
X6983152Y10378877D01*
X6984263Y10377214D01*
G37*
G36*
X7949263Y10373873D02*
G01*
X7948802Y10372459D01*
X7909477Y10325404D01*
X7900845Y10256689D01*
X7930810Y10194058D01*
X7939480Y10186545D01*
X7940134Y10184655D01*
X7938824Y10183144D01*
X7937059Y10183371D01*
X7906997Y10203458D01*
X7854001Y10214000D01*
X7574399Y10214000D01*
X7521403Y10203458D01*
X7489644Y10182238D01*
X7487648Y10182107D01*
X7486537Y10183770D01*
X7486998Y10185184D01*
X7526322Y10232237D01*
X7534955Y10300952D01*
X7504992Y10363582D01*
X7496318Y10371097D01*
X7495664Y10372987D01*
X7496974Y10374499D01*
X7498739Y10374272D01*
X7518433Y10361113D01*
X7574299Y10350000D01*
X7868901Y10350000D01*
X7924767Y10361113D01*
X7946156Y10375405D01*
X7948152Y10375536D01*
X7949263Y10373873D01*
G37*
G36*
X17282060Y11518195D02*
G01*
X17282175Y11516712D01*
X17263851Y11458192D01*
X17282175Y11391402D01*
X17333749Y11345076D01*
X17387189Y11332950D01*
X17388656Y11331592D01*
X17388214Y11329642D01*
X17386746Y11329000D01*
X16815949Y11329000D01*
X16740062Y11313905D01*
X16738168Y11314548D01*
X16737778Y11316510D01*
X16738791Y11317662D01*
X16760317Y11328231D01*
X16811590Y11375237D01*
X16829235Y11442216D01*
X16808480Y11507338D01*
X16805359Y11512008D01*
X16805228Y11514004D01*
X16806891Y11515115D01*
X16808133Y11514782D01*
X16848003Y11488142D01*
X16900999Y11477600D01*
X17180601Y11477600D01*
X17233597Y11488142D01*
X17278353Y11518047D01*
X17278603Y11518421D01*
X17280397Y11519306D01*
X17282060Y11518195D01*
G37*
G36*
X6964861Y13299014D02*
G01*
X6964400Y13297600D01*
X6925078Y13250548D01*
X6916445Y13181833D01*
X6946409Y13119202D01*
X6955081Y13111687D01*
X6955735Y13109797D01*
X6954425Y13108286D01*
X6952660Y13108513D01*
X6928797Y13124458D01*
X6875801Y13135000D01*
X6596199Y13135000D01*
X6543203Y13124458D01*
X6505242Y13099093D01*
X6503246Y13098962D01*
X6502135Y13100625D01*
X6502596Y13102039D01*
X6541923Y13149097D01*
X6550554Y13217813D01*
X6520590Y13280442D01*
X6511923Y13287951D01*
X6511269Y13289841D01*
X6512579Y13291353D01*
X6514344Y13291126D01*
X6527833Y13282113D01*
X6583699Y13271000D01*
X6878301Y13271000D01*
X6934167Y13282113D01*
X6961754Y13300546D01*
X6963750Y13300677D01*
X6964861Y13299014D01*
G37*
G36*
X7929863Y13295674D02*
G01*
X7929402Y13294260D01*
X7890078Y13247207D01*
X7881445Y13178491D01*
X7911409Y13115862D01*
X7920085Y13108345D01*
X7920739Y13106454D01*
X7919429Y13104943D01*
X7917664Y13105170D01*
X7888797Y13124458D01*
X7835801Y13135000D01*
X7556199Y13135000D01*
X7503203Y13124458D01*
X7470245Y13102436D01*
X7468249Y13102305D01*
X7467138Y13103968D01*
X7467599Y13105382D01*
X7506923Y13152438D01*
X7515554Y13221154D01*
X7485589Y13283784D01*
X7476925Y13291292D01*
X7476271Y13293182D01*
X7477581Y13294693D01*
X7479346Y13294466D01*
X7497833Y13282113D01*
X7553699Y13271000D01*
X7848301Y13271000D01*
X7904167Y13282113D01*
X7926756Y13297206D01*
X7928752Y13297337D01*
X7929863Y13295674D01*
G37*
G36*
X935495Y13879323D02*
G01*
X935885Y13877361D01*
X935102Y13876341D01*
X920496Y13866581D01*
X920499Y13866536D01*
X919633Y13865650D01*
X888562Y13849397D01*
X854289Y13789212D01*
X857996Y13720054D01*
X898521Y13663854D01*
X955369Y13639640D01*
X956570Y13638041D01*
X955787Y13636201D01*
X954585Y13635800D01*
X467842Y13635800D01*
X466110Y13636800D01*
X466110Y13638800D01*
X467006Y13639617D01*
X529289Y13668281D01*
X566562Y13726655D01*
X566360Y13795913D01*
X528730Y13854090D01*
X498752Y13868709D01*
X498518Y13868844D01*
X487298Y13876341D01*
X486413Y13878135D01*
X487524Y13879798D01*
X488799Y13879966D01*
X538899Y13870000D01*
X883501Y13870000D01*
X933601Y13879966D01*
X935495Y13879323D01*
G37*
G36*
X7929865Y14077375D02*
G01*
X7929404Y14075961D01*
X7890077Y14028903D01*
X7881446Y13960187D01*
X7911410Y13897558D01*
X7920077Y13890049D01*
X7920731Y13888159D01*
X7919421Y13886647D01*
X7917656Y13886874D01*
X7904167Y13895887D01*
X7848301Y13907000D01*
X7553699Y13907000D01*
X7497833Y13895887D01*
X7470246Y13877454D01*
X7468250Y13877323D01*
X7467139Y13878986D01*
X7467600Y13880400D01*
X7506922Y13927452D01*
X7515555Y13996167D01*
X7485591Y14058798D01*
X7476919Y14066313D01*
X7476265Y14068203D01*
X7477575Y14069714D01*
X7479340Y14069487D01*
X7503203Y14053542D01*
X7556199Y14043000D01*
X7835801Y14043000D01*
X7888797Y14053542D01*
X7926758Y14078907D01*
X7928754Y14079038D01*
X7929865Y14077375D01*
G37*
G36*
X6964862Y14074032D02*
G01*
X6964401Y14072618D01*
X6925077Y14025562D01*
X6916446Y13956846D01*
X6946411Y13894216D01*
X6955075Y13886708D01*
X6955729Y13884818D01*
X6954419Y13883307D01*
X6952654Y13883534D01*
X6934167Y13895887D01*
X6878301Y13907000D01*
X6583699Y13907000D01*
X6527833Y13895887D01*
X6505244Y13880794D01*
X6503248Y13880663D01*
X6502137Y13882326D01*
X6502598Y13883740D01*
X6541922Y13930793D01*
X6550555Y13999509D01*
X6520591Y14062138D01*
X6511915Y14069655D01*
X6511261Y14071546D01*
X6512571Y14073057D01*
X6514336Y14072830D01*
X6543203Y14053542D01*
X6596199Y14043000D01*
X6875801Y14043000D01*
X6928797Y14053542D01*
X6961755Y14075564D01*
X6963751Y14075695D01*
X6964862Y14074032D01*
G37*
G36*
X6964861Y14823014D02*
G01*
X6964400Y14821600D01*
X6925078Y14774548D01*
X6916445Y14705833D01*
X6946409Y14643202D01*
X6955081Y14635687D01*
X6955735Y14633797D01*
X6954425Y14632286D01*
X6952660Y14632513D01*
X6928797Y14648458D01*
X6875801Y14659000D01*
X6596199Y14659000D01*
X6543203Y14648458D01*
X6505242Y14623093D01*
X6503246Y14622962D01*
X6502135Y14624625D01*
X6502596Y14626039D01*
X6541923Y14673097D01*
X6550554Y14741813D01*
X6520590Y14804442D01*
X6511923Y14811951D01*
X6511269Y14813841D01*
X6512579Y14815353D01*
X6514344Y14815126D01*
X6527833Y14806113D01*
X6583699Y14795000D01*
X6878301Y14795000D01*
X6934167Y14806113D01*
X6961754Y14824546D01*
X6963750Y14824677D01*
X6964861Y14823014D01*
G37*
G36*
X7929863Y14819674D02*
G01*
X7929402Y14818260D01*
X7890078Y14771207D01*
X7881445Y14702491D01*
X7911409Y14639862D01*
X7920085Y14632345D01*
X7920739Y14630454D01*
X7919429Y14628943D01*
X7917664Y14629170D01*
X7888797Y14648458D01*
X7835801Y14659000D01*
X7556199Y14659000D01*
X7503203Y14648458D01*
X7470245Y14626436D01*
X7468249Y14626305D01*
X7467138Y14627968D01*
X7467599Y14629382D01*
X7506923Y14676438D01*
X7515554Y14745154D01*
X7485589Y14807784D01*
X7476925Y14815292D01*
X7476271Y14817182D01*
X7477581Y14818693D01*
X7479346Y14818466D01*
X7497833Y14806113D01*
X7553699Y14795000D01*
X7848301Y14795000D01*
X7904167Y14806113D01*
X7926756Y14821206D01*
X7928752Y14821337D01*
X7929863Y14819674D01*
G37*
G36*
X3053491Y15423519D02*
G01*
X3100545Y15384194D01*
X3169260Y15375562D01*
X3231890Y15405526D01*
X3242605Y15417893D01*
X3244495Y15418547D01*
X3246007Y15417237D01*
X3246079Y15416193D01*
X3235200Y15361501D01*
X3235200Y15016899D01*
X3246313Y14961033D01*
X3248655Y14957527D01*
X3248786Y14955531D01*
X3247123Y14954420D01*
X3245709Y14954881D01*
X3198655Y14994206D01*
X3129940Y15002838D01*
X3067310Y14972874D01*
X3056595Y14960507D01*
X3054705Y14959853D01*
X3053193Y14961163D01*
X3053121Y14962207D01*
X3064000Y15016899D01*
X3064000Y15361501D01*
X3052887Y15417367D01*
X3050545Y15420873D01*
X3050414Y15422869D01*
X3052077Y15423980D01*
X3053491Y15423519D01*
G37*
M02*
