%TF.GenerationSoftware,KiCad,Pcbnew,(6.0.7)*%
%TF.CreationDate,2024-01-02T21:25:37+08:00*%
%TF.ProjectId,stepper-motor-20,73746570-7065-4722-9d6d-6f746f722d32,1*%
%TF.SameCoordinates,PX6979f40PYa1135a0*%
%TF.FileFunction,Copper,L2,Inr*%
%TF.FilePolarity,Positive*%
%FSLAX46Y46*%
G04 Gerber Fmt 4.6, Leading zero omitted, Abs format (unit mm)*
G04 Created by KiCad (PCBNEW (6.0.7)) date 2024-01-02 21:25:37*
%MOMM*%
%LPD*%
G01*
G04 APERTURE LIST*
%TA.AperFunction,ComponentPad*%
%ADD10C,0.600000*%
%TD*%
%TA.AperFunction,ComponentPad*%
%ADD11C,3.600000*%
%TD*%
%TA.AperFunction,ComponentPad*%
%ADD12R,0.850000X0.850000*%
%TD*%
%TA.AperFunction,ComponentPad*%
%ADD13O,0.850000X0.850000*%
%TD*%
%TA.AperFunction,ComponentPad*%
%ADD14R,1.350000X1.350000*%
%TD*%
%TA.AperFunction,ComponentPad*%
%ADD15O,1.350000X1.350000*%
%TD*%
%TA.AperFunction,ViaPad*%
%ADD16C,0.450000*%
%TD*%
%TA.AperFunction,ViaPad*%
%ADD17C,0.430000*%
%TD*%
G04 APERTURE END LIST*
D10*
%TO.N,GND*%
%TO.C,H1*%
X16582400Y3265200D03*
X17700000Y3773200D03*
X17700000Y826800D03*
X19173200Y2300000D03*
X18665200Y1182400D03*
X18665200Y3417600D03*
X16633200Y1284000D03*
X16226800Y2300000D03*
D11*
X17700000Y2300000D03*
%TD*%
D10*
%TO.N,GND*%
%TO.C,H2*%
X2300000Y19173200D03*
X3265200Y16582400D03*
D11*
X2300000Y17700000D03*
D10*
X2300000Y16226800D03*
X3773200Y17700000D03*
X826800Y17700000D03*
X1233200Y16684000D03*
X3265200Y18817600D03*
X1182400Y18665200D03*
%TD*%
D11*
%TO.N,GND*%
%TO.C,H3*%
X17700000Y17700000D03*
D10*
X18665200Y16582400D03*
X18665200Y18817600D03*
X16633200Y16684000D03*
X16226800Y17700000D03*
X17700000Y16226800D03*
X16582400Y18665200D03*
X17700000Y19173200D03*
X19173200Y17700000D03*
%TD*%
D12*
%TO.N,SWCLK*%
%TO.C,J2*%
X7162800Y711200D03*
D13*
%TO.N,SWDIO*%
X6162800Y711200D03*
%TO.N,VCC*%
X5162800Y711200D03*
%TO.N,GND*%
X4162800Y711200D03*
%TD*%
D14*
%TO.N,Net-(J3-Pad1)*%
%TO.C,J3*%
X19050000Y8176000D03*
D15*
%TO.N,Net-(J3-Pad2)*%
X19050000Y10176000D03*
%TO.N,Net-(J3-Pad3)*%
X19050000Y12176000D03*
%TO.N,Net-(J3-Pad4)*%
X19050000Y14176000D03*
%TD*%
D10*
%TO.N,GND*%
%TO.C,H4*%
X3265200Y3417600D03*
X1182400Y3265200D03*
X826800Y2300000D03*
X3773200Y2300000D03*
X2300000Y826800D03*
X3265200Y1182400D03*
X2300000Y3773200D03*
D11*
X2300000Y2300000D03*
D10*
X1233200Y1284000D03*
%TD*%
D14*
%TO.N,GND*%
%TO.C,J1*%
X13000000Y18449200D03*
D15*
%TO.N,V_SUPPLY*%
X11000000Y18449200D03*
%TO.N,/RS485/RS485_A*%
X9000000Y18449200D03*
%TO.N,/RS485/RS485_B*%
X7000000Y18449200D03*
%TD*%
D16*
%TO.N,GND*%
X4267200Y7823200D03*
X3302000Y13512800D03*
X10871200Y13614400D03*
X3302000Y13055600D03*
X6146800Y14173200D03*
X7924800Y3911600D03*
X12141200Y7366000D03*
X11125200Y10769600D03*
X18389600Y15392400D03*
X11684000Y15646400D03*
X16865600Y10617200D03*
X11734800Y14427200D03*
X3302000Y14071600D03*
X12344400Y2387600D03*
X10871200Y14833600D03*
X11480800Y3200400D03*
X14681200Y2032000D03*
X508000Y6858000D03*
X17424400Y11531600D03*
X17678400Y10617200D03*
X5232400Y5892800D03*
X7569200Y3048000D03*
X508000Y12293600D03*
X12344400Y5638800D03*
X3302000Y12446000D03*
X10617200Y5791200D03*
X12598400Y14427200D03*
X11176000Y8636000D03*
X10922000Y16205200D03*
X12598400Y15646400D03*
X4978400Y7823200D03*
X1066800Y12344400D03*
X11988800Y2946400D03*
X12954000Y7416800D03*
X16662400Y11226800D03*
X6276500Y9992462D03*
X11734800Y8077200D03*
X762000Y11836400D03*
X11277600Y7670800D03*
X17983200Y11531600D03*
X11125200Y9906000D03*
X7569200Y4826000D03*
%TO.N,VCC*%
X13004800Y762000D03*
X3302000Y8178800D03*
X5689600Y16916400D03*
X12598400Y762000D03*
X5334000Y5181600D03*
X8026400Y11905000D03*
X14224000Y3048000D03*
X4521200Y10058400D03*
X3809769Y8178980D03*
X1320800Y8636000D03*
X12496800Y6756400D03*
%TO.N,V_SUPPLY*%
X14630400Y7823200D03*
X15240000Y7823200D03*
X1168400Y13309600D03*
X14833600Y12954000D03*
X15341600Y12954000D03*
%TO.N,/RS485/RS485_B*%
X6728600Y16408400D03*
X1879600Y7162800D03*
%TO.N,/RS485/RS485_A*%
X7670800Y17170400D03*
X1879600Y7975600D03*
%TO.N,/LED_GREEN*%
X4648200Y7289800D03*
D17*
X6399263Y6554279D03*
%TO.N,/LED_RED*%
X6857249Y6232888D03*
D16*
X3860800Y6807200D03*
%TO.N,/SPI1_SCK*%
X8483600Y406400D03*
%TO.N,/SPI1_MISO*%
X8991601Y685251D03*
%TO.N,/SPI1_MOSI*%
X9499600Y406400D03*
%TO.N,/MT6816_CS*%
X8026400Y812800D03*
%TO.N,/485_RE*%
X4368800Y3657600D03*
%TO.N,/IN_AP*%
X8347144Y15343453D03*
D17*
X6276500Y7120744D03*
D16*
%TO.N,/IN_AM*%
X8382000Y14122400D03*
D17*
X8008300Y7416800D03*
D16*
%TO.N,/IN_BP*%
X10363200Y10261600D03*
X10312400Y6502400D03*
%TO.N,/IN_BM*%
X10007600Y7061200D03*
X10160500Y9034400D03*
%TO.N,/UART0_TX*%
X711200Y4419600D03*
%TO.N,/UART0_RX*%
X4927600Y3911600D03*
%TD*%
%TA.AperFunction,Conductor*%
%TO.N,VCC*%
G36*
X17118042Y19780593D02*
G01*
X17154006Y19731093D01*
X17154006Y19669907D01*
X17118042Y19620407D01*
X17092653Y19607092D01*
X16903476Y19540658D01*
X16900375Y19539047D01*
X16900370Y19539045D01*
X16836872Y19506060D01*
X16652072Y19410064D01*
X16649231Y19408034D01*
X16649228Y19408032D01*
X16601853Y19374177D01*
X16421576Y19245349D01*
X16333257Y19161097D01*
X16219119Y19052216D01*
X16219115Y19052212D01*
X16216588Y19049801D01*
X16041199Y18827320D01*
X16039443Y18824298D01*
X16039441Y18824294D01*
X16012246Y18777474D01*
X15898907Y18582346D01*
X15792552Y18319768D01*
X15779128Y18265726D01*
X15735761Y18091141D01*
X15724255Y18044823D01*
X15723898Y18041342D01*
X15723898Y18041340D01*
X15718231Y17986024D01*
X15695380Y17762998D01*
X15695517Y17759507D01*
X15695517Y17759502D01*
X15698253Y17689864D01*
X15706502Y17479916D01*
X15757400Y17201225D01*
X15758507Y17197907D01*
X15758508Y17197903D01*
X15803864Y17061955D01*
X15847058Y16932486D01*
X15973687Y16679061D01*
X16134761Y16446007D01*
X16137127Y16443447D01*
X16137133Y16443440D01*
X16227885Y16345266D01*
X16327065Y16237973D01*
X16329775Y16235767D01*
X16329779Y16235763D01*
X16521389Y16079769D01*
X16546764Y16059111D01*
X16549756Y16057309D01*
X16549757Y16057309D01*
X16579062Y16039666D01*
X16789472Y15912988D01*
X16808039Y15905126D01*
X17028121Y15811934D01*
X17050348Y15802522D01*
X17324186Y15729915D01*
X17327659Y15729504D01*
X17327664Y15729503D01*
X17541489Y15704195D01*
X17605523Y15696616D01*
X17609011Y15696698D01*
X17609016Y15696698D01*
X17733519Y15699633D01*
X17888745Y15703291D01*
X17893767Y15704127D01*
X17894226Y15704058D01*
X17895676Y15704195D01*
X17895710Y15703835D01*
X17954271Y15695026D01*
X17997870Y15652099D01*
X18007912Y15591743D01*
X17998223Y15561524D01*
X17979881Y15525526D01*
X17978662Y15517832D01*
X17978662Y15517831D01*
X17970910Y15468884D01*
X17958796Y15392400D01*
X17979881Y15259274D01*
X17983417Y15252335D01*
X17983417Y15252334D01*
X18023647Y15173379D01*
X18041072Y15139180D01*
X18136380Y15043872D01*
X18143317Y15040337D01*
X18143319Y15040336D01*
X18249534Y14986217D01*
X18256474Y14982681D01*
X18264168Y14981462D01*
X18264169Y14981462D01*
X18375492Y14963830D01*
X18430009Y14936052D01*
X18457786Y14881536D01*
X18448214Y14821104D01*
X18433580Y14799809D01*
X18337805Y14693440D01*
X18335210Y14688945D01*
X18248380Y14538553D01*
X18248378Y14538548D01*
X18245786Y14534059D01*
X18239616Y14515069D01*
X18190517Y14363961D01*
X18190516Y14363956D01*
X18188915Y14359029D01*
X18169678Y14176000D01*
X18188915Y13992971D01*
X18190516Y13988044D01*
X18190517Y13988039D01*
X18212631Y13919980D01*
X18245786Y13817941D01*
X18248378Y13813452D01*
X18248380Y13813447D01*
X18288698Y13743615D01*
X18337805Y13658560D01*
X18341273Y13654708D01*
X18341277Y13654703D01*
X18457480Y13525646D01*
X18457484Y13525642D01*
X18460950Y13521793D01*
X18609839Y13413619D01*
X18614571Y13411512D01*
X18614573Y13411511D01*
X18773226Y13340874D01*
X18773229Y13340873D01*
X18777966Y13338764D01*
X18783039Y13337686D01*
X18783038Y13337686D01*
X18952110Y13301748D01*
X18957981Y13300500D01*
X19142019Y13300500D01*
X19147891Y13301748D01*
X19316962Y13337686D01*
X19316961Y13337686D01*
X19322034Y13338764D01*
X19326771Y13340873D01*
X19326774Y13340874D01*
X19485427Y13411511D01*
X19485429Y13411512D01*
X19490161Y13413619D01*
X19639050Y13521793D01*
X19639849Y13520694D01*
X19690142Y13543092D01*
X19749992Y13530376D01*
X19790937Y13484911D01*
X19799500Y13444635D01*
X19799500Y12907365D01*
X19780593Y12849174D01*
X19731093Y12813210D01*
X19669907Y12813210D01*
X19639470Y12830785D01*
X19639050Y12830207D01*
X19612944Y12849174D01*
X19490161Y12938381D01*
X19485429Y12940488D01*
X19485427Y12940489D01*
X19326774Y13011126D01*
X19326771Y13011127D01*
X19322034Y13013236D01*
X19142019Y13051500D01*
X18957981Y13051500D01*
X18777966Y13013236D01*
X18773229Y13011127D01*
X18773226Y13011126D01*
X18614573Y12940489D01*
X18614571Y12940488D01*
X18609839Y12938381D01*
X18460950Y12830207D01*
X18457484Y12826358D01*
X18457480Y12826354D01*
X18341277Y12697297D01*
X18341273Y12697292D01*
X18337805Y12693440D01*
X18329032Y12678244D01*
X18248380Y12538553D01*
X18248378Y12538548D01*
X18245786Y12534059D01*
X18229803Y12484868D01*
X18190517Y12363961D01*
X18190516Y12363956D01*
X18188915Y12359029D01*
X18169678Y12176000D01*
X18170220Y12170843D01*
X18182178Y12057065D01*
X18169456Y11997217D01*
X18123986Y11956276D01*
X18068234Y11948936D01*
X17983200Y11962404D01*
X17975504Y11961185D01*
X17857769Y11942538D01*
X17857768Y11942538D01*
X17850074Y11941319D01*
X17770805Y11900929D01*
X17748745Y11889689D01*
X17688313Y11880118D01*
X17658855Y11889689D01*
X17636796Y11900929D01*
X17557526Y11941319D01*
X17549832Y11942538D01*
X17549831Y11942538D01*
X17432096Y11961185D01*
X17424400Y11962404D01*
X17416704Y11961185D01*
X17298969Y11942538D01*
X17298968Y11942538D01*
X17291274Y11941319D01*
X17284335Y11937783D01*
X17284334Y11937783D01*
X17178119Y11883664D01*
X17178117Y11883663D01*
X17171180Y11880128D01*
X17075872Y11784820D01*
X17014681Y11664726D01*
X17013462Y11657031D01*
X17012609Y11654405D01*
X16976647Y11604904D01*
X16918457Y11585995D01*
X16873509Y11596785D01*
X16802466Y11632983D01*
X16802465Y11632983D01*
X16795526Y11636519D01*
X16787832Y11637738D01*
X16787831Y11637738D01*
X16699378Y11651747D01*
X16662400Y11657604D01*
X16625422Y11651747D01*
X16536969Y11637738D01*
X16536968Y11637738D01*
X16529274Y11636519D01*
X16522335Y11632983D01*
X16522334Y11632983D01*
X16416119Y11578864D01*
X16416117Y11578863D01*
X16409180Y11575328D01*
X16313872Y11480020D01*
X16310337Y11473083D01*
X16310336Y11473081D01*
X16256217Y11366866D01*
X16252681Y11359926D01*
X16251462Y11352232D01*
X16251462Y11352231D01*
X16243440Y11301578D01*
X16231596Y11226800D01*
X16232815Y11219104D01*
X16248407Y11120662D01*
X16252681Y11093674D01*
X16256217Y11086735D01*
X16256217Y11086734D01*
X16295434Y11009767D01*
X16313872Y10973580D01*
X16409180Y10878272D01*
X16416119Y10874736D01*
X16422425Y10870155D01*
X16420577Y10867611D01*
X16453947Y10834233D01*
X16463511Y10773800D01*
X16459885Y10758703D01*
X16459420Y10757271D01*
X16455881Y10750326D01*
X16454662Y10742632D01*
X16454662Y10742631D01*
X16440653Y10654178D01*
X16434796Y10617200D01*
X16455881Y10484074D01*
X16459417Y10477135D01*
X16459417Y10477134D01*
X16511118Y10375666D01*
X16517072Y10363980D01*
X16612380Y10268672D01*
X16619317Y10265137D01*
X16619319Y10265136D01*
X16725534Y10211017D01*
X16732474Y10207481D01*
X16740168Y10206262D01*
X16740169Y10206262D01*
X16857904Y10187615D01*
X16865600Y10186396D01*
X16873296Y10187615D01*
X16991031Y10206262D01*
X16991032Y10206262D01*
X16998726Y10207481D01*
X17005666Y10211017D01*
X17111881Y10265136D01*
X17111883Y10265137D01*
X17118820Y10268672D01*
X17201996Y10351848D01*
X17256513Y10379625D01*
X17316945Y10370054D01*
X17342004Y10351848D01*
X17425180Y10268672D01*
X17432117Y10265137D01*
X17432119Y10265136D01*
X17538334Y10211017D01*
X17545274Y10207481D01*
X17552968Y10206262D01*
X17552969Y10206262D01*
X17670704Y10187615D01*
X17678400Y10186396D01*
X17686096Y10187615D01*
X17803831Y10206262D01*
X17803832Y10206262D01*
X17811526Y10207481D01*
X17818466Y10211017D01*
X17924681Y10265136D01*
X17924683Y10265137D01*
X17931620Y10268672D01*
X18010837Y10347889D01*
X18065354Y10375666D01*
X18125786Y10366095D01*
X18169051Y10322830D01*
X18179299Y10267537D01*
X18169678Y10176000D01*
X18188915Y9992971D01*
X18190516Y9988044D01*
X18190517Y9988039D01*
X18223202Y9887446D01*
X18245786Y9817941D01*
X18248378Y9813452D01*
X18248380Y9813447D01*
X18275812Y9765934D01*
X18337805Y9658560D01*
X18341273Y9654708D01*
X18341277Y9654703D01*
X18457480Y9525646D01*
X18457484Y9525642D01*
X18460950Y9521793D01*
X18609839Y9413619D01*
X18614571Y9411512D01*
X18614573Y9411511D01*
X18773226Y9340874D01*
X18773229Y9340873D01*
X18777966Y9338764D01*
X18957981Y9300500D01*
X19142019Y9300500D01*
X19322034Y9338764D01*
X19326771Y9340873D01*
X19326774Y9340874D01*
X19485427Y9411511D01*
X19485429Y9411512D01*
X19490161Y9413619D01*
X19639050Y9521793D01*
X19639849Y9520694D01*
X19690142Y9543092D01*
X19749992Y9530376D01*
X19790937Y9484911D01*
X19799500Y9444635D01*
X19799500Y9150500D01*
X19780593Y9092309D01*
X19731093Y9056345D01*
X19700500Y9051500D01*
X18355252Y9051500D01*
X18329005Y9046279D01*
X18306334Y9041770D01*
X18306332Y9041769D01*
X18296769Y9039867D01*
X18230448Y8995552D01*
X18186133Y8929231D01*
X18184231Y8919668D01*
X18184230Y8919666D01*
X18180572Y8901274D01*
X18174500Y8870748D01*
X18174500Y7481252D01*
X18186133Y7422769D01*
X18230448Y7356448D01*
X18296769Y7312133D01*
X18306332Y7310231D01*
X18306334Y7310230D01*
X18329005Y7305721D01*
X18355252Y7300500D01*
X19700500Y7300500D01*
X19758691Y7281593D01*
X19794655Y7232093D01*
X19799500Y7201500D01*
X19799500Y2943569D01*
X19780593Y2885378D01*
X19731093Y2849414D01*
X19669907Y2849414D01*
X19620407Y2885378D01*
X19607619Y2909303D01*
X19529131Y3122055D01*
X19529130Y3122058D01*
X19527920Y3125337D01*
X19428782Y3309072D01*
X19395054Y3371582D01*
X19395053Y3371584D01*
X19393393Y3374660D01*
X19375509Y3398874D01*
X19291219Y3512992D01*
X19225078Y3602540D01*
X19026334Y3804430D01*
X18801126Y3976304D01*
X18798069Y3978016D01*
X18798066Y3978018D01*
X18557006Y4113017D01*
X18557005Y4113018D01*
X18553947Y4114730D01*
X18486927Y4140658D01*
X18293003Y4215682D01*
X18293000Y4215683D01*
X18289730Y4216948D01*
X18286317Y4217739D01*
X18286314Y4217740D01*
X18088185Y4263664D01*
X18013747Y4280918D01*
X17860750Y4294169D01*
X17734991Y4305061D01*
X17734990Y4305061D01*
X17731503Y4305363D01*
X17610231Y4298689D01*
X17452129Y4289988D01*
X17452123Y4289987D01*
X17448630Y4289795D01*
X17170774Y4234526D01*
X16903476Y4140658D01*
X16900375Y4139047D01*
X16900370Y4139045D01*
X16805077Y4089544D01*
X16652072Y4010064D01*
X16649231Y4008034D01*
X16649228Y4008032D01*
X16601853Y3974177D01*
X16421576Y3845349D01*
X16419048Y3842937D01*
X16219119Y3652216D01*
X16219115Y3652212D01*
X16216588Y3649801D01*
X16041199Y3427320D01*
X16039443Y3424298D01*
X16039441Y3424294D01*
X16020115Y3391022D01*
X15898907Y3182346D01*
X15875816Y3125337D01*
X15805994Y2952954D01*
X15792552Y2919768D01*
X15763228Y2801719D01*
X15736952Y2695936D01*
X15724255Y2644823D01*
X15723898Y2641342D01*
X15723898Y2641340D01*
X15697901Y2387600D01*
X15695380Y2362998D01*
X15706502Y2079916D01*
X15757400Y1801225D01*
X15758507Y1797907D01*
X15758508Y1797903D01*
X15794848Y1688978D01*
X15847058Y1532486D01*
X15973687Y1279061D01*
X16134761Y1046007D01*
X16137127Y1043447D01*
X16137133Y1043440D01*
X16229076Y943977D01*
X16327065Y837973D01*
X16329775Y835767D01*
X16329779Y835763D01*
X16544054Y661317D01*
X16546764Y659111D01*
X16789472Y512988D01*
X16792696Y511623D01*
X17041190Y406400D01*
X17050348Y402522D01*
X17071934Y396799D01*
X17077989Y395193D01*
X17129390Y362004D01*
X17151466Y304940D01*
X17135785Y245798D01*
X17088336Y207169D01*
X17052616Y200500D01*
X10013707Y200500D01*
X9955516Y219407D01*
X9919552Y268907D01*
X9915926Y314987D01*
X9929185Y398703D01*
X9929185Y398704D01*
X9930404Y406400D01*
X9915282Y501879D01*
X9910538Y531831D01*
X9910538Y531832D01*
X9909319Y539526D01*
X9905783Y546466D01*
X9851664Y652681D01*
X9851663Y652683D01*
X9848128Y659620D01*
X9752820Y754928D01*
X9745883Y758463D01*
X9745881Y758464D01*
X9639666Y812583D01*
X9639665Y812583D01*
X9632726Y816119D01*
X9625032Y817338D01*
X9625031Y817338D01*
X9507296Y835985D01*
X9499600Y837204D01*
X9470823Y832646D01*
X9410394Y842217D01*
X9367128Y885482D01*
X9343665Y931532D01*
X9343664Y931534D01*
X9340129Y938471D01*
X9244821Y1033779D01*
X9237884Y1037314D01*
X9237882Y1037315D01*
X9131667Y1091434D01*
X9131666Y1091434D01*
X9124727Y1094970D01*
X9117033Y1096189D01*
X9117032Y1096189D01*
X8999297Y1114836D01*
X8991601Y1116055D01*
X8983905Y1114836D01*
X8866170Y1096189D01*
X8866169Y1096189D01*
X8858475Y1094970D01*
X8851536Y1091434D01*
X8851535Y1091434D01*
X8745320Y1037315D01*
X8745318Y1037314D01*
X8738381Y1033779D01*
X8643073Y938471D01*
X8639538Y931533D01*
X8639535Y931529D01*
X8624421Y901866D01*
X8581156Y858602D01*
X8520724Y849031D01*
X8466208Y876809D01*
X8438431Y931327D01*
X8436119Y945926D01*
X8421046Y975508D01*
X8378464Y1059081D01*
X8378463Y1059083D01*
X8374928Y1066020D01*
X8279620Y1161328D01*
X8272683Y1164863D01*
X8272681Y1164864D01*
X8166466Y1218983D01*
X8166465Y1218983D01*
X8159526Y1222519D01*
X8151832Y1223738D01*
X8151831Y1223738D01*
X8034096Y1242385D01*
X8026400Y1243604D01*
X8018704Y1242385D01*
X7900969Y1223738D01*
X7900968Y1223738D01*
X7893274Y1222519D01*
X7886333Y1218982D01*
X7886332Y1218982D01*
X7880634Y1216079D01*
X7820202Y1206509D01*
X7765686Y1234288D01*
X7753376Y1249288D01*
X7737771Y1272642D01*
X7732352Y1280752D01*
X7666031Y1325067D01*
X7656468Y1326969D01*
X7656466Y1326970D01*
X7633795Y1331479D01*
X7607548Y1336700D01*
X6718052Y1336700D01*
X6691805Y1331479D01*
X6669134Y1326970D01*
X6669132Y1326969D01*
X6659569Y1325067D01*
X6593248Y1280752D01*
X6587959Y1272836D01*
X6533573Y1245126D01*
X6471762Y1255414D01*
X6388605Y1299443D01*
X6382817Y1300897D01*
X6382814Y1300898D01*
X6275527Y1327847D01*
X6241772Y1336326D01*
X6166076Y1336722D01*
X6096345Y1337087D01*
X6096343Y1337087D01*
X6090379Y1337118D01*
X5943167Y1301776D01*
X5886721Y1272642D01*
X5813941Y1235078D01*
X5813939Y1235076D01*
X5808635Y1232339D01*
X5694549Y1132815D01*
X5691118Y1127933D01*
X5691117Y1127932D01*
X5624945Y1033779D01*
X5607496Y1008951D01*
X5605329Y1003393D01*
X5605328Y1003391D01*
X5564883Y899655D01*
X5552502Y867898D01*
X5551723Y861983D01*
X5551723Y861982D01*
X5551278Y858602D01*
X5532741Y717798D01*
X5533396Y711865D01*
X5533396Y711861D01*
X5543171Y623322D01*
X5549354Y567317D01*
X5554216Y554032D01*
X5599330Y430749D01*
X5599332Y430745D01*
X5601382Y425143D01*
X5646991Y357271D01*
X5648707Y354717D01*
X5665470Y295873D01*
X5644443Y238414D01*
X5593659Y204288D01*
X5566536Y200500D01*
X4759151Y200500D01*
X4700960Y219407D01*
X4664996Y268907D01*
X4664996Y330093D01*
X4678755Y357271D01*
X4711472Y402801D01*
X4711473Y402803D01*
X4714956Y407650D01*
X4771424Y548120D01*
X4792756Y698004D01*
X4792894Y711200D01*
X4786709Y762308D01*
X4775423Y855577D01*
X4775422Y855580D01*
X4774706Y861499D01*
X4758445Y904534D01*
X4723302Y997536D01*
X4721192Y1003120D01*
X4635440Y1127889D01*
X4570122Y1186085D01*
X4526857Y1224633D01*
X4526855Y1224634D01*
X4522403Y1228601D01*
X4496370Y1242385D01*
X4471762Y1255414D01*
X4388605Y1299443D01*
X4382817Y1300897D01*
X4382814Y1300898D01*
X4275527Y1327847D01*
X4241772Y1336326D01*
X4215013Y1336466D01*
X4212912Y1336477D01*
X4154821Y1355689D01*
X4119117Y1405376D01*
X4119437Y1466561D01*
X4122884Y1475506D01*
X4146688Y1529350D01*
X4187040Y1620624D01*
X4187988Y1623987D01*
X4187991Y1623994D01*
X4262988Y1889917D01*
X4263939Y1893288D01*
X4301652Y2174067D01*
X4303961Y2247534D01*
X4305531Y2297472D01*
X4305531Y2297481D01*
X4305610Y2300000D01*
X4301397Y2359502D01*
X4285849Y2579097D01*
X4285848Y2579103D01*
X4285601Y2582593D01*
X4225975Y2859547D01*
X4224762Y2862835D01*
X4224760Y2862842D01*
X4156452Y3048000D01*
X7138396Y3048000D01*
X7139615Y3040304D01*
X7158192Y2923015D01*
X7159481Y2914874D01*
X7163017Y2907935D01*
X7163017Y2907934D01*
X7212872Y2810089D01*
X7220672Y2794780D01*
X7315980Y2699472D01*
X7322917Y2695937D01*
X7322919Y2695936D01*
X7429134Y2641817D01*
X7436074Y2638281D01*
X7443768Y2637062D01*
X7443769Y2637062D01*
X7561504Y2618415D01*
X7569200Y2617196D01*
X7576896Y2618415D01*
X7694631Y2637062D01*
X7694632Y2637062D01*
X7702326Y2638281D01*
X7709266Y2641817D01*
X7815481Y2695936D01*
X7815483Y2695937D01*
X7822420Y2699472D01*
X7917728Y2794780D01*
X7925529Y2810089D01*
X7975383Y2907934D01*
X7975383Y2907935D01*
X7978919Y2914874D01*
X7980209Y2923015D01*
X7998785Y3040304D01*
X8000004Y3048000D01*
X7978919Y3181126D01*
X7975383Y3188066D01*
X7969099Y3200400D01*
X11049996Y3200400D01*
X11053049Y3181126D01*
X11062405Y3122055D01*
X11071081Y3067274D01*
X11074617Y3060335D01*
X11074617Y3060334D01*
X11080902Y3048000D01*
X11132272Y2947180D01*
X11227580Y2851872D01*
X11234517Y2848337D01*
X11234519Y2848336D01*
X11334646Y2797319D01*
X11347674Y2790681D01*
X11355368Y2789462D01*
X11355369Y2789462D01*
X11473104Y2770815D01*
X11480800Y2769596D01*
X11488497Y2770815D01*
X11488498Y2770815D01*
X11521294Y2776009D01*
X11581726Y2766437D01*
X11624990Y2723173D01*
X11634261Y2704978D01*
X11640272Y2693180D01*
X11735580Y2597872D01*
X11742517Y2594337D01*
X11742519Y2594336D01*
X11848735Y2540216D01*
X11848738Y2540215D01*
X11855674Y2536681D01*
X11856035Y2536624D01*
X11902496Y2502867D01*
X11921402Y2444676D01*
X11920183Y2429192D01*
X11913596Y2387600D01*
X11934681Y2254474D01*
X11995872Y2134380D01*
X12091180Y2039072D01*
X12098117Y2035537D01*
X12098119Y2035536D01*
X12182749Y1992415D01*
X12211274Y1977881D01*
X12218968Y1976662D01*
X12218969Y1976662D01*
X12336704Y1958015D01*
X12344400Y1956796D01*
X12352096Y1958015D01*
X12469831Y1976662D01*
X12469832Y1976662D01*
X12477526Y1977881D01*
X12506051Y1992415D01*
X12583741Y2032000D01*
X14250396Y2032000D01*
X14251615Y2024304D01*
X14258408Y1981417D01*
X14271481Y1898874D01*
X14275017Y1891935D01*
X14275017Y1891934D01*
X14321236Y1801225D01*
X14332672Y1778780D01*
X14427980Y1683472D01*
X14434917Y1679937D01*
X14434919Y1679936D01*
X14541134Y1625817D01*
X14548074Y1622281D01*
X14555768Y1621062D01*
X14555769Y1621062D01*
X14673504Y1602415D01*
X14681200Y1601196D01*
X14688896Y1602415D01*
X14806631Y1621062D01*
X14806632Y1621062D01*
X14814326Y1622281D01*
X14821266Y1625817D01*
X14927481Y1679936D01*
X14927483Y1679937D01*
X14934420Y1683472D01*
X15029728Y1778780D01*
X15041165Y1801225D01*
X15087383Y1891934D01*
X15087383Y1891935D01*
X15090919Y1898874D01*
X15103993Y1981417D01*
X15110785Y2024304D01*
X15112004Y2032000D01*
X15090919Y2165126D01*
X15029728Y2285220D01*
X14934420Y2380528D01*
X14927483Y2384063D01*
X14927481Y2384064D01*
X14821266Y2438183D01*
X14821265Y2438183D01*
X14814326Y2441719D01*
X14806632Y2442938D01*
X14806631Y2442938D01*
X14688896Y2461585D01*
X14681200Y2462804D01*
X14673504Y2461585D01*
X14555769Y2442938D01*
X14555768Y2442938D01*
X14548074Y2441719D01*
X14541135Y2438183D01*
X14541134Y2438183D01*
X14434919Y2384064D01*
X14434917Y2384063D01*
X14427980Y2380528D01*
X14332672Y2285220D01*
X14271481Y2165126D01*
X14250396Y2032000D01*
X12583741Y2032000D01*
X12590681Y2035536D01*
X12590683Y2035537D01*
X12597620Y2039072D01*
X12692928Y2134380D01*
X12754119Y2254474D01*
X12775204Y2387600D01*
X12768617Y2429192D01*
X12755338Y2513031D01*
X12755338Y2513032D01*
X12754119Y2520726D01*
X12744188Y2540216D01*
X12696464Y2633881D01*
X12696463Y2633883D01*
X12692928Y2640820D01*
X12597620Y2736128D01*
X12590683Y2739663D01*
X12590681Y2739664D01*
X12484465Y2793784D01*
X12484462Y2793785D01*
X12477526Y2797319D01*
X12477165Y2797376D01*
X12430704Y2831133D01*
X12411798Y2889324D01*
X12413017Y2904808D01*
X12418385Y2938702D01*
X12418385Y2938704D01*
X12419604Y2946400D01*
X12398519Y3079526D01*
X12380372Y3115142D01*
X12340864Y3192681D01*
X12340863Y3192683D01*
X12337328Y3199620D01*
X12242020Y3294928D01*
X12235083Y3298463D01*
X12235081Y3298464D01*
X12128866Y3352583D01*
X12128865Y3352583D01*
X12121926Y3356119D01*
X12114232Y3357338D01*
X12114231Y3357338D01*
X11996496Y3375985D01*
X11988800Y3377204D01*
X11981103Y3375985D01*
X11981102Y3375985D01*
X11948306Y3370791D01*
X11887874Y3380363D01*
X11844610Y3423627D01*
X11842729Y3427320D01*
X11829328Y3453620D01*
X11734020Y3548928D01*
X11727083Y3552463D01*
X11727081Y3552464D01*
X11620866Y3606583D01*
X11620865Y3606583D01*
X11613926Y3610119D01*
X11606232Y3611338D01*
X11606231Y3611338D01*
X11488496Y3629985D01*
X11480800Y3631204D01*
X11473104Y3629985D01*
X11355369Y3611338D01*
X11355368Y3611338D01*
X11347674Y3610119D01*
X11340735Y3606583D01*
X11340734Y3606583D01*
X11234519Y3552464D01*
X11234517Y3552463D01*
X11227580Y3548928D01*
X11132272Y3453620D01*
X11128737Y3446683D01*
X11128736Y3446681D01*
X11090068Y3370791D01*
X11071081Y3333526D01*
X11049996Y3200400D01*
X7969099Y3200400D01*
X7921264Y3294281D01*
X7921263Y3294283D01*
X7917728Y3301220D01*
X7901062Y3317886D01*
X7873285Y3372403D01*
X7882856Y3432835D01*
X7926121Y3476100D01*
X7955578Y3485671D01*
X7984741Y3490290D01*
X8050231Y3500662D01*
X8050232Y3500662D01*
X8057926Y3501881D01*
X8079733Y3512992D01*
X8171081Y3559536D01*
X8171083Y3559537D01*
X8178020Y3563072D01*
X8273328Y3658380D01*
X8334519Y3778474D01*
X8355604Y3911600D01*
X8345356Y3976304D01*
X8335738Y4037031D01*
X8335738Y4037032D01*
X8334519Y4044726D01*
X8286461Y4139045D01*
X8276864Y4157881D01*
X8276863Y4157883D01*
X8273328Y4164820D01*
X8178020Y4260128D01*
X8171083Y4263663D01*
X8171081Y4263664D01*
X8064866Y4317783D01*
X8064865Y4317783D01*
X8057926Y4321319D01*
X8050232Y4322538D01*
X8050231Y4322538D01*
X7932496Y4341185D01*
X7924800Y4342404D01*
X7922507Y4342041D01*
X7866950Y4360092D01*
X7830986Y4409592D01*
X7830986Y4470778D01*
X7855137Y4510189D01*
X7917728Y4572780D01*
X7965166Y4665881D01*
X7975383Y4685934D01*
X7975383Y4685935D01*
X7978919Y4692874D01*
X8000004Y4826000D01*
X7978919Y4959126D01*
X7917728Y5079220D01*
X7822420Y5174528D01*
X7815483Y5178063D01*
X7815481Y5178064D01*
X7709266Y5232183D01*
X7709265Y5232183D01*
X7702326Y5235719D01*
X7694632Y5236938D01*
X7694631Y5236938D01*
X7576896Y5255585D01*
X7569200Y5256804D01*
X7561504Y5255585D01*
X7443769Y5236938D01*
X7443768Y5236938D01*
X7436074Y5235719D01*
X7429135Y5232183D01*
X7429134Y5232183D01*
X7322919Y5178064D01*
X7322917Y5178063D01*
X7315980Y5174528D01*
X7220672Y5079220D01*
X7159481Y4959126D01*
X7138396Y4826000D01*
X7159481Y4692874D01*
X7163017Y4685935D01*
X7163017Y4685934D01*
X7173235Y4665881D01*
X7220672Y4572780D01*
X7315980Y4477472D01*
X7322917Y4473937D01*
X7322919Y4473936D01*
X7414456Y4427296D01*
X7436074Y4416281D01*
X7443768Y4415062D01*
X7443769Y4415062D01*
X7532222Y4401053D01*
X7569200Y4395196D01*
X7571493Y4395559D01*
X7627050Y4377508D01*
X7663014Y4328008D01*
X7663014Y4266822D01*
X7638863Y4227411D01*
X7576272Y4164820D01*
X7572737Y4157883D01*
X7572736Y4157881D01*
X7563139Y4139045D01*
X7515081Y4044726D01*
X7513862Y4037032D01*
X7513862Y4037031D01*
X7504244Y3976304D01*
X7493996Y3911600D01*
X7515081Y3778474D01*
X7576272Y3658380D01*
X7592938Y3641714D01*
X7620715Y3587197D01*
X7611144Y3526765D01*
X7567879Y3483500D01*
X7538422Y3473929D01*
X7509259Y3469310D01*
X7443769Y3458938D01*
X7443768Y3458938D01*
X7436074Y3457719D01*
X7429135Y3454183D01*
X7429134Y3454183D01*
X7322919Y3400064D01*
X7322917Y3400063D01*
X7315980Y3396528D01*
X7220672Y3301220D01*
X7217137Y3294283D01*
X7217136Y3294281D01*
X7163017Y3188066D01*
X7159481Y3181126D01*
X7138396Y3048000D01*
X4156452Y3048000D01*
X4131682Y3115142D01*
X4129280Y3176280D01*
X4163273Y3227154D01*
X4220676Y3248331D01*
X4240049Y3247188D01*
X4368800Y3226796D01*
X4376496Y3228015D01*
X4494231Y3246662D01*
X4494232Y3246662D01*
X4501926Y3247881D01*
X4583455Y3289422D01*
X4615081Y3305536D01*
X4615083Y3305537D01*
X4622020Y3309072D01*
X4717328Y3404380D01*
X4720863Y3411318D01*
X4720866Y3411322D01*
X4736405Y3441819D01*
X4779670Y3485083D01*
X4840100Y3494654D01*
X4919902Y3482015D01*
X4919904Y3482015D01*
X4927600Y3480796D01*
X4935296Y3482015D01*
X5053031Y3500662D01*
X5053032Y3500662D01*
X5060726Y3501881D01*
X5082533Y3512992D01*
X5173881Y3559536D01*
X5173883Y3559537D01*
X5180820Y3563072D01*
X5276128Y3658380D01*
X5337319Y3778474D01*
X5358404Y3911600D01*
X5348156Y3976304D01*
X5338538Y4037031D01*
X5338538Y4037032D01*
X5337319Y4044726D01*
X5289261Y4139045D01*
X5279664Y4157881D01*
X5279663Y4157883D01*
X5276128Y4164820D01*
X5180820Y4260128D01*
X5173883Y4263663D01*
X5173881Y4263664D01*
X5067666Y4317783D01*
X5067665Y4317783D01*
X5060726Y4321319D01*
X5053032Y4322538D01*
X5053031Y4322538D01*
X4935296Y4341185D01*
X4927600Y4342404D01*
X4919904Y4341185D01*
X4802169Y4322538D01*
X4802168Y4322538D01*
X4794474Y4321319D01*
X4787535Y4317783D01*
X4787534Y4317783D01*
X4681319Y4263664D01*
X4681317Y4263663D01*
X4674380Y4260128D01*
X4579072Y4164820D01*
X4575537Y4157882D01*
X4575534Y4157878D01*
X4559995Y4127381D01*
X4516730Y4084117D01*
X4456300Y4074546D01*
X4376498Y4087185D01*
X4376496Y4087185D01*
X4368800Y4088404D01*
X4361104Y4087185D01*
X4243369Y4068538D01*
X4243368Y4068538D01*
X4235674Y4067319D01*
X4228735Y4063783D01*
X4228734Y4063783D01*
X4122519Y4009664D01*
X4122517Y4009663D01*
X4115580Y4006128D01*
X4020272Y3910820D01*
X4016737Y3903883D01*
X4016736Y3903881D01*
X3964792Y3801935D01*
X3959081Y3790726D01*
X3957862Y3783030D01*
X3945527Y3705147D01*
X3917750Y3650630D01*
X3863234Y3622852D01*
X3802801Y3632423D01*
X3777195Y3651181D01*
X3628791Y3801935D01*
X3628784Y3801941D01*
X3626334Y3804430D01*
X3401126Y3976304D01*
X3398069Y3978016D01*
X3398066Y3978018D01*
X3157006Y4113017D01*
X3157005Y4113018D01*
X3153947Y4114730D01*
X3086927Y4140658D01*
X2893003Y4215682D01*
X2893000Y4215683D01*
X2889730Y4216948D01*
X2886317Y4217739D01*
X2886314Y4217740D01*
X2688185Y4263664D01*
X2613747Y4280918D01*
X2460750Y4294169D01*
X2334991Y4305061D01*
X2334990Y4305061D01*
X2331503Y4305363D01*
X2210231Y4298689D01*
X2052129Y4289988D01*
X2052123Y4289987D01*
X2048630Y4289795D01*
X1770774Y4234526D01*
X1503476Y4140658D01*
X1500375Y4139047D01*
X1500370Y4139045D01*
X1405077Y4089544D01*
X1252072Y4010064D01*
X1249231Y4008034D01*
X1249228Y4008032D01*
X1201853Y3974177D01*
X1021576Y3845349D01*
X1019048Y3842937D01*
X819119Y3652216D01*
X819115Y3652212D01*
X816588Y3649801D01*
X641199Y3427320D01*
X639443Y3424298D01*
X639441Y3424294D01*
X620115Y3391022D01*
X498907Y3182346D01*
X444491Y3048000D01*
X406466Y2954119D01*
X392552Y2919768D01*
X391947Y2920013D01*
X357694Y2872864D01*
X299504Y2853954D01*
X241313Y2872859D01*
X205347Y2922357D01*
X200500Y2952954D01*
X200500Y4089544D01*
X219407Y4147735D01*
X268907Y4183699D01*
X330093Y4183699D01*
X369504Y4159548D01*
X457980Y4071072D01*
X464917Y4067537D01*
X464919Y4067536D01*
X524789Y4037031D01*
X578074Y4009881D01*
X585768Y4008662D01*
X585769Y4008662D01*
X703504Y3990015D01*
X711200Y3988796D01*
X718896Y3990015D01*
X836631Y4008662D01*
X836632Y4008662D01*
X844326Y4009881D01*
X897611Y4037031D01*
X957481Y4067536D01*
X957483Y4067537D01*
X964420Y4071072D01*
X1059728Y4166380D01*
X1068553Y4183699D01*
X1117383Y4279534D01*
X1117383Y4279535D01*
X1120919Y4286474D01*
X1129778Y4342404D01*
X1140785Y4411904D01*
X1142004Y4419600D01*
X1120919Y4552726D01*
X1117383Y4559666D01*
X1063264Y4665881D01*
X1063263Y4665883D01*
X1059728Y4672820D01*
X964420Y4768128D01*
X957483Y4771663D01*
X957481Y4771664D01*
X851266Y4825783D01*
X851265Y4825783D01*
X844326Y4829319D01*
X836632Y4830538D01*
X836631Y4830538D01*
X718896Y4849185D01*
X711200Y4850404D01*
X703504Y4849185D01*
X585769Y4830538D01*
X585768Y4830538D01*
X578074Y4829319D01*
X571135Y4825783D01*
X571134Y4825783D01*
X464919Y4771664D01*
X464917Y4771663D01*
X457980Y4768128D01*
X369504Y4679652D01*
X314987Y4651875D01*
X254555Y4661446D01*
X211290Y4704711D01*
X200500Y4749656D01*
X200500Y5892800D01*
X4801596Y5892800D01*
X4822681Y5759674D01*
X4826217Y5752735D01*
X4826217Y5752734D01*
X4874449Y5658074D01*
X4883872Y5639580D01*
X4979180Y5544272D01*
X4986117Y5540737D01*
X4986119Y5540736D01*
X5068553Y5498734D01*
X5099274Y5483081D01*
X5106968Y5481862D01*
X5106969Y5481862D01*
X5224704Y5463215D01*
X5232400Y5461996D01*
X5240096Y5463215D01*
X5357831Y5481862D01*
X5357832Y5481862D01*
X5365526Y5483081D01*
X5396247Y5498734D01*
X5478681Y5540736D01*
X5478683Y5540737D01*
X5485620Y5544272D01*
X5580928Y5639580D01*
X5590352Y5658074D01*
X5638583Y5752734D01*
X5638583Y5752735D01*
X5642119Y5759674D01*
X5663204Y5892800D01*
X5647672Y5990864D01*
X5643338Y6018231D01*
X5643338Y6018232D01*
X5642119Y6025926D01*
X5638583Y6032866D01*
X5584464Y6139081D01*
X5584463Y6139083D01*
X5580928Y6146020D01*
X5485620Y6241328D01*
X5478683Y6244863D01*
X5478681Y6244864D01*
X5372466Y6298983D01*
X5372465Y6298983D01*
X5365526Y6302519D01*
X5357832Y6303738D01*
X5357831Y6303738D01*
X5240096Y6322385D01*
X5232400Y6323604D01*
X5224704Y6322385D01*
X5106969Y6303738D01*
X5106968Y6303738D01*
X5099274Y6302519D01*
X5092335Y6298983D01*
X5092334Y6298983D01*
X4986119Y6244864D01*
X4986117Y6244863D01*
X4979180Y6241328D01*
X4883872Y6146020D01*
X4880337Y6139083D01*
X4880336Y6139081D01*
X4826217Y6032866D01*
X4822681Y6025926D01*
X4821462Y6018232D01*
X4821462Y6018231D01*
X4817128Y5990864D01*
X4801596Y5892800D01*
X200500Y5892800D01*
X200500Y6375575D01*
X219407Y6433766D01*
X268907Y6469730D01*
X330093Y6469730D01*
X344444Y6463785D01*
X367930Y6451818D01*
X367936Y6451816D01*
X374874Y6448281D01*
X382568Y6447062D01*
X382569Y6447062D01*
X500304Y6428415D01*
X508000Y6427196D01*
X515696Y6428415D01*
X633431Y6447062D01*
X633432Y6447062D01*
X641126Y6448281D01*
X654580Y6455136D01*
X754281Y6505936D01*
X754283Y6505937D01*
X761220Y6509472D01*
X856528Y6604780D01*
X869094Y6629441D01*
X914183Y6717934D01*
X914183Y6717935D01*
X917719Y6724874D01*
X921994Y6751862D01*
X937585Y6850304D01*
X938804Y6858000D01*
X928647Y6922129D01*
X918938Y6983431D01*
X918938Y6983432D01*
X917719Y6991126D01*
X906097Y7013936D01*
X860064Y7104281D01*
X860063Y7104283D01*
X856528Y7111220D01*
X804948Y7162800D01*
X1448796Y7162800D01*
X1469881Y7029674D01*
X1473417Y7022735D01*
X1473417Y7022734D01*
X1521649Y6928074D01*
X1531072Y6909580D01*
X1626380Y6814272D01*
X1633317Y6810737D01*
X1633319Y6810736D01*
X1724622Y6764215D01*
X1746474Y6753081D01*
X1754168Y6751862D01*
X1754169Y6751862D01*
X1871904Y6733215D01*
X1879600Y6731996D01*
X1887296Y6733215D01*
X2005031Y6751862D01*
X2005032Y6751862D01*
X2012726Y6753081D01*
X2034578Y6764215D01*
X2118941Y6807200D01*
X3429996Y6807200D01*
X3431215Y6799504D01*
X3438008Y6756617D01*
X3451081Y6674074D01*
X3454617Y6667135D01*
X3454617Y6667134D01*
X3508198Y6561976D01*
X3512272Y6553980D01*
X3607580Y6458672D01*
X3614517Y6455137D01*
X3614519Y6455136D01*
X3720734Y6401017D01*
X3727674Y6397481D01*
X3735368Y6396262D01*
X3735369Y6396262D01*
X3853104Y6377615D01*
X3860800Y6376396D01*
X3868496Y6377615D01*
X3986231Y6396262D01*
X3986232Y6396262D01*
X3993926Y6397481D01*
X4000866Y6401017D01*
X4107081Y6455136D01*
X4107083Y6455137D01*
X4114020Y6458672D01*
X4209328Y6553980D01*
X4213403Y6561976D01*
X4266983Y6667134D01*
X4266983Y6667135D01*
X4270519Y6674074D01*
X4283593Y6756617D01*
X4290385Y6799504D01*
X4291604Y6807200D01*
X4289825Y6818432D01*
X4290385Y6821968D01*
X4290385Y6822687D01*
X4290499Y6822687D01*
X4299396Y6878864D01*
X4342661Y6922129D01*
X4403093Y6931700D01*
X4432551Y6922128D01*
X4508128Y6883619D01*
X4508134Y6883617D01*
X4515074Y6880081D01*
X4522768Y6878862D01*
X4522769Y6878862D01*
X4640504Y6860215D01*
X4648200Y6858996D01*
X4655896Y6860215D01*
X4773631Y6878862D01*
X4773632Y6878862D01*
X4781326Y6880081D01*
X4788270Y6883619D01*
X4894481Y6937736D01*
X4894483Y6937737D01*
X4901420Y6941272D01*
X4996728Y7036580D01*
X5005340Y7053481D01*
X5039612Y7120744D01*
X5855821Y7120744D01*
X5857040Y7113047D01*
X5871738Y7020247D01*
X5876410Y6990747D01*
X5936164Y6873475D01*
X5990907Y6818732D01*
X6018684Y6764215D01*
X6009112Y6703782D01*
X5999173Y6684276D01*
X5997955Y6676585D01*
X5997954Y6676582D01*
X5980712Y6567716D01*
X5978584Y6554279D01*
X5979803Y6546582D01*
X5994812Y6451818D01*
X5999173Y6424282D01*
X6058927Y6307010D01*
X6151994Y6213943D01*
X6269266Y6154189D01*
X6276957Y6152971D01*
X6276960Y6152970D01*
X6395399Y6134212D01*
X6449915Y6106435D01*
X6468121Y6081377D01*
X6516913Y5985619D01*
X6609980Y5892552D01*
X6727252Y5832798D01*
X6734943Y5831580D01*
X6734946Y5831579D01*
X6849552Y5813428D01*
X6857249Y5812209D01*
X6864946Y5813428D01*
X6979552Y5831579D01*
X6979555Y5831580D01*
X6987246Y5832798D01*
X7104518Y5892552D01*
X7197585Y5985619D01*
X7257339Y6102891D01*
X7262302Y6134222D01*
X7276709Y6225191D01*
X7277928Y6232888D01*
X7265089Y6313952D01*
X7258558Y6355191D01*
X7258557Y6355194D01*
X7257339Y6362885D01*
X7197585Y6480157D01*
X7104518Y6573224D01*
X6987246Y6632978D01*
X6979555Y6634196D01*
X6979552Y6634197D01*
X6861113Y6652955D01*
X6806597Y6680732D01*
X6788391Y6705790D01*
X6772130Y6737703D01*
X6739599Y6801548D01*
X6684856Y6856291D01*
X6657079Y6910808D01*
X6666651Y6971241D01*
X6673053Y6983806D01*
X6676590Y6990747D01*
X6681263Y7020247D01*
X6695960Y7113047D01*
X6697179Y7120744D01*
X6692510Y7150222D01*
X6677809Y7243047D01*
X6677808Y7243050D01*
X6676590Y7250741D01*
X6616836Y7368013D01*
X6568049Y7416800D01*
X7587621Y7416800D01*
X7588840Y7409104D01*
X7588840Y7409103D01*
X7606517Y7297495D01*
X7608210Y7286803D01*
X7667964Y7169531D01*
X7761031Y7076464D01*
X7878303Y7016710D01*
X7885994Y7015492D01*
X7885997Y7015491D01*
X8000603Y6997340D01*
X8008300Y6996121D01*
X8015997Y6997340D01*
X8130603Y7015491D01*
X8130606Y7015492D01*
X8138297Y7016710D01*
X8225612Y7061200D01*
X9576796Y7061200D01*
X9578015Y7053504D01*
X9596351Y6937736D01*
X9597881Y6928074D01*
X9601417Y6921135D01*
X9601417Y6921134D01*
X9653594Y6818732D01*
X9659072Y6807980D01*
X9754380Y6712672D01*
X9761317Y6709137D01*
X9761319Y6709136D01*
X9838825Y6669645D01*
X9882090Y6626380D01*
X9891661Y6565948D01*
X9881596Y6502400D01*
X9882815Y6494704D01*
X9898407Y6396262D01*
X9902681Y6369274D01*
X9906217Y6362335D01*
X9906217Y6362334D01*
X9937213Y6301502D01*
X9963872Y6249180D01*
X10059180Y6153872D01*
X10066117Y6150337D01*
X10066119Y6150336D01*
X10179274Y6092681D01*
X10177975Y6090132D01*
X10216886Y6061866D01*
X10235798Y6003677D01*
X10225007Y5958723D01*
X10211018Y5931269D01*
X10211017Y5931266D01*
X10207481Y5924326D01*
X10206262Y5916632D01*
X10206262Y5916631D01*
X10202364Y5892020D01*
X10186396Y5791200D01*
X10207481Y5658074D01*
X10211017Y5651135D01*
X10211017Y5651134D01*
X10262661Y5549778D01*
X10268672Y5537980D01*
X10363980Y5442672D01*
X10370917Y5439137D01*
X10370919Y5439136D01*
X10476029Y5385580D01*
X10484074Y5381481D01*
X10491768Y5380262D01*
X10491769Y5380262D01*
X10609504Y5361615D01*
X10617200Y5360396D01*
X10624896Y5361615D01*
X10742631Y5380262D01*
X10742632Y5380262D01*
X10750326Y5381481D01*
X10758371Y5385580D01*
X10863481Y5439136D01*
X10863483Y5439137D01*
X10870420Y5442672D01*
X10965728Y5537980D01*
X10971740Y5549778D01*
X11017099Y5638800D01*
X11913596Y5638800D01*
X11934681Y5505674D01*
X11938217Y5498735D01*
X11938217Y5498734D01*
X11963977Y5448178D01*
X11995872Y5385580D01*
X12091180Y5290272D01*
X12098117Y5286737D01*
X12098119Y5286736D01*
X12159257Y5255585D01*
X12211274Y5229081D01*
X12218968Y5227862D01*
X12218969Y5227862D01*
X12336704Y5209215D01*
X12344400Y5207996D01*
X12352096Y5209215D01*
X12469831Y5227862D01*
X12469832Y5227862D01*
X12477526Y5229081D01*
X12529543Y5255585D01*
X12590681Y5286736D01*
X12590683Y5286737D01*
X12597620Y5290272D01*
X12692928Y5385580D01*
X12724824Y5448178D01*
X12750583Y5498734D01*
X12750583Y5498735D01*
X12754119Y5505674D01*
X12775204Y5638800D01*
X12754119Y5771926D01*
X12748220Y5783504D01*
X12696464Y5885081D01*
X12696463Y5885083D01*
X12692928Y5892020D01*
X12597620Y5987328D01*
X12590683Y5990863D01*
X12590681Y5990864D01*
X12484466Y6044983D01*
X12484465Y6044983D01*
X12477526Y6048519D01*
X12469832Y6049738D01*
X12469831Y6049738D01*
X12352096Y6068385D01*
X12344400Y6069604D01*
X12336704Y6068385D01*
X12218969Y6049738D01*
X12218968Y6049738D01*
X12211274Y6048519D01*
X12204335Y6044983D01*
X12204334Y6044983D01*
X12098119Y5990864D01*
X12098117Y5990863D01*
X12091180Y5987328D01*
X11995872Y5892020D01*
X11992337Y5885083D01*
X11992336Y5885081D01*
X11940580Y5783504D01*
X11934681Y5771926D01*
X11913596Y5638800D01*
X11017099Y5638800D01*
X11023383Y5651134D01*
X11023383Y5651135D01*
X11026919Y5658074D01*
X11048004Y5791200D01*
X11032036Y5892020D01*
X11028138Y5916631D01*
X11028138Y5916632D01*
X11026919Y5924326D01*
X10998495Y5980111D01*
X10969264Y6037481D01*
X10969263Y6037483D01*
X10965728Y6044420D01*
X10870420Y6139728D01*
X10863483Y6143263D01*
X10863481Y6143264D01*
X10750326Y6200919D01*
X10751625Y6203468D01*
X10712714Y6231734D01*
X10693802Y6289923D01*
X10704593Y6334877D01*
X10718582Y6362331D01*
X10718583Y6362334D01*
X10722119Y6369274D01*
X10726394Y6396262D01*
X10741985Y6494704D01*
X10743204Y6502400D01*
X10731987Y6573224D01*
X10723338Y6627831D01*
X10723338Y6627832D01*
X10722119Y6635526D01*
X10713990Y6651481D01*
X10664464Y6748681D01*
X10664463Y6748683D01*
X10660928Y6755620D01*
X10565620Y6850928D01*
X10558683Y6854463D01*
X10558681Y6854464D01*
X10481175Y6893955D01*
X10437910Y6937220D01*
X10428339Y6997652D01*
X10431164Y7015491D01*
X10438404Y7061200D01*
X10424304Y7150222D01*
X10418538Y7186631D01*
X10418538Y7186632D01*
X10417319Y7194326D01*
X10394049Y7239996D01*
X10359664Y7307481D01*
X10359663Y7307483D01*
X10356128Y7314420D01*
X10260820Y7409728D01*
X10253883Y7413263D01*
X10253881Y7413264D01*
X10147666Y7467383D01*
X10147665Y7467383D01*
X10140726Y7470919D01*
X10133032Y7472138D01*
X10133031Y7472138D01*
X10015296Y7490785D01*
X10007600Y7492004D01*
X9999904Y7490785D01*
X9882169Y7472138D01*
X9882168Y7472138D01*
X9874474Y7470919D01*
X9867535Y7467383D01*
X9867534Y7467383D01*
X9761319Y7413264D01*
X9761317Y7413263D01*
X9754380Y7409728D01*
X9659072Y7314420D01*
X9655537Y7307483D01*
X9655536Y7307481D01*
X9621151Y7239996D01*
X9597881Y7194326D01*
X9596662Y7186632D01*
X9596662Y7186631D01*
X9590896Y7150222D01*
X9576796Y7061200D01*
X8225612Y7061200D01*
X8255569Y7076464D01*
X8348636Y7169531D01*
X8408390Y7286803D01*
X8410084Y7297495D01*
X8427760Y7409103D01*
X8427760Y7409104D01*
X8428979Y7416800D01*
X8427760Y7424497D01*
X8409609Y7539103D01*
X8409608Y7539106D01*
X8408390Y7546797D01*
X8348636Y7664069D01*
X8255569Y7757136D01*
X8138297Y7816890D01*
X8130606Y7818108D01*
X8130603Y7818109D01*
X8015997Y7836260D01*
X8008300Y7837479D01*
X8000603Y7836260D01*
X7885997Y7818109D01*
X7885994Y7818108D01*
X7878303Y7816890D01*
X7761031Y7757136D01*
X7667964Y7664069D01*
X7608210Y7546797D01*
X7606992Y7539106D01*
X7606991Y7539103D01*
X7588840Y7424497D01*
X7587621Y7416800D01*
X6568049Y7416800D01*
X6523769Y7461080D01*
X6406497Y7520834D01*
X6398806Y7522052D01*
X6398803Y7522053D01*
X6284197Y7540204D01*
X6276500Y7541423D01*
X6268803Y7540204D01*
X6154197Y7522053D01*
X6154194Y7522052D01*
X6146503Y7520834D01*
X6029231Y7461080D01*
X5936164Y7368013D01*
X5876410Y7250741D01*
X5875192Y7243050D01*
X5875191Y7243047D01*
X5860490Y7150222D01*
X5855821Y7120744D01*
X5039612Y7120744D01*
X5054383Y7149734D01*
X5054383Y7149735D01*
X5057919Y7156674D01*
X5059956Y7169531D01*
X5074552Y7261689D01*
X5079004Y7289800D01*
X5074558Y7317869D01*
X5084129Y7378300D01*
X5127394Y7421566D01*
X5224681Y7471136D01*
X5224683Y7471137D01*
X5231620Y7474672D01*
X5326928Y7569980D01*
X5349432Y7614145D01*
X5384583Y7683134D01*
X5384583Y7683135D01*
X5388119Y7690074D01*
X5409204Y7823200D01*
X5393236Y7924020D01*
X5389338Y7948631D01*
X5389338Y7948632D01*
X5388119Y7956326D01*
X5382220Y7967904D01*
X5330464Y8069481D01*
X5330463Y8069483D01*
X5326928Y8076420D01*
X5231620Y8171728D01*
X5224683Y8175263D01*
X5224681Y8175264D01*
X5118466Y8229383D01*
X5118465Y8229383D01*
X5111526Y8232919D01*
X5103832Y8234138D01*
X5103831Y8234138D01*
X4986096Y8252785D01*
X4978400Y8254004D01*
X4970704Y8252785D01*
X4852969Y8234138D01*
X4852968Y8234138D01*
X4845274Y8232919D01*
X4838335Y8229383D01*
X4838334Y8229383D01*
X4732119Y8175264D01*
X4732117Y8175263D01*
X4725180Y8171728D01*
X4692804Y8139352D01*
X4638287Y8111575D01*
X4577855Y8121146D01*
X4552796Y8139352D01*
X4520420Y8171728D01*
X4513483Y8175263D01*
X4513481Y8175264D01*
X4407266Y8229383D01*
X4407265Y8229383D01*
X4400326Y8232919D01*
X4392632Y8234138D01*
X4392631Y8234138D01*
X4274896Y8252785D01*
X4267200Y8254004D01*
X4259504Y8252785D01*
X4141769Y8234138D01*
X4141768Y8234138D01*
X4134074Y8232919D01*
X4127135Y8229383D01*
X4127134Y8229383D01*
X4020919Y8175264D01*
X4020917Y8175263D01*
X4013980Y8171728D01*
X3918672Y8076420D01*
X3915137Y8069483D01*
X3915136Y8069481D01*
X3863380Y7967904D01*
X3857481Y7956326D01*
X3856262Y7948632D01*
X3856262Y7948631D01*
X3852364Y7924020D01*
X3836396Y7823200D01*
X3857481Y7690074D01*
X3861017Y7683135D01*
X3861017Y7683134D01*
X3896169Y7614145D01*
X3918672Y7569980D01*
X4013980Y7474672D01*
X4020917Y7471137D01*
X4020919Y7471136D01*
X4112454Y7424497D01*
X4134074Y7413481D01*
X4141769Y7412262D01*
X4149178Y7409855D01*
X4148300Y7407152D01*
X4191210Y7385282D01*
X4218982Y7330762D01*
X4218980Y7299801D01*
X4217396Y7289800D01*
X4218615Y7282104D01*
X4219175Y7278568D01*
X4218615Y7275032D01*
X4218615Y7274313D01*
X4218501Y7274313D01*
X4209604Y7218136D01*
X4166339Y7174871D01*
X4105907Y7165300D01*
X4076449Y7174872D01*
X4000872Y7213381D01*
X4000866Y7213383D01*
X3993926Y7216919D01*
X3986232Y7218138D01*
X3986231Y7218138D01*
X3868496Y7236785D01*
X3860800Y7238004D01*
X3853104Y7236785D01*
X3735369Y7218138D01*
X3735368Y7218138D01*
X3727674Y7216919D01*
X3720735Y7213383D01*
X3720734Y7213383D01*
X3614519Y7159264D01*
X3614517Y7159263D01*
X3607580Y7155728D01*
X3512272Y7060420D01*
X3508737Y7053483D01*
X3508736Y7053481D01*
X3488587Y7013936D01*
X3451081Y6940326D01*
X3449862Y6932632D01*
X3449862Y6932631D01*
X3439261Y6865696D01*
X3429996Y6807200D01*
X2118941Y6807200D01*
X2125881Y6810736D01*
X2125883Y6810737D01*
X2132820Y6814272D01*
X2228128Y6909580D01*
X2237552Y6928074D01*
X2285783Y7022734D01*
X2285783Y7022735D01*
X2289319Y7029674D01*
X2310404Y7162800D01*
X2302393Y7213381D01*
X2290538Y7288231D01*
X2290538Y7288232D01*
X2289319Y7295926D01*
X2285783Y7302866D01*
X2231664Y7409081D01*
X2231663Y7409083D01*
X2228128Y7416020D01*
X2144952Y7499196D01*
X2117175Y7553713D01*
X2126746Y7614145D01*
X2144952Y7639204D01*
X2228128Y7722380D01*
X2247640Y7760673D01*
X2285783Y7835534D01*
X2285783Y7835535D01*
X2289319Y7842474D01*
X2310404Y7975600D01*
X2295531Y8069504D01*
X2290538Y8101031D01*
X2290538Y8101032D01*
X2289319Y8108726D01*
X2265172Y8156118D01*
X2231664Y8221881D01*
X2231663Y8221883D01*
X2228128Y8228820D01*
X2132820Y8324128D01*
X2125883Y8327663D01*
X2125881Y8327664D01*
X2019666Y8381783D01*
X2019665Y8381783D01*
X2012726Y8385319D01*
X2005032Y8386538D01*
X2005031Y8386538D01*
X1887296Y8405185D01*
X1879600Y8406404D01*
X1871904Y8405185D01*
X1754169Y8386538D01*
X1754168Y8386538D01*
X1746474Y8385319D01*
X1739535Y8381783D01*
X1739534Y8381783D01*
X1633319Y8327664D01*
X1633317Y8327663D01*
X1626380Y8324128D01*
X1531072Y8228820D01*
X1527537Y8221883D01*
X1527536Y8221881D01*
X1494028Y8156118D01*
X1469881Y8108726D01*
X1468662Y8101032D01*
X1468662Y8101031D01*
X1463669Y8069504D01*
X1448796Y7975600D01*
X1469881Y7842474D01*
X1473417Y7835535D01*
X1473417Y7835534D01*
X1511561Y7760673D01*
X1531072Y7722380D01*
X1614248Y7639204D01*
X1642025Y7584687D01*
X1632454Y7524255D01*
X1614248Y7499196D01*
X1531072Y7416020D01*
X1527537Y7409083D01*
X1527536Y7409081D01*
X1473417Y7302866D01*
X1469881Y7295926D01*
X1468662Y7288232D01*
X1468662Y7288231D01*
X1456807Y7213381D01*
X1448796Y7162800D01*
X804948Y7162800D01*
X761220Y7206528D01*
X754283Y7210063D01*
X754281Y7210064D01*
X648066Y7264183D01*
X648065Y7264183D01*
X641126Y7267719D01*
X633432Y7268938D01*
X633431Y7268938D01*
X540390Y7283674D01*
X508000Y7288804D01*
X475610Y7283674D01*
X382569Y7268938D01*
X382568Y7268938D01*
X374874Y7267719D01*
X367936Y7264184D01*
X367930Y7264182D01*
X344444Y7252215D01*
X284012Y7242644D01*
X229496Y7270422D01*
X201719Y7324939D01*
X200500Y7340425D01*
X200500Y9034400D01*
X9729696Y9034400D01*
X9750781Y8901274D01*
X9811972Y8781180D01*
X9907280Y8685872D01*
X9914217Y8682337D01*
X9914219Y8682336D01*
X10020263Y8628304D01*
X10027374Y8624681D01*
X10035068Y8623462D01*
X10035069Y8623462D01*
X10152804Y8604815D01*
X10160500Y8603596D01*
X10168196Y8604815D01*
X10285931Y8623462D01*
X10285932Y8623462D01*
X10293626Y8624681D01*
X10300737Y8628304D01*
X10315841Y8636000D01*
X10745196Y8636000D01*
X10746415Y8628305D01*
X10746415Y8628304D01*
X10764392Y8514803D01*
X10766281Y8502874D01*
X10827472Y8382780D01*
X10922780Y8287472D01*
X10929717Y8283937D01*
X10929719Y8283936D01*
X11029846Y8232919D01*
X11042874Y8226281D01*
X11050569Y8225062D01*
X11053820Y8224006D01*
X11103320Y8188042D01*
X11122228Y8129852D01*
X11103321Y8071661D01*
X11068172Y8041641D01*
X11031321Y8022865D01*
X11031319Y8022864D01*
X11024380Y8019328D01*
X10929072Y7924020D01*
X10925537Y7917083D01*
X10925536Y7917081D01*
X10874486Y7816890D01*
X10867881Y7803926D01*
X10866662Y7796232D01*
X10866662Y7796231D01*
X10863413Y7775719D01*
X10846796Y7670800D01*
X10848015Y7663104D01*
X10865341Y7553713D01*
X10867881Y7537674D01*
X10871417Y7530735D01*
X10871417Y7530734D01*
X10906908Y7461080D01*
X10929072Y7417580D01*
X11024380Y7322272D01*
X11031317Y7318737D01*
X11031319Y7318736D01*
X11126141Y7270422D01*
X11144474Y7261081D01*
X11152168Y7259862D01*
X11152169Y7259862D01*
X11269904Y7241215D01*
X11277600Y7239996D01*
X11285296Y7241215D01*
X11403031Y7259862D01*
X11403032Y7259862D01*
X11410726Y7261081D01*
X11429059Y7270422D01*
X11523881Y7318736D01*
X11523883Y7318737D01*
X11530820Y7322272D01*
X11554432Y7345884D01*
X11608949Y7373661D01*
X11669381Y7364090D01*
X11712646Y7320825D01*
X11722216Y7291369D01*
X11731481Y7232874D01*
X11735017Y7225935D01*
X11735017Y7225934D01*
X11784841Y7128150D01*
X11792672Y7112780D01*
X11887980Y7017472D01*
X11894917Y7013937D01*
X11894919Y7013936D01*
X11949755Y6985996D01*
X12008074Y6956281D01*
X12015768Y6955062D01*
X12015769Y6955062D01*
X12133504Y6936415D01*
X12141200Y6935196D01*
X12148896Y6936415D01*
X12266631Y6955062D01*
X12266632Y6955062D01*
X12274326Y6956281D01*
X12332645Y6985996D01*
X12387481Y7013936D01*
X12387483Y7013937D01*
X12394420Y7017472D01*
X12489728Y7112780D01*
X12491971Y7117181D01*
X12540301Y7152299D01*
X12601487Y7152302D01*
X12640902Y7128150D01*
X12700780Y7068272D01*
X12707717Y7064737D01*
X12707719Y7064736D01*
X12801976Y7016710D01*
X12820874Y7007081D01*
X12828568Y7005862D01*
X12828569Y7005862D01*
X12946304Y6987215D01*
X12954000Y6985996D01*
X12961696Y6987215D01*
X13079431Y7005862D01*
X13079432Y7005862D01*
X13087126Y7007081D01*
X13106024Y7016710D01*
X13200281Y7064736D01*
X13200283Y7064737D01*
X13207220Y7068272D01*
X13302528Y7163580D01*
X13309098Y7176473D01*
X13360183Y7276734D01*
X13360183Y7276735D01*
X13363719Y7283674D01*
X13366273Y7299796D01*
X13383585Y7409104D01*
X13384804Y7416800D01*
X13377231Y7464617D01*
X13364938Y7542231D01*
X13364938Y7542232D01*
X13363719Y7549926D01*
X13360183Y7556866D01*
X13306064Y7663081D01*
X13306063Y7663083D01*
X13302528Y7670020D01*
X13207220Y7765328D01*
X13200283Y7768863D01*
X13200281Y7768864D01*
X13094066Y7822983D01*
X13094065Y7822983D01*
X13093639Y7823200D01*
X14199596Y7823200D01*
X14220681Y7690074D01*
X14224217Y7683135D01*
X14224217Y7683134D01*
X14259369Y7614145D01*
X14281872Y7569980D01*
X14377180Y7474672D01*
X14384117Y7471137D01*
X14384119Y7471136D01*
X14475654Y7424497D01*
X14497274Y7413481D01*
X14504968Y7412262D01*
X14504969Y7412262D01*
X14622704Y7393615D01*
X14630400Y7392396D01*
X14638096Y7393615D01*
X14755831Y7412262D01*
X14755832Y7412262D01*
X14763526Y7413481D01*
X14883620Y7474672D01*
X14884122Y7473687D01*
X14935206Y7490282D01*
X14986278Y7473687D01*
X14986780Y7474672D01*
X15106874Y7413481D01*
X15114568Y7412262D01*
X15114569Y7412262D01*
X15232304Y7393615D01*
X15240000Y7392396D01*
X15247696Y7393615D01*
X15365431Y7412262D01*
X15365432Y7412262D01*
X15373126Y7413481D01*
X15394746Y7424497D01*
X15486281Y7471136D01*
X15486283Y7471137D01*
X15493220Y7474672D01*
X15588528Y7569980D01*
X15611032Y7614145D01*
X15646183Y7683134D01*
X15646183Y7683135D01*
X15649719Y7690074D01*
X15670804Y7823200D01*
X15654836Y7924020D01*
X15650938Y7948631D01*
X15650938Y7948632D01*
X15649719Y7956326D01*
X15643820Y7967904D01*
X15592064Y8069481D01*
X15592063Y8069483D01*
X15588528Y8076420D01*
X15493220Y8171728D01*
X15486283Y8175263D01*
X15486281Y8175264D01*
X15380066Y8229383D01*
X15380065Y8229383D01*
X15373126Y8232919D01*
X15365432Y8234138D01*
X15365431Y8234138D01*
X15247696Y8252785D01*
X15240000Y8254004D01*
X15232304Y8252785D01*
X15114569Y8234138D01*
X15114568Y8234138D01*
X15106874Y8232919D01*
X15099935Y8229383D01*
X15099934Y8229383D01*
X15041768Y8199746D01*
X14986780Y8171728D01*
X14986278Y8172713D01*
X14935194Y8156118D01*
X14884122Y8172713D01*
X14883620Y8171728D01*
X14877404Y8174895D01*
X14877405Y8174895D01*
X14828632Y8199746D01*
X14770466Y8229383D01*
X14770465Y8229383D01*
X14763526Y8232919D01*
X14755832Y8234138D01*
X14755831Y8234138D01*
X14638096Y8252785D01*
X14630400Y8254004D01*
X14622704Y8252785D01*
X14504969Y8234138D01*
X14504968Y8234138D01*
X14497274Y8232919D01*
X14490335Y8229383D01*
X14490334Y8229383D01*
X14384119Y8175264D01*
X14384117Y8175263D01*
X14377180Y8171728D01*
X14281872Y8076420D01*
X14278337Y8069483D01*
X14278336Y8069481D01*
X14226580Y7967904D01*
X14220681Y7956326D01*
X14219462Y7948632D01*
X14219462Y7948631D01*
X14215564Y7924020D01*
X14199596Y7823200D01*
X13093639Y7823200D01*
X13087126Y7826519D01*
X13079432Y7827738D01*
X13079431Y7827738D01*
X12961696Y7846385D01*
X12954000Y7847604D01*
X12946304Y7846385D01*
X12828569Y7827738D01*
X12828568Y7827738D01*
X12820874Y7826519D01*
X12813935Y7822983D01*
X12813934Y7822983D01*
X12707719Y7768864D01*
X12707717Y7768863D01*
X12700780Y7765328D01*
X12605472Y7670020D01*
X12603229Y7665619D01*
X12554899Y7630501D01*
X12493713Y7630498D01*
X12454298Y7654650D01*
X12394420Y7714528D01*
X12387483Y7718063D01*
X12387481Y7718064D01*
X12281266Y7772183D01*
X12281265Y7772183D01*
X12274326Y7775719D01*
X12266632Y7776938D01*
X12266631Y7776938D01*
X12209421Y7785999D01*
X12154904Y7813776D01*
X12127127Y7868293D01*
X12136699Y7928726D01*
X12140982Y7937132D01*
X12140982Y7937133D01*
X12144519Y7944074D01*
X12165604Y8077200D01*
X12150111Y8175022D01*
X12145738Y8202631D01*
X12145738Y8202632D01*
X12144519Y8210326D01*
X12140983Y8217266D01*
X12086864Y8323481D01*
X12086863Y8323483D01*
X12083328Y8330420D01*
X11988020Y8425728D01*
X11981083Y8429263D01*
X11981081Y8429264D01*
X11874866Y8483383D01*
X11874865Y8483383D01*
X11867926Y8486919D01*
X11860232Y8488138D01*
X11860231Y8488138D01*
X11767190Y8502874D01*
X11734800Y8508004D01*
X11717300Y8505232D01*
X11656869Y8514803D01*
X11613604Y8558067D01*
X11604032Y8618501D01*
X11605585Y8628305D01*
X11606804Y8636000D01*
X11585719Y8769126D01*
X11576042Y8788119D01*
X11528064Y8882281D01*
X11528063Y8882283D01*
X11524528Y8889220D01*
X11429220Y8984528D01*
X11422283Y8988063D01*
X11422281Y8988064D01*
X11316066Y9042183D01*
X11316065Y9042183D01*
X11309126Y9045719D01*
X11301432Y9046938D01*
X11301431Y9046938D01*
X11183696Y9065585D01*
X11176000Y9066804D01*
X11168304Y9065585D01*
X11050569Y9046938D01*
X11050568Y9046938D01*
X11042874Y9045719D01*
X11035935Y9042183D01*
X11035934Y9042183D01*
X10929719Y8988064D01*
X10929717Y8988063D01*
X10922780Y8984528D01*
X10827472Y8889220D01*
X10823937Y8882283D01*
X10823936Y8882281D01*
X10775958Y8788119D01*
X10766281Y8769126D01*
X10745196Y8636000D01*
X10315841Y8636000D01*
X10406781Y8682336D01*
X10406783Y8682337D01*
X10413720Y8685872D01*
X10509028Y8781180D01*
X10570219Y8901274D01*
X10591304Y9034400D01*
X10570219Y9167526D01*
X10509028Y9287620D01*
X10413720Y9382928D01*
X10406783Y9386463D01*
X10406781Y9386464D01*
X10300566Y9440583D01*
X10300565Y9440583D01*
X10293626Y9444119D01*
X10285932Y9445338D01*
X10285931Y9445338D01*
X10168196Y9463985D01*
X10160500Y9465204D01*
X10152804Y9463985D01*
X10035069Y9445338D01*
X10035068Y9445338D01*
X10027374Y9444119D01*
X10020435Y9440583D01*
X10020434Y9440583D01*
X9914219Y9386464D01*
X9914217Y9386463D01*
X9907280Y9382928D01*
X9811972Y9287620D01*
X9750781Y9167526D01*
X9729696Y9034400D01*
X200500Y9034400D01*
X200500Y9992462D01*
X5845696Y9992462D01*
X5846915Y9984766D01*
X5865213Y9869239D01*
X5866781Y9859336D01*
X5870317Y9852397D01*
X5870317Y9852396D01*
X5914372Y9765934D01*
X5927972Y9739242D01*
X6023280Y9643934D01*
X6030217Y9640399D01*
X6030219Y9640398D01*
X6136434Y9586279D01*
X6143374Y9582743D01*
X6151068Y9581524D01*
X6151069Y9581524D01*
X6268804Y9562877D01*
X6276500Y9561658D01*
X6284196Y9562877D01*
X6401931Y9581524D01*
X6401932Y9581524D01*
X6409626Y9582743D01*
X6416566Y9586279D01*
X6522781Y9640398D01*
X6522783Y9640399D01*
X6529720Y9643934D01*
X6625028Y9739242D01*
X6638629Y9765934D01*
X6682683Y9852396D01*
X6682683Y9852397D01*
X6686219Y9859336D01*
X6687788Y9869239D01*
X6706085Y9984766D01*
X6707304Y9992462D01*
X6686219Y10125588D01*
X6669083Y10159220D01*
X6628564Y10238743D01*
X6628563Y10238745D01*
X6625028Y10245682D01*
X6609110Y10261600D01*
X9932396Y10261600D01*
X9933615Y10253904D01*
X9940408Y10211017D01*
X9953481Y10128474D01*
X10014672Y10008380D01*
X10109980Y9913072D01*
X10116917Y9909537D01*
X10116919Y9909536D01*
X10223134Y9855417D01*
X10230074Y9851881D01*
X10237768Y9850662D01*
X10237769Y9850662D01*
X10355504Y9832015D01*
X10363200Y9830796D01*
X10370896Y9832015D01*
X10488631Y9850662D01*
X10488632Y9850662D01*
X10496326Y9851881D01*
X10503264Y9855416D01*
X10503267Y9855417D01*
X10566127Y9887446D01*
X10626559Y9897017D01*
X10681076Y9869239D01*
X10708853Y9814722D01*
X10715481Y9772874D01*
X10719017Y9765935D01*
X10719017Y9765934D01*
X10771437Y9663055D01*
X10776672Y9652780D01*
X10871980Y9557472D01*
X10878917Y9553937D01*
X10878919Y9553936D01*
X10947982Y9518747D01*
X10992074Y9496281D01*
X10999768Y9495062D01*
X10999769Y9495062D01*
X11117504Y9476415D01*
X11125200Y9475196D01*
X11132896Y9476415D01*
X11250631Y9495062D01*
X11250632Y9495062D01*
X11258326Y9496281D01*
X11302418Y9518747D01*
X11371481Y9553936D01*
X11371483Y9553937D01*
X11378420Y9557472D01*
X11473728Y9652780D01*
X11478964Y9663055D01*
X11531383Y9765934D01*
X11531383Y9765935D01*
X11534919Y9772874D01*
X11547993Y9855417D01*
X11554785Y9898304D01*
X11556004Y9906000D01*
X11534919Y10039126D01*
X11492930Y10121534D01*
X11477264Y10152281D01*
X11477263Y10152283D01*
X11473728Y10159220D01*
X11378420Y10254528D01*
X11371849Y10257876D01*
X11336008Y10307207D01*
X11336007Y10368392D01*
X11371849Y10417724D01*
X11378420Y10421072D01*
X11473728Y10516380D01*
X11496510Y10561091D01*
X11531383Y10629534D01*
X11531383Y10629535D01*
X11534919Y10636474D01*
X11543778Y10692404D01*
X11554785Y10761904D01*
X11556004Y10769600D01*
X11534919Y10902726D01*
X11531383Y10909666D01*
X11477264Y11015881D01*
X11477263Y11015883D01*
X11473728Y11022820D01*
X11378420Y11118128D01*
X11371483Y11121663D01*
X11371481Y11121664D01*
X11265266Y11175783D01*
X11265265Y11175783D01*
X11258326Y11179319D01*
X11250632Y11180538D01*
X11250631Y11180538D01*
X11132896Y11199185D01*
X11125200Y11200404D01*
X11117504Y11199185D01*
X10999769Y11180538D01*
X10999768Y11180538D01*
X10992074Y11179319D01*
X10985135Y11175783D01*
X10985134Y11175783D01*
X10878919Y11121664D01*
X10878917Y11121663D01*
X10871980Y11118128D01*
X10776672Y11022820D01*
X10773137Y11015883D01*
X10773136Y11015881D01*
X10719017Y10909666D01*
X10715481Y10902726D01*
X10694396Y10769600D01*
X10695615Y10761904D01*
X10695615Y10761902D01*
X10698321Y10744816D01*
X10688749Y10684384D01*
X10645484Y10641120D01*
X10585052Y10631549D01*
X10555595Y10641120D01*
X10503266Y10667783D01*
X10503265Y10667783D01*
X10496326Y10671319D01*
X10488632Y10672538D01*
X10488631Y10672538D01*
X10370896Y10691185D01*
X10363200Y10692404D01*
X10355504Y10691185D01*
X10237769Y10672538D01*
X10237768Y10672538D01*
X10230074Y10671319D01*
X10223135Y10667783D01*
X10223134Y10667783D01*
X10116919Y10613664D01*
X10116917Y10613663D01*
X10109980Y10610128D01*
X10014672Y10514820D01*
X10011137Y10507883D01*
X10011136Y10507881D01*
X9957017Y10401666D01*
X9953481Y10394726D01*
X9952262Y10387032D01*
X9952262Y10387031D01*
X9944307Y10336804D01*
X9932396Y10261600D01*
X6609110Y10261600D01*
X6529720Y10340990D01*
X6522783Y10344525D01*
X6522781Y10344526D01*
X6416566Y10398645D01*
X6416565Y10398645D01*
X6409626Y10402181D01*
X6401932Y10403400D01*
X6401931Y10403400D01*
X6284196Y10422047D01*
X6276500Y10423266D01*
X6268804Y10422047D01*
X6151069Y10403400D01*
X6151068Y10403400D01*
X6143374Y10402181D01*
X6136435Y10398645D01*
X6136434Y10398645D01*
X6030219Y10344526D01*
X6030217Y10344525D01*
X6023280Y10340990D01*
X5927972Y10245682D01*
X5924437Y10238745D01*
X5924436Y10238743D01*
X5883917Y10159220D01*
X5866781Y10125588D01*
X5845696Y9992462D01*
X200500Y9992462D01*
X200500Y11588796D01*
X219407Y11646987D01*
X268907Y11682951D01*
X330093Y11682951D01*
X379593Y11646987D01*
X387709Y11633742D01*
X413472Y11583180D01*
X508780Y11487872D01*
X515717Y11484337D01*
X515719Y11484336D01*
X565662Y11458889D01*
X628874Y11426681D01*
X636568Y11425462D01*
X636569Y11425462D01*
X754304Y11406815D01*
X762000Y11405596D01*
X769696Y11406815D01*
X887431Y11425462D01*
X887432Y11425462D01*
X895126Y11426681D01*
X958338Y11458889D01*
X1008281Y11484336D01*
X1008283Y11484337D01*
X1015220Y11487872D01*
X1110528Y11583180D01*
X1143040Y11646987D01*
X1168183Y11696334D01*
X1168183Y11696335D01*
X1171719Y11703274D01*
X1192804Y11836400D01*
X1190184Y11852942D01*
X1199755Y11913374D01*
X1243019Y11956638D01*
X1281668Y11976331D01*
X1313081Y11992336D01*
X1313083Y11992337D01*
X1320020Y11995872D01*
X1415328Y12091180D01*
X1421340Y12102978D01*
X1472983Y12204334D01*
X1472983Y12204335D01*
X1476519Y12211274D01*
X1497604Y12344400D01*
X1481512Y12446000D01*
X2871196Y12446000D01*
X2892281Y12312874D01*
X2895817Y12305935D01*
X2895817Y12305934D01*
X2944049Y12211274D01*
X2953472Y12192780D01*
X3048780Y12097472D01*
X3055717Y12093937D01*
X3055719Y12093936D01*
X3128083Y12057065D01*
X3168874Y12036281D01*
X3176568Y12035062D01*
X3176569Y12035062D01*
X3294304Y12016415D01*
X3302000Y12015196D01*
X3309696Y12016415D01*
X3427431Y12035062D01*
X3427432Y12035062D01*
X3435126Y12036281D01*
X3475917Y12057065D01*
X3548281Y12093936D01*
X3548283Y12093937D01*
X3555220Y12097472D01*
X3650528Y12192780D01*
X3659952Y12211274D01*
X3708183Y12305934D01*
X3708183Y12305935D01*
X3711719Y12312874D01*
X3732804Y12446000D01*
X3726712Y12484466D01*
X3712938Y12571431D01*
X3712938Y12571432D01*
X3711719Y12579126D01*
X3705832Y12590681D01*
X3661216Y12678244D01*
X3650528Y12699220D01*
X3651513Y12699722D01*
X3634918Y12750806D01*
X3651513Y12801878D01*
X3650528Y12802380D01*
X3653695Y12808596D01*
X3700207Y12899881D01*
X3708183Y12915534D01*
X3708183Y12915535D01*
X3711719Y12922474D01*
X3714239Y12938381D01*
X3716713Y12954000D01*
X14402796Y12954000D01*
X14404015Y12946304D01*
X14421634Y12835063D01*
X14423881Y12820874D01*
X14427417Y12813935D01*
X14427417Y12813934D01*
X14477704Y12715241D01*
X14485072Y12700780D01*
X14580380Y12605472D01*
X14587317Y12601937D01*
X14587319Y12601936D01*
X14647189Y12571431D01*
X14700474Y12544281D01*
X14708168Y12543062D01*
X14708169Y12543062D01*
X14825904Y12524415D01*
X14833600Y12523196D01*
X14841296Y12524415D01*
X14959031Y12543062D01*
X14959032Y12543062D01*
X14966726Y12544281D01*
X15042656Y12582969D01*
X15103087Y12592540D01*
X15132544Y12582969D01*
X15208474Y12544281D01*
X15216168Y12543062D01*
X15216169Y12543062D01*
X15333904Y12524415D01*
X15341600Y12523196D01*
X15349296Y12524415D01*
X15467031Y12543062D01*
X15467032Y12543062D01*
X15474726Y12544281D01*
X15528011Y12571431D01*
X15587881Y12601936D01*
X15587883Y12601937D01*
X15594820Y12605472D01*
X15690128Y12700780D01*
X15697497Y12715241D01*
X15747783Y12813934D01*
X15747783Y12813935D01*
X15751319Y12820874D01*
X15753567Y12835063D01*
X15771185Y12946304D01*
X15772404Y12954000D01*
X15751319Y13087126D01*
X15701544Y13184815D01*
X15693664Y13200281D01*
X15693663Y13200283D01*
X15690128Y13207220D01*
X15594820Y13302528D01*
X15587883Y13306063D01*
X15587881Y13306064D01*
X15481666Y13360183D01*
X15481665Y13360183D01*
X15474726Y13363719D01*
X15467032Y13364938D01*
X15467031Y13364938D01*
X15349296Y13383585D01*
X15341600Y13384804D01*
X15333904Y13383585D01*
X15216169Y13364938D01*
X15216168Y13364938D01*
X15208474Y13363719D01*
X15157382Y13337686D01*
X15132545Y13325031D01*
X15072113Y13315460D01*
X15042655Y13325031D01*
X15017819Y13337686D01*
X14966726Y13363719D01*
X14959032Y13364938D01*
X14959031Y13364938D01*
X14841296Y13383585D01*
X14833600Y13384804D01*
X14825904Y13383585D01*
X14708169Y13364938D01*
X14708168Y13364938D01*
X14700474Y13363719D01*
X14693535Y13360183D01*
X14693534Y13360183D01*
X14587319Y13306064D01*
X14587317Y13306063D01*
X14580380Y13302528D01*
X14485072Y13207220D01*
X14481537Y13200283D01*
X14481536Y13200281D01*
X14473656Y13184815D01*
X14423881Y13087126D01*
X14402796Y12954000D01*
X3716713Y12954000D01*
X3731585Y13047904D01*
X3732804Y13055600D01*
X3711719Y13188726D01*
X3705832Y13200281D01*
X3685973Y13239255D01*
X3676402Y13299687D01*
X3685973Y13329145D01*
X3691950Y13340874D01*
X3704795Y13366085D01*
X3708183Y13372734D01*
X3711719Y13379674D01*
X3716762Y13411511D01*
X3731585Y13505104D01*
X3732804Y13512800D01*
X3716712Y13614400D01*
X10440396Y13614400D01*
X10441615Y13606704D01*
X10455238Y13520694D01*
X10461481Y13481274D01*
X10465017Y13474335D01*
X10465017Y13474334D01*
X10513249Y13379674D01*
X10522672Y13361180D01*
X10617980Y13265872D01*
X10624917Y13262337D01*
X10624919Y13262336D01*
X10722285Y13212726D01*
X10738074Y13204681D01*
X10745768Y13203462D01*
X10745769Y13203462D01*
X10863504Y13184815D01*
X10871200Y13183596D01*
X10878896Y13184815D01*
X10996631Y13203462D01*
X10996632Y13203462D01*
X11004326Y13204681D01*
X11020115Y13212726D01*
X11117481Y13262336D01*
X11117483Y13262337D01*
X11124420Y13265872D01*
X11219728Y13361180D01*
X11229152Y13379674D01*
X11277383Y13474334D01*
X11277383Y13474335D01*
X11280919Y13481274D01*
X11287163Y13520694D01*
X11300785Y13606704D01*
X11302004Y13614400D01*
X11294298Y13663055D01*
X11282138Y13739831D01*
X11282138Y13739832D01*
X11280919Y13747526D01*
X11267495Y13773872D01*
X11223264Y13860681D01*
X11223263Y13860683D01*
X11219728Y13867620D01*
X11124420Y13962928D01*
X11117483Y13966463D01*
X11117481Y13966464D01*
X11011266Y14020583D01*
X11011265Y14020583D01*
X11004326Y14024119D01*
X10996632Y14025338D01*
X10996631Y14025338D01*
X10878896Y14043985D01*
X10871200Y14045204D01*
X10863504Y14043985D01*
X10745769Y14025338D01*
X10745768Y14025338D01*
X10738074Y14024119D01*
X10731135Y14020583D01*
X10731134Y14020583D01*
X10624919Y13966464D01*
X10624917Y13966463D01*
X10617980Y13962928D01*
X10522672Y13867620D01*
X10519137Y13860683D01*
X10519136Y13860681D01*
X10474905Y13773872D01*
X10461481Y13747526D01*
X10460262Y13739832D01*
X10460262Y13739831D01*
X10448102Y13663055D01*
X10440396Y13614400D01*
X3716712Y13614400D01*
X3711719Y13645926D01*
X3660089Y13747256D01*
X3650518Y13807687D01*
X3660089Y13837145D01*
X3678423Y13873126D01*
X3702296Y13919980D01*
X3708183Y13931534D01*
X3708183Y13931535D01*
X3711719Y13938474D01*
X3720351Y13992971D01*
X3731585Y14063904D01*
X3732804Y14071600D01*
X3716712Y14173200D01*
X5715996Y14173200D01*
X5737081Y14040074D01*
X5740617Y14033135D01*
X5740617Y14033134D01*
X5788849Y13938474D01*
X5798272Y13919980D01*
X5893580Y13824672D01*
X5900517Y13821137D01*
X5900519Y13821136D01*
X6000220Y13770336D01*
X6013674Y13763481D01*
X6021368Y13762262D01*
X6021369Y13762262D01*
X6139104Y13743615D01*
X6146800Y13742396D01*
X6154496Y13743615D01*
X6272231Y13762262D01*
X6272232Y13762262D01*
X6279926Y13763481D01*
X6293380Y13770336D01*
X6393081Y13821136D01*
X6393083Y13821137D01*
X6400020Y13824672D01*
X6495328Y13919980D01*
X6504752Y13938474D01*
X6552983Y14033134D01*
X6552983Y14033135D01*
X6556519Y14040074D01*
X6569558Y14122400D01*
X7951196Y14122400D01*
X7952415Y14114704D01*
X7970879Y13998129D01*
X7972281Y13989274D01*
X7975817Y13982335D01*
X7975817Y13982334D01*
X8010394Y13914474D01*
X8033472Y13869180D01*
X8128780Y13773872D01*
X8135717Y13770337D01*
X8135719Y13770336D01*
X8195589Y13739831D01*
X8248874Y13712681D01*
X8256568Y13711462D01*
X8256569Y13711462D01*
X8374304Y13692815D01*
X8382000Y13691596D01*
X8389696Y13692815D01*
X8507431Y13711462D01*
X8507432Y13711462D01*
X8515126Y13712681D01*
X8568411Y13739831D01*
X8628281Y13770336D01*
X8628283Y13770337D01*
X8635220Y13773872D01*
X8730528Y13869180D01*
X8753607Y13914474D01*
X8788183Y13982334D01*
X8788183Y13982335D01*
X8791719Y13989274D01*
X8793122Y13998129D01*
X8811585Y14114704D01*
X8812804Y14122400D01*
X8791719Y14255526D01*
X8756412Y14324820D01*
X8734064Y14368681D01*
X8734063Y14368683D01*
X8730528Y14375620D01*
X8635220Y14470928D01*
X8628283Y14474463D01*
X8628281Y14474464D01*
X8522066Y14528583D01*
X8522065Y14528583D01*
X8515126Y14532119D01*
X8507432Y14533338D01*
X8507431Y14533338D01*
X8389696Y14551985D01*
X8382000Y14553204D01*
X8374304Y14551985D01*
X8256569Y14533338D01*
X8256568Y14533338D01*
X8248874Y14532119D01*
X8241935Y14528583D01*
X8241934Y14528583D01*
X8135719Y14474464D01*
X8135717Y14474463D01*
X8128780Y14470928D01*
X8033472Y14375620D01*
X8029937Y14368683D01*
X8029936Y14368681D01*
X8007588Y14324820D01*
X7972281Y14255526D01*
X7951196Y14122400D01*
X6569558Y14122400D01*
X6577604Y14173200D01*
X6556519Y14306326D01*
X6552983Y14313266D01*
X6498864Y14419481D01*
X6498863Y14419483D01*
X6495328Y14426420D01*
X6400020Y14521728D01*
X6393083Y14525263D01*
X6393081Y14525264D01*
X6286866Y14579383D01*
X6286865Y14579383D01*
X6279926Y14582919D01*
X6272232Y14584138D01*
X6272231Y14584138D01*
X6154496Y14602785D01*
X6146800Y14604004D01*
X6139104Y14602785D01*
X6021369Y14584138D01*
X6021368Y14584138D01*
X6013674Y14582919D01*
X6006735Y14579383D01*
X6006734Y14579383D01*
X5900519Y14525264D01*
X5900517Y14525263D01*
X5893580Y14521728D01*
X5798272Y14426420D01*
X5794737Y14419483D01*
X5794736Y14419481D01*
X5740617Y14313266D01*
X5737081Y14306326D01*
X5715996Y14173200D01*
X3716712Y14173200D01*
X3716269Y14176000D01*
X3712938Y14197031D01*
X3712938Y14197032D01*
X3711719Y14204726D01*
X3662273Y14301769D01*
X3654064Y14317881D01*
X3654063Y14317883D01*
X3650528Y14324820D01*
X3555220Y14420128D01*
X3548283Y14423663D01*
X3548281Y14423664D01*
X3442066Y14477783D01*
X3442065Y14477783D01*
X3435126Y14481319D01*
X3427432Y14482538D01*
X3427431Y14482538D01*
X3309696Y14501185D01*
X3302000Y14502404D01*
X3294304Y14501185D01*
X3176569Y14482538D01*
X3176568Y14482538D01*
X3168874Y14481319D01*
X3161935Y14477783D01*
X3161934Y14477783D01*
X3055719Y14423664D01*
X3055717Y14423663D01*
X3048780Y14420128D01*
X2953472Y14324820D01*
X2949937Y14317883D01*
X2949936Y14317881D01*
X2941727Y14301769D01*
X2892281Y14204726D01*
X2891062Y14197032D01*
X2891062Y14197031D01*
X2887731Y14176000D01*
X2871196Y14071600D01*
X2872415Y14063904D01*
X2883650Y13992971D01*
X2892281Y13938474D01*
X2895817Y13931535D01*
X2895817Y13931534D01*
X2901704Y13919980D01*
X2925578Y13873126D01*
X2943911Y13837145D01*
X2953482Y13776713D01*
X2943911Y13747256D01*
X2892281Y13645926D01*
X2871196Y13512800D01*
X2872415Y13505104D01*
X2887239Y13411511D01*
X2892281Y13379674D01*
X2895817Y13372734D01*
X2899205Y13366085D01*
X2912051Y13340874D01*
X2918027Y13329145D01*
X2927598Y13268713D01*
X2918027Y13239255D01*
X2898169Y13200281D01*
X2892281Y13188726D01*
X2871196Y13055600D01*
X2872415Y13047904D01*
X2889762Y12938381D01*
X2892281Y12922474D01*
X2895817Y12915535D01*
X2895817Y12915534D01*
X2903793Y12899881D01*
X2953472Y12802380D01*
X2952487Y12801878D01*
X2969082Y12750794D01*
X2952487Y12699722D01*
X2953472Y12699220D01*
X2942784Y12678244D01*
X2898169Y12590681D01*
X2892281Y12579126D01*
X2891062Y12571432D01*
X2891062Y12571431D01*
X2877288Y12484466D01*
X2871196Y12446000D01*
X1481512Y12446000D01*
X1476519Y12477526D01*
X1452628Y12524415D01*
X1418864Y12590681D01*
X1418863Y12590683D01*
X1415328Y12597620D01*
X1320020Y12692928D01*
X1313081Y12696464D01*
X1313079Y12696465D01*
X1276228Y12715241D01*
X1232963Y12758505D01*
X1223391Y12818937D01*
X1251168Y12873454D01*
X1290580Y12897606D01*
X1293831Y12898662D01*
X1301526Y12899881D01*
X1332247Y12915534D01*
X1414681Y12957536D01*
X1414683Y12957537D01*
X1421620Y12961072D01*
X1516928Y13056380D01*
X1578119Y13176474D01*
X1582394Y13203462D01*
X1597985Y13301904D01*
X1599204Y13309600D01*
X1591907Y13355674D01*
X1579338Y13435031D01*
X1579338Y13435032D01*
X1578119Y13442726D01*
X1546336Y13505104D01*
X1520464Y13555881D01*
X1520463Y13555883D01*
X1516928Y13562820D01*
X1421620Y13658128D01*
X1414683Y13661663D01*
X1414681Y13661664D01*
X1308466Y13715783D01*
X1308465Y13715783D01*
X1301526Y13719319D01*
X1293832Y13720538D01*
X1293831Y13720538D01*
X1176096Y13739185D01*
X1168400Y13740404D01*
X1160704Y13739185D01*
X1042969Y13720538D01*
X1042968Y13720538D01*
X1035274Y13719319D01*
X1028335Y13715783D01*
X1028334Y13715783D01*
X922119Y13661664D01*
X922117Y13661663D01*
X915180Y13658128D01*
X819872Y13562820D01*
X816337Y13555883D01*
X816336Y13555881D01*
X790464Y13505104D01*
X758681Y13442726D01*
X757462Y13435032D01*
X757462Y13435031D01*
X744893Y13355674D01*
X737596Y13309600D01*
X738815Y13301904D01*
X754407Y13203462D01*
X758681Y13176474D01*
X819872Y13056380D01*
X915180Y12961072D01*
X922119Y12957536D01*
X922121Y12957535D01*
X944164Y12946304D01*
X955577Y12940489D01*
X958972Y12938759D01*
X1002237Y12895495D01*
X1011809Y12835063D01*
X984032Y12780546D01*
X944620Y12756394D01*
X941369Y12755338D01*
X933674Y12754119D01*
X926733Y12750582D01*
X926732Y12750582D01*
X820519Y12696464D01*
X820517Y12696463D01*
X813580Y12692928D01*
X808074Y12687422D01*
X801766Y12682839D01*
X799729Y12685642D01*
X758597Y12664685D01*
X698165Y12674256D01*
X648066Y12699783D01*
X648065Y12699783D01*
X641126Y12703319D01*
X633432Y12704538D01*
X633431Y12704538D01*
X515696Y12723185D01*
X508000Y12724404D01*
X500304Y12723185D01*
X382569Y12704538D01*
X382568Y12704538D01*
X374874Y12703319D01*
X367936Y12699784D01*
X367930Y12699782D01*
X344444Y12687815D01*
X284012Y12678244D01*
X229496Y12706022D01*
X201719Y12760539D01*
X200500Y12776025D01*
X200500Y14833600D01*
X10440396Y14833600D01*
X10461481Y14700474D01*
X10465017Y14693535D01*
X10465017Y14693534D01*
X10497988Y14628826D01*
X10522672Y14580380D01*
X10617980Y14485072D01*
X10624917Y14481537D01*
X10624919Y14481536D01*
X10656545Y14465422D01*
X10738074Y14423881D01*
X10745768Y14422662D01*
X10745769Y14422662D01*
X10863504Y14404015D01*
X10871200Y14402796D01*
X10878896Y14404015D01*
X10996631Y14422662D01*
X10996632Y14422662D01*
X11004326Y14423881D01*
X11085855Y14465422D01*
X11117481Y14481536D01*
X11117483Y14481537D01*
X11124420Y14485072D01*
X11136211Y14496863D01*
X11190728Y14524640D01*
X11251160Y14515069D01*
X11294425Y14471804D01*
X11304448Y14430054D01*
X11303996Y14427200D01*
X11325081Y14294074D01*
X11386272Y14173980D01*
X11481580Y14078672D01*
X11488517Y14075137D01*
X11488519Y14075136D01*
X11570953Y14033134D01*
X11601674Y14017481D01*
X11609368Y14016262D01*
X11609369Y14016262D01*
X11697822Y14002253D01*
X11723859Y13998129D01*
X11727104Y13997615D01*
X11734800Y13996396D01*
X11742496Y13997615D01*
X11745742Y13998129D01*
X11771777Y14002253D01*
X11860231Y14016262D01*
X11860232Y14016262D01*
X11867926Y14017481D01*
X11898647Y14033134D01*
X11981081Y14075136D01*
X11981083Y14075137D01*
X11988020Y14078672D01*
X12083328Y14173980D01*
X12086676Y14180551D01*
X12136007Y14216392D01*
X12197192Y14216393D01*
X12246524Y14180551D01*
X12249872Y14173980D01*
X12345180Y14078672D01*
X12352117Y14075137D01*
X12352119Y14075136D01*
X12434553Y14033134D01*
X12465274Y14017481D01*
X12472968Y14016262D01*
X12472969Y14016262D01*
X12561422Y14002253D01*
X12587459Y13998129D01*
X12590704Y13997615D01*
X12598400Y13996396D01*
X12606096Y13997615D01*
X12609342Y13998129D01*
X12635377Y14002253D01*
X12723831Y14016262D01*
X12723832Y14016262D01*
X12731526Y14017481D01*
X12762247Y14033134D01*
X12844681Y14075136D01*
X12844683Y14075137D01*
X12851620Y14078672D01*
X12946928Y14173980D01*
X13008119Y14294074D01*
X13029204Y14427200D01*
X13021718Y14474464D01*
X13009338Y14552631D01*
X13009338Y14552632D01*
X13008119Y14560326D01*
X13004583Y14567266D01*
X12950464Y14673481D01*
X12950463Y14673483D01*
X12946928Y14680420D01*
X12851620Y14775728D01*
X12844683Y14779263D01*
X12844681Y14779264D01*
X12738466Y14833383D01*
X12738465Y14833383D01*
X12731526Y14836919D01*
X12723832Y14838138D01*
X12723831Y14838138D01*
X12606096Y14856785D01*
X12598400Y14858004D01*
X12590704Y14856785D01*
X12472969Y14838138D01*
X12472968Y14838138D01*
X12465274Y14836919D01*
X12458335Y14833383D01*
X12458334Y14833383D01*
X12352119Y14779264D01*
X12352117Y14779263D01*
X12345180Y14775728D01*
X12249872Y14680420D01*
X12246524Y14673849D01*
X12197193Y14638008D01*
X12136008Y14638007D01*
X12086676Y14673849D01*
X12083328Y14680420D01*
X11988020Y14775728D01*
X11981083Y14779263D01*
X11981081Y14779264D01*
X11874866Y14833383D01*
X11874865Y14833383D01*
X11867926Y14836919D01*
X11860232Y14838138D01*
X11860231Y14838138D01*
X11742496Y14856785D01*
X11734800Y14858004D01*
X11727104Y14856785D01*
X11609369Y14838138D01*
X11609368Y14838138D01*
X11601674Y14836919D01*
X11594735Y14833383D01*
X11594734Y14833383D01*
X11488519Y14779264D01*
X11488517Y14779263D01*
X11481580Y14775728D01*
X11469789Y14763937D01*
X11415272Y14736160D01*
X11354840Y14745731D01*
X11311575Y14788996D01*
X11301552Y14830746D01*
X11302004Y14833600D01*
X11289291Y14913868D01*
X11282138Y14959031D01*
X11282138Y14959032D01*
X11280919Y14966726D01*
X11266551Y14994925D01*
X11223264Y15079881D01*
X11223263Y15079883D01*
X11219728Y15086820D01*
X11124420Y15182128D01*
X11117483Y15185663D01*
X11117481Y15185664D01*
X11011266Y15239783D01*
X11011265Y15239783D01*
X11004326Y15243319D01*
X10996632Y15244538D01*
X10996631Y15244538D01*
X10878896Y15263185D01*
X10871200Y15264404D01*
X10863504Y15263185D01*
X10745769Y15244538D01*
X10745768Y15244538D01*
X10738074Y15243319D01*
X10731135Y15239783D01*
X10731134Y15239783D01*
X10624919Y15185664D01*
X10624917Y15185663D01*
X10617980Y15182128D01*
X10522672Y15086820D01*
X10519137Y15079883D01*
X10519136Y15079881D01*
X10475849Y14994925D01*
X10461481Y14966726D01*
X10460262Y14959032D01*
X10460262Y14959031D01*
X10453109Y14913868D01*
X10440396Y14833600D01*
X200500Y14833600D01*
X200500Y15343453D01*
X7916340Y15343453D01*
X7917559Y15335757D01*
X7932760Y15239783D01*
X7937425Y15210327D01*
X7940961Y15203388D01*
X7940961Y15203387D01*
X7976482Y15133674D01*
X7998616Y15090233D01*
X8093924Y14994925D01*
X8100861Y14991390D01*
X8100863Y14991389D01*
X8204898Y14938381D01*
X8214018Y14933734D01*
X8221712Y14932515D01*
X8221713Y14932515D01*
X8339448Y14913868D01*
X8347144Y14912649D01*
X8354840Y14913868D01*
X8472575Y14932515D01*
X8472576Y14932515D01*
X8480270Y14933734D01*
X8489390Y14938381D01*
X8593425Y14991389D01*
X8593427Y14991390D01*
X8600364Y14994925D01*
X8695672Y15090233D01*
X8717807Y15133674D01*
X8753327Y15203387D01*
X8753327Y15203388D01*
X8756863Y15210327D01*
X8761529Y15239783D01*
X8776729Y15335757D01*
X8777948Y15343453D01*
X8756863Y15476579D01*
X8728387Y15532466D01*
X8699208Y15589734D01*
X8699207Y15589736D01*
X8695672Y15596673D01*
X8600364Y15691981D01*
X8593427Y15695516D01*
X8593425Y15695517D01*
X8487210Y15749636D01*
X8487209Y15749636D01*
X8480270Y15753172D01*
X8472576Y15754391D01*
X8472575Y15754391D01*
X8354840Y15773038D01*
X8347144Y15774257D01*
X8339448Y15773038D01*
X8221713Y15754391D01*
X8221712Y15754391D01*
X8214018Y15753172D01*
X8207079Y15749636D01*
X8207078Y15749636D01*
X8100863Y15695517D01*
X8100861Y15695516D01*
X8093924Y15691981D01*
X7998616Y15596673D01*
X7995081Y15589736D01*
X7995080Y15589734D01*
X7965901Y15532466D01*
X7937425Y15476579D01*
X7916340Y15343453D01*
X200500Y15343453D01*
X200500Y17061955D01*
X219407Y17120146D01*
X268907Y17156110D01*
X330093Y17156110D01*
X379593Y17120146D01*
X393411Y17093286D01*
X403864Y17061955D01*
X447058Y16932486D01*
X573687Y16679061D01*
X734761Y16446007D01*
X737127Y16443447D01*
X737133Y16443440D01*
X827885Y16345266D01*
X927065Y16237973D01*
X929775Y16235767D01*
X929779Y16235763D01*
X1121389Y16079769D01*
X1146764Y16059111D01*
X1149756Y16057309D01*
X1149757Y16057309D01*
X1179062Y16039666D01*
X1389472Y15912988D01*
X1408039Y15905126D01*
X1628121Y15811934D01*
X1650348Y15802522D01*
X1924186Y15729915D01*
X1927659Y15729504D01*
X1927664Y15729503D01*
X2141489Y15704195D01*
X2205523Y15696616D01*
X2209011Y15696698D01*
X2209016Y15696698D01*
X2325842Y15699452D01*
X2488745Y15703291D01*
X2768200Y15749805D01*
X2771532Y15750859D01*
X2771537Y15750860D01*
X2884121Y15786466D01*
X3038314Y15835231D01*
X3041472Y15836747D01*
X3041476Y15836749D01*
X3290539Y15956347D01*
X3290545Y15956350D01*
X3293697Y15957864D01*
X3470478Y16075985D01*
X3526341Y16113311D01*
X3526344Y16113313D01*
X3529253Y16115257D01*
X3531861Y16117593D01*
X3531865Y16117596D01*
X3737670Y16301931D01*
X3737673Y16301934D01*
X3740281Y16304270D01*
X3821343Y16400704D01*
X3827812Y16408400D01*
X6297796Y16408400D01*
X6299015Y16400704D01*
X6314289Y16304270D01*
X6318881Y16275274D01*
X6322417Y16268335D01*
X6322417Y16268334D01*
X6354586Y16205200D01*
X6380072Y16155180D01*
X6475380Y16059872D01*
X6482317Y16056337D01*
X6482319Y16056336D01*
X6569552Y16011889D01*
X6595474Y15998681D01*
X6603168Y15997462D01*
X6603169Y15997462D01*
X6720904Y15978815D01*
X6728600Y15977596D01*
X6736296Y15978815D01*
X6854031Y15997462D01*
X6854032Y15997462D01*
X6861726Y15998681D01*
X6887648Y16011889D01*
X6974881Y16056336D01*
X6974883Y16056337D01*
X6981820Y16059872D01*
X7077128Y16155180D01*
X7102615Y16205200D01*
X10491196Y16205200D01*
X10492415Y16197504D01*
X10505442Y16115257D01*
X10512281Y16072074D01*
X10515817Y16065135D01*
X10515817Y16065134D01*
X10550298Y15997462D01*
X10573472Y15951980D01*
X10668780Y15856672D01*
X10675717Y15853137D01*
X10675719Y15853136D01*
X10781932Y15799018D01*
X10788874Y15795481D01*
X10796568Y15794262D01*
X10796569Y15794262D01*
X10914304Y15775615D01*
X10922000Y15774396D01*
X10929696Y15775615D01*
X11047431Y15794262D01*
X11047432Y15794262D01*
X11055126Y15795481D01*
X11062066Y15799017D01*
X11062069Y15799018D01*
X11123146Y15830139D01*
X11183578Y15839711D01*
X11238095Y15811934D01*
X11265873Y15757418D01*
X11265873Y15726444D01*
X11260415Y15691981D01*
X11253196Y15646400D01*
X11274281Y15513274D01*
X11277817Y15506335D01*
X11277817Y15506334D01*
X11288089Y15486175D01*
X11335472Y15393180D01*
X11430780Y15297872D01*
X11437717Y15294337D01*
X11437719Y15294336D01*
X11520153Y15252334D01*
X11550874Y15236681D01*
X11558568Y15235462D01*
X11558569Y15235462D01*
X11676304Y15216815D01*
X11684000Y15215596D01*
X11691696Y15216815D01*
X11809431Y15235462D01*
X11809432Y15235462D01*
X11817126Y15236681D01*
X11847847Y15252334D01*
X11930281Y15294336D01*
X11930283Y15294337D01*
X11937220Y15297872D01*
X12032528Y15393180D01*
X12052990Y15433339D01*
X12096255Y15476604D01*
X12156687Y15486175D01*
X12211204Y15458398D01*
X12229410Y15433339D01*
X12249872Y15393180D01*
X12345180Y15297872D01*
X12352117Y15294337D01*
X12352119Y15294336D01*
X12434553Y15252334D01*
X12465274Y15236681D01*
X12472968Y15235462D01*
X12472969Y15235462D01*
X12590704Y15216815D01*
X12598400Y15215596D01*
X12606096Y15216815D01*
X12723831Y15235462D01*
X12723832Y15235462D01*
X12731526Y15236681D01*
X12762247Y15252334D01*
X12844681Y15294336D01*
X12844683Y15294337D01*
X12851620Y15297872D01*
X12946928Y15393180D01*
X12994312Y15486175D01*
X13004583Y15506334D01*
X13004583Y15506335D01*
X13008119Y15513274D01*
X13029204Y15646400D01*
X13012853Y15749636D01*
X13009338Y15771831D01*
X13009338Y15771832D01*
X13008119Y15779526D01*
X12998187Y15799018D01*
X12950464Y15892681D01*
X12950463Y15892683D01*
X12946928Y15899620D01*
X12851620Y15994928D01*
X12844683Y15998463D01*
X12844681Y15998464D01*
X12738466Y16052583D01*
X12738465Y16052583D01*
X12731526Y16056119D01*
X12723832Y16057338D01*
X12723831Y16057338D01*
X12606096Y16075985D01*
X12598400Y16077204D01*
X12590704Y16075985D01*
X12472969Y16057338D01*
X12472968Y16057338D01*
X12465274Y16056119D01*
X12458335Y16052583D01*
X12458334Y16052583D01*
X12352119Y15998464D01*
X12352117Y15998463D01*
X12345180Y15994928D01*
X12249872Y15899620D01*
X12246337Y15892683D01*
X12246336Y15892681D01*
X12229410Y15859461D01*
X12186145Y15816196D01*
X12125713Y15806625D01*
X12071196Y15834402D01*
X12052990Y15859461D01*
X12036064Y15892681D01*
X12036063Y15892683D01*
X12032528Y15899620D01*
X11937220Y15994928D01*
X11930283Y15998463D01*
X11930281Y15998464D01*
X11824066Y16052583D01*
X11824065Y16052583D01*
X11817126Y16056119D01*
X11809432Y16057338D01*
X11809431Y16057338D01*
X11691696Y16075985D01*
X11684000Y16077204D01*
X11676304Y16075985D01*
X11558569Y16057338D01*
X11558568Y16057338D01*
X11550874Y16056119D01*
X11543934Y16052583D01*
X11543931Y16052582D01*
X11482854Y16021461D01*
X11422422Y16011889D01*
X11367905Y16039666D01*
X11340127Y16094182D01*
X11340127Y16125156D01*
X11351585Y16197502D01*
X11351585Y16197504D01*
X11352804Y16205200D01*
X11342805Y16268334D01*
X11332938Y16330631D01*
X11332938Y16330632D01*
X11331719Y16338326D01*
X11299936Y16400704D01*
X11274064Y16451481D01*
X11274063Y16451483D01*
X11270528Y16458420D01*
X11175220Y16553728D01*
X11168283Y16557263D01*
X11168281Y16557264D01*
X11062066Y16611383D01*
X11062065Y16611383D01*
X11055126Y16614919D01*
X11047432Y16616138D01*
X11047431Y16616138D01*
X10929696Y16634785D01*
X10922000Y16636004D01*
X10914304Y16634785D01*
X10796569Y16616138D01*
X10796568Y16616138D01*
X10788874Y16614919D01*
X10781935Y16611383D01*
X10781934Y16611383D01*
X10675719Y16557264D01*
X10675717Y16557263D01*
X10668780Y16553728D01*
X10573472Y16458420D01*
X10569937Y16451483D01*
X10569936Y16451481D01*
X10544064Y16400704D01*
X10512281Y16338326D01*
X10511062Y16330632D01*
X10511062Y16330631D01*
X10501195Y16268334D01*
X10491196Y16205200D01*
X7102615Y16205200D01*
X7134783Y16268334D01*
X7134783Y16268335D01*
X7138319Y16275274D01*
X7142912Y16304270D01*
X7158185Y16400704D01*
X7159404Y16408400D01*
X7141549Y16521132D01*
X7139538Y16533831D01*
X7139538Y16533832D01*
X7138319Y16541526D01*
X7102725Y16611383D01*
X7080664Y16654681D01*
X7080663Y16654683D01*
X7077128Y16661620D01*
X6981820Y16756928D01*
X6974883Y16760463D01*
X6974881Y16760464D01*
X6868666Y16814583D01*
X6868665Y16814583D01*
X6861726Y16818119D01*
X6854032Y16819338D01*
X6854031Y16819338D01*
X6736296Y16837985D01*
X6728600Y16839204D01*
X6720904Y16837985D01*
X6603169Y16819338D01*
X6603168Y16819338D01*
X6595474Y16818119D01*
X6588535Y16814583D01*
X6588534Y16814583D01*
X6482319Y16760464D01*
X6482317Y16760463D01*
X6475380Y16756928D01*
X6380072Y16661620D01*
X6376537Y16654683D01*
X6376536Y16654681D01*
X6354475Y16611383D01*
X6318881Y16541526D01*
X6317662Y16533832D01*
X6317662Y16533831D01*
X6315651Y16521132D01*
X6297796Y16408400D01*
X3827812Y16408400D01*
X3920317Y16518448D01*
X3920318Y16518449D01*
X3922573Y16521132D01*
X4072489Y16761515D01*
X4187040Y17020624D01*
X4187988Y17023987D01*
X4187991Y17023994D01*
X4262988Y17289917D01*
X4263939Y17293288D01*
X4301652Y17574067D01*
X4301732Y17576600D01*
X4305531Y17697472D01*
X4305531Y17697481D01*
X4305610Y17700000D01*
X4305432Y17702519D01*
X4285849Y17979097D01*
X4285848Y17979103D01*
X4285601Y17982593D01*
X4225975Y18259547D01*
X4156008Y18449200D01*
X6119678Y18449200D01*
X6138915Y18266171D01*
X6140516Y18261244D01*
X6140517Y18261239D01*
X6149081Y18234882D01*
X6195786Y18091141D01*
X6198378Y18086652D01*
X6198380Y18086647D01*
X6258456Y17982593D01*
X6287805Y17931760D01*
X6291273Y17927908D01*
X6291277Y17927903D01*
X6407480Y17798846D01*
X6407484Y17798842D01*
X6410950Y17794993D01*
X6559839Y17686819D01*
X6564571Y17684712D01*
X6564573Y17684711D01*
X6723226Y17614074D01*
X6723229Y17614073D01*
X6727966Y17611964D01*
X6778587Y17601204D01*
X6894418Y17576583D01*
X6907981Y17573700D01*
X7092019Y17573700D01*
X7097088Y17574777D01*
X7097093Y17574778D01*
X7248100Y17606876D01*
X7308950Y17600480D01*
X7354419Y17559539D01*
X7367141Y17499691D01*
X7338687Y17440035D01*
X7322272Y17423620D01*
X7261081Y17303526D01*
X7259862Y17295832D01*
X7259862Y17295831D01*
X7245853Y17207378D01*
X7239996Y17170400D01*
X7241215Y17162704D01*
X7252210Y17093286D01*
X7261081Y17037274D01*
X7264617Y17030335D01*
X7264617Y17030334D01*
X7269565Y17020624D01*
X7322272Y16917180D01*
X7417580Y16821872D01*
X7424517Y16818337D01*
X7424519Y16818336D01*
X7431885Y16814583D01*
X7537674Y16760681D01*
X7545368Y16759462D01*
X7545369Y16759462D01*
X7663104Y16740815D01*
X7670800Y16739596D01*
X7678496Y16740815D01*
X7796231Y16759462D01*
X7796232Y16759462D01*
X7803926Y16760681D01*
X7909715Y16814583D01*
X7917081Y16818336D01*
X7917083Y16818337D01*
X7924020Y16821872D01*
X8019328Y16917180D01*
X8072036Y17020624D01*
X8076983Y17030334D01*
X8076983Y17030335D01*
X8080519Y17037274D01*
X8089391Y17093286D01*
X8100385Y17162704D01*
X8101604Y17170400D01*
X8095747Y17207378D01*
X8081738Y17295831D01*
X8081738Y17295832D01*
X8080519Y17303526D01*
X8019328Y17423620D01*
X7924020Y17518928D01*
X7917083Y17522463D01*
X7917081Y17522464D01*
X7810866Y17576583D01*
X7810865Y17576583D01*
X7803926Y17580119D01*
X7796232Y17581338D01*
X7796231Y17581338D01*
X7678496Y17599985D01*
X7670800Y17601204D01*
X7663104Y17599985D01*
X7663102Y17599985D01*
X7632465Y17595133D01*
X7572033Y17604705D01*
X7528769Y17647970D01*
X7519198Y17708402D01*
X7546976Y17762918D01*
X7558789Y17773007D01*
X7584854Y17791944D01*
X7584856Y17791946D01*
X7589050Y17794993D01*
X7592516Y17798842D01*
X7592520Y17798846D01*
X7708723Y17927903D01*
X7708727Y17927908D01*
X7712195Y17931760D01*
X7741544Y17982593D01*
X7801620Y18086647D01*
X7801622Y18086652D01*
X7804214Y18091141D01*
X7850919Y18234882D01*
X7859483Y18261239D01*
X7859484Y18261244D01*
X7861085Y18266171D01*
X7880322Y18449200D01*
X8119678Y18449200D01*
X8138915Y18266171D01*
X8140516Y18261244D01*
X8140517Y18261239D01*
X8149081Y18234882D01*
X8195786Y18091141D01*
X8198378Y18086652D01*
X8198380Y18086647D01*
X8258456Y17982593D01*
X8287805Y17931760D01*
X8291273Y17927908D01*
X8291277Y17927903D01*
X8407480Y17798846D01*
X8407484Y17798842D01*
X8410950Y17794993D01*
X8559839Y17686819D01*
X8564571Y17684712D01*
X8564573Y17684711D01*
X8723226Y17614074D01*
X8723229Y17614073D01*
X8727966Y17611964D01*
X8778587Y17601204D01*
X8894418Y17576583D01*
X8907981Y17573700D01*
X9092019Y17573700D01*
X9105583Y17576583D01*
X9221413Y17601204D01*
X9272034Y17611964D01*
X9276771Y17614073D01*
X9276774Y17614074D01*
X9435427Y17684711D01*
X9435429Y17684712D01*
X9440161Y17686819D01*
X9589050Y17794993D01*
X9592516Y17798842D01*
X9592520Y17798846D01*
X9708723Y17927903D01*
X9708727Y17927908D01*
X9712195Y17931760D01*
X9741544Y17982593D01*
X9801620Y18086647D01*
X9801622Y18086652D01*
X9804214Y18091141D01*
X9850919Y18234882D01*
X9859483Y18261239D01*
X9859484Y18261244D01*
X9861085Y18266171D01*
X9880322Y18449200D01*
X10119678Y18449200D01*
X10138915Y18266171D01*
X10140516Y18261244D01*
X10140517Y18261239D01*
X10149081Y18234882D01*
X10195786Y18091141D01*
X10198378Y18086652D01*
X10198380Y18086647D01*
X10258456Y17982593D01*
X10287805Y17931760D01*
X10291273Y17927908D01*
X10291277Y17927903D01*
X10407480Y17798846D01*
X10407484Y17798842D01*
X10410950Y17794993D01*
X10559839Y17686819D01*
X10564571Y17684712D01*
X10564573Y17684711D01*
X10723226Y17614074D01*
X10723229Y17614073D01*
X10727966Y17611964D01*
X10778587Y17601204D01*
X10894418Y17576583D01*
X10907981Y17573700D01*
X11092019Y17573700D01*
X11105583Y17576583D01*
X11221413Y17601204D01*
X11272034Y17611964D01*
X11276771Y17614073D01*
X11276774Y17614074D01*
X11435427Y17684711D01*
X11435429Y17684712D01*
X11440161Y17686819D01*
X11533250Y17754452D01*
X12124500Y17754452D01*
X12136133Y17695969D01*
X12180448Y17629648D01*
X12246769Y17585333D01*
X12256332Y17583431D01*
X12256334Y17583430D01*
X12279005Y17578921D01*
X12305252Y17573700D01*
X13694748Y17573700D01*
X13720995Y17578921D01*
X13743666Y17583430D01*
X13743668Y17583431D01*
X13753231Y17585333D01*
X13819552Y17629648D01*
X13863867Y17695969D01*
X13875500Y17754452D01*
X13875500Y19143948D01*
X13863867Y19202431D01*
X13819552Y19268752D01*
X13753231Y19313067D01*
X13743668Y19314969D01*
X13743666Y19314970D01*
X13720995Y19319479D01*
X13694748Y19324700D01*
X12305252Y19324700D01*
X12279005Y19319479D01*
X12256334Y19314970D01*
X12256332Y19314969D01*
X12246769Y19313067D01*
X12180448Y19268752D01*
X12136133Y19202431D01*
X12124500Y19143948D01*
X12124500Y17754452D01*
X11533250Y17754452D01*
X11589050Y17794993D01*
X11592516Y17798842D01*
X11592520Y17798846D01*
X11708723Y17927903D01*
X11708727Y17927908D01*
X11712195Y17931760D01*
X11741544Y17982593D01*
X11801620Y18086647D01*
X11801622Y18086652D01*
X11804214Y18091141D01*
X11850919Y18234882D01*
X11859483Y18261239D01*
X11859484Y18261244D01*
X11861085Y18266171D01*
X11880322Y18449200D01*
X11861085Y18632229D01*
X11859484Y18637156D01*
X11859483Y18637161D01*
X11805816Y18802328D01*
X11804214Y18807259D01*
X11801622Y18811748D01*
X11801620Y18811753D01*
X11714790Y18962145D01*
X11712195Y18966640D01*
X11708727Y18970492D01*
X11708723Y18970497D01*
X11592520Y19099554D01*
X11592516Y19099558D01*
X11589050Y19103407D01*
X11440161Y19211581D01*
X11435429Y19213688D01*
X11435427Y19213689D01*
X11276774Y19284326D01*
X11276771Y19284327D01*
X11272034Y19286436D01*
X11146747Y19313067D01*
X11097091Y19323622D01*
X11097090Y19323622D01*
X11092019Y19324700D01*
X10907981Y19324700D01*
X10902910Y19323622D01*
X10902909Y19323622D01*
X10853253Y19313067D01*
X10727966Y19286436D01*
X10723229Y19284327D01*
X10723226Y19284326D01*
X10564573Y19213689D01*
X10564571Y19213688D01*
X10559839Y19211581D01*
X10410950Y19103407D01*
X10407484Y19099558D01*
X10407480Y19099554D01*
X10291277Y18970497D01*
X10291273Y18970492D01*
X10287805Y18966640D01*
X10285210Y18962145D01*
X10198380Y18811753D01*
X10198378Y18811748D01*
X10195786Y18807259D01*
X10194184Y18802328D01*
X10140517Y18637161D01*
X10140516Y18637156D01*
X10138915Y18632229D01*
X10119678Y18449200D01*
X9880322Y18449200D01*
X9861085Y18632229D01*
X9859484Y18637156D01*
X9859483Y18637161D01*
X9805816Y18802328D01*
X9804214Y18807259D01*
X9801622Y18811748D01*
X9801620Y18811753D01*
X9714790Y18962145D01*
X9712195Y18966640D01*
X9708727Y18970492D01*
X9708723Y18970497D01*
X9592520Y19099554D01*
X9592516Y19099558D01*
X9589050Y19103407D01*
X9440161Y19211581D01*
X9435429Y19213688D01*
X9435427Y19213689D01*
X9276774Y19284326D01*
X9276771Y19284327D01*
X9272034Y19286436D01*
X9146747Y19313067D01*
X9097091Y19323622D01*
X9097090Y19323622D01*
X9092019Y19324700D01*
X8907981Y19324700D01*
X8902910Y19323622D01*
X8902909Y19323622D01*
X8853253Y19313067D01*
X8727966Y19286436D01*
X8723229Y19284327D01*
X8723226Y19284326D01*
X8564573Y19213689D01*
X8564571Y19213688D01*
X8559839Y19211581D01*
X8410950Y19103407D01*
X8407484Y19099558D01*
X8407480Y19099554D01*
X8291277Y18970497D01*
X8291273Y18970492D01*
X8287805Y18966640D01*
X8285210Y18962145D01*
X8198380Y18811753D01*
X8198378Y18811748D01*
X8195786Y18807259D01*
X8194184Y18802328D01*
X8140517Y18637161D01*
X8140516Y18637156D01*
X8138915Y18632229D01*
X8119678Y18449200D01*
X7880322Y18449200D01*
X7861085Y18632229D01*
X7859484Y18637156D01*
X7859483Y18637161D01*
X7805816Y18802328D01*
X7804214Y18807259D01*
X7801622Y18811748D01*
X7801620Y18811753D01*
X7714790Y18962145D01*
X7712195Y18966640D01*
X7708727Y18970492D01*
X7708723Y18970497D01*
X7592520Y19099554D01*
X7592516Y19099558D01*
X7589050Y19103407D01*
X7440161Y19211581D01*
X7435429Y19213688D01*
X7435427Y19213689D01*
X7276774Y19284326D01*
X7276771Y19284327D01*
X7272034Y19286436D01*
X7146747Y19313067D01*
X7097091Y19323622D01*
X7097090Y19323622D01*
X7092019Y19324700D01*
X6907981Y19324700D01*
X6902910Y19323622D01*
X6902909Y19323622D01*
X6853253Y19313067D01*
X6727966Y19286436D01*
X6723229Y19284327D01*
X6723226Y19284326D01*
X6564573Y19213689D01*
X6564571Y19213688D01*
X6559839Y19211581D01*
X6410950Y19103407D01*
X6407484Y19099558D01*
X6407480Y19099554D01*
X6291277Y18970497D01*
X6291273Y18970492D01*
X6287805Y18966640D01*
X6285210Y18962145D01*
X6198380Y18811753D01*
X6198378Y18811748D01*
X6195786Y18807259D01*
X6194184Y18802328D01*
X6140517Y18637161D01*
X6140516Y18637156D01*
X6138915Y18632229D01*
X6119678Y18449200D01*
X4156008Y18449200D01*
X4127920Y18525337D01*
X4076202Y18621187D01*
X3995054Y18771582D01*
X3995053Y18771584D01*
X3993393Y18774660D01*
X3825078Y19002540D01*
X3626334Y19204430D01*
X3401126Y19376304D01*
X3398069Y19378016D01*
X3398066Y19378018D01*
X3157006Y19513017D01*
X3157005Y19513018D01*
X3153947Y19514730D01*
X2912422Y19608169D01*
X2864973Y19646798D01*
X2849292Y19705940D01*
X2871368Y19763004D01*
X2922769Y19796193D01*
X2948142Y19799500D01*
X17059851Y19799500D01*
X17118042Y19780593D01*
G37*
%TD.AperFunction*%
%TD*%
M02*
