%TF.GenerationSoftware,KiCad,Pcbnew,(6.0.7)*%
%TF.CreationDate,2024-01-02T21:25:37+08:00*%
%TF.ProjectId,stepper-motor-20,73746570-7065-4722-9d6d-6f746f722d32,1*%
%TF.SameCoordinates,PX6979f40PYa1135a0*%
%TF.FileFunction,Copper,L4,Bot*%
%TF.FilePolarity,Positive*%
%FSLAX46Y46*%
G04 Gerber Fmt 4.6, Leading zero omitted, Abs format (unit mm)*
G04 Created by KiCad (PCBNEW (6.0.7)) date 2024-01-02 21:25:37*
%MOMM*%
%LPD*%
G01*
G04 APERTURE LIST*
G04 Aperture macros list*
%AMRoundRect*
0 Rectangle with rounded corners*
0 $1 Rounding radius*
0 $2 $3 $4 $5 $6 $7 $8 $9 X,Y pos of 4 corners*
0 Add a 4 corners polygon primitive as box body*
4,1,4,$2,$3,$4,$5,$6,$7,$8,$9,$2,$3,0*
0 Add four circle primitives for the rounded corners*
1,1,$1+$1,$2,$3*
1,1,$1+$1,$4,$5*
1,1,$1+$1,$6,$7*
1,1,$1+$1,$8,$9*
0 Add four rect primitives between the rounded corners*
20,1,$1+$1,$2,$3,$4,$5,0*
20,1,$1+$1,$4,$5,$6,$7,0*
20,1,$1+$1,$6,$7,$8,$9,0*
20,1,$1+$1,$8,$9,$2,$3,0*%
G04 Aperture macros list end*
%TA.AperFunction,ComponentPad*%
%ADD10C,0.600000*%
%TD*%
%TA.AperFunction,ComponentPad*%
%ADD11C,3.600000*%
%TD*%
%TA.AperFunction,ComponentPad*%
%ADD12R,0.850000X0.850000*%
%TD*%
%TA.AperFunction,ComponentPad*%
%ADD13O,0.850000X0.850000*%
%TD*%
%TA.AperFunction,ComponentPad*%
%ADD14R,1.350000X1.350000*%
%TD*%
%TA.AperFunction,ComponentPad*%
%ADD15O,1.350000X1.350000*%
%TD*%
%TA.AperFunction,SMDPad,CuDef*%
%ADD16RoundRect,0.250000X-0.325000X-0.650000X0.325000X-0.650000X0.325000X0.650000X-0.325000X0.650000X0*%
%TD*%
%TA.AperFunction,SMDPad,CuDef*%
%ADD17RoundRect,0.250000X-0.650000X0.325000X-0.650000X-0.325000X0.650000X-0.325000X0.650000X0.325000X0*%
%TD*%
%TA.AperFunction,SMDPad,CuDef*%
%ADD18RoundRect,0.250000X0.650000X-0.325000X0.650000X0.325000X-0.650000X0.325000X-0.650000X-0.325000X0*%
%TD*%
%TA.AperFunction,SMDPad,CuDef*%
%ADD19RoundRect,0.162500X-0.825000X-0.162500X0.825000X-0.162500X0.825000X0.162500X-0.825000X0.162500X0*%
%TD*%
%TA.AperFunction,SMDPad,CuDef*%
%ADD20RoundRect,0.150000X0.150000X-0.825000X0.150000X0.825000X-0.150000X0.825000X-0.150000X-0.825000X0*%
%TD*%
%TA.AperFunction,SMDPad,CuDef*%
%ADD21RoundRect,0.140000X0.140000X0.170000X-0.140000X0.170000X-0.140000X-0.170000X0.140000X-0.170000X0*%
%TD*%
%TA.AperFunction,ViaPad*%
%ADD22C,0.450000*%
%TD*%
%TA.AperFunction,ViaPad*%
%ADD23C,0.430000*%
%TD*%
%TA.AperFunction,Conductor*%
%ADD24C,0.160000*%
%TD*%
%TA.AperFunction,Conductor*%
%ADD25C,0.406400*%
%TD*%
%TA.AperFunction,Conductor*%
%ADD26C,0.254000*%
%TD*%
%TA.AperFunction,Conductor*%
%ADD27C,0.177800*%
%TD*%
G04 APERTURE END LIST*
D10*
%TO.P,H1,1,1*%
%TO.N,GND*%
X16582400Y3265200D03*
X17700000Y3773200D03*
X17700000Y826800D03*
X19173200Y2300000D03*
X18665200Y1182400D03*
X18665200Y3417600D03*
X16633200Y1284000D03*
X16226800Y2300000D03*
D11*
X17700000Y2300000D03*
%TD*%
D10*
%TO.P,H2,1,1*%
%TO.N,GND*%
X2300000Y19173200D03*
X3265200Y16582400D03*
D11*
X2300000Y17700000D03*
D10*
X2300000Y16226800D03*
X3773200Y17700000D03*
X826800Y17700000D03*
X1233200Y16684000D03*
X3265200Y18817600D03*
X1182400Y18665200D03*
%TD*%
D11*
%TO.P,H3,1,1*%
%TO.N,GND*%
X17700000Y17700000D03*
D10*
X18665200Y16582400D03*
X18665200Y18817600D03*
X16633200Y16684000D03*
X16226800Y17700000D03*
X17700000Y16226800D03*
X16582400Y18665200D03*
X17700000Y19173200D03*
X19173200Y17700000D03*
%TD*%
D12*
%TO.P,J2,1,Pin_1*%
%TO.N,SWCLK*%
X7162800Y711200D03*
D13*
%TO.P,J2,2,Pin_2*%
%TO.N,SWDIO*%
X6162800Y711200D03*
%TO.P,J2,3,Pin_3*%
%TO.N,VCC*%
X5162800Y711200D03*
%TO.P,J2,4,Pin_4*%
%TO.N,GND*%
X4162800Y711200D03*
%TD*%
D14*
%TO.P,J3,1,Pin_1*%
%TO.N,Net-(J3-Pad1)*%
X19050000Y8176000D03*
D15*
%TO.P,J3,2,Pin_2*%
%TO.N,Net-(J3-Pad2)*%
X19050000Y10176000D03*
%TO.P,J3,3,Pin_3*%
%TO.N,Net-(J3-Pad3)*%
X19050000Y12176000D03*
%TO.P,J3,4,Pin_4*%
%TO.N,Net-(J3-Pad4)*%
X19050000Y14176000D03*
%TD*%
D10*
%TO.P,H4,1,1*%
%TO.N,GND*%
X3265200Y3417600D03*
X1182400Y3265200D03*
X826800Y2300000D03*
X3773200Y2300000D03*
X2300000Y826800D03*
X3265200Y1182400D03*
X2300000Y3773200D03*
D11*
X2300000Y2300000D03*
D10*
X1233200Y1284000D03*
%TD*%
D14*
%TO.P,J1,1,Pin_1*%
%TO.N,GND*%
X13000000Y18449200D03*
D15*
%TO.P,J1,2,Pin_2*%
%TO.N,V_SUPPLY*%
X11000000Y18449200D03*
%TO.P,J1,3,Pin_3*%
%TO.N,/RS485/RS485_A*%
X9000000Y18449200D03*
%TO.P,J1,4,Pin_4*%
%TO.N,/RS485/RS485_B*%
X7000000Y18449200D03*
%TD*%
D16*
%TO.P,C13,1*%
%TO.N,GND*%
X11479000Y14020800D03*
%TO.P,C13,2*%
%TO.N,V_SUPPLY*%
X14429000Y14020800D03*
%TD*%
D17*
%TO.P,C14,1*%
%TO.N,GND*%
X16662400Y9806200D03*
%TO.P,C14,2*%
%TO.N,V_SUPPLY*%
X16662400Y6856200D03*
%TD*%
D16*
%TO.P,C17,1*%
%TO.N,GND*%
X11479000Y16052800D03*
%TO.P,C17,2*%
%TO.N,V_SUPPLY*%
X14429000Y16052800D03*
%TD*%
%TO.P,C18,1*%
%TO.N,GND*%
X11479000Y4419600D03*
%TO.P,C18,2*%
%TO.N,V_SUPPLY*%
X14429000Y4419600D03*
%TD*%
D18*
%TO.P,C21,1*%
%TO.N,GND*%
X16662400Y11529800D03*
%TO.P,C21,2*%
%TO.N,V_SUPPLY*%
X16662400Y14479800D03*
%TD*%
D16*
%TO.P,C22,1*%
%TO.N,GND*%
X11479000Y6502400D03*
%TO.P,C22,2*%
%TO.N,V_SUPPLY*%
X14429000Y6502400D03*
%TD*%
D19*
%TO.P,U1,1,CSN*%
%TO.N,/MT6816_CS*%
X7462500Y8095000D03*
%TO.P,U1,2,HVPP*%
%TO.N,VCC*%
X7462500Y9365000D03*
%TO.P,U1,3,OUT*%
%TO.N,unconnected-(U1-Pad3)*%
X7462500Y10635000D03*
%TO.P,U1,4,VDD*%
%TO.N,VCC*%
X7462500Y11905000D03*
%TO.P,U1,5,A/U*%
%TO.N,/SPI1_MOSI*%
X12537500Y11905000D03*
%TO.P,U1,6,B/V*%
%TO.N,/SPI1_MISO*%
X12537500Y10635000D03*
%TO.P,U1,7,Z/W*%
%TO.N,/SPI1_SCK*%
X12537500Y9365000D03*
%TO.P,U1,8,GND*%
%TO.N,GND*%
X12537500Y8095000D03*
%TD*%
D20*
%TO.P,U6,1,RO*%
%TO.N,/UART0_RX*%
X4495800Y5449800D03*
%TO.P,U6,2,~{RE}*%
%TO.N,/485_RE*%
X3225800Y5449800D03*
%TO.P,U6,3,DE*%
X1955800Y5449800D03*
%TO.P,U6,4,DI*%
%TO.N,/UART0_TX*%
X685800Y5449800D03*
%TO.P,U6,5,GND*%
%TO.N,GND*%
X685800Y10399800D03*
%TO.P,U6,6,A*%
%TO.N,/RS485/RS485_A*%
X1955800Y10399800D03*
%TO.P,U6,7,B*%
%TO.N,/RS485/RS485_B*%
X3225800Y10399800D03*
%TO.P,U6,8,VCC*%
%TO.N,VCC*%
X4495800Y10399800D03*
%TD*%
D21*
%TO.P,C28,1*%
%TO.N,VCC*%
X4442400Y11938000D03*
%TO.P,C28,2*%
%TO.N,GND*%
X3482400Y11938000D03*
%TD*%
D22*
%TO.N,GND*%
X4267200Y7823200D03*
X3302000Y13512800D03*
X10871200Y13614400D03*
X3302000Y13055600D03*
X6146800Y14173200D03*
X7924800Y3911600D03*
X12141200Y7366000D03*
X11125200Y10769600D03*
X18389600Y15392400D03*
X11684000Y15646400D03*
X16865600Y10617200D03*
X11734800Y14427200D03*
X3302000Y14071600D03*
X12344400Y2387600D03*
X10871200Y14833600D03*
X11480800Y3200400D03*
X14681200Y2032000D03*
X508000Y6858000D03*
X17424400Y11531600D03*
X17678400Y10617200D03*
X5232400Y5892800D03*
X7569200Y3048000D03*
X508000Y12293600D03*
X12344400Y5638800D03*
X3302000Y12446000D03*
X10617200Y5791200D03*
X12598400Y14427200D03*
X11176000Y8636000D03*
X10922000Y16205200D03*
X12598400Y15646400D03*
X4978400Y7823200D03*
X1066800Y12344400D03*
X11988800Y2946400D03*
X12954000Y7416800D03*
X16662400Y11226800D03*
X6276500Y9992462D03*
X11734800Y8077200D03*
X762000Y11836400D03*
X11277600Y7670800D03*
X17983200Y11531600D03*
X11125200Y9906000D03*
X7569200Y4826000D03*
%TO.N,VCC*%
X13004800Y762000D03*
X3302000Y8178800D03*
X5689600Y16916400D03*
X12598400Y762000D03*
X5334000Y5181600D03*
X8026400Y11905000D03*
X14224000Y3048000D03*
X4521200Y10058400D03*
X3809769Y8178980D03*
X1320800Y8636000D03*
X12496800Y6756400D03*
%TO.N,V_SUPPLY*%
X14630400Y7823200D03*
X15240000Y7823200D03*
X1168400Y13309600D03*
X14833600Y12954000D03*
X15341600Y12954000D03*
%TO.N,/RS485/RS485_B*%
X6728600Y16408400D03*
X1879600Y7162800D03*
%TO.N,/RS485/RS485_A*%
X7670800Y17170400D03*
X1879600Y7975600D03*
%TO.N,/LED_GREEN*%
X4648200Y7289800D03*
D23*
X6399263Y6554279D03*
%TO.N,/LED_RED*%
X6857249Y6232888D03*
D22*
X3860800Y6807200D03*
%TO.N,/SPI1_SCK*%
X8483600Y406400D03*
%TO.N,/SPI1_MISO*%
X8991601Y685251D03*
%TO.N,/SPI1_MOSI*%
X9499600Y406400D03*
%TO.N,/MT6816_CS*%
X8026400Y812800D03*
%TO.N,/485_RE*%
X4368800Y3657600D03*
%TO.N,/IN_AP*%
X8347144Y15343453D03*
D23*
X6276500Y7120744D03*
D22*
%TO.N,/IN_AM*%
X8382000Y14122400D03*
D23*
X8008300Y7416800D03*
D22*
%TO.N,/IN_BP*%
X10363200Y10261600D03*
X10312400Y6502400D03*
%TO.N,/IN_BM*%
X10007600Y7061200D03*
X10160500Y9034400D03*
%TO.N,/UART0_TX*%
X711200Y4419600D03*
%TO.N,/UART0_RX*%
X4927600Y3911600D03*
%TD*%
D24*
%TO.N,VCC*%
X7993400Y9365000D02*
X7462500Y9365000D01*
D25*
X4495800Y11884600D02*
X4442400Y11938000D01*
D24*
X8026400Y11905000D02*
X7462500Y11905000D01*
X8026400Y11905000D02*
X8110200Y11905000D01*
D25*
X4495800Y10399800D02*
X4495800Y11884600D01*
D24*
X8110200Y11905000D02*
X8890000Y11125200D01*
X8890000Y10261600D02*
X7993400Y9365000D01*
X8890000Y11125200D02*
X8890000Y10261600D01*
D26*
%TO.N,V_SUPPLY*%
X1168400Y14884400D02*
X1168400Y13309600D01*
X9789600Y19659600D02*
X5334000Y19659600D01*
X4470400Y18796000D02*
X4470400Y16764000D01*
X4470400Y16764000D02*
X3200400Y15494000D01*
X5334000Y19659600D02*
X4470400Y18796000D01*
X1778000Y15494000D02*
X1168400Y14884400D01*
X11000000Y18449200D02*
X9789600Y19659600D01*
X3200400Y15494000D02*
X1778000Y15494000D01*
D27*
%TO.N,/RS485/RS485_B*%
X1879600Y7162800D02*
X2692400Y7975600D01*
X2743200Y14224000D02*
X3149600Y14630400D01*
X2692400Y7975600D02*
X2692400Y9866400D01*
X3225800Y10399800D02*
X3225800Y10439400D01*
X5616895Y14630400D02*
X6728600Y15742105D01*
X3149600Y14630400D02*
X5616895Y14630400D01*
X6728600Y15742105D02*
X6728600Y16408400D01*
X2692400Y9866400D02*
X3225800Y10399800D01*
X2746200Y10919000D02*
X2746200Y11477800D01*
X2743200Y11480800D02*
X2743200Y14224000D01*
X2746200Y11477800D02*
X2743200Y11480800D01*
X3225800Y10439400D02*
X2746200Y10919000D01*
%TO.N,/RS485/RS485_A*%
X2133600Y7975600D02*
X2384600Y8226600D01*
X2435400Y14424200D02*
X2949400Y14938200D01*
X2384600Y9971000D02*
X1955800Y10399800D01*
X6248400Y16002000D02*
X6248400Y16560800D01*
X9000000Y18448800D02*
X9000000Y18449200D01*
X2949400Y14938200D02*
X5489400Y14938200D01*
X2438400Y11350305D02*
X2435400Y11353305D01*
X6248400Y16560800D02*
X6502400Y16814800D01*
X6858000Y17170400D02*
X7670800Y17170400D01*
X6248400Y15697200D02*
X6248400Y16002000D01*
X1879600Y7975600D02*
X2133600Y7975600D01*
X2384600Y8226600D02*
X2384600Y9971000D01*
X6502400Y16814800D02*
X6858000Y17170400D01*
X2435400Y11353305D02*
X2435400Y14424200D01*
X1955800Y10399800D02*
X2438400Y10882400D01*
X5489400Y14938200D02*
X6248400Y15697200D01*
X2438400Y10882400D02*
X2438400Y11350305D01*
%TO.N,/LED_GREEN*%
X6399263Y6554279D02*
X6145721Y6554279D01*
X6145721Y6554279D02*
X5410200Y7289800D01*
X4724400Y7366000D02*
X4648200Y7289800D01*
X5410200Y7289800D02*
X4648200Y7289800D01*
X4648200Y7289800D02*
X4622800Y7264400D01*
%TO.N,/LED_RED*%
X6857249Y6232888D02*
X6791688Y6232888D01*
X6604000Y6045200D02*
X6146800Y6045200D01*
X5384800Y6807200D02*
X4927600Y6807200D01*
X4927600Y6807200D02*
X3860800Y6807200D01*
X6146800Y6045200D02*
X5994400Y6197600D01*
X6791688Y6232888D02*
X6604000Y6045200D01*
X5994400Y6197600D02*
X5384800Y6807200D01*
D24*
%TO.N,/SPI1_SCK*%
X14224000Y12395200D02*
X14224000Y10414000D01*
X8483600Y816137D02*
X8788400Y1120937D01*
X9245600Y10109200D02*
X9245600Y10871200D01*
X8788400Y9652000D02*
X9245600Y10109200D01*
X14224000Y10414000D02*
X13175000Y9365000D01*
X9245600Y10871200D02*
X11226800Y12852400D01*
X8788400Y1120937D02*
X8788400Y9652000D01*
X8483600Y406400D02*
X8483600Y816137D01*
X13175000Y9365000D02*
X12537500Y9365000D01*
X13766800Y12852400D02*
X14224000Y12395200D01*
X11226800Y12852400D02*
X13766800Y12852400D01*
%TO.N,/SPI1_MISO*%
X9144000Y837650D02*
X9144000Y9499600D01*
X9144000Y9499600D02*
X9601200Y9956800D01*
X13919200Y12242800D02*
X13919200Y11379200D01*
X13665200Y12496800D02*
X13919200Y12242800D01*
X13919200Y11379200D02*
X13175000Y10635000D01*
X9601200Y10769600D02*
X11328400Y12496800D01*
X8991601Y685251D02*
X9144000Y837650D01*
X11328400Y12496800D02*
X13665200Y12496800D01*
X13175000Y10635000D02*
X12537500Y10635000D01*
X9601200Y9956800D02*
X9601200Y10769600D01*
%TO.N,/SPI1_MOSI*%
X12537500Y11905000D02*
X11391417Y11905000D01*
X11391417Y11905000D02*
X9928200Y10441783D01*
X9928200Y10441783D02*
X9928200Y9826600D01*
X9928200Y9826600D02*
X9550400Y9448800D01*
X9550400Y9448800D02*
X9550400Y457200D01*
X9550400Y457200D02*
X9499600Y406400D01*
%TO.N,/MT6816_CS*%
X8432800Y7670800D02*
X8432800Y1219200D01*
X8008600Y8095000D02*
X8432800Y7670800D01*
X8432800Y1219200D02*
X8026400Y812800D01*
X7462500Y8095000D02*
X8008600Y8095000D01*
D27*
%TO.N,/485_RE*%
X3225800Y4800600D02*
X4368800Y3657600D01*
X3225800Y5449800D02*
X3225800Y4800600D01*
X1905000Y5449800D02*
X3175000Y5449800D01*
D24*
%TO.N,/IN_AP*%
X6299200Y7213600D02*
X5486400Y8026400D01*
X6276500Y7120744D02*
X6299200Y7143444D01*
X5486400Y12141200D02*
X8347144Y15001944D01*
X8347144Y15001944D02*
X8347144Y15343453D01*
X6299200Y7143444D02*
X6299200Y7213600D01*
X5486400Y8026400D02*
X5486400Y12141200D01*
%TO.N,/IN_AM*%
X7924800Y14122400D02*
X8382000Y14122400D01*
X5791200Y8178800D02*
X5791200Y11988800D01*
X8008300Y7416800D02*
X7906700Y7518400D01*
X6451600Y7518400D02*
X5791200Y8178800D01*
X5791200Y11988800D02*
X7924800Y14122400D01*
X7906700Y7518400D02*
X6451600Y7518400D01*
%TO.N,/IN_BP*%
X10464800Y6654800D02*
X10312400Y6502400D01*
X10566400Y8686800D02*
X10464800Y8585200D01*
X10566400Y9347200D02*
X10595000Y9318600D01*
X10464800Y8585200D02*
X10464800Y6756400D01*
X10363200Y9550400D02*
X10566400Y9347200D01*
X10363200Y10261600D02*
X10363200Y9550400D01*
X10595000Y9318600D02*
X10595000Y8715400D01*
X10464800Y6756400D02*
X10464800Y6654800D01*
X10595000Y8715400D02*
X10566400Y8686800D01*
%TO.N,/IN_BM*%
X10160500Y9034400D02*
X10007600Y8881500D01*
X10007600Y8881500D02*
X10007600Y7061200D01*
D27*
%TO.N,/UART0_RX*%
X4495800Y4343400D02*
X4495800Y5449800D01*
X4927600Y3911600D02*
X4495800Y4343400D01*
%TD*%
%TA.AperFunction,Conductor*%
%TO.N,VCC*%
G36*
X8213052Y12028386D02*
G01*
X8216852Y12024709D01*
X8228159Y12007212D01*
X8238326Y11991479D01*
X8238622Y11990996D01*
X8259360Y11955212D01*
X8259580Y11954814D01*
X8276868Y11922116D01*
X8276969Y11921922D01*
X8292503Y11891104D01*
X8307853Y11861230D01*
X8324627Y11831299D01*
X8344478Y11800229D01*
X8369057Y11766934D01*
X8369187Y11766781D01*
X8369188Y11766779D01*
X8377251Y11757246D01*
X8400014Y11730331D01*
X8400131Y11730208D01*
X8431141Y11697601D01*
X8434359Y11689244D01*
X8430936Y11681265D01*
X8333840Y11584169D01*
X8325567Y11580742D01*
X8317605Y11583869D01*
X8292484Y11607200D01*
X8292476Y11607207D01*
X8292283Y11607386D01*
X8286011Y11612224D01*
X8261684Y11630990D01*
X8261677Y11630995D01*
X8261420Y11631193D01*
X8232428Y11648656D01*
X8232081Y11648807D01*
X8204823Y11660658D01*
X8204820Y11660659D01*
X8204459Y11660816D01*
X8200673Y11661891D01*
X8176988Y11668617D01*
X8176983Y11668618D01*
X8176663Y11668709D01*
X8148192Y11673376D01*
X8147959Y11673395D01*
X8147953Y11673396D01*
X8135218Y11674449D01*
X8118196Y11675856D01*
X8085826Y11677187D01*
X8072054Y11677659D01*
X8050362Y11678404D01*
X8050130Y11678414D01*
X8026097Y11679716D01*
X8018850Y11680109D01*
X8010774Y11683979D01*
X8008250Y11688519D01*
X7996068Y11730331D01*
X7992886Y11741254D01*
X7987576Y11759479D01*
X7928852Y11961040D01*
X8109697Y12006141D01*
X8109698Y12006141D01*
X8111848Y12006677D01*
X8111849Y12006677D01*
X8163091Y12019457D01*
X8204197Y12029709D01*
X8213052Y12028386D01*
G37*
%TD.AperFunction*%
%TD*%
%TA.AperFunction,Conductor*%
%TO.N,VCC*%
G36*
X7611790Y9653077D02*
G01*
X7653374Y9628959D01*
X7654499Y9628217D01*
X7699271Y9594823D01*
X7699861Y9594352D01*
X7717552Y9579290D01*
X7741915Y9558546D01*
X7781923Y9523549D01*
X7820517Y9492710D01*
X7837780Y9482025D01*
X7858069Y9469467D01*
X7858072Y9469466D01*
X7858619Y9469127D01*
X7859231Y9468917D01*
X7859233Y9468916D01*
X7873029Y9464180D01*
X7897152Y9455898D01*
X7937042Y9456122D01*
X7979211Y9472897D01*
X8016404Y9502754D01*
X8024999Y9505261D01*
X8032000Y9501903D01*
X8129008Y9404895D01*
X8132435Y9396622D01*
X8128570Y9387933D01*
X8085671Y9349250D01*
X8084622Y9348408D01*
X8037074Y9314554D01*
X8035901Y9313819D01*
X7991463Y9289524D01*
X7990383Y9289004D01*
X7948014Y9271199D01*
X7947330Y9270937D01*
X7927594Y9264106D01*
X7905979Y9256624D01*
X7905864Y9256585D01*
X7877111Y9246964D01*
X7864916Y9242884D01*
X7864800Y9242839D01*
X7864781Y9242832D01*
X7843940Y9234714D01*
X7823835Y9226883D01*
X7781899Y9205603D01*
X7738321Y9176040D01*
X7698661Y9140830D01*
X7690199Y9137901D01*
X7684979Y9139485D01*
X7313338Y9357187D01*
X7307932Y9364325D01*
X7309157Y9373196D01*
X7311142Y9375715D01*
X7597810Y9651389D01*
X7606149Y9654654D01*
X7611790Y9653077D01*
G37*
%TD.AperFunction*%
%TD*%
%TA.AperFunction,Conductor*%
%TO.N,VCC*%
G36*
X7934347Y12101708D02*
G01*
X7987397Y12050692D01*
X7988715Y12049425D01*
X7988716Y12049425D01*
X8138900Y11905000D01*
X7987576Y11759479D01*
X7968624Y11741254D01*
X7934348Y11708292D01*
X7926009Y11705027D01*
X7920893Y11706317D01*
X7889784Y11722292D01*
X7889375Y11722513D01*
X7856308Y11741189D01*
X7856105Y11741306D01*
X7829159Y11757246D01*
X7826473Y11758835D01*
X7798762Y11774885D01*
X7771394Y11789154D01*
X7742704Y11801390D01*
X7711025Y11811344D01*
X7674692Y11818764D01*
X7632039Y11823400D01*
X7581400Y11825000D01*
X7581400Y11985000D01*
X7632039Y11986601D01*
X7674692Y11991237D01*
X7711025Y11998657D01*
X7742704Y12008611D01*
X7771394Y12020847D01*
X7798762Y12035116D01*
X7826473Y12051166D01*
X7841603Y12060116D01*
X7856109Y12068697D01*
X7856308Y12068812D01*
X7889375Y12087488D01*
X7889784Y12087709D01*
X7920892Y12103683D01*
X7929817Y12104414D01*
X7934347Y12101708D01*
G37*
%TD.AperFunction*%
%TD*%
%TA.AperFunction,Conductor*%
%TO.N,VCC*%
G36*
X7698609Y12129648D02*
G01*
X7738985Y12096567D01*
X7785079Y12073366D01*
X7785671Y12073210D01*
X7785673Y12073209D01*
X7800911Y12069187D01*
X7830915Y12061266D01*
X7831358Y12061218D01*
X7831360Y12061218D01*
X7839723Y12060318D01*
X7839724Y12060318D01*
X7841603Y12060116D01*
X7876820Y12056327D01*
X7923119Y12054608D01*
X7970138Y12052169D01*
X7988716Y12049425D01*
X8008046Y12046570D01*
X8017268Y12045208D01*
X8019100Y12044785D01*
X8066533Y12029721D01*
X8068649Y12028812D01*
X8107757Y12007212D01*
X8107758Y12007212D01*
X8109697Y12006141D01*
X8109698Y12006141D01*
X8118773Y12001129D01*
X8171930Y11956406D01*
X8058794Y11843270D01*
X8007634Y11883214D01*
X7961397Y11897742D01*
X7918710Y11891133D01*
X7878203Y11867668D01*
X7838505Y11831624D01*
X7798245Y11787281D01*
X7790973Y11778946D01*
X7782736Y11769504D01*
X7756208Y11739097D01*
X7755892Y11738749D01*
X7710947Y11691230D01*
X7710118Y11690436D01*
X7661098Y11647871D01*
X7659579Y11646753D01*
X7611884Y11617272D01*
X7603045Y11615837D01*
X7597622Y11618791D01*
X7568029Y11647249D01*
X7311142Y11894285D01*
X7307554Y11902489D01*
X7310819Y11910828D01*
X7313338Y11912813D01*
X7685281Y12130692D01*
X7694152Y12131917D01*
X7698609Y12129648D01*
G37*
%TD.AperFunction*%
%TD*%
%TA.AperFunction,Conductor*%
%TO.N,VCC*%
G36*
X4695570Y10986373D02*
G01*
X4698997Y10978098D01*
X4698985Y10924449D01*
X4699246Y10866774D01*
X4700237Y10815516D01*
X4702412Y10769415D01*
X4706226Y10727212D01*
X4712134Y10687647D01*
X4720591Y10649459D01*
X4732051Y10611390D01*
X4746969Y10572179D01*
X4747050Y10572000D01*
X4762532Y10537787D01*
X4762821Y10528836D01*
X4760306Y10524853D01*
X4504233Y10258569D01*
X4496029Y10254981D01*
X4487367Y10258569D01*
X4231293Y10524854D01*
X4228028Y10533193D01*
X4229066Y10537784D01*
X4244630Y10572179D01*
X4259548Y10611390D01*
X4271008Y10649459D01*
X4279465Y10687647D01*
X4285373Y10727212D01*
X4289187Y10769415D01*
X4291362Y10815516D01*
X4292353Y10866774D01*
X4292614Y10924449D01*
X4292603Y10978098D01*
X4296028Y10986371D01*
X4304303Y10989800D01*
X4687297Y10989800D01*
X4695570Y10986373D01*
G37*
%TD.AperFunction*%
%TD*%
%TA.AperFunction,Conductor*%
%TO.N,VCC*%
G36*
X4426388Y12068522D02*
G01*
X4490410Y12022941D01*
X4706234Y11869285D01*
X4710986Y11861695D01*
X4710836Y11857069D01*
X4702352Y11821086D01*
X4695567Y11779553D01*
X4691716Y11738889D01*
X4690228Y11697856D01*
X4690229Y11697715D01*
X4690531Y11655286D01*
X4690532Y11655260D01*
X4690532Y11655216D01*
X4692060Y11609732D01*
X4692063Y11609674D01*
X4692063Y11609659D01*
X4694240Y11560198D01*
X4694241Y11560166D01*
X4696502Y11505348D01*
X4696507Y11505204D01*
X4698278Y11443932D01*
X4698282Y11443715D01*
X4698877Y11386421D01*
X4695537Y11378113D01*
X4687178Y11374600D01*
X4304291Y11374600D01*
X4296018Y11378027D01*
X4292591Y11386291D01*
X4292554Y11431997D01*
X4292104Y11483511D01*
X4290780Y11529782D01*
X4290779Y11529802D01*
X4290777Y11529872D01*
X4288102Y11571809D01*
X4283608Y11610053D01*
X4276824Y11645333D01*
X4267278Y11678378D01*
X4254500Y11709918D01*
X4238016Y11740682D01*
X4221690Y11764959D01*
X4219917Y11773735D01*
X4221610Y11777895D01*
X4281435Y11869285D01*
X4409814Y12065400D01*
X4417211Y12070444D01*
X4426388Y12068522D01*
G37*
%TD.AperFunction*%
%TD*%
%TA.AperFunction,Conductor*%
%TO.N,V_SUPPLY*%
G36*
X1292092Y13751173D02*
G01*
X1295518Y13743019D01*
X1295904Y13705072D01*
X1297529Y13662168D01*
X1300440Y13624641D01*
X1304807Y13591243D01*
X1310794Y13560725D01*
X1318570Y13531841D01*
X1328302Y13503342D01*
X1340156Y13473979D01*
X1354299Y13442507D01*
X1367417Y13414983D01*
X1367883Y13406040D01*
X1365288Y13401839D01*
X1176833Y13205869D01*
X1168629Y13202281D01*
X1159967Y13205869D01*
X971512Y13401839D01*
X968247Y13410178D01*
X969383Y13414982D01*
X982444Y13442389D01*
X982459Y13442422D01*
X982500Y13442507D01*
X996643Y13473979D01*
X1008497Y13503342D01*
X1018229Y13531841D01*
X1026005Y13560725D01*
X1031992Y13591243D01*
X1036359Y13624641D01*
X1039270Y13662168D01*
X1040895Y13705072D01*
X1041282Y13743019D01*
X1044793Y13751257D01*
X1052981Y13754600D01*
X1283819Y13754600D01*
X1292092Y13751173D01*
G37*
%TD.AperFunction*%
%TD*%
%TA.AperFunction,Conductor*%
%TO.N,/RS485/RS485_B*%
G36*
X2139448Y7532275D02*
G01*
X2249074Y7422649D01*
X2252501Y7414376D01*
X2249299Y7406334D01*
X2232538Y7388623D01*
X2222490Y7378006D01*
X2195203Y7344989D01*
X2174018Y7314544D01*
X2157691Y7285666D01*
X2144980Y7257349D01*
X2134640Y7228586D01*
X2134595Y7228437D01*
X2125430Y7198371D01*
X2116114Y7165733D01*
X2116083Y7165627D01*
X2105469Y7129724D01*
X2105369Y7129403D01*
X2094722Y7096859D01*
X2088893Y7090062D01*
X2083831Y7088799D01*
X1812216Y7083489D01*
X1803877Y7086754D01*
X1800289Y7095416D01*
X1805599Y7367031D01*
X1809187Y7375235D01*
X1813659Y7377922D01*
X1846202Y7388570D01*
X1846523Y7388670D01*
X1882426Y7399284D01*
X1882532Y7399315D01*
X1915149Y7408625D01*
X1915191Y7408637D01*
X1934752Y7414600D01*
X1945385Y7417841D01*
X1974148Y7428181D01*
X1986246Y7433612D01*
X2002214Y7440779D01*
X2002220Y7440782D01*
X2002465Y7440892D01*
X2002704Y7441027D01*
X2031103Y7457083D01*
X2031108Y7457086D01*
X2031343Y7457219D01*
X2047135Y7468208D01*
X2061599Y7478272D01*
X2061606Y7478278D01*
X2061788Y7478404D01*
X2094805Y7505691D01*
X2123134Y7532500D01*
X2131497Y7535698D01*
X2139448Y7532275D01*
G37*
%TD.AperFunction*%
%TD*%
%TA.AperFunction,Conductor*%
%TO.N,/RS485/RS485_B*%
G36*
X6737033Y16512131D02*
G01*
X6925340Y16316314D01*
X6928605Y16307975D01*
X6927342Y16302913D01*
X6911857Y16272370D01*
X6911701Y16272073D01*
X6899745Y16250079D01*
X6893785Y16239115D01*
X6877276Y16209419D01*
X6862424Y16181541D01*
X6849397Y16153892D01*
X6838361Y16124880D01*
X6829486Y16092915D01*
X6822939Y16056407D01*
X6818887Y16013766D01*
X6818882Y16013591D01*
X6818882Y16013588D01*
X6817813Y15974778D01*
X6814159Y15966602D01*
X6806117Y15963400D01*
X6651082Y15963400D01*
X6642809Y15966827D01*
X6639386Y15974778D01*
X6638317Y16013588D01*
X6638317Y16013591D01*
X6638312Y16013766D01*
X6634260Y16056407D01*
X6627713Y16092915D01*
X6618838Y16124880D01*
X6607802Y16153892D01*
X6594775Y16181541D01*
X6579923Y16209419D01*
X6563414Y16239115D01*
X6545503Y16272063D01*
X6545348Y16272357D01*
X6529857Y16302914D01*
X6529173Y16311842D01*
X6531860Y16316314D01*
X6720167Y16512131D01*
X6728371Y16515719D01*
X6737033Y16512131D01*
G37*
%TD.AperFunction*%
%TD*%
%TA.AperFunction,Conductor*%
%TO.N,/RS485/RS485_B*%
G36*
X3329700Y10395090D02*
G01*
X3329700Y10395086D01*
X3329698Y10394963D01*
X3329697Y10394951D01*
X3327108Y10262518D01*
X3324721Y10140378D01*
X3324417Y10124839D01*
X3320829Y10116635D01*
X3316210Y10113902D01*
X3268011Y10098838D01*
X3267375Y10098658D01*
X3252675Y10094966D01*
X3217299Y10086081D01*
X3216882Y10085985D01*
X3171278Y10076288D01*
X3171228Y10076277D01*
X3128728Y10067434D01*
X3128642Y10067413D01*
X3128634Y10067411D01*
X3088517Y10057525D01*
X3088302Y10057472D01*
X3048640Y10044359D01*
X3048366Y10044234D01*
X3048355Y10044230D01*
X3024160Y10033219D01*
X3008435Y10026063D01*
X2966377Y10000550D01*
X2966125Y10000357D01*
X2966126Y10000357D01*
X2921363Y9965947D01*
X2921358Y9965943D01*
X2921158Y9965789D01*
X2920965Y9965610D01*
X2879731Y9927402D01*
X2871334Y9924292D01*
X2863506Y9927711D01*
X2753711Y10037506D01*
X2750284Y10045779D01*
X2753402Y10053731D01*
X2781866Y10084451D01*
X2791788Y10095159D01*
X2794617Y10098838D01*
X2826356Y10140127D01*
X2826549Y10140378D01*
X2852062Y10182436D01*
X2859218Y10198161D01*
X2870229Y10222356D01*
X2870233Y10222367D01*
X2870358Y10222641D01*
X2883471Y10262303D01*
X2893433Y10302729D01*
X2902276Y10345229D01*
X2911984Y10390883D01*
X2912080Y10391300D01*
X2916980Y10410810D01*
X2924734Y10441682D01*
X2942415Y10498252D01*
X3331866Y10505866D01*
X3329700Y10395090D01*
G37*
%TD.AperFunction*%
%TD*%
%TA.AperFunction,Conductor*%
%TO.N,/RS485/RS485_B*%
G36*
X2886804Y10904654D02*
G01*
X2924635Y10869277D01*
X2931539Y10862821D01*
X2931719Y10862678D01*
X2931727Y10862671D01*
X2952537Y10846126D01*
X2979423Y10824749D01*
X3023618Y10795994D01*
X3026271Y10794627D01*
X3065316Y10774504D01*
X3065327Y10774499D01*
X3065552Y10774383D01*
X3065799Y10774283D01*
X3106480Y10757814D01*
X3106491Y10757810D01*
X3106649Y10757746D01*
X3106806Y10757694D01*
X3106822Y10757688D01*
X3143262Y10745592D01*
X3148336Y10743908D01*
X3171466Y10736916D01*
X3191930Y10730730D01*
X3192039Y10730697D01*
X3238983Y10716005D01*
X3239404Y10715864D01*
X3290885Y10697581D01*
X3291480Y10697352D01*
X3341750Y10676348D01*
X3348062Y10669996D01*
X3348909Y10664723D01*
X3321827Y10284567D01*
X2934665Y10327410D01*
X2921865Y10385518D01*
X2912902Y10437265D01*
X2912864Y10437501D01*
X2905845Y10484277D01*
X2898888Y10527439D01*
X2898863Y10527596D01*
X2890057Y10568652D01*
X2877546Y10608778D01*
X2859448Y10649309D01*
X2833881Y10691577D01*
X2815069Y10716005D01*
X2799127Y10736706D01*
X2799124Y10736710D01*
X2798965Y10736916D01*
X2760482Y10778398D01*
X2757367Y10786792D01*
X2760786Y10794627D01*
X2870540Y10904381D01*
X2878813Y10907808D01*
X2886804Y10904654D01*
G37*
%TD.AperFunction*%
%TD*%
%TA.AperFunction,Conductor*%
%TO.N,/RS485/RS485_A*%
G36*
X2239185Y10498252D02*
G01*
X2256865Y10441682D01*
X2267384Y10399801D01*
X2267384Y10399800D01*
X2269521Y10391295D01*
X2269611Y10390902D01*
X2279323Y10345229D01*
X2288166Y10302729D01*
X2298128Y10262303D01*
X2311241Y10222641D01*
X2311366Y10222367D01*
X2311370Y10222356D01*
X2322381Y10198161D01*
X2329537Y10182436D01*
X2355050Y10140378D01*
X2355243Y10140127D01*
X2386983Y10098838D01*
X2389811Y10095159D01*
X2389990Y10094966D01*
X2428198Y10053731D01*
X2431308Y10045334D01*
X2427889Y10037506D01*
X2318094Y9927711D01*
X2309821Y9924284D01*
X2301869Y9927402D01*
X2260634Y9965610D01*
X2260441Y9965789D01*
X2260241Y9965943D01*
X2260236Y9965947D01*
X2215473Y10000357D01*
X2215474Y10000357D01*
X2215222Y10000550D01*
X2173164Y10026063D01*
X2157439Y10033219D01*
X2133244Y10044230D01*
X2133233Y10044234D01*
X2132959Y10044359D01*
X2093297Y10057472D01*
X2093082Y10057525D01*
X2052965Y10067411D01*
X2052957Y10067413D01*
X2052871Y10067434D01*
X2010371Y10076277D01*
X2010321Y10076288D01*
X1964717Y10085985D01*
X1964300Y10086081D01*
X1928924Y10094966D01*
X1914224Y10098658D01*
X1913588Y10098838D01*
X1865390Y10113901D01*
X1858517Y10119639D01*
X1857183Y10124839D01*
X1856884Y10140127D01*
X1854496Y10262303D01*
X1853880Y10293815D01*
X1851781Y10401203D01*
X1849908Y10496973D01*
X1851801Y10501808D01*
X1851270Y10502040D01*
X1852916Y10505804D01*
X2239185Y10498252D01*
G37*
%TD.AperFunction*%
%TD*%
%TA.AperFunction,Conductor*%
%TO.N,/RS485/RS485_A*%
G36*
X7578714Y17367140D02*
G01*
X7774531Y17178833D01*
X7778119Y17170629D01*
X7774531Y17161967D01*
X7592814Y16987218D01*
X7578715Y16973660D01*
X7570376Y16970395D01*
X7565315Y16971657D01*
X7534756Y16987149D01*
X7534458Y16987306D01*
X7501589Y17005174D01*
X7501492Y17005227D01*
X7471877Y17021691D01*
X7471818Y17021724D01*
X7443940Y17036576D01*
X7416291Y17049603D01*
X7387279Y17060639D01*
X7371297Y17065076D01*
X7355571Y17069443D01*
X7355564Y17069445D01*
X7355314Y17069514D01*
X7355051Y17069561D01*
X7355043Y17069563D01*
X7319035Y17076020D01*
X7319033Y17076020D01*
X7318806Y17076061D01*
X7276165Y17080113D01*
X7275990Y17080118D01*
X7275987Y17080118D01*
X7237178Y17081187D01*
X7229002Y17084841D01*
X7225800Y17092883D01*
X7225800Y17247918D01*
X7229227Y17256191D01*
X7237177Y17259614D01*
X7269069Y17260492D01*
X7275987Y17260683D01*
X7275990Y17260683D01*
X7276165Y17260688D01*
X7318806Y17264740D01*
X7319035Y17264781D01*
X7355043Y17271238D01*
X7355051Y17271240D01*
X7355314Y17271287D01*
X7355564Y17271356D01*
X7355571Y17271358D01*
X7371296Y17275724D01*
X7387279Y17280162D01*
X7416291Y17291198D01*
X7443940Y17304225D01*
X7471818Y17319077D01*
X7501514Y17335586D01*
X7534462Y17353497D01*
X7534756Y17353652D01*
X7565314Y17369143D01*
X7574242Y17369827D01*
X7578714Y17367140D01*
G37*
%TD.AperFunction*%
%TD*%
%TA.AperFunction,Conductor*%
%TO.N,/RS485/RS485_A*%
G36*
X2220620Y8172836D02*
G01*
X2330124Y8063332D01*
X2333551Y8055059D01*
X2329931Y8046597D01*
X2300524Y8018516D01*
X2300118Y8018147D01*
X2281404Y8002000D01*
X2266475Y7989119D01*
X2266006Y7988735D01*
X2249612Y7976010D01*
X2235655Y7965176D01*
X2235246Y7964873D01*
X2207221Y7945112D01*
X2206939Y7944919D01*
X2180247Y7927287D01*
X2154091Y7910236D01*
X2154060Y7910215D01*
X2154042Y7910203D01*
X2127823Y7892308D01*
X2127731Y7892245D01*
X2100296Y7871700D01*
X2070910Y7846990D01*
X2070783Y7846870D01*
X2070781Y7846868D01*
X2045077Y7822538D01*
X2036713Y7819339D01*
X2031122Y7820939D01*
X1819488Y7944912D01*
X1780438Y7967787D01*
X1775032Y7974925D01*
X1776257Y7983796D01*
X1778242Y7986315D01*
X1849728Y8055059D01*
X1971786Y8172437D01*
X1980125Y8175702D01*
X1985019Y8174522D01*
X2003482Y8165528D01*
X2028075Y8153946D01*
X2028174Y8153905D01*
X2028182Y8153901D01*
X2051494Y8144147D01*
X2051719Y8144053D01*
X2051948Y8143978D01*
X2051951Y8143977D01*
X2074330Y8136657D01*
X2074337Y8136655D01*
X2074677Y8136544D01*
X2097215Y8132116D01*
X2119597Y8131467D01*
X2120159Y8131563D01*
X2120164Y8131563D01*
X2134353Y8133978D01*
X2142089Y8135294D01*
X2164954Y8144292D01*
X2165422Y8144588D01*
X2165426Y8144590D01*
X2180146Y8153901D01*
X2188458Y8159158D01*
X2188800Y8159458D01*
X2188805Y8159462D01*
X2204627Y8173355D01*
X2213105Y8176238D01*
X2220620Y8172836D01*
G37*
%TD.AperFunction*%
%TD*%
%TA.AperFunction,Conductor*%
%TO.N,/RS485/RS485_A*%
G36*
X2318094Y10871889D02*
G01*
X2427889Y10762094D01*
X2431316Y10753821D01*
X2428198Y10745869D01*
X2424683Y10742076D01*
X2389811Y10704442D01*
X2389657Y10704242D01*
X2389653Y10704237D01*
X2375403Y10685699D01*
X2355050Y10659223D01*
X2329537Y10617165D01*
X2329390Y10616841D01*
X2311370Y10577245D01*
X2311366Y10577234D01*
X2311241Y10576960D01*
X2298128Y10537298D01*
X2288166Y10496872D01*
X2288149Y10496788D01*
X2279323Y10454372D01*
X2279312Y10454322D01*
X2269615Y10408718D01*
X2269519Y10408301D01*
X2256865Y10357919D01*
X2239185Y10301348D01*
X1852916Y10293796D01*
X1851438Y10297176D01*
X1850890Y10297702D01*
X1849908Y10302627D01*
X1851806Y10399698D01*
X1851806Y10399708D01*
X1853880Y10505785D01*
X1857183Y10674762D01*
X1860771Y10682965D01*
X1865391Y10685699D01*
X1913588Y10700763D01*
X1914224Y10700943D01*
X1930852Y10705119D01*
X1964300Y10713520D01*
X1964717Y10713616D01*
X2010321Y10723313D01*
X2010371Y10723324D01*
X2052871Y10732167D01*
X2052957Y10732188D01*
X2052965Y10732190D01*
X2093082Y10742076D01*
X2093297Y10742129D01*
X2132959Y10755242D01*
X2133233Y10755367D01*
X2133244Y10755371D01*
X2157439Y10766382D01*
X2173164Y10773538D01*
X2215222Y10799051D01*
X2220316Y10802967D01*
X2260236Y10833654D01*
X2260241Y10833658D01*
X2260441Y10833812D01*
X2271149Y10843734D01*
X2301869Y10872198D01*
X2310267Y10875308D01*
X2318094Y10871889D01*
G37*
%TD.AperFunction*%
%TD*%
%TA.AperFunction,Conductor*%
%TO.N,/LED_GREEN*%
G36*
X6311463Y6742090D02*
G01*
X6429844Y6628249D01*
X6495621Y6564994D01*
X6499209Y6556790D01*
X6495944Y6548451D01*
X6493425Y6546466D01*
X6445310Y6518281D01*
X6257370Y6408188D01*
X6254751Y6406654D01*
X6245880Y6405429D01*
X6240863Y6408188D01*
X6216714Y6430682D01*
X6216690Y6430702D01*
X6216535Y6430847D01*
X6188108Y6453558D01*
X6161222Y6472021D01*
X6135142Y6487872D01*
X6109135Y6502747D01*
X6109111Y6502761D01*
X6082664Y6518169D01*
X6082279Y6518403D01*
X6054702Y6535927D01*
X6054135Y6536311D01*
X6037295Y6548451D01*
X6024532Y6557651D01*
X6023923Y6558123D01*
X5991482Y6584952D01*
X5990913Y6585454D01*
X5963320Y6611462D01*
X5959650Y6619630D01*
X5963072Y6628249D01*
X6072548Y6737725D01*
X6080821Y6741152D01*
X6088508Y6738273D01*
X6103665Y6725061D01*
X6126214Y6711197D01*
X6148164Y6703130D01*
X6148778Y6703045D01*
X6148781Y6703044D01*
X6167079Y6700503D01*
X6169759Y6700131D01*
X6185134Y6701091D01*
X6190764Y6701443D01*
X6190765Y6701443D01*
X6191243Y6701473D01*
X6212861Y6706426D01*
X6213173Y6706537D01*
X6213176Y6706538D01*
X6225696Y6710998D01*
X6234856Y6714261D01*
X6241593Y6717237D01*
X6257364Y6724203D01*
X6257378Y6724209D01*
X6257472Y6724251D01*
X6257558Y6724293D01*
X6257580Y6724303D01*
X6269466Y6730082D01*
X6280955Y6735667D01*
X6298185Y6744153D01*
X6307119Y6744734D01*
X6311463Y6742090D01*
G37*
%TD.AperFunction*%
%TD*%
%TA.AperFunction,Conductor*%
%TO.N,/LED_GREEN*%
G36*
X4753686Y7488543D02*
G01*
X4784243Y7473052D01*
X4784537Y7472897D01*
X4817485Y7454986D01*
X4847181Y7438477D01*
X4875059Y7423625D01*
X4902708Y7410598D01*
X4931720Y7399562D01*
X4947703Y7395124D01*
X4963428Y7390758D01*
X4963435Y7390756D01*
X4963685Y7390687D01*
X4963948Y7390640D01*
X4963956Y7390638D01*
X4999964Y7384181D01*
X5000193Y7384140D01*
X5042834Y7380088D01*
X5043009Y7380083D01*
X5043012Y7380083D01*
X5049856Y7379894D01*
X5081823Y7379014D01*
X5089998Y7375360D01*
X5093200Y7367318D01*
X5093200Y7212283D01*
X5089773Y7204010D01*
X5081822Y7200587D01*
X5043012Y7199518D01*
X5043009Y7199518D01*
X5042834Y7199513D01*
X5000193Y7195461D01*
X4999966Y7195420D01*
X4999964Y7195420D01*
X4963956Y7188963D01*
X4963948Y7188961D01*
X4963685Y7188914D01*
X4963435Y7188845D01*
X4963428Y7188843D01*
X4947702Y7184476D01*
X4931720Y7180039D01*
X4902708Y7169003D01*
X4875059Y7155976D01*
X4847181Y7141124D01*
X4847122Y7141091D01*
X4817507Y7124627D01*
X4817410Y7124574D01*
X4784527Y7106699D01*
X4784230Y7106543D01*
X4753687Y7091058D01*
X4744758Y7090373D01*
X4740286Y7093060D01*
X4544469Y7281367D01*
X4540881Y7289571D01*
X4544469Y7298233D01*
X4740286Y7486540D01*
X4748625Y7489805D01*
X4753686Y7488543D01*
G37*
%TD.AperFunction*%
%TD*%
%TA.AperFunction,Conductor*%
%TO.N,/LED_RED*%
G36*
X3966286Y7005943D02*
G01*
X3996843Y6990452D01*
X3997137Y6990297D01*
X4030085Y6972386D01*
X4059781Y6955877D01*
X4087659Y6941025D01*
X4115308Y6927998D01*
X4144320Y6916962D01*
X4160303Y6912524D01*
X4176028Y6908158D01*
X4176035Y6908156D01*
X4176285Y6908087D01*
X4176548Y6908040D01*
X4176556Y6908038D01*
X4212564Y6901581D01*
X4212793Y6901540D01*
X4255434Y6897488D01*
X4255609Y6897483D01*
X4255612Y6897483D01*
X4262456Y6897294D01*
X4294423Y6896414D01*
X4302598Y6892760D01*
X4305800Y6884718D01*
X4305800Y6729683D01*
X4302373Y6721410D01*
X4294422Y6717987D01*
X4255612Y6716918D01*
X4255609Y6716918D01*
X4255434Y6716913D01*
X4212793Y6712861D01*
X4212566Y6712820D01*
X4212564Y6712820D01*
X4176556Y6706363D01*
X4176548Y6706361D01*
X4176285Y6706314D01*
X4176035Y6706245D01*
X4176028Y6706243D01*
X4160303Y6701877D01*
X4144320Y6697439D01*
X4115308Y6686403D01*
X4087659Y6673376D01*
X4059781Y6658524D01*
X4059722Y6658491D01*
X4030107Y6642027D01*
X4030010Y6641974D01*
X3997127Y6624099D01*
X3996830Y6623943D01*
X3966287Y6608458D01*
X3957358Y6607773D01*
X3952886Y6610460D01*
X3757069Y6798767D01*
X3753481Y6806971D01*
X3757069Y6815633D01*
X3952886Y7003940D01*
X3961225Y7007205D01*
X3966286Y7005943D01*
G37*
%TD.AperFunction*%
%TD*%
%TA.AperFunction,Conductor*%
%TO.N,/LED_RED*%
G36*
X6934452Y6293819D02*
G01*
X6941921Y6288881D01*
X6943710Y6280107D01*
X6943334Y6278666D01*
X6859791Y6025589D01*
X6853944Y6018807D01*
X6849146Y6017566D01*
X6827627Y6016712D01*
X6814075Y6016174D01*
X6814072Y6016174D01*
X6813827Y6016164D01*
X6790871Y6013290D01*
X6776678Y6011514D01*
X6776673Y6011513D01*
X6776432Y6011483D01*
X6743314Y6004585D01*
X6712726Y5996210D01*
X6682920Y5987094D01*
X6652364Y5978043D01*
X6651922Y5977923D01*
X6619020Y5969694D01*
X6618290Y5969537D01*
X6581144Y5962785D01*
X6580286Y5962661D01*
X6553785Y5959852D01*
X6536974Y5958070D01*
X6536130Y5958011D01*
X6496518Y5956700D01*
X6488136Y5959852D01*
X6484431Y5968394D01*
X6484431Y6123339D01*
X6487858Y6131612D01*
X6495155Y6134998D01*
X6503257Y6135677D01*
X6522438Y6137283D01*
X6552541Y6146349D01*
X6576111Y6160582D01*
X6594521Y6179260D01*
X6594839Y6179747D01*
X6594842Y6179751D01*
X6608933Y6201344D01*
X6608934Y6201346D01*
X6609143Y6201666D01*
X6621348Y6227080D01*
X6632508Y6254782D01*
X6632516Y6254801D01*
X6643910Y6283833D01*
X6644083Y6284251D01*
X6656998Y6313748D01*
X6657410Y6314594D01*
X6661514Y6322230D01*
X6664299Y6325653D01*
X6668014Y6328770D01*
X6672522Y6336578D01*
X6679625Y6342028D01*
X6684880Y6342213D01*
X6934452Y6293819D01*
G37*
%TD.AperFunction*%
%TD*%
%TA.AperFunction,Conductor*%
%TO.N,/SPI1_SCK*%
G36*
X8467314Y896381D02*
G01*
X8468015Y895734D01*
X8564804Y798945D01*
X8568231Y790672D01*
X8565701Y783406D01*
X8547291Y760170D01*
X8536627Y731055D01*
X8537873Y703596D01*
X8548720Y677159D01*
X8566858Y651109D01*
X8589978Y624812D01*
X8590066Y624719D01*
X8590069Y624716D01*
X8615690Y597720D01*
X8615850Y597548D01*
X8641632Y569268D01*
X8642189Y568611D01*
X8665672Y538697D01*
X8666530Y537444D01*
X8676189Y521171D01*
X8676553Y520511D01*
X8681420Y510959D01*
X8682122Y502032D01*
X8679428Y497537D01*
X8494315Y305042D01*
X8486111Y301454D01*
X8477772Y304719D01*
X8475787Y307238D01*
X8328630Y558451D01*
X8327405Y567322D01*
X8329694Y571804D01*
X8350882Y597527D01*
X8350884Y597531D01*
X8351271Y598000D01*
X8365197Y624904D01*
X8367695Y629731D01*
X8367695Y629732D01*
X8367962Y630247D01*
X8377244Y662453D01*
X8381787Y694832D01*
X8384253Y727491D01*
X8384269Y727684D01*
X8387288Y760441D01*
X8387436Y761502D01*
X8393517Y794262D01*
X8393973Y795982D01*
X8405609Y829329D01*
X8406505Y831293D01*
X8426329Y865876D01*
X8427553Y867619D01*
X8450824Y895034D01*
X8458789Y899122D01*
X8467314Y896381D01*
G37*
%TD.AperFunction*%
%TD*%
%TA.AperFunction,Conductor*%
%TO.N,/SPI1_SCK*%
G36*
X12686877Y9652756D02*
G01*
X12734006Y9623767D01*
X12735496Y9622679D01*
X12784138Y9580927D01*
X12784945Y9580165D01*
X12828821Y9534530D01*
X12829635Y9533683D01*
X12829939Y9533354D01*
X12871799Y9486342D01*
X12911930Y9443184D01*
X12951505Y9408230D01*
X12991852Y9385653D01*
X13034300Y9379630D01*
X13054740Y9386182D01*
X13079187Y9394018D01*
X13079188Y9394019D01*
X13080175Y9394335D01*
X13097545Y9407923D01*
X13122648Y9427560D01*
X13131276Y9429959D01*
X13138130Y9426618D01*
X13234952Y9329796D01*
X13238379Y9321523D01*
X13234952Y9313250D01*
X13234247Y9312600D01*
X13191720Y9276606D01*
X13189926Y9275357D01*
X13140958Y9247667D01*
X13138934Y9246763D01*
X13091743Y9230897D01*
X13089983Y9230454D01*
X13043745Y9222610D01*
X13042689Y9222480D01*
X13017373Y9220569D01*
X12996677Y9219007D01*
X12996508Y9218996D01*
X12976353Y9217767D01*
X12950761Y9216206D01*
X12905254Y9210277D01*
X12888444Y9205507D01*
X12860315Y9197527D01*
X12860311Y9197526D01*
X12859749Y9197366D01*
X12813887Y9173621D01*
X12813411Y9173229D01*
X12813412Y9173229D01*
X12773614Y9140393D01*
X12765052Y9137771D01*
X12760257Y9139322D01*
X12388338Y9357187D01*
X12382932Y9364325D01*
X12384157Y9373196D01*
X12386142Y9375715D01*
X12390634Y9380034D01*
X12599538Y9580927D01*
X12672637Y9651223D01*
X12680976Y9654488D01*
X12686877Y9652756D01*
G37*
%TD.AperFunction*%
%TD*%
%TA.AperFunction,Conductor*%
%TO.N,/SPI1_MISO*%
G36*
X9220528Y1079223D02*
G01*
X9223955Y1070906D01*
X9223792Y1027784D01*
X9223791Y1027687D01*
X9223388Y994206D01*
X9223230Y981125D01*
X9222401Y940903D01*
X9221706Y916265D01*
X9221397Y905326D01*
X9221371Y905268D01*
X9221395Y905267D01*
X9220300Y872387D01*
X9220295Y872387D01*
X9220300Y872375D01*
X9219205Y840432D01*
X9218199Y807571D01*
X9217370Y771975D01*
X9217369Y771922D01*
X9216808Y731812D01*
X9216808Y731760D01*
X9216640Y694073D01*
X9213176Y685815D01*
X9208110Y682862D01*
X9053621Y639385D01*
X8931331Y604970D01*
X8922439Y606028D01*
X8916899Y613063D01*
X8916472Y615742D01*
X8905180Y884735D01*
X8908257Y893145D01*
X8912323Y896006D01*
X8932700Y904601D01*
X8932719Y904609D01*
X8932754Y904624D01*
X8934186Y905268D01*
X8958323Y916129D01*
X8958463Y916192D01*
X8981792Y928232D01*
X9002569Y941420D01*
X9002843Y941648D01*
X9002850Y941653D01*
X9020257Y956132D01*
X9020260Y956135D01*
X9020622Y956436D01*
X9035778Y973957D01*
X9047867Y994661D01*
X9056715Y1019226D01*
X9062150Y1048330D01*
X9063403Y1071581D01*
X9067270Y1079656D01*
X9075086Y1082650D01*
X9212255Y1082650D01*
X9220528Y1079223D01*
G37*
%TD.AperFunction*%
%TD*%
%TA.AperFunction,Conductor*%
%TO.N,/SPI1_MISO*%
G36*
X12686877Y10922756D02*
G01*
X12734006Y10893767D01*
X12735496Y10892679D01*
X12784138Y10850927D01*
X12784945Y10850165D01*
X12828821Y10804530D01*
X12829635Y10803683D01*
X12829939Y10803354D01*
X12871799Y10756342D01*
X12911930Y10713184D01*
X12951505Y10678230D01*
X12991852Y10655653D01*
X13034300Y10649630D01*
X13054740Y10656182D01*
X13079187Y10664018D01*
X13079188Y10664019D01*
X13080175Y10664335D01*
X13097545Y10677923D01*
X13122648Y10697560D01*
X13131276Y10699959D01*
X13138130Y10696618D01*
X13234952Y10599796D01*
X13238379Y10591523D01*
X13234952Y10583250D01*
X13234247Y10582600D01*
X13191720Y10546606D01*
X13189926Y10545357D01*
X13140958Y10517667D01*
X13138934Y10516763D01*
X13091743Y10500897D01*
X13089983Y10500454D01*
X13043745Y10492610D01*
X13042689Y10492480D01*
X13017373Y10490569D01*
X12996677Y10489007D01*
X12996508Y10488996D01*
X12976353Y10487767D01*
X12950761Y10486206D01*
X12905254Y10480277D01*
X12888444Y10475507D01*
X12860315Y10467527D01*
X12860311Y10467526D01*
X12859749Y10467366D01*
X12813887Y10443621D01*
X12813411Y10443229D01*
X12813412Y10443229D01*
X12773614Y10410393D01*
X12765052Y10407771D01*
X12760257Y10409322D01*
X12388338Y10627187D01*
X12382932Y10634325D01*
X12384157Y10643196D01*
X12386142Y10645715D01*
X12390634Y10650034D01*
X12599538Y10850927D01*
X12672637Y10921223D01*
X12680976Y10924488D01*
X12686877Y10922756D01*
G37*
%TD.AperFunction*%
%TD*%
%TA.AperFunction,Conductor*%
%TO.N,/SPI1_MOSI*%
G36*
X12401943Y12191627D02*
G01*
X12691231Y11913433D01*
X12694819Y11905229D01*
X12691231Y11896567D01*
X12616810Y11825000D01*
X12401943Y11618373D01*
X12393604Y11615108D01*
X12388351Y11616470D01*
X12337650Y11643361D01*
X12336961Y11643757D01*
X12321339Y11653455D01*
X12288050Y11674122D01*
X12287597Y11674418D01*
X12244788Y11703889D01*
X12244660Y11703978D01*
X12205298Y11731858D01*
X12205279Y11731871D01*
X12205214Y11731917D01*
X12166642Y11757480D01*
X12166456Y11757583D01*
X12166447Y11757589D01*
X12126561Y11779784D01*
X12126272Y11779945D01*
X12125969Y11780071D01*
X12125965Y11780073D01*
X12081734Y11798476D01*
X12081735Y11798476D01*
X12081388Y11798620D01*
X12081037Y11798716D01*
X12081030Y11798718D01*
X12029609Y11812724D01*
X12029275Y11812815D01*
X11967217Y11821839D01*
X11966935Y11821851D01*
X11966934Y11821851D01*
X11903705Y11824526D01*
X11895585Y11828300D01*
X11892500Y11836216D01*
X11892500Y11973784D01*
X11895927Y11982057D01*
X11903705Y11985474D01*
X11966933Y11988150D01*
X11967217Y11988162D01*
X12029275Y11997186D01*
X12031853Y11997888D01*
X12081030Y12011283D01*
X12081037Y12011285D01*
X12081388Y12011381D01*
X12087382Y12013875D01*
X12125965Y12029928D01*
X12125969Y12029930D01*
X12126272Y12030056D01*
X12137238Y12036159D01*
X12166447Y12052412D01*
X12166456Y12052418D01*
X12166642Y12052521D01*
X12205214Y12078084D01*
X12205279Y12078130D01*
X12205298Y12078143D01*
X12244660Y12106023D01*
X12244788Y12106112D01*
X12287597Y12135583D01*
X12288050Y12135879D01*
X12336961Y12166244D01*
X12337650Y12166640D01*
X12388351Y12193530D01*
X12397265Y12194379D01*
X12401943Y12191627D01*
G37*
%TD.AperFunction*%
%TD*%
%TA.AperFunction,Conductor*%
%TO.N,/SPI1_MOSI*%
G36*
X9627272Y848773D02*
G01*
X9630695Y840803D01*
X9631847Y796373D01*
X9635941Y749243D01*
X9642305Y708904D01*
X9650565Y673450D01*
X9660346Y640975D01*
X9671272Y609573D01*
X9671296Y609508D01*
X9682928Y577450D01*
X9682988Y577282D01*
X9694992Y542566D01*
X9695123Y542164D01*
X9707096Y503005D01*
X9707245Y502471D01*
X9716869Y464679D01*
X9715590Y455816D01*
X9711931Y451998D01*
X9484561Y303421D01*
X9475761Y301764D01*
X9468124Y307202D01*
X9417601Y391540D01*
X9328512Y540260D01*
X9327200Y549118D01*
X9329559Y553760D01*
X9349994Y578292D01*
X9350167Y578495D01*
X9373803Y605591D01*
X9395180Y630249D01*
X9395272Y630355D01*
X9414344Y654075D01*
X9414455Y654237D01*
X9414462Y654246D01*
X9430697Y677881D01*
X9430875Y678140D01*
X9444722Y703937D01*
X9455741Y732854D01*
X9463789Y766278D01*
X9467545Y796209D01*
X9468690Y805331D01*
X9468691Y805342D01*
X9468723Y805598D01*
X9469994Y840921D01*
X9473716Y849065D01*
X9481686Y852200D01*
X9618999Y852200D01*
X9627272Y848773D01*
G37*
%TD.AperFunction*%
%TD*%
%TA.AperFunction,Conductor*%
%TO.N,/MT6816_CS*%
G36*
X8292509Y1176014D02*
G01*
X8389614Y1078909D01*
X8393041Y1070636D01*
X8389871Y1062628D01*
X8362954Y1033954D01*
X8362818Y1033785D01*
X8362812Y1033778D01*
X8349312Y1016985D01*
X8336072Y1000516D01*
X8315627Y969578D01*
X8315491Y969317D01*
X8315489Y969314D01*
X8300397Y940394D01*
X8300393Y940385D01*
X8300265Y940140D01*
X8288630Y911200D01*
X8288567Y911000D01*
X8288566Y910997D01*
X8282981Y893245D01*
X8281727Y890533D01*
X8280524Y888618D01*
X8279821Y887499D01*
X8279673Y886188D01*
X8279125Y881341D01*
X8278804Y879644D01*
X8271122Y850815D01*
X8271114Y850784D01*
X8271108Y850762D01*
X8262564Y817467D01*
X8262503Y817240D01*
X8252326Y780649D01*
X8252193Y780204D01*
X8241495Y746916D01*
X8235701Y740088D01*
X8230585Y738798D01*
X7959016Y733489D01*
X7950677Y736754D01*
X7947089Y745416D01*
X7952398Y1016985D01*
X7955986Y1025189D01*
X7960516Y1027895D01*
X7993803Y1038594D01*
X7994248Y1038727D01*
X8030839Y1048904D01*
X8031066Y1048965D01*
X8064361Y1057509D01*
X8064383Y1057515D01*
X8064414Y1057523D01*
X8095358Y1065769D01*
X8124799Y1075031D01*
X8153739Y1086666D01*
X8153984Y1086794D01*
X8153993Y1086798D01*
X8182913Y1101890D01*
X8182916Y1101892D01*
X8183177Y1102028D01*
X8214115Y1122473D01*
X8247553Y1149355D01*
X8258352Y1159492D01*
X8276229Y1176272D01*
X8284606Y1179435D01*
X8292509Y1176014D01*
G37*
%TD.AperFunction*%
%TD*%
%TA.AperFunction,Conductor*%
%TO.N,/MT6816_CS*%
G36*
X7698655Y8319233D02*
G01*
X7738350Y8284357D01*
X7782240Y8255639D01*
X7782594Y8255472D01*
X7782600Y8255468D01*
X7824410Y8235675D01*
X7824416Y8235673D01*
X7824696Y8235540D01*
X7838413Y8230744D01*
X7866306Y8220991D01*
X7866323Y8220986D01*
X7866439Y8220945D01*
X7866569Y8220907D01*
X7908124Y8208759D01*
X7908248Y8208722D01*
X7950277Y8195929D01*
X7951043Y8195666D01*
X7993968Y8179277D01*
X7995150Y8178749D01*
X8039977Y8155672D01*
X8041266Y8154901D01*
X8089015Y8121949D01*
X8090154Y8121052D01*
X8109520Y8103745D01*
X8132944Y8082811D01*
X8136830Y8074743D01*
X8133421Y8065814D01*
X8036436Y7968829D01*
X8028163Y7965402D01*
X8020860Y7967962D01*
X7982946Y7998266D01*
X7940259Y8014718D01*
X7939132Y8014699D01*
X7939131Y8014699D01*
X7908503Y8014178D01*
X7899998Y8014034D01*
X7861187Y7999466D01*
X7860638Y7999105D01*
X7823147Y7974458D01*
X7823142Y7974455D01*
X7822851Y7974263D01*
X7784015Y7941677D01*
X7783904Y7941576D01*
X7783903Y7941575D01*
X7743782Y7905027D01*
X7743629Y7904890D01*
X7701245Y7867620D01*
X7700620Y7867108D01*
X7655318Y7832549D01*
X7654145Y7831762D01*
X7616195Y7809544D01*
X7611804Y7806973D01*
X7602933Y7805751D01*
X7597783Y7808637D01*
X7311142Y8084285D01*
X7307554Y8092489D01*
X7310819Y8100828D01*
X7313338Y8102813D01*
X7539917Y8235540D01*
X7685020Y8320539D01*
X7693890Y8321764D01*
X7698655Y8319233D01*
G37*
%TD.AperFunction*%
%TD*%
%TA.AperFunction,Conductor*%
%TO.N,/485_RE*%
G36*
X4125266Y4027301D02*
G01*
X4153594Y4000491D01*
X4186611Y3973204D01*
X4186793Y3973078D01*
X4186800Y3973072D01*
X4201264Y3963008D01*
X4217056Y3952019D01*
X4217291Y3951886D01*
X4217296Y3951883D01*
X4245695Y3935827D01*
X4245934Y3935692D01*
X4246179Y3935582D01*
X4246185Y3935579D01*
X4262153Y3928412D01*
X4274251Y3922981D01*
X4303014Y3912641D01*
X4313647Y3909400D01*
X4333208Y3903437D01*
X4333250Y3903425D01*
X4365867Y3894115D01*
X4365973Y3894084D01*
X4401876Y3883470D01*
X4402197Y3883370D01*
X4434741Y3872722D01*
X4441539Y3866892D01*
X4442801Y3861831D01*
X4448111Y3590216D01*
X4444846Y3581877D01*
X4436184Y3578289D01*
X4164569Y3583599D01*
X4156365Y3587187D01*
X4153678Y3591659D01*
X4143030Y3624203D01*
X4142930Y3624524D01*
X4132316Y3660427D01*
X4132285Y3660533D01*
X4122969Y3693171D01*
X4113804Y3723237D01*
X4113759Y3723386D01*
X4103419Y3752149D01*
X4090708Y3780466D01*
X4074381Y3809344D01*
X4053196Y3839789D01*
X4025909Y3872806D01*
X3999099Y3901134D01*
X3995902Y3909497D01*
X3999325Y3917448D01*
X4108952Y4027075D01*
X4117225Y4030502D01*
X4125266Y4027301D01*
G37*
%TD.AperFunction*%
%TD*%
%TA.AperFunction,Conductor*%
%TO.N,/485_RE*%
G36*
X3227036Y5596160D02*
G01*
X3227794Y5596175D01*
X3231965Y5593389D01*
X3374425Y5445249D01*
X3489959Y5325108D01*
X3493224Y5316769D01*
X3491890Y5311569D01*
X3468455Y5266827D01*
X3468130Y5266248D01*
X3441629Y5221968D01*
X3441414Y5221623D01*
X3415978Y5182447D01*
X3392179Y5146142D01*
X3370638Y5110512D01*
X3351865Y5073194D01*
X3351759Y5072912D01*
X3351755Y5072902D01*
X3339580Y5040391D01*
X3336373Y5031827D01*
X3324673Y4984047D01*
X3317278Y4927492D01*
X3317268Y4927230D01*
X3315129Y4871055D01*
X3311389Y4862918D01*
X3303437Y4859800D01*
X3148163Y4859800D01*
X3139890Y4863227D01*
X3136471Y4871055D01*
X3134331Y4927230D01*
X3134321Y4927492D01*
X3126926Y4984047D01*
X3115226Y5031827D01*
X3112019Y5040391D01*
X3099844Y5072902D01*
X3099840Y5072912D01*
X3099734Y5073194D01*
X3080961Y5110512D01*
X3059420Y5146142D01*
X3035621Y5182447D01*
X3030512Y5190315D01*
X3010189Y5221617D01*
X3009963Y5221979D01*
X3006671Y5227480D01*
X2983299Y5266531D01*
X2955800Y5319034D01*
X3223595Y5597507D01*
X3227036Y5596160D01*
G37*
%TD.AperFunction*%
%TD*%
%TA.AperFunction,Conductor*%
%TO.N,/485_RE*%
G36*
X3101095Y5713972D02*
G01*
X3369391Y5455964D01*
X3371470Y5451209D01*
X3372008Y5451420D01*
X3373506Y5447594D01*
X3095034Y5179800D01*
X3041419Y5207757D01*
X3005920Y5228734D01*
X3005920Y5228735D01*
X2995810Y5234709D01*
X2995480Y5234912D01*
X2955366Y5260443D01*
X2955351Y5260452D01*
X2918110Y5284233D01*
X2881541Y5305668D01*
X2843250Y5324277D01*
X2829870Y5329106D01*
X2801154Y5339471D01*
X2801150Y5339472D01*
X2800843Y5339583D01*
X2800523Y5339658D01*
X2800521Y5339659D01*
X2788863Y5342405D01*
X2751928Y5351107D01*
X2751622Y5351145D01*
X2751619Y5351146D01*
X2694358Y5358342D01*
X2694357Y5358342D01*
X2694111Y5358373D01*
X2658141Y5359688D01*
X2636272Y5360488D01*
X2628130Y5364215D01*
X2625000Y5372180D01*
X2625000Y5527420D01*
X2628427Y5535693D01*
X2636272Y5539112D01*
X2666279Y5540210D01*
X2694111Y5541228D01*
X2694358Y5541259D01*
X2751619Y5548455D01*
X2751622Y5548456D01*
X2751928Y5548494D01*
X2788863Y5557196D01*
X2800521Y5559942D01*
X2800523Y5559943D01*
X2800843Y5560018D01*
X2801150Y5560129D01*
X2801154Y5560130D01*
X2842956Y5575218D01*
X2843250Y5575324D01*
X2881541Y5593933D01*
X2918110Y5615368D01*
X2955351Y5639149D01*
X2955366Y5639158D01*
X2995480Y5664689D01*
X2995810Y5664892D01*
X3041162Y5691692D01*
X3041705Y5691993D01*
X3087577Y5715912D01*
X3096497Y5716699D01*
X3101095Y5713972D01*
G37*
%TD.AperFunction*%
%TD*%
%TA.AperFunction,Conductor*%
%TO.N,/485_RE*%
G36*
X2094067Y5715778D02*
G01*
X2133490Y5694641D01*
X2134247Y5694199D01*
X2154383Y5681323D01*
X2173554Y5669064D01*
X2174085Y5668704D01*
X2193440Y5654776D01*
X2208588Y5643874D01*
X2208710Y5643784D01*
X2240509Y5619966D01*
X2271691Y5597925D01*
X2271877Y5597814D01*
X2271883Y5597810D01*
X2291487Y5586102D01*
X2304400Y5578389D01*
X2340861Y5562030D01*
X2383298Y5549515D01*
X2383670Y5549456D01*
X2383671Y5549456D01*
X2408036Y5545607D01*
X2433936Y5541516D01*
X2434250Y5541502D01*
X2434255Y5541501D01*
X2458412Y5540387D01*
X2483840Y5539215D01*
X2491945Y5535410D01*
X2495000Y5527527D01*
X2495000Y5372073D01*
X2491573Y5363800D01*
X2483840Y5360386D01*
X2452932Y5358961D01*
X2434255Y5358100D01*
X2434250Y5358099D01*
X2433936Y5358085D01*
X2408036Y5353994D01*
X2383671Y5350145D01*
X2383670Y5350145D01*
X2383298Y5350086D01*
X2340861Y5337571D01*
X2304400Y5321212D01*
X2304104Y5321035D01*
X2271883Y5301791D01*
X2271877Y5301787D01*
X2271691Y5301676D01*
X2240509Y5279635D01*
X2208710Y5255817D01*
X2208588Y5255727D01*
X2193440Y5244825D01*
X2174085Y5230897D01*
X2173554Y5230537D01*
X2134261Y5205412D01*
X2133487Y5204958D01*
X2094069Y5183823D01*
X2085158Y5182933D01*
X2080430Y5185701D01*
X1814569Y5441367D01*
X1810981Y5449571D01*
X1814569Y5458233D01*
X1886626Y5527527D01*
X2080431Y5713900D01*
X2088769Y5717165D01*
X2094067Y5715778D01*
G37*
%TD.AperFunction*%
%TD*%
%TA.AperFunction,Conductor*%
%TO.N,/IN_AP*%
G36*
X6105944Y7520339D02*
G01*
X6137985Y7489640D01*
X6138086Y7489553D01*
X6138097Y7489542D01*
X6162952Y7467916D01*
X6173757Y7458514D01*
X6206008Y7433240D01*
X6235757Y7412173D01*
X6264022Y7393667D01*
X6291822Y7376076D01*
X6294985Y7374033D01*
X6295922Y7373357D01*
X6310547Y7361661D01*
X6311503Y7360805D01*
X6319533Y7352775D01*
X6328902Y7346887D01*
X6329972Y7346126D01*
X6357628Y7324009D01*
X6358911Y7323714D01*
X6358915Y7323712D01*
X6367801Y7321669D01*
X6371405Y7320173D01*
X6376245Y7317131D01*
X6377099Y7316540D01*
X6382388Y7312520D01*
X6382833Y7312163D01*
X6412342Y7287347D01*
X6416468Y7279400D01*
X6415723Y7274173D01*
X6322438Y7032946D01*
X6316258Y7026466D01*
X6306883Y7026427D01*
X6069377Y7129116D01*
X6063144Y7135543D01*
X6062345Y7140606D01*
X6064071Y7167401D01*
X6064076Y7167466D01*
X6066283Y7199006D01*
X6066289Y7199087D01*
X6067652Y7228129D01*
X6067341Y7255215D01*
X6064540Y7281032D01*
X6058429Y7306267D01*
X6048191Y7331606D01*
X6036094Y7352428D01*
X6033190Y7357427D01*
X6033188Y7357431D01*
X6033009Y7357738D01*
X6012064Y7385349D01*
X5992173Y7406865D01*
X5989074Y7415265D01*
X5992492Y7423079D01*
X6089577Y7520164D01*
X6097850Y7523591D01*
X6105944Y7520339D01*
G37*
%TD.AperFunction*%
%TD*%
%TA.AperFunction,Conductor*%
%TO.N,/IN_AP*%
G36*
X8352972Y15445134D02*
G01*
X8354957Y15442615D01*
X8501966Y15191655D01*
X8503191Y15182784D01*
X8500650Y15178006D01*
X8478192Y15152518D01*
X8478189Y15152514D01*
X8477937Y15152228D01*
X8477723Y15151906D01*
X8477722Y15151904D01*
X8457734Y15121761D01*
X8457730Y15121755D01*
X8457527Y15121448D01*
X8457367Y15121121D01*
X8457363Y15121114D01*
X8451642Y15109420D01*
X8442888Y15091527D01*
X8431894Y15061976D01*
X8431849Y15061835D01*
X8431838Y15061803D01*
X8422433Y15032353D01*
X8422389Y15032216D01*
X8413649Y15005962D01*
X8412466Y15002410D01*
X8412196Y15001682D01*
X8399758Y14971227D01*
X8399238Y14970122D01*
X8382201Y14938347D01*
X8381458Y14937142D01*
X8357618Y14903271D01*
X8356758Y14902191D01*
X8331710Y14874307D01*
X8323634Y14870444D01*
X8314735Y14873854D01*
X8217816Y14970773D01*
X8214389Y14979046D01*
X8217036Y14986457D01*
X8233004Y15005962D01*
X8233007Y15005967D01*
X8233486Y15006552D01*
X8240560Y15022070D01*
X8245319Y15032508D01*
X8245320Y15032510D01*
X8245702Y15033349D01*
X8248599Y15059084D01*
X8243805Y15084184D01*
X8240602Y15091527D01*
X8233108Y15108707D01*
X8233105Y15108713D01*
X8232947Y15109075D01*
X8217652Y15134186D01*
X8199547Y15159945D01*
X8189450Y15173992D01*
X8180383Y15186606D01*
X8180141Y15186956D01*
X8161681Y15214714D01*
X8161189Y15215522D01*
X8148831Y15237823D01*
X8147819Y15246720D01*
X8150632Y15251604D01*
X8336429Y15444811D01*
X8344633Y15448399D01*
X8352972Y15445134D01*
G37*
%TD.AperFunction*%
%TD*%
%TA.AperFunction,Conductor*%
%TO.N,/IN_AM*%
G36*
X8289948Y14319108D02*
G01*
X8404856Y14208607D01*
X8485731Y14130833D01*
X8489319Y14122629D01*
X8485731Y14113967D01*
X8324224Y13958654D01*
X8289948Y13925692D01*
X8281609Y13922427D01*
X8276493Y13923717D01*
X8245384Y13939692D01*
X8244975Y13939913D01*
X8211908Y13958589D01*
X8211705Y13958706D01*
X8182108Y13976214D01*
X8182073Y13976235D01*
X8154362Y13992285D01*
X8126994Y14006554D01*
X8126799Y14006637D01*
X8126793Y14006640D01*
X8098567Y14018678D01*
X8098564Y14018679D01*
X8098304Y14018790D01*
X8098035Y14018875D01*
X8098031Y14018876D01*
X8066919Y14028652D01*
X8066912Y14028654D01*
X8066625Y14028744D01*
X8045281Y14033103D01*
X8030563Y14036109D01*
X8030556Y14036110D01*
X8030292Y14036164D01*
X8016031Y14037714D01*
X7987871Y14040775D01*
X7987865Y14040775D01*
X7987639Y14040800D01*
X7950896Y14041961D01*
X7948331Y14042042D01*
X7940170Y14045728D01*
X7937000Y14053736D01*
X7937000Y14191064D01*
X7940427Y14199337D01*
X7948330Y14202758D01*
X7967883Y14203376D01*
X7987639Y14204001D01*
X7987865Y14204026D01*
X7987871Y14204026D01*
X8016031Y14207087D01*
X8030292Y14208637D01*
X8030556Y14208691D01*
X8030563Y14208692D01*
X8045281Y14211698D01*
X8066625Y14216057D01*
X8066912Y14216147D01*
X8066919Y14216149D01*
X8098031Y14225925D01*
X8098035Y14225926D01*
X8098304Y14226011D01*
X8098567Y14226123D01*
X8126793Y14238161D01*
X8126799Y14238164D01*
X8126994Y14238247D01*
X8154362Y14252516D01*
X8182073Y14268566D01*
X8211709Y14286097D01*
X8211908Y14286212D01*
X8244975Y14304888D01*
X8245385Y14305109D01*
X8276494Y14321083D01*
X8285419Y14321814D01*
X8289948Y14319108D01*
G37*
%TD.AperFunction*%
%TD*%
%TA.AperFunction,Conductor*%
%TO.N,/IN_AM*%
G36*
X8008228Y7628371D02*
G01*
X8011134Y7623881D01*
X8099064Y7378200D01*
X8098625Y7369255D01*
X8091263Y7363008D01*
X8014735Y7341144D01*
X7842742Y7292007D01*
X7833846Y7293029D01*
X7830047Y7296401D01*
X7815367Y7316702D01*
X7797559Y7341144D01*
X7797503Y7341221D01*
X7780332Y7363214D01*
X7762928Y7382586D01*
X7744365Y7399241D01*
X7723714Y7413083D01*
X7723296Y7413276D01*
X7723289Y7413280D01*
X7708603Y7420063D01*
X7700049Y7424015D01*
X7699626Y7424136D01*
X7699622Y7424138D01*
X7687552Y7427604D01*
X7672443Y7431943D01*
X7657745Y7434128D01*
X7640280Y7436724D01*
X7640276Y7436724D01*
X7639969Y7436770D01*
X7639658Y7436783D01*
X7639650Y7436784D01*
X7612902Y7437923D01*
X7604782Y7441698D01*
X7601700Y7449612D01*
X7601700Y7586893D01*
X7605127Y7595166D01*
X7613206Y7598591D01*
X7632105Y7598905D01*
X7658022Y7599336D01*
X7705852Y7601874D01*
X7705949Y7601883D01*
X7705966Y7601884D01*
X7746949Y7605604D01*
X7746955Y7605605D01*
X7747069Y7605615D01*
X7783553Y7610157D01*
X7783573Y7610160D01*
X7783597Y7610163D01*
X7817182Y7615100D01*
X7849752Y7620031D01*
X7849934Y7620057D01*
X7857686Y7621106D01*
X7883216Y7624562D01*
X7883534Y7624600D01*
X7919510Y7628303D01*
X7919977Y7628342D01*
X7960509Y7630850D01*
X7960992Y7630870D01*
X7999890Y7631635D01*
X8008228Y7628371D01*
G37*
%TD.AperFunction*%
%TD*%
%TA.AperFunction,Conductor*%
%TO.N,/IN_BP*%
G36*
X10371633Y10365331D02*
G01*
X10559908Y10169548D01*
X10563173Y10161209D01*
X10561883Y10156093D01*
X10545908Y10124985D01*
X10545687Y10124576D01*
X10527011Y10091509D01*
X10526896Y10091310D01*
X10509365Y10061674D01*
X10493315Y10033963D01*
X10479046Y10006595D01*
X10466810Y9977905D01*
X10456856Y9946226D01*
X10449436Y9909893D01*
X10444800Y9867240D01*
X10444793Y9867012D01*
X10444793Y9867011D01*
X10443558Y9827931D01*
X10439872Y9819770D01*
X10431864Y9816600D01*
X10294536Y9816600D01*
X10286263Y9820027D01*
X10282842Y9827930D01*
X10281606Y9867012D01*
X10281599Y9867240D01*
X10276963Y9909893D01*
X10269543Y9946226D01*
X10259589Y9977905D01*
X10247353Y10006595D01*
X10233084Y10033963D01*
X10217034Y10061674D01*
X10199503Y10091310D01*
X10199388Y10091509D01*
X10180712Y10124576D01*
X10180491Y10124985D01*
X10164517Y10156093D01*
X10163786Y10165018D01*
X10166492Y10169548D01*
X10354767Y10365331D01*
X10362971Y10368919D01*
X10371633Y10365331D01*
G37*
%TD.AperFunction*%
%TD*%
%TA.AperFunction,Conductor*%
%TO.N,/IN_BP*%
G36*
X10541328Y6896373D02*
G01*
X10544755Y6888056D01*
X10544592Y6844934D01*
X10544591Y6844837D01*
X10544031Y6798375D01*
X10544030Y6798275D01*
X10543201Y6758053D01*
X10543198Y6757964D01*
X10542197Y6722476D01*
X10542171Y6722418D01*
X10542195Y6722417D01*
X10541100Y6689536D01*
X10541095Y6689536D01*
X10541100Y6689524D01*
X10540004Y6657581D01*
X10538998Y6624720D01*
X10538169Y6589124D01*
X10538168Y6589071D01*
X10537607Y6548961D01*
X10537607Y6548909D01*
X10537439Y6511221D01*
X10533975Y6502963D01*
X10528909Y6500010D01*
X10252129Y6422119D01*
X10243237Y6423177D01*
X10237697Y6430213D01*
X10237270Y6432891D01*
X10225979Y6701884D01*
X10229056Y6710294D01*
X10233121Y6713154D01*
X10253554Y6721773D01*
X10254988Y6722418D01*
X10279122Y6733279D01*
X10279262Y6733342D01*
X10302591Y6745381D01*
X10323368Y6758570D01*
X10341421Y6773585D01*
X10356578Y6791106D01*
X10368667Y6811810D01*
X10377515Y6836375D01*
X10382950Y6865479D01*
X10384203Y6888731D01*
X10388070Y6896806D01*
X10395886Y6899800D01*
X10533055Y6899800D01*
X10541328Y6896373D01*
G37*
%TD.AperFunction*%
%TD*%
%TA.AperFunction,Conductor*%
%TO.N,/IN_BM*%
G36*
X10084537Y7502773D02*
G01*
X10087958Y7494870D01*
X10089200Y7455561D01*
X10093836Y7412908D01*
X10101256Y7376575D01*
X10111210Y7344896D01*
X10123446Y7316206D01*
X10137715Y7288838D01*
X10137789Y7288711D01*
X10153759Y7261138D01*
X10153765Y7261127D01*
X10171294Y7231495D01*
X10171411Y7231292D01*
X10190087Y7198225D01*
X10190308Y7197816D01*
X10206283Y7166707D01*
X10207014Y7157782D01*
X10204308Y7153252D01*
X10016033Y6957469D01*
X10007829Y6953881D01*
X9999167Y6957469D01*
X9810892Y7153252D01*
X9807627Y7161591D01*
X9808917Y7166706D01*
X9824891Y7197815D01*
X9825112Y7198225D01*
X9843788Y7231292D01*
X9843905Y7231495D01*
X9861434Y7261127D01*
X9861440Y7261138D01*
X9877410Y7288711D01*
X9877484Y7288838D01*
X9891753Y7316206D01*
X9903989Y7344896D01*
X9913943Y7376575D01*
X9921363Y7412908D01*
X9925999Y7455561D01*
X9927242Y7494870D01*
X9930928Y7503030D01*
X9938936Y7506200D01*
X10076264Y7506200D01*
X10084537Y7502773D01*
G37*
%TD.AperFunction*%
%TD*%
%TA.AperFunction,Conductor*%
%TO.N,/IN_BM*%
G36*
X10229676Y9113609D02*
G01*
X10235216Y9106573D01*
X10235643Y9103896D01*
X10246377Y8847030D01*
X10246884Y8834900D01*
X10243805Y8826490D01*
X10239739Y8823630D01*
X10219229Y8814984D01*
X10193447Y8803389D01*
X10170051Y8791322D01*
X10149214Y8778101D01*
X10131108Y8763048D01*
X10115906Y8745483D01*
X10115636Y8745021D01*
X10115634Y8745018D01*
X10104049Y8725184D01*
X10103781Y8724725D01*
X10094907Y8700095D01*
X10089455Y8670914D01*
X10089435Y8670535D01*
X10089434Y8670530D01*
X10088197Y8647570D01*
X10084330Y8639494D01*
X10076514Y8636500D01*
X9939347Y8636500D01*
X9931074Y8639927D01*
X9927647Y8648247D01*
X9927821Y8691457D01*
X9927822Y8691560D01*
X9927938Y8700541D01*
X9928421Y8738155D01*
X9929306Y8778428D01*
X9930381Y8814109D01*
X9931550Y8847030D01*
X9931555Y8847030D01*
X9931550Y8847042D01*
X9932719Y8879025D01*
X9933794Y8911926D01*
X9934679Y8947567D01*
X9934679Y8947582D01*
X9934680Y8947602D01*
X9935279Y8987781D01*
X9935279Y8987823D01*
X9935459Y9025581D01*
X9938925Y9033837D01*
X9943990Y9036788D01*
X10220784Y9114667D01*
X10229676Y9113609D01*
G37*
%TD.AperFunction*%
%TD*%
%TA.AperFunction,Conductor*%
%TO.N,/UART0_RX*%
G36*
X4504233Y5591031D02*
G01*
X4759959Y5325108D01*
X4763224Y5316769D01*
X4761890Y5311569D01*
X4738455Y5266827D01*
X4738130Y5266248D01*
X4711629Y5221968D01*
X4711414Y5221623D01*
X4685978Y5182447D01*
X4662179Y5146142D01*
X4640638Y5110512D01*
X4621865Y5073194D01*
X4621759Y5072912D01*
X4621755Y5072902D01*
X4609580Y5040391D01*
X4606373Y5031827D01*
X4594673Y4984047D01*
X4587278Y4927492D01*
X4587268Y4927230D01*
X4585129Y4871055D01*
X4581389Y4862918D01*
X4573437Y4859800D01*
X4418163Y4859800D01*
X4409890Y4863227D01*
X4406471Y4871055D01*
X4404331Y4927230D01*
X4404321Y4927492D01*
X4396926Y4984047D01*
X4385226Y5031827D01*
X4382019Y5040391D01*
X4369844Y5072902D01*
X4369840Y5072912D01*
X4369734Y5073194D01*
X4350961Y5110512D01*
X4329420Y5146142D01*
X4305621Y5182447D01*
X4280185Y5221623D01*
X4279970Y5221968D01*
X4253465Y5266255D01*
X4253140Y5266834D01*
X4229710Y5311568D01*
X4228907Y5320487D01*
X4231641Y5325107D01*
X4487367Y5591031D01*
X4495571Y5594619D01*
X4504233Y5591031D01*
G37*
%TD.AperFunction*%
%TD*%
%TA.AperFunction,Conductor*%
%TO.N,/UART0_RX*%
G36*
X4684066Y4281301D02*
G01*
X4712394Y4254491D01*
X4745411Y4227204D01*
X4745593Y4227078D01*
X4745600Y4227072D01*
X4760064Y4217008D01*
X4775856Y4206019D01*
X4776091Y4205886D01*
X4776096Y4205883D01*
X4804495Y4189827D01*
X4804734Y4189692D01*
X4804979Y4189582D01*
X4804985Y4189579D01*
X4820953Y4182412D01*
X4833051Y4176981D01*
X4861814Y4166641D01*
X4872447Y4163400D01*
X4892008Y4157437D01*
X4892050Y4157425D01*
X4924667Y4148115D01*
X4924773Y4148084D01*
X4960676Y4137470D01*
X4960997Y4137370D01*
X4993541Y4126722D01*
X5000339Y4120892D01*
X5001601Y4115831D01*
X5006911Y3844216D01*
X5003646Y3835877D01*
X4994984Y3832289D01*
X4723369Y3837599D01*
X4715165Y3841187D01*
X4712478Y3845659D01*
X4701830Y3878203D01*
X4701730Y3878524D01*
X4691116Y3914427D01*
X4691085Y3914533D01*
X4681769Y3947171D01*
X4672604Y3977237D01*
X4672559Y3977386D01*
X4662219Y4006149D01*
X4649508Y4034466D01*
X4633181Y4063344D01*
X4611996Y4093789D01*
X4584709Y4126806D01*
X4557899Y4155134D01*
X4554702Y4163497D01*
X4558125Y4171448D01*
X4667752Y4281075D01*
X4676025Y4284502D01*
X4684066Y4281301D01*
G37*
%TD.AperFunction*%
%TD*%
%TA.AperFunction,Conductor*%
%TO.N,V_SUPPLY*%
G36*
X11846391Y19589893D02*
G01*
X11882355Y19540393D01*
X11887200Y19509800D01*
X11887200Y18389600D01*
X12095504Y18181296D01*
X12123281Y18126779D01*
X12124500Y18111292D01*
X12124500Y17754452D01*
X12136133Y17695969D01*
X12180448Y17629648D01*
X12246769Y17585333D01*
X12256332Y17583431D01*
X12256334Y17583430D01*
X12279005Y17578921D01*
X12305252Y17573700D01*
X12662092Y17573700D01*
X12720283Y17554793D01*
X12732096Y17544704D01*
X13258800Y17018000D01*
X13268856Y17018314D01*
X14841590Y17067462D01*
X14900343Y17050381D01*
X14914686Y17038514D01*
X16764000Y15189200D01*
X17483976Y15144201D01*
X17540873Y15121702D01*
X17573680Y15070055D01*
X17576800Y15045395D01*
X17576800Y13967400D01*
X17557893Y13909209D01*
X17508393Y13873245D01*
X17477800Y13868400D01*
X16510000Y13868400D01*
X15798800Y13157200D01*
X15798800Y12307081D01*
X15779893Y12248890D01*
X15758618Y12227448D01*
X15690250Y12176950D01*
X15609766Y12067984D01*
X15564881Y11940169D01*
X15561900Y11908634D01*
X15561900Y11150966D01*
X15564881Y11119431D01*
X15609766Y10991616D01*
X15690250Y10882650D01*
X15696207Y10878250D01*
X15758618Y10832152D01*
X15794192Y10782371D01*
X15798800Y10752519D01*
X15798800Y10583481D01*
X15779893Y10525290D01*
X15758618Y10503848D01*
X15727943Y10481191D01*
X15690250Y10453350D01*
X15685850Y10447393D01*
X15615450Y10352079D01*
X15609766Y10344384D01*
X15564881Y10216569D01*
X15561900Y10185034D01*
X15561900Y9427366D01*
X15562118Y9425065D01*
X15562118Y9425055D01*
X15564313Y9401839D01*
X15564881Y9395831D01*
X15609766Y9268016D01*
X15690250Y9159050D01*
X15696207Y9154650D01*
X15758618Y9108552D01*
X15794192Y9058771D01*
X15798800Y9028919D01*
X15798800Y8839200D01*
X16408400Y8229600D01*
X17528600Y8229600D01*
X17586791Y8210693D01*
X17622755Y8161193D01*
X17627600Y8130600D01*
X17627600Y6296600D01*
X17608693Y6238409D01*
X17559193Y6202445D01*
X17528600Y6197600D01*
X16865600Y6197600D01*
X15290800Y4673600D01*
X15290800Y3604200D01*
X15271893Y3546009D01*
X15222393Y3510045D01*
X15191800Y3505200D01*
X13814530Y3505200D01*
X13756339Y3524107D01*
X13720375Y3573607D01*
X13715531Y3603729D01*
X13695719Y7764172D01*
X13705776Y7808120D01*
X13711805Y7820455D01*
X13715181Y7827361D01*
X13725500Y7898096D01*
X13725500Y8291904D01*
X13714997Y8363254D01*
X13711609Y8370155D01*
X13711607Y8370161D01*
X13702674Y8388355D01*
X13692542Y8431513D01*
X13689730Y9021918D01*
X13699786Y9065866D01*
X13711806Y9090457D01*
X13715181Y9097361D01*
X13722721Y9149048D01*
X13724983Y9164551D01*
X13724983Y9164553D01*
X13725500Y9168096D01*
X13725500Y9477805D01*
X13744407Y9535996D01*
X13754496Y9547809D01*
X14387221Y10180534D01*
X14389876Y10182826D01*
X14394138Y10184909D01*
X14425453Y10218667D01*
X14428030Y10221343D01*
X14440792Y10234105D01*
X14443206Y10237624D01*
X14446153Y10240980D01*
X14458987Y10254816D01*
X14458989Y10254819D01*
X14465203Y10261518D01*
X14468590Y10270007D01*
X14468915Y10270821D01*
X14479226Y10290131D01*
X14479717Y10290847D01*
X14484891Y10298389D01*
X14490522Y10322118D01*
X14494892Y10335934D01*
X14501333Y10352079D01*
X14503924Y10358573D01*
X14504500Y10364447D01*
X14504500Y10369437D01*
X14506810Y10389179D01*
X14506907Y10391166D01*
X14509018Y10400061D01*
X14505404Y10426617D01*
X14504500Y10439966D01*
X14504500Y12345531D01*
X14504757Y12349028D01*
X14506297Y12353514D01*
X14504570Y12399519D01*
X14504500Y12403232D01*
X14504500Y12421290D01*
X14503715Y12425503D01*
X14503427Y12429957D01*
X14502720Y12448802D01*
X14502720Y12448803D01*
X14502377Y12457936D01*
X14498426Y12467132D01*
X14492061Y12488085D01*
X14491902Y12488937D01*
X14491901Y12488940D01*
X14490227Y12497928D01*
X14485432Y12505707D01*
X14485430Y12505712D01*
X14477436Y12518679D01*
X14470749Y12531552D01*
X14463888Y12547523D01*
X14463887Y12547525D01*
X14461129Y12553944D01*
X14457382Y12558505D01*
X14453855Y12562032D01*
X14441532Y12577623D01*
X14440190Y12579103D01*
X14435395Y12586882D01*
X14414057Y12603108D01*
X14403987Y12611900D01*
X14000266Y13015621D01*
X13997974Y13018276D01*
X13995891Y13022538D01*
X13962133Y13053853D01*
X13959457Y13056430D01*
X13946695Y13069192D01*
X13943176Y13071606D01*
X13939820Y13074553D01*
X13925984Y13087387D01*
X13925981Y13087389D01*
X13919282Y13093603D01*
X13910795Y13096989D01*
X13910793Y13096990D01*
X13909979Y13097315D01*
X13890669Y13107626D01*
X13889953Y13108117D01*
X13882411Y13113291D01*
X13858682Y13118922D01*
X13844866Y13123292D01*
X13828721Y13129733D01*
X13828722Y13129733D01*
X13822227Y13132324D01*
X13816353Y13132900D01*
X13811363Y13132900D01*
X13791622Y13135210D01*
X13789634Y13135307D01*
X13780739Y13137418D01*
X13771680Y13136185D01*
X13763832Y13136569D01*
X13706634Y13158296D01*
X13673131Y13209493D01*
X13669668Y13234980D01*
X13665275Y14157520D01*
X13665275Y14157521D01*
X13665200Y14173200D01*
X12741886Y15096514D01*
X12714109Y15151031D01*
X12723680Y15211463D01*
X12766945Y15254728D01*
X12844681Y15294336D01*
X12844683Y15294337D01*
X12851620Y15297872D01*
X12946928Y15393180D01*
X13008119Y15513274D01*
X13029204Y15646400D01*
X13015977Y15729915D01*
X13009338Y15771831D01*
X13009338Y15771832D01*
X13008119Y15779526D01*
X12946928Y15899620D01*
X12851620Y15994928D01*
X12844683Y15998463D01*
X12844681Y15998464D01*
X12738466Y16052583D01*
X12738465Y16052583D01*
X12731526Y16056119D01*
X12723832Y16057338D01*
X12723831Y16057338D01*
X12606096Y16075985D01*
X12598400Y16077204D01*
X12590704Y16075985D01*
X12472969Y16057338D01*
X12472968Y16057338D01*
X12465274Y16056119D01*
X12458335Y16052583D01*
X12458334Y16052583D01*
X12398445Y16022068D01*
X12338013Y16012497D01*
X12283496Y16040274D01*
X12255719Y16094791D01*
X12254500Y16110278D01*
X12254500Y16756634D01*
X12251519Y16788169D01*
X12206634Y16915984D01*
X12194446Y16932486D01*
X12130550Y17018993D01*
X12126150Y17024950D01*
X12094393Y17048406D01*
X12023136Y17101038D01*
X12023135Y17101039D01*
X12017184Y17105434D01*
X11889369Y17150319D01*
X11883362Y17150887D01*
X11883361Y17150887D01*
X11860145Y17153082D01*
X11860135Y17153082D01*
X11857834Y17153300D01*
X11100166Y17153300D01*
X11097865Y17153082D01*
X11097855Y17153082D01*
X11074639Y17150887D01*
X11074638Y17150887D01*
X11068631Y17150319D01*
X10940816Y17105434D01*
X10934865Y17101039D01*
X10934864Y17101038D01*
X10889823Y17067770D01*
X10831783Y17048406D01*
X10773445Y17066856D01*
X10761001Y17077399D01*
X10036596Y17801804D01*
X10008819Y17856321D01*
X10007600Y17871808D01*
X10007600Y19509800D01*
X10026507Y19567991D01*
X10076007Y19603955D01*
X10106600Y19608800D01*
X11788200Y19608800D01*
X11846391Y19589893D01*
G37*
%TD.AperFunction*%
%TD*%
%TA.AperFunction,Conductor*%
%TO.N,GND*%
G36*
X17988169Y19796982D02*
G01*
X17999641Y19794344D01*
X18010516Y19796805D01*
X18021662Y19796785D01*
X18021662Y19796631D01*
X18031712Y19797421D01*
X18113994Y19792028D01*
X18228410Y19784529D01*
X18241237Y19782841D01*
X18459387Y19739449D01*
X18471887Y19736099D01*
X18542400Y19712163D01*
X18682500Y19664605D01*
X18694449Y19659656D01*
X18893944Y19561276D01*
X18905137Y19554813D01*
X19042444Y19463067D01*
X19090072Y19431243D01*
X19100345Y19423360D01*
X19267560Y19276717D01*
X19276717Y19267560D01*
X19423360Y19100345D01*
X19431243Y19090072D01*
X19452372Y19058450D01*
X19554813Y18905137D01*
X19561276Y18893944D01*
X19659656Y18694449D01*
X19664605Y18682501D01*
X19735138Y18474720D01*
X19736098Y18471891D01*
X19739449Y18459387D01*
X19778863Y18261239D01*
X19782840Y18241244D01*
X19784529Y18228412D01*
X19793821Y18086647D01*
X19797388Y18032228D01*
X19796595Y18022372D01*
X19796862Y18022372D01*
X19796842Y18011224D01*
X19794344Y18000359D01*
X19796804Y17989487D01*
X19797059Y17988362D01*
X19799500Y17966512D01*
X19799500Y14907365D01*
X19780593Y14849174D01*
X19731093Y14813210D01*
X19669907Y14813210D01*
X19639470Y14830785D01*
X19639050Y14830207D01*
X19549556Y14895228D01*
X19490161Y14938381D01*
X19485429Y14940488D01*
X19485427Y14940489D01*
X19326774Y15011126D01*
X19326771Y15011127D01*
X19322034Y15013236D01*
X19186002Y15042151D01*
X19147091Y15050422D01*
X19147090Y15050422D01*
X19142019Y15051500D01*
X18957981Y15051500D01*
X18952910Y15050422D01*
X18952909Y15050422D01*
X18913998Y15042151D01*
X18777966Y15013236D01*
X18773229Y15011127D01*
X18773226Y15011126D01*
X18614573Y14940489D01*
X18614571Y14940488D01*
X18609839Y14938381D01*
X18460950Y14830207D01*
X18457484Y14826358D01*
X18457480Y14826354D01*
X18341277Y14697297D01*
X18341273Y14697292D01*
X18337805Y14693440D01*
X18335210Y14688945D01*
X18248380Y14538553D01*
X18248378Y14538548D01*
X18245786Y14534059D01*
X18244184Y14529128D01*
X18190517Y14363961D01*
X18190516Y14363956D01*
X18188915Y14359029D01*
X18169678Y14176000D01*
X18188915Y13992971D01*
X18190516Y13988044D01*
X18190517Y13988039D01*
X18216606Y13907747D01*
X18245786Y13817941D01*
X18248378Y13813452D01*
X18248380Y13813447D01*
X18308883Y13708654D01*
X18337805Y13658560D01*
X18341273Y13654708D01*
X18341277Y13654703D01*
X18457480Y13525646D01*
X18457484Y13525642D01*
X18460950Y13521793D01*
X18609839Y13413619D01*
X18614571Y13411512D01*
X18614573Y13411511D01*
X18773226Y13340874D01*
X18773229Y13340873D01*
X18777966Y13338764D01*
X18783039Y13337686D01*
X18783038Y13337686D01*
X18951376Y13301904D01*
X18957981Y13300500D01*
X19142019Y13300500D01*
X19148625Y13301904D01*
X19316962Y13337686D01*
X19316961Y13337686D01*
X19322034Y13338764D01*
X19326771Y13340873D01*
X19326774Y13340874D01*
X19485427Y13411511D01*
X19485429Y13411512D01*
X19490161Y13413619D01*
X19639050Y13521793D01*
X19639849Y13520694D01*
X19690142Y13543092D01*
X19749992Y13530376D01*
X19790937Y13484911D01*
X19799500Y13444635D01*
X19799500Y12907365D01*
X19780593Y12849174D01*
X19731093Y12813210D01*
X19669907Y12813210D01*
X19639470Y12830785D01*
X19639050Y12830207D01*
X19494352Y12935336D01*
X19490161Y12938381D01*
X19485429Y12940488D01*
X19485427Y12940489D01*
X19326774Y13011126D01*
X19326771Y13011127D01*
X19322034Y13013236D01*
X19142019Y13051500D01*
X18957981Y13051500D01*
X18777966Y13013236D01*
X18773229Y13011127D01*
X18773226Y13011126D01*
X18614573Y12940489D01*
X18614571Y12940488D01*
X18609839Y12938381D01*
X18460950Y12830207D01*
X18457484Y12826358D01*
X18457480Y12826354D01*
X18341277Y12697297D01*
X18341273Y12697292D01*
X18337805Y12693440D01*
X18335210Y12688945D01*
X18248380Y12538553D01*
X18248378Y12538548D01*
X18245786Y12534059D01*
X18244184Y12529128D01*
X18190517Y12363961D01*
X18190516Y12363956D01*
X18188915Y12359029D01*
X18169678Y12176000D01*
X18188915Y11992971D01*
X18190516Y11988044D01*
X18190517Y11988039D01*
X18211125Y11924615D01*
X18245786Y11817941D01*
X18248378Y11813452D01*
X18248380Y11813447D01*
X18299513Y11724883D01*
X18337805Y11658560D01*
X18341273Y11654708D01*
X18341277Y11654703D01*
X18457480Y11525646D01*
X18457484Y11525642D01*
X18460950Y11521793D01*
X18609839Y11413619D01*
X18614571Y11411512D01*
X18614573Y11411511D01*
X18773226Y11340874D01*
X18773229Y11340873D01*
X18777966Y11338764D01*
X18836519Y11326318D01*
X18908146Y11311093D01*
X18957981Y11300500D01*
X19142019Y11300500D01*
X19191855Y11311093D01*
X19263481Y11326318D01*
X19322034Y11338764D01*
X19326771Y11340873D01*
X19326774Y11340874D01*
X19485427Y11411511D01*
X19485429Y11411512D01*
X19490161Y11413619D01*
X19639050Y11521793D01*
X19639849Y11520694D01*
X19690142Y11543092D01*
X19749992Y11530376D01*
X19790937Y11484911D01*
X19799500Y11444635D01*
X19799500Y10907365D01*
X19780593Y10849174D01*
X19731093Y10813210D01*
X19669907Y10813210D01*
X19639470Y10830785D01*
X19639050Y10830207D01*
X19494352Y10935336D01*
X19490161Y10938381D01*
X19485429Y10940488D01*
X19485427Y10940489D01*
X19326774Y11011126D01*
X19326771Y11011127D01*
X19322034Y11013236D01*
X19142019Y11051500D01*
X18957981Y11051500D01*
X18777966Y11013236D01*
X18773229Y11011127D01*
X18773226Y11011126D01*
X18614573Y10940489D01*
X18614571Y10940488D01*
X18609839Y10938381D01*
X18460950Y10830207D01*
X18457484Y10826358D01*
X18457480Y10826354D01*
X18341277Y10697297D01*
X18341273Y10697292D01*
X18337805Y10693440D01*
X18335210Y10688945D01*
X18248380Y10538553D01*
X18248378Y10538548D01*
X18245786Y10534059D01*
X18244184Y10529128D01*
X18190517Y10363961D01*
X18190516Y10363956D01*
X18188915Y10359029D01*
X18169678Y10176000D01*
X18188915Y9992971D01*
X18190516Y9988044D01*
X18190517Y9988039D01*
X18221814Y9891719D01*
X18245786Y9817941D01*
X18248378Y9813452D01*
X18248380Y9813447D01*
X18314157Y9699520D01*
X18337805Y9658560D01*
X18341273Y9654708D01*
X18341277Y9654703D01*
X18457480Y9525646D01*
X18457484Y9525642D01*
X18460950Y9521793D01*
X18609839Y9413619D01*
X18614571Y9411512D01*
X18614573Y9411511D01*
X18773226Y9340874D01*
X18773229Y9340873D01*
X18777966Y9338764D01*
X18957981Y9300500D01*
X19142019Y9300500D01*
X19322034Y9338764D01*
X19326771Y9340873D01*
X19326774Y9340874D01*
X19485427Y9411511D01*
X19485429Y9411512D01*
X19490161Y9413619D01*
X19639050Y9521793D01*
X19639849Y9520694D01*
X19690142Y9543092D01*
X19749992Y9530376D01*
X19790937Y9484911D01*
X19799500Y9444635D01*
X19799500Y9150500D01*
X19780593Y9092309D01*
X19731093Y9056345D01*
X19700500Y9051500D01*
X18355252Y9051500D01*
X18329005Y9046279D01*
X18306334Y9041770D01*
X18306332Y9041769D01*
X18296769Y9039867D01*
X18230448Y8995552D01*
X18186133Y8929231D01*
X18184231Y8919668D01*
X18184230Y8919666D01*
X18180968Y8903263D01*
X18174500Y8870748D01*
X18174500Y7481252D01*
X18186133Y7422769D01*
X18230448Y7356448D01*
X18296769Y7312133D01*
X18306332Y7310231D01*
X18306334Y7310230D01*
X18329005Y7305721D01*
X18355252Y7300500D01*
X19700500Y7300500D01*
X19758691Y7281593D01*
X19794655Y7232093D01*
X19799500Y7201500D01*
X19799500Y2034017D01*
X19796982Y2011831D01*
X19794344Y2000359D01*
X19796805Y1989484D01*
X19796785Y1978338D01*
X19796631Y1978338D01*
X19797421Y1968288D01*
X19784530Y1771596D01*
X19782840Y1758756D01*
X19739450Y1540618D01*
X19736099Y1528113D01*
X19671006Y1336357D01*
X19664605Y1317500D01*
X19659656Y1305551D01*
X19561276Y1106056D01*
X19554813Y1094863D01*
X19500671Y1013833D01*
X19431243Y909928D01*
X19423360Y899655D01*
X19276717Y732440D01*
X19267560Y723283D01*
X19100345Y576640D01*
X19090072Y568757D01*
X19044239Y538132D01*
X18905137Y445187D01*
X18893944Y438724D01*
X18694449Y340344D01*
X18682501Y335395D01*
X18471887Y263901D01*
X18459387Y260551D01*
X18241237Y217159D01*
X18228412Y215471D01*
X18032225Y202612D01*
X18022372Y203405D01*
X18022372Y203138D01*
X18011224Y203158D01*
X18000359Y205656D01*
X17988359Y202941D01*
X17966512Y200500D01*
X13252404Y200500D01*
X13194213Y219407D01*
X13158249Y268907D01*
X13158249Y330093D01*
X13194213Y379593D01*
X13207459Y387710D01*
X13251081Y409936D01*
X13251083Y409937D01*
X13258020Y413472D01*
X13353328Y508780D01*
X13359101Y520109D01*
X13410983Y621934D01*
X13410983Y621935D01*
X13414519Y628874D01*
X13417449Y647369D01*
X13434385Y754304D01*
X13435604Y762000D01*
X13420162Y859498D01*
X13415738Y887431D01*
X13415738Y887432D01*
X13414519Y895126D01*
X13406977Y909928D01*
X13356864Y1008281D01*
X13356863Y1008283D01*
X13353328Y1015220D01*
X13258020Y1110528D01*
X13251083Y1114063D01*
X13251081Y1114064D01*
X13144866Y1168183D01*
X13144865Y1168183D01*
X13137926Y1171719D01*
X13130232Y1172938D01*
X13130231Y1172938D01*
X13012496Y1191585D01*
X13004800Y1192804D01*
X12997104Y1191585D01*
X12879368Y1172938D01*
X12879366Y1172937D01*
X12871674Y1171719D01*
X12846544Y1158915D01*
X12786115Y1149343D01*
X12756658Y1158913D01*
X12731526Y1171719D01*
X12723834Y1172937D01*
X12723832Y1172938D01*
X12606096Y1191585D01*
X12598400Y1192804D01*
X12590704Y1191585D01*
X12472969Y1172938D01*
X12472968Y1172938D01*
X12465274Y1171719D01*
X12458335Y1168183D01*
X12458334Y1168183D01*
X12352119Y1114064D01*
X12352117Y1114063D01*
X12345180Y1110528D01*
X12249872Y1015220D01*
X12246337Y1008283D01*
X12246336Y1008281D01*
X12196223Y909928D01*
X12188681Y895126D01*
X12187462Y887432D01*
X12187462Y887431D01*
X12183038Y859498D01*
X12167596Y762000D01*
X12168815Y754304D01*
X12185752Y647369D01*
X12188681Y628874D01*
X12192217Y621935D01*
X12192217Y621934D01*
X12244100Y520109D01*
X12249872Y508780D01*
X12345180Y413472D01*
X12352117Y409937D01*
X12352119Y409936D01*
X12395741Y387710D01*
X12439006Y344445D01*
X12448577Y284013D01*
X12420800Y229497D01*
X12366283Y201719D01*
X12350796Y200500D01*
X10013707Y200500D01*
X9955516Y219407D01*
X9919552Y268907D01*
X9915926Y314987D01*
X9929185Y398703D01*
X9929185Y398704D01*
X9930404Y406400D01*
X9927435Y425143D01*
X9918267Y483031D01*
X9917187Y493271D01*
X9916271Y510532D01*
X9916271Y510533D01*
X9916013Y515392D01*
X9906389Y553184D01*
X9905184Y557701D01*
X9905035Y558235D01*
X9903615Y563091D01*
X9891642Y602250D01*
X9890510Y605835D01*
X9890379Y606237D01*
X9889209Y609722D01*
X9877205Y644438D01*
X9876167Y647370D01*
X9865132Y677785D01*
X9864721Y678942D01*
X9856543Y702446D01*
X9855253Y706423D01*
X9853366Y712688D01*
X9850129Y723435D01*
X9848507Y729511D01*
X9844944Y744804D01*
X9843575Y751821D01*
X9840588Y770754D01*
X9839751Y777605D01*
X9837376Y804943D01*
X9837038Y810946D01*
X9836248Y841429D01*
X9836248Y841431D01*
X9836126Y846130D01*
X9835120Y850720D01*
X9835119Y850727D01*
X9833196Y859498D01*
X9830900Y880695D01*
X9830900Y6143144D01*
X9849807Y6201335D01*
X9899307Y6237299D01*
X9960493Y6237299D01*
X9999904Y6213148D01*
X10059180Y6153872D01*
X10066117Y6150337D01*
X10066119Y6150336D01*
X10171981Y6096397D01*
X10179274Y6092681D01*
X10186968Y6091462D01*
X10186969Y6091462D01*
X10275422Y6077453D01*
X10299628Y6073619D01*
X10304704Y6072815D01*
X10312400Y6071596D01*
X10320096Y6072815D01*
X10325173Y6073619D01*
X10349378Y6077453D01*
X10437831Y6091462D01*
X10437832Y6091462D01*
X10445526Y6092681D01*
X10452819Y6096397D01*
X10558681Y6150336D01*
X10558683Y6150337D01*
X10565620Y6153872D01*
X10660928Y6249180D01*
X10689083Y6304436D01*
X10718583Y6362334D01*
X10718583Y6362335D01*
X10722119Y6369274D01*
X10743204Y6502400D01*
X10742383Y6507584D01*
X10742937Y6510305D01*
X10742971Y6517800D01*
X10743099Y6546584D01*
X10743108Y6547523D01*
X10743339Y6564093D01*
X10743629Y6584855D01*
X10743645Y6585722D01*
X10743740Y6589805D01*
X10744998Y6599346D01*
X10744724Y6599373D01*
X10745062Y6602824D01*
X10745300Y6605247D01*
X10745300Y6610236D01*
X10747610Y6629978D01*
X10747707Y6631967D01*
X10749818Y6640861D01*
X10747145Y6660506D01*
X10746300Y6677252D01*
X10746480Y6682485D01*
X10747038Y6682466D01*
X10747045Y6682677D01*
X10746486Y6682696D01*
X10747581Y6715577D01*
X10747755Y6715571D01*
X10747814Y6716676D01*
X10747615Y6716682D01*
X10748610Y6751959D01*
X10748616Y6752170D01*
X10748654Y6753723D01*
X10748709Y6756400D01*
X12065996Y6756400D01*
X12067215Y6748704D01*
X12084296Y6640861D01*
X12087081Y6623274D01*
X12090617Y6616335D01*
X12090617Y6616334D01*
X12144642Y6510305D01*
X12148272Y6503180D01*
X12243580Y6407872D01*
X12250517Y6404337D01*
X12250519Y6404336D01*
X12331872Y6362885D01*
X12363674Y6346681D01*
X12371368Y6345462D01*
X12371369Y6345462D01*
X12489104Y6326815D01*
X12496800Y6325596D01*
X12504496Y6326815D01*
X12622231Y6345462D01*
X12622232Y6345462D01*
X12629926Y6346681D01*
X12661728Y6362885D01*
X12743081Y6404336D01*
X12743083Y6404337D01*
X12750020Y6407872D01*
X12845328Y6503180D01*
X12848959Y6510305D01*
X12902983Y6616334D01*
X12902983Y6616335D01*
X12906519Y6623274D01*
X12909305Y6640861D01*
X12926385Y6748704D01*
X12927604Y6756400D01*
X12906519Y6889526D01*
X12899590Y6903125D01*
X12848864Y7002681D01*
X12848863Y7002683D01*
X12845328Y7009620D01*
X12750020Y7104928D01*
X12743083Y7108463D01*
X12743081Y7108464D01*
X12636866Y7162583D01*
X12636865Y7162583D01*
X12629926Y7166119D01*
X12622232Y7167338D01*
X12622231Y7167338D01*
X12504496Y7185985D01*
X12496800Y7187204D01*
X12489104Y7185985D01*
X12371369Y7167338D01*
X12371368Y7167338D01*
X12363674Y7166119D01*
X12356735Y7162583D01*
X12356734Y7162583D01*
X12250519Y7108464D01*
X12250517Y7108463D01*
X12243580Y7104928D01*
X12148272Y7009620D01*
X12144737Y7002683D01*
X12144736Y7002681D01*
X12094010Y6903125D01*
X12087081Y6889526D01*
X12065996Y6756400D01*
X10748709Y6756400D01*
X10749486Y6794034D01*
X10749515Y6795799D01*
X10750076Y6842361D01*
X10750090Y6844057D01*
X10750254Y6887276D01*
X10748453Y6896466D01*
X10747148Y6903125D01*
X10745300Y6922165D01*
X10745300Y8426075D01*
X10764207Y8484266D01*
X10771719Y8493402D01*
X10796453Y8520066D01*
X10799030Y8522743D01*
X10811792Y8535505D01*
X10814206Y8539024D01*
X10817153Y8542380D01*
X10829987Y8556216D01*
X10829989Y8556219D01*
X10836203Y8562918D01*
X10839590Y8571407D01*
X10839915Y8572221D01*
X10850226Y8591531D01*
X10850718Y8592249D01*
X10855891Y8599789D01*
X10858314Y8609997D01*
X10861521Y8623513D01*
X10865894Y8637339D01*
X10872333Y8653479D01*
X10874924Y8659973D01*
X10875500Y8665847D01*
X10875500Y8670831D01*
X10877812Y8690586D01*
X10877909Y8692570D01*
X10880019Y8701461D01*
X10876404Y8728024D01*
X10875500Y8741374D01*
X10875500Y9268925D01*
X10875757Y9272426D01*
X10877298Y9276914D01*
X10875570Y9322945D01*
X10875500Y9326658D01*
X10875500Y9344690D01*
X10874717Y9348894D01*
X10874429Y9353336D01*
X10873721Y9372199D01*
X10873721Y9372200D01*
X10873378Y9381335D01*
X10869423Y9390541D01*
X10863061Y9411483D01*
X10862902Y9412338D01*
X10862901Y9412341D01*
X10861227Y9421328D01*
X10856431Y9429109D01*
X10856429Y9429114D01*
X10848432Y9442089D01*
X10841750Y9454951D01*
X10841200Y9456232D01*
X10832129Y9477343D01*
X10828383Y9481904D01*
X10824855Y9485432D01*
X10812532Y9501023D01*
X10811190Y9502503D01*
X10806395Y9510282D01*
X10785057Y9526508D01*
X10774987Y9535300D01*
X10672696Y9637591D01*
X10644919Y9692108D01*
X10643700Y9707595D01*
X10643700Y9787449D01*
X10646260Y9809819D01*
X10648956Y9821441D01*
X10649830Y9849095D01*
X10650359Y9856648D01*
X10652200Y9873584D01*
X10653619Y9882675D01*
X10655062Y9889738D01*
X10657606Y9899582D01*
X10658358Y9901975D01*
X10661736Y9911121D01*
X10663440Y9915117D01*
X10666722Y9922054D01*
X10672401Y9932946D01*
X10674517Y9936794D01*
X10686519Y9957516D01*
X10686979Y9958302D01*
X10703767Y9986682D01*
X10703767Y9986683D01*
X10704750Y9988364D01*
X10704823Y9988488D01*
X10704938Y9988687D01*
X10705944Y9990449D01*
X10724620Y10023516D01*
X10726482Y10026885D01*
X10726703Y10027294D01*
X10728713Y10031109D01*
X10744688Y10062217D01*
X10758513Y10098868D01*
X10762932Y10108872D01*
X10769382Y10121531D01*
X10769383Y10121534D01*
X10772919Y10128474D01*
X10779979Y10173046D01*
X10792785Y10253904D01*
X10794004Y10261600D01*
X10784187Y10323583D01*
X10774138Y10387031D01*
X10774138Y10387032D01*
X10772919Y10394726D01*
X10760592Y10418920D01*
X10715264Y10507881D01*
X10715263Y10507883D01*
X10711728Y10514820D01*
X10624830Y10601718D01*
X10597053Y10656235D01*
X10606624Y10716667D01*
X10624830Y10741726D01*
X11342374Y11459270D01*
X11396891Y11487047D01*
X11457323Y11477476D01*
X11482322Y11459329D01*
X11493000Y11448669D01*
X11493003Y11448667D01*
X11498790Y11442890D01*
X11506137Y11439299D01*
X11506138Y11439298D01*
X11521774Y11431655D01*
X11607361Y11389819D01*
X11659048Y11382279D01*
X11674551Y11380017D01*
X11674553Y11380017D01*
X11678096Y11379500D01*
X13283805Y11379500D01*
X13341996Y11360593D01*
X13377960Y11311093D01*
X13377960Y11249907D01*
X13353809Y11210496D01*
X13332809Y11189496D01*
X13278292Y11161719D01*
X13262805Y11160500D01*
X11678096Y11160500D01*
X11674524Y11159974D01*
X11674521Y11159974D01*
X11614353Y11151117D01*
X11614352Y11151117D01*
X11606746Y11149997D01*
X11599844Y11146608D01*
X11599843Y11146608D01*
X11505610Y11100342D01*
X11505609Y11100341D01*
X11498268Y11096737D01*
X11412890Y11011210D01*
X11359819Y10902639D01*
X11349500Y10831904D01*
X11349500Y10438096D01*
X11350026Y10434524D01*
X11350026Y10434521D01*
X11358576Y10376439D01*
X11360003Y10366746D01*
X11363392Y10359844D01*
X11363392Y10359843D01*
X11407849Y10269296D01*
X11413263Y10258268D01*
X11498790Y10172890D01*
X11607361Y10119819D01*
X11655249Y10112833D01*
X11674551Y10110017D01*
X11674553Y10110017D01*
X11678096Y10109500D01*
X13283805Y10109500D01*
X13341996Y10090593D01*
X13377960Y10041093D01*
X13377960Y9979907D01*
X13353809Y9940496D01*
X13332809Y9919496D01*
X13278292Y9891719D01*
X13262805Y9890500D01*
X11678096Y9890500D01*
X11674524Y9889974D01*
X11674521Y9889974D01*
X11614353Y9881117D01*
X11614352Y9881117D01*
X11606746Y9879997D01*
X11599844Y9876608D01*
X11599843Y9876608D01*
X11505610Y9830342D01*
X11505609Y9830341D01*
X11498268Y9826737D01*
X11412890Y9741210D01*
X11409299Y9733863D01*
X11409298Y9733862D01*
X11388888Y9692108D01*
X11359819Y9632639D01*
X11349500Y9561904D01*
X11349500Y9168096D01*
X11360003Y9096746D01*
X11363392Y9089844D01*
X11363392Y9089843D01*
X11382218Y9051500D01*
X11413263Y8988268D01*
X11498790Y8902890D01*
X11506137Y8899299D01*
X11506138Y8899298D01*
X11540951Y8882281D01*
X11607361Y8849819D01*
X11659048Y8842279D01*
X11674551Y8840017D01*
X11674553Y8840017D01*
X11678096Y8839500D01*
X13386566Y8839500D01*
X13444757Y8820593D01*
X13480721Y8771093D01*
X13485565Y8740972D01*
X13486320Y8582447D01*
X13487044Y8430534D01*
X13487372Y8427760D01*
X13491362Y8394015D01*
X13492481Y8384546D01*
X13502613Y8341388D01*
X13512719Y8313131D01*
X13517446Y8294210D01*
X13518945Y8284024D01*
X13520000Y8269610D01*
X13520000Y7920193D01*
X13518963Y7905904D01*
X13516951Y7892110D01*
X13512326Y7873399D01*
X13508684Y7863096D01*
X13505454Y7853961D01*
X13504822Y7851198D01*
X13504820Y7851192D01*
X13501899Y7838428D01*
X13495397Y7810013D01*
X13490221Y7763193D01*
X13510033Y3602750D01*
X13512638Y3571101D01*
X13517482Y3540979D01*
X13519710Y3535617D01*
X13519711Y3535615D01*
X13551891Y3458185D01*
X13554122Y3452817D01*
X13590086Y3403317D01*
X13614327Y3375572D01*
X13692837Y3328664D01*
X13698120Y3326948D01*
X13698121Y3326947D01*
X13751028Y3309757D01*
X13750565Y3308331D01*
X13797769Y3279424D01*
X13821201Y3222903D01*
X13816862Y3186191D01*
X13814281Y3181126D01*
X13793196Y3048000D01*
X13814281Y2914874D01*
X13875472Y2794780D01*
X13970780Y2699472D01*
X13977717Y2695937D01*
X13977719Y2695936D01*
X14083934Y2641817D01*
X14090874Y2638281D01*
X14098568Y2637062D01*
X14098569Y2637062D01*
X14216304Y2618415D01*
X14224000Y2617196D01*
X14231696Y2618415D01*
X14349431Y2637062D01*
X14349432Y2637062D01*
X14357126Y2638281D01*
X14364066Y2641817D01*
X14470281Y2695936D01*
X14470283Y2695937D01*
X14477220Y2699472D01*
X14572528Y2794780D01*
X14633719Y2914874D01*
X14654804Y3048000D01*
X14633719Y3181126D01*
X14636018Y3181490D01*
X14636017Y3231292D01*
X14671980Y3280792D01*
X14730172Y3299700D01*
X15191800Y3299700D01*
X15223944Y3302230D01*
X15254537Y3307075D01*
X15259926Y3309307D01*
X15259929Y3309308D01*
X15337790Y3341558D01*
X15337792Y3341559D01*
X15343183Y3343792D01*
X15392683Y3379756D01*
X15420428Y3403997D01*
X15467336Y3482507D01*
X15484592Y3535615D01*
X15485040Y3536995D01*
X15485040Y3536997D01*
X15486243Y3540698D01*
X15489227Y3559536D01*
X15495691Y3600352D01*
X15495691Y3600357D01*
X15496300Y3604200D01*
X15496300Y4544537D01*
X15515207Y4602728D01*
X15526453Y4615679D01*
X16384087Y5445648D01*
X16919968Y5964242D01*
X16974932Y5991122D01*
X16988814Y5992100D01*
X17528600Y5992100D01*
X17560744Y5994630D01*
X17591337Y5999475D01*
X17596726Y6001707D01*
X17596729Y6001708D01*
X17674590Y6033958D01*
X17674592Y6033959D01*
X17679983Y6036192D01*
X17729483Y6072156D01*
X17757228Y6096397D01*
X17804136Y6174907D01*
X17823043Y6233098D01*
X17823709Y6237299D01*
X17832491Y6292752D01*
X17832491Y6292757D01*
X17833100Y6296600D01*
X17833100Y8130600D01*
X17830570Y8162744D01*
X17825725Y8193337D01*
X17822547Y8201011D01*
X17791242Y8276590D01*
X17791241Y8276592D01*
X17789008Y8281983D01*
X17753044Y8331483D01*
X17728803Y8359228D01*
X17650293Y8406136D01*
X17592102Y8425043D01*
X17588258Y8425652D01*
X17588253Y8425653D01*
X17532448Y8434491D01*
X17532443Y8434491D01*
X17528600Y8435100D01*
X16534528Y8435100D01*
X16476337Y8454007D01*
X16464524Y8464096D01*
X16033296Y8895324D01*
X16005519Y8949841D01*
X16004300Y8965328D01*
X16004300Y9028919D01*
X16001895Y9060269D01*
X15997287Y9090121D01*
X15961389Y9178251D01*
X15957645Y9183491D01*
X15928112Y9224817D01*
X15925815Y9228032D01*
X15880711Y9273850D01*
X15849166Y9297150D01*
X15828353Y9317963D01*
X15802264Y9353285D01*
X15788489Y9379301D01*
X15772992Y9423430D01*
X15767400Y9456232D01*
X15767400Y10156168D01*
X15772992Y10188970D01*
X15788489Y10233099D01*
X15802264Y10259115D01*
X15828353Y10294437D01*
X15849166Y10315250D01*
X15880711Y10338550D01*
X15904495Y10359107D01*
X15909312Y10363961D01*
X15921692Y10376439D01*
X15925770Y10380549D01*
X15975336Y10461788D01*
X15994243Y10519979D01*
X15997883Y10542957D01*
X16003691Y10579633D01*
X16003691Y10579638D01*
X16004300Y10583481D01*
X16004300Y10752519D01*
X16001895Y10783869D01*
X15997287Y10813721D01*
X15961389Y10901851D01*
X15925815Y10951632D01*
X15880711Y10997450D01*
X15849166Y11020750D01*
X15828353Y11041563D01*
X15802264Y11076885D01*
X15788489Y11102901D01*
X15772992Y11147030D01*
X15767400Y11179832D01*
X15767400Y11879768D01*
X15772992Y11912570D01*
X15788489Y11956699D01*
X15802264Y11982715D01*
X15828353Y12018037D01*
X15849166Y12038850D01*
X15880711Y12062150D01*
X15904495Y12082707D01*
X15925770Y12104149D01*
X15975336Y12185388D01*
X15994243Y12243579D01*
X15994931Y12247918D01*
X16003691Y12303233D01*
X16003691Y12303238D01*
X16004300Y12307081D01*
X16004300Y13031072D01*
X16023207Y13089263D01*
X16033296Y13101076D01*
X16566124Y13633904D01*
X16620641Y13661681D01*
X16636128Y13662900D01*
X17477800Y13662900D01*
X17509944Y13665430D01*
X17540537Y13670275D01*
X17545926Y13672507D01*
X17545929Y13672508D01*
X17623790Y13704758D01*
X17623792Y13704759D01*
X17629183Y13706992D01*
X17678683Y13742956D01*
X17699205Y13760886D01*
X17700558Y13762068D01*
X17700559Y13762069D01*
X17706428Y13767197D01*
X17753336Y13845707D01*
X17772243Y13903898D01*
X17782300Y13967400D01*
X17782300Y15045395D01*
X17780675Y15071189D01*
X17780426Y15073159D01*
X17778240Y15090439D01*
X17778239Y15090444D01*
X17777555Y15095849D01*
X17747143Y15180241D01*
X17714336Y15231888D01*
X17691873Y15261091D01*
X17661873Y15281657D01*
X17621025Y15309661D01*
X17621022Y15309663D01*
X17616441Y15312803D01*
X17611272Y15314847D01*
X17611270Y15314848D01*
X17563169Y15333869D01*
X17563164Y15333871D01*
X17559544Y15335302D01*
X17555747Y15336149D01*
X17555744Y15336150D01*
X17536962Y15340340D01*
X17496795Y15349301D01*
X16891727Y15387118D01*
X16834829Y15409618D01*
X16827899Y15415921D01*
X15059996Y17183824D01*
X15045686Y17196847D01*
X15031343Y17208714D01*
X14957712Y17247711D01*
X14927608Y17256463D01*
X14902699Y17263705D01*
X14902695Y17263706D01*
X14898959Y17264792D01*
X14835171Y17272862D01*
X14831292Y17272741D01*
X14831287Y17272741D01*
X13384053Y17227515D01*
X13325300Y17244596D01*
X13310957Y17256463D01*
X12877406Y17690014D01*
X12865556Y17700969D01*
X12864806Y17701609D01*
X12864792Y17701622D01*
X12857447Y17707895D01*
X12857444Y17707897D01*
X12853743Y17711058D01*
X12838246Y17719737D01*
X12788032Y17747858D01*
X12788029Y17747859D01*
X12783785Y17750236D01*
X12743779Y17763235D01*
X12729297Y17767940D01*
X12729295Y17767940D01*
X12725594Y17769143D01*
X12721750Y17769752D01*
X12721745Y17769753D01*
X12665940Y17778591D01*
X12665935Y17778591D01*
X12662092Y17779200D01*
X12429000Y17779200D01*
X12370809Y17798107D01*
X12334845Y17847607D01*
X12330000Y17878200D01*
X12330000Y18111292D01*
X12329366Y18127417D01*
X12328147Y18142904D01*
X12306384Y18220072D01*
X12278607Y18274589D01*
X12240814Y18326606D01*
X12121696Y18445724D01*
X12093919Y18500241D01*
X12092700Y18515728D01*
X12092700Y19509800D01*
X12090170Y19541944D01*
X12085325Y19572537D01*
X12061319Y19630496D01*
X12048608Y19661183D01*
X12050898Y19662132D01*
X12040960Y19712163D01*
X12066592Y19767721D01*
X12119984Y19797603D01*
X12139271Y19799500D01*
X17965983Y19799500D01*
X17988169Y19796982D01*
G37*
%TD.AperFunction*%
%TA.AperFunction,Conductor*%
G36*
X4829928Y19780593D02*
G01*
X4865892Y19731093D01*
X4865892Y19669907D01*
X4841741Y19630496D01*
X4251992Y19040746D01*
X4245624Y19034911D01*
X4215650Y19009760D01*
X4211322Y19002263D01*
X4211320Y19002261D01*
X4196086Y18975874D01*
X4191446Y18968590D01*
X4188137Y18963865D01*
X4173974Y18943639D01*
X4173972Y18943636D01*
X4169006Y18936543D01*
X4166764Y18928177D01*
X4164256Y18922798D01*
X4162232Y18917237D01*
X4157903Y18909739D01*
X4156399Y18901212D01*
X4156399Y18901211D01*
X4151109Y18871210D01*
X4149241Y18862781D01*
X4139113Y18824984D01*
X4140664Y18807259D01*
X4142523Y18786012D01*
X4142900Y18777383D01*
X4142900Y16940663D01*
X4123993Y16882472D01*
X4113904Y16870659D01*
X3093742Y15850496D01*
X3039225Y15822719D01*
X3023738Y15821500D01*
X1796621Y15821500D01*
X1787993Y15821877D01*
X1786249Y15822030D01*
X1749016Y15825287D01*
X1740652Y15823046D01*
X1711220Y15815160D01*
X1702790Y15813291D01*
X1687419Y15810581D01*
X1664261Y15806497D01*
X1656760Y15802166D01*
X1651197Y15800141D01*
X1645828Y15797638D01*
X1637457Y15795395D01*
X1630361Y15790426D01*
X1630358Y15790425D01*
X1605405Y15772952D01*
X1598121Y15768312D01*
X1571744Y15753083D01*
X1571742Y15753081D01*
X1564240Y15748750D01*
X1539088Y15718775D01*
X1533265Y15712420D01*
X949992Y15129146D01*
X943624Y15123311D01*
X913650Y15098160D01*
X909322Y15090663D01*
X909320Y15090661D01*
X894086Y15064274D01*
X889444Y15056987D01*
X871974Y15032039D01*
X871972Y15032036D01*
X867006Y15024943D01*
X864764Y15016577D01*
X862256Y15011198D01*
X860232Y15005637D01*
X855903Y14998139D01*
X854399Y14989612D01*
X854399Y14989611D01*
X849109Y14959610D01*
X847241Y14951181D01*
X837113Y14913384D01*
X840523Y14874412D01*
X840900Y14865783D01*
X840900Y13779749D01*
X838796Y13759448D01*
X835793Y13745115D01*
X835743Y13740258D01*
X835743Y13740254D01*
X835449Y13711391D01*
X835383Y13708655D01*
X834146Y13675985D01*
X833920Y13672073D01*
X832091Y13648500D01*
X831553Y13643323D01*
X829485Y13627506D01*
X828467Y13621277D01*
X826379Y13610637D01*
X824828Y13603966D01*
X822414Y13594999D01*
X820506Y13588741D01*
X816706Y13577613D01*
X814822Y13572551D01*
X808281Y13556345D01*
X806783Y13552834D01*
X796456Y13529853D01*
X795524Y13527840D01*
X791191Y13518747D01*
X783871Y13503388D01*
X779787Y13491785D01*
X773276Y13473290D01*
X768105Y13461223D01*
X758681Y13442726D01*
X737596Y13309600D01*
X758681Y13176474D01*
X762217Y13169535D01*
X762217Y13169534D01*
X816094Y13063795D01*
X819872Y13056380D01*
X915180Y12961072D01*
X922117Y12957537D01*
X922119Y12957536D01*
X1020586Y12907365D01*
X1035274Y12899881D01*
X1042968Y12898662D01*
X1042969Y12898662D01*
X1160704Y12880015D01*
X1168400Y12878796D01*
X1176096Y12880015D01*
X1293831Y12898662D01*
X1293832Y12898662D01*
X1301526Y12899881D01*
X1316214Y12907365D01*
X1414681Y12957536D01*
X1414683Y12957537D01*
X1421620Y12961072D01*
X1516928Y13056380D01*
X1520707Y13063795D01*
X1574583Y13169534D01*
X1574583Y13169535D01*
X1578119Y13176474D01*
X1599204Y13309600D01*
X1578119Y13442726D01*
X1565709Y13467083D01*
X1563623Y13471176D01*
X1555870Y13491785D01*
X1552925Y13503397D01*
X1541259Y13527875D01*
X1540365Y13529806D01*
X1530016Y13552834D01*
X1528515Y13556355D01*
X1521978Y13572550D01*
X1520093Y13577613D01*
X1516293Y13588741D01*
X1514385Y13594999D01*
X1511971Y13603966D01*
X1510420Y13610637D01*
X1508332Y13621277D01*
X1507314Y13627506D01*
X1505246Y13643323D01*
X1504708Y13648500D01*
X1502879Y13672073D01*
X1502653Y13675985D01*
X1501416Y13708654D01*
X1501350Y13711393D01*
X1501056Y13740312D01*
X1501056Y13740314D01*
X1501007Y13745109D01*
X1497952Y13759879D01*
X1495900Y13779932D01*
X1495900Y14707739D01*
X1514807Y14765930D01*
X1524897Y14777743D01*
X1884659Y15137504D01*
X1939175Y15165281D01*
X1954662Y15166500D01*
X2529420Y15166500D01*
X2587611Y15147593D01*
X2623575Y15098093D01*
X2623575Y15036907D01*
X2599423Y14997497D01*
X2267094Y14665168D01*
X2264225Y14662692D01*
X2259864Y14660560D01*
X2227885Y14626087D01*
X2227523Y14625696D01*
X2224946Y14623020D01*
X2211730Y14609804D01*
X2209249Y14606188D01*
X2206104Y14602606D01*
X2186544Y14581520D01*
X2183158Y14573033D01*
X2183153Y14573025D01*
X2182584Y14571598D01*
X2172276Y14552290D01*
X2166231Y14543479D01*
X2164120Y14534585D01*
X2164120Y14534584D01*
X2160370Y14518781D01*
X2155998Y14504955D01*
X2146594Y14481385D01*
X2146000Y14475327D01*
X2146000Y14469815D01*
X2143493Y14448395D01*
X2143448Y14447474D01*
X2141338Y14438583D01*
X2142571Y14429526D01*
X2145096Y14410969D01*
X2146000Y14397619D01*
X2146000Y11674300D01*
X2127093Y11616109D01*
X2077593Y11580145D01*
X2047000Y11575300D01*
X1772582Y11575300D01*
X1768999Y11574772D01*
X1768992Y11574772D01*
X1711301Y11566279D01*
X1711299Y11566278D01*
X1703688Y11565158D01*
X1598945Y11513732D01*
X1593164Y11507941D01*
X1570174Y11484911D01*
X1516507Y11431150D01*
X1465264Y11326318D01*
X1464155Y11318716D01*
X1464154Y11318713D01*
X1456875Y11268816D01*
X1455300Y11258018D01*
X1455300Y9541582D01*
X1455828Y9537999D01*
X1455828Y9537992D01*
X1463833Y9483617D01*
X1465442Y9472688D01*
X1516868Y9367945D01*
X1522659Y9362164D01*
X1531554Y9353285D01*
X1599450Y9285507D01*
X1704282Y9234264D01*
X1711884Y9233155D01*
X1711887Y9233154D01*
X1769037Y9224817D01*
X1769039Y9224817D01*
X1772582Y9224300D01*
X1996200Y9224300D01*
X2054391Y9205393D01*
X2090355Y9155893D01*
X2095200Y9125300D01*
X2095200Y8488170D01*
X2076293Y8429979D01*
X2026793Y8394015D01*
X1980714Y8390389D01*
X1879600Y8406404D01*
X1845594Y8401018D01*
X1785162Y8410589D01*
X1741897Y8453854D01*
X1732326Y8514286D01*
X1733242Y8520066D01*
X1751604Y8636000D01*
X1744252Y8682419D01*
X1731738Y8761431D01*
X1731738Y8761432D01*
X1730519Y8769126D01*
X1694394Y8840026D01*
X1672864Y8882281D01*
X1672863Y8882283D01*
X1669328Y8889220D01*
X1574020Y8984528D01*
X1567083Y8988063D01*
X1567081Y8988064D01*
X1460866Y9042183D01*
X1460865Y9042183D01*
X1453926Y9045719D01*
X1446232Y9046938D01*
X1446231Y9046938D01*
X1328496Y9065585D01*
X1320800Y9066804D01*
X1313104Y9065585D01*
X1195369Y9046938D01*
X1195368Y9046938D01*
X1187674Y9045719D01*
X1180735Y9042183D01*
X1180734Y9042183D01*
X1074519Y8988064D01*
X1074517Y8988063D01*
X1067580Y8984528D01*
X972272Y8889220D01*
X968737Y8882283D01*
X968736Y8882281D01*
X947206Y8840026D01*
X911081Y8769126D01*
X909862Y8761432D01*
X909862Y8761431D01*
X897348Y8682419D01*
X889996Y8636000D01*
X891215Y8628304D01*
X909274Y8514286D01*
X911081Y8502874D01*
X914617Y8495935D01*
X914617Y8495934D01*
X960372Y8406136D01*
X972272Y8382780D01*
X1067580Y8287472D01*
X1074517Y8283937D01*
X1074519Y8283936D01*
X1127182Y8257103D01*
X1187674Y8226281D01*
X1195368Y8225062D01*
X1195369Y8225062D01*
X1313104Y8206415D01*
X1320800Y8205196D01*
X1328496Y8206415D01*
X1354806Y8210582D01*
X1415238Y8201011D01*
X1458503Y8157746D01*
X1468074Y8097316D01*
X1448796Y7975600D01*
X1450015Y7967904D01*
X1468062Y7853961D01*
X1469881Y7842474D01*
X1473417Y7835535D01*
X1473417Y7835534D01*
X1524829Y7734633D01*
X1531072Y7722380D01*
X1614248Y7639204D01*
X1642025Y7584687D01*
X1632454Y7524255D01*
X1614248Y7499196D01*
X1531072Y7416020D01*
X1527537Y7409083D01*
X1527536Y7409081D01*
X1497957Y7351029D01*
X1469881Y7295926D01*
X1468662Y7288232D01*
X1468662Y7288231D01*
X1456807Y7213381D01*
X1448796Y7162800D01*
X1452263Y7140912D01*
X1464238Y7065305D01*
X1469881Y7029674D01*
X1473417Y7022735D01*
X1473417Y7022734D01*
X1524660Y6922165D01*
X1531072Y6909580D01*
X1626380Y6814272D01*
X1633317Y6810737D01*
X1633319Y6810736D01*
X1651352Y6801548D01*
X1686989Y6783390D01*
X1730252Y6740126D01*
X1739824Y6679694D01*
X1712047Y6625178D01*
X1685675Y6606314D01*
X1598945Y6563732D01*
X1516507Y6481150D01*
X1465264Y6376318D01*
X1464155Y6368716D01*
X1464154Y6368713D01*
X1459962Y6339976D01*
X1455300Y6308018D01*
X1455300Y4591582D01*
X1455828Y4587999D01*
X1455828Y4587992D01*
X1464235Y4530887D01*
X1465442Y4522688D01*
X1516868Y4417945D01*
X1522659Y4412164D01*
X1557004Y4377879D01*
X1599450Y4335507D01*
X1704282Y4284264D01*
X1711884Y4283155D01*
X1711887Y4283154D01*
X1769037Y4274817D01*
X1769039Y4274817D01*
X1772582Y4274300D01*
X2139018Y4274300D01*
X2142601Y4274828D01*
X2142608Y4274828D01*
X2200299Y4283321D01*
X2200301Y4283322D01*
X2207912Y4284442D01*
X2312655Y4335868D01*
X2331286Y4354531D01*
X2389313Y4412660D01*
X2395093Y4418450D01*
X2446336Y4523282D01*
X2447445Y4530884D01*
X2447446Y4530887D01*
X2455783Y4588037D01*
X2455783Y4588039D01*
X2456300Y4591582D01*
X2456300Y5061400D01*
X2475207Y5119591D01*
X2524707Y5155555D01*
X2555300Y5160400D01*
X2594943Y5160400D01*
X2617795Y5157726D01*
X2624023Y5156248D01*
X2624035Y5156246D01*
X2628762Y5155125D01*
X2633621Y5154947D01*
X2638442Y5154294D01*
X2638140Y5152070D01*
X2687360Y5134076D01*
X2721503Y5083303D01*
X2725300Y5056149D01*
X2725300Y4591582D01*
X2725828Y4587999D01*
X2725828Y4587992D01*
X2734235Y4530887D01*
X2735442Y4522688D01*
X2786868Y4417945D01*
X2792659Y4412164D01*
X2827004Y4377879D01*
X2869450Y4335507D01*
X2974282Y4284264D01*
X2981884Y4283155D01*
X2981887Y4283154D01*
X3039037Y4274817D01*
X3039039Y4274817D01*
X3042582Y4274300D01*
X3301819Y4274300D01*
X3360010Y4255393D01*
X3371823Y4245304D01*
X3829423Y3787704D01*
X3843219Y3770411D01*
X3847252Y3763999D01*
X3847256Y3763994D01*
X3849845Y3759878D01*
X3853189Y3756345D01*
X3869606Y3738998D01*
X3874014Y3734015D01*
X3886766Y3718585D01*
X3891711Y3712071D01*
X3897576Y3703644D01*
X3902494Y3695821D01*
X3904870Y3691620D01*
X3909010Y3683434D01*
X3911155Y3678654D01*
X3913995Y3671613D01*
X3917835Y3660931D01*
X3919369Y3656309D01*
X3925613Y3635827D01*
X3926114Y3634130D01*
X3934527Y3604656D01*
X3934677Y3604129D01*
X3935216Y3602275D01*
X3935265Y3602108D01*
X3945763Y3566597D01*
X3945861Y3566266D01*
X3946730Y3563403D01*
X3946757Y3563316D01*
X3946784Y3563228D01*
X3946820Y3563113D01*
X3946830Y3563082D01*
X3947718Y3560299D01*
X3958366Y3527755D01*
X3958665Y3527101D01*
X3959081Y3524474D01*
X3960106Y3522463D01*
X3960105Y3522463D01*
X3965736Y3511412D01*
X3967568Y3507617D01*
X3976369Y3488357D01*
X3976374Y3488347D01*
X3977529Y3485820D01*
X3980216Y3481348D01*
X3980860Y3480456D01*
X3986058Y3471526D01*
X4016733Y3411324D01*
X4016736Y3411320D01*
X4020272Y3404380D01*
X4115580Y3309072D01*
X4122517Y3305537D01*
X4122519Y3305536D01*
X4173767Y3279424D01*
X4235674Y3247881D01*
X4243368Y3246662D01*
X4243369Y3246662D01*
X4361104Y3228015D01*
X4368800Y3226796D01*
X4376496Y3228015D01*
X4494231Y3246662D01*
X4494232Y3246662D01*
X4501926Y3247881D01*
X4563833Y3279424D01*
X4615081Y3305536D01*
X4615083Y3305537D01*
X4622020Y3309072D01*
X4717328Y3404380D01*
X4720863Y3411318D01*
X4720866Y3411322D01*
X4736405Y3441819D01*
X4779670Y3485083D01*
X4840100Y3494654D01*
X4919902Y3482015D01*
X4919904Y3482015D01*
X4927600Y3480796D01*
X4935296Y3482015D01*
X4938403Y3482507D01*
X4971765Y3487791D01*
X5053031Y3500662D01*
X5053032Y3500662D01*
X5060726Y3501881D01*
X5082533Y3512992D01*
X5173881Y3559536D01*
X5173883Y3559537D01*
X5180820Y3563072D01*
X5276128Y3658380D01*
X5305199Y3715434D01*
X5333783Y3771534D01*
X5333783Y3771535D01*
X5337319Y3778474D01*
X5358404Y3911600D01*
X5352547Y3948578D01*
X5338538Y4037031D01*
X5338538Y4037032D01*
X5337319Y4044726D01*
X5314483Y4089544D01*
X5279664Y4157881D01*
X5279663Y4157883D01*
X5276128Y4164820D01*
X5180820Y4260128D01*
X5173883Y4263663D01*
X5173881Y4263664D01*
X5067667Y4317783D01*
X5067664Y4317784D01*
X5060726Y4321319D01*
X5057928Y4321762D01*
X5057445Y4322034D01*
X5052823Y4323546D01*
X5052819Y4323548D01*
X5027248Y4331914D01*
X5024901Y4332682D01*
X5022118Y4333570D01*
X5021797Y4333670D01*
X5021759Y4333682D01*
X5021530Y4333752D01*
X5021464Y4333772D01*
X5021463Y4333773D01*
X5021426Y4333784D01*
X5021430Y4333796D01*
X4971268Y4368758D01*
X4951223Y4426566D01*
X4961261Y4471984D01*
X4982961Y4516378D01*
X4986336Y4523282D01*
X4987445Y4530884D01*
X4987446Y4530887D01*
X4995783Y4588037D01*
X4995783Y4588039D01*
X4996300Y4591582D01*
X4996300Y4714563D01*
X5015207Y4772754D01*
X5064707Y4808718D01*
X5125893Y4808718D01*
X5140245Y4802773D01*
X5200874Y4771881D01*
X5208568Y4770662D01*
X5208569Y4770662D01*
X5326304Y4752015D01*
X5334000Y4750796D01*
X5341696Y4752015D01*
X5459431Y4770662D01*
X5459432Y4770662D01*
X5467126Y4771881D01*
X5539423Y4808718D01*
X5580281Y4829536D01*
X5580283Y4829537D01*
X5587220Y4833072D01*
X5682528Y4928380D01*
X5743719Y5048474D01*
X5749236Y5083303D01*
X5763585Y5173904D01*
X5764804Y5181600D01*
X5743719Y5314726D01*
X5682528Y5434820D01*
X5587220Y5530128D01*
X5580283Y5533663D01*
X5580281Y5533664D01*
X5474066Y5587783D01*
X5474065Y5587783D01*
X5467126Y5591319D01*
X5459432Y5592538D01*
X5459431Y5592538D01*
X5341696Y5611185D01*
X5334000Y5612404D01*
X5326304Y5611185D01*
X5208569Y5592538D01*
X5208568Y5592538D01*
X5200874Y5591319D01*
X5193935Y5587783D01*
X5193934Y5587783D01*
X5140245Y5560427D01*
X5079813Y5550856D01*
X5025296Y5578633D01*
X4997519Y5633150D01*
X4996300Y5648637D01*
X4996300Y6308018D01*
X4993713Y6325596D01*
X4987278Y6369303D01*
X4986158Y6376912D01*
X4982769Y6383814D01*
X4981026Y6389425D01*
X4981815Y6450605D01*
X5018414Y6499637D01*
X5075567Y6517800D01*
X5223919Y6517800D01*
X5282110Y6498893D01*
X5293923Y6488804D01*
X5905835Y5876892D01*
X5908308Y5874026D01*
X5910440Y5869664D01*
X5917142Y5863447D01*
X5945304Y5837323D01*
X5947980Y5834746D01*
X5961196Y5821530D01*
X5964812Y5819049D01*
X5968394Y5815904D01*
X5989480Y5796344D01*
X5997967Y5792958D01*
X5997975Y5792953D01*
X5999402Y5792384D01*
X6018710Y5782076D01*
X6027521Y5776031D01*
X6036415Y5773920D01*
X6036416Y5773920D01*
X6052219Y5770170D01*
X6066045Y5765798D01*
X6089615Y5756394D01*
X6095673Y5755800D01*
X6101185Y5755800D01*
X6122605Y5753293D01*
X6123526Y5753248D01*
X6132417Y5751138D01*
X6153952Y5754069D01*
X6160031Y5754896D01*
X6173381Y5755800D01*
X6467976Y5755800D01*
X6484071Y5754483D01*
X6498519Y5752102D01*
X6498523Y5752102D01*
X6503316Y5751312D01*
X6524865Y5752025D01*
X6542512Y5752609D01*
X6542536Y5752610D01*
X6542928Y5752623D01*
X6546198Y5752791D01*
X6550020Y5752988D01*
X6550051Y5752990D01*
X6550461Y5753011D01*
X6550884Y5753041D01*
X6550891Y5753041D01*
X6550898Y5753042D01*
X6551305Y5753070D01*
X6551704Y5753105D01*
X6551728Y5753107D01*
X6558635Y5753715D01*
X6558636Y5753705D01*
X6563902Y5754055D01*
X6602360Y5755499D01*
X6608519Y5755730D01*
X6612231Y5755800D01*
X6630917Y5755800D01*
X6635221Y5756601D01*
X6639997Y5756911D01*
X6658062Y5757590D01*
X6668726Y5757990D01*
X6678537Y5762205D01*
X6699491Y5768571D01*
X6701001Y5768852D01*
X6701003Y5768853D01*
X6709988Y5770526D01*
X6731199Y5783601D01*
X6754187Y5793994D01*
X6768563Y5798391D01*
X6771276Y5799177D01*
X6788497Y5803893D01*
X6794450Y5805326D01*
X6805399Y5807607D01*
X6806266Y5807788D01*
X6814162Y5809102D01*
X6826541Y5810651D01*
X6834901Y5811339D01*
X6857163Y5812223D01*
X6857249Y5812209D01*
X6858338Y5812381D01*
X6865507Y5813438D01*
X6865510Y5813438D01*
X6897982Y5818226D01*
X6897987Y5818227D01*
X6900605Y5818613D01*
X6903171Y5819277D01*
X6905754Y5819800D01*
X6905787Y5819637D01*
X6909921Y5820551D01*
X6987246Y5832798D01*
X7104518Y5892552D01*
X7197585Y5985619D01*
X7257339Y6102891D01*
X7263715Y6143144D01*
X7276709Y6225191D01*
X7277928Y6232888D01*
X7266029Y6308018D01*
X7258558Y6355191D01*
X7258557Y6355194D01*
X7257339Y6362885D01*
X7197585Y6480157D01*
X7104518Y6573224D01*
X6987246Y6632978D01*
X6979555Y6634196D01*
X6979552Y6634197D01*
X6861113Y6652955D01*
X6806597Y6680732D01*
X6788391Y6705790D01*
X6758234Y6764976D01*
X6739599Y6801548D01*
X6684856Y6856291D01*
X6657079Y6910808D01*
X6666651Y6971241D01*
X6673053Y6983806D01*
X6676590Y6990747D01*
X6678182Y7000795D01*
X6695960Y7113047D01*
X6697179Y7120744D01*
X6695960Y7128441D01*
X6695960Y7136230D01*
X6698786Y7136230D01*
X6706325Y7183841D01*
X6749588Y7227108D01*
X6794537Y7237900D01*
X7568163Y7237900D01*
X7626354Y7218993D01*
X7648180Y7197194D01*
X7649042Y7196011D01*
X7663523Y7175985D01*
X7666161Y7173069D01*
X7666111Y7173024D01*
X7666308Y7172781D01*
X7666851Y7171714D01*
X7666072Y7171083D01*
X7667870Y7169437D01*
X7667964Y7169531D01*
X7680918Y7156577D01*
X7684323Y7152997D01*
X7693631Y7142710D01*
X7697430Y7139338D01*
X7697868Y7139008D01*
X7704336Y7133159D01*
X7761031Y7076464D01*
X7878303Y7016710D01*
X7885994Y7015492D01*
X7885997Y7015491D01*
X8000603Y6997340D01*
X8008300Y6996121D01*
X8015997Y6997340D01*
X8015998Y6997340D01*
X8037814Y7000795D01*
X8098246Y6991223D01*
X8141510Y6947958D01*
X8152300Y6903014D01*
X8152300Y1384646D01*
X8133393Y1326455D01*
X8121052Y1312462D01*
X8119880Y1311361D01*
X8115422Y1307177D01*
X8109705Y1302209D01*
X8108074Y1300898D01*
X8096414Y1291524D01*
X8088970Y1286090D01*
X8082970Y1282125D01*
X8074198Y1276956D01*
X8072012Y1275815D01*
X8063134Y1271726D01*
X8059066Y1270090D01*
X8051872Y1267518D01*
X8040126Y1263822D01*
X8035937Y1262605D01*
X8012809Y1256442D01*
X8012044Y1256243D01*
X7979984Y1248015D01*
X7977736Y1247424D01*
X7977509Y1247363D01*
X7975774Y1246889D01*
X7939372Y1236765D01*
X7939303Y1236745D01*
X7939183Y1236712D01*
X7938998Y1236659D01*
X7938936Y1236641D01*
X7935553Y1235665D01*
X7935526Y1235657D01*
X7935401Y1235621D01*
X7935264Y1235580D01*
X7935072Y1235523D01*
X7935028Y1235509D01*
X7934956Y1235488D01*
X7930920Y1234237D01*
X7897633Y1223538D01*
X7896515Y1223032D01*
X7893274Y1222519D01*
X7892194Y1221969D01*
X7880634Y1216079D01*
X7820202Y1206509D01*
X7765686Y1234288D01*
X7753376Y1249288D01*
X7737771Y1272642D01*
X7732352Y1280752D01*
X7666031Y1325067D01*
X7656468Y1326969D01*
X7656466Y1326970D01*
X7633795Y1331479D01*
X7607548Y1336700D01*
X6718052Y1336700D01*
X6691805Y1331479D01*
X6669134Y1326970D01*
X6669132Y1326969D01*
X6659569Y1325067D01*
X6593248Y1280752D01*
X6587959Y1272836D01*
X6533573Y1245126D01*
X6471762Y1255414D01*
X6388605Y1299443D01*
X6382817Y1300897D01*
X6382814Y1300898D01*
X6247560Y1334872D01*
X6247561Y1334872D01*
X6241772Y1336326D01*
X6166076Y1336722D01*
X6096345Y1337087D01*
X6096343Y1337087D01*
X6090379Y1337118D01*
X6084576Y1335725D01*
X6084577Y1335725D01*
X5954872Y1304586D01*
X5943167Y1301776D01*
X5886721Y1272642D01*
X5813941Y1235078D01*
X5813939Y1235076D01*
X5808635Y1232339D01*
X5792503Y1218266D01*
X5727660Y1161700D01*
X5671381Y1137695D01*
X5611739Y1151355D01*
X5596723Y1162385D01*
X5547333Y1206389D01*
X5522403Y1228601D01*
X5511759Y1234237D01*
X5469988Y1256353D01*
X5388605Y1299443D01*
X5382817Y1300897D01*
X5382814Y1300898D01*
X5247560Y1334872D01*
X5247561Y1334872D01*
X5241772Y1336326D01*
X5166076Y1336722D01*
X5096345Y1337087D01*
X5096343Y1337087D01*
X5090379Y1337118D01*
X5084576Y1335725D01*
X5084577Y1335725D01*
X4954872Y1304586D01*
X4943167Y1301776D01*
X4886721Y1272642D01*
X4813941Y1235078D01*
X4813939Y1235076D01*
X4808635Y1232339D01*
X4694549Y1132815D01*
X4691118Y1127933D01*
X4691117Y1127932D01*
X4611902Y1015220D01*
X4607496Y1008951D01*
X4605329Y1003393D01*
X4605328Y1003391D01*
X4557491Y880695D01*
X4552502Y867898D01*
X4532741Y717798D01*
X4533396Y711865D01*
X4533396Y711861D01*
X4544692Y609542D01*
X4549354Y567317D01*
X4552873Y557701D01*
X4599330Y430749D01*
X4599332Y430745D01*
X4601382Y425143D01*
X4604711Y420189D01*
X4648707Y354717D01*
X4665470Y295873D01*
X4644443Y238414D01*
X4593659Y204288D01*
X4566536Y200500D01*
X2034017Y200500D01*
X2011831Y203018D01*
X2011813Y203022D01*
X2000359Y205656D01*
X1989484Y203195D01*
X1978338Y203215D01*
X1978338Y203369D01*
X1968288Y202579D01*
X1886006Y207972D01*
X1771590Y215471D01*
X1758763Y217159D01*
X1540613Y260551D01*
X1528113Y263901D01*
X1317499Y335395D01*
X1305551Y340344D01*
X1106056Y438724D01*
X1094863Y445187D01*
X955761Y538132D01*
X909928Y568757D01*
X899655Y576640D01*
X732440Y723283D01*
X723283Y732440D01*
X576640Y899655D01*
X568757Y909928D01*
X499329Y1013833D01*
X445187Y1094863D01*
X438724Y1106056D01*
X340344Y1305551D01*
X335395Y1317500D01*
X328994Y1336357D01*
X263901Y1528113D01*
X260550Y1540618D01*
X217160Y1758756D01*
X215470Y1771595D01*
X202629Y1967515D01*
X204311Y1988181D01*
X203747Y1988246D01*
X204388Y1993818D01*
X205655Y1999282D01*
X205656Y2000000D01*
X203096Y2011224D01*
X202980Y2011734D01*
X200500Y2033752D01*
X200500Y4089544D01*
X219407Y4147735D01*
X268907Y4183699D01*
X330093Y4183699D01*
X369504Y4159548D01*
X457980Y4071072D01*
X464917Y4067537D01*
X464919Y4067536D01*
X524789Y4037031D01*
X578074Y4009881D01*
X585768Y4008662D01*
X585769Y4008662D01*
X703504Y3990015D01*
X711200Y3988796D01*
X718896Y3990015D01*
X836631Y4008662D01*
X836632Y4008662D01*
X844326Y4009881D01*
X897611Y4037031D01*
X957481Y4067536D01*
X957483Y4067537D01*
X964420Y4071072D01*
X1059728Y4166380D01*
X1068553Y4183699D01*
X1117383Y4279534D01*
X1117383Y4279535D01*
X1120919Y4286474D01*
X1123401Y4302141D01*
X1140785Y4411904D01*
X1142004Y4419600D01*
X1140785Y4427296D01*
X1140785Y4427651D01*
X1150842Y4471127D01*
X1172961Y4516378D01*
X1176336Y4523282D01*
X1177445Y4530884D01*
X1177446Y4530887D01*
X1185783Y4588037D01*
X1185783Y4588039D01*
X1186300Y4591582D01*
X1186300Y6308018D01*
X1183713Y6325596D01*
X1177279Y6369299D01*
X1177278Y6369303D01*
X1176158Y6376912D01*
X1170015Y6389425D01*
X1128338Y6474310D01*
X1124732Y6481655D01*
X1042150Y6564093D01*
X937318Y6615336D01*
X929716Y6616445D01*
X929713Y6616446D01*
X872563Y6624783D01*
X872561Y6624783D01*
X869018Y6625300D01*
X502582Y6625300D01*
X498999Y6624772D01*
X498992Y6624772D01*
X441301Y6616279D01*
X441299Y6616278D01*
X433688Y6615158D01*
X426782Y6611767D01*
X426781Y6611767D01*
X343131Y6570697D01*
X282564Y6562023D01*
X228465Y6590607D01*
X201500Y6645530D01*
X200500Y6659564D01*
X200500Y17965719D01*
X203057Y17988074D01*
X203141Y17988435D01*
X205655Y17999282D01*
X205656Y18000000D01*
X204413Y18005449D01*
X203791Y18011008D01*
X204259Y18011060D01*
X202596Y18031969D01*
X209549Y18138055D01*
X215471Y18228410D01*
X217160Y18241244D01*
X221138Y18261239D01*
X260551Y18459387D01*
X263902Y18471891D01*
X264863Y18474720D01*
X335395Y18682501D01*
X340344Y18694449D01*
X438724Y18893944D01*
X445187Y18905137D01*
X547628Y19058450D01*
X568757Y19090072D01*
X576640Y19100345D01*
X723283Y19267560D01*
X732440Y19276717D01*
X899655Y19423360D01*
X909928Y19431243D01*
X957556Y19463067D01*
X1094863Y19554813D01*
X1106056Y19561276D01*
X1305551Y19659656D01*
X1317500Y19664605D01*
X1457600Y19712163D01*
X1528113Y19736099D01*
X1540613Y19739449D01*
X1758763Y19782841D01*
X1771588Y19784529D01*
X1967775Y19797388D01*
X1977628Y19796595D01*
X1977628Y19796862D01*
X1988776Y19796842D01*
X1999641Y19794344D01*
X2011641Y19797059D01*
X2033488Y19799500D01*
X4771737Y19799500D01*
X4829928Y19780593D01*
G37*
%TD.AperFunction*%
%TA.AperFunction,Conductor*%
G36*
X8479219Y19313193D02*
G01*
X8515183Y19263693D01*
X8515183Y19202507D01*
X8479218Y19153007D01*
X8415147Y19106457D01*
X8415143Y19106453D01*
X8410950Y19103407D01*
X8407484Y19099558D01*
X8407480Y19099554D01*
X8291277Y18970497D01*
X8291273Y18970492D01*
X8287805Y18966640D01*
X8285210Y18962145D01*
X8198380Y18811753D01*
X8198378Y18811748D01*
X8195786Y18807259D01*
X8187492Y18781734D01*
X8140517Y18637161D01*
X8140516Y18637156D01*
X8138915Y18632229D01*
X8119678Y18449200D01*
X8138915Y18266171D01*
X8140516Y18261244D01*
X8140517Y18261239D01*
X8155415Y18215388D01*
X8195786Y18091141D01*
X8198378Y18086652D01*
X8198380Y18086647D01*
X8248199Y18000359D01*
X8287805Y17931760D01*
X8291273Y17927908D01*
X8291277Y17927903D01*
X8407480Y17798846D01*
X8407484Y17798842D01*
X8410950Y17794993D01*
X8559839Y17686819D01*
X8564571Y17684712D01*
X8564573Y17684711D01*
X8723226Y17614074D01*
X8723229Y17614073D01*
X8727966Y17611964D01*
X8778587Y17601204D01*
X8894418Y17576583D01*
X8907981Y17573700D01*
X9092019Y17573700D01*
X9105583Y17576583D01*
X9221413Y17601204D01*
X9272034Y17611964D01*
X9276771Y17614073D01*
X9276774Y17614074D01*
X9435427Y17684711D01*
X9435429Y17684712D01*
X9440161Y17686819D01*
X9589050Y17794993D01*
X9592516Y17798842D01*
X9592520Y17798846D01*
X9642279Y17854110D01*
X9695267Y17884703D01*
X9756117Y17878307D01*
X9801586Y17837366D01*
X9811133Y17814737D01*
X9824331Y17767940D01*
X9825716Y17763028D01*
X9853493Y17708511D01*
X9855780Y17705363D01*
X9855782Y17705360D01*
X9859469Y17700286D01*
X9891286Y17656494D01*
X10615691Y16932089D01*
X10628161Y16920607D01*
X10640605Y16910064D01*
X10657596Y16900680D01*
X10700755Y16876844D01*
X10711479Y16870921D01*
X10716164Y16869439D01*
X10716167Y16869438D01*
X10767694Y16853142D01*
X10767703Y16853140D01*
X10769817Y16852471D01*
X10805800Y16844555D01*
X10813551Y16845314D01*
X10813553Y16845314D01*
X10846857Y16848576D01*
X10896820Y16853469D01*
X10954860Y16872833D01*
X11011915Y16902471D01*
X11026085Y16912937D01*
X11052098Y16926710D01*
X11069437Y16932799D01*
X11096231Y16942208D01*
X11129032Y16947800D01*
X11828968Y16947800D01*
X11861769Y16942208D01*
X11888563Y16932799D01*
X11905902Y16926710D01*
X11931916Y16912937D01*
X11967237Y16886848D01*
X11988048Y16866037D01*
X12003915Y16844555D01*
X12014137Y16830715D01*
X12027910Y16804702D01*
X12031838Y16793518D01*
X12042128Y16764217D01*
X12043408Y16760571D01*
X12049000Y16727768D01*
X12049000Y16110278D01*
X12049634Y16094153D01*
X12049708Y16093213D01*
X12049709Y16093196D01*
X12050181Y16087209D01*
X12050853Y16078666D01*
X12072616Y16001498D01*
X12074824Y15997164D01*
X12074825Y15997162D01*
X12095297Y15956983D01*
X12100393Y15946981D01*
X12101572Y15945105D01*
X12115851Y15922379D01*
X12115854Y15922376D01*
X12119997Y15915782D01*
X12190203Y15857171D01*
X12195161Y15854645D01*
X12242739Y15830403D01*
X12242745Y15830400D01*
X12244720Y15829394D01*
X12246777Y15828569D01*
X12246779Y15828568D01*
X12271679Y15818580D01*
X12271682Y15818579D01*
X12278910Y15815680D01*
X12370159Y15809527D01*
X12407968Y15815515D01*
X12426742Y15818488D01*
X12426747Y15818489D01*
X12430591Y15819098D01*
X12453684Y15826601D01*
X12475594Y15833720D01*
X12491740Y15838966D01*
X12515600Y15851123D01*
X12545052Y15860693D01*
X12582918Y15866690D01*
X12613882Y15866690D01*
X12651748Y15860693D01*
X12681202Y15851122D01*
X12698279Y15842421D01*
X12715355Y15833720D01*
X12740413Y15815515D01*
X12767515Y15788413D01*
X12785720Y15763355D01*
X12803122Y15729203D01*
X12812693Y15699748D01*
X12818690Y15661885D01*
X12818690Y15630918D01*
X12812693Y15593052D01*
X12803122Y15563597D01*
X12785720Y15529445D01*
X12767515Y15504387D01*
X12740414Y15477286D01*
X12715355Y15459081D01*
X12677123Y15439601D01*
X12677109Y15439593D01*
X12673650Y15437830D01*
X12621635Y15400038D01*
X12578370Y15356773D01*
X12576950Y15355073D01*
X12576948Y15355070D01*
X12572335Y15349544D01*
X12554758Y15328491D01*
X12520710Y15243609D01*
X12519840Y15238119D01*
X12519840Y15238117D01*
X12515439Y15210327D01*
X12511139Y15183177D01*
X12508661Y15146422D01*
X12531006Y15057738D01*
X12558783Y15003221D01*
X12561070Y15000073D01*
X12561072Y15000070D01*
X12592092Y14957375D01*
X12596576Y14951204D01*
X13431304Y14116476D01*
X13459081Y14061959D01*
X13460299Y14046943D01*
X13463847Y13301904D01*
X13464162Y13235601D01*
X13464162Y13235600D01*
X13464170Y13234001D01*
X13463708Y13233999D01*
X13447445Y13176745D01*
X13399324Y13138955D01*
X13365232Y13132900D01*
X11276474Y13132900D01*
X11272974Y13133157D01*
X11268486Y13134698D01*
X11259351Y13134355D01*
X11222467Y13132970D01*
X11218752Y13132900D01*
X11200710Y13132900D01*
X11196504Y13132116D01*
X11192061Y13131828D01*
X11173200Y13131120D01*
X11164065Y13130777D01*
X11154866Y13126825D01*
X11133924Y13120462D01*
X11124072Y13118627D01*
X11116293Y13113832D01*
X11103316Y13105833D01*
X11090449Y13099150D01*
X11068057Y13089529D01*
X11063496Y13085783D01*
X11059968Y13082255D01*
X11044377Y13069932D01*
X11042897Y13068590D01*
X11035118Y13063795D01*
X11018892Y13042457D01*
X11010100Y13032387D01*
X9264735Y11287022D01*
X9210218Y11259245D01*
X9149786Y11268816D01*
X9123665Y11288786D01*
X9123383Y11288504D01*
X9119855Y11292032D01*
X9107532Y11307623D01*
X9106190Y11309103D01*
X9101395Y11316882D01*
X9080057Y11333108D01*
X9069987Y11341900D01*
X8679496Y11732391D01*
X8651719Y11786908D01*
X8650500Y11802395D01*
X8650500Y12101904D01*
X8647551Y12121941D01*
X8641117Y12165647D01*
X8641117Y12165648D01*
X8639997Y12173254D01*
X8634040Y12185388D01*
X8590342Y12274390D01*
X8590341Y12274391D01*
X8586737Y12281732D01*
X8568053Y12300384D01*
X8506997Y12361333D01*
X8501210Y12367110D01*
X8489730Y12372722D01*
X8399543Y12416806D01*
X8399544Y12416806D01*
X8392639Y12420181D01*
X8340952Y12427721D01*
X8325449Y12429983D01*
X8325447Y12429983D01*
X8321904Y12430500D01*
X6868595Y12430500D01*
X6810404Y12449407D01*
X6774440Y12498907D01*
X6774440Y12560093D01*
X6798591Y12599504D01*
X7973505Y13774418D01*
X8028022Y13802195D01*
X8088454Y13792624D01*
X8093914Y13789622D01*
X8107076Y13781836D01*
X8109088Y13780661D01*
X8109291Y13780544D01*
X8110848Y13779656D01*
X8141989Y13762068D01*
X8143915Y13760980D01*
X8147284Y13759118D01*
X8147693Y13758897D01*
X8151510Y13756886D01*
X8182619Y13740911D01*
X8185261Y13739914D01*
X8185262Y13739914D01*
X8219268Y13727087D01*
X8229272Y13722668D01*
X8241931Y13716218D01*
X8241934Y13716217D01*
X8248874Y13712681D01*
X8256568Y13711462D01*
X8256569Y13711462D01*
X8374304Y13692815D01*
X8382000Y13691596D01*
X8389696Y13692815D01*
X8507431Y13711462D01*
X8507432Y13711462D01*
X8515126Y13712681D01*
X8539602Y13725152D01*
X8628281Y13770336D01*
X8628283Y13770337D01*
X8635220Y13773872D01*
X8730528Y13869180D01*
X8791719Y13989274D01*
X8793122Y13998129D01*
X8811585Y14114704D01*
X8812804Y14122400D01*
X8791719Y14255526D01*
X8762942Y14312004D01*
X8734064Y14368681D01*
X8734063Y14368683D01*
X8730528Y14375620D01*
X8635220Y14470928D01*
X8628283Y14474463D01*
X8628281Y14474464D01*
X8522066Y14528583D01*
X8522065Y14528583D01*
X8515126Y14532119D01*
X8507432Y14533338D01*
X8507431Y14533338D01*
X8498881Y14534692D01*
X8444364Y14562470D01*
X8416587Y14616986D01*
X8426158Y14677418D01*
X8444364Y14702477D01*
X8456833Y14714946D01*
X8467512Y14724198D01*
X8480695Y14734066D01*
X8484587Y14736979D01*
X8509635Y14764863D01*
X8512260Y14767966D01*
X8517375Y14772767D01*
X8517282Y14772853D01*
X8548597Y14806611D01*
X8551174Y14809287D01*
X8563936Y14822049D01*
X8566350Y14825568D01*
X8569297Y14828924D01*
X8582131Y14842760D01*
X8582133Y14842763D01*
X8588347Y14849462D01*
X8591734Y14857951D01*
X8592059Y14858765D01*
X8602370Y14878075D01*
X8602862Y14878793D01*
X8608035Y14886333D01*
X8613665Y14910057D01*
X8618038Y14923883D01*
X8624477Y14940023D01*
X8627068Y14946517D01*
X8627644Y14952391D01*
X8627644Y14957375D01*
X8629956Y14977131D01*
X8630053Y14979114D01*
X8631246Y14984140D01*
X8631247Y14984143D01*
X8632163Y14988005D01*
X8632746Y14987867D01*
X8652424Y15036712D01*
X8651148Y15037710D01*
X8652924Y15039980D01*
X8654837Y15042151D01*
X8666059Y15058361D01*
X8677453Y15072014D01*
X8695672Y15090233D01*
X8701148Y15100979D01*
X8753327Y15203387D01*
X8753327Y15203388D01*
X8756863Y15210327D01*
X8761265Y15238117D01*
X8776729Y15335757D01*
X8777948Y15343453D01*
X8762720Y15439601D01*
X8758082Y15468884D01*
X8758082Y15468885D01*
X8756863Y15476579D01*
X8739521Y15510615D01*
X8699208Y15589734D01*
X8699207Y15589736D01*
X8695672Y15596673D01*
X8600364Y15691981D01*
X8593427Y15695516D01*
X8593425Y15695517D01*
X8487210Y15749636D01*
X8487209Y15749636D01*
X8480270Y15753172D01*
X8472576Y15754391D01*
X8472575Y15754391D01*
X8382369Y15768678D01*
X8347144Y15774257D01*
X8311919Y15768678D01*
X8221713Y15754391D01*
X8221712Y15754391D01*
X8214018Y15753172D01*
X8207079Y15749636D01*
X8207078Y15749636D01*
X8100863Y15695517D01*
X8100861Y15695516D01*
X8093924Y15691981D01*
X7998616Y15596673D01*
X7995081Y15589736D01*
X7995080Y15589734D01*
X7954767Y15510615D01*
X7937425Y15476579D01*
X7936206Y15468885D01*
X7936206Y15468884D01*
X7931568Y15439601D01*
X7916340Y15343453D01*
X7937425Y15210327D01*
X7940961Y15203387D01*
X7940962Y15203385D01*
X7956867Y15172169D01*
X7962947Y15157396D01*
X7966084Y15147593D01*
X7969084Y15138217D01*
X7974877Y15127763D01*
X7986545Y15067705D01*
X7958288Y15009775D01*
X5323179Y12374666D01*
X5320524Y12372374D01*
X5316262Y12370291D01*
X5310047Y12363592D01*
X5310048Y12363592D01*
X5284947Y12336533D01*
X5282370Y12333857D01*
X5269608Y12321095D01*
X5267194Y12317576D01*
X5264247Y12314220D01*
X5251413Y12300384D01*
X5251411Y12300381D01*
X5245197Y12293682D01*
X5241811Y12285195D01*
X5241810Y12285193D01*
X5241485Y12284379D01*
X5231174Y12265069D01*
X5225509Y12256811D01*
X5219878Y12233082D01*
X5215508Y12219266D01*
X5206476Y12196627D01*
X5205900Y12190753D01*
X5205900Y12185763D01*
X5203590Y12166021D01*
X5203493Y12164034D01*
X5201382Y12155139D01*
X5204996Y12128584D01*
X5205900Y12115234D01*
X5205900Y8076074D01*
X5205643Y8072574D01*
X5204102Y8068086D01*
X5204445Y8058951D01*
X5205830Y8022067D01*
X5205900Y8018352D01*
X5205900Y8000310D01*
X5206684Y7996104D01*
X5206972Y7991661D01*
X5208023Y7963665D01*
X5211975Y7954466D01*
X5218338Y7933524D01*
X5220173Y7923672D01*
X5224968Y7915893D01*
X5232967Y7902916D01*
X5239650Y7890049D01*
X5249271Y7867657D01*
X5253017Y7863096D01*
X5256545Y7859568D01*
X5268868Y7843977D01*
X5270210Y7842497D01*
X5275005Y7834718D01*
X5296343Y7818492D01*
X5306413Y7809700D01*
X5367909Y7748204D01*
X5395686Y7693687D01*
X5386115Y7633255D01*
X5342850Y7589990D01*
X5297905Y7579200D01*
X5121602Y7579200D01*
X5099618Y7581672D01*
X5087482Y7584436D01*
X5058718Y7585228D01*
X5052089Y7585634D01*
X5032176Y7587526D01*
X5024076Y7588635D01*
X5013959Y7590449D01*
X5004967Y7592500D01*
X5000299Y7593795D01*
X4991599Y7596650D01*
X4986699Y7598514D01*
X4979733Y7601475D01*
X4969381Y7606352D01*
X4965064Y7608517D01*
X4946205Y7618565D01*
X4944665Y7619404D01*
X4917457Y7634529D01*
X4917336Y7634596D01*
X4915633Y7635533D01*
X4882840Y7653360D01*
X4882797Y7653383D01*
X4882685Y7653444D01*
X4880375Y7654681D01*
X4880081Y7654836D01*
X4877164Y7656344D01*
X4876890Y7656483D01*
X4849097Y7670573D01*
X4849092Y7670575D01*
X4846607Y7671835D01*
X4811128Y7685059D01*
X4800783Y7689606D01*
X4781326Y7699519D01*
X4648200Y7720604D01*
X4640504Y7719385D01*
X4522769Y7700738D01*
X4522768Y7700738D01*
X4515074Y7699519D01*
X4508135Y7695983D01*
X4508134Y7695983D01*
X4401919Y7641864D01*
X4401917Y7641863D01*
X4394980Y7638328D01*
X4299672Y7543020D01*
X4296137Y7536083D01*
X4296136Y7536081D01*
X4243275Y7432334D01*
X4238481Y7422926D01*
X4217396Y7289800D01*
X4218615Y7282104D01*
X4218615Y7274313D01*
X4216563Y7274313D01*
X4208639Y7224256D01*
X4165378Y7180989D01*
X4104946Y7171413D01*
X4075663Y7180893D01*
X4061698Y7187972D01*
X4059207Y7189235D01*
X4023728Y7202459D01*
X4013383Y7207006D01*
X3993926Y7216919D01*
X3860800Y7238004D01*
X3853104Y7236785D01*
X3735369Y7218138D01*
X3735368Y7218138D01*
X3727674Y7216919D01*
X3720735Y7213383D01*
X3720734Y7213383D01*
X3614519Y7159264D01*
X3614517Y7159263D01*
X3607580Y7155728D01*
X3512272Y7060420D01*
X3508737Y7053483D01*
X3508736Y7053481D01*
X3480692Y6998441D01*
X3451081Y6940326D01*
X3449862Y6932632D01*
X3449862Y6932631D01*
X3441816Y6881831D01*
X3429996Y6807200D01*
X3431215Y6799504D01*
X3431215Y6799503D01*
X3440673Y6739787D01*
X3431102Y6679355D01*
X3387837Y6636090D01*
X3342892Y6625300D01*
X3042582Y6625300D01*
X3038999Y6624772D01*
X3038992Y6624772D01*
X2981301Y6616279D01*
X2981299Y6616278D01*
X2973688Y6615158D01*
X2966782Y6611767D01*
X2966781Y6611767D01*
X2937413Y6597348D01*
X2868945Y6563732D01*
X2786507Y6481150D01*
X2735264Y6376318D01*
X2734155Y6368716D01*
X2734154Y6368713D01*
X2729962Y6339976D01*
X2725300Y6308018D01*
X2725300Y5843451D01*
X2706393Y5785260D01*
X2656893Y5749296D01*
X2637903Y5745936D01*
X2637993Y5745247D01*
X2633392Y5744645D01*
X2628759Y5744475D01*
X2616429Y5741669D01*
X2594460Y5739200D01*
X2555300Y5739200D01*
X2497109Y5758107D01*
X2461145Y5807607D01*
X2456300Y5838200D01*
X2456300Y6308018D01*
X2453713Y6325596D01*
X2447279Y6369299D01*
X2447278Y6369303D01*
X2446158Y6376912D01*
X2440015Y6389425D01*
X2398338Y6474310D01*
X2394732Y6481655D01*
X2312150Y6564093D01*
X2207318Y6615336D01*
X2153759Y6623149D01*
X2098908Y6650258D01*
X2070466Y6704431D01*
X2079299Y6764976D01*
X2119745Y6805921D01*
X2119575Y6806155D01*
X2120997Y6807188D01*
X2123103Y6809320D01*
X2125877Y6810734D01*
X2125880Y6810736D01*
X2132820Y6814272D01*
X2228128Y6909580D01*
X2234541Y6922165D01*
X2285782Y7022732D01*
X2285783Y7022734D01*
X2289319Y7029674D01*
X2289763Y7032478D01*
X2290035Y7032961D01*
X2291546Y7037579D01*
X2291548Y7037584D01*
X2300617Y7065305D01*
X2300641Y7065378D01*
X2300682Y7065505D01*
X2301569Y7068282D01*
X2301669Y7068603D01*
X2302538Y7071465D01*
X2313152Y7107368D01*
X2313168Y7107421D01*
X2313690Y7109219D01*
X2313720Y7109325D01*
X2314783Y7113047D01*
X2322288Y7139338D01*
X2322780Y7141008D01*
X2329029Y7161508D01*
X2330565Y7166134D01*
X2334405Y7176815D01*
X2337244Y7183854D01*
X2339389Y7188634D01*
X2343529Y7196820D01*
X2343740Y7197193D01*
X2345905Y7201021D01*
X2350815Y7208833D01*
X2356693Y7217279D01*
X2361638Y7223792D01*
X2374373Y7239201D01*
X2378778Y7244181D01*
X2385574Y7251363D01*
X2398556Y7265080D01*
X2405839Y7276482D01*
X2419266Y7293193D01*
X2860706Y7734633D01*
X2863573Y7737107D01*
X2867936Y7739240D01*
X2900289Y7774117D01*
X2902866Y7776793D01*
X2916070Y7789997D01*
X2918547Y7793607D01*
X2921716Y7797216D01*
X2932446Y7808783D01*
X2985882Y7838586D01*
X3049971Y7829665D01*
X3153738Y7776793D01*
X3168874Y7769081D01*
X3176568Y7767862D01*
X3176569Y7767862D01*
X3223993Y7760351D01*
X3293168Y7749395D01*
X3294304Y7749215D01*
X3302000Y7747996D01*
X3309696Y7749215D01*
X3310833Y7749395D01*
X3380007Y7760351D01*
X3427431Y7767862D01*
X3427432Y7767862D01*
X3435126Y7769081D01*
X3511116Y7807800D01*
X3571548Y7817371D01*
X3601006Y7807800D01*
X3667113Y7774117D01*
X3676643Y7769261D01*
X3684337Y7768042D01*
X3684338Y7768042D01*
X3802073Y7749395D01*
X3809769Y7748176D01*
X3817465Y7749395D01*
X3935200Y7768042D01*
X3935201Y7768042D01*
X3942895Y7769261D01*
X3949835Y7772797D01*
X4056050Y7826916D01*
X4056052Y7826917D01*
X4062989Y7830452D01*
X4158297Y7925760D01*
X4162250Y7933517D01*
X4215952Y8038914D01*
X4215952Y8038915D01*
X4219488Y8045854D01*
X4221563Y8058951D01*
X4239354Y8171284D01*
X4240573Y8178980D01*
X4225113Y8276590D01*
X4220707Y8304411D01*
X4220707Y8304412D01*
X4219488Y8312106D01*
X4215207Y8320508D01*
X4161833Y8425261D01*
X4161832Y8425263D01*
X4158297Y8432200D01*
X4062989Y8527508D01*
X4056052Y8531043D01*
X4056050Y8531044D01*
X3949835Y8585163D01*
X3949834Y8585163D01*
X3942895Y8588699D01*
X3935201Y8589918D01*
X3935200Y8589918D01*
X3846747Y8603927D01*
X3809769Y8609784D01*
X3772792Y8603927D01*
X3684338Y8589918D01*
X3684337Y8589918D01*
X3676643Y8588699D01*
X3669704Y8585163D01*
X3669703Y8585163D01*
X3664373Y8582447D01*
X3602557Y8550950D01*
X3600653Y8549980D01*
X3540221Y8540409D01*
X3510763Y8549980D01*
X3442066Y8584983D01*
X3442065Y8584983D01*
X3435126Y8588519D01*
X3427432Y8589738D01*
X3427431Y8589738D01*
X3309696Y8608385D01*
X3302000Y8609604D01*
X3294304Y8608385D01*
X3176569Y8589738D01*
X3176568Y8589738D01*
X3168874Y8588519D01*
X3161936Y8584984D01*
X3161933Y8584983D01*
X3125745Y8566544D01*
X3065312Y8556973D01*
X3010796Y8584751D01*
X2983019Y8639268D01*
X2981800Y8654754D01*
X2981800Y9125300D01*
X3000707Y9183491D01*
X3050207Y9219455D01*
X3080800Y9224300D01*
X3409018Y9224300D01*
X3412601Y9224828D01*
X3412608Y9224828D01*
X3470299Y9233321D01*
X3470301Y9233322D01*
X3477912Y9234442D01*
X3582655Y9285868D01*
X3597262Y9300500D01*
X3659313Y9362660D01*
X3665093Y9368450D01*
X3716336Y9473282D01*
X3717445Y9480884D01*
X3717446Y9480887D01*
X3725783Y9538037D01*
X3725783Y9538039D01*
X3726300Y9541582D01*
X3726300Y11258018D01*
X3724711Y11268816D01*
X3717279Y11319299D01*
X3717278Y11319301D01*
X3716158Y11326912D01*
X3664732Y11431655D01*
X3582150Y11514093D01*
X3477318Y11565336D01*
X3469716Y11566445D01*
X3469713Y11566446D01*
X3412563Y11574783D01*
X3412561Y11574783D01*
X3409018Y11575300D01*
X3131600Y11575300D01*
X3073409Y11594207D01*
X3037445Y11643707D01*
X3032600Y11674300D01*
X3032600Y12147901D01*
X3961900Y12147901D01*
X3961901Y11728100D01*
X3962324Y11724890D01*
X3962324Y11724883D01*
X3967439Y11686026D01*
X3968428Y11678513D01*
X3985300Y11642331D01*
X4014298Y11580145D01*
X4019176Y11569684D01*
X4040342Y11548518D01*
X4068119Y11494001D01*
X4058548Y11433569D01*
X4057968Y11432614D01*
X4056507Y11431150D01*
X4005264Y11326318D01*
X4004155Y11318716D01*
X4004154Y11318713D01*
X3996875Y11268816D01*
X3995300Y11258018D01*
X3995300Y9541582D01*
X3995828Y9537999D01*
X3995828Y9537992D01*
X4003833Y9483617D01*
X4005442Y9472688D01*
X4056868Y9367945D01*
X4062659Y9362164D01*
X4071554Y9353285D01*
X4139450Y9285507D01*
X4244282Y9234264D01*
X4251884Y9233155D01*
X4251887Y9233154D01*
X4309037Y9224817D01*
X4309039Y9224817D01*
X4312582Y9224300D01*
X4679018Y9224300D01*
X4682601Y9224828D01*
X4682608Y9224828D01*
X4740299Y9233321D01*
X4740301Y9233322D01*
X4747912Y9234442D01*
X4852655Y9285868D01*
X4867262Y9300500D01*
X4929313Y9362660D01*
X4935093Y9368450D01*
X4986336Y9473282D01*
X4987445Y9480884D01*
X4987446Y9480887D01*
X4995783Y9538037D01*
X4995783Y9538039D01*
X4996300Y9541582D01*
X4996300Y11258018D01*
X4994711Y11268816D01*
X4987279Y11319299D01*
X4987278Y11319301D01*
X4986158Y11326912D01*
X4934732Y11431655D01*
X4928941Y11437436D01*
X4924177Y11444090D01*
X4925985Y11445384D01*
X4903365Y11489685D01*
X4902174Y11502393D01*
X4901921Y11511140D01*
X4901921Y11511141D01*
X4901833Y11513669D01*
X4899584Y11568219D01*
X4899500Y11572297D01*
X4899500Y11620384D01*
X4908774Y11662220D01*
X4916372Y11678513D01*
X4922900Y11728099D01*
X4922899Y12147900D01*
X4921947Y12155139D01*
X4917361Y12189975D01*
X4917361Y12189976D01*
X4916372Y12197487D01*
X4880622Y12274153D01*
X4869285Y12298466D01*
X4869284Y12298468D01*
X4865624Y12306316D01*
X4780716Y12391224D01*
X4772868Y12394884D01*
X4772866Y12394885D01*
X4678756Y12438769D01*
X4671887Y12441972D01*
X4622301Y12448500D01*
X4442428Y12448500D01*
X4262500Y12448499D01*
X4259290Y12448076D01*
X4259283Y12448076D01*
X4220425Y12442961D01*
X4220424Y12442961D01*
X4212913Y12441972D01*
X4166182Y12420181D01*
X4111934Y12394885D01*
X4111932Y12394884D01*
X4104084Y12391224D01*
X4019176Y12306316D01*
X4015516Y12298468D01*
X4015515Y12298466D01*
X4004178Y12274153D01*
X3968428Y12197487D01*
X3961900Y12147901D01*
X3032600Y12147901D01*
X3032600Y14063120D01*
X3051507Y14121311D01*
X3061597Y14133124D01*
X3240478Y14312004D01*
X3294994Y14339781D01*
X3310481Y14341000D01*
X5565517Y14341000D01*
X5569294Y14340723D01*
X5573886Y14339146D01*
X5621414Y14340930D01*
X5625126Y14341000D01*
X5643812Y14341000D01*
X5648116Y14341801D01*
X5652892Y14342111D01*
X5670957Y14342790D01*
X5681621Y14343190D01*
X5691432Y14347405D01*
X5712386Y14353771D01*
X5713896Y14354052D01*
X5713898Y14354053D01*
X5722883Y14355726D01*
X5736242Y14363961D01*
X5744487Y14369043D01*
X5757357Y14375729D01*
X5780676Y14385747D01*
X5785379Y14389611D01*
X5789280Y14393512D01*
X5806192Y14406880D01*
X5806875Y14407500D01*
X5814658Y14412297D01*
X5831528Y14434482D01*
X5840320Y14444552D01*
X6896909Y15501140D01*
X6899774Y15503613D01*
X6904136Y15505745D01*
X6936476Y15540608D01*
X6939053Y15543284D01*
X6952270Y15556501D01*
X6954751Y15560117D01*
X6957896Y15563699D01*
X6977456Y15584785D01*
X6981413Y15594704D01*
X6991724Y15614015D01*
X6997768Y15622826D01*
X7003630Y15647525D01*
X7007999Y15661341D01*
X7017406Y15684920D01*
X7018000Y15690978D01*
X7018000Y15696494D01*
X7020505Y15717901D01*
X7020550Y15718828D01*
X7022661Y15727722D01*
X7018904Y15755329D01*
X7018000Y15768678D01*
X7018000Y15935000D01*
X7020471Y15956983D01*
X7022156Y15964381D01*
X7023235Y15969119D01*
X7024027Y15997882D01*
X7024433Y16004514D01*
X7026325Y16024424D01*
X7027435Y16032532D01*
X7029247Y16042635D01*
X7031300Y16051640D01*
X7032592Y16056294D01*
X7035452Y16065010D01*
X7037313Y16069901D01*
X7040274Y16076867D01*
X7045151Y16087219D01*
X7047316Y16091536D01*
X7057364Y16110395D01*
X7058203Y16111935D01*
X7073307Y16139105D01*
X7073395Y16139264D01*
X7074333Y16140969D01*
X7074408Y16141107D01*
X7092249Y16173927D01*
X7092292Y16174007D01*
X7093533Y16176330D01*
X7093557Y16176376D01*
X7093631Y16176514D01*
X7093787Y16176811D01*
X7095146Y16179444D01*
X7110631Y16209987D01*
X7123868Y16245492D01*
X7128412Y16255829D01*
X7138319Y16275274D01*
X7159404Y16408400D01*
X7148987Y16474170D01*
X7139538Y16533831D01*
X7139538Y16533832D01*
X7138319Y16541526D01*
X7121170Y16575183D01*
X7080664Y16654681D01*
X7080663Y16654683D01*
X7077128Y16661620D01*
X7026752Y16711996D01*
X6998975Y16766513D01*
X7008546Y16826945D01*
X7051811Y16870210D01*
X7096756Y16881000D01*
X7197400Y16881000D01*
X7219380Y16878529D01*
X7231519Y16875765D01*
X7260283Y16874973D01*
X7266910Y16874567D01*
X7286823Y16872675D01*
X7294923Y16871566D01*
X7305040Y16869752D01*
X7314032Y16867701D01*
X7318700Y16866406D01*
X7327400Y16863551D01*
X7332300Y16861687D01*
X7339266Y16858726D01*
X7349618Y16853849D01*
X7353936Y16851683D01*
X7372756Y16841657D01*
X7374281Y16840826D01*
X7401467Y16825712D01*
X7401467Y16825713D01*
X7401639Y16825617D01*
X7403343Y16824680D01*
X7436309Y16806759D01*
X7438672Y16805495D01*
X7438970Y16805338D01*
X7439087Y16805277D01*
X7439088Y16805277D01*
X7441714Y16803919D01*
X7441787Y16803882D01*
X7441835Y16803857D01*
X7472394Y16788365D01*
X7507855Y16775148D01*
X7518222Y16770592D01*
X7530731Y16764218D01*
X7530735Y16764217D01*
X7537674Y16760681D01*
X7545368Y16759462D01*
X7545369Y16759462D01*
X7633822Y16745453D01*
X7638916Y16744646D01*
X7663104Y16740815D01*
X7670800Y16739596D01*
X7678496Y16740815D01*
X7702685Y16744646D01*
X7707778Y16745453D01*
X7796231Y16759462D01*
X7796232Y16759462D01*
X7803926Y16760681D01*
X7815372Y16766513D01*
X7917081Y16818336D01*
X7917083Y16818337D01*
X7924020Y16821872D01*
X8019328Y16917180D01*
X8027287Y16932799D01*
X8076983Y17030334D01*
X8076983Y17030335D01*
X8080519Y17037274D01*
X8101604Y17170400D01*
X8086632Y17264928D01*
X8081738Y17295831D01*
X8081738Y17295832D01*
X8080519Y17303526D01*
X8037221Y17388503D01*
X8022864Y17416681D01*
X8022863Y17416683D01*
X8019328Y17423620D01*
X7924020Y17518928D01*
X7917083Y17522463D01*
X7917081Y17522464D01*
X7810866Y17576583D01*
X7810865Y17576583D01*
X7803926Y17580119D01*
X7796232Y17581338D01*
X7796231Y17581338D01*
X7678496Y17599985D01*
X7670800Y17601204D01*
X7663104Y17599985D01*
X7663102Y17599985D01*
X7632465Y17595133D01*
X7572033Y17604705D01*
X7528769Y17647970D01*
X7519198Y17708402D01*
X7546976Y17762918D01*
X7558789Y17773007D01*
X7584854Y17791944D01*
X7584856Y17791946D01*
X7589050Y17794993D01*
X7592516Y17798842D01*
X7592520Y17798846D01*
X7708723Y17927903D01*
X7708727Y17927908D01*
X7712195Y17931760D01*
X7751801Y18000359D01*
X7801620Y18086647D01*
X7801622Y18086652D01*
X7804214Y18091141D01*
X7844585Y18215388D01*
X7859483Y18261239D01*
X7859484Y18261244D01*
X7861085Y18266171D01*
X7880322Y18449200D01*
X7861085Y18632229D01*
X7859484Y18637156D01*
X7859483Y18637161D01*
X7812508Y18781734D01*
X7804214Y18807259D01*
X7801622Y18811748D01*
X7801620Y18811753D01*
X7714790Y18962145D01*
X7712195Y18966640D01*
X7708727Y18970492D01*
X7708723Y18970497D01*
X7592520Y19099554D01*
X7592516Y19099558D01*
X7589050Y19103407D01*
X7584857Y19106453D01*
X7584853Y19106457D01*
X7520782Y19153007D01*
X7484818Y19202507D01*
X7484817Y19263692D01*
X7520781Y19313192D01*
X7578972Y19332100D01*
X8421028Y19332100D01*
X8479219Y19313193D01*
G37*
%TD.AperFunction*%
%TA.AperFunction,Conductor*%
G36*
X6220445Y11924615D02*
G01*
X6263710Y11881350D01*
X6274500Y11836405D01*
X6274500Y11708096D01*
X6275026Y11704524D01*
X6275026Y11704521D01*
X6283883Y11644353D01*
X6285003Y11636746D01*
X6288392Y11629844D01*
X6288392Y11629843D01*
X6321721Y11561961D01*
X6338263Y11528268D01*
X6423790Y11442890D01*
X6431137Y11439299D01*
X6431138Y11439298D01*
X6446774Y11431655D01*
X6532361Y11389819D01*
X6584048Y11382279D01*
X6599551Y11380017D01*
X6599553Y11380017D01*
X6603096Y11379500D01*
X8198005Y11379500D01*
X8256196Y11360593D01*
X8268009Y11350504D01*
X8289009Y11329504D01*
X8316786Y11274987D01*
X8307215Y11214555D01*
X8263950Y11171290D01*
X8219005Y11160500D01*
X6603096Y11160500D01*
X6599524Y11159974D01*
X6599521Y11159974D01*
X6539353Y11151117D01*
X6539352Y11151117D01*
X6531746Y11149997D01*
X6524844Y11146608D01*
X6524843Y11146608D01*
X6430610Y11100342D01*
X6430609Y11100341D01*
X6423268Y11096737D01*
X6337890Y11011210D01*
X6284819Y10902639D01*
X6274500Y10831904D01*
X6274500Y10438096D01*
X6275026Y10434524D01*
X6275026Y10434521D01*
X6283576Y10376439D01*
X6285003Y10366746D01*
X6288392Y10359844D01*
X6288392Y10359843D01*
X6332849Y10269296D01*
X6338263Y10258268D01*
X6423790Y10172890D01*
X6532361Y10119819D01*
X6580249Y10112833D01*
X6599551Y10110017D01*
X6599553Y10110017D01*
X6603096Y10109500D01*
X8102205Y10109500D01*
X8160396Y10090593D01*
X8196360Y10041093D01*
X8196360Y9979907D01*
X8172209Y9940496D01*
X8151209Y9919496D01*
X8096692Y9891719D01*
X8081205Y9890500D01*
X6603096Y9890500D01*
X6599524Y9889974D01*
X6599521Y9889974D01*
X6539353Y9881117D01*
X6539352Y9881117D01*
X6531746Y9879997D01*
X6524844Y9876608D01*
X6524843Y9876608D01*
X6430610Y9830342D01*
X6430609Y9830341D01*
X6423268Y9826737D01*
X6337890Y9741210D01*
X6334299Y9733863D01*
X6334298Y9733862D01*
X6313888Y9692108D01*
X6284819Y9632639D01*
X6274500Y9561904D01*
X6274500Y9168096D01*
X6285003Y9096746D01*
X6288392Y9089844D01*
X6288392Y9089843D01*
X6307218Y9051500D01*
X6338263Y8988268D01*
X6423790Y8902890D01*
X6431137Y8899299D01*
X6431138Y8899298D01*
X6465951Y8882281D01*
X6532361Y8849819D01*
X6584048Y8842279D01*
X6599551Y8840017D01*
X6599553Y8840017D01*
X6603096Y8839500D01*
X8321904Y8839500D01*
X8325476Y8840026D01*
X8325479Y8840026D01*
X8393254Y8850003D01*
X8393727Y8846793D01*
X8440674Y8846203D01*
X8489718Y8809619D01*
X8507900Y8752440D01*
X8507900Y8707535D01*
X8488993Y8649344D01*
X8439493Y8613380D01*
X8393057Y8613047D01*
X8392639Y8610181D01*
X8325449Y8619983D01*
X8325447Y8619983D01*
X8321904Y8620500D01*
X6603096Y8620500D01*
X6599524Y8619974D01*
X6599521Y8619974D01*
X6539353Y8611117D01*
X6539352Y8611117D01*
X6531746Y8609997D01*
X6524844Y8606608D01*
X6524843Y8606608D01*
X6430610Y8560342D01*
X6430609Y8560341D01*
X6423268Y8556737D01*
X6417491Y8550950D01*
X6386661Y8520066D01*
X6337890Y8471210D01*
X6334299Y8463863D01*
X6334298Y8463862D01*
X6329481Y8454007D01*
X6284819Y8362639D01*
X6279201Y8324128D01*
X6277551Y8312816D01*
X6250442Y8257964D01*
X6196269Y8229522D01*
X6135725Y8238355D01*
X6109584Y8257103D01*
X6100696Y8265991D01*
X6072919Y8320508D01*
X6071700Y8335995D01*
X6071700Y11831605D01*
X6090607Y11889796D01*
X6100696Y11901609D01*
X6105496Y11906409D01*
X6160013Y11934186D01*
X6220445Y11924615D01*
G37*
%TD.AperFunction*%
%TD*%
M02*
