M48
; DRILL file {KiCad (6.0.7)} date Tue Jan  2 21:25:37 2024
; FORMAT={-:-/ absolute / inch / decimal}
; #@! TF.CreationDate,2024-01-02T21:25:37+08:00
; #@! TF.GenerationSoftware,Kicad,Pcbnew,(6.0.7)
; #@! TF.FileFunction,Plated,1,4,PTH
FMAT,2
INCH
; #@! TA.AperFunction,Plated,PTH,ViaDrill
T1C0.0098
; #@! TA.AperFunction,Plated,PTH,ComponentDrill
T2C0.0157
; #@! TA.AperFunction,Plated,PTH,ComponentDrill
T3C0.0197
; #@! TA.AperFunction,Plated,PTH,ComponentDrill
T4C0.0315
; #@! TA.AperFunction,Plated,PTH,ComponentDrill
T5C0.0807
%
G90
G05
T1
X0.02Y0.484
X0.02Y0.27
X0.028Y0.174
X0.03Y0.466
X0.042Y0.486
X0.046Y0.524
X0.052Y0.34
X0.074Y0.314
X0.074Y0.282
X0.13Y0.554
X0.13Y0.532
X0.13Y0.514
X0.13Y0.49
X0.13Y0.322
X0.15Y0.322
X0.152Y0.268
X0.168Y0.308
X0.172Y0.144
X0.178Y0.396
X0.183Y0.287
X0.194Y0.154
X0.196Y0.308
X0.206Y0.232
X0.21Y0.204
X0.224Y0.666
X0.242Y0.558
X0.2471Y0.3934
X0.2471Y0.2803
X0.2519Y0.258
X0.2649Y0.646
X0.27Y0.2454
X0.298Y0.19
X0.298Y0.12
X0.302Y0.676
X0.312Y0.154
X0.3153Y0.292
X0.316Y0.4687
X0.316Y0.032
X0.3286Y0.6041
X0.33Y0.556
X0.334Y0.016
X0.354Y0.027
X0.374Y0.016
X0.394Y0.278
X0.4Y0.3557
X0.406Y0.256
X0.408Y0.404
X0.418Y0.228
X0.428Y0.584
X0.428Y0.536
X0.43Y0.638
X0.438Y0.424
X0.438Y0.39
X0.44Y0.34
X0.444Y0.302
X0.452Y0.126
X0.46Y0.616
X0.462Y0.568
X0.462Y0.318
X0.472Y0.116
X0.478Y0.29
X0.486Y0.222
X0.486Y0.094
X0.492Y0.266
X0.496Y0.616
X0.496Y0.568
X0.496Y0.03
X0.51Y0.292
X0.512Y0.03
X0.56Y0.12
X0.576Y0.308
X0.578Y0.08
X0.584Y0.51
X0.6Y0.308
X0.604Y0.51
X0.656Y0.442
X0.664Y0.418
X0.686Y0.454
X0.696Y0.418
X0.708Y0.454
X0.724Y0.606
T2
X0.0326Y0.6969
X0.0326Y0.0906
X0.0466Y0.7349
X0.0466Y0.1286
X0.0486Y0.6569
X0.0486Y0.0506
X0.0906Y0.7549
X0.0906Y0.6389
X0.0906Y0.1486
X0.0906Y0.0326
X0.1286Y0.7409
X0.1286Y0.6529
X0.1286Y0.1346
X0.1286Y0.0466
X0.1486Y0.6969
X0.1486Y0.0906
X0.6389Y0.6969
X0.6389Y0.0906
X0.6529Y0.7349
X0.6529Y0.1286
X0.6549Y0.6569
X0.6549Y0.0506
X0.6969Y0.7549
X0.6969Y0.6389
X0.6969Y0.1486
X0.6969Y0.0326
X0.7349Y0.7409
X0.7349Y0.6529
X0.7349Y0.1346
X0.7349Y0.0466
X0.7549Y0.6969
X0.7549Y0.0906
T3
X0.1639Y0.028
X0.2033Y0.028
X0.2426Y0.028
X0.282Y0.028
T4
X0.2756Y0.7263
X0.3543Y0.7263
X0.4331Y0.7263
X0.5118Y0.7263
X0.75Y0.5581
X0.75Y0.4794
X0.75Y0.4006
X0.75Y0.3219
T5
X0.0906Y0.6969
X0.0906Y0.0906
X0.6969Y0.6969
X0.6969Y0.0906
T0
M30
