%TF.GenerationSoftware,KiCad,Pcbnew,(6.0.7)*%
%TF.CreationDate,2024-01-02T21:25:37+08:00*%
%TF.ProjectId,stepper-motor-20,73746570-7065-4722-9d6d-6f746f722d32,1*%
%TF.SameCoordinates,PX6979f40PYa1135a0*%
%TF.FileFunction,Paste,Top*%
%TF.FilePolarity,Positive*%
%FSLAX46Y46*%
G04 Gerber Fmt 4.6, Leading zero omitted, Abs format (unit mm)*
G04 Created by KiCad (PCBNEW (6.0.7)) date 2024-01-02 21:25:37*
%MOMM*%
%LPD*%
G01*
G04 APERTURE LIST*
G04 Aperture macros list*
%AMRoundRect*
0 Rectangle with rounded corners*
0 $1 Rounding radius*
0 $2 $3 $4 $5 $6 $7 $8 $9 X,Y pos of 4 corners*
0 Add a 4 corners polygon primitive as box body*
4,1,4,$2,$3,$4,$5,$6,$7,$8,$9,$2,$3,0*
0 Add four circle primitives for the rounded corners*
1,1,$1+$1,$2,$3*
1,1,$1+$1,$4,$5*
1,1,$1+$1,$6,$7*
1,1,$1+$1,$8,$9*
0 Add four rect primitives between the rounded corners*
20,1,$1+$1,$2,$3,$4,$5,0*
20,1,$1+$1,$4,$5,$6,$7,0*
20,1,$1+$1,$6,$7,$8,$9,0*
20,1,$1+$1,$8,$9,$2,$3,0*%
G04 Aperture macros list end*
%ADD10RoundRect,0.147500X0.147500X0.172500X-0.147500X0.172500X-0.147500X-0.172500X0.147500X-0.172500X0*%
%ADD11RoundRect,0.147500X-0.147500X-0.172500X0.147500X-0.172500X0.147500X0.172500X-0.147500X0.172500X0*%
%ADD12RoundRect,0.147500X-0.172500X0.147500X-0.172500X-0.147500X0.172500X-0.147500X0.172500X0.147500X0*%
%ADD13RoundRect,0.140000X-0.140000X-0.170000X0.140000X-0.170000X0.140000X0.170000X-0.140000X0.170000X0*%
%ADD14RoundRect,0.140000X0.140000X0.170000X-0.140000X0.170000X-0.140000X-0.170000X0.140000X-0.170000X0*%
%ADD15RoundRect,0.225000X-0.250000X0.225000X-0.250000X-0.225000X0.250000X-0.225000X0.250000X0.225000X0*%
%ADD16R,0.450000X0.600000*%
%ADD17R,2.700000X0.800000*%
%ADD18RoundRect,0.243750X0.456250X-0.243750X0.456250X0.243750X-0.456250X0.243750X-0.456250X-0.243750X0*%
%ADD19RoundRect,0.147500X0.172500X-0.147500X0.172500X0.147500X-0.172500X0.147500X-0.172500X-0.147500X0*%
%ADD20RoundRect,0.250000X0.275000X0.275000X-0.275000X0.275000X-0.275000X-0.275000X0.275000X-0.275000X0*%
%ADD21RoundRect,0.050000X0.387500X0.050000X-0.387500X0.050000X-0.387500X-0.050000X0.387500X-0.050000X0*%
%ADD22RoundRect,0.050000X0.050000X0.387500X-0.050000X0.387500X-0.050000X-0.387500X0.050000X-0.387500X0*%
%ADD23RoundRect,0.242500X-0.242500X-0.422500X0.242500X-0.422500X0.242500X0.422500X-0.242500X0.422500X0*%
%ADD24RoundRect,0.150000X-0.825000X-0.150000X0.825000X-0.150000X0.825000X0.150000X-0.825000X0.150000X0*%
%ADD25R,1.060000X0.650000*%
%ADD26RoundRect,0.135000X-0.135000X-0.185000X0.135000X-0.185000X0.135000X0.185000X-0.135000X0.185000X0*%
%ADD27RoundRect,0.200000X-0.200000X-0.800000X0.200000X-0.800000X0.200000X0.800000X-0.200000X0.800000X0*%
%ADD28RoundRect,0.135000X0.135000X0.185000X-0.135000X0.185000X-0.135000X-0.185000X0.135000X-0.185000X0*%
%ADD29RoundRect,0.225000X0.250000X-0.225000X0.250000X0.225000X-0.250000X0.225000X-0.250000X-0.225000X0*%
G04 APERTURE END LIST*
D10*
%TO.C,C3*%
X14224000Y1981200D03*
X13254000Y1981200D03*
%TD*%
D11*
%TO.C,C4*%
X6728600Y11836400D03*
X7698600Y11836400D03*
%TD*%
%TO.C,C5*%
X4645800Y1828800D03*
X5615800Y1828800D03*
%TD*%
D12*
%TO.C,C6*%
X4978400Y6123800D03*
X4978400Y5153800D03*
%TD*%
D11*
%TO.C,C7*%
X11402200Y1016000D03*
X12372200Y1016000D03*
%TD*%
%TO.C,C8*%
X13254000Y4318000D03*
X14224000Y4318000D03*
%TD*%
D10*
%TO.C,C9*%
X14201000Y1016000D03*
X13231000Y1016000D03*
%TD*%
D11*
%TO.C,C10*%
X4747400Y16764000D03*
X5717400Y16764000D03*
%TD*%
D13*
%TO.C,C12*%
X6754200Y9906000D03*
X7714200Y9906000D03*
%TD*%
%TO.C,C16*%
X6756600Y8280400D03*
X7716600Y8280400D03*
%TD*%
D14*
%TO.C,C19*%
X17040800Y7416800D03*
X16080800Y7416800D03*
%TD*%
%TO.C,C20*%
X17040800Y11785600D03*
X16080800Y11785600D03*
%TD*%
D15*
%TO.C,C24*%
X711200Y10444600D03*
X711200Y8894600D03*
%TD*%
D14*
%TO.C,C26*%
X14219000Y5943600D03*
X13259000Y5943600D03*
%TD*%
D11*
%TO.C,D1*%
X808000Y5159000D03*
X1778000Y5159000D03*
%TD*%
%TO.C,D2*%
X808000Y6096000D03*
X1778000Y6096000D03*
%TD*%
D16*
%TO.C,D3*%
X5029200Y11159200D03*
X5029200Y9059200D03*
%TD*%
D17*
%TO.C,L1*%
X2844800Y11125200D03*
X2844800Y8925200D03*
%TD*%
D11*
%TO.C,R2*%
X2671000Y6096000D03*
X3641000Y6096000D03*
%TD*%
D10*
%TO.C,R3*%
X14224000Y2758200D03*
X13254000Y2758200D03*
%TD*%
D11*
%TO.C,R4*%
X11402200Y1981200D03*
X12372200Y1981200D03*
%TD*%
%TO.C,R5*%
X13254000Y3530000D03*
X14224000Y3530000D03*
%TD*%
%TO.C,R7*%
X6751600Y10668000D03*
X7721600Y10668000D03*
%TD*%
%TO.C,R9*%
X6751600Y9093200D03*
X7721600Y9093200D03*
%TD*%
D18*
%TO.C,R10*%
X17272000Y13286500D03*
X17272000Y15161500D03*
%TD*%
%TO.C,R11*%
X17272000Y8968500D03*
X17272000Y10843500D03*
%TD*%
D19*
%TO.C,R12*%
X711200Y14163000D03*
X711200Y15133000D03*
%TD*%
D11*
%TO.C,R13*%
X1801000Y15189200D03*
X2771000Y15189200D03*
%TD*%
%TO.C,R14*%
X3528200Y15189200D03*
X4498200Y15189200D03*
%TD*%
D10*
%TO.C,R15*%
X14224000Y6705600D03*
X13254000Y6705600D03*
%TD*%
%TO.C,R18*%
X7698600Y16764000D03*
X6728600Y16764000D03*
%TD*%
D11*
%TO.C,R19*%
X835800Y7874000D03*
X1805800Y7874000D03*
%TD*%
D20*
%TO.C,U2*%
X7859000Y4510800D03*
X7859000Y3210800D03*
X9159000Y4510800D03*
X9159000Y3210800D03*
D21*
X10446500Y2660800D03*
X10446500Y3060800D03*
X10446500Y3460800D03*
X10446500Y3860800D03*
X10446500Y4260800D03*
X10446500Y4660800D03*
X10446500Y5060800D03*
D22*
X9709000Y5798300D03*
X9309000Y5798300D03*
X8909000Y5798300D03*
X8509000Y5798300D03*
X8109000Y5798300D03*
X7709000Y5798300D03*
X7309000Y5798300D03*
D21*
X6571500Y5060800D03*
X6571500Y4660800D03*
X6571500Y4260800D03*
X6571500Y3860800D03*
X6571500Y3460800D03*
X6571500Y3060800D03*
X6571500Y2660800D03*
D22*
X7309000Y1923300D03*
X7709000Y1923300D03*
X8109000Y1923300D03*
X8509000Y1923300D03*
X8909000Y1923300D03*
X9309000Y1923300D03*
X9709000Y1923300D03*
%TD*%
D23*
%TO.C,U3*%
X12663000Y15684000D03*
X12663000Y14034000D03*
X11463000Y15684000D03*
X11463000Y14034000D03*
D24*
X9588000Y16764000D03*
X9588000Y15494000D03*
X9588000Y14224000D03*
X9588000Y12954000D03*
X14538000Y12954000D03*
X14538000Y14224000D03*
X14538000Y15494000D03*
X14538000Y16764000D03*
%TD*%
D23*
%TO.C,U4*%
X12665000Y10604000D03*
X11465000Y10604000D03*
X11465000Y8954000D03*
X12665000Y8954000D03*
D24*
X9590000Y11684000D03*
X9590000Y10414000D03*
X9590000Y9144000D03*
X9590000Y7874000D03*
X14540000Y7874000D03*
X14540000Y9144000D03*
X14540000Y10414000D03*
X14540000Y11684000D03*
%TD*%
D25*
%TO.C,U5*%
X4275000Y12326400D03*
X4275000Y13276400D03*
X4275000Y14226400D03*
X2075000Y14226400D03*
X2075000Y13276400D03*
X2075000Y12326400D03*
%TD*%
D10*
%TO.C,R16*%
X14224000Y5181600D03*
X13254000Y5181600D03*
%TD*%
D26*
%TO.C,R17*%
X11377200Y5181600D03*
X12397200Y5181600D03*
%TD*%
D11*
%TO.C,R1*%
X2671000Y5159000D03*
X3641000Y5159000D03*
%TD*%
D10*
%TO.C,R20*%
X1805800Y7061200D03*
X835800Y7061200D03*
%TD*%
D11*
%TO.C,R6*%
X6731000Y15113000D03*
X7701000Y15113000D03*
%TD*%
%TO.C,R8*%
X6731000Y13589000D03*
X7701000Y13589000D03*
%TD*%
D13*
%TO.C,C15*%
X6736000Y12827000D03*
X7696000Y12827000D03*
%TD*%
%TO.C,C11*%
X6736000Y14351000D03*
X7696000Y14351000D03*
%TD*%
D27*
%TO.C,SW1*%
X15172000Y5638800D03*
X19372000Y5638800D03*
%TD*%
D13*
%TO.C,C27*%
X11387200Y5943600D03*
X12347200Y5943600D03*
%TD*%
D28*
%TO.C,NTC1*%
X12397200Y6705600D03*
X11377200Y6705600D03*
%TD*%
D29*
%TO.C,C23*%
X711200Y11637800D03*
X711200Y13187800D03*
%TD*%
M02*
