%TF.GenerationSoftware,KiCad,Pcbnew,(5.1.6)-1*%
%TF.CreationDate,2023-12-18T11:35:21+08:00*%
%TF.ProjectId,stepper_motor,73746570-7065-4725-9f6d-6f746f722e6b,1*%
%TF.SameCoordinates,PX6979f40PYa1135a0*%
%TF.FileFunction,Legend,Top*%
%TF.FilePolarity,Positive*%
%FSLAX46Y46*%
G04 Gerber Fmt 4.6, Leading zero omitted, Abs format (unit mm)*
G04 Created by KiCad (PCBNEW (5.1.6)-1) date 2023-12-18 11:35:21*
%MOMM*%
%LPD*%
G01*
G04 APERTURE LIST*
%ADD10C,0.120000*%
G04 APERTURE END LIST*
D10*
%TO.C,J2*%
X10031000Y2380000D02*
X10031000Y1270000D01*
X9271000Y2380000D02*
X10031000Y2380000D01*
X8511000Y706529D02*
X8511000Y160000D01*
X8511000Y2380000D02*
X8511000Y1833471D01*
X8511000Y160000D02*
X4766000Y160000D01*
X8511000Y2380000D02*
X4766000Y2380000D01*
X4766000Y962470D02*
X4766000Y160000D01*
X4766000Y2380000D02*
X4766000Y1577530D01*
%TO.C,Y1*%
X18987500Y6635500D02*
X18987500Y2635500D01*
X22287500Y6635500D02*
X18987500Y6635500D01*
%TO.C,D3*%
X5731000Y18705000D02*
X5731000Y22605000D01*
X7731000Y18705000D02*
X7731000Y22605000D01*
X5731000Y18705000D02*
X7731000Y18705000D01*
%TO.C,U5*%
X1774000Y21468000D02*
X1774000Y19668000D01*
X4994000Y19668000D02*
X4994000Y22118000D01*
%TO.C,U4*%
X18669000Y12172000D02*
X20619000Y12172000D01*
X18669000Y12172000D02*
X16719000Y12172000D01*
X18669000Y17292000D02*
X20619000Y17292000D01*
X18669000Y17292000D02*
X15219000Y17292000D01*
%TO.C,U3*%
X18667000Y17686000D02*
X20617000Y17686000D01*
X18667000Y17686000D02*
X16717000Y17686000D01*
X18667000Y22806000D02*
X20617000Y22806000D01*
X18667000Y22806000D02*
X15217000Y22806000D01*
%TO.C,U2*%
X10048000Y9198000D02*
X9598000Y9198000D01*
X9598000Y9198000D02*
X9598000Y8748000D01*
X16368000Y9198000D02*
X16818000Y9198000D01*
X16818000Y9198000D02*
X16818000Y8748000D01*
X10048000Y1978000D02*
X9598000Y1978000D01*
X9598000Y1978000D02*
X9598000Y2428000D01*
X16368000Y1978000D02*
X16818000Y1978000D01*
X16818000Y1978000D02*
X16818000Y2428000D01*
X16818000Y2428000D02*
X18108000Y2428000D01*
%TO.C,SW3*%
X792000Y6812000D02*
X792000Y7112000D01*
X4932000Y9952000D02*
X4932000Y9652000D01*
X4932000Y7112000D02*
X4932000Y6812000D01*
X792000Y9952000D02*
X4932000Y9952000D01*
X792000Y9652000D02*
X792000Y9952000D01*
X4932000Y6812000D02*
X792000Y6812000D01*
%TO.C,SW2*%
X27216000Y9952000D02*
X27216000Y9652000D01*
X23076000Y6812000D02*
X23076000Y7112000D01*
X23076000Y9652000D02*
X23076000Y9952000D01*
X27216000Y6812000D02*
X23076000Y6812000D01*
X27216000Y7112000D02*
X27216000Y6812000D01*
X23076000Y9952000D02*
X27216000Y9952000D01*
%TO.C,R11*%
X24205000Y15362422D02*
X24205000Y15879578D01*
X22785000Y15362422D02*
X22785000Y15879578D01*
%TO.C,R10*%
X24205000Y21077422D02*
X24205000Y21594578D01*
X22785000Y21077422D02*
X22785000Y21594578D01*
%TO.C,L1*%
X4123000Y18129000D02*
X4123000Y14129000D01*
X8323000Y18129000D02*
X8323000Y14129000D01*
%TO.C,J3*%
X27603000Y13291000D02*
X26543000Y13291000D01*
X27603000Y14351000D02*
X27603000Y13291000D01*
X27603000Y15351000D02*
X25483000Y15351000D01*
X25483000Y15351000D02*
X25483000Y21411000D01*
X27603000Y15351000D02*
X27603000Y21411000D01*
X27603000Y21411000D02*
X25483000Y21411000D01*
%TO.C,J1*%
X19695500Y23036000D02*
X19695500Y24286000D01*
X18445500Y23036000D02*
X19695500Y23036000D01*
X12335500Y27446000D02*
X12335500Y26946000D01*
X12235500Y26946000D02*
X12235500Y27446000D01*
X12435500Y26946000D02*
X12235500Y26946000D01*
X12435500Y27446000D02*
X12435500Y26946000D01*
X14335500Y27446000D02*
X14335500Y26946000D01*
X14235500Y26946000D02*
X14235500Y27446000D01*
X14435500Y26946000D02*
X14235500Y26946000D01*
X14435500Y27446000D02*
X14435500Y26946000D01*
X16335500Y27446000D02*
X16335500Y26946000D01*
X16235500Y26946000D02*
X16235500Y27446000D01*
X16435500Y26946000D02*
X16235500Y26946000D01*
X16435500Y27446000D02*
X16435500Y26946000D01*
X9275500Y25946000D02*
X9885500Y25946000D01*
X9275500Y24646000D02*
X9885500Y24646000D01*
X19395500Y25946000D02*
X18785500Y25946000D01*
X19395500Y24646000D02*
X18785500Y24646000D01*
X11835500Y23946000D02*
X11835500Y23336000D01*
X9885500Y23946000D02*
X11835500Y23946000D01*
X9885500Y27446000D02*
X9885500Y23946000D01*
X18785500Y27446000D02*
X9885500Y27446000D01*
X18785500Y23946000D02*
X18785500Y27446000D01*
X16835500Y23946000D02*
X18785500Y23946000D01*
X16835500Y23336000D02*
X16835500Y23946000D01*
X17635500Y23236000D02*
X17935500Y23236000D01*
X17935500Y23136000D02*
X17935500Y23336000D01*
X17635500Y23136000D02*
X17935500Y23136000D01*
X17635500Y23336000D02*
X17635500Y23136000D01*
X9275500Y23336000D02*
X19395500Y23336000D01*
X9275500Y28056000D02*
X9275500Y23336000D01*
X19395500Y28056000D02*
X9275500Y28056000D01*
X19395500Y23336000D02*
X19395500Y28056000D01*
%TO.C,D2*%
X4928500Y11203000D02*
X7213500Y11203000D01*
X4928500Y12673000D02*
X4928500Y11203000D01*
X7213500Y12673000D02*
X4928500Y12673000D01*
%TO.C,D1*%
X4928500Y9933000D02*
X7213500Y9933000D01*
X4928500Y11403000D02*
X4928500Y9933000D01*
X7213500Y11403000D02*
X4928500Y11403000D01*
%TO.C,C27*%
X2250221Y13206000D02*
X2575779Y13206000D01*
X2250221Y14226000D02*
X2575779Y14226000D01*
%TO.C,C26*%
X2250221Y14603000D02*
X2575779Y14603000D01*
X2250221Y15623000D02*
X2575779Y15623000D01*
%TO.C,C25*%
X2250221Y17143000D02*
X2575779Y17143000D01*
X2250221Y18163000D02*
X2575779Y18163000D01*
%TD*%
M02*
