%TF.GenerationSoftware,KiCad,Pcbnew,(5.1.6)-1*%
%TF.CreationDate,2023-12-18T11:35:21+08:00*%
%TF.ProjectId,stepper_motor,73746570-7065-4725-9f6d-6f746f722e6b,1*%
%TF.SameCoordinates,PX6979f40PYa1135a0*%
%TF.FileFunction,Paste,Top*%
%TF.FilePolarity,Positive*%
%FSLAX46Y46*%
G04 Gerber Fmt 4.6, Leading zero omitted, Abs format (unit mm)*
G04 Created by KiCad (PCBNEW (5.1.6)-1) date 2023-12-18 11:35:21*
%MOMM*%
%LPD*%
G01*
G04 APERTURE LIST*
%ADD10R,1.200000X1.400000*%
%ADD11R,1.200000X0.900000*%
%ADD12R,0.650000X1.060000*%
%ADD13R,3.900000X1.200000*%
G04 APERTURE END LIST*
%TO.C,R23*%
G36*
G01*
X6541000Y5125500D02*
X6541000Y4780500D01*
G75*
G02*
X6393500Y4633000I-147500J0D01*
G01*
X6098500Y4633000D01*
G75*
G02*
X5951000Y4780500I0J147500D01*
G01*
X5951000Y5125500D01*
G75*
G02*
X6098500Y5273000I147500J0D01*
G01*
X6393500Y5273000D01*
G75*
G02*
X6541000Y5125500I0J-147500D01*
G01*
G37*
G36*
G01*
X7511000Y5125500D02*
X7511000Y4780500D01*
G75*
G02*
X7363500Y4633000I-147500J0D01*
G01*
X7068500Y4633000D01*
G75*
G02*
X6921000Y4780500I0J147500D01*
G01*
X6921000Y5125500D01*
G75*
G02*
X7068500Y5273000I147500J0D01*
G01*
X7363500Y5273000D01*
G75*
G02*
X7511000Y5125500I0J-147500D01*
G01*
G37*
%TD*%
%TO.C,R22*%
G36*
G01*
X6541000Y6014500D02*
X6541000Y5669500D01*
G75*
G02*
X6393500Y5522000I-147500J0D01*
G01*
X6098500Y5522000D01*
G75*
G02*
X5951000Y5669500I0J147500D01*
G01*
X5951000Y6014500D01*
G75*
G02*
X6098500Y6162000I147500J0D01*
G01*
X6393500Y6162000D01*
G75*
G02*
X6541000Y6014500I0J-147500D01*
G01*
G37*
G36*
G01*
X7511000Y6014500D02*
X7511000Y5669500D01*
G75*
G02*
X7363500Y5522000I-147500J0D01*
G01*
X7068500Y5522000D01*
G75*
G02*
X6921000Y5669500I0J147500D01*
G01*
X6921000Y6014500D01*
G75*
G02*
X7068500Y6162000I147500J0D01*
G01*
X7363500Y6162000D01*
G75*
G02*
X7511000Y6014500I0J-147500D01*
G01*
G37*
%TD*%
%TO.C,R21*%
G36*
G01*
X6541000Y6903500D02*
X6541000Y6558500D01*
G75*
G02*
X6393500Y6411000I-147500J0D01*
G01*
X6098500Y6411000D01*
G75*
G02*
X5951000Y6558500I0J147500D01*
G01*
X5951000Y6903500D01*
G75*
G02*
X6098500Y7051000I147500J0D01*
G01*
X6393500Y7051000D01*
G75*
G02*
X6541000Y6903500I0J-147500D01*
G01*
G37*
G36*
G01*
X7511000Y6903500D02*
X7511000Y6558500D01*
G75*
G02*
X7363500Y6411000I-147500J0D01*
G01*
X7068500Y6411000D01*
G75*
G02*
X6921000Y6558500I0J147500D01*
G01*
X6921000Y6903500D01*
G75*
G02*
X7068500Y7051000I147500J0D01*
G01*
X7363500Y7051000D01*
G75*
G02*
X7511000Y6903500I0J-147500D01*
G01*
G37*
%TD*%
D10*
%TO.C,Y1*%
X21487500Y5735500D03*
X21487500Y3535500D03*
X19787500Y3535500D03*
X19787500Y5735500D03*
%TD*%
D11*
%TO.C,D3*%
X6731000Y22605000D03*
X6731000Y19305000D03*
%TD*%
D12*
%TO.C,U5*%
X4334000Y21668000D03*
X3384000Y21668000D03*
X2434000Y21668000D03*
X2434000Y19468000D03*
X4334000Y19468000D03*
X3384000Y19468000D03*
%TD*%
%TO.C,U4*%
G36*
G01*
X15219000Y16487000D02*
X15219000Y16787000D01*
G75*
G02*
X15369000Y16937000I150000J0D01*
G01*
X17019000Y16937000D01*
G75*
G02*
X17169000Y16787000I0J-150000D01*
G01*
X17169000Y16487000D01*
G75*
G02*
X17019000Y16337000I-150000J0D01*
G01*
X15369000Y16337000D01*
G75*
G02*
X15219000Y16487000I0J150000D01*
G01*
G37*
G36*
G01*
X15219000Y15217000D02*
X15219000Y15517000D01*
G75*
G02*
X15369000Y15667000I150000J0D01*
G01*
X17019000Y15667000D01*
G75*
G02*
X17169000Y15517000I0J-150000D01*
G01*
X17169000Y15217000D01*
G75*
G02*
X17019000Y15067000I-150000J0D01*
G01*
X15369000Y15067000D01*
G75*
G02*
X15219000Y15217000I0J150000D01*
G01*
G37*
G36*
G01*
X15219000Y13947000D02*
X15219000Y14247000D01*
G75*
G02*
X15369000Y14397000I150000J0D01*
G01*
X17019000Y14397000D01*
G75*
G02*
X17169000Y14247000I0J-150000D01*
G01*
X17169000Y13947000D01*
G75*
G02*
X17019000Y13797000I-150000J0D01*
G01*
X15369000Y13797000D01*
G75*
G02*
X15219000Y13947000I0J150000D01*
G01*
G37*
G36*
G01*
X15219000Y12677000D02*
X15219000Y12977000D01*
G75*
G02*
X15369000Y13127000I150000J0D01*
G01*
X17019000Y13127000D01*
G75*
G02*
X17169000Y12977000I0J-150000D01*
G01*
X17169000Y12677000D01*
G75*
G02*
X17019000Y12527000I-150000J0D01*
G01*
X15369000Y12527000D01*
G75*
G02*
X15219000Y12677000I0J150000D01*
G01*
G37*
G36*
G01*
X20169000Y12677000D02*
X20169000Y12977000D01*
G75*
G02*
X20319000Y13127000I150000J0D01*
G01*
X21969000Y13127000D01*
G75*
G02*
X22119000Y12977000I0J-150000D01*
G01*
X22119000Y12677000D01*
G75*
G02*
X21969000Y12527000I-150000J0D01*
G01*
X20319000Y12527000D01*
G75*
G02*
X20169000Y12677000I0J150000D01*
G01*
G37*
G36*
G01*
X20169000Y13947000D02*
X20169000Y14247000D01*
G75*
G02*
X20319000Y14397000I150000J0D01*
G01*
X21969000Y14397000D01*
G75*
G02*
X22119000Y14247000I0J-150000D01*
G01*
X22119000Y13947000D01*
G75*
G02*
X21969000Y13797000I-150000J0D01*
G01*
X20319000Y13797000D01*
G75*
G02*
X20169000Y13947000I0J150000D01*
G01*
G37*
G36*
G01*
X20169000Y15217000D02*
X20169000Y15517000D01*
G75*
G02*
X20319000Y15667000I150000J0D01*
G01*
X21969000Y15667000D01*
G75*
G02*
X22119000Y15517000I0J-150000D01*
G01*
X22119000Y15217000D01*
G75*
G02*
X21969000Y15067000I-150000J0D01*
G01*
X20319000Y15067000D01*
G75*
G02*
X20169000Y15217000I0J150000D01*
G01*
G37*
G36*
G01*
X20169000Y16487000D02*
X20169000Y16787000D01*
G75*
G02*
X20319000Y16937000I150000J0D01*
G01*
X21969000Y16937000D01*
G75*
G02*
X22119000Y16787000I0J-150000D01*
G01*
X22119000Y16487000D01*
G75*
G02*
X21969000Y16337000I-150000J0D01*
G01*
X20319000Y16337000D01*
G75*
G02*
X20169000Y16487000I0J150000D01*
G01*
G37*
G36*
G01*
X17584000Y15134500D02*
X17584000Y15979500D01*
G75*
G02*
X17826500Y16222000I242500J0D01*
G01*
X18311500Y16222000D01*
G75*
G02*
X18554000Y15979500I0J-242500D01*
G01*
X18554000Y15134500D01*
G75*
G02*
X18311500Y14892000I-242500J0D01*
G01*
X17826500Y14892000D01*
G75*
G02*
X17584000Y15134500I0J242500D01*
G01*
G37*
G36*
G01*
X17584000Y13484500D02*
X17584000Y14329500D01*
G75*
G02*
X17826500Y14572000I242500J0D01*
G01*
X18311500Y14572000D01*
G75*
G02*
X18554000Y14329500I0J-242500D01*
G01*
X18554000Y13484500D01*
G75*
G02*
X18311500Y13242000I-242500J0D01*
G01*
X17826500Y13242000D01*
G75*
G02*
X17584000Y13484500I0J242500D01*
G01*
G37*
G36*
G01*
X18784000Y15134500D02*
X18784000Y15979500D01*
G75*
G02*
X19026500Y16222000I242500J0D01*
G01*
X19511500Y16222000D01*
G75*
G02*
X19754000Y15979500I0J-242500D01*
G01*
X19754000Y15134500D01*
G75*
G02*
X19511500Y14892000I-242500J0D01*
G01*
X19026500Y14892000D01*
G75*
G02*
X18784000Y15134500I0J242500D01*
G01*
G37*
G36*
G01*
X18784000Y13484500D02*
X18784000Y14329500D01*
G75*
G02*
X19026500Y14572000I242500J0D01*
G01*
X19511500Y14572000D01*
G75*
G02*
X19754000Y14329500I0J-242500D01*
G01*
X19754000Y13484500D01*
G75*
G02*
X19511500Y13242000I-242500J0D01*
G01*
X19026500Y13242000D01*
G75*
G02*
X18784000Y13484500I0J242500D01*
G01*
G37*
%TD*%
%TO.C,U3*%
G36*
G01*
X15217000Y22001000D02*
X15217000Y22301000D01*
G75*
G02*
X15367000Y22451000I150000J0D01*
G01*
X17017000Y22451000D01*
G75*
G02*
X17167000Y22301000I0J-150000D01*
G01*
X17167000Y22001000D01*
G75*
G02*
X17017000Y21851000I-150000J0D01*
G01*
X15367000Y21851000D01*
G75*
G02*
X15217000Y22001000I0J150000D01*
G01*
G37*
G36*
G01*
X15217000Y20731000D02*
X15217000Y21031000D01*
G75*
G02*
X15367000Y21181000I150000J0D01*
G01*
X17017000Y21181000D01*
G75*
G02*
X17167000Y21031000I0J-150000D01*
G01*
X17167000Y20731000D01*
G75*
G02*
X17017000Y20581000I-150000J0D01*
G01*
X15367000Y20581000D01*
G75*
G02*
X15217000Y20731000I0J150000D01*
G01*
G37*
G36*
G01*
X15217000Y19461000D02*
X15217000Y19761000D01*
G75*
G02*
X15367000Y19911000I150000J0D01*
G01*
X17017000Y19911000D01*
G75*
G02*
X17167000Y19761000I0J-150000D01*
G01*
X17167000Y19461000D01*
G75*
G02*
X17017000Y19311000I-150000J0D01*
G01*
X15367000Y19311000D01*
G75*
G02*
X15217000Y19461000I0J150000D01*
G01*
G37*
G36*
G01*
X15217000Y18191000D02*
X15217000Y18491000D01*
G75*
G02*
X15367000Y18641000I150000J0D01*
G01*
X17017000Y18641000D01*
G75*
G02*
X17167000Y18491000I0J-150000D01*
G01*
X17167000Y18191000D01*
G75*
G02*
X17017000Y18041000I-150000J0D01*
G01*
X15367000Y18041000D01*
G75*
G02*
X15217000Y18191000I0J150000D01*
G01*
G37*
G36*
G01*
X20167000Y18191000D02*
X20167000Y18491000D01*
G75*
G02*
X20317000Y18641000I150000J0D01*
G01*
X21967000Y18641000D01*
G75*
G02*
X22117000Y18491000I0J-150000D01*
G01*
X22117000Y18191000D01*
G75*
G02*
X21967000Y18041000I-150000J0D01*
G01*
X20317000Y18041000D01*
G75*
G02*
X20167000Y18191000I0J150000D01*
G01*
G37*
G36*
G01*
X20167000Y19461000D02*
X20167000Y19761000D01*
G75*
G02*
X20317000Y19911000I150000J0D01*
G01*
X21967000Y19911000D01*
G75*
G02*
X22117000Y19761000I0J-150000D01*
G01*
X22117000Y19461000D01*
G75*
G02*
X21967000Y19311000I-150000J0D01*
G01*
X20317000Y19311000D01*
G75*
G02*
X20167000Y19461000I0J150000D01*
G01*
G37*
G36*
G01*
X20167000Y20731000D02*
X20167000Y21031000D01*
G75*
G02*
X20317000Y21181000I150000J0D01*
G01*
X21967000Y21181000D01*
G75*
G02*
X22117000Y21031000I0J-150000D01*
G01*
X22117000Y20731000D01*
G75*
G02*
X21967000Y20581000I-150000J0D01*
G01*
X20317000Y20581000D01*
G75*
G02*
X20167000Y20731000I0J150000D01*
G01*
G37*
G36*
G01*
X20167000Y22001000D02*
X20167000Y22301000D01*
G75*
G02*
X20317000Y22451000I150000J0D01*
G01*
X21967000Y22451000D01*
G75*
G02*
X22117000Y22301000I0J-150000D01*
G01*
X22117000Y22001000D01*
G75*
G02*
X21967000Y21851000I-150000J0D01*
G01*
X20317000Y21851000D01*
G75*
G02*
X20167000Y22001000I0J150000D01*
G01*
G37*
G36*
G01*
X17582000Y20648500D02*
X17582000Y21493500D01*
G75*
G02*
X17824500Y21736000I242500J0D01*
G01*
X18309500Y21736000D01*
G75*
G02*
X18552000Y21493500I0J-242500D01*
G01*
X18552000Y20648500D01*
G75*
G02*
X18309500Y20406000I-242500J0D01*
G01*
X17824500Y20406000D01*
G75*
G02*
X17582000Y20648500I0J242500D01*
G01*
G37*
G36*
G01*
X17582000Y18998500D02*
X17582000Y19843500D01*
G75*
G02*
X17824500Y20086000I242500J0D01*
G01*
X18309500Y20086000D01*
G75*
G02*
X18552000Y19843500I0J-242500D01*
G01*
X18552000Y18998500D01*
G75*
G02*
X18309500Y18756000I-242500J0D01*
G01*
X17824500Y18756000D01*
G75*
G02*
X17582000Y18998500I0J242500D01*
G01*
G37*
G36*
G01*
X18782000Y20648500D02*
X18782000Y21493500D01*
G75*
G02*
X19024500Y21736000I242500J0D01*
G01*
X19509500Y21736000D01*
G75*
G02*
X19752000Y21493500I0J-242500D01*
G01*
X19752000Y20648500D01*
G75*
G02*
X19509500Y20406000I-242500J0D01*
G01*
X19024500Y20406000D01*
G75*
G02*
X18782000Y20648500I0J242500D01*
G01*
G37*
G36*
G01*
X18782000Y18998500D02*
X18782000Y19843500D01*
G75*
G02*
X19024500Y20086000I242500J0D01*
G01*
X19509500Y20086000D01*
G75*
G02*
X19752000Y19843500I0J-242500D01*
G01*
X19752000Y18998500D01*
G75*
G02*
X19509500Y18756000I-242500J0D01*
G01*
X19024500Y18756000D01*
G75*
G02*
X18782000Y18998500I0J242500D01*
G01*
G37*
%TD*%
%TO.C,U2*%
G36*
G01*
X18108000Y2913000D02*
X18108000Y2763000D01*
G75*
G02*
X18033000Y2688000I-75000J0D01*
G01*
X16708000Y2688000D01*
G75*
G02*
X16633000Y2763000I0J75000D01*
G01*
X16633000Y2913000D01*
G75*
G02*
X16708000Y2988000I75000J0D01*
G01*
X18033000Y2988000D01*
G75*
G02*
X18108000Y2913000I0J-75000D01*
G01*
G37*
G36*
G01*
X18108000Y3413000D02*
X18108000Y3263000D01*
G75*
G02*
X18033000Y3188000I-75000J0D01*
G01*
X16708000Y3188000D01*
G75*
G02*
X16633000Y3263000I0J75000D01*
G01*
X16633000Y3413000D01*
G75*
G02*
X16708000Y3488000I75000J0D01*
G01*
X18033000Y3488000D01*
G75*
G02*
X18108000Y3413000I0J-75000D01*
G01*
G37*
G36*
G01*
X18108000Y3913000D02*
X18108000Y3763000D01*
G75*
G02*
X18033000Y3688000I-75000J0D01*
G01*
X16708000Y3688000D01*
G75*
G02*
X16633000Y3763000I0J75000D01*
G01*
X16633000Y3913000D01*
G75*
G02*
X16708000Y3988000I75000J0D01*
G01*
X18033000Y3988000D01*
G75*
G02*
X18108000Y3913000I0J-75000D01*
G01*
G37*
G36*
G01*
X18108000Y4413000D02*
X18108000Y4263000D01*
G75*
G02*
X18033000Y4188000I-75000J0D01*
G01*
X16708000Y4188000D01*
G75*
G02*
X16633000Y4263000I0J75000D01*
G01*
X16633000Y4413000D01*
G75*
G02*
X16708000Y4488000I75000J0D01*
G01*
X18033000Y4488000D01*
G75*
G02*
X18108000Y4413000I0J-75000D01*
G01*
G37*
G36*
G01*
X18108000Y4913000D02*
X18108000Y4763000D01*
G75*
G02*
X18033000Y4688000I-75000J0D01*
G01*
X16708000Y4688000D01*
G75*
G02*
X16633000Y4763000I0J75000D01*
G01*
X16633000Y4913000D01*
G75*
G02*
X16708000Y4988000I75000J0D01*
G01*
X18033000Y4988000D01*
G75*
G02*
X18108000Y4913000I0J-75000D01*
G01*
G37*
G36*
G01*
X18108000Y5413000D02*
X18108000Y5263000D01*
G75*
G02*
X18033000Y5188000I-75000J0D01*
G01*
X16708000Y5188000D01*
G75*
G02*
X16633000Y5263000I0J75000D01*
G01*
X16633000Y5413000D01*
G75*
G02*
X16708000Y5488000I75000J0D01*
G01*
X18033000Y5488000D01*
G75*
G02*
X18108000Y5413000I0J-75000D01*
G01*
G37*
G36*
G01*
X18108000Y5913000D02*
X18108000Y5763000D01*
G75*
G02*
X18033000Y5688000I-75000J0D01*
G01*
X16708000Y5688000D01*
G75*
G02*
X16633000Y5763000I0J75000D01*
G01*
X16633000Y5913000D01*
G75*
G02*
X16708000Y5988000I75000J0D01*
G01*
X18033000Y5988000D01*
G75*
G02*
X18108000Y5913000I0J-75000D01*
G01*
G37*
G36*
G01*
X18108000Y6413000D02*
X18108000Y6263000D01*
G75*
G02*
X18033000Y6188000I-75000J0D01*
G01*
X16708000Y6188000D01*
G75*
G02*
X16633000Y6263000I0J75000D01*
G01*
X16633000Y6413000D01*
G75*
G02*
X16708000Y6488000I75000J0D01*
G01*
X18033000Y6488000D01*
G75*
G02*
X18108000Y6413000I0J-75000D01*
G01*
G37*
G36*
G01*
X18108000Y6913000D02*
X18108000Y6763000D01*
G75*
G02*
X18033000Y6688000I-75000J0D01*
G01*
X16708000Y6688000D01*
G75*
G02*
X16633000Y6763000I0J75000D01*
G01*
X16633000Y6913000D01*
G75*
G02*
X16708000Y6988000I75000J0D01*
G01*
X18033000Y6988000D01*
G75*
G02*
X18108000Y6913000I0J-75000D01*
G01*
G37*
G36*
G01*
X18108000Y7413000D02*
X18108000Y7263000D01*
G75*
G02*
X18033000Y7188000I-75000J0D01*
G01*
X16708000Y7188000D01*
G75*
G02*
X16633000Y7263000I0J75000D01*
G01*
X16633000Y7413000D01*
G75*
G02*
X16708000Y7488000I75000J0D01*
G01*
X18033000Y7488000D01*
G75*
G02*
X18108000Y7413000I0J-75000D01*
G01*
G37*
G36*
G01*
X18108000Y7913000D02*
X18108000Y7763000D01*
G75*
G02*
X18033000Y7688000I-75000J0D01*
G01*
X16708000Y7688000D01*
G75*
G02*
X16633000Y7763000I0J75000D01*
G01*
X16633000Y7913000D01*
G75*
G02*
X16708000Y7988000I75000J0D01*
G01*
X18033000Y7988000D01*
G75*
G02*
X18108000Y7913000I0J-75000D01*
G01*
G37*
G36*
G01*
X18108000Y8413000D02*
X18108000Y8263000D01*
G75*
G02*
X18033000Y8188000I-75000J0D01*
G01*
X16708000Y8188000D01*
G75*
G02*
X16633000Y8263000I0J75000D01*
G01*
X16633000Y8413000D01*
G75*
G02*
X16708000Y8488000I75000J0D01*
G01*
X18033000Y8488000D01*
G75*
G02*
X18108000Y8413000I0J-75000D01*
G01*
G37*
G36*
G01*
X16108000Y10413000D02*
X16108000Y9088000D01*
G75*
G02*
X16033000Y9013000I-75000J0D01*
G01*
X15883000Y9013000D01*
G75*
G02*
X15808000Y9088000I0J75000D01*
G01*
X15808000Y10413000D01*
G75*
G02*
X15883000Y10488000I75000J0D01*
G01*
X16033000Y10488000D01*
G75*
G02*
X16108000Y10413000I0J-75000D01*
G01*
G37*
G36*
G01*
X15608000Y10413000D02*
X15608000Y9088000D01*
G75*
G02*
X15533000Y9013000I-75000J0D01*
G01*
X15383000Y9013000D01*
G75*
G02*
X15308000Y9088000I0J75000D01*
G01*
X15308000Y10413000D01*
G75*
G02*
X15383000Y10488000I75000J0D01*
G01*
X15533000Y10488000D01*
G75*
G02*
X15608000Y10413000I0J-75000D01*
G01*
G37*
G36*
G01*
X15108000Y10413000D02*
X15108000Y9088000D01*
G75*
G02*
X15033000Y9013000I-75000J0D01*
G01*
X14883000Y9013000D01*
G75*
G02*
X14808000Y9088000I0J75000D01*
G01*
X14808000Y10413000D01*
G75*
G02*
X14883000Y10488000I75000J0D01*
G01*
X15033000Y10488000D01*
G75*
G02*
X15108000Y10413000I0J-75000D01*
G01*
G37*
G36*
G01*
X14608000Y10413000D02*
X14608000Y9088000D01*
G75*
G02*
X14533000Y9013000I-75000J0D01*
G01*
X14383000Y9013000D01*
G75*
G02*
X14308000Y9088000I0J75000D01*
G01*
X14308000Y10413000D01*
G75*
G02*
X14383000Y10488000I75000J0D01*
G01*
X14533000Y10488000D01*
G75*
G02*
X14608000Y10413000I0J-75000D01*
G01*
G37*
G36*
G01*
X14108000Y10413000D02*
X14108000Y9088000D01*
G75*
G02*
X14033000Y9013000I-75000J0D01*
G01*
X13883000Y9013000D01*
G75*
G02*
X13808000Y9088000I0J75000D01*
G01*
X13808000Y10413000D01*
G75*
G02*
X13883000Y10488000I75000J0D01*
G01*
X14033000Y10488000D01*
G75*
G02*
X14108000Y10413000I0J-75000D01*
G01*
G37*
G36*
G01*
X13608000Y10413000D02*
X13608000Y9088000D01*
G75*
G02*
X13533000Y9013000I-75000J0D01*
G01*
X13383000Y9013000D01*
G75*
G02*
X13308000Y9088000I0J75000D01*
G01*
X13308000Y10413000D01*
G75*
G02*
X13383000Y10488000I75000J0D01*
G01*
X13533000Y10488000D01*
G75*
G02*
X13608000Y10413000I0J-75000D01*
G01*
G37*
G36*
G01*
X13108000Y10413000D02*
X13108000Y9088000D01*
G75*
G02*
X13033000Y9013000I-75000J0D01*
G01*
X12883000Y9013000D01*
G75*
G02*
X12808000Y9088000I0J75000D01*
G01*
X12808000Y10413000D01*
G75*
G02*
X12883000Y10488000I75000J0D01*
G01*
X13033000Y10488000D01*
G75*
G02*
X13108000Y10413000I0J-75000D01*
G01*
G37*
G36*
G01*
X12608000Y10413000D02*
X12608000Y9088000D01*
G75*
G02*
X12533000Y9013000I-75000J0D01*
G01*
X12383000Y9013000D01*
G75*
G02*
X12308000Y9088000I0J75000D01*
G01*
X12308000Y10413000D01*
G75*
G02*
X12383000Y10488000I75000J0D01*
G01*
X12533000Y10488000D01*
G75*
G02*
X12608000Y10413000I0J-75000D01*
G01*
G37*
G36*
G01*
X12108000Y10413000D02*
X12108000Y9088000D01*
G75*
G02*
X12033000Y9013000I-75000J0D01*
G01*
X11883000Y9013000D01*
G75*
G02*
X11808000Y9088000I0J75000D01*
G01*
X11808000Y10413000D01*
G75*
G02*
X11883000Y10488000I75000J0D01*
G01*
X12033000Y10488000D01*
G75*
G02*
X12108000Y10413000I0J-75000D01*
G01*
G37*
G36*
G01*
X11608000Y10413000D02*
X11608000Y9088000D01*
G75*
G02*
X11533000Y9013000I-75000J0D01*
G01*
X11383000Y9013000D01*
G75*
G02*
X11308000Y9088000I0J75000D01*
G01*
X11308000Y10413000D01*
G75*
G02*
X11383000Y10488000I75000J0D01*
G01*
X11533000Y10488000D01*
G75*
G02*
X11608000Y10413000I0J-75000D01*
G01*
G37*
G36*
G01*
X11108000Y10413000D02*
X11108000Y9088000D01*
G75*
G02*
X11033000Y9013000I-75000J0D01*
G01*
X10883000Y9013000D01*
G75*
G02*
X10808000Y9088000I0J75000D01*
G01*
X10808000Y10413000D01*
G75*
G02*
X10883000Y10488000I75000J0D01*
G01*
X11033000Y10488000D01*
G75*
G02*
X11108000Y10413000I0J-75000D01*
G01*
G37*
G36*
G01*
X10608000Y10413000D02*
X10608000Y9088000D01*
G75*
G02*
X10533000Y9013000I-75000J0D01*
G01*
X10383000Y9013000D01*
G75*
G02*
X10308000Y9088000I0J75000D01*
G01*
X10308000Y10413000D01*
G75*
G02*
X10383000Y10488000I75000J0D01*
G01*
X10533000Y10488000D01*
G75*
G02*
X10608000Y10413000I0J-75000D01*
G01*
G37*
G36*
G01*
X9783000Y8413000D02*
X9783000Y8263000D01*
G75*
G02*
X9708000Y8188000I-75000J0D01*
G01*
X8383000Y8188000D01*
G75*
G02*
X8308000Y8263000I0J75000D01*
G01*
X8308000Y8413000D01*
G75*
G02*
X8383000Y8488000I75000J0D01*
G01*
X9708000Y8488000D01*
G75*
G02*
X9783000Y8413000I0J-75000D01*
G01*
G37*
G36*
G01*
X9783000Y7913000D02*
X9783000Y7763000D01*
G75*
G02*
X9708000Y7688000I-75000J0D01*
G01*
X8383000Y7688000D01*
G75*
G02*
X8308000Y7763000I0J75000D01*
G01*
X8308000Y7913000D01*
G75*
G02*
X8383000Y7988000I75000J0D01*
G01*
X9708000Y7988000D01*
G75*
G02*
X9783000Y7913000I0J-75000D01*
G01*
G37*
G36*
G01*
X9783000Y7413000D02*
X9783000Y7263000D01*
G75*
G02*
X9708000Y7188000I-75000J0D01*
G01*
X8383000Y7188000D01*
G75*
G02*
X8308000Y7263000I0J75000D01*
G01*
X8308000Y7413000D01*
G75*
G02*
X8383000Y7488000I75000J0D01*
G01*
X9708000Y7488000D01*
G75*
G02*
X9783000Y7413000I0J-75000D01*
G01*
G37*
G36*
G01*
X9783000Y6913000D02*
X9783000Y6763000D01*
G75*
G02*
X9708000Y6688000I-75000J0D01*
G01*
X8383000Y6688000D01*
G75*
G02*
X8308000Y6763000I0J75000D01*
G01*
X8308000Y6913000D01*
G75*
G02*
X8383000Y6988000I75000J0D01*
G01*
X9708000Y6988000D01*
G75*
G02*
X9783000Y6913000I0J-75000D01*
G01*
G37*
G36*
G01*
X9783000Y6413000D02*
X9783000Y6263000D01*
G75*
G02*
X9708000Y6188000I-75000J0D01*
G01*
X8383000Y6188000D01*
G75*
G02*
X8308000Y6263000I0J75000D01*
G01*
X8308000Y6413000D01*
G75*
G02*
X8383000Y6488000I75000J0D01*
G01*
X9708000Y6488000D01*
G75*
G02*
X9783000Y6413000I0J-75000D01*
G01*
G37*
G36*
G01*
X9783000Y5913000D02*
X9783000Y5763000D01*
G75*
G02*
X9708000Y5688000I-75000J0D01*
G01*
X8383000Y5688000D01*
G75*
G02*
X8308000Y5763000I0J75000D01*
G01*
X8308000Y5913000D01*
G75*
G02*
X8383000Y5988000I75000J0D01*
G01*
X9708000Y5988000D01*
G75*
G02*
X9783000Y5913000I0J-75000D01*
G01*
G37*
G36*
G01*
X9783000Y5413000D02*
X9783000Y5263000D01*
G75*
G02*
X9708000Y5188000I-75000J0D01*
G01*
X8383000Y5188000D01*
G75*
G02*
X8308000Y5263000I0J75000D01*
G01*
X8308000Y5413000D01*
G75*
G02*
X8383000Y5488000I75000J0D01*
G01*
X9708000Y5488000D01*
G75*
G02*
X9783000Y5413000I0J-75000D01*
G01*
G37*
G36*
G01*
X9783000Y4913000D02*
X9783000Y4763000D01*
G75*
G02*
X9708000Y4688000I-75000J0D01*
G01*
X8383000Y4688000D01*
G75*
G02*
X8308000Y4763000I0J75000D01*
G01*
X8308000Y4913000D01*
G75*
G02*
X8383000Y4988000I75000J0D01*
G01*
X9708000Y4988000D01*
G75*
G02*
X9783000Y4913000I0J-75000D01*
G01*
G37*
G36*
G01*
X9783000Y4413000D02*
X9783000Y4263000D01*
G75*
G02*
X9708000Y4188000I-75000J0D01*
G01*
X8383000Y4188000D01*
G75*
G02*
X8308000Y4263000I0J75000D01*
G01*
X8308000Y4413000D01*
G75*
G02*
X8383000Y4488000I75000J0D01*
G01*
X9708000Y4488000D01*
G75*
G02*
X9783000Y4413000I0J-75000D01*
G01*
G37*
G36*
G01*
X9783000Y3913000D02*
X9783000Y3763000D01*
G75*
G02*
X9708000Y3688000I-75000J0D01*
G01*
X8383000Y3688000D01*
G75*
G02*
X8308000Y3763000I0J75000D01*
G01*
X8308000Y3913000D01*
G75*
G02*
X8383000Y3988000I75000J0D01*
G01*
X9708000Y3988000D01*
G75*
G02*
X9783000Y3913000I0J-75000D01*
G01*
G37*
G36*
G01*
X9783000Y3413000D02*
X9783000Y3263000D01*
G75*
G02*
X9708000Y3188000I-75000J0D01*
G01*
X8383000Y3188000D01*
G75*
G02*
X8308000Y3263000I0J75000D01*
G01*
X8308000Y3413000D01*
G75*
G02*
X8383000Y3488000I75000J0D01*
G01*
X9708000Y3488000D01*
G75*
G02*
X9783000Y3413000I0J-75000D01*
G01*
G37*
G36*
G01*
X9783000Y2913000D02*
X9783000Y2763000D01*
G75*
G02*
X9708000Y2688000I-75000J0D01*
G01*
X8383000Y2688000D01*
G75*
G02*
X8308000Y2763000I0J75000D01*
G01*
X8308000Y2913000D01*
G75*
G02*
X8383000Y2988000I75000J0D01*
G01*
X9708000Y2988000D01*
G75*
G02*
X9783000Y2913000I0J-75000D01*
G01*
G37*
G36*
G01*
X10608000Y2088000D02*
X10608000Y763000D01*
G75*
G02*
X10533000Y688000I-75000J0D01*
G01*
X10383000Y688000D01*
G75*
G02*
X10308000Y763000I0J75000D01*
G01*
X10308000Y2088000D01*
G75*
G02*
X10383000Y2163000I75000J0D01*
G01*
X10533000Y2163000D01*
G75*
G02*
X10608000Y2088000I0J-75000D01*
G01*
G37*
G36*
G01*
X11108000Y2088000D02*
X11108000Y763000D01*
G75*
G02*
X11033000Y688000I-75000J0D01*
G01*
X10883000Y688000D01*
G75*
G02*
X10808000Y763000I0J75000D01*
G01*
X10808000Y2088000D01*
G75*
G02*
X10883000Y2163000I75000J0D01*
G01*
X11033000Y2163000D01*
G75*
G02*
X11108000Y2088000I0J-75000D01*
G01*
G37*
G36*
G01*
X11608000Y2088000D02*
X11608000Y763000D01*
G75*
G02*
X11533000Y688000I-75000J0D01*
G01*
X11383000Y688000D01*
G75*
G02*
X11308000Y763000I0J75000D01*
G01*
X11308000Y2088000D01*
G75*
G02*
X11383000Y2163000I75000J0D01*
G01*
X11533000Y2163000D01*
G75*
G02*
X11608000Y2088000I0J-75000D01*
G01*
G37*
G36*
G01*
X12108000Y2088000D02*
X12108000Y763000D01*
G75*
G02*
X12033000Y688000I-75000J0D01*
G01*
X11883000Y688000D01*
G75*
G02*
X11808000Y763000I0J75000D01*
G01*
X11808000Y2088000D01*
G75*
G02*
X11883000Y2163000I75000J0D01*
G01*
X12033000Y2163000D01*
G75*
G02*
X12108000Y2088000I0J-75000D01*
G01*
G37*
G36*
G01*
X12608000Y2088000D02*
X12608000Y763000D01*
G75*
G02*
X12533000Y688000I-75000J0D01*
G01*
X12383000Y688000D01*
G75*
G02*
X12308000Y763000I0J75000D01*
G01*
X12308000Y2088000D01*
G75*
G02*
X12383000Y2163000I75000J0D01*
G01*
X12533000Y2163000D01*
G75*
G02*
X12608000Y2088000I0J-75000D01*
G01*
G37*
G36*
G01*
X13108000Y2088000D02*
X13108000Y763000D01*
G75*
G02*
X13033000Y688000I-75000J0D01*
G01*
X12883000Y688000D01*
G75*
G02*
X12808000Y763000I0J75000D01*
G01*
X12808000Y2088000D01*
G75*
G02*
X12883000Y2163000I75000J0D01*
G01*
X13033000Y2163000D01*
G75*
G02*
X13108000Y2088000I0J-75000D01*
G01*
G37*
G36*
G01*
X13608000Y2088000D02*
X13608000Y763000D01*
G75*
G02*
X13533000Y688000I-75000J0D01*
G01*
X13383000Y688000D01*
G75*
G02*
X13308000Y763000I0J75000D01*
G01*
X13308000Y2088000D01*
G75*
G02*
X13383000Y2163000I75000J0D01*
G01*
X13533000Y2163000D01*
G75*
G02*
X13608000Y2088000I0J-75000D01*
G01*
G37*
G36*
G01*
X14108000Y2088000D02*
X14108000Y763000D01*
G75*
G02*
X14033000Y688000I-75000J0D01*
G01*
X13883000Y688000D01*
G75*
G02*
X13808000Y763000I0J75000D01*
G01*
X13808000Y2088000D01*
G75*
G02*
X13883000Y2163000I75000J0D01*
G01*
X14033000Y2163000D01*
G75*
G02*
X14108000Y2088000I0J-75000D01*
G01*
G37*
G36*
G01*
X14608000Y2088000D02*
X14608000Y763000D01*
G75*
G02*
X14533000Y688000I-75000J0D01*
G01*
X14383000Y688000D01*
G75*
G02*
X14308000Y763000I0J75000D01*
G01*
X14308000Y2088000D01*
G75*
G02*
X14383000Y2163000I75000J0D01*
G01*
X14533000Y2163000D01*
G75*
G02*
X14608000Y2088000I0J-75000D01*
G01*
G37*
G36*
G01*
X15108000Y2088000D02*
X15108000Y763000D01*
G75*
G02*
X15033000Y688000I-75000J0D01*
G01*
X14883000Y688000D01*
G75*
G02*
X14808000Y763000I0J75000D01*
G01*
X14808000Y2088000D01*
G75*
G02*
X14883000Y2163000I75000J0D01*
G01*
X15033000Y2163000D01*
G75*
G02*
X15108000Y2088000I0J-75000D01*
G01*
G37*
G36*
G01*
X15608000Y2088000D02*
X15608000Y763000D01*
G75*
G02*
X15533000Y688000I-75000J0D01*
G01*
X15383000Y688000D01*
G75*
G02*
X15308000Y763000I0J75000D01*
G01*
X15308000Y2088000D01*
G75*
G02*
X15383000Y2163000I75000J0D01*
G01*
X15533000Y2163000D01*
G75*
G02*
X15608000Y2088000I0J-75000D01*
G01*
G37*
G36*
G01*
X16108000Y2088000D02*
X16108000Y763000D01*
G75*
G02*
X16033000Y688000I-75000J0D01*
G01*
X15883000Y688000D01*
G75*
G02*
X15808000Y763000I0J75000D01*
G01*
X15808000Y2088000D01*
G75*
G02*
X15883000Y2163000I75000J0D01*
G01*
X16033000Y2163000D01*
G75*
G02*
X16108000Y2088000I0J-75000D01*
G01*
G37*
%TD*%
%TO.C,SW3*%
G36*
G01*
X5362000Y9182000D02*
X5362000Y7582000D01*
G75*
G02*
X5162000Y7382000I-200000J0D01*
G01*
X4762000Y7382000D01*
G75*
G02*
X4562000Y7582000I0J200000D01*
G01*
X4562000Y9182000D01*
G75*
G02*
X4762000Y9382000I200000J0D01*
G01*
X5162000Y9382000D01*
G75*
G02*
X5362000Y9182000I0J-200000D01*
G01*
G37*
G36*
G01*
X1162000Y9182000D02*
X1162000Y7582000D01*
G75*
G02*
X962000Y7382000I-200000J0D01*
G01*
X562000Y7382000D01*
G75*
G02*
X362000Y7582000I0J200000D01*
G01*
X362000Y9182000D01*
G75*
G02*
X562000Y9382000I200000J0D01*
G01*
X962000Y9382000D01*
G75*
G02*
X1162000Y9182000I0J-200000D01*
G01*
G37*
%TD*%
%TO.C,SW2*%
G36*
G01*
X22646000Y7582000D02*
X22646000Y9182000D01*
G75*
G02*
X22846000Y9382000I200000J0D01*
G01*
X23246000Y9382000D01*
G75*
G02*
X23446000Y9182000I0J-200000D01*
G01*
X23446000Y7582000D01*
G75*
G02*
X23246000Y7382000I-200000J0D01*
G01*
X22846000Y7382000D01*
G75*
G02*
X22646000Y7582000I0J200000D01*
G01*
G37*
G36*
G01*
X26846000Y7582000D02*
X26846000Y9182000D01*
G75*
G02*
X27046000Y9382000I200000J0D01*
G01*
X27446000Y9382000D01*
G75*
G02*
X27646000Y9182000I0J-200000D01*
G01*
X27646000Y7582000D01*
G75*
G02*
X27446000Y7382000I-200000J0D01*
G01*
X27046000Y7382000D01*
G75*
G02*
X26846000Y7582000I0J200000D01*
G01*
G37*
%TD*%
%TO.C,R20*%
G36*
G01*
X8827000Y22778500D02*
X8827000Y22433500D01*
G75*
G02*
X8679500Y22286000I-147500J0D01*
G01*
X8384500Y22286000D01*
G75*
G02*
X8237000Y22433500I0J147500D01*
G01*
X8237000Y22778500D01*
G75*
G02*
X8384500Y22926000I147500J0D01*
G01*
X8679500Y22926000D01*
G75*
G02*
X8827000Y22778500I0J-147500D01*
G01*
G37*
G36*
G01*
X9797000Y22778500D02*
X9797000Y22433500D01*
G75*
G02*
X9649500Y22286000I-147500J0D01*
G01*
X9354500Y22286000D01*
G75*
G02*
X9207000Y22433500I0J147500D01*
G01*
X9207000Y22778500D01*
G75*
G02*
X9354500Y22926000I147500J0D01*
G01*
X9649500Y22926000D01*
G75*
G02*
X9797000Y22778500I0J-147500D01*
G01*
G37*
%TD*%
%TO.C,R19*%
G36*
G01*
X3601500Y11366000D02*
X3256500Y11366000D01*
G75*
G02*
X3109000Y11513500I0J147500D01*
G01*
X3109000Y11808500D01*
G75*
G02*
X3256500Y11956000I147500J0D01*
G01*
X3601500Y11956000D01*
G75*
G02*
X3749000Y11808500I0J-147500D01*
G01*
X3749000Y11513500D01*
G75*
G02*
X3601500Y11366000I-147500J0D01*
G01*
G37*
G36*
G01*
X3601500Y10396000D02*
X3256500Y10396000D01*
G75*
G02*
X3109000Y10543500I0J147500D01*
G01*
X3109000Y10838500D01*
G75*
G02*
X3256500Y10986000I147500J0D01*
G01*
X3601500Y10986000D01*
G75*
G02*
X3749000Y10838500I0J-147500D01*
G01*
X3749000Y10543500D01*
G75*
G02*
X3601500Y10396000I-147500J0D01*
G01*
G37*
%TD*%
%TO.C,R18*%
G36*
G01*
X10732000Y22778500D02*
X10732000Y22433500D01*
G75*
G02*
X10584500Y22286000I-147500J0D01*
G01*
X10289500Y22286000D01*
G75*
G02*
X10142000Y22433500I0J147500D01*
G01*
X10142000Y22778500D01*
G75*
G02*
X10289500Y22926000I147500J0D01*
G01*
X10584500Y22926000D01*
G75*
G02*
X10732000Y22778500I0J-147500D01*
G01*
G37*
G36*
G01*
X11702000Y22778500D02*
X11702000Y22433500D01*
G75*
G02*
X11554500Y22286000I-147500J0D01*
G01*
X11259500Y22286000D01*
G75*
G02*
X11112000Y22433500I0J147500D01*
G01*
X11112000Y22778500D01*
G75*
G02*
X11259500Y22926000I147500J0D01*
G01*
X11554500Y22926000D01*
G75*
G02*
X11702000Y22778500I0J-147500D01*
G01*
G37*
%TD*%
%TO.C,R17*%
G36*
G01*
X21654000Y11221500D02*
X21654000Y10876500D01*
G75*
G02*
X21506500Y10729000I-147500J0D01*
G01*
X21211500Y10729000D01*
G75*
G02*
X21064000Y10876500I0J147500D01*
G01*
X21064000Y11221500D01*
G75*
G02*
X21211500Y11369000I147500J0D01*
G01*
X21506500Y11369000D01*
G75*
G02*
X21654000Y11221500I0J-147500D01*
G01*
G37*
G36*
G01*
X22624000Y11221500D02*
X22624000Y10876500D01*
G75*
G02*
X22476500Y10729000I-147500J0D01*
G01*
X22181500Y10729000D01*
G75*
G02*
X22034000Y10876500I0J147500D01*
G01*
X22034000Y11221500D01*
G75*
G02*
X22181500Y11369000I147500J0D01*
G01*
X22476500Y11369000D01*
G75*
G02*
X22624000Y11221500I0J-147500D01*
G01*
G37*
%TD*%
%TO.C,R16*%
G36*
G01*
X21654000Y12110500D02*
X21654000Y11765500D01*
G75*
G02*
X21506500Y11618000I-147500J0D01*
G01*
X21211500Y11618000D01*
G75*
G02*
X21064000Y11765500I0J147500D01*
G01*
X21064000Y12110500D01*
G75*
G02*
X21211500Y12258000I147500J0D01*
G01*
X21506500Y12258000D01*
G75*
G02*
X21654000Y12110500I0J-147500D01*
G01*
G37*
G36*
G01*
X22624000Y12110500D02*
X22624000Y11765500D01*
G75*
G02*
X22476500Y11618000I-147500J0D01*
G01*
X22181500Y11618000D01*
G75*
G02*
X22034000Y11765500I0J147500D01*
G01*
X22034000Y12110500D01*
G75*
G02*
X22181500Y12258000I147500J0D01*
G01*
X22476500Y12258000D01*
G75*
G02*
X22624000Y12110500I0J-147500D01*
G01*
G37*
%TD*%
%TO.C,R15*%
G36*
G01*
X843500Y19241000D02*
X1188500Y19241000D01*
G75*
G02*
X1336000Y19093500I0J-147500D01*
G01*
X1336000Y18798500D01*
G75*
G02*
X1188500Y18651000I-147500J0D01*
G01*
X843500Y18651000D01*
G75*
G02*
X696000Y18798500I0J147500D01*
G01*
X696000Y19093500D01*
G75*
G02*
X843500Y19241000I147500J0D01*
G01*
G37*
G36*
G01*
X843500Y20211000D02*
X1188500Y20211000D01*
G75*
G02*
X1336000Y20063500I0J-147500D01*
G01*
X1336000Y19768500D01*
G75*
G02*
X1188500Y19621000I-147500J0D01*
G01*
X843500Y19621000D01*
G75*
G02*
X696000Y19768500I0J147500D01*
G01*
X696000Y20063500D01*
G75*
G02*
X843500Y20211000I147500J0D01*
G01*
G37*
%TD*%
%TO.C,R14*%
G36*
G01*
X843500Y21400000D02*
X1188500Y21400000D01*
G75*
G02*
X1336000Y21252500I0J-147500D01*
G01*
X1336000Y20957500D01*
G75*
G02*
X1188500Y20810000I-147500J0D01*
G01*
X843500Y20810000D01*
G75*
G02*
X696000Y20957500I0J147500D01*
G01*
X696000Y21252500D01*
G75*
G02*
X843500Y21400000I147500J0D01*
G01*
G37*
G36*
G01*
X843500Y22370000D02*
X1188500Y22370000D01*
G75*
G02*
X1336000Y22222500I0J-147500D01*
G01*
X1336000Y21927500D01*
G75*
G02*
X1188500Y21780000I-147500J0D01*
G01*
X843500Y21780000D01*
G75*
G02*
X696000Y21927500I0J147500D01*
G01*
X696000Y22222500D01*
G75*
G02*
X843500Y22370000I147500J0D01*
G01*
G37*
%TD*%
%TO.C,R13*%
G36*
G01*
X2731000Y16555500D02*
X2731000Y16210500D01*
G75*
G02*
X2583500Y16063000I-147500J0D01*
G01*
X2288500Y16063000D01*
G75*
G02*
X2141000Y16210500I0J147500D01*
G01*
X2141000Y16555500D01*
G75*
G02*
X2288500Y16703000I147500J0D01*
G01*
X2583500Y16703000D01*
G75*
G02*
X2731000Y16555500I0J-147500D01*
G01*
G37*
G36*
G01*
X3701000Y16555500D02*
X3701000Y16210500D01*
G75*
G02*
X3553500Y16063000I-147500J0D01*
G01*
X3258500Y16063000D01*
G75*
G02*
X3111000Y16210500I0J147500D01*
G01*
X3111000Y16555500D01*
G75*
G02*
X3258500Y16703000I147500J0D01*
G01*
X3553500Y16703000D01*
G75*
G02*
X3701000Y16555500I0J-147500D01*
G01*
G37*
%TD*%
%TO.C,R12*%
G36*
G01*
X17444500Y10350000D02*
X17099500Y10350000D01*
G75*
G02*
X16952000Y10497500I0J147500D01*
G01*
X16952000Y10792500D01*
G75*
G02*
X17099500Y10940000I147500J0D01*
G01*
X17444500Y10940000D01*
G75*
G02*
X17592000Y10792500I0J-147500D01*
G01*
X17592000Y10497500D01*
G75*
G02*
X17444500Y10350000I-147500J0D01*
G01*
G37*
G36*
G01*
X17444500Y9380000D02*
X17099500Y9380000D01*
G75*
G02*
X16952000Y9527500I0J147500D01*
G01*
X16952000Y9822500D01*
G75*
G02*
X17099500Y9970000I147500J0D01*
G01*
X17444500Y9970000D01*
G75*
G02*
X17592000Y9822500I0J-147500D01*
G01*
X17592000Y9527500D01*
G75*
G02*
X17444500Y9380000I-147500J0D01*
G01*
G37*
%TD*%
%TO.C,R11*%
G36*
G01*
X23951250Y16071000D02*
X23038750Y16071000D01*
G75*
G02*
X22795000Y16314750I0J243750D01*
G01*
X22795000Y16802250D01*
G75*
G02*
X23038750Y17046000I243750J0D01*
G01*
X23951250Y17046000D01*
G75*
G02*
X24195000Y16802250I0J-243750D01*
G01*
X24195000Y16314750D01*
G75*
G02*
X23951250Y16071000I-243750J0D01*
G01*
G37*
G36*
G01*
X23951250Y14196000D02*
X23038750Y14196000D01*
G75*
G02*
X22795000Y14439750I0J243750D01*
G01*
X22795000Y14927250D01*
G75*
G02*
X23038750Y15171000I243750J0D01*
G01*
X23951250Y15171000D01*
G75*
G02*
X24195000Y14927250I0J-243750D01*
G01*
X24195000Y14439750D01*
G75*
G02*
X23951250Y14196000I-243750J0D01*
G01*
G37*
%TD*%
%TO.C,R10*%
G36*
G01*
X23951250Y21786000D02*
X23038750Y21786000D01*
G75*
G02*
X22795000Y22029750I0J243750D01*
G01*
X22795000Y22517250D01*
G75*
G02*
X23038750Y22761000I243750J0D01*
G01*
X23951250Y22761000D01*
G75*
G02*
X24195000Y22517250I0J-243750D01*
G01*
X24195000Y22029750D01*
G75*
G02*
X23951250Y21786000I-243750J0D01*
G01*
G37*
G36*
G01*
X23951250Y19911000D02*
X23038750Y19911000D01*
G75*
G02*
X22795000Y20154750I0J243750D01*
G01*
X22795000Y20642250D01*
G75*
G02*
X23038750Y20886000I243750J0D01*
G01*
X23951250Y20886000D01*
G75*
G02*
X24195000Y20642250I0J-243750D01*
G01*
X24195000Y20154750D01*
G75*
G02*
X23951250Y19911000I-243750J0D01*
G01*
G37*
%TD*%
%TO.C,R9*%
G36*
G01*
X13271000Y14178500D02*
X13271000Y14523500D01*
G75*
G02*
X13418500Y14671000I147500J0D01*
G01*
X13713500Y14671000D01*
G75*
G02*
X13861000Y14523500I0J-147500D01*
G01*
X13861000Y14178500D01*
G75*
G02*
X13713500Y14031000I-147500J0D01*
G01*
X13418500Y14031000D01*
G75*
G02*
X13271000Y14178500I0J147500D01*
G01*
G37*
G36*
G01*
X12301000Y14178500D02*
X12301000Y14523500D01*
G75*
G02*
X12448500Y14671000I147500J0D01*
G01*
X12743500Y14671000D01*
G75*
G02*
X12891000Y14523500I0J-147500D01*
G01*
X12891000Y14178500D01*
G75*
G02*
X12743500Y14031000I-147500J0D01*
G01*
X12448500Y14031000D01*
G75*
G02*
X12301000Y14178500I0J147500D01*
G01*
G37*
%TD*%
%TO.C,R8*%
G36*
G01*
X13271000Y19004500D02*
X13271000Y19349500D01*
G75*
G02*
X13418500Y19497000I147500J0D01*
G01*
X13713500Y19497000D01*
G75*
G02*
X13861000Y19349500I0J-147500D01*
G01*
X13861000Y19004500D01*
G75*
G02*
X13713500Y18857000I-147500J0D01*
G01*
X13418500Y18857000D01*
G75*
G02*
X13271000Y19004500I0J147500D01*
G01*
G37*
G36*
G01*
X12301000Y19004500D02*
X12301000Y19349500D01*
G75*
G02*
X12448500Y19497000I147500J0D01*
G01*
X12743500Y19497000D01*
G75*
G02*
X12891000Y19349500I0J-147500D01*
G01*
X12891000Y19004500D01*
G75*
G02*
X12743500Y18857000I-147500J0D01*
G01*
X12448500Y18857000D01*
G75*
G02*
X12301000Y19004500I0J147500D01*
G01*
G37*
%TD*%
%TO.C,R7*%
G36*
G01*
X13271000Y16083500D02*
X13271000Y16428500D01*
G75*
G02*
X13418500Y16576000I147500J0D01*
G01*
X13713500Y16576000D01*
G75*
G02*
X13861000Y16428500I0J-147500D01*
G01*
X13861000Y16083500D01*
G75*
G02*
X13713500Y15936000I-147500J0D01*
G01*
X13418500Y15936000D01*
G75*
G02*
X13271000Y16083500I0J147500D01*
G01*
G37*
G36*
G01*
X12301000Y16083500D02*
X12301000Y16428500D01*
G75*
G02*
X12448500Y16576000I147500J0D01*
G01*
X12743500Y16576000D01*
G75*
G02*
X12891000Y16428500I0J-147500D01*
G01*
X12891000Y16083500D01*
G75*
G02*
X12743500Y15936000I-147500J0D01*
G01*
X12448500Y15936000D01*
G75*
G02*
X12301000Y16083500I0J147500D01*
G01*
G37*
%TD*%
%TO.C,R6*%
G36*
G01*
X13271000Y20782500D02*
X13271000Y21127500D01*
G75*
G02*
X13418500Y21275000I147500J0D01*
G01*
X13713500Y21275000D01*
G75*
G02*
X13861000Y21127500I0J-147500D01*
G01*
X13861000Y20782500D01*
G75*
G02*
X13713500Y20635000I-147500J0D01*
G01*
X13418500Y20635000D01*
G75*
G02*
X13271000Y20782500I0J147500D01*
G01*
G37*
G36*
G01*
X12301000Y20782500D02*
X12301000Y21127500D01*
G75*
G02*
X12448500Y21275000I147500J0D01*
G01*
X12743500Y21275000D01*
G75*
G02*
X12891000Y21127500I0J-147500D01*
G01*
X12891000Y20782500D01*
G75*
G02*
X12743500Y20635000I-147500J0D01*
G01*
X12448500Y20635000D01*
G75*
G02*
X12301000Y20782500I0J147500D01*
G01*
G37*
%TD*%
%TO.C,R5*%
G36*
G01*
X20954500Y9924000D02*
X20954500Y10269000D01*
G75*
G02*
X21102000Y10416500I147500J0D01*
G01*
X21397000Y10416500D01*
G75*
G02*
X21544500Y10269000I0J-147500D01*
G01*
X21544500Y9924000D01*
G75*
G02*
X21397000Y9776500I-147500J0D01*
G01*
X21102000Y9776500D01*
G75*
G02*
X20954500Y9924000I0J147500D01*
G01*
G37*
G36*
G01*
X19984500Y9924000D02*
X19984500Y10269000D01*
G75*
G02*
X20132000Y10416500I147500J0D01*
G01*
X20427000Y10416500D01*
G75*
G02*
X20574500Y10269000I0J-147500D01*
G01*
X20574500Y9924000D01*
G75*
G02*
X20427000Y9776500I-147500J0D01*
G01*
X20132000Y9776500D01*
G75*
G02*
X19984500Y9924000I0J147500D01*
G01*
G37*
%TD*%
%TO.C,R4*%
G36*
G01*
X17163000Y953000D02*
X17508000Y953000D01*
G75*
G02*
X17655500Y805500I0J-147500D01*
G01*
X17655500Y510500D01*
G75*
G02*
X17508000Y363000I-147500J0D01*
G01*
X17163000Y363000D01*
G75*
G02*
X17015500Y510500I0J147500D01*
G01*
X17015500Y805500D01*
G75*
G02*
X17163000Y953000I147500J0D01*
G01*
G37*
G36*
G01*
X17163000Y1923000D02*
X17508000Y1923000D01*
G75*
G02*
X17655500Y1775500I0J-147500D01*
G01*
X17655500Y1480500D01*
G75*
G02*
X17508000Y1333000I-147500J0D01*
G01*
X17163000Y1333000D01*
G75*
G02*
X17015500Y1480500I0J147500D01*
G01*
X17015500Y1775500D01*
G75*
G02*
X17163000Y1923000I147500J0D01*
G01*
G37*
%TD*%
%TO.C,R3*%
G36*
G01*
X20574500Y9316500D02*
X20574500Y8971500D01*
G75*
G02*
X20427000Y8824000I-147500J0D01*
G01*
X20132000Y8824000D01*
G75*
G02*
X19984500Y8971500I0J147500D01*
G01*
X19984500Y9316500D01*
G75*
G02*
X20132000Y9464000I147500J0D01*
G01*
X20427000Y9464000D01*
G75*
G02*
X20574500Y9316500I0J-147500D01*
G01*
G37*
G36*
G01*
X21544500Y9316500D02*
X21544500Y8971500D01*
G75*
G02*
X21397000Y8824000I-147500J0D01*
G01*
X21102000Y8824000D01*
G75*
G02*
X20954500Y8971500I0J147500D01*
G01*
X20954500Y9316500D01*
G75*
G02*
X21102000Y9464000I147500J0D01*
G01*
X21397000Y9464000D01*
G75*
G02*
X21544500Y9316500I0J-147500D01*
G01*
G37*
%TD*%
%TO.C,R2*%
G36*
G01*
X8953000Y11765500D02*
X8953000Y12110500D01*
G75*
G02*
X9100500Y12258000I147500J0D01*
G01*
X9395500Y12258000D01*
G75*
G02*
X9543000Y12110500I0J-147500D01*
G01*
X9543000Y11765500D01*
G75*
G02*
X9395500Y11618000I-147500J0D01*
G01*
X9100500Y11618000D01*
G75*
G02*
X8953000Y11765500I0J147500D01*
G01*
G37*
G36*
G01*
X7983000Y11765500D02*
X7983000Y12110500D01*
G75*
G02*
X8130500Y12258000I147500J0D01*
G01*
X8425500Y12258000D01*
G75*
G02*
X8573000Y12110500I0J-147500D01*
G01*
X8573000Y11765500D01*
G75*
G02*
X8425500Y11618000I-147500J0D01*
G01*
X8130500Y11618000D01*
G75*
G02*
X7983000Y11765500I0J147500D01*
G01*
G37*
%TD*%
%TO.C,R1*%
G36*
G01*
X8953000Y10559000D02*
X8953000Y10904000D01*
G75*
G02*
X9100500Y11051500I147500J0D01*
G01*
X9395500Y11051500D01*
G75*
G02*
X9543000Y10904000I0J-147500D01*
G01*
X9543000Y10559000D01*
G75*
G02*
X9395500Y10411500I-147500J0D01*
G01*
X9100500Y10411500D01*
G75*
G02*
X8953000Y10559000I0J147500D01*
G01*
G37*
G36*
G01*
X7983000Y10559000D02*
X7983000Y10904000D01*
G75*
G02*
X8130500Y11051500I147500J0D01*
G01*
X8425500Y11051500D01*
G75*
G02*
X8573000Y10904000I0J-147500D01*
G01*
X8573000Y10559000D01*
G75*
G02*
X8425500Y10411500I-147500J0D01*
G01*
X8130500Y10411500D01*
G75*
G02*
X7983000Y10559000I0J147500D01*
G01*
G37*
%TD*%
D13*
%TO.C,L1*%
X6223000Y14729000D03*
X6223000Y17529000D03*
%TD*%
%TO.C,D2*%
G36*
G01*
X6763500Y11681750D02*
X6763500Y12194250D01*
G75*
G02*
X6982250Y12413000I218750J0D01*
G01*
X7419750Y12413000D01*
G75*
G02*
X7638500Y12194250I0J-218750D01*
G01*
X7638500Y11681750D01*
G75*
G02*
X7419750Y11463000I-218750J0D01*
G01*
X6982250Y11463000D01*
G75*
G02*
X6763500Y11681750I0J218750D01*
G01*
G37*
G36*
G01*
X5188500Y11681750D02*
X5188500Y12194250D01*
G75*
G02*
X5407250Y12413000I218750J0D01*
G01*
X5844750Y12413000D01*
G75*
G02*
X6063500Y12194250I0J-218750D01*
G01*
X6063500Y11681750D01*
G75*
G02*
X5844750Y11463000I-218750J0D01*
G01*
X5407250Y11463000D01*
G75*
G02*
X5188500Y11681750I0J218750D01*
G01*
G37*
%TD*%
%TO.C,D1*%
G36*
G01*
X6763500Y10411750D02*
X6763500Y10924250D01*
G75*
G02*
X6982250Y11143000I218750J0D01*
G01*
X7419750Y11143000D01*
G75*
G02*
X7638500Y10924250I0J-218750D01*
G01*
X7638500Y10411750D01*
G75*
G02*
X7419750Y10193000I-218750J0D01*
G01*
X6982250Y10193000D01*
G75*
G02*
X6763500Y10411750I0J218750D01*
G01*
G37*
G36*
G01*
X5188500Y10411750D02*
X5188500Y10924250D01*
G75*
G02*
X5407250Y11143000I218750J0D01*
G01*
X5844750Y11143000D01*
G75*
G02*
X6063500Y10924250I0J-218750D01*
G01*
X6063500Y10411750D01*
G75*
G02*
X5844750Y10193000I-218750J0D01*
G01*
X5407250Y10193000D01*
G75*
G02*
X5188500Y10411750I0J218750D01*
G01*
G37*
%TD*%
%TO.C,C29*%
G36*
G01*
X4617500Y11366000D02*
X4272500Y11366000D01*
G75*
G02*
X4125000Y11513500I0J147500D01*
G01*
X4125000Y11808500D01*
G75*
G02*
X4272500Y11956000I147500J0D01*
G01*
X4617500Y11956000D01*
G75*
G02*
X4765000Y11808500I0J-147500D01*
G01*
X4765000Y11513500D01*
G75*
G02*
X4617500Y11366000I-147500J0D01*
G01*
G37*
G36*
G01*
X4617500Y10396000D02*
X4272500Y10396000D01*
G75*
G02*
X4125000Y10543500I0J147500D01*
G01*
X4125000Y10838500D01*
G75*
G02*
X4272500Y10986000I147500J0D01*
G01*
X4617500Y10986000D01*
G75*
G02*
X4765000Y10838500I0J-147500D01*
G01*
X4765000Y10543500D01*
G75*
G02*
X4617500Y10396000I-147500J0D01*
G01*
G37*
%TD*%
%TO.C,C28*%
G36*
G01*
X23195500Y11303500D02*
X23540500Y11303500D01*
G75*
G02*
X23688000Y11156000I0J-147500D01*
G01*
X23688000Y10861000D01*
G75*
G02*
X23540500Y10713500I-147500J0D01*
G01*
X23195500Y10713500D01*
G75*
G02*
X23048000Y10861000I0J147500D01*
G01*
X23048000Y11156000D01*
G75*
G02*
X23195500Y11303500I147500J0D01*
G01*
G37*
G36*
G01*
X23195500Y12273500D02*
X23540500Y12273500D01*
G75*
G02*
X23688000Y12126000I0J-147500D01*
G01*
X23688000Y11831000D01*
G75*
G02*
X23540500Y11683500I-147500J0D01*
G01*
X23195500Y11683500D01*
G75*
G02*
X23048000Y11831000I0J147500D01*
G01*
X23048000Y12126000D01*
G75*
G02*
X23195500Y12273500I147500J0D01*
G01*
G37*
%TD*%
%TO.C,C27*%
G36*
G01*
X2763000Y13459750D02*
X2763000Y13972250D01*
G75*
G02*
X2981750Y14191000I218750J0D01*
G01*
X3419250Y14191000D01*
G75*
G02*
X3638000Y13972250I0J-218750D01*
G01*
X3638000Y13459750D01*
G75*
G02*
X3419250Y13241000I-218750J0D01*
G01*
X2981750Y13241000D01*
G75*
G02*
X2763000Y13459750I0J218750D01*
G01*
G37*
G36*
G01*
X1188000Y13459750D02*
X1188000Y13972250D01*
G75*
G02*
X1406750Y14191000I218750J0D01*
G01*
X1844250Y14191000D01*
G75*
G02*
X2063000Y13972250I0J-218750D01*
G01*
X2063000Y13459750D01*
G75*
G02*
X1844250Y13241000I-218750J0D01*
G01*
X1406750Y13241000D01*
G75*
G02*
X1188000Y13459750I0J218750D01*
G01*
G37*
%TD*%
%TO.C,C26*%
G36*
G01*
X2763000Y14856750D02*
X2763000Y15369250D01*
G75*
G02*
X2981750Y15588000I218750J0D01*
G01*
X3419250Y15588000D01*
G75*
G02*
X3638000Y15369250I0J-218750D01*
G01*
X3638000Y14856750D01*
G75*
G02*
X3419250Y14638000I-218750J0D01*
G01*
X2981750Y14638000D01*
G75*
G02*
X2763000Y14856750I0J218750D01*
G01*
G37*
G36*
G01*
X1188000Y14856750D02*
X1188000Y15369250D01*
G75*
G02*
X1406750Y15588000I218750J0D01*
G01*
X1844250Y15588000D01*
G75*
G02*
X2063000Y15369250I0J-218750D01*
G01*
X2063000Y14856750D01*
G75*
G02*
X1844250Y14638000I-218750J0D01*
G01*
X1406750Y14638000D01*
G75*
G02*
X1188000Y14856750I0J218750D01*
G01*
G37*
%TD*%
%TO.C,C25*%
G36*
G01*
X2763000Y17396750D02*
X2763000Y17909250D01*
G75*
G02*
X2981750Y18128000I218750J0D01*
G01*
X3419250Y18128000D01*
G75*
G02*
X3638000Y17909250I0J-218750D01*
G01*
X3638000Y17396750D01*
G75*
G02*
X3419250Y17178000I-218750J0D01*
G01*
X2981750Y17178000D01*
G75*
G02*
X2763000Y17396750I0J218750D01*
G01*
G37*
G36*
G01*
X1188000Y17396750D02*
X1188000Y17909250D01*
G75*
G02*
X1406750Y18128000I218750J0D01*
G01*
X1844250Y18128000D01*
G75*
G02*
X2063000Y17909250I0J-218750D01*
G01*
X2063000Y17396750D01*
G75*
G02*
X1844250Y17178000I-218750J0D01*
G01*
X1406750Y17178000D01*
G75*
G02*
X1188000Y17396750I0J218750D01*
G01*
G37*
%TD*%
%TO.C,C24*%
G36*
G01*
X18333500Y10350000D02*
X17988500Y10350000D01*
G75*
G02*
X17841000Y10497500I0J147500D01*
G01*
X17841000Y10792500D01*
G75*
G02*
X17988500Y10940000I147500J0D01*
G01*
X18333500Y10940000D01*
G75*
G02*
X18481000Y10792500I0J-147500D01*
G01*
X18481000Y10497500D01*
G75*
G02*
X18333500Y10350000I-147500J0D01*
G01*
G37*
G36*
G01*
X18333500Y9380000D02*
X17988500Y9380000D01*
G75*
G02*
X17841000Y9527500I0J147500D01*
G01*
X17841000Y9822500D01*
G75*
G02*
X17988500Y9970000I147500J0D01*
G01*
X18333500Y9970000D01*
G75*
G02*
X18481000Y9822500I0J-147500D01*
G01*
X18481000Y9527500D01*
G75*
G02*
X18333500Y9380000I-147500J0D01*
G01*
G37*
%TD*%
%TO.C,C20*%
G36*
G01*
X23178000Y18460500D02*
X23178000Y18115500D01*
G75*
G02*
X23030500Y17968000I-147500J0D01*
G01*
X22735500Y17968000D01*
G75*
G02*
X22588000Y18115500I0J147500D01*
G01*
X22588000Y18460500D01*
G75*
G02*
X22735500Y18608000I147500J0D01*
G01*
X23030500Y18608000D01*
G75*
G02*
X23178000Y18460500I0J-147500D01*
G01*
G37*
G36*
G01*
X24148000Y18460500D02*
X24148000Y18115500D01*
G75*
G02*
X24000500Y17968000I-147500J0D01*
G01*
X23705500Y17968000D01*
G75*
G02*
X23558000Y18115500I0J147500D01*
G01*
X23558000Y18460500D01*
G75*
G02*
X23705500Y18608000I147500J0D01*
G01*
X24000500Y18608000D01*
G75*
G02*
X24148000Y18460500I0J-147500D01*
G01*
G37*
%TD*%
%TO.C,C19*%
G36*
G01*
X23178000Y12999500D02*
X23178000Y12654500D01*
G75*
G02*
X23030500Y12507000I-147500J0D01*
G01*
X22735500Y12507000D01*
G75*
G02*
X22588000Y12654500I0J147500D01*
G01*
X22588000Y12999500D01*
G75*
G02*
X22735500Y13147000I147500J0D01*
G01*
X23030500Y13147000D01*
G75*
G02*
X23178000Y12999500I0J-147500D01*
G01*
G37*
G36*
G01*
X24148000Y12999500D02*
X24148000Y12654500D01*
G75*
G02*
X24000500Y12507000I-147500J0D01*
G01*
X23705500Y12507000D01*
G75*
G02*
X23558000Y12654500I0J147500D01*
G01*
X23558000Y12999500D01*
G75*
G02*
X23705500Y13147000I147500J0D01*
G01*
X24000500Y13147000D01*
G75*
G02*
X24148000Y12999500I0J-147500D01*
G01*
G37*
%TD*%
%TO.C,C16*%
G36*
G01*
X13271000Y13289500D02*
X13271000Y13634500D01*
G75*
G02*
X13418500Y13782000I147500J0D01*
G01*
X13713500Y13782000D01*
G75*
G02*
X13861000Y13634500I0J-147500D01*
G01*
X13861000Y13289500D01*
G75*
G02*
X13713500Y13142000I-147500J0D01*
G01*
X13418500Y13142000D01*
G75*
G02*
X13271000Y13289500I0J147500D01*
G01*
G37*
G36*
G01*
X12301000Y13289500D02*
X12301000Y13634500D01*
G75*
G02*
X12448500Y13782000I147500J0D01*
G01*
X12743500Y13782000D01*
G75*
G02*
X12891000Y13634500I0J-147500D01*
G01*
X12891000Y13289500D01*
G75*
G02*
X12743500Y13142000I-147500J0D01*
G01*
X12448500Y13142000D01*
G75*
G02*
X12301000Y13289500I0J147500D01*
G01*
G37*
%TD*%
%TO.C,C15*%
G36*
G01*
X13271000Y18115500D02*
X13271000Y18460500D01*
G75*
G02*
X13418500Y18608000I147500J0D01*
G01*
X13713500Y18608000D01*
G75*
G02*
X13861000Y18460500I0J-147500D01*
G01*
X13861000Y18115500D01*
G75*
G02*
X13713500Y17968000I-147500J0D01*
G01*
X13418500Y17968000D01*
G75*
G02*
X13271000Y18115500I0J147500D01*
G01*
G37*
G36*
G01*
X12301000Y18115500D02*
X12301000Y18460500D01*
G75*
G02*
X12448500Y18608000I147500J0D01*
G01*
X12743500Y18608000D01*
G75*
G02*
X12891000Y18460500I0J-147500D01*
G01*
X12891000Y18115500D01*
G75*
G02*
X12743500Y17968000I-147500J0D01*
G01*
X12448500Y17968000D01*
G75*
G02*
X12301000Y18115500I0J147500D01*
G01*
G37*
%TD*%
%TO.C,C12*%
G36*
G01*
X13271000Y15194500D02*
X13271000Y15539500D01*
G75*
G02*
X13418500Y15687000I147500J0D01*
G01*
X13713500Y15687000D01*
G75*
G02*
X13861000Y15539500I0J-147500D01*
G01*
X13861000Y15194500D01*
G75*
G02*
X13713500Y15047000I-147500J0D01*
G01*
X13418500Y15047000D01*
G75*
G02*
X13271000Y15194500I0J147500D01*
G01*
G37*
G36*
G01*
X12301000Y15194500D02*
X12301000Y15539500D01*
G75*
G02*
X12448500Y15687000I147500J0D01*
G01*
X12743500Y15687000D01*
G75*
G02*
X12891000Y15539500I0J-147500D01*
G01*
X12891000Y15194500D01*
G75*
G02*
X12743500Y15047000I-147500J0D01*
G01*
X12448500Y15047000D01*
G75*
G02*
X12301000Y15194500I0J147500D01*
G01*
G37*
%TD*%
%TO.C,C11*%
G36*
G01*
X13271000Y19893500D02*
X13271000Y20238500D01*
G75*
G02*
X13418500Y20386000I147500J0D01*
G01*
X13713500Y20386000D01*
G75*
G02*
X13861000Y20238500I0J-147500D01*
G01*
X13861000Y19893500D01*
G75*
G02*
X13713500Y19746000I-147500J0D01*
G01*
X13418500Y19746000D01*
G75*
G02*
X13271000Y19893500I0J147500D01*
G01*
G37*
G36*
G01*
X12301000Y19893500D02*
X12301000Y20238500D01*
G75*
G02*
X12448500Y20386000I147500J0D01*
G01*
X12743500Y20386000D01*
G75*
G02*
X12891000Y20238500I0J-147500D01*
G01*
X12891000Y19893500D01*
G75*
G02*
X12743500Y19746000I-147500J0D01*
G01*
X12448500Y19746000D01*
G75*
G02*
X12301000Y19893500I0J147500D01*
G01*
G37*
%TD*%
%TO.C,C10*%
G36*
G01*
X10241500Y17526500D02*
X10586500Y17526500D01*
G75*
G02*
X10734000Y17379000I0J-147500D01*
G01*
X10734000Y17084000D01*
G75*
G02*
X10586500Y16936500I-147500J0D01*
G01*
X10241500Y16936500D01*
G75*
G02*
X10094000Y17084000I0J147500D01*
G01*
X10094000Y17379000D01*
G75*
G02*
X10241500Y17526500I147500J0D01*
G01*
G37*
G36*
G01*
X10241500Y18496500D02*
X10586500Y18496500D01*
G75*
G02*
X10734000Y18349000I0J-147500D01*
G01*
X10734000Y18054000D01*
G75*
G02*
X10586500Y17906500I-147500J0D01*
G01*
X10241500Y17906500D01*
G75*
G02*
X10094000Y18054000I0J147500D01*
G01*
X10094000Y18349000D01*
G75*
G02*
X10241500Y18496500I147500J0D01*
G01*
G37*
%TD*%
%TO.C,C9*%
G36*
G01*
X18524000Y1333000D02*
X18179000Y1333000D01*
G75*
G02*
X18031500Y1480500I0J147500D01*
G01*
X18031500Y1775500D01*
G75*
G02*
X18179000Y1923000I147500J0D01*
G01*
X18524000Y1923000D01*
G75*
G02*
X18671500Y1775500I0J-147500D01*
G01*
X18671500Y1480500D01*
G75*
G02*
X18524000Y1333000I-147500J0D01*
G01*
G37*
G36*
G01*
X18524000Y363000D02*
X18179000Y363000D01*
G75*
G02*
X18031500Y510500I0J147500D01*
G01*
X18031500Y805500D01*
G75*
G02*
X18179000Y953000I147500J0D01*
G01*
X18524000Y953000D01*
G75*
G02*
X18671500Y805500I0J-147500D01*
G01*
X18671500Y510500D01*
G75*
G02*
X18524000Y363000I-147500J0D01*
G01*
G37*
%TD*%
%TO.C,C8*%
G36*
G01*
X19476500Y9842000D02*
X19131500Y9842000D01*
G75*
G02*
X18984000Y9989500I0J147500D01*
G01*
X18984000Y10284500D01*
G75*
G02*
X19131500Y10432000I147500J0D01*
G01*
X19476500Y10432000D01*
G75*
G02*
X19624000Y10284500I0J-147500D01*
G01*
X19624000Y9989500D01*
G75*
G02*
X19476500Y9842000I-147500J0D01*
G01*
G37*
G36*
G01*
X19476500Y8872000D02*
X19131500Y8872000D01*
G75*
G02*
X18984000Y9019500I0J147500D01*
G01*
X18984000Y9314500D01*
G75*
G02*
X19131500Y9462000I147500J0D01*
G01*
X19476500Y9462000D01*
G75*
G02*
X19624000Y9314500I0J-147500D01*
G01*
X19624000Y9019500D01*
G75*
G02*
X19476500Y8872000I-147500J0D01*
G01*
G37*
%TD*%
%TO.C,C7*%
G36*
G01*
X19476500Y1333000D02*
X19131500Y1333000D01*
G75*
G02*
X18984000Y1480500I0J147500D01*
G01*
X18984000Y1775500D01*
G75*
G02*
X19131500Y1923000I147500J0D01*
G01*
X19476500Y1923000D01*
G75*
G02*
X19624000Y1775500I0J-147500D01*
G01*
X19624000Y1480500D01*
G75*
G02*
X19476500Y1333000I-147500J0D01*
G01*
G37*
G36*
G01*
X19476500Y363000D02*
X19131500Y363000D01*
G75*
G02*
X18984000Y510500I0J147500D01*
G01*
X18984000Y805500D01*
G75*
G02*
X19131500Y953000I147500J0D01*
G01*
X19476500Y953000D01*
G75*
G02*
X19624000Y805500I0J-147500D01*
G01*
X19624000Y510500D01*
G75*
G02*
X19476500Y363000I-147500J0D01*
G01*
G37*
%TD*%
%TO.C,C6*%
G36*
G01*
X6349500Y2304000D02*
X6349500Y2649000D01*
G75*
G02*
X6497000Y2796500I147500J0D01*
G01*
X6792000Y2796500D01*
G75*
G02*
X6939500Y2649000I0J-147500D01*
G01*
X6939500Y2304000D01*
G75*
G02*
X6792000Y2156500I-147500J0D01*
G01*
X6497000Y2156500D01*
G75*
G02*
X6349500Y2304000I0J147500D01*
G01*
G37*
G36*
G01*
X5379500Y2304000D02*
X5379500Y2649000D01*
G75*
G02*
X5527000Y2796500I147500J0D01*
G01*
X5822000Y2796500D01*
G75*
G02*
X5969500Y2649000I0J-147500D01*
G01*
X5969500Y2304000D01*
G75*
G02*
X5822000Y2156500I-147500J0D01*
G01*
X5527000Y2156500D01*
G75*
G02*
X5379500Y2304000I0J147500D01*
G01*
G37*
%TD*%
%TO.C,C5*%
G36*
G01*
X6921000Y8971500D02*
X6921000Y9316500D01*
G75*
G02*
X7068500Y9464000I147500J0D01*
G01*
X7363500Y9464000D01*
G75*
G02*
X7511000Y9316500I0J-147500D01*
G01*
X7511000Y8971500D01*
G75*
G02*
X7363500Y8824000I-147500J0D01*
G01*
X7068500Y8824000D01*
G75*
G02*
X6921000Y8971500I0J147500D01*
G01*
G37*
G36*
G01*
X5951000Y8971500D02*
X5951000Y9316500D01*
G75*
G02*
X6098500Y9464000I147500J0D01*
G01*
X6393500Y9464000D01*
G75*
G02*
X6541000Y9316500I0J-147500D01*
G01*
X6541000Y8971500D01*
G75*
G02*
X6393500Y8824000I-147500J0D01*
G01*
X6098500Y8824000D01*
G75*
G02*
X5951000Y8971500I0J147500D01*
G01*
G37*
%TD*%
%TO.C,C4*%
G36*
G01*
X1823500Y11366000D02*
X1478500Y11366000D01*
G75*
G02*
X1331000Y11513500I0J147500D01*
G01*
X1331000Y11808500D01*
G75*
G02*
X1478500Y11956000I147500J0D01*
G01*
X1823500Y11956000D01*
G75*
G02*
X1971000Y11808500I0J-147500D01*
G01*
X1971000Y11513500D01*
G75*
G02*
X1823500Y11366000I-147500J0D01*
G01*
G37*
G36*
G01*
X1823500Y10396000D02*
X1478500Y10396000D01*
G75*
G02*
X1331000Y10543500I0J147500D01*
G01*
X1331000Y10838500D01*
G75*
G02*
X1478500Y10986000I147500J0D01*
G01*
X1823500Y10986000D01*
G75*
G02*
X1971000Y10838500I0J-147500D01*
G01*
X1971000Y10543500D01*
G75*
G02*
X1823500Y10396000I-147500J0D01*
G01*
G37*
%TD*%
%TO.C,C3*%
G36*
G01*
X20574500Y8427500D02*
X20574500Y8082500D01*
G75*
G02*
X20427000Y7935000I-147500J0D01*
G01*
X20132000Y7935000D01*
G75*
G02*
X19984500Y8082500I0J147500D01*
G01*
X19984500Y8427500D01*
G75*
G02*
X20132000Y8575000I147500J0D01*
G01*
X20427000Y8575000D01*
G75*
G02*
X20574500Y8427500I0J-147500D01*
G01*
G37*
G36*
G01*
X21544500Y8427500D02*
X21544500Y8082500D01*
G75*
G02*
X21397000Y7935000I-147500J0D01*
G01*
X21102000Y7935000D01*
G75*
G02*
X20954500Y8082500I0J147500D01*
G01*
X20954500Y8427500D01*
G75*
G02*
X21102000Y8575000I147500J0D01*
G01*
X21397000Y8575000D01*
G75*
G02*
X21544500Y8427500I0J-147500D01*
G01*
G37*
%TD*%
%TO.C,C2*%
G36*
G01*
X20511000Y2331500D02*
X20511000Y1986500D01*
G75*
G02*
X20363500Y1839000I-147500J0D01*
G01*
X20068500Y1839000D01*
G75*
G02*
X19921000Y1986500I0J147500D01*
G01*
X19921000Y2331500D01*
G75*
G02*
X20068500Y2479000I147500J0D01*
G01*
X20363500Y2479000D01*
G75*
G02*
X20511000Y2331500I0J-147500D01*
G01*
G37*
G36*
G01*
X21481000Y2331500D02*
X21481000Y1986500D01*
G75*
G02*
X21333500Y1839000I-147500J0D01*
G01*
X21038500Y1839000D01*
G75*
G02*
X20891000Y1986500I0J147500D01*
G01*
X20891000Y2331500D01*
G75*
G02*
X21038500Y2479000I147500J0D01*
G01*
X21333500Y2479000D01*
G75*
G02*
X21481000Y2331500I0J-147500D01*
G01*
G37*
%TD*%
%TO.C,C1*%
G36*
G01*
X20954500Y7003000D02*
X20954500Y7348000D01*
G75*
G02*
X21102000Y7495500I147500J0D01*
G01*
X21397000Y7495500D01*
G75*
G02*
X21544500Y7348000I0J-147500D01*
G01*
X21544500Y7003000D01*
G75*
G02*
X21397000Y6855500I-147500J0D01*
G01*
X21102000Y6855500D01*
G75*
G02*
X20954500Y7003000I0J147500D01*
G01*
G37*
G36*
G01*
X19984500Y7003000D02*
X19984500Y7348000D01*
G75*
G02*
X20132000Y7495500I147500J0D01*
G01*
X20427000Y7495500D01*
G75*
G02*
X20574500Y7348000I0J-147500D01*
G01*
X20574500Y7003000D01*
G75*
G02*
X20427000Y6855500I-147500J0D01*
G01*
X20132000Y6855500D01*
G75*
G02*
X19984500Y7003000I0J147500D01*
G01*
G37*
%TD*%
M02*
