%TF.GenerationSoftware,KiCad,Pcbnew,(5.1.6)-1*%
%TF.CreationDate,2023-12-18T11:35:21+08:00*%
%TF.ProjectId,stepper_motor,73746570-7065-4725-9f6d-6f746f722e6b,1*%
%TF.SameCoordinates,PX6979f40PYa1135a0*%
%TF.FileFunction,Copper,L2,Bot*%
%TF.FilePolarity,Positive*%
%FSLAX46Y46*%
G04 Gerber Fmt 4.6, Leading zero omitted, Abs format (unit mm)*
G04 Created by KiCad (PCBNEW (5.1.6)-1) date 2023-12-18 11:35:21*
%MOMM*%
%LPD*%
G01*
G04 APERTURE LIST*
%TA.AperFunction,ComponentPad*%
%ADD10O,1.000000X1.000000*%
%TD*%
%TA.AperFunction,ComponentPad*%
%ADD11R,1.000000X1.000000*%
%TD*%
%TA.AperFunction,ComponentPad*%
%ADD12C,4.600000*%
%TD*%
%TA.AperFunction,ComponentPad*%
%ADD13C,0.800000*%
%TD*%
%TA.AperFunction,ComponentPad*%
%ADD14O,1.350000X1.350000*%
%TD*%
%TA.AperFunction,ComponentPad*%
%ADD15R,1.350000X1.350000*%
%TD*%
%TA.AperFunction,ComponentPad*%
%ADD16O,1.200000X1.750000*%
%TD*%
%TA.AperFunction,ViaPad*%
%ADD17C,0.450000*%
%TD*%
%TA.AperFunction,ViaPad*%
%ADD18C,0.550000*%
%TD*%
%TA.AperFunction,Conductor*%
%ADD19C,0.200000*%
%TD*%
%TA.AperFunction,Conductor*%
%ADD20C,0.254000*%
%TD*%
%TA.AperFunction,Conductor*%
%ADD21C,0.300000*%
%TD*%
%TA.AperFunction,Conductor*%
%ADD22C,0.400000*%
%TD*%
%TA.AperFunction,Conductor*%
%ADD23C,0.025400*%
%TD*%
%ADD24C,0.300000*%
%ADD25C,0.350000*%
G04 APERTURE END LIST*
D10*
%TO.P,J2,4*%
%TO.N,GND*%
X5461000Y1270000D03*
%TO.P,J2,3*%
%TO.N,VCC*%
X6731000Y1270000D03*
%TO.P,J2,2*%
%TO.N,SWDIO*%
X8001000Y1270000D03*
D11*
%TO.P,J2,1*%
%TO.N,SWCLK*%
X9271000Y1270000D03*
%TD*%
D12*
%TO.P,H4,1*%
%TO.N,GND*%
X2500000Y2500000D03*
D13*
X4375000Y2500000D03*
X3825825Y1174175D03*
X2500000Y625000D03*
X1174175Y1174175D03*
X625000Y2500000D03*
X1174175Y3825825D03*
X2500000Y4375000D03*
X3825825Y3825825D03*
%TD*%
D12*
%TO.P,H3,1*%
%TO.N,GND*%
X25500000Y25500000D03*
D13*
X27375000Y25500000D03*
X26825825Y24174175D03*
X25500000Y23625000D03*
X24174175Y24174175D03*
X23625000Y25500000D03*
X24174175Y26825825D03*
X25500000Y27375000D03*
X26825825Y26825825D03*
%TD*%
D12*
%TO.P,H2,1*%
%TO.N,GND*%
X2500000Y25500000D03*
D13*
X4375000Y25500000D03*
X3825825Y24174175D03*
X2500000Y23625000D03*
X1174175Y24174175D03*
X625000Y25500000D03*
X1174175Y26825825D03*
X2500000Y27375000D03*
X3825825Y26825825D03*
%TD*%
D12*
%TO.P,H1,1*%
%TO.N,GND*%
X25500000Y2500000D03*
D13*
X27375000Y2500000D03*
X26825825Y1174175D03*
X25500000Y625000D03*
X24174175Y1174175D03*
X23625000Y2500000D03*
X24174175Y3825825D03*
X25500000Y4375000D03*
X26825825Y3825825D03*
%TD*%
%TO.P,U6,8*%
%TO.N,VCC*%
%TA.AperFunction,SMDPad,CuDef*%
G36*
G01*
X5103000Y10263000D02*
X4803000Y10263000D01*
G75*
G02*
X4653000Y10413000I0J150000D01*
G01*
X4653000Y12063000D01*
G75*
G02*
X4803000Y12213000I150000J0D01*
G01*
X5103000Y12213000D01*
G75*
G02*
X5253000Y12063000I0J-150000D01*
G01*
X5253000Y10413000D01*
G75*
G02*
X5103000Y10263000I-150000J0D01*
G01*
G37*
%TD.AperFunction*%
%TO.P,U6,7*%
%TO.N,/RS485/RS485_B*%
%TA.AperFunction,SMDPad,CuDef*%
G36*
G01*
X3833000Y10263000D02*
X3533000Y10263000D01*
G75*
G02*
X3383000Y10413000I0J150000D01*
G01*
X3383000Y12063000D01*
G75*
G02*
X3533000Y12213000I150000J0D01*
G01*
X3833000Y12213000D01*
G75*
G02*
X3983000Y12063000I0J-150000D01*
G01*
X3983000Y10413000D01*
G75*
G02*
X3833000Y10263000I-150000J0D01*
G01*
G37*
%TD.AperFunction*%
%TO.P,U6,6*%
%TO.N,/RS485/RS485_A*%
%TA.AperFunction,SMDPad,CuDef*%
G36*
G01*
X2563000Y10263000D02*
X2263000Y10263000D01*
G75*
G02*
X2113000Y10413000I0J150000D01*
G01*
X2113000Y12063000D01*
G75*
G02*
X2263000Y12213000I150000J0D01*
G01*
X2563000Y12213000D01*
G75*
G02*
X2713000Y12063000I0J-150000D01*
G01*
X2713000Y10413000D01*
G75*
G02*
X2563000Y10263000I-150000J0D01*
G01*
G37*
%TD.AperFunction*%
%TO.P,U6,5*%
%TO.N,GND*%
%TA.AperFunction,SMDPad,CuDef*%
G36*
G01*
X1293000Y10263000D02*
X993000Y10263000D01*
G75*
G02*
X843000Y10413000I0J150000D01*
G01*
X843000Y12063000D01*
G75*
G02*
X993000Y12213000I150000J0D01*
G01*
X1293000Y12213000D01*
G75*
G02*
X1443000Y12063000I0J-150000D01*
G01*
X1443000Y10413000D01*
G75*
G02*
X1293000Y10263000I-150000J0D01*
G01*
G37*
%TD.AperFunction*%
%TO.P,U6,4*%
%TO.N,/UART1_TX*%
%TA.AperFunction,SMDPad,CuDef*%
G36*
G01*
X1293000Y5313000D02*
X993000Y5313000D01*
G75*
G02*
X843000Y5463000I0J150000D01*
G01*
X843000Y7113000D01*
G75*
G02*
X993000Y7263000I150000J0D01*
G01*
X1293000Y7263000D01*
G75*
G02*
X1443000Y7113000I0J-150000D01*
G01*
X1443000Y5463000D01*
G75*
G02*
X1293000Y5313000I-150000J0D01*
G01*
G37*
%TD.AperFunction*%
%TO.P,U6,3*%
%TO.N,/485_RE*%
%TA.AperFunction,SMDPad,CuDef*%
G36*
G01*
X2563000Y5313000D02*
X2263000Y5313000D01*
G75*
G02*
X2113000Y5463000I0J150000D01*
G01*
X2113000Y7113000D01*
G75*
G02*
X2263000Y7263000I150000J0D01*
G01*
X2563000Y7263000D01*
G75*
G02*
X2713000Y7113000I0J-150000D01*
G01*
X2713000Y5463000D01*
G75*
G02*
X2563000Y5313000I-150000J0D01*
G01*
G37*
%TD.AperFunction*%
%TO.P,U6,2*%
%TA.AperFunction,SMDPad,CuDef*%
G36*
G01*
X3833000Y5313000D02*
X3533000Y5313000D01*
G75*
G02*
X3383000Y5463000I0J150000D01*
G01*
X3383000Y7113000D01*
G75*
G02*
X3533000Y7263000I150000J0D01*
G01*
X3833000Y7263000D01*
G75*
G02*
X3983000Y7113000I0J-150000D01*
G01*
X3983000Y5463000D01*
G75*
G02*
X3833000Y5313000I-150000J0D01*
G01*
G37*
%TD.AperFunction*%
%TO.P,U6,1*%
%TO.N,/UART1_RX*%
%TA.AperFunction,SMDPad,CuDef*%
G36*
G01*
X5103000Y5313000D02*
X4803000Y5313000D01*
G75*
G02*
X4653000Y5463000I0J150000D01*
G01*
X4653000Y7113000D01*
G75*
G02*
X4803000Y7263000I150000J0D01*
G01*
X5103000Y7263000D01*
G75*
G02*
X5253000Y7113000I0J-150000D01*
G01*
X5253000Y5463000D01*
G75*
G02*
X5103000Y5313000I-150000J0D01*
G01*
G37*
%TD.AperFunction*%
%TD*%
%TO.P,U1,1*%
%TO.N,/MT6816_CS*%
%TA.AperFunction,SMDPad,CuDef*%
G36*
G01*
X10550000Y11945000D02*
X10550000Y12245000D01*
G75*
G02*
X10700000Y12395000I150000J0D01*
G01*
X12350000Y12395000D01*
G75*
G02*
X12500000Y12245000I0J-150000D01*
G01*
X12500000Y11945000D01*
G75*
G02*
X12350000Y11795000I-150000J0D01*
G01*
X10700000Y11795000D01*
G75*
G02*
X10550000Y11945000I0J150000D01*
G01*
G37*
%TD.AperFunction*%
%TO.P,U1,2*%
%TO.N,VCC*%
%TA.AperFunction,SMDPad,CuDef*%
G36*
G01*
X10550000Y13215000D02*
X10550000Y13515000D01*
G75*
G02*
X10700000Y13665000I150000J0D01*
G01*
X12350000Y13665000D01*
G75*
G02*
X12500000Y13515000I0J-150000D01*
G01*
X12500000Y13215000D01*
G75*
G02*
X12350000Y13065000I-150000J0D01*
G01*
X10700000Y13065000D01*
G75*
G02*
X10550000Y13215000I0J150000D01*
G01*
G37*
%TD.AperFunction*%
%TO.P,U1,3*%
%TO.N,N/C*%
%TA.AperFunction,SMDPad,CuDef*%
G36*
G01*
X10550000Y14485000D02*
X10550000Y14785000D01*
G75*
G02*
X10700000Y14935000I150000J0D01*
G01*
X12350000Y14935000D01*
G75*
G02*
X12500000Y14785000I0J-150000D01*
G01*
X12500000Y14485000D01*
G75*
G02*
X12350000Y14335000I-150000J0D01*
G01*
X10700000Y14335000D01*
G75*
G02*
X10550000Y14485000I0J150000D01*
G01*
G37*
%TD.AperFunction*%
%TO.P,U1,4*%
%TO.N,VCC*%
%TA.AperFunction,SMDPad,CuDef*%
G36*
G01*
X10550000Y15755000D02*
X10550000Y16055000D01*
G75*
G02*
X10700000Y16205000I150000J0D01*
G01*
X12350000Y16205000D01*
G75*
G02*
X12500000Y16055000I0J-150000D01*
G01*
X12500000Y15755000D01*
G75*
G02*
X12350000Y15605000I-150000J0D01*
G01*
X10700000Y15605000D01*
G75*
G02*
X10550000Y15755000I0J150000D01*
G01*
G37*
%TD.AperFunction*%
%TO.P,U1,5*%
%TO.N,/SPI1_MOSI*%
%TA.AperFunction,SMDPad,CuDef*%
G36*
G01*
X15500000Y15755000D02*
X15500000Y16055000D01*
G75*
G02*
X15650000Y16205000I150000J0D01*
G01*
X17300000Y16205000D01*
G75*
G02*
X17450000Y16055000I0J-150000D01*
G01*
X17450000Y15755000D01*
G75*
G02*
X17300000Y15605000I-150000J0D01*
G01*
X15650000Y15605000D01*
G75*
G02*
X15500000Y15755000I0J150000D01*
G01*
G37*
%TD.AperFunction*%
%TO.P,U1,6*%
%TO.N,/SPI1_MISO*%
%TA.AperFunction,SMDPad,CuDef*%
G36*
G01*
X15500000Y14485000D02*
X15500000Y14785000D01*
G75*
G02*
X15650000Y14935000I150000J0D01*
G01*
X17300000Y14935000D01*
G75*
G02*
X17450000Y14785000I0J-150000D01*
G01*
X17450000Y14485000D01*
G75*
G02*
X17300000Y14335000I-150000J0D01*
G01*
X15650000Y14335000D01*
G75*
G02*
X15500000Y14485000I0J150000D01*
G01*
G37*
%TD.AperFunction*%
%TO.P,U1,7*%
%TO.N,/SPI1_SCK*%
%TA.AperFunction,SMDPad,CuDef*%
G36*
G01*
X15500000Y13215000D02*
X15500000Y13515000D01*
G75*
G02*
X15650000Y13665000I150000J0D01*
G01*
X17300000Y13665000D01*
G75*
G02*
X17450000Y13515000I0J-150000D01*
G01*
X17450000Y13215000D01*
G75*
G02*
X17300000Y13065000I-150000J0D01*
G01*
X15650000Y13065000D01*
G75*
G02*
X15500000Y13215000I0J150000D01*
G01*
G37*
%TD.AperFunction*%
%TO.P,U1,8*%
%TO.N,GND*%
%TA.AperFunction,SMDPad,CuDef*%
G36*
G01*
X15500000Y11945000D02*
X15500000Y12245000D01*
G75*
G02*
X15650000Y12395000I150000J0D01*
G01*
X17300000Y12395000D01*
G75*
G02*
X17450000Y12245000I0J-150000D01*
G01*
X17450000Y11945000D01*
G75*
G02*
X17300000Y11795000I-150000J0D01*
G01*
X15650000Y11795000D01*
G75*
G02*
X15500000Y11945000I0J150000D01*
G01*
G37*
%TD.AperFunction*%
%TD*%
%TO.P,NTC1,2*%
%TO.N,/ADC_TEMP*%
%TA.AperFunction,SMDPad,CuDef*%
G36*
G01*
X18700000Y12067250D02*
X18700000Y11554750D01*
G75*
G02*
X18481250Y11336000I-218750J0D01*
G01*
X18043750Y11336000D01*
G75*
G02*
X17825000Y11554750I0J218750D01*
G01*
X17825000Y12067250D01*
G75*
G02*
X18043750Y12286000I218750J0D01*
G01*
X18481250Y12286000D01*
G75*
G02*
X18700000Y12067250I0J-218750D01*
G01*
G37*
%TD.AperFunction*%
%TO.P,NTC1,1*%
%TO.N,VCC*%
%TA.AperFunction,SMDPad,CuDef*%
G36*
G01*
X20275000Y12067250D02*
X20275000Y11554750D01*
G75*
G02*
X20056250Y11336000I-218750J0D01*
G01*
X19618750Y11336000D01*
G75*
G02*
X19400000Y11554750I0J218750D01*
G01*
X19400000Y12067250D01*
G75*
G02*
X19618750Y12286000I218750J0D01*
G01*
X20056250Y12286000D01*
G75*
G02*
X20275000Y12067250I0J-218750D01*
G01*
G37*
%TD.AperFunction*%
%TD*%
D14*
%TO.P,J3,4*%
%TO.N,Net-(J3-Pad4)*%
X26543000Y20351000D03*
%TO.P,J3,3*%
%TO.N,Net-(J3-Pad3)*%
X26543000Y18351000D03*
%TO.P,J3,2*%
%TO.N,Net-(J3-Pad2)*%
X26543000Y16351000D03*
D15*
%TO.P,J3,1*%
%TO.N,Net-(J3-Pad1)*%
X26543000Y14351000D03*
%TD*%
D16*
%TO.P,J1,4*%
%TO.N,/RS485/RS485_B*%
X11335500Y25146000D03*
%TO.P,J1,3*%
%TO.N,/RS485/RS485_A*%
X13335500Y25146000D03*
%TO.P,J1,2*%
%TO.N,V_SUPPLY*%
X15335500Y25146000D03*
%TO.P,J1,1*%
%TO.N,GND*%
%TA.AperFunction,ComponentPad*%
G36*
G01*
X17935500Y25771001D02*
X17935500Y24520999D01*
G75*
G02*
X17685501Y24271000I-249999J0D01*
G01*
X16985499Y24271000D01*
G75*
G02*
X16735500Y24520999I0J249999D01*
G01*
X16735500Y25771001D01*
G75*
G02*
X16985499Y26021000I249999J0D01*
G01*
X17685501Y26021000D01*
G75*
G02*
X17935500Y25771001I0J-249999D01*
G01*
G37*
%TD.AperFunction*%
%TD*%
%TO.P,C22,2*%
%TO.N,V_SUPPLY*%
%TA.AperFunction,SMDPad,CuDef*%
G36*
G01*
X21476000Y14742000D02*
X21476000Y15992000D01*
G75*
G02*
X21726000Y16242000I250000J0D01*
G01*
X22476000Y16242000D01*
G75*
G02*
X22726000Y15992000I0J-250000D01*
G01*
X22726000Y14742000D01*
G75*
G02*
X22476000Y14492000I-250000J0D01*
G01*
X21726000Y14492000D01*
G75*
G02*
X21476000Y14742000I0J250000D01*
G01*
G37*
%TD.AperFunction*%
%TO.P,C22,1*%
%TO.N,GND*%
%TA.AperFunction,SMDPad,CuDef*%
G36*
G01*
X18676000Y14742000D02*
X18676000Y15992000D01*
G75*
G02*
X18926000Y16242000I250000J0D01*
G01*
X19676000Y16242000D01*
G75*
G02*
X19926000Y15992000I0J-250000D01*
G01*
X19926000Y14742000D01*
G75*
G02*
X19676000Y14492000I-250000J0D01*
G01*
X18926000Y14492000D01*
G75*
G02*
X18676000Y14742000I0J250000D01*
G01*
G37*
%TD.AperFunction*%
%TD*%
%TO.P,C21,2*%
%TO.N,V_SUPPLY*%
%TA.AperFunction,SMDPad,CuDef*%
G36*
G01*
X21476000Y16647000D02*
X21476000Y17897000D01*
G75*
G02*
X21726000Y18147000I250000J0D01*
G01*
X22476000Y18147000D01*
G75*
G02*
X22726000Y17897000I0J-250000D01*
G01*
X22726000Y16647000D01*
G75*
G02*
X22476000Y16397000I-250000J0D01*
G01*
X21726000Y16397000D01*
G75*
G02*
X21476000Y16647000I0J250000D01*
G01*
G37*
%TD.AperFunction*%
%TO.P,C21,1*%
%TO.N,GND*%
%TA.AperFunction,SMDPad,CuDef*%
G36*
G01*
X18676000Y16647000D02*
X18676000Y17897000D01*
G75*
G02*
X18926000Y18147000I250000J0D01*
G01*
X19676000Y18147000D01*
G75*
G02*
X19926000Y17897000I0J-250000D01*
G01*
X19926000Y16647000D01*
G75*
G02*
X19676000Y16397000I-250000J0D01*
G01*
X18926000Y16397000D01*
G75*
G02*
X18676000Y16647000I0J250000D01*
G01*
G37*
%TD.AperFunction*%
%TD*%
%TO.P,C18,2*%
%TO.N,V_SUPPLY*%
%TA.AperFunction,SMDPad,CuDef*%
G36*
G01*
X24628000Y20650500D02*
X23378000Y20650500D01*
G75*
G02*
X23128000Y20900500I0J250000D01*
G01*
X23128000Y21650500D01*
G75*
G02*
X23378000Y21900500I250000J0D01*
G01*
X24628000Y21900500D01*
G75*
G02*
X24878000Y21650500I0J-250000D01*
G01*
X24878000Y20900500D01*
G75*
G02*
X24628000Y20650500I-250000J0D01*
G01*
G37*
%TD.AperFunction*%
%TO.P,C18,1*%
%TO.N,GND*%
%TA.AperFunction,SMDPad,CuDef*%
G36*
G01*
X24628000Y17850500D02*
X23378000Y17850500D01*
G75*
G02*
X23128000Y18100500I0J250000D01*
G01*
X23128000Y18850500D01*
G75*
G02*
X23378000Y19100500I250000J0D01*
G01*
X24628000Y19100500D01*
G75*
G02*
X24878000Y18850500I0J-250000D01*
G01*
X24878000Y18100500D01*
G75*
G02*
X24628000Y17850500I-250000J0D01*
G01*
G37*
%TD.AperFunction*%
%TD*%
%TO.P,C17,2*%
%TO.N,V_SUPPLY*%
%TA.AperFunction,SMDPad,CuDef*%
G36*
G01*
X21476000Y18552000D02*
X21476000Y19802000D01*
G75*
G02*
X21726000Y20052000I250000J0D01*
G01*
X22476000Y20052000D01*
G75*
G02*
X22726000Y19802000I0J-250000D01*
G01*
X22726000Y18552000D01*
G75*
G02*
X22476000Y18302000I-250000J0D01*
G01*
X21726000Y18302000D01*
G75*
G02*
X21476000Y18552000I0J250000D01*
G01*
G37*
%TD.AperFunction*%
%TO.P,C17,1*%
%TO.N,GND*%
%TA.AperFunction,SMDPad,CuDef*%
G36*
G01*
X18676000Y18552000D02*
X18676000Y19802000D01*
G75*
G02*
X18926000Y20052000I250000J0D01*
G01*
X19676000Y20052000D01*
G75*
G02*
X19926000Y19802000I0J-250000D01*
G01*
X19926000Y18552000D01*
G75*
G02*
X19676000Y18302000I-250000J0D01*
G01*
X18926000Y18302000D01*
G75*
G02*
X18676000Y18552000I0J250000D01*
G01*
G37*
%TD.AperFunction*%
%TD*%
%TO.P,C14,2*%
%TO.N,V_SUPPLY*%
%TA.AperFunction,SMDPad,CuDef*%
G36*
G01*
X21476000Y12837000D02*
X21476000Y14087000D01*
G75*
G02*
X21726000Y14337000I250000J0D01*
G01*
X22476000Y14337000D01*
G75*
G02*
X22726000Y14087000I0J-250000D01*
G01*
X22726000Y12837000D01*
G75*
G02*
X22476000Y12587000I-250000J0D01*
G01*
X21726000Y12587000D01*
G75*
G02*
X21476000Y12837000I0J250000D01*
G01*
G37*
%TD.AperFunction*%
%TO.P,C14,1*%
%TO.N,GND*%
%TA.AperFunction,SMDPad,CuDef*%
G36*
G01*
X18676000Y12837000D02*
X18676000Y14087000D01*
G75*
G02*
X18926000Y14337000I250000J0D01*
G01*
X19676000Y14337000D01*
G75*
G02*
X19926000Y14087000I0J-250000D01*
G01*
X19926000Y12837000D01*
G75*
G02*
X19676000Y12587000I-250000J0D01*
G01*
X18926000Y12587000D01*
G75*
G02*
X18676000Y12837000I0J250000D01*
G01*
G37*
%TD.AperFunction*%
%TD*%
%TO.P,C13,2*%
%TO.N,V_SUPPLY*%
%TA.AperFunction,SMDPad,CuDef*%
G36*
G01*
X21476000Y20457000D02*
X21476000Y21707000D01*
G75*
G02*
X21726000Y21957000I250000J0D01*
G01*
X22476000Y21957000D01*
G75*
G02*
X22726000Y21707000I0J-250000D01*
G01*
X22726000Y20457000D01*
G75*
G02*
X22476000Y20207000I-250000J0D01*
G01*
X21726000Y20207000D01*
G75*
G02*
X21476000Y20457000I0J250000D01*
G01*
G37*
%TD.AperFunction*%
%TO.P,C13,1*%
%TO.N,GND*%
%TA.AperFunction,SMDPad,CuDef*%
G36*
G01*
X18676000Y20457000D02*
X18676000Y21707000D01*
G75*
G02*
X18926000Y21957000I250000J0D01*
G01*
X19676000Y21957000D01*
G75*
G02*
X19926000Y21707000I0J-250000D01*
G01*
X19926000Y20457000D01*
G75*
G02*
X19676000Y20207000I-250000J0D01*
G01*
X18926000Y20207000D01*
G75*
G02*
X18676000Y20457000I0J250000D01*
G01*
G37*
%TD.AperFunction*%
%TD*%
D17*
%TO.N,GND*%
X12319000Y19939000D03*
D18*
X15748000Y17272000D03*
X16764000Y17272000D03*
D17*
X12890500Y13652500D03*
X12827000Y15367000D03*
D18*
X15494000Y21844000D03*
X14859000Y22225000D03*
X6223000Y11049000D03*
X6223000Y12319000D03*
X19050000Y19558000D03*
X19050000Y20574000D03*
X18161000Y20574000D03*
X18161000Y19558000D03*
X19050000Y14605000D03*
X18161000Y14605000D03*
X18161000Y15494000D03*
X19050000Y15494000D03*
X24638000Y12827000D03*
X24638000Y18288000D03*
X24511000Y16637000D03*
X24511000Y15748000D03*
X5588000Y23495000D03*
X5588000Y22352000D03*
X1270000Y14478000D03*
X1778000Y17907000D03*
X1270000Y17907000D03*
X1270000Y13716000D03*
X1270000Y15113000D03*
X21209000Y6731000D03*
X16256000Y6350000D03*
X11811000Y18034000D03*
X5842000Y9334500D03*
X17018000Y11938000D03*
X8509000Y9144000D03*
X6246000Y7366000D03*
X18859500Y635000D03*
X17843500Y635000D03*
X19304000Y10731500D03*
X15240000Y2730504D03*
X3365500Y22860000D03*
X4445000Y23241000D03*
X25082500Y16192500D03*
%TO.N,VCC*%
X4572000Y9906000D03*
X7747000Y13970000D03*
X10287000Y16510000D03*
X5270500Y3429000D03*
X21249500Y9565500D03*
X20637500Y11430000D03*
X18605500Y4127500D03*
%TO.N,V_SUPPLY*%
X3429000Y18542000D03*
X22479000Y18288000D03*
X21844000Y18288000D03*
X22352000Y12827000D03*
X21717000Y12827000D03*
%TO.N,/ADC_TEMP*%
X18542000Y12065000D03*
%TO.N,/ADC_POWER*%
X18986500Y8382000D03*
X20066000Y10890250D03*
%TO.N,/RS485/RS485_B*%
X3619500Y12509500D03*
%TO.N,/RS485/RS485_A*%
X2414830Y12444170D03*
%TO.N,/LED_GREEN*%
X9525000Y10414000D03*
X10287000Y6350000D03*
%TO.N,/LED_RED*%
X9842500Y11493500D03*
X10223500Y7302120D03*
%TO.N,Net-(R4-Pad1)*%
X17145000Y1905000D03*
X14536406Y3111500D03*
%TO.N,/IN_PWM_A*%
X11684000Y19050000D03*
X12065000Y7894000D03*
D17*
%TO.N,/IN_PWM_B*%
X12763500Y12700000D03*
D18*
X11303000Y8128000D03*
%TO.N,/BTN2*%
X23050500Y6921500D03*
X16065500Y4000500D03*
%TO.N,/SPI1_SCK*%
X14478000Y8128000D03*
%TO.N,/SPI1_MISO*%
X13843000Y7556500D03*
%TO.N,/SPI1_MOSI*%
X13208000Y6667500D03*
%TO.N,/MT6816_CS*%
X11430000Y7239000D03*
%TO.N,/UART1_RX*%
X13716000Y3301996D03*
%TO.N,/UART1_TX*%
X13081000Y2917000D03*
%TO.N,/485_RE*%
X3048000Y6350000D03*
%TD*%
D19*
%TO.N,GND*%
X12890500Y15303500D02*
X12827000Y15367000D01*
X12890500Y13652500D02*
X12890500Y15303500D01*
X12827000Y17018000D02*
X11811000Y18034000D01*
X12827000Y15367000D02*
X12827000Y17018000D01*
%TO.N,VCC*%
X8352000Y13365000D02*
X7747000Y13970000D01*
X11525000Y15905000D02*
X10190000Y15905000D01*
X10190000Y15905000D02*
X9936000Y15651000D01*
X9936000Y15651000D02*
X9936000Y13365000D01*
X11525000Y13365000D02*
X9936000Y13365000D01*
X9936000Y13365000D02*
X8352000Y13365000D01*
X7747000Y13970000D02*
X7747000Y13970000D01*
X4953000Y10287000D02*
X4572000Y9906000D01*
X4953000Y11238000D02*
X4953000Y10287000D01*
D20*
X6731000Y1968500D02*
X6731000Y1270000D01*
X5270500Y3429000D02*
X6731000Y1968500D01*
D19*
X10190000Y16413000D02*
X10287000Y16510000D01*
X10190000Y15905000D02*
X10190000Y16413000D01*
X20256500Y11811000D02*
X20637500Y11430000D01*
X19837500Y11811000D02*
X20256500Y11811000D01*
X21249500Y8676500D02*
X21249500Y9565500D01*
X18605500Y6032500D02*
X21249500Y8676500D01*
X18605500Y4127500D02*
X18605500Y6032500D01*
D21*
%TO.N,V_SUPPLY*%
X4953000Y20066000D02*
X11684000Y20066000D01*
X3429000Y18542000D02*
X4953000Y20066000D01*
X11684000Y20066000D02*
X15335500Y23717500D01*
X15335500Y23717500D02*
X15335500Y25146000D01*
D22*
X15335500Y25050500D02*
X15335500Y25146000D01*
D19*
%TO.N,/ADC_POWER*%
X19875500Y9271000D02*
X18986500Y8382000D01*
X20066000Y10890250D02*
X19875500Y10699750D01*
X19875500Y10699750D02*
X19875500Y9271000D01*
%TO.N,/RS485/RS485_B*%
X3683000Y12446000D02*
X3619500Y12509500D01*
X3683000Y11238000D02*
X3683000Y12446000D01*
X3619500Y12509500D02*
X3619500Y12509500D01*
%TO.N,/RS485/RS485_A*%
X2413000Y12442340D02*
X2414830Y12444170D01*
X2413000Y11238000D02*
X2413000Y12442340D01*
%TO.N,/LED_GREEN*%
X9525000Y10414000D02*
X9525000Y7112000D01*
X9525000Y7112000D02*
X10287000Y6350000D01*
X10287000Y6350000D02*
X10287000Y6350000D01*
%TO.N,/LED_RED*%
X10223500Y11112500D02*
X10223500Y7302120D01*
X9842500Y11493500D02*
X10223500Y11112500D01*
%TO.N,Net-(R4-Pad1)*%
X14726906Y3302000D02*
X14536406Y3111500D01*
X15494000Y3302000D02*
X14726906Y3302000D01*
X17208500Y1841500D02*
X16954500Y1841500D01*
X16954500Y1841500D02*
X15494000Y3302000D01*
%TO.N,/IN_PWM_A*%
X13365501Y17368499D02*
X13365501Y10785501D01*
X12065000Y9485000D02*
X12065000Y7894000D01*
X11684000Y19050000D02*
X13365501Y17368499D01*
X13365501Y10785501D02*
X12065000Y9485000D01*
%TO.N,/IN_PWM_B*%
X12763500Y12700000D02*
X12763500Y10858500D01*
X11303000Y9398000D02*
X11303000Y8128000D01*
X12763500Y10858500D02*
X11303000Y9398000D01*
%TO.N,/BTN2*%
X23050500Y6921500D02*
X19431000Y3302000D01*
X16764000Y3302000D02*
X16065500Y4000500D01*
X19431000Y3302000D02*
X16764000Y3302000D01*
%TO.N,/SPI1_SCK*%
X14478000Y9461500D02*
X14478000Y8128000D01*
X14955010Y9938510D02*
X14478000Y9461500D01*
X14955010Y13050010D02*
X14955010Y9938510D01*
X16475000Y13365000D02*
X15270000Y13365000D01*
X15270000Y13365000D02*
X14955010Y13050010D01*
%TO.N,/SPI1_MISO*%
X13843000Y9525000D02*
X13843000Y7556500D01*
X14605000Y10287000D02*
X13843000Y9525000D01*
X14605000Y14351000D02*
X14605000Y10287000D01*
X16475000Y14635000D02*
X14889000Y14635000D01*
X14889000Y14635000D02*
X14605000Y14351000D01*
%TO.N,/SPI1_MOSI*%
X14224000Y12446000D02*
X14224000Y12446000D01*
X13208000Y9588500D02*
X13208000Y6667500D01*
X14224000Y10604500D02*
X13208000Y9588500D01*
X14224000Y14629000D02*
X14224000Y10604500D01*
X16475000Y15905000D02*
X15500000Y15905000D01*
X15500000Y15905000D02*
X14224000Y14629000D01*
%TO.N,/MT6816_CS*%
X11525000Y12095000D02*
X11525000Y11144000D01*
X11525000Y11144000D02*
X10668000Y10287000D01*
X10668000Y7985998D02*
X11414998Y7239000D01*
X10668000Y10287000D02*
X10668000Y7985998D01*
%TO.N,/UART1_RX*%
X13461996Y3556000D02*
X13716000Y3301996D01*
X4953000Y6288000D02*
X7685000Y3556000D01*
X7685000Y3556000D02*
X13461996Y3556000D01*
%TO.N,/UART1_TX*%
X1143000Y7263000D02*
X1627000Y7747000D01*
X1143000Y6288000D02*
X1143000Y7263000D01*
X1627000Y7747000D02*
X4191000Y7747000D01*
X4191000Y7747000D02*
X4318000Y7620000D01*
X4318000Y7620000D02*
X4318000Y5207000D01*
X4318000Y5207000D02*
X6350000Y3175000D01*
X12823000Y3175000D02*
X13081000Y2917000D01*
X6350000Y3175000D02*
X12823000Y3175000D01*
%TO.N,/485_RE*%
X2413000Y6288000D02*
X2986000Y6288000D01*
X2986000Y6288000D02*
X3683000Y6288000D01*
%TD*%
D20*
%TO.N,V_SUPPLY*%
G36*
X16002000Y24384000D02*
G01*
X16004440Y24359224D01*
X16011667Y24335399D01*
X16023403Y24313443D01*
X16039197Y24294197D01*
X16049664Y24284830D01*
X16684664Y23776830D01*
X16705535Y23763257D01*
X16728654Y23754018D01*
X16764000Y23749000D01*
X21283394Y23749000D01*
X23024197Y22008197D01*
X23043443Y21992403D01*
X23065399Y21980667D01*
X23089224Y21973440D01*
X23114000Y21971000D01*
X24765000Y21971000D01*
X24765000Y20828000D01*
X22923500Y20828000D01*
X22898724Y20825560D01*
X22874899Y20818333D01*
X22852943Y20806597D01*
X22833697Y20790803D01*
X22817903Y20771557D01*
X22806167Y20749601D01*
X22798940Y20725776D01*
X22796500Y20701000D01*
X22796500Y19089354D01*
X22761259Y18973177D01*
X22749176Y18850500D01*
X22749176Y18100500D01*
X22761259Y17977823D01*
X22796500Y17861646D01*
X22796500Y12700000D01*
X21209000Y12700000D01*
X21209000Y21907500D01*
X21206560Y21932276D01*
X21199333Y21956101D01*
X21187597Y21978057D01*
X21166959Y22001898D01*
X20531959Y22573398D01*
X20511910Y22588159D01*
X20489367Y22598725D01*
X20465196Y22604690D01*
X20447000Y22606000D01*
X15540981Y22606000D01*
X14732000Y23299413D01*
X14732000Y25971500D01*
X16002000Y25971500D01*
X16002000Y24384000D01*
G37*
X16002000Y24384000D02*
X16004440Y24359224D01*
X16011667Y24335399D01*
X16023403Y24313443D01*
X16039197Y24294197D01*
X16049664Y24284830D01*
X16684664Y23776830D01*
X16705535Y23763257D01*
X16728654Y23754018D01*
X16764000Y23749000D01*
X21283394Y23749000D01*
X23024197Y22008197D01*
X23043443Y21992403D01*
X23065399Y21980667D01*
X23089224Y21973440D01*
X23114000Y21971000D01*
X24765000Y21971000D01*
X24765000Y20828000D01*
X22923500Y20828000D01*
X22898724Y20825560D01*
X22874899Y20818333D01*
X22852943Y20806597D01*
X22833697Y20790803D01*
X22817903Y20771557D01*
X22806167Y20749601D01*
X22798940Y20725776D01*
X22796500Y20701000D01*
X22796500Y19089354D01*
X22761259Y18973177D01*
X22749176Y18850500D01*
X22749176Y18100500D01*
X22761259Y17977823D01*
X22796500Y17861646D01*
X22796500Y12700000D01*
X21209000Y12700000D01*
X21209000Y21907500D01*
X21206560Y21932276D01*
X21199333Y21956101D01*
X21187597Y21978057D01*
X21166959Y22001898D01*
X20531959Y22573398D01*
X20511910Y22588159D01*
X20489367Y22598725D01*
X20465196Y22604690D01*
X20447000Y22606000D01*
X15540981Y22606000D01*
X14732000Y23299413D01*
X14732000Y25971500D01*
X16002000Y25971500D01*
X16002000Y24384000D01*
%TO.N,GND*%
G36*
X26306109Y27545962D02*
G01*
X26600557Y27457063D01*
X26872131Y27312664D01*
X27110488Y27118265D01*
X27306542Y26881277D01*
X27452835Y26610714D01*
X27543787Y26316892D01*
X27578001Y25991373D01*
X27578000Y2020640D01*
X27545962Y1693891D01*
X27457063Y1399443D01*
X27312662Y1127867D01*
X27118267Y889514D01*
X26881277Y693458D01*
X26610713Y547165D01*
X26316895Y456213D01*
X25991383Y422000D01*
X9777884Y422000D01*
X9839024Y428022D01*
X9904433Y447864D01*
X9964715Y480085D01*
X10017553Y523447D01*
X10060915Y576285D01*
X10093136Y636567D01*
X10112978Y701976D01*
X10119678Y770000D01*
X10119678Y1770000D01*
X10112978Y1838024D01*
X10093136Y1903433D01*
X10060915Y1963715D01*
X10017553Y2016553D01*
X9964715Y2059915D01*
X9904433Y2092136D01*
X9839024Y2111978D01*
X9771000Y2118678D01*
X8771000Y2118678D01*
X8702976Y2111978D01*
X8637567Y2092136D01*
X8577285Y2059915D01*
X8524447Y2016553D01*
X8483301Y1966415D01*
X8402205Y2020601D01*
X8248061Y2084450D01*
X8084422Y2117000D01*
X7917578Y2117000D01*
X7753939Y2084450D01*
X7599795Y2020601D01*
X7461069Y1927908D01*
X7366000Y1832839D01*
X7323015Y1875824D01*
X7289105Y1910045D01*
X7259578Y1941858D01*
X7235584Y1969782D01*
X7217302Y1993126D01*
X7204738Y2011103D01*
X7202778Y2014344D01*
X7198141Y2061420D01*
X7171037Y2150769D01*
X7127023Y2233114D01*
X7067790Y2305290D01*
X7049705Y2320132D01*
X6641837Y2728000D01*
X12486038Y2728000D01*
X12529790Y2622372D01*
X12597861Y2520498D01*
X12684498Y2433861D01*
X12786372Y2365790D01*
X12899569Y2318903D01*
X13019738Y2295000D01*
X13142262Y2295000D01*
X13262431Y2318903D01*
X13375628Y2365790D01*
X13477502Y2433861D01*
X13564139Y2520498D01*
X13632210Y2622372D01*
X13656078Y2679996D01*
X13777262Y2679996D01*
X13897431Y2703899D01*
X14010628Y2750786D01*
X14023574Y2759436D01*
X14053267Y2714998D01*
X14139904Y2628361D01*
X14241778Y2560290D01*
X14354975Y2513403D01*
X14475144Y2489500D01*
X14597668Y2489500D01*
X14717837Y2513403D01*
X14831034Y2560290D01*
X14932908Y2628361D01*
X14975483Y2670936D01*
X14985469Y2680432D01*
X14997951Y2691056D01*
X15017917Y2706682D01*
X15044583Y2726226D01*
X15077438Y2749062D01*
X15116025Y2774732D01*
X15160275Y2803108D01*
X15209801Y2833887D01*
X15244707Y2855000D01*
X15308848Y2855000D01*
X16622902Y1540945D01*
X16636895Y1523895D01*
X16690263Y1480096D01*
X16748498Y1421861D01*
X16850372Y1353790D01*
X16963569Y1306903D01*
X17083738Y1283000D01*
X17206262Y1283000D01*
X17326431Y1306903D01*
X17439628Y1353790D01*
X17541502Y1421861D01*
X17628139Y1508498D01*
X17696210Y1610372D01*
X17743097Y1723569D01*
X17767000Y1843738D01*
X17767000Y1966262D01*
X17743097Y2086431D01*
X17696210Y2199628D01*
X17628139Y2301502D01*
X17541502Y2388139D01*
X17439628Y2456210D01*
X17326431Y2503097D01*
X17206262Y2527000D01*
X17137911Y2527000D01*
X17119496Y2527052D01*
X17095704Y2527632D01*
X17067507Y2528818D01*
X17035344Y2530641D01*
X16999183Y2533136D01*
X16959566Y2536288D01*
X16916092Y2540143D01*
X16885006Y2543146D01*
X16049652Y3378500D01*
X16055348Y3378500D01*
X16432402Y3001445D01*
X16446395Y2984395D01*
X16514459Y2928535D01*
X16592113Y2887028D01*
X16644801Y2871046D01*
X16676372Y2861469D01*
X16684079Y2860710D01*
X16742050Y2855000D01*
X16742057Y2855000D01*
X16763999Y2852839D01*
X16785942Y2855000D01*
X19409058Y2855000D01*
X19431000Y2852839D01*
X19452942Y2855000D01*
X19452950Y2855000D01*
X19518627Y2861469D01*
X19602887Y2887028D01*
X19680541Y2928535D01*
X19748605Y2984395D01*
X19762602Y3001450D01*
X23060653Y6299500D01*
X23111762Y6299500D01*
X23231931Y6323403D01*
X23345128Y6370290D01*
X23447002Y6438361D01*
X23533639Y6524998D01*
X23601710Y6626872D01*
X23648597Y6740069D01*
X23672500Y6860238D01*
X23672500Y6982762D01*
X23648597Y7102931D01*
X23601710Y7216128D01*
X23533639Y7318002D01*
X23447002Y7404639D01*
X23345128Y7472710D01*
X23231931Y7519597D01*
X23111762Y7543500D01*
X22989238Y7543500D01*
X22869069Y7519597D01*
X22755872Y7472710D01*
X22653998Y7404639D01*
X22567361Y7318002D01*
X22499290Y7216128D01*
X22452403Y7102931D01*
X22428500Y6982762D01*
X22428500Y6931653D01*
X19245848Y3749000D01*
X19100668Y3749000D01*
X19156710Y3832872D01*
X19203597Y3946069D01*
X19227500Y4066238D01*
X19227500Y4188762D01*
X19203597Y4308931D01*
X19156710Y4422128D01*
X19088639Y4524002D01*
X19052500Y4560141D01*
X19052500Y5847348D01*
X21550057Y8344904D01*
X21567105Y8358895D01*
X21622965Y8426959D01*
X21664472Y8504613D01*
X21670505Y8524502D01*
X21690032Y8588872D01*
X21698661Y8676500D01*
X21696500Y8698445D01*
X21696500Y9132859D01*
X21732639Y9168998D01*
X21800710Y9270872D01*
X21847597Y9384069D01*
X21871500Y9504238D01*
X21871500Y9626762D01*
X21847597Y9746931D01*
X21800710Y9860128D01*
X21732639Y9962002D01*
X21646002Y10048639D01*
X21544128Y10116710D01*
X21430931Y10163597D01*
X21310762Y10187500D01*
X21188238Y10187500D01*
X21068069Y10163597D01*
X20954872Y10116710D01*
X20852998Y10048639D01*
X20766361Y9962002D01*
X20698290Y9860128D01*
X20651403Y9746931D01*
X20627500Y9626762D01*
X20627500Y9504238D01*
X20651403Y9384069D01*
X20698290Y9270872D01*
X20766361Y9168998D01*
X20802501Y9132858D01*
X20802500Y8861653D01*
X18304945Y6364097D01*
X18287896Y6350105D01*
X18232036Y6282041D01*
X18190994Y6205257D01*
X18190529Y6204387D01*
X18164969Y6120127D01*
X18156339Y6032500D01*
X18158501Y6010548D01*
X18158500Y4560141D01*
X18122361Y4524002D01*
X18054290Y4422128D01*
X18007403Y4308931D01*
X17983500Y4188762D01*
X17983500Y4066238D01*
X18007403Y3946069D01*
X18054290Y3832872D01*
X18110332Y3749000D01*
X16949153Y3749000D01*
X16687500Y4010652D01*
X16687500Y4061762D01*
X16663597Y4181931D01*
X16616710Y4295128D01*
X16548639Y4397002D01*
X16462002Y4483639D01*
X16360128Y4551710D01*
X16246931Y4598597D01*
X16126762Y4622500D01*
X16004238Y4622500D01*
X15884069Y4598597D01*
X15770872Y4551710D01*
X15668998Y4483639D01*
X15582361Y4397002D01*
X15514290Y4295128D01*
X15467403Y4181931D01*
X15443500Y4061762D01*
X15443500Y3939238D01*
X15467403Y3819069D01*
X15495596Y3751004D01*
X15494000Y3751161D01*
X15472058Y3749000D01*
X14748848Y3749000D01*
X14726906Y3751161D01*
X14704963Y3749000D01*
X14704956Y3749000D01*
X14647041Y3743296D01*
X14639278Y3742531D01*
X14604818Y3732078D01*
X14597668Y3733500D01*
X14475144Y3733500D01*
X14354975Y3709597D01*
X14241778Y3662710D01*
X14228832Y3654060D01*
X14199139Y3698498D01*
X14112502Y3785135D01*
X14010628Y3853206D01*
X13897431Y3900093D01*
X13777262Y3923996D01*
X13718201Y3923996D01*
X13711537Y3929465D01*
X13633883Y3970972D01*
X13549623Y3996531D01*
X13483946Y4003000D01*
X13483938Y4003000D01*
X13461996Y4005161D01*
X13440054Y4003000D01*
X7870154Y4003000D01*
X5614800Y6258353D01*
X5605903Y6267891D01*
X5602901Y6271619D01*
X5601678Y6273402D01*
X5601678Y7113000D01*
X5592096Y7210287D01*
X5563718Y7303836D01*
X5517636Y7390051D01*
X5455619Y7465619D01*
X5380051Y7527636D01*
X5293836Y7573718D01*
X5200287Y7602096D01*
X5103000Y7611678D01*
X4803000Y7611678D01*
X4765982Y7608032D01*
X4767161Y7620001D01*
X4765000Y7641943D01*
X4765000Y7641950D01*
X4758531Y7707627D01*
X4757837Y7709917D01*
X4749786Y7736457D01*
X4732972Y7791887D01*
X4691465Y7869541D01*
X4635605Y7937605D01*
X4618551Y7951601D01*
X4522602Y8047550D01*
X4508605Y8064605D01*
X4440541Y8120465D01*
X4362887Y8161972D01*
X4278627Y8187531D01*
X4212950Y8194000D01*
X4212942Y8194000D01*
X4191000Y8196161D01*
X4169058Y8194000D01*
X1648942Y8194000D01*
X1626999Y8196161D01*
X1605057Y8194000D01*
X1605050Y8194000D01*
X1547889Y8188370D01*
X1539372Y8187531D01*
X1515874Y8180403D01*
X1455113Y8161972D01*
X1377459Y8120465D01*
X1309395Y8064605D01*
X1295402Y8047555D01*
X842445Y7594597D01*
X825706Y7580859D01*
X802164Y7573718D01*
X715949Y7527636D01*
X640381Y7465619D01*
X578364Y7390051D01*
X532282Y7303836D01*
X503904Y7210287D01*
X494322Y7113000D01*
X494322Y5463000D01*
X503904Y5365713D01*
X532282Y5272164D01*
X578364Y5185949D01*
X640381Y5110381D01*
X715949Y5048364D01*
X802164Y5002282D01*
X895713Y4973904D01*
X993000Y4964322D01*
X1293000Y4964322D01*
X1390287Y4973904D01*
X1483836Y5002282D01*
X1570051Y5048364D01*
X1645619Y5110381D01*
X1707636Y5185949D01*
X1753718Y5272164D01*
X1778000Y5352210D01*
X1802282Y5272164D01*
X1848364Y5185949D01*
X1910381Y5110381D01*
X1985949Y5048364D01*
X2072164Y5002282D01*
X2165713Y4973904D01*
X2263000Y4964322D01*
X2563000Y4964322D01*
X2660287Y4973904D01*
X2753836Y5002282D01*
X2840051Y5048364D01*
X2915619Y5110381D01*
X2977636Y5185949D01*
X3023718Y5272164D01*
X3048000Y5352210D01*
X3072282Y5272164D01*
X3118364Y5185949D01*
X3180381Y5110381D01*
X3255949Y5048364D01*
X3342164Y5002282D01*
X3435713Y4973904D01*
X3533000Y4964322D01*
X3833000Y4964322D01*
X3930287Y4973904D01*
X3934984Y4975329D01*
X3944536Y4957459D01*
X4000396Y4889395D01*
X4017445Y4875403D01*
X4937966Y3954882D01*
X4873998Y3912139D01*
X4787361Y3825502D01*
X4719290Y3723628D01*
X4672403Y3610431D01*
X4648500Y3490262D01*
X4648500Y3367738D01*
X4672403Y3247569D01*
X4719290Y3134372D01*
X4787361Y3032498D01*
X4873998Y2945861D01*
X4975872Y2877790D01*
X5089069Y2830903D01*
X5209238Y2807000D01*
X5222164Y2807000D01*
X6146129Y1883034D01*
X6138970Y1875809D01*
X6073092Y1809931D01*
X5980399Y1671205D01*
X5916550Y1517061D01*
X5884000Y1353422D01*
X5884000Y1186578D01*
X5916550Y1022939D01*
X5980399Y868795D01*
X6073092Y730069D01*
X6191069Y612092D01*
X6329795Y519399D01*
X6483939Y455550D01*
X6647578Y423000D01*
X6814422Y423000D01*
X6978061Y455550D01*
X7132205Y519399D01*
X7270931Y612092D01*
X7366000Y707161D01*
X7461069Y612092D01*
X7599795Y519399D01*
X7753939Y455550D01*
X7917578Y423000D01*
X8084422Y423000D01*
X8248061Y455550D01*
X8402205Y519399D01*
X8483301Y573585D01*
X8524447Y523447D01*
X8577285Y480085D01*
X8637567Y447864D01*
X8702976Y428022D01*
X8764116Y422000D01*
X2020640Y422000D01*
X1693891Y454038D01*
X1399443Y542937D01*
X1127867Y687338D01*
X889514Y881733D01*
X693458Y1118723D01*
X547165Y1389287D01*
X456213Y1683105D01*
X422000Y2008617D01*
X422000Y12063000D01*
X1764322Y12063000D01*
X1764322Y10413000D01*
X1773904Y10315713D01*
X1802282Y10222164D01*
X1848364Y10135949D01*
X1910381Y10060381D01*
X1985949Y9998364D01*
X2072164Y9952282D01*
X2165713Y9923904D01*
X2263000Y9914322D01*
X2563000Y9914322D01*
X2660287Y9923904D01*
X2753836Y9952282D01*
X2840051Y9998364D01*
X2915619Y10060381D01*
X2977636Y10135949D01*
X3023718Y10222164D01*
X3048000Y10302210D01*
X3072282Y10222164D01*
X3118364Y10135949D01*
X3180381Y10060381D01*
X3255949Y9998364D01*
X3342164Y9952282D01*
X3435713Y9923904D01*
X3533000Y9914322D01*
X3833000Y9914322D01*
X3930287Y9923904D01*
X3950000Y9929884D01*
X3950000Y9844738D01*
X3973903Y9724569D01*
X4020790Y9611372D01*
X4088861Y9509498D01*
X4175498Y9422861D01*
X4277372Y9354790D01*
X4390569Y9307903D01*
X4510738Y9284000D01*
X4633262Y9284000D01*
X4753431Y9307903D01*
X4866628Y9354790D01*
X4968502Y9422861D01*
X5055139Y9509498D01*
X5123210Y9611372D01*
X5170097Y9724569D01*
X5194000Y9844738D01*
X5194000Y9895847D01*
X5231536Y9933383D01*
X5293836Y9952282D01*
X5380051Y9998364D01*
X5455619Y10060381D01*
X5517636Y10135949D01*
X5563718Y10222164D01*
X5592096Y10315713D01*
X5601678Y10413000D01*
X5601678Y12063000D01*
X5592096Y12160287D01*
X5563718Y12253836D01*
X5517636Y12340051D01*
X5455619Y12415619D01*
X5380051Y12477636D01*
X5293836Y12523718D01*
X5200287Y12552096D01*
X5103000Y12561678D01*
X4803000Y12561678D01*
X4705713Y12552096D01*
X4612164Y12523718D01*
X4525949Y12477636D01*
X4450381Y12415619D01*
X4388364Y12340051D01*
X4342282Y12253836D01*
X4318000Y12173790D01*
X4293718Y12253836D01*
X4247636Y12340051D01*
X4225376Y12367175D01*
X4241500Y12448238D01*
X4241500Y12570762D01*
X4217597Y12690931D01*
X4170710Y12804128D01*
X4102639Y12906002D01*
X4016002Y12992639D01*
X3914128Y13060710D01*
X3800931Y13107597D01*
X3680762Y13131500D01*
X3558238Y13131500D01*
X3438069Y13107597D01*
X3324872Y13060710D01*
X3222998Y12992639D01*
X3136361Y12906002D01*
X3068290Y12804128D01*
X3021403Y12690931D01*
X3009874Y12632971D01*
X2966040Y12738798D01*
X2897969Y12840672D01*
X2811332Y12927309D01*
X2709458Y12995380D01*
X2596261Y13042267D01*
X2476092Y13066170D01*
X2353568Y13066170D01*
X2233399Y13042267D01*
X2120202Y12995380D01*
X2018328Y12927309D01*
X1931691Y12840672D01*
X1863620Y12738798D01*
X1816733Y12625601D01*
X1792830Y12505432D01*
X1792830Y12382908D01*
X1814104Y12275954D01*
X1802282Y12253836D01*
X1773904Y12160287D01*
X1764322Y12063000D01*
X422000Y12063000D01*
X422000Y18603262D01*
X2807000Y18603262D01*
X2807000Y18480738D01*
X2830903Y18360569D01*
X2877790Y18247372D01*
X2945861Y18145498D01*
X3032498Y18058861D01*
X3134372Y17990790D01*
X3247569Y17943903D01*
X3367738Y17920000D01*
X3490262Y17920000D01*
X3610431Y17943903D01*
X3723628Y17990790D01*
X3825502Y18058861D01*
X3912139Y18145498D01*
X3980210Y18247372D01*
X4027097Y18360569D01*
X4046133Y18456269D01*
X5158864Y19569000D01*
X11341167Y19569000D01*
X11287498Y19533139D01*
X11200861Y19446502D01*
X11132790Y19344628D01*
X11085903Y19231431D01*
X11062000Y19111262D01*
X11062000Y18988738D01*
X11085903Y18868569D01*
X11132790Y18755372D01*
X11200861Y18653498D01*
X11287498Y18566861D01*
X11389372Y18498790D01*
X11502569Y18451903D01*
X11622738Y18428000D01*
X11673848Y18428000D01*
X12918501Y17183345D01*
X12918502Y13252375D01*
X12848678Y13266263D01*
X12848678Y13515000D01*
X12839096Y13612287D01*
X12810718Y13705836D01*
X12764636Y13792051D01*
X12702619Y13867619D01*
X12627051Y13929636D01*
X12540836Y13975718D01*
X12460790Y14000000D01*
X12540836Y14024282D01*
X12627051Y14070364D01*
X12702619Y14132381D01*
X12764636Y14207949D01*
X12810718Y14294164D01*
X12839096Y14387713D01*
X12848678Y14485000D01*
X12848678Y14785000D01*
X12839096Y14882287D01*
X12810718Y14975836D01*
X12764636Y15062051D01*
X12702619Y15137619D01*
X12627051Y15199636D01*
X12540836Y15245718D01*
X12460790Y15270000D01*
X12540836Y15294282D01*
X12627051Y15340364D01*
X12702619Y15402381D01*
X12764636Y15477949D01*
X12810718Y15564164D01*
X12839096Y15657713D01*
X12848678Y15755000D01*
X12848678Y16055000D01*
X12839096Y16152287D01*
X12810718Y16245836D01*
X12764636Y16332051D01*
X12702619Y16407619D01*
X12627051Y16469636D01*
X12540836Y16515718D01*
X12447287Y16544096D01*
X12350000Y16553678D01*
X10909000Y16553678D01*
X10909000Y16571262D01*
X10885097Y16691431D01*
X10838210Y16804628D01*
X10770139Y16906502D01*
X10683502Y16993139D01*
X10581628Y17061210D01*
X10468431Y17108097D01*
X10348262Y17132000D01*
X10225738Y17132000D01*
X10105569Y17108097D01*
X9992372Y17061210D01*
X9890498Y16993139D01*
X9803861Y16906502D01*
X9735790Y16804628D01*
X9688903Y16691431D01*
X9665000Y16571262D01*
X9665000Y16448738D01*
X9688903Y16328569D01*
X9735790Y16215372D01*
X9743001Y16204581D01*
X9743000Y16090152D01*
X9635450Y15982602D01*
X9618395Y15968605D01*
X9562535Y15900540D01*
X9521028Y15822886D01*
X9515603Y15805000D01*
X9497448Y15745149D01*
X9495469Y15738626D01*
X9489000Y15672949D01*
X9489000Y15672942D01*
X9486839Y15651000D01*
X9489000Y15629058D01*
X9489001Y13812000D01*
X8537153Y13812000D01*
X8369000Y13980153D01*
X8369000Y14031262D01*
X8345097Y14151431D01*
X8298210Y14264628D01*
X8230139Y14366502D01*
X8143502Y14453139D01*
X8041628Y14521210D01*
X7928431Y14568097D01*
X7808262Y14592000D01*
X7685738Y14592000D01*
X7565569Y14568097D01*
X7452372Y14521210D01*
X7350498Y14453139D01*
X7263861Y14366502D01*
X7195790Y14264628D01*
X7148903Y14151431D01*
X7125000Y14031262D01*
X7125000Y13908738D01*
X7148903Y13788569D01*
X7195790Y13675372D01*
X7263861Y13573498D01*
X7350498Y13486861D01*
X7452372Y13418790D01*
X7565569Y13371903D01*
X7685738Y13348000D01*
X7736847Y13348000D01*
X8020402Y13064445D01*
X8034395Y13047395D01*
X8102459Y12991535D01*
X8180113Y12950028D01*
X8219934Y12937949D01*
X8264372Y12924469D01*
X8272889Y12923630D01*
X8330050Y12918000D01*
X8330057Y12918000D01*
X8351999Y12915839D01*
X8373942Y12918000D01*
X9914050Y12918000D01*
X9936000Y12915838D01*
X9957950Y12918000D01*
X10301736Y12918000D01*
X10347381Y12862381D01*
X10422949Y12800364D01*
X10509164Y12754282D01*
X10589210Y12730000D01*
X10509164Y12705718D01*
X10422949Y12659636D01*
X10347381Y12597619D01*
X10285364Y12522051D01*
X10239282Y12435836D01*
X10210904Y12342287D01*
X10201322Y12245000D01*
X10201322Y12001816D01*
X10137128Y12044710D01*
X10023931Y12091597D01*
X9903762Y12115500D01*
X9781238Y12115500D01*
X9661069Y12091597D01*
X9547872Y12044710D01*
X9445998Y11976639D01*
X9359361Y11890002D01*
X9291290Y11788128D01*
X9244403Y11674931D01*
X9220500Y11554762D01*
X9220500Y11432238D01*
X9244403Y11312069D01*
X9291290Y11198872D01*
X9359361Y11096998D01*
X9427556Y11028803D01*
X9343569Y11012097D01*
X9230372Y10965210D01*
X9128498Y10897139D01*
X9041861Y10810502D01*
X8973790Y10708628D01*
X8926903Y10595431D01*
X8903000Y10475262D01*
X8903000Y10352738D01*
X8926903Y10232569D01*
X8973790Y10119372D01*
X9041861Y10017498D01*
X9078000Y9981359D01*
X9078001Y7133952D01*
X9075839Y7112000D01*
X9084469Y7024373D01*
X9107607Y6948097D01*
X9110029Y6940113D01*
X9151536Y6862459D01*
X9207396Y6794395D01*
X9224445Y6780403D01*
X9665000Y6339847D01*
X9665000Y6288738D01*
X9688903Y6168569D01*
X9735790Y6055372D01*
X9803861Y5953498D01*
X9890498Y5866861D01*
X9992372Y5798790D01*
X10105569Y5751903D01*
X10225738Y5728000D01*
X10348262Y5728000D01*
X10468431Y5751903D01*
X10581628Y5798790D01*
X10683502Y5866861D01*
X10770139Y5953498D01*
X10838210Y6055372D01*
X10885097Y6168569D01*
X10909000Y6288738D01*
X10909000Y6411262D01*
X10885097Y6531431D01*
X10838210Y6644628D01*
X10770139Y6746502D01*
X10683502Y6833139D01*
X10653924Y6852903D01*
X10706639Y6905618D01*
X10774710Y7007492D01*
X10820077Y7117020D01*
X10831903Y7057569D01*
X10878790Y6944372D01*
X10946861Y6842498D01*
X11033498Y6755861D01*
X11135372Y6687790D01*
X11248569Y6640903D01*
X11368738Y6617000D01*
X11491262Y6617000D01*
X11611431Y6640903D01*
X11724628Y6687790D01*
X11826502Y6755861D01*
X11913139Y6842498D01*
X11981210Y6944372D01*
X12028097Y7057569D01*
X12052000Y7177738D01*
X12052000Y7272000D01*
X12126262Y7272000D01*
X12246431Y7295903D01*
X12359628Y7342790D01*
X12461502Y7410861D01*
X12548139Y7497498D01*
X12616210Y7599372D01*
X12663097Y7712569D01*
X12687000Y7832738D01*
X12687000Y7955262D01*
X12663097Y8075431D01*
X12616210Y8188628D01*
X12548139Y8290502D01*
X12512000Y8326641D01*
X12512000Y9299848D01*
X12761000Y9548848D01*
X12761001Y7100142D01*
X12724861Y7064002D01*
X12656790Y6962128D01*
X12609903Y6848931D01*
X12586000Y6728762D01*
X12586000Y6606238D01*
X12609903Y6486069D01*
X12656790Y6372872D01*
X12724861Y6270998D01*
X12811498Y6184361D01*
X12913372Y6116290D01*
X13026569Y6069403D01*
X13146738Y6045500D01*
X13269262Y6045500D01*
X13389431Y6069403D01*
X13502628Y6116290D01*
X13604502Y6184361D01*
X13691139Y6270998D01*
X13759210Y6372872D01*
X13806097Y6486069D01*
X13830000Y6606238D01*
X13830000Y6728762D01*
X13806097Y6848931D01*
X13769658Y6936903D01*
X13781738Y6934500D01*
X13904262Y6934500D01*
X14024431Y6958403D01*
X14137628Y7005290D01*
X14239502Y7073361D01*
X14326139Y7159998D01*
X14394210Y7261872D01*
X14441097Y7375069D01*
X14465000Y7495238D01*
X14465000Y7506000D01*
X14539262Y7506000D01*
X14659431Y7529903D01*
X14772628Y7576790D01*
X14874502Y7644861D01*
X14961139Y7731498D01*
X15029210Y7833372D01*
X15076097Y7946569D01*
X15100000Y8066738D01*
X15100000Y8189262D01*
X15076097Y8309431D01*
X15029210Y8422628D01*
X14961139Y8524502D01*
X14925000Y8560641D01*
X14925000Y9276348D01*
X15255565Y9606912D01*
X15272615Y9620905D01*
X15328475Y9688969D01*
X15369982Y9766623D01*
X15394202Y9846469D01*
X15395541Y9850882D01*
X15398715Y9883105D01*
X15402010Y9916560D01*
X15402010Y9916567D01*
X15404171Y9938509D01*
X15402010Y9960452D01*
X15402010Y12067250D01*
X17476322Y12067250D01*
X17476322Y11554750D01*
X17487225Y11444050D01*
X17519515Y11337605D01*
X17571951Y11239504D01*
X17642518Y11153518D01*
X17728504Y11082951D01*
X17826605Y11030515D01*
X17933050Y10998225D01*
X18043750Y10987322D01*
X18481250Y10987322D01*
X18591950Y10998225D01*
X18698395Y11030515D01*
X18796496Y11082951D01*
X18882482Y11153518D01*
X18953049Y11239504D01*
X19005485Y11337605D01*
X19037775Y11444050D01*
X19048678Y11554750D01*
X19048678Y11703726D01*
X19051322Y11707683D01*
X19051322Y11554750D01*
X19062225Y11444050D01*
X19094515Y11337605D01*
X19146951Y11239504D01*
X19217518Y11153518D01*
X19303504Y11082951D01*
X19401605Y11030515D01*
X19456408Y11013891D01*
X19444000Y10951512D01*
X19444000Y10828988D01*
X19445422Y10821837D01*
X19442722Y10812936D01*
X19434969Y10787377D01*
X19434331Y10780903D01*
X19428500Y10721699D01*
X19428500Y10721692D01*
X19426339Y10699750D01*
X19428500Y10677807D01*
X19428501Y9456154D01*
X18976348Y9004000D01*
X18925238Y9004000D01*
X18805069Y8980097D01*
X18691872Y8933210D01*
X18589998Y8865139D01*
X18503361Y8778502D01*
X18435290Y8676628D01*
X18388403Y8563431D01*
X18364500Y8443262D01*
X18364500Y8320738D01*
X18388403Y8200569D01*
X18435290Y8087372D01*
X18503361Y7985498D01*
X18589998Y7898861D01*
X18691872Y7830790D01*
X18805069Y7783903D01*
X18925238Y7760000D01*
X19047762Y7760000D01*
X19167931Y7783903D01*
X19281128Y7830790D01*
X19383002Y7898861D01*
X19469639Y7985498D01*
X19537710Y8087372D01*
X19584597Y8200569D01*
X19608500Y8320738D01*
X19608500Y8371848D01*
X20176055Y8939402D01*
X20193105Y8953395D01*
X20248965Y9021459D01*
X20290472Y9099113D01*
X20294240Y9111536D01*
X20316031Y9183372D01*
X20318397Y9207395D01*
X20322500Y9249050D01*
X20322500Y9249057D01*
X20324661Y9271000D01*
X20322500Y9292942D01*
X20322500Y10181949D01*
X20343613Y10216855D01*
X20374392Y10266381D01*
X20402768Y10310631D01*
X20428438Y10349218D01*
X20451274Y10382073D01*
X20470818Y10408739D01*
X20486444Y10428705D01*
X20497068Y10441187D01*
X20506564Y10451173D01*
X20549139Y10493748D01*
X20617210Y10595622D01*
X20664097Y10708819D01*
X20683825Y10808000D01*
X20698762Y10808000D01*
X20818931Y10831903D01*
X20932128Y10878790D01*
X21034002Y10946861D01*
X21120639Y11033498D01*
X21188710Y11135372D01*
X21235597Y11248569D01*
X21259500Y11368738D01*
X21259500Y11491262D01*
X21235597Y11611431D01*
X21188710Y11724628D01*
X21120639Y11826502D01*
X21034002Y11913139D01*
X20932128Y11981210D01*
X20818931Y12028097D01*
X20698762Y12052000D01*
X20647652Y12052000D01*
X20622725Y12076927D01*
X20612775Y12177950D01*
X20580485Y12284395D01*
X20528049Y12382496D01*
X20457482Y12468482D01*
X20371496Y12539049D01*
X20273395Y12591485D01*
X20166950Y12623775D01*
X20056250Y12634678D01*
X19618750Y12634678D01*
X19508050Y12623775D01*
X19401605Y12591485D01*
X19303504Y12539049D01*
X19217518Y12468482D01*
X19146951Y12382496D01*
X19111337Y12315866D01*
X19093210Y12359628D01*
X19025139Y12461502D01*
X18938502Y12548139D01*
X18836628Y12616210D01*
X18723431Y12663097D01*
X18603262Y12687000D01*
X18480738Y12687000D01*
X18360569Y12663097D01*
X18291958Y12634678D01*
X18043750Y12634678D01*
X17933050Y12623775D01*
X17826605Y12591485D01*
X17728504Y12539049D01*
X17642518Y12468482D01*
X17571951Y12382496D01*
X17519515Y12284395D01*
X17487225Y12177950D01*
X17476322Y12067250D01*
X15402010Y12067250D01*
X15402010Y12784831D01*
X15459164Y12754282D01*
X15552713Y12725904D01*
X15650000Y12716322D01*
X17300000Y12716322D01*
X17397287Y12725904D01*
X17490836Y12754282D01*
X17577051Y12800364D01*
X17652619Y12862381D01*
X17714636Y12937949D01*
X17760718Y13024164D01*
X17789096Y13117713D01*
X17798678Y13215000D01*
X17798678Y13515000D01*
X17789096Y13612287D01*
X17760718Y13705836D01*
X17714636Y13792051D01*
X17652619Y13867619D01*
X17577051Y13929636D01*
X17490836Y13975718D01*
X17410790Y14000000D01*
X17490836Y14024282D01*
X17577051Y14070364D01*
X17652619Y14132381D01*
X17714636Y14207949D01*
X17760718Y14294164D01*
X17789096Y14387713D01*
X17798678Y14485000D01*
X17798678Y14785000D01*
X17789096Y14882287D01*
X17760718Y14975836D01*
X17714636Y15062051D01*
X17652619Y15137619D01*
X17577051Y15199636D01*
X17490836Y15245718D01*
X17410790Y15270000D01*
X17490836Y15294282D01*
X17577051Y15340364D01*
X17652619Y15402381D01*
X17714636Y15477949D01*
X17760718Y15564164D01*
X17789096Y15657713D01*
X17798678Y15755000D01*
X17798678Y16055000D01*
X17789096Y16152287D01*
X17760718Y16245836D01*
X17714636Y16332051D01*
X17652619Y16407619D01*
X17577051Y16469636D01*
X17490836Y16515718D01*
X17397287Y16544096D01*
X17300000Y16553678D01*
X15650000Y16553678D01*
X15552713Y16544096D01*
X15459164Y16515718D01*
X15372949Y16469636D01*
X15297381Y16407619D01*
X15235364Y16332051D01*
X15189282Y16245836D01*
X15182141Y16222296D01*
X15168407Y16205561D01*
X13923450Y14960602D01*
X13906395Y14946605D01*
X13850535Y14878540D01*
X13812501Y14807384D01*
X13812501Y17346554D01*
X13814662Y17368499D01*
X13806033Y17456127D01*
X13780473Y17540386D01*
X13738966Y17618040D01*
X13717125Y17644652D01*
X13697099Y17669055D01*
X13697094Y17669060D01*
X13683106Y17686104D01*
X13666063Y17700091D01*
X12306000Y19060152D01*
X12306000Y19111262D01*
X12282097Y19231431D01*
X12235210Y19344628D01*
X12167139Y19446502D01*
X12080502Y19533139D01*
X11978628Y19601210D01*
X11916723Y19626852D01*
X11961454Y19650761D01*
X12037132Y19712868D01*
X12052692Y19731828D01*
X14852868Y22532004D01*
X15248652Y22192760D01*
X15284550Y22165536D01*
X15349728Y22130697D01*
X15420451Y22109244D01*
X15494000Y22102000D01*
X20302331Y22102000D01*
X20705000Y21739598D01*
X20705000Y12573000D01*
X20712244Y12499451D01*
X20733697Y12428728D01*
X20768536Y12363550D01*
X20815421Y12306421D01*
X20872550Y12259536D01*
X20937728Y12224697D01*
X21008451Y12203244D01*
X21082000Y12196000D01*
X22923500Y12196000D01*
X22997049Y12203244D01*
X23067772Y12224697D01*
X23132950Y12259536D01*
X23190079Y12306421D01*
X23236964Y12363550D01*
X23271803Y12428728D01*
X23293256Y12499451D01*
X23300500Y12573000D01*
X23300500Y15026000D01*
X25519322Y15026000D01*
X25519322Y13676000D01*
X25526022Y13607976D01*
X25545864Y13542567D01*
X25578085Y13482285D01*
X25621447Y13429447D01*
X25674285Y13386085D01*
X25734567Y13353864D01*
X25799976Y13334022D01*
X25868000Y13327322D01*
X27218000Y13327322D01*
X27286024Y13334022D01*
X27351433Y13353864D01*
X27411715Y13386085D01*
X27464553Y13429447D01*
X27507915Y13482285D01*
X27540136Y13542567D01*
X27559978Y13607976D01*
X27566678Y13676000D01*
X27566678Y15026000D01*
X27559978Y15094024D01*
X27540136Y15159433D01*
X27507915Y15219715D01*
X27464553Y15272553D01*
X27411715Y15315915D01*
X27351433Y15348136D01*
X27286024Y15367978D01*
X27218000Y15374678D01*
X26856564Y15374678D01*
X27027099Y15445315D01*
X27194487Y15557161D01*
X27336839Y15699513D01*
X27448685Y15866901D01*
X27525725Y16052894D01*
X27565000Y16250342D01*
X27565000Y16451658D01*
X27525725Y16649106D01*
X27448685Y16835099D01*
X27336839Y17002487D01*
X27194487Y17144839D01*
X27027099Y17256685D01*
X26841106Y17333725D01*
X26754259Y17351000D01*
X26841106Y17368275D01*
X27027099Y17445315D01*
X27194487Y17557161D01*
X27336839Y17699513D01*
X27448685Y17866901D01*
X27525725Y18052894D01*
X27565000Y18250342D01*
X27565000Y18451658D01*
X27525725Y18649106D01*
X27448685Y18835099D01*
X27336839Y19002487D01*
X27194487Y19144839D01*
X27027099Y19256685D01*
X26841106Y19333725D01*
X26754259Y19351000D01*
X26841106Y19368275D01*
X27027099Y19445315D01*
X27194487Y19557161D01*
X27336839Y19699513D01*
X27448685Y19866901D01*
X27525725Y20052894D01*
X27565000Y20250342D01*
X27565000Y20451658D01*
X27525725Y20649106D01*
X27448685Y20835099D01*
X27336839Y21002487D01*
X27194487Y21144839D01*
X27027099Y21256685D01*
X26841106Y21333725D01*
X26643658Y21373000D01*
X26442342Y21373000D01*
X26244894Y21333725D01*
X26058901Y21256685D01*
X25891513Y21144839D01*
X25749161Y21002487D01*
X25637315Y20835099D01*
X25560275Y20649106D01*
X25521000Y20451658D01*
X25521000Y20250342D01*
X25560275Y20052894D01*
X25637315Y19866901D01*
X25749161Y19699513D01*
X25891513Y19557161D01*
X26058901Y19445315D01*
X26244894Y19368275D01*
X26331741Y19351000D01*
X26244894Y19333725D01*
X26058901Y19256685D01*
X25891513Y19144839D01*
X25749161Y19002487D01*
X25637315Y18835099D01*
X25560275Y18649106D01*
X25521000Y18451658D01*
X25521000Y18250342D01*
X25560275Y18052894D01*
X25637315Y17866901D01*
X25749161Y17699513D01*
X25891513Y17557161D01*
X26058901Y17445315D01*
X26244894Y17368275D01*
X26331741Y17351000D01*
X26244894Y17333725D01*
X26058901Y17256685D01*
X25891513Y17144839D01*
X25749161Y17002487D01*
X25637315Y16835099D01*
X25560275Y16649106D01*
X25521000Y16451658D01*
X25521000Y16250342D01*
X25560275Y16052894D01*
X25637315Y15866901D01*
X25749161Y15699513D01*
X25891513Y15557161D01*
X26058901Y15445315D01*
X26229436Y15374678D01*
X25868000Y15374678D01*
X25799976Y15367978D01*
X25734567Y15348136D01*
X25674285Y15315915D01*
X25621447Y15272553D01*
X25578085Y15219715D01*
X25545864Y15159433D01*
X25526022Y15094024D01*
X25519322Y15026000D01*
X23300500Y15026000D01*
X23300500Y20309455D01*
X23378000Y20301822D01*
X24628000Y20301822D01*
X24744796Y20313325D01*
X24779986Y20324000D01*
X24892000Y20324000D01*
X24965549Y20331244D01*
X25036272Y20352697D01*
X25101450Y20387536D01*
X25158579Y20434421D01*
X25205464Y20491550D01*
X25240303Y20556728D01*
X25261756Y20627451D01*
X25269000Y20701000D01*
X25269000Y22098000D01*
X25261756Y22171549D01*
X25240303Y22242272D01*
X25205464Y22307450D01*
X25158579Y22364579D01*
X25101450Y22411464D01*
X25036272Y22446303D01*
X24965549Y22467756D01*
X24892000Y22475000D01*
X23270158Y22475000D01*
X21602579Y24142579D01*
X21545450Y24189464D01*
X21480272Y24224303D01*
X21409549Y24245756D01*
X21336000Y24253000D01*
X16896245Y24253000D01*
X16506000Y24565196D01*
X16506000Y26098500D01*
X16498756Y26172049D01*
X16477303Y26242772D01*
X16442464Y26307950D01*
X16395579Y26365079D01*
X16338450Y26411964D01*
X16273272Y26446803D01*
X16202549Y26468256D01*
X16129000Y26475500D01*
X14605000Y26475500D01*
X14531451Y26468256D01*
X14460728Y26446803D01*
X14395550Y26411964D01*
X14338421Y26365079D01*
X14291536Y26307950D01*
X14256697Y26242772D01*
X14235244Y26172049D01*
X14228000Y26098500D01*
X14228000Y25741136D01*
X14214647Y25785155D01*
X14126712Y25949671D01*
X14008370Y26093870D01*
X13864171Y26212212D01*
X13699655Y26300147D01*
X13521144Y26354298D01*
X13335500Y26372582D01*
X13149857Y26354298D01*
X12971346Y26300147D01*
X12806830Y26212212D01*
X12662631Y26093870D01*
X12544289Y25949671D01*
X12456353Y25785155D01*
X12402202Y25606644D01*
X12388500Y25467523D01*
X12388500Y24824478D01*
X12402202Y24685357D01*
X12456353Y24506846D01*
X12544288Y24342329D01*
X12662630Y24198130D01*
X12806829Y24079788D01*
X12971345Y23991853D01*
X13149856Y23937702D01*
X13335500Y23919418D01*
X13521143Y23937702D01*
X13699654Y23991853D01*
X13864171Y24079788D01*
X14008370Y24198130D01*
X14126712Y24342329D01*
X14214647Y24506845D01*
X14228000Y24550864D01*
X14228000Y23312864D01*
X11478136Y20563000D01*
X4977397Y20563000D01*
X4952999Y20565403D01*
X4928601Y20563000D01*
X4928592Y20563000D01*
X4855571Y20555808D01*
X4761886Y20527389D01*
X4675546Y20481239D01*
X4599868Y20419132D01*
X4584309Y20400173D01*
X3343269Y19159133D01*
X3247569Y19140097D01*
X3134372Y19093210D01*
X3032498Y19025139D01*
X2945861Y18938502D01*
X2877790Y18836628D01*
X2830903Y18723431D01*
X2807000Y18603262D01*
X422000Y18603262D01*
X422000Y25467523D01*
X10388500Y25467523D01*
X10388500Y24824478D01*
X10402202Y24685357D01*
X10456353Y24506846D01*
X10544288Y24342329D01*
X10662630Y24198130D01*
X10806829Y24079788D01*
X10971345Y23991853D01*
X11149856Y23937702D01*
X11335500Y23919418D01*
X11521143Y23937702D01*
X11699654Y23991853D01*
X11864171Y24079788D01*
X12008370Y24198130D01*
X12126712Y24342329D01*
X12214647Y24506845D01*
X12268798Y24685356D01*
X12282500Y24824477D01*
X12282500Y25467523D01*
X12268798Y25606644D01*
X12214647Y25785155D01*
X12126712Y25949671D01*
X12008370Y26093870D01*
X11864171Y26212212D01*
X11699655Y26300147D01*
X11521144Y26354298D01*
X11335500Y26372582D01*
X11149857Y26354298D01*
X10971346Y26300147D01*
X10806830Y26212212D01*
X10662631Y26093870D01*
X10544289Y25949671D01*
X10456353Y25785155D01*
X10402202Y25606644D01*
X10388500Y25467523D01*
X422000Y25467523D01*
X422000Y25979360D01*
X454038Y26306109D01*
X542937Y26600557D01*
X687336Y26872131D01*
X881735Y27110488D01*
X1118723Y27306542D01*
X1389286Y27452835D01*
X1683108Y27543787D01*
X2008617Y27578000D01*
X25979360Y27578000D01*
X26306109Y27545962D01*
G37*
X26306109Y27545962D02*
X26600557Y27457063D01*
X26872131Y27312664D01*
X27110488Y27118265D01*
X27306542Y26881277D01*
X27452835Y26610714D01*
X27543787Y26316892D01*
X27578001Y25991373D01*
X27578000Y2020640D01*
X27545962Y1693891D01*
X27457063Y1399443D01*
X27312662Y1127867D01*
X27118267Y889514D01*
X26881277Y693458D01*
X26610713Y547165D01*
X26316895Y456213D01*
X25991383Y422000D01*
X9777884Y422000D01*
X9839024Y428022D01*
X9904433Y447864D01*
X9964715Y480085D01*
X10017553Y523447D01*
X10060915Y576285D01*
X10093136Y636567D01*
X10112978Y701976D01*
X10119678Y770000D01*
X10119678Y1770000D01*
X10112978Y1838024D01*
X10093136Y1903433D01*
X10060915Y1963715D01*
X10017553Y2016553D01*
X9964715Y2059915D01*
X9904433Y2092136D01*
X9839024Y2111978D01*
X9771000Y2118678D01*
X8771000Y2118678D01*
X8702976Y2111978D01*
X8637567Y2092136D01*
X8577285Y2059915D01*
X8524447Y2016553D01*
X8483301Y1966415D01*
X8402205Y2020601D01*
X8248061Y2084450D01*
X8084422Y2117000D01*
X7917578Y2117000D01*
X7753939Y2084450D01*
X7599795Y2020601D01*
X7461069Y1927908D01*
X7366000Y1832839D01*
X7323015Y1875824D01*
X7289105Y1910045D01*
X7259578Y1941858D01*
X7235584Y1969782D01*
X7217302Y1993126D01*
X7204738Y2011103D01*
X7202778Y2014344D01*
X7198141Y2061420D01*
X7171037Y2150769D01*
X7127023Y2233114D01*
X7067790Y2305290D01*
X7049705Y2320132D01*
X6641837Y2728000D01*
X12486038Y2728000D01*
X12529790Y2622372D01*
X12597861Y2520498D01*
X12684498Y2433861D01*
X12786372Y2365790D01*
X12899569Y2318903D01*
X13019738Y2295000D01*
X13142262Y2295000D01*
X13262431Y2318903D01*
X13375628Y2365790D01*
X13477502Y2433861D01*
X13564139Y2520498D01*
X13632210Y2622372D01*
X13656078Y2679996D01*
X13777262Y2679996D01*
X13897431Y2703899D01*
X14010628Y2750786D01*
X14023574Y2759436D01*
X14053267Y2714998D01*
X14139904Y2628361D01*
X14241778Y2560290D01*
X14354975Y2513403D01*
X14475144Y2489500D01*
X14597668Y2489500D01*
X14717837Y2513403D01*
X14831034Y2560290D01*
X14932908Y2628361D01*
X14975483Y2670936D01*
X14985469Y2680432D01*
X14997951Y2691056D01*
X15017917Y2706682D01*
X15044583Y2726226D01*
X15077438Y2749062D01*
X15116025Y2774732D01*
X15160275Y2803108D01*
X15209801Y2833887D01*
X15244707Y2855000D01*
X15308848Y2855000D01*
X16622902Y1540945D01*
X16636895Y1523895D01*
X16690263Y1480096D01*
X16748498Y1421861D01*
X16850372Y1353790D01*
X16963569Y1306903D01*
X17083738Y1283000D01*
X17206262Y1283000D01*
X17326431Y1306903D01*
X17439628Y1353790D01*
X17541502Y1421861D01*
X17628139Y1508498D01*
X17696210Y1610372D01*
X17743097Y1723569D01*
X17767000Y1843738D01*
X17767000Y1966262D01*
X17743097Y2086431D01*
X17696210Y2199628D01*
X17628139Y2301502D01*
X17541502Y2388139D01*
X17439628Y2456210D01*
X17326431Y2503097D01*
X17206262Y2527000D01*
X17137911Y2527000D01*
X17119496Y2527052D01*
X17095704Y2527632D01*
X17067507Y2528818D01*
X17035344Y2530641D01*
X16999183Y2533136D01*
X16959566Y2536288D01*
X16916092Y2540143D01*
X16885006Y2543146D01*
X16049652Y3378500D01*
X16055348Y3378500D01*
X16432402Y3001445D01*
X16446395Y2984395D01*
X16514459Y2928535D01*
X16592113Y2887028D01*
X16644801Y2871046D01*
X16676372Y2861469D01*
X16684079Y2860710D01*
X16742050Y2855000D01*
X16742057Y2855000D01*
X16763999Y2852839D01*
X16785942Y2855000D01*
X19409058Y2855000D01*
X19431000Y2852839D01*
X19452942Y2855000D01*
X19452950Y2855000D01*
X19518627Y2861469D01*
X19602887Y2887028D01*
X19680541Y2928535D01*
X19748605Y2984395D01*
X19762602Y3001450D01*
X23060653Y6299500D01*
X23111762Y6299500D01*
X23231931Y6323403D01*
X23345128Y6370290D01*
X23447002Y6438361D01*
X23533639Y6524998D01*
X23601710Y6626872D01*
X23648597Y6740069D01*
X23672500Y6860238D01*
X23672500Y6982762D01*
X23648597Y7102931D01*
X23601710Y7216128D01*
X23533639Y7318002D01*
X23447002Y7404639D01*
X23345128Y7472710D01*
X23231931Y7519597D01*
X23111762Y7543500D01*
X22989238Y7543500D01*
X22869069Y7519597D01*
X22755872Y7472710D01*
X22653998Y7404639D01*
X22567361Y7318002D01*
X22499290Y7216128D01*
X22452403Y7102931D01*
X22428500Y6982762D01*
X22428500Y6931653D01*
X19245848Y3749000D01*
X19100668Y3749000D01*
X19156710Y3832872D01*
X19203597Y3946069D01*
X19227500Y4066238D01*
X19227500Y4188762D01*
X19203597Y4308931D01*
X19156710Y4422128D01*
X19088639Y4524002D01*
X19052500Y4560141D01*
X19052500Y5847348D01*
X21550057Y8344904D01*
X21567105Y8358895D01*
X21622965Y8426959D01*
X21664472Y8504613D01*
X21670505Y8524502D01*
X21690032Y8588872D01*
X21698661Y8676500D01*
X21696500Y8698445D01*
X21696500Y9132859D01*
X21732639Y9168998D01*
X21800710Y9270872D01*
X21847597Y9384069D01*
X21871500Y9504238D01*
X21871500Y9626762D01*
X21847597Y9746931D01*
X21800710Y9860128D01*
X21732639Y9962002D01*
X21646002Y10048639D01*
X21544128Y10116710D01*
X21430931Y10163597D01*
X21310762Y10187500D01*
X21188238Y10187500D01*
X21068069Y10163597D01*
X20954872Y10116710D01*
X20852998Y10048639D01*
X20766361Y9962002D01*
X20698290Y9860128D01*
X20651403Y9746931D01*
X20627500Y9626762D01*
X20627500Y9504238D01*
X20651403Y9384069D01*
X20698290Y9270872D01*
X20766361Y9168998D01*
X20802501Y9132858D01*
X20802500Y8861653D01*
X18304945Y6364097D01*
X18287896Y6350105D01*
X18232036Y6282041D01*
X18190994Y6205257D01*
X18190529Y6204387D01*
X18164969Y6120127D01*
X18156339Y6032500D01*
X18158501Y6010548D01*
X18158500Y4560141D01*
X18122361Y4524002D01*
X18054290Y4422128D01*
X18007403Y4308931D01*
X17983500Y4188762D01*
X17983500Y4066238D01*
X18007403Y3946069D01*
X18054290Y3832872D01*
X18110332Y3749000D01*
X16949153Y3749000D01*
X16687500Y4010652D01*
X16687500Y4061762D01*
X16663597Y4181931D01*
X16616710Y4295128D01*
X16548639Y4397002D01*
X16462002Y4483639D01*
X16360128Y4551710D01*
X16246931Y4598597D01*
X16126762Y4622500D01*
X16004238Y4622500D01*
X15884069Y4598597D01*
X15770872Y4551710D01*
X15668998Y4483639D01*
X15582361Y4397002D01*
X15514290Y4295128D01*
X15467403Y4181931D01*
X15443500Y4061762D01*
X15443500Y3939238D01*
X15467403Y3819069D01*
X15495596Y3751004D01*
X15494000Y3751161D01*
X15472058Y3749000D01*
X14748848Y3749000D01*
X14726906Y3751161D01*
X14704963Y3749000D01*
X14704956Y3749000D01*
X14647041Y3743296D01*
X14639278Y3742531D01*
X14604818Y3732078D01*
X14597668Y3733500D01*
X14475144Y3733500D01*
X14354975Y3709597D01*
X14241778Y3662710D01*
X14228832Y3654060D01*
X14199139Y3698498D01*
X14112502Y3785135D01*
X14010628Y3853206D01*
X13897431Y3900093D01*
X13777262Y3923996D01*
X13718201Y3923996D01*
X13711537Y3929465D01*
X13633883Y3970972D01*
X13549623Y3996531D01*
X13483946Y4003000D01*
X13483938Y4003000D01*
X13461996Y4005161D01*
X13440054Y4003000D01*
X7870154Y4003000D01*
X5614800Y6258353D01*
X5605903Y6267891D01*
X5602901Y6271619D01*
X5601678Y6273402D01*
X5601678Y7113000D01*
X5592096Y7210287D01*
X5563718Y7303836D01*
X5517636Y7390051D01*
X5455619Y7465619D01*
X5380051Y7527636D01*
X5293836Y7573718D01*
X5200287Y7602096D01*
X5103000Y7611678D01*
X4803000Y7611678D01*
X4765982Y7608032D01*
X4767161Y7620001D01*
X4765000Y7641943D01*
X4765000Y7641950D01*
X4758531Y7707627D01*
X4757837Y7709917D01*
X4749786Y7736457D01*
X4732972Y7791887D01*
X4691465Y7869541D01*
X4635605Y7937605D01*
X4618551Y7951601D01*
X4522602Y8047550D01*
X4508605Y8064605D01*
X4440541Y8120465D01*
X4362887Y8161972D01*
X4278627Y8187531D01*
X4212950Y8194000D01*
X4212942Y8194000D01*
X4191000Y8196161D01*
X4169058Y8194000D01*
X1648942Y8194000D01*
X1626999Y8196161D01*
X1605057Y8194000D01*
X1605050Y8194000D01*
X1547889Y8188370D01*
X1539372Y8187531D01*
X1515874Y8180403D01*
X1455113Y8161972D01*
X1377459Y8120465D01*
X1309395Y8064605D01*
X1295402Y8047555D01*
X842445Y7594597D01*
X825706Y7580859D01*
X802164Y7573718D01*
X715949Y7527636D01*
X640381Y7465619D01*
X578364Y7390051D01*
X532282Y7303836D01*
X503904Y7210287D01*
X494322Y7113000D01*
X494322Y5463000D01*
X503904Y5365713D01*
X532282Y5272164D01*
X578364Y5185949D01*
X640381Y5110381D01*
X715949Y5048364D01*
X802164Y5002282D01*
X895713Y4973904D01*
X993000Y4964322D01*
X1293000Y4964322D01*
X1390287Y4973904D01*
X1483836Y5002282D01*
X1570051Y5048364D01*
X1645619Y5110381D01*
X1707636Y5185949D01*
X1753718Y5272164D01*
X1778000Y5352210D01*
X1802282Y5272164D01*
X1848364Y5185949D01*
X1910381Y5110381D01*
X1985949Y5048364D01*
X2072164Y5002282D01*
X2165713Y4973904D01*
X2263000Y4964322D01*
X2563000Y4964322D01*
X2660287Y4973904D01*
X2753836Y5002282D01*
X2840051Y5048364D01*
X2915619Y5110381D01*
X2977636Y5185949D01*
X3023718Y5272164D01*
X3048000Y5352210D01*
X3072282Y5272164D01*
X3118364Y5185949D01*
X3180381Y5110381D01*
X3255949Y5048364D01*
X3342164Y5002282D01*
X3435713Y4973904D01*
X3533000Y4964322D01*
X3833000Y4964322D01*
X3930287Y4973904D01*
X3934984Y4975329D01*
X3944536Y4957459D01*
X4000396Y4889395D01*
X4017445Y4875403D01*
X4937966Y3954882D01*
X4873998Y3912139D01*
X4787361Y3825502D01*
X4719290Y3723628D01*
X4672403Y3610431D01*
X4648500Y3490262D01*
X4648500Y3367738D01*
X4672403Y3247569D01*
X4719290Y3134372D01*
X4787361Y3032498D01*
X4873998Y2945861D01*
X4975872Y2877790D01*
X5089069Y2830903D01*
X5209238Y2807000D01*
X5222164Y2807000D01*
X6146129Y1883034D01*
X6138970Y1875809D01*
X6073092Y1809931D01*
X5980399Y1671205D01*
X5916550Y1517061D01*
X5884000Y1353422D01*
X5884000Y1186578D01*
X5916550Y1022939D01*
X5980399Y868795D01*
X6073092Y730069D01*
X6191069Y612092D01*
X6329795Y519399D01*
X6483939Y455550D01*
X6647578Y423000D01*
X6814422Y423000D01*
X6978061Y455550D01*
X7132205Y519399D01*
X7270931Y612092D01*
X7366000Y707161D01*
X7461069Y612092D01*
X7599795Y519399D01*
X7753939Y455550D01*
X7917578Y423000D01*
X8084422Y423000D01*
X8248061Y455550D01*
X8402205Y519399D01*
X8483301Y573585D01*
X8524447Y523447D01*
X8577285Y480085D01*
X8637567Y447864D01*
X8702976Y428022D01*
X8764116Y422000D01*
X2020640Y422000D01*
X1693891Y454038D01*
X1399443Y542937D01*
X1127867Y687338D01*
X889514Y881733D01*
X693458Y1118723D01*
X547165Y1389287D01*
X456213Y1683105D01*
X422000Y2008617D01*
X422000Y12063000D01*
X1764322Y12063000D01*
X1764322Y10413000D01*
X1773904Y10315713D01*
X1802282Y10222164D01*
X1848364Y10135949D01*
X1910381Y10060381D01*
X1985949Y9998364D01*
X2072164Y9952282D01*
X2165713Y9923904D01*
X2263000Y9914322D01*
X2563000Y9914322D01*
X2660287Y9923904D01*
X2753836Y9952282D01*
X2840051Y9998364D01*
X2915619Y10060381D01*
X2977636Y10135949D01*
X3023718Y10222164D01*
X3048000Y10302210D01*
X3072282Y10222164D01*
X3118364Y10135949D01*
X3180381Y10060381D01*
X3255949Y9998364D01*
X3342164Y9952282D01*
X3435713Y9923904D01*
X3533000Y9914322D01*
X3833000Y9914322D01*
X3930287Y9923904D01*
X3950000Y9929884D01*
X3950000Y9844738D01*
X3973903Y9724569D01*
X4020790Y9611372D01*
X4088861Y9509498D01*
X4175498Y9422861D01*
X4277372Y9354790D01*
X4390569Y9307903D01*
X4510738Y9284000D01*
X4633262Y9284000D01*
X4753431Y9307903D01*
X4866628Y9354790D01*
X4968502Y9422861D01*
X5055139Y9509498D01*
X5123210Y9611372D01*
X5170097Y9724569D01*
X5194000Y9844738D01*
X5194000Y9895847D01*
X5231536Y9933383D01*
X5293836Y9952282D01*
X5380051Y9998364D01*
X5455619Y10060381D01*
X5517636Y10135949D01*
X5563718Y10222164D01*
X5592096Y10315713D01*
X5601678Y10413000D01*
X5601678Y12063000D01*
X5592096Y12160287D01*
X5563718Y12253836D01*
X5517636Y12340051D01*
X5455619Y12415619D01*
X5380051Y12477636D01*
X5293836Y12523718D01*
X5200287Y12552096D01*
X5103000Y12561678D01*
X4803000Y12561678D01*
X4705713Y12552096D01*
X4612164Y12523718D01*
X4525949Y12477636D01*
X4450381Y12415619D01*
X4388364Y12340051D01*
X4342282Y12253836D01*
X4318000Y12173790D01*
X4293718Y12253836D01*
X4247636Y12340051D01*
X4225376Y12367175D01*
X4241500Y12448238D01*
X4241500Y12570762D01*
X4217597Y12690931D01*
X4170710Y12804128D01*
X4102639Y12906002D01*
X4016002Y12992639D01*
X3914128Y13060710D01*
X3800931Y13107597D01*
X3680762Y13131500D01*
X3558238Y13131500D01*
X3438069Y13107597D01*
X3324872Y13060710D01*
X3222998Y12992639D01*
X3136361Y12906002D01*
X3068290Y12804128D01*
X3021403Y12690931D01*
X3009874Y12632971D01*
X2966040Y12738798D01*
X2897969Y12840672D01*
X2811332Y12927309D01*
X2709458Y12995380D01*
X2596261Y13042267D01*
X2476092Y13066170D01*
X2353568Y13066170D01*
X2233399Y13042267D01*
X2120202Y12995380D01*
X2018328Y12927309D01*
X1931691Y12840672D01*
X1863620Y12738798D01*
X1816733Y12625601D01*
X1792830Y12505432D01*
X1792830Y12382908D01*
X1814104Y12275954D01*
X1802282Y12253836D01*
X1773904Y12160287D01*
X1764322Y12063000D01*
X422000Y12063000D01*
X422000Y18603262D01*
X2807000Y18603262D01*
X2807000Y18480738D01*
X2830903Y18360569D01*
X2877790Y18247372D01*
X2945861Y18145498D01*
X3032498Y18058861D01*
X3134372Y17990790D01*
X3247569Y17943903D01*
X3367738Y17920000D01*
X3490262Y17920000D01*
X3610431Y17943903D01*
X3723628Y17990790D01*
X3825502Y18058861D01*
X3912139Y18145498D01*
X3980210Y18247372D01*
X4027097Y18360569D01*
X4046133Y18456269D01*
X5158864Y19569000D01*
X11341167Y19569000D01*
X11287498Y19533139D01*
X11200861Y19446502D01*
X11132790Y19344628D01*
X11085903Y19231431D01*
X11062000Y19111262D01*
X11062000Y18988738D01*
X11085903Y18868569D01*
X11132790Y18755372D01*
X11200861Y18653498D01*
X11287498Y18566861D01*
X11389372Y18498790D01*
X11502569Y18451903D01*
X11622738Y18428000D01*
X11673848Y18428000D01*
X12918501Y17183345D01*
X12918502Y13252375D01*
X12848678Y13266263D01*
X12848678Y13515000D01*
X12839096Y13612287D01*
X12810718Y13705836D01*
X12764636Y13792051D01*
X12702619Y13867619D01*
X12627051Y13929636D01*
X12540836Y13975718D01*
X12460790Y14000000D01*
X12540836Y14024282D01*
X12627051Y14070364D01*
X12702619Y14132381D01*
X12764636Y14207949D01*
X12810718Y14294164D01*
X12839096Y14387713D01*
X12848678Y14485000D01*
X12848678Y14785000D01*
X12839096Y14882287D01*
X12810718Y14975836D01*
X12764636Y15062051D01*
X12702619Y15137619D01*
X12627051Y15199636D01*
X12540836Y15245718D01*
X12460790Y15270000D01*
X12540836Y15294282D01*
X12627051Y15340364D01*
X12702619Y15402381D01*
X12764636Y15477949D01*
X12810718Y15564164D01*
X12839096Y15657713D01*
X12848678Y15755000D01*
X12848678Y16055000D01*
X12839096Y16152287D01*
X12810718Y16245836D01*
X12764636Y16332051D01*
X12702619Y16407619D01*
X12627051Y16469636D01*
X12540836Y16515718D01*
X12447287Y16544096D01*
X12350000Y16553678D01*
X10909000Y16553678D01*
X10909000Y16571262D01*
X10885097Y16691431D01*
X10838210Y16804628D01*
X10770139Y16906502D01*
X10683502Y16993139D01*
X10581628Y17061210D01*
X10468431Y17108097D01*
X10348262Y17132000D01*
X10225738Y17132000D01*
X10105569Y17108097D01*
X9992372Y17061210D01*
X9890498Y16993139D01*
X9803861Y16906502D01*
X9735790Y16804628D01*
X9688903Y16691431D01*
X9665000Y16571262D01*
X9665000Y16448738D01*
X9688903Y16328569D01*
X9735790Y16215372D01*
X9743001Y16204581D01*
X9743000Y16090152D01*
X9635450Y15982602D01*
X9618395Y15968605D01*
X9562535Y15900540D01*
X9521028Y15822886D01*
X9515603Y15805000D01*
X9497448Y15745149D01*
X9495469Y15738626D01*
X9489000Y15672949D01*
X9489000Y15672942D01*
X9486839Y15651000D01*
X9489000Y15629058D01*
X9489001Y13812000D01*
X8537153Y13812000D01*
X8369000Y13980153D01*
X8369000Y14031262D01*
X8345097Y14151431D01*
X8298210Y14264628D01*
X8230139Y14366502D01*
X8143502Y14453139D01*
X8041628Y14521210D01*
X7928431Y14568097D01*
X7808262Y14592000D01*
X7685738Y14592000D01*
X7565569Y14568097D01*
X7452372Y14521210D01*
X7350498Y14453139D01*
X7263861Y14366502D01*
X7195790Y14264628D01*
X7148903Y14151431D01*
X7125000Y14031262D01*
X7125000Y13908738D01*
X7148903Y13788569D01*
X7195790Y13675372D01*
X7263861Y13573498D01*
X7350498Y13486861D01*
X7452372Y13418790D01*
X7565569Y13371903D01*
X7685738Y13348000D01*
X7736847Y13348000D01*
X8020402Y13064445D01*
X8034395Y13047395D01*
X8102459Y12991535D01*
X8180113Y12950028D01*
X8219934Y12937949D01*
X8264372Y12924469D01*
X8272889Y12923630D01*
X8330050Y12918000D01*
X8330057Y12918000D01*
X8351999Y12915839D01*
X8373942Y12918000D01*
X9914050Y12918000D01*
X9936000Y12915838D01*
X9957950Y12918000D01*
X10301736Y12918000D01*
X10347381Y12862381D01*
X10422949Y12800364D01*
X10509164Y12754282D01*
X10589210Y12730000D01*
X10509164Y12705718D01*
X10422949Y12659636D01*
X10347381Y12597619D01*
X10285364Y12522051D01*
X10239282Y12435836D01*
X10210904Y12342287D01*
X10201322Y12245000D01*
X10201322Y12001816D01*
X10137128Y12044710D01*
X10023931Y12091597D01*
X9903762Y12115500D01*
X9781238Y12115500D01*
X9661069Y12091597D01*
X9547872Y12044710D01*
X9445998Y11976639D01*
X9359361Y11890002D01*
X9291290Y11788128D01*
X9244403Y11674931D01*
X9220500Y11554762D01*
X9220500Y11432238D01*
X9244403Y11312069D01*
X9291290Y11198872D01*
X9359361Y11096998D01*
X9427556Y11028803D01*
X9343569Y11012097D01*
X9230372Y10965210D01*
X9128498Y10897139D01*
X9041861Y10810502D01*
X8973790Y10708628D01*
X8926903Y10595431D01*
X8903000Y10475262D01*
X8903000Y10352738D01*
X8926903Y10232569D01*
X8973790Y10119372D01*
X9041861Y10017498D01*
X9078000Y9981359D01*
X9078001Y7133952D01*
X9075839Y7112000D01*
X9084469Y7024373D01*
X9107607Y6948097D01*
X9110029Y6940113D01*
X9151536Y6862459D01*
X9207396Y6794395D01*
X9224445Y6780403D01*
X9665000Y6339847D01*
X9665000Y6288738D01*
X9688903Y6168569D01*
X9735790Y6055372D01*
X9803861Y5953498D01*
X9890498Y5866861D01*
X9992372Y5798790D01*
X10105569Y5751903D01*
X10225738Y5728000D01*
X10348262Y5728000D01*
X10468431Y5751903D01*
X10581628Y5798790D01*
X10683502Y5866861D01*
X10770139Y5953498D01*
X10838210Y6055372D01*
X10885097Y6168569D01*
X10909000Y6288738D01*
X10909000Y6411262D01*
X10885097Y6531431D01*
X10838210Y6644628D01*
X10770139Y6746502D01*
X10683502Y6833139D01*
X10653924Y6852903D01*
X10706639Y6905618D01*
X10774710Y7007492D01*
X10820077Y7117020D01*
X10831903Y7057569D01*
X10878790Y6944372D01*
X10946861Y6842498D01*
X11033498Y6755861D01*
X11135372Y6687790D01*
X11248569Y6640903D01*
X11368738Y6617000D01*
X11491262Y6617000D01*
X11611431Y6640903D01*
X11724628Y6687790D01*
X11826502Y6755861D01*
X11913139Y6842498D01*
X11981210Y6944372D01*
X12028097Y7057569D01*
X12052000Y7177738D01*
X12052000Y7272000D01*
X12126262Y7272000D01*
X12246431Y7295903D01*
X12359628Y7342790D01*
X12461502Y7410861D01*
X12548139Y7497498D01*
X12616210Y7599372D01*
X12663097Y7712569D01*
X12687000Y7832738D01*
X12687000Y7955262D01*
X12663097Y8075431D01*
X12616210Y8188628D01*
X12548139Y8290502D01*
X12512000Y8326641D01*
X12512000Y9299848D01*
X12761000Y9548848D01*
X12761001Y7100142D01*
X12724861Y7064002D01*
X12656790Y6962128D01*
X12609903Y6848931D01*
X12586000Y6728762D01*
X12586000Y6606238D01*
X12609903Y6486069D01*
X12656790Y6372872D01*
X12724861Y6270998D01*
X12811498Y6184361D01*
X12913372Y6116290D01*
X13026569Y6069403D01*
X13146738Y6045500D01*
X13269262Y6045500D01*
X13389431Y6069403D01*
X13502628Y6116290D01*
X13604502Y6184361D01*
X13691139Y6270998D01*
X13759210Y6372872D01*
X13806097Y6486069D01*
X13830000Y6606238D01*
X13830000Y6728762D01*
X13806097Y6848931D01*
X13769658Y6936903D01*
X13781738Y6934500D01*
X13904262Y6934500D01*
X14024431Y6958403D01*
X14137628Y7005290D01*
X14239502Y7073361D01*
X14326139Y7159998D01*
X14394210Y7261872D01*
X14441097Y7375069D01*
X14465000Y7495238D01*
X14465000Y7506000D01*
X14539262Y7506000D01*
X14659431Y7529903D01*
X14772628Y7576790D01*
X14874502Y7644861D01*
X14961139Y7731498D01*
X15029210Y7833372D01*
X15076097Y7946569D01*
X15100000Y8066738D01*
X15100000Y8189262D01*
X15076097Y8309431D01*
X15029210Y8422628D01*
X14961139Y8524502D01*
X14925000Y8560641D01*
X14925000Y9276348D01*
X15255565Y9606912D01*
X15272615Y9620905D01*
X15328475Y9688969D01*
X15369982Y9766623D01*
X15394202Y9846469D01*
X15395541Y9850882D01*
X15398715Y9883105D01*
X15402010Y9916560D01*
X15402010Y9916567D01*
X15404171Y9938509D01*
X15402010Y9960452D01*
X15402010Y12067250D01*
X17476322Y12067250D01*
X17476322Y11554750D01*
X17487225Y11444050D01*
X17519515Y11337605D01*
X17571951Y11239504D01*
X17642518Y11153518D01*
X17728504Y11082951D01*
X17826605Y11030515D01*
X17933050Y10998225D01*
X18043750Y10987322D01*
X18481250Y10987322D01*
X18591950Y10998225D01*
X18698395Y11030515D01*
X18796496Y11082951D01*
X18882482Y11153518D01*
X18953049Y11239504D01*
X19005485Y11337605D01*
X19037775Y11444050D01*
X19048678Y11554750D01*
X19048678Y11703726D01*
X19051322Y11707683D01*
X19051322Y11554750D01*
X19062225Y11444050D01*
X19094515Y11337605D01*
X19146951Y11239504D01*
X19217518Y11153518D01*
X19303504Y11082951D01*
X19401605Y11030515D01*
X19456408Y11013891D01*
X19444000Y10951512D01*
X19444000Y10828988D01*
X19445422Y10821837D01*
X19442722Y10812936D01*
X19434969Y10787377D01*
X19434331Y10780903D01*
X19428500Y10721699D01*
X19428500Y10721692D01*
X19426339Y10699750D01*
X19428500Y10677807D01*
X19428501Y9456154D01*
X18976348Y9004000D01*
X18925238Y9004000D01*
X18805069Y8980097D01*
X18691872Y8933210D01*
X18589998Y8865139D01*
X18503361Y8778502D01*
X18435290Y8676628D01*
X18388403Y8563431D01*
X18364500Y8443262D01*
X18364500Y8320738D01*
X18388403Y8200569D01*
X18435290Y8087372D01*
X18503361Y7985498D01*
X18589998Y7898861D01*
X18691872Y7830790D01*
X18805069Y7783903D01*
X18925238Y7760000D01*
X19047762Y7760000D01*
X19167931Y7783903D01*
X19281128Y7830790D01*
X19383002Y7898861D01*
X19469639Y7985498D01*
X19537710Y8087372D01*
X19584597Y8200569D01*
X19608500Y8320738D01*
X19608500Y8371848D01*
X20176055Y8939402D01*
X20193105Y8953395D01*
X20248965Y9021459D01*
X20290472Y9099113D01*
X20294240Y9111536D01*
X20316031Y9183372D01*
X20318397Y9207395D01*
X20322500Y9249050D01*
X20322500Y9249057D01*
X20324661Y9271000D01*
X20322500Y9292942D01*
X20322500Y10181949D01*
X20343613Y10216855D01*
X20374392Y10266381D01*
X20402768Y10310631D01*
X20428438Y10349218D01*
X20451274Y10382073D01*
X20470818Y10408739D01*
X20486444Y10428705D01*
X20497068Y10441187D01*
X20506564Y10451173D01*
X20549139Y10493748D01*
X20617210Y10595622D01*
X20664097Y10708819D01*
X20683825Y10808000D01*
X20698762Y10808000D01*
X20818931Y10831903D01*
X20932128Y10878790D01*
X21034002Y10946861D01*
X21120639Y11033498D01*
X21188710Y11135372D01*
X21235597Y11248569D01*
X21259500Y11368738D01*
X21259500Y11491262D01*
X21235597Y11611431D01*
X21188710Y11724628D01*
X21120639Y11826502D01*
X21034002Y11913139D01*
X20932128Y11981210D01*
X20818931Y12028097D01*
X20698762Y12052000D01*
X20647652Y12052000D01*
X20622725Y12076927D01*
X20612775Y12177950D01*
X20580485Y12284395D01*
X20528049Y12382496D01*
X20457482Y12468482D01*
X20371496Y12539049D01*
X20273395Y12591485D01*
X20166950Y12623775D01*
X20056250Y12634678D01*
X19618750Y12634678D01*
X19508050Y12623775D01*
X19401605Y12591485D01*
X19303504Y12539049D01*
X19217518Y12468482D01*
X19146951Y12382496D01*
X19111337Y12315866D01*
X19093210Y12359628D01*
X19025139Y12461502D01*
X18938502Y12548139D01*
X18836628Y12616210D01*
X18723431Y12663097D01*
X18603262Y12687000D01*
X18480738Y12687000D01*
X18360569Y12663097D01*
X18291958Y12634678D01*
X18043750Y12634678D01*
X17933050Y12623775D01*
X17826605Y12591485D01*
X17728504Y12539049D01*
X17642518Y12468482D01*
X17571951Y12382496D01*
X17519515Y12284395D01*
X17487225Y12177950D01*
X17476322Y12067250D01*
X15402010Y12067250D01*
X15402010Y12784831D01*
X15459164Y12754282D01*
X15552713Y12725904D01*
X15650000Y12716322D01*
X17300000Y12716322D01*
X17397287Y12725904D01*
X17490836Y12754282D01*
X17577051Y12800364D01*
X17652619Y12862381D01*
X17714636Y12937949D01*
X17760718Y13024164D01*
X17789096Y13117713D01*
X17798678Y13215000D01*
X17798678Y13515000D01*
X17789096Y13612287D01*
X17760718Y13705836D01*
X17714636Y13792051D01*
X17652619Y13867619D01*
X17577051Y13929636D01*
X17490836Y13975718D01*
X17410790Y14000000D01*
X17490836Y14024282D01*
X17577051Y14070364D01*
X17652619Y14132381D01*
X17714636Y14207949D01*
X17760718Y14294164D01*
X17789096Y14387713D01*
X17798678Y14485000D01*
X17798678Y14785000D01*
X17789096Y14882287D01*
X17760718Y14975836D01*
X17714636Y15062051D01*
X17652619Y15137619D01*
X17577051Y15199636D01*
X17490836Y15245718D01*
X17410790Y15270000D01*
X17490836Y15294282D01*
X17577051Y15340364D01*
X17652619Y15402381D01*
X17714636Y15477949D01*
X17760718Y15564164D01*
X17789096Y15657713D01*
X17798678Y15755000D01*
X17798678Y16055000D01*
X17789096Y16152287D01*
X17760718Y16245836D01*
X17714636Y16332051D01*
X17652619Y16407619D01*
X17577051Y16469636D01*
X17490836Y16515718D01*
X17397287Y16544096D01*
X17300000Y16553678D01*
X15650000Y16553678D01*
X15552713Y16544096D01*
X15459164Y16515718D01*
X15372949Y16469636D01*
X15297381Y16407619D01*
X15235364Y16332051D01*
X15189282Y16245836D01*
X15182141Y16222296D01*
X15168407Y16205561D01*
X13923450Y14960602D01*
X13906395Y14946605D01*
X13850535Y14878540D01*
X13812501Y14807384D01*
X13812501Y17346554D01*
X13814662Y17368499D01*
X13806033Y17456127D01*
X13780473Y17540386D01*
X13738966Y17618040D01*
X13717125Y17644652D01*
X13697099Y17669055D01*
X13697094Y17669060D01*
X13683106Y17686104D01*
X13666063Y17700091D01*
X12306000Y19060152D01*
X12306000Y19111262D01*
X12282097Y19231431D01*
X12235210Y19344628D01*
X12167139Y19446502D01*
X12080502Y19533139D01*
X11978628Y19601210D01*
X11916723Y19626852D01*
X11961454Y19650761D01*
X12037132Y19712868D01*
X12052692Y19731828D01*
X14852868Y22532004D01*
X15248652Y22192760D01*
X15284550Y22165536D01*
X15349728Y22130697D01*
X15420451Y22109244D01*
X15494000Y22102000D01*
X20302331Y22102000D01*
X20705000Y21739598D01*
X20705000Y12573000D01*
X20712244Y12499451D01*
X20733697Y12428728D01*
X20768536Y12363550D01*
X20815421Y12306421D01*
X20872550Y12259536D01*
X20937728Y12224697D01*
X21008451Y12203244D01*
X21082000Y12196000D01*
X22923500Y12196000D01*
X22997049Y12203244D01*
X23067772Y12224697D01*
X23132950Y12259536D01*
X23190079Y12306421D01*
X23236964Y12363550D01*
X23271803Y12428728D01*
X23293256Y12499451D01*
X23300500Y12573000D01*
X23300500Y15026000D01*
X25519322Y15026000D01*
X25519322Y13676000D01*
X25526022Y13607976D01*
X25545864Y13542567D01*
X25578085Y13482285D01*
X25621447Y13429447D01*
X25674285Y13386085D01*
X25734567Y13353864D01*
X25799976Y13334022D01*
X25868000Y13327322D01*
X27218000Y13327322D01*
X27286024Y13334022D01*
X27351433Y13353864D01*
X27411715Y13386085D01*
X27464553Y13429447D01*
X27507915Y13482285D01*
X27540136Y13542567D01*
X27559978Y13607976D01*
X27566678Y13676000D01*
X27566678Y15026000D01*
X27559978Y15094024D01*
X27540136Y15159433D01*
X27507915Y15219715D01*
X27464553Y15272553D01*
X27411715Y15315915D01*
X27351433Y15348136D01*
X27286024Y15367978D01*
X27218000Y15374678D01*
X26856564Y15374678D01*
X27027099Y15445315D01*
X27194487Y15557161D01*
X27336839Y15699513D01*
X27448685Y15866901D01*
X27525725Y16052894D01*
X27565000Y16250342D01*
X27565000Y16451658D01*
X27525725Y16649106D01*
X27448685Y16835099D01*
X27336839Y17002487D01*
X27194487Y17144839D01*
X27027099Y17256685D01*
X26841106Y17333725D01*
X26754259Y17351000D01*
X26841106Y17368275D01*
X27027099Y17445315D01*
X27194487Y17557161D01*
X27336839Y17699513D01*
X27448685Y17866901D01*
X27525725Y18052894D01*
X27565000Y18250342D01*
X27565000Y18451658D01*
X27525725Y18649106D01*
X27448685Y18835099D01*
X27336839Y19002487D01*
X27194487Y19144839D01*
X27027099Y19256685D01*
X26841106Y19333725D01*
X26754259Y19351000D01*
X26841106Y19368275D01*
X27027099Y19445315D01*
X27194487Y19557161D01*
X27336839Y19699513D01*
X27448685Y19866901D01*
X27525725Y20052894D01*
X27565000Y20250342D01*
X27565000Y20451658D01*
X27525725Y20649106D01*
X27448685Y20835099D01*
X27336839Y21002487D01*
X27194487Y21144839D01*
X27027099Y21256685D01*
X26841106Y21333725D01*
X26643658Y21373000D01*
X26442342Y21373000D01*
X26244894Y21333725D01*
X26058901Y21256685D01*
X25891513Y21144839D01*
X25749161Y21002487D01*
X25637315Y20835099D01*
X25560275Y20649106D01*
X25521000Y20451658D01*
X25521000Y20250342D01*
X25560275Y20052894D01*
X25637315Y19866901D01*
X25749161Y19699513D01*
X25891513Y19557161D01*
X26058901Y19445315D01*
X26244894Y19368275D01*
X26331741Y19351000D01*
X26244894Y19333725D01*
X26058901Y19256685D01*
X25891513Y19144839D01*
X25749161Y19002487D01*
X25637315Y18835099D01*
X25560275Y18649106D01*
X25521000Y18451658D01*
X25521000Y18250342D01*
X25560275Y18052894D01*
X25637315Y17866901D01*
X25749161Y17699513D01*
X25891513Y17557161D01*
X26058901Y17445315D01*
X26244894Y17368275D01*
X26331741Y17351000D01*
X26244894Y17333725D01*
X26058901Y17256685D01*
X25891513Y17144839D01*
X25749161Y17002487D01*
X25637315Y16835099D01*
X25560275Y16649106D01*
X25521000Y16451658D01*
X25521000Y16250342D01*
X25560275Y16052894D01*
X25637315Y15866901D01*
X25749161Y15699513D01*
X25891513Y15557161D01*
X26058901Y15445315D01*
X26229436Y15374678D01*
X25868000Y15374678D01*
X25799976Y15367978D01*
X25734567Y15348136D01*
X25674285Y15315915D01*
X25621447Y15272553D01*
X25578085Y15219715D01*
X25545864Y15159433D01*
X25526022Y15094024D01*
X25519322Y15026000D01*
X23300500Y15026000D01*
X23300500Y20309455D01*
X23378000Y20301822D01*
X24628000Y20301822D01*
X24744796Y20313325D01*
X24779986Y20324000D01*
X24892000Y20324000D01*
X24965549Y20331244D01*
X25036272Y20352697D01*
X25101450Y20387536D01*
X25158579Y20434421D01*
X25205464Y20491550D01*
X25240303Y20556728D01*
X25261756Y20627451D01*
X25269000Y20701000D01*
X25269000Y22098000D01*
X25261756Y22171549D01*
X25240303Y22242272D01*
X25205464Y22307450D01*
X25158579Y22364579D01*
X25101450Y22411464D01*
X25036272Y22446303D01*
X24965549Y22467756D01*
X24892000Y22475000D01*
X23270158Y22475000D01*
X21602579Y24142579D01*
X21545450Y24189464D01*
X21480272Y24224303D01*
X21409549Y24245756D01*
X21336000Y24253000D01*
X16896245Y24253000D01*
X16506000Y24565196D01*
X16506000Y26098500D01*
X16498756Y26172049D01*
X16477303Y26242772D01*
X16442464Y26307950D01*
X16395579Y26365079D01*
X16338450Y26411964D01*
X16273272Y26446803D01*
X16202549Y26468256D01*
X16129000Y26475500D01*
X14605000Y26475500D01*
X14531451Y26468256D01*
X14460728Y26446803D01*
X14395550Y26411964D01*
X14338421Y26365079D01*
X14291536Y26307950D01*
X14256697Y26242772D01*
X14235244Y26172049D01*
X14228000Y26098500D01*
X14228000Y25741136D01*
X14214647Y25785155D01*
X14126712Y25949671D01*
X14008370Y26093870D01*
X13864171Y26212212D01*
X13699655Y26300147D01*
X13521144Y26354298D01*
X13335500Y26372582D01*
X13149857Y26354298D01*
X12971346Y26300147D01*
X12806830Y26212212D01*
X12662631Y26093870D01*
X12544289Y25949671D01*
X12456353Y25785155D01*
X12402202Y25606644D01*
X12388500Y25467523D01*
X12388500Y24824478D01*
X12402202Y24685357D01*
X12456353Y24506846D01*
X12544288Y24342329D01*
X12662630Y24198130D01*
X12806829Y24079788D01*
X12971345Y23991853D01*
X13149856Y23937702D01*
X13335500Y23919418D01*
X13521143Y23937702D01*
X13699654Y23991853D01*
X13864171Y24079788D01*
X14008370Y24198130D01*
X14126712Y24342329D01*
X14214647Y24506845D01*
X14228000Y24550864D01*
X14228000Y23312864D01*
X11478136Y20563000D01*
X4977397Y20563000D01*
X4952999Y20565403D01*
X4928601Y20563000D01*
X4928592Y20563000D01*
X4855571Y20555808D01*
X4761886Y20527389D01*
X4675546Y20481239D01*
X4599868Y20419132D01*
X4584309Y20400173D01*
X3343269Y19159133D01*
X3247569Y19140097D01*
X3134372Y19093210D01*
X3032498Y19025139D01*
X2945861Y18938502D01*
X2877790Y18836628D01*
X2830903Y18723431D01*
X2807000Y18603262D01*
X422000Y18603262D01*
X422000Y25467523D01*
X10388500Y25467523D01*
X10388500Y24824478D01*
X10402202Y24685357D01*
X10456353Y24506846D01*
X10544288Y24342329D01*
X10662630Y24198130D01*
X10806829Y24079788D01*
X10971345Y23991853D01*
X11149856Y23937702D01*
X11335500Y23919418D01*
X11521143Y23937702D01*
X11699654Y23991853D01*
X11864171Y24079788D01*
X12008370Y24198130D01*
X12126712Y24342329D01*
X12214647Y24506845D01*
X12268798Y24685356D01*
X12282500Y24824477D01*
X12282500Y25467523D01*
X12268798Y25606644D01*
X12214647Y25785155D01*
X12126712Y25949671D01*
X12008370Y26093870D01*
X11864171Y26212212D01*
X11699655Y26300147D01*
X11521144Y26354298D01*
X11335500Y26372582D01*
X11149857Y26354298D01*
X10971346Y26300147D01*
X10806830Y26212212D01*
X10662631Y26093870D01*
X10544289Y25949671D01*
X10456353Y25785155D01*
X10402202Y25606644D01*
X10388500Y25467523D01*
X422000Y25467523D01*
X422000Y25979360D01*
X454038Y26306109D01*
X542937Y26600557D01*
X687336Y26872131D01*
X881735Y27110488D01*
X1118723Y27306542D01*
X1389286Y27452835D01*
X1683108Y27543787D01*
X2008617Y27578000D01*
X25979360Y27578000D01*
X26306109Y27545962D01*
D23*
%TO.N,VCC*%
G36*
X8009554Y13957439D02*
G01*
X8010002Y13941331D01*
X8010068Y13940338D01*
X8012720Y13915447D01*
X8012872Y13914426D01*
X8017466Y13890210D01*
X8017706Y13889180D01*
X8024241Y13865639D01*
X8024570Y13864622D01*
X8033046Y13841757D01*
X8033458Y13840774D01*
X8043875Y13818583D01*
X8044359Y13817654D01*
X8056718Y13796139D01*
X8057258Y13795280D01*
X8071557Y13774440D01*
X8072138Y13773659D01*
X8088379Y13753493D01*
X8088984Y13752796D01*
X8098798Y13742275D01*
X7974725Y13618202D01*
X7964204Y13628016D01*
X7963507Y13628621D01*
X7943341Y13644862D01*
X7942560Y13645443D01*
X7921720Y13659742D01*
X7920861Y13660282D01*
X7899346Y13672641D01*
X7898417Y13673125D01*
X7876226Y13683542D01*
X7875243Y13683954D01*
X7852378Y13692430D01*
X7851361Y13692759D01*
X7827820Y13699294D01*
X7826790Y13699534D01*
X7802574Y13704128D01*
X7801553Y13704280D01*
X7776662Y13706932D01*
X7775669Y13706998D01*
X7759561Y13707446D01*
X7667752Y14049248D01*
X8009554Y13957439D01*
G37*
X8009554Y13957439D02*
X8010002Y13941331D01*
X8010068Y13940338D01*
X8012720Y13915447D01*
X8012872Y13914426D01*
X8017466Y13890210D01*
X8017706Y13889180D01*
X8024241Y13865639D01*
X8024570Y13864622D01*
X8033046Y13841757D01*
X8033458Y13840774D01*
X8043875Y13818583D01*
X8044359Y13817654D01*
X8056718Y13796139D01*
X8057258Y13795280D01*
X8071557Y13774440D01*
X8072138Y13773659D01*
X8088379Y13753493D01*
X8088984Y13752796D01*
X8098798Y13742275D01*
X7974725Y13618202D01*
X7964204Y13628016D01*
X7963507Y13628621D01*
X7943341Y13644862D01*
X7942560Y13645443D01*
X7921720Y13659742D01*
X7920861Y13660282D01*
X7899346Y13672641D01*
X7898417Y13673125D01*
X7876226Y13683542D01*
X7875243Y13683954D01*
X7852378Y13692430D01*
X7851361Y13692759D01*
X7827820Y13699294D01*
X7826790Y13699534D01*
X7802574Y13704128D01*
X7801553Y13704280D01*
X7776662Y13706932D01*
X7775669Y13706998D01*
X7759561Y13707446D01*
X7667752Y14049248D01*
X8009554Y13957439D01*
G36*
X11649574Y15905000D02*
G01*
X11312613Y15710728D01*
X11297392Y15725127D01*
X11296644Y15725781D01*
X11273491Y15744481D01*
X11272663Y15745096D01*
X11248450Y15761596D01*
X11247553Y15762154D01*
X11222282Y15776454D01*
X11221330Y15776941D01*
X11195000Y15789041D01*
X11194014Y15789445D01*
X11166625Y15799345D01*
X11165626Y15799660D01*
X11137177Y15807360D01*
X11136186Y15807586D01*
X11106679Y15813086D01*
X11105715Y15813228D01*
X11075148Y15816528D01*
X11074226Y15816593D01*
X11054860Y15817266D01*
X11054860Y15992734D01*
X11074226Y15993408D01*
X11075148Y15993473D01*
X11105715Y15996773D01*
X11106679Y15996915D01*
X11136186Y16002415D01*
X11137177Y16002641D01*
X11165626Y16010341D01*
X11166625Y16010656D01*
X11194014Y16020556D01*
X11195000Y16020960D01*
X11221330Y16033060D01*
X11222282Y16033547D01*
X11247553Y16047847D01*
X11248450Y16048405D01*
X11272663Y16064905D01*
X11273491Y16065520D01*
X11296644Y16084220D01*
X11297391Y16084874D01*
X11312612Y16099272D01*
X11649574Y15905000D01*
G37*
X11649574Y15905000D02*
X11312613Y15710728D01*
X11297392Y15725127D01*
X11296644Y15725781D01*
X11273491Y15744481D01*
X11272663Y15745096D01*
X11248450Y15761596D01*
X11247553Y15762154D01*
X11222282Y15776454D01*
X11221330Y15776941D01*
X11195000Y15789041D01*
X11194014Y15789445D01*
X11166625Y15799345D01*
X11165626Y15799660D01*
X11137177Y15807360D01*
X11136186Y15807586D01*
X11106679Y15813086D01*
X11105715Y15813228D01*
X11075148Y15816528D01*
X11074226Y15816593D01*
X11054860Y15817266D01*
X11054860Y15992734D01*
X11074226Y15993408D01*
X11075148Y15993473D01*
X11105715Y15996773D01*
X11106679Y15996915D01*
X11136186Y16002415D01*
X11137177Y16002641D01*
X11165626Y16010341D01*
X11166625Y16010656D01*
X11194014Y16020556D01*
X11195000Y16020960D01*
X11221330Y16033060D01*
X11222282Y16033547D01*
X11247553Y16047847D01*
X11248450Y16048405D01*
X11272663Y16064905D01*
X11273491Y16065520D01*
X11296644Y16084220D01*
X11297391Y16084874D01*
X11312612Y16099272D01*
X11649574Y15905000D01*
G36*
X11649574Y13365000D02*
G01*
X11312613Y13170728D01*
X11297392Y13185127D01*
X11296644Y13185781D01*
X11273491Y13204481D01*
X11272663Y13205096D01*
X11248450Y13221596D01*
X11247553Y13222154D01*
X11222282Y13236454D01*
X11221330Y13236941D01*
X11195000Y13249041D01*
X11194014Y13249445D01*
X11166625Y13259345D01*
X11165626Y13259660D01*
X11137177Y13267360D01*
X11136186Y13267586D01*
X11106679Y13273086D01*
X11105715Y13273228D01*
X11075148Y13276528D01*
X11074226Y13276593D01*
X11054860Y13277266D01*
X11054860Y13452734D01*
X11074226Y13453408D01*
X11075148Y13453473D01*
X11105715Y13456773D01*
X11106679Y13456915D01*
X11136186Y13462415D01*
X11137177Y13462641D01*
X11165626Y13470341D01*
X11166625Y13470656D01*
X11194014Y13480556D01*
X11195000Y13480960D01*
X11221330Y13493060D01*
X11222282Y13493547D01*
X11247553Y13507847D01*
X11248450Y13508405D01*
X11272663Y13524905D01*
X11273491Y13525520D01*
X11296644Y13544220D01*
X11297391Y13544874D01*
X11312612Y13559272D01*
X11649574Y13365000D01*
G37*
X11649574Y13365000D02*
X11312613Y13170728D01*
X11297392Y13185127D01*
X11296644Y13185781D01*
X11273491Y13204481D01*
X11272663Y13205096D01*
X11248450Y13221596D01*
X11247553Y13222154D01*
X11222282Y13236454D01*
X11221330Y13236941D01*
X11195000Y13249041D01*
X11194014Y13249445D01*
X11166625Y13259345D01*
X11165626Y13259660D01*
X11137177Y13267360D01*
X11136186Y13267586D01*
X11106679Y13273086D01*
X11105715Y13273228D01*
X11075148Y13276528D01*
X11074226Y13276593D01*
X11054860Y13277266D01*
X11054860Y13452734D01*
X11074226Y13453408D01*
X11075148Y13453473D01*
X11105715Y13456773D01*
X11106679Y13456915D01*
X11136186Y13462415D01*
X11137177Y13462641D01*
X11165626Y13470341D01*
X11166625Y13470656D01*
X11194014Y13480556D01*
X11195000Y13480960D01*
X11221330Y13493060D01*
X11222282Y13493547D01*
X11247553Y13507847D01*
X11248450Y13508405D01*
X11272663Y13524905D01*
X11273491Y13525520D01*
X11296644Y13544220D01*
X11297391Y13544874D01*
X11312612Y13559272D01*
X11649574Y13365000D01*
G36*
X4923798Y10133725D02*
G01*
X4913984Y10123205D01*
X4913379Y10122508D01*
X4897138Y10102342D01*
X4896557Y10101561D01*
X4882258Y10080721D01*
X4881718Y10079862D01*
X4869359Y10058347D01*
X4868875Y10057418D01*
X4858458Y10035227D01*
X4858046Y10034244D01*
X4849570Y10011379D01*
X4849241Y10010362D01*
X4842706Y9986821D01*
X4842466Y9985791D01*
X4837872Y9961575D01*
X4837720Y9960554D01*
X4835068Y9935663D01*
X4835002Y9934670D01*
X4834554Y9918561D01*
X4492752Y9826752D01*
X4584561Y10168554D01*
X4600670Y10169003D01*
X4601662Y10169069D01*
X4626553Y10171721D01*
X4627574Y10171873D01*
X4651790Y10176467D01*
X4652820Y10176707D01*
X4676361Y10183242D01*
X4677378Y10183571D01*
X4700243Y10192047D01*
X4701226Y10192459D01*
X4723417Y10202876D01*
X4724346Y10203360D01*
X4745861Y10215719D01*
X4746720Y10216259D01*
X4767560Y10230558D01*
X4768341Y10231139D01*
X4788507Y10247380D01*
X4789204Y10247984D01*
X4799725Y10257798D01*
X4923798Y10133725D01*
G37*
X4923798Y10133725D02*
X4913984Y10123205D01*
X4913379Y10122508D01*
X4897138Y10102342D01*
X4896557Y10101561D01*
X4882258Y10080721D01*
X4881718Y10079862D01*
X4869359Y10058347D01*
X4868875Y10057418D01*
X4858458Y10035227D01*
X4858046Y10034244D01*
X4849570Y10011379D01*
X4849241Y10010362D01*
X4842706Y9986821D01*
X4842466Y9985791D01*
X4837872Y9961575D01*
X4837720Y9960554D01*
X4835068Y9935663D01*
X4835002Y9934670D01*
X4834554Y9918561D01*
X4492752Y9826752D01*
X4584561Y10168554D01*
X4600670Y10169003D01*
X4601662Y10169069D01*
X4626553Y10171721D01*
X4627574Y10171873D01*
X4651790Y10176467D01*
X4652820Y10176707D01*
X4676361Y10183242D01*
X4677378Y10183571D01*
X4700243Y10192047D01*
X4701226Y10192459D01*
X4723417Y10202876D01*
X4724346Y10203360D01*
X4745861Y10215719D01*
X4746720Y10216259D01*
X4767560Y10230558D01*
X4768341Y10231139D01*
X4788507Y10247380D01*
X4789204Y10247984D01*
X4799725Y10257798D01*
X4923798Y10133725D01*
G36*
X5147272Y11025613D02*
G01*
X5132873Y11010393D01*
X5132219Y11009645D01*
X5113519Y10986492D01*
X5112904Y10985664D01*
X5096404Y10961451D01*
X5095846Y10960554D01*
X5081546Y10935283D01*
X5081059Y10934331D01*
X5068959Y10908001D01*
X5068555Y10907015D01*
X5058655Y10879626D01*
X5058340Y10878627D01*
X5050640Y10850178D01*
X5050414Y10849187D01*
X5044914Y10819680D01*
X5044772Y10818716D01*
X5041472Y10788149D01*
X5041407Y10787227D01*
X5040734Y10767860D01*
X4865266Y10767860D01*
X4864592Y10787227D01*
X4864527Y10788149D01*
X4861227Y10818716D01*
X4861085Y10819680D01*
X4855585Y10849187D01*
X4855359Y10850178D01*
X4847659Y10878627D01*
X4847344Y10879626D01*
X4837444Y10907015D01*
X4837040Y10908001D01*
X4824940Y10934331D01*
X4824453Y10935283D01*
X4810153Y10960554D01*
X4809595Y10961451D01*
X4793095Y10985664D01*
X4792480Y10986492D01*
X4773780Y11009645D01*
X4773126Y11010393D01*
X4758728Y11025613D01*
X4953000Y11362574D01*
X5147272Y11025613D01*
G37*
X5147272Y11025613D02*
X5132873Y11010393D01*
X5132219Y11009645D01*
X5113519Y10986492D01*
X5112904Y10985664D01*
X5096404Y10961451D01*
X5095846Y10960554D01*
X5081546Y10935283D01*
X5081059Y10934331D01*
X5068959Y10908001D01*
X5068555Y10907015D01*
X5058655Y10879626D01*
X5058340Y10878627D01*
X5050640Y10850178D01*
X5050414Y10849187D01*
X5044914Y10819680D01*
X5044772Y10818716D01*
X5041472Y10788149D01*
X5041407Y10787227D01*
X5040734Y10767860D01*
X4865266Y10767860D01*
X4864592Y10787227D01*
X4864527Y10788149D01*
X4861227Y10818716D01*
X4861085Y10819680D01*
X4855585Y10849187D01*
X4855359Y10850178D01*
X4847659Y10878627D01*
X4847344Y10879626D01*
X4837444Y10907015D01*
X4837040Y10908001D01*
X4824940Y10934331D01*
X4824453Y10935283D01*
X4810153Y10960554D01*
X4809595Y10961451D01*
X4793095Y10985664D01*
X4792480Y10986492D01*
X4773780Y11009645D01*
X4773126Y11010393D01*
X4758728Y11025613D01*
X4953000Y11362574D01*
X5147272Y11025613D01*
G36*
X6847577Y1941868D02*
G01*
X6847890Y1939965D01*
X6854580Y1912524D01*
X6855047Y1911023D01*
X6866197Y1881667D01*
X6866706Y1880504D01*
X6882316Y1849234D01*
X6882812Y1848334D01*
X6902882Y1815148D01*
X6903339Y1814445D01*
X6927869Y1779345D01*
X6928281Y1778789D01*
X6957271Y1741774D01*
X6957636Y1741328D01*
X6991086Y1702398D01*
X6991411Y1702035D01*
X7029321Y1661191D01*
X7029608Y1660892D01*
X7065157Y1625017D01*
X6731000Y1045426D01*
X6396843Y1625017D01*
X6432391Y1660892D01*
X6432678Y1661191D01*
X6470588Y1702035D01*
X6470913Y1702398D01*
X6504363Y1741328D01*
X6504728Y1741774D01*
X6533718Y1778789D01*
X6534130Y1779345D01*
X6558660Y1814445D01*
X6559117Y1815148D01*
X6579187Y1848334D01*
X6579683Y1849234D01*
X6595293Y1880504D01*
X6595802Y1881667D01*
X6606952Y1911023D01*
X6607419Y1912524D01*
X6614109Y1939965D01*
X6614422Y1941867D01*
X6615640Y1955799D01*
X6846360Y1955799D01*
X6847577Y1941868D01*
G37*
X6847577Y1941868D02*
X6847890Y1939965D01*
X6854580Y1912524D01*
X6855047Y1911023D01*
X6866197Y1881667D01*
X6866706Y1880504D01*
X6882316Y1849234D01*
X6882812Y1848334D01*
X6902882Y1815148D01*
X6903339Y1814445D01*
X6927869Y1779345D01*
X6928281Y1778789D01*
X6957271Y1741774D01*
X6957636Y1741328D01*
X6991086Y1702398D01*
X6991411Y1702035D01*
X7029321Y1661191D01*
X7029608Y1660892D01*
X7065157Y1625017D01*
X6731000Y1045426D01*
X6396843Y1625017D01*
X6432391Y1660892D01*
X6432678Y1661191D01*
X6470588Y1702035D01*
X6470913Y1702398D01*
X6504363Y1741328D01*
X6504728Y1741774D01*
X6533718Y1778789D01*
X6534130Y1779345D01*
X6558660Y1814445D01*
X6559117Y1815148D01*
X6579187Y1848334D01*
X6579683Y1849234D01*
X6595293Y1880504D01*
X6595802Y1881667D01*
X6606952Y1911023D01*
X6607419Y1912524D01*
X6614109Y1939965D01*
X6614422Y1941867D01*
X6615640Y1955799D01*
X6846360Y1955799D01*
X6847577Y1941868D01*
G36*
X5533058Y3416438D02*
G01*
X5533302Y3407782D01*
X5533370Y3406781D01*
X5535269Y3389134D01*
X5535422Y3388105D01*
X5538711Y3370922D01*
X5538954Y3369889D01*
X5543631Y3353169D01*
X5543964Y3352149D01*
X5550031Y3335893D01*
X5550445Y3334912D01*
X5557900Y3319121D01*
X5558384Y3318196D01*
X5567228Y3302867D01*
X5567767Y3302012D01*
X5578000Y3287148D01*
X5578578Y3286375D01*
X5590199Y3271974D01*
X5590799Y3271282D01*
X5595436Y3266315D01*
X5433185Y3104064D01*
X5428218Y3108701D01*
X5427526Y3109301D01*
X5413125Y3120922D01*
X5412352Y3121500D01*
X5397488Y3131733D01*
X5396633Y3132272D01*
X5381304Y3141116D01*
X5380379Y3141600D01*
X5364588Y3149055D01*
X5363607Y3149469D01*
X5347351Y3155536D01*
X5346331Y3155869D01*
X5329611Y3160546D01*
X5328578Y3160789D01*
X5311395Y3164078D01*
X5310366Y3164231D01*
X5292719Y3166130D01*
X5291718Y3166198D01*
X5283062Y3166442D01*
X5191252Y3508248D01*
X5533058Y3416438D01*
G37*
X5533058Y3416438D02*
X5533302Y3407782D01*
X5533370Y3406781D01*
X5535269Y3389134D01*
X5535422Y3388105D01*
X5538711Y3370922D01*
X5538954Y3369889D01*
X5543631Y3353169D01*
X5543964Y3352149D01*
X5550031Y3335893D01*
X5550445Y3334912D01*
X5557900Y3319121D01*
X5558384Y3318196D01*
X5567228Y3302867D01*
X5567767Y3302012D01*
X5578000Y3287148D01*
X5578578Y3286375D01*
X5590199Y3271974D01*
X5590799Y3271282D01*
X5595436Y3266315D01*
X5433185Y3104064D01*
X5428218Y3108701D01*
X5427526Y3109301D01*
X5413125Y3120922D01*
X5412352Y3121500D01*
X5397488Y3131733D01*
X5396633Y3132272D01*
X5381304Y3141116D01*
X5380379Y3141600D01*
X5364588Y3149055D01*
X5363607Y3149469D01*
X5347351Y3155536D01*
X5346331Y3155869D01*
X5329611Y3160546D01*
X5328578Y3160789D01*
X5311395Y3164078D01*
X5310366Y3164231D01*
X5292719Y3166130D01*
X5291718Y3166198D01*
X5283062Y3166442D01*
X5191252Y3508248D01*
X5533058Y3416438D01*
G36*
X10463765Y16315477D02*
G01*
X10451740Y16302800D01*
X10451193Y16302185D01*
X10432558Y16279799D01*
X10432122Y16279244D01*
X10413397Y16254022D01*
X10413046Y16253525D01*
X10394231Y16225468D01*
X10393946Y16225024D01*
X10375041Y16194132D01*
X10374808Y16193735D01*
X10355813Y16160008D01*
X10355621Y16159653D01*
X10336536Y16123091D01*
X10336375Y16122772D01*
X10317200Y16083374D01*
X10317064Y16083087D01*
X10297799Y16040854D01*
X10297685Y16040594D01*
X10281633Y16003215D01*
X10108557Y16003215D01*
X10119343Y16030985D01*
X10119584Y16031660D01*
X10133299Y16073893D01*
X10133535Y16074714D01*
X10143460Y16114112D01*
X10143670Y16115112D01*
X10149805Y16151674D01*
X10149949Y16152895D01*
X10152294Y16186622D01*
X10152311Y16188096D01*
X10150866Y16218988D01*
X10150665Y16220724D01*
X10145430Y16248781D01*
X10144903Y16250731D01*
X10135878Y16275953D01*
X10134942Y16277983D01*
X10122127Y16300369D01*
X10120785Y16302281D01*
X10109969Y16315016D01*
X10287000Y16622074D01*
X10463765Y16315477D01*
G37*
X10463765Y16315477D02*
X10451740Y16302800D01*
X10451193Y16302185D01*
X10432558Y16279799D01*
X10432122Y16279244D01*
X10413397Y16254022D01*
X10413046Y16253525D01*
X10394231Y16225468D01*
X10393946Y16225024D01*
X10375041Y16194132D01*
X10374808Y16193735D01*
X10355813Y16160008D01*
X10355621Y16159653D01*
X10336536Y16123091D01*
X10336375Y16122772D01*
X10317200Y16083374D01*
X10317064Y16083087D01*
X10297799Y16040854D01*
X10297685Y16040594D01*
X10281633Y16003215D01*
X10108557Y16003215D01*
X10119343Y16030985D01*
X10119584Y16031660D01*
X10133299Y16073893D01*
X10133535Y16074714D01*
X10143460Y16114112D01*
X10143670Y16115112D01*
X10149805Y16151674D01*
X10149949Y16152895D01*
X10152294Y16186622D01*
X10152311Y16188096D01*
X10150866Y16218988D01*
X10150665Y16220724D01*
X10145430Y16248781D01*
X10144903Y16250731D01*
X10135878Y16275953D01*
X10134942Y16277983D01*
X10122127Y16300369D01*
X10120785Y16302281D01*
X10109969Y16315016D01*
X10287000Y16622074D01*
X10463765Y16315477D01*
G36*
X20420295Y11771985D02*
G01*
X20420992Y11771380D01*
X20441158Y11755139D01*
X20441939Y11754558D01*
X20462779Y11740259D01*
X20463638Y11739719D01*
X20485153Y11727360D01*
X20486082Y11726876D01*
X20508273Y11716459D01*
X20509256Y11716047D01*
X20532121Y11707571D01*
X20533138Y11707242D01*
X20556679Y11700707D01*
X20557709Y11700467D01*
X20581925Y11695873D01*
X20582946Y11695721D01*
X20607837Y11693069D01*
X20608829Y11693003D01*
X20624939Y11692554D01*
X20716748Y11350752D01*
X20374946Y11442561D01*
X20374497Y11458671D01*
X20374431Y11459663D01*
X20371779Y11484554D01*
X20371627Y11485575D01*
X20367033Y11509791D01*
X20366793Y11510821D01*
X20360258Y11534362D01*
X20359929Y11535379D01*
X20351453Y11558244D01*
X20351041Y11559227D01*
X20340624Y11581418D01*
X20340140Y11582347D01*
X20327781Y11603862D01*
X20327241Y11604721D01*
X20312942Y11625561D01*
X20312361Y11626342D01*
X20296120Y11646508D01*
X20295515Y11647205D01*
X20285702Y11657725D01*
X20409775Y11781798D01*
X20420295Y11771985D01*
G37*
X20420295Y11771985D02*
X20420992Y11771380D01*
X20441158Y11755139D01*
X20441939Y11754558D01*
X20462779Y11740259D01*
X20463638Y11739719D01*
X20485153Y11727360D01*
X20486082Y11726876D01*
X20508273Y11716459D01*
X20509256Y11716047D01*
X20532121Y11707571D01*
X20533138Y11707242D01*
X20556679Y11700707D01*
X20557709Y11700467D01*
X20581925Y11695873D01*
X20582946Y11695721D01*
X20607837Y11693069D01*
X20608829Y11693003D01*
X20624939Y11692554D01*
X20716748Y11350752D01*
X20374946Y11442561D01*
X20374497Y11458671D01*
X20374431Y11459663D01*
X20371779Y11484554D01*
X20371627Y11485575D01*
X20367033Y11509791D01*
X20366793Y11510821D01*
X20360258Y11534362D01*
X20359929Y11535379D01*
X20351453Y11558244D01*
X20351041Y11559227D01*
X20340624Y11581418D01*
X20340140Y11582347D01*
X20327781Y11603862D01*
X20327241Y11604721D01*
X20312942Y11625561D01*
X20312361Y11626342D01*
X20296120Y11646508D01*
X20295515Y11647205D01*
X20285702Y11657725D01*
X20409775Y11781798D01*
X20420295Y11771985D01*
G36*
X21426272Y9370965D02*
G01*
X21415198Y9359257D01*
X21414543Y9358508D01*
X21398818Y9339032D01*
X21398202Y9338203D01*
X21384327Y9317831D01*
X21383769Y9316933D01*
X21371744Y9295666D01*
X21371257Y9294714D01*
X21361082Y9272552D01*
X21360679Y9271566D01*
X21352354Y9248509D01*
X21352039Y9247510D01*
X21345564Y9223558D01*
X21345338Y9222568D01*
X21340713Y9197720D01*
X21340572Y9196757D01*
X21337797Y9171014D01*
X21337732Y9170093D01*
X21337233Y9155715D01*
X21161766Y9155715D01*
X21161267Y9170094D01*
X21161202Y9171014D01*
X21158427Y9196757D01*
X21158286Y9197720D01*
X21153661Y9222568D01*
X21153435Y9223558D01*
X21146960Y9247510D01*
X21146645Y9248509D01*
X21138320Y9271566D01*
X21137917Y9272552D01*
X21127742Y9294714D01*
X21127255Y9295666D01*
X21115230Y9316933D01*
X21114672Y9317831D01*
X21100797Y9338203D01*
X21100181Y9339032D01*
X21084456Y9358508D01*
X21083802Y9359257D01*
X21072728Y9370965D01*
X21249500Y9677574D01*
X21426272Y9370965D01*
G37*
X21426272Y9370965D02*
X21415198Y9359257D01*
X21414543Y9358508D01*
X21398818Y9339032D01*
X21398202Y9338203D01*
X21384327Y9317831D01*
X21383769Y9316933D01*
X21371744Y9295666D01*
X21371257Y9294714D01*
X21361082Y9272552D01*
X21360679Y9271566D01*
X21352354Y9248509D01*
X21352039Y9247510D01*
X21345564Y9223558D01*
X21345338Y9222568D01*
X21340713Y9197720D01*
X21340572Y9196757D01*
X21337797Y9171014D01*
X21337732Y9170093D01*
X21337233Y9155715D01*
X21161766Y9155715D01*
X21161267Y9170094D01*
X21161202Y9171014D01*
X21158427Y9196757D01*
X21158286Y9197720D01*
X21153661Y9222568D01*
X21153435Y9223558D01*
X21146960Y9247510D01*
X21146645Y9248509D01*
X21138320Y9271566D01*
X21137917Y9272552D01*
X21127742Y9294714D01*
X21127255Y9295666D01*
X21115230Y9316933D01*
X21114672Y9317831D01*
X21100797Y9338203D01*
X21100181Y9339032D01*
X21084456Y9358508D01*
X21083802Y9359257D01*
X21072728Y9370965D01*
X21249500Y9677574D01*
X21426272Y9370965D01*
G36*
X18693732Y4522907D02*
G01*
X18693797Y4521986D01*
X18696572Y4496244D01*
X18696713Y4495281D01*
X18701338Y4470433D01*
X18701564Y4469443D01*
X18708039Y4445491D01*
X18708354Y4444492D01*
X18716679Y4421434D01*
X18717082Y4420448D01*
X18727257Y4398286D01*
X18727744Y4397334D01*
X18739769Y4376068D01*
X18740327Y4375170D01*
X18754202Y4354798D01*
X18754818Y4353969D01*
X18770543Y4334493D01*
X18771197Y4333744D01*
X18782272Y4322035D01*
X18605500Y4015426D01*
X18428728Y4322035D01*
X18439802Y4333744D01*
X18440456Y4334493D01*
X18456181Y4353969D01*
X18456797Y4354798D01*
X18470672Y4375170D01*
X18471230Y4376068D01*
X18483255Y4397334D01*
X18483742Y4398286D01*
X18493917Y4420448D01*
X18494320Y4421434D01*
X18502645Y4444492D01*
X18502960Y4445491D01*
X18509435Y4469443D01*
X18509661Y4470433D01*
X18514286Y4495281D01*
X18514427Y4496244D01*
X18517202Y4521986D01*
X18517267Y4522906D01*
X18517766Y4537285D01*
X18693233Y4537285D01*
X18693732Y4522907D01*
G37*
X18693732Y4522907D02*
X18693797Y4521986D01*
X18696572Y4496244D01*
X18696713Y4495281D01*
X18701338Y4470433D01*
X18701564Y4469443D01*
X18708039Y4445491D01*
X18708354Y4444492D01*
X18716679Y4421434D01*
X18717082Y4420448D01*
X18727257Y4398286D01*
X18727744Y4397334D01*
X18739769Y4376068D01*
X18740327Y4375170D01*
X18754202Y4354798D01*
X18754818Y4353969D01*
X18770543Y4334493D01*
X18771197Y4333744D01*
X18782272Y4322035D01*
X18605500Y4015426D01*
X18428728Y4322035D01*
X18439802Y4333744D01*
X18440456Y4334493D01*
X18456181Y4353969D01*
X18456797Y4354798D01*
X18470672Y4375170D01*
X18471230Y4376068D01*
X18483255Y4397334D01*
X18483742Y4398286D01*
X18493917Y4420448D01*
X18494320Y4421434D01*
X18502645Y4444492D01*
X18502960Y4445491D01*
X18509435Y4469443D01*
X18509661Y4470433D01*
X18514286Y4495281D01*
X18514427Y4496244D01*
X18517202Y4521986D01*
X18517267Y4522906D01*
X18517766Y4537285D01*
X18693233Y4537285D01*
X18693732Y4522907D01*
%TO.N,V_SUPPLY*%
G36*
X3770059Y18688561D02*
G01*
X3762669Y18680895D01*
X3762318Y18680515D01*
X3747977Y18664371D01*
X3747593Y18663918D01*
X3734953Y18648273D01*
X3734536Y18647728D01*
X3723597Y18632581D01*
X3723151Y18631920D01*
X3713914Y18617273D01*
X3713447Y18616469D01*
X3705910Y18602322D01*
X3705441Y18601343D01*
X3699606Y18587694D01*
X3699169Y18586511D01*
X3695035Y18573361D01*
X3694679Y18571951D01*
X3692246Y18559301D01*
X3692040Y18557665D01*
X3691858Y18554642D01*
X3349752Y18462752D01*
X3441642Y18804859D01*
X3444665Y18805041D01*
X3446300Y18805247D01*
X3458950Y18807680D01*
X3460360Y18808036D01*
X3473510Y18812170D01*
X3474693Y18812607D01*
X3488342Y18818442D01*
X3489321Y18818911D01*
X3503469Y18826447D01*
X3504273Y18826914D01*
X3518919Y18836152D01*
X3519580Y18836598D01*
X3534727Y18847537D01*
X3535272Y18847954D01*
X3550917Y18860594D01*
X3551370Y18860978D01*
X3567514Y18875319D01*
X3567893Y18875670D01*
X3575560Y18883060D01*
X3770059Y18688561D01*
G37*
X3770059Y18688561D02*
X3762669Y18680895D01*
X3762318Y18680515D01*
X3747977Y18664371D01*
X3747593Y18663918D01*
X3734953Y18648273D01*
X3734536Y18647728D01*
X3723597Y18632581D01*
X3723151Y18631920D01*
X3713914Y18617273D01*
X3713447Y18616469D01*
X3705910Y18602322D01*
X3705441Y18601343D01*
X3699606Y18587694D01*
X3699169Y18586511D01*
X3695035Y18573361D01*
X3694679Y18571951D01*
X3692246Y18559301D01*
X3692040Y18557665D01*
X3691858Y18554642D01*
X3349752Y18462752D01*
X3441642Y18804859D01*
X3444665Y18805041D01*
X3446300Y18805247D01*
X3458950Y18807680D01*
X3460360Y18808036D01*
X3473510Y18812170D01*
X3474693Y18812607D01*
X3488342Y18818442D01*
X3489321Y18818911D01*
X3503469Y18826447D01*
X3504273Y18826914D01*
X3518919Y18836152D01*
X3519580Y18836598D01*
X3534727Y18847537D01*
X3535272Y18847954D01*
X3550917Y18860594D01*
X3551370Y18860978D01*
X3567514Y18875319D01*
X3567893Y18875670D01*
X3575560Y18883060D01*
X3770059Y18688561D01*
%TO.N,/ADC_POWER*%
G36*
X19338298Y8609725D02*
G01*
X19328484Y8599205D01*
X19327879Y8598508D01*
X19311638Y8578342D01*
X19311057Y8577561D01*
X19296758Y8556721D01*
X19296218Y8555862D01*
X19283859Y8534347D01*
X19283375Y8533418D01*
X19272958Y8511227D01*
X19272546Y8510244D01*
X19264070Y8487379D01*
X19263741Y8486362D01*
X19257206Y8462821D01*
X19256966Y8461791D01*
X19252372Y8437575D01*
X19252220Y8436554D01*
X19249568Y8411663D01*
X19249502Y8410670D01*
X19249054Y8394561D01*
X18907252Y8302752D01*
X18999061Y8644554D01*
X19015170Y8645003D01*
X19016162Y8645069D01*
X19041053Y8647721D01*
X19042074Y8647873D01*
X19066290Y8652467D01*
X19067320Y8652707D01*
X19090861Y8659242D01*
X19091878Y8659571D01*
X19114743Y8668047D01*
X19115726Y8668459D01*
X19137917Y8678876D01*
X19138846Y8679360D01*
X19160361Y8691719D01*
X19161220Y8692259D01*
X19182060Y8706558D01*
X19182841Y8707139D01*
X19203007Y8723380D01*
X19203704Y8723984D01*
X19214225Y8733798D01*
X19338298Y8609725D01*
G37*
X19338298Y8609725D02*
X19328484Y8599205D01*
X19327879Y8598508D01*
X19311638Y8578342D01*
X19311057Y8577561D01*
X19296758Y8556721D01*
X19296218Y8555862D01*
X19283859Y8534347D01*
X19283375Y8533418D01*
X19272958Y8511227D01*
X19272546Y8510244D01*
X19264070Y8487379D01*
X19263741Y8486362D01*
X19257206Y8462821D01*
X19256966Y8461791D01*
X19252372Y8437575D01*
X19252220Y8436554D01*
X19249568Y8411663D01*
X19249502Y8410670D01*
X19249054Y8394561D01*
X18907252Y8302752D01*
X18999061Y8644554D01*
X19015170Y8645003D01*
X19016162Y8645069D01*
X19041053Y8647721D01*
X19042074Y8647873D01*
X19066290Y8652467D01*
X19067320Y8652707D01*
X19090861Y8659242D01*
X19091878Y8659571D01*
X19114743Y8668047D01*
X19115726Y8668459D01*
X19137917Y8678876D01*
X19138846Y8679360D01*
X19160361Y8691719D01*
X19161220Y8692259D01*
X19182060Y8706558D01*
X19182841Y8707139D01*
X19203007Y8723380D01*
X19203704Y8723984D01*
X19214225Y8733798D01*
X19338298Y8609725D01*
G36*
X20242759Y10695738D02*
G01*
X20229816Y10682127D01*
X20229348Y10681606D01*
X20207908Y10656415D01*
X20207578Y10656012D01*
X20184178Y10626115D01*
X20183936Y10625794D01*
X20158576Y10591192D01*
X20158391Y10590933D01*
X20131071Y10551626D01*
X20130925Y10551412D01*
X20101645Y10507400D01*
X20101528Y10507221D01*
X20070288Y10458504D01*
X20070192Y10458352D01*
X20036992Y10404929D01*
X20036912Y10404799D01*
X20001752Y10346671D01*
X20001685Y10346558D01*
X19968252Y10289965D01*
X19797193Y10289965D01*
X19821845Y10333882D01*
X19822086Y10334334D01*
X19851696Y10392462D01*
X19851969Y10393031D01*
X19875919Y10446454D01*
X19876220Y10447185D01*
X19894510Y10495902D01*
X19894827Y10496863D01*
X19907457Y10540875D01*
X19907755Y10542161D01*
X19914725Y10581468D01*
X19914911Y10583205D01*
X19916221Y10617807D01*
X19916098Y10620116D01*
X19911748Y10650013D01*
X19910982Y10652874D01*
X19900972Y10678065D01*
X19899257Y10681091D01*
X19888731Y10694853D01*
X20066000Y11002324D01*
X20242759Y10695738D01*
G37*
X20242759Y10695738D02*
X20229816Y10682127D01*
X20229348Y10681606D01*
X20207908Y10656415D01*
X20207578Y10656012D01*
X20184178Y10626115D01*
X20183936Y10625794D01*
X20158576Y10591192D01*
X20158391Y10590933D01*
X20131071Y10551626D01*
X20130925Y10551412D01*
X20101645Y10507400D01*
X20101528Y10507221D01*
X20070288Y10458504D01*
X20070192Y10458352D01*
X20036992Y10404929D01*
X20036912Y10404799D01*
X20001752Y10346671D01*
X20001685Y10346558D01*
X19968252Y10289965D01*
X19797193Y10289965D01*
X19821845Y10333882D01*
X19822086Y10334334D01*
X19851696Y10392462D01*
X19851969Y10393031D01*
X19875919Y10446454D01*
X19876220Y10447185D01*
X19894510Y10495902D01*
X19894827Y10496863D01*
X19907457Y10540875D01*
X19907755Y10542161D01*
X19914725Y10581468D01*
X19914911Y10583205D01*
X19916221Y10617807D01*
X19916098Y10620116D01*
X19911748Y10650013D01*
X19910982Y10652874D01*
X19900972Y10678065D01*
X19899257Y10681091D01*
X19888731Y10694853D01*
X20066000Y11002324D01*
X20242759Y10695738D01*
%TO.N,/RS485/RS485_B*%
G36*
X3796443Y12314669D02*
G01*
X3785533Y12302294D01*
X3784393Y12300789D01*
X3770573Y12279408D01*
X3769677Y12277768D01*
X3758977Y12254221D01*
X3758357Y12252558D01*
X3750777Y12226846D01*
X3750418Y12225261D01*
X3745958Y12197384D01*
X3745812Y12195944D01*
X3744472Y12165902D01*
X3744478Y12164635D01*
X3746258Y12132428D01*
X3746366Y12131337D01*
X3751266Y12096964D01*
X3751434Y12096033D01*
X3759454Y12059495D01*
X3759655Y12058705D01*
X3766129Y12036215D01*
X3592134Y12036215D01*
X3582050Y12066259D01*
X3581915Y12066640D01*
X3568345Y12103178D01*
X3568184Y12103590D01*
X3554034Y12137963D01*
X3553839Y12138411D01*
X3539109Y12170618D01*
X3538875Y12171103D01*
X3523565Y12201145D01*
X3523283Y12201667D01*
X3507393Y12229544D01*
X3507054Y12230105D01*
X3490584Y12255817D01*
X3490177Y12256415D01*
X3473127Y12279962D01*
X3472639Y12280594D01*
X3455009Y12301975D01*
X3454428Y12302631D01*
X3442732Y12314973D01*
X3619500Y12621574D01*
X3796443Y12314669D01*
G37*
X3796443Y12314669D02*
X3785533Y12302294D01*
X3784393Y12300789D01*
X3770573Y12279408D01*
X3769677Y12277768D01*
X3758977Y12254221D01*
X3758357Y12252558D01*
X3750777Y12226846D01*
X3750418Y12225261D01*
X3745958Y12197384D01*
X3745812Y12195944D01*
X3744472Y12165902D01*
X3744478Y12164635D01*
X3746258Y12132428D01*
X3746366Y12131337D01*
X3751266Y12096964D01*
X3751434Y12096033D01*
X3759454Y12059495D01*
X3759655Y12058705D01*
X3766129Y12036215D01*
X3592134Y12036215D01*
X3582050Y12066259D01*
X3581915Y12066640D01*
X3568345Y12103178D01*
X3568184Y12103590D01*
X3554034Y12137963D01*
X3553839Y12138411D01*
X3539109Y12170618D01*
X3538875Y12171103D01*
X3523565Y12201145D01*
X3523283Y12201667D01*
X3507393Y12229544D01*
X3507054Y12230105D01*
X3490584Y12255817D01*
X3490177Y12256415D01*
X3473127Y12279962D01*
X3472639Y12280594D01*
X3455009Y12301975D01*
X3454428Y12302631D01*
X3442732Y12314973D01*
X3619500Y12621574D01*
X3796443Y12314669D01*
G36*
X3771407Y11688774D02*
G01*
X3771472Y11687852D01*
X3774772Y11657285D01*
X3774914Y11656321D01*
X3780414Y11626814D01*
X3780640Y11625823D01*
X3788340Y11597374D01*
X3788655Y11596375D01*
X3798555Y11568986D01*
X3798959Y11568000D01*
X3811059Y11541670D01*
X3811546Y11540718D01*
X3825846Y11515447D01*
X3826404Y11514550D01*
X3842904Y11490337D01*
X3843519Y11489509D01*
X3862219Y11466356D01*
X3862873Y11465608D01*
X3877272Y11450387D01*
X3683000Y11113426D01*
X3488728Y11450388D01*
X3503126Y11465609D01*
X3503780Y11466356D01*
X3522480Y11489509D01*
X3523095Y11490337D01*
X3539595Y11514550D01*
X3540153Y11515447D01*
X3554453Y11540718D01*
X3554940Y11541670D01*
X3567040Y11568000D01*
X3567444Y11568986D01*
X3577344Y11596375D01*
X3577659Y11597374D01*
X3585359Y11625823D01*
X3585585Y11626814D01*
X3591085Y11656321D01*
X3591227Y11657285D01*
X3594527Y11687852D01*
X3594592Y11688774D01*
X3595266Y11708140D01*
X3770734Y11708140D01*
X3771407Y11688774D01*
G37*
X3771407Y11688774D02*
X3771472Y11687852D01*
X3774772Y11657285D01*
X3774914Y11656321D01*
X3780414Y11626814D01*
X3780640Y11625823D01*
X3788340Y11597374D01*
X3788655Y11596375D01*
X3798555Y11568986D01*
X3798959Y11568000D01*
X3811059Y11541670D01*
X3811546Y11540718D01*
X3825846Y11515447D01*
X3826404Y11514550D01*
X3842904Y11490337D01*
X3843519Y11489509D01*
X3862219Y11466356D01*
X3862873Y11465608D01*
X3877272Y11450387D01*
X3683000Y11113426D01*
X3488728Y11450388D01*
X3503126Y11465609D01*
X3503780Y11466356D01*
X3522480Y11489509D01*
X3523095Y11490337D01*
X3539595Y11514550D01*
X3540153Y11515447D01*
X3554453Y11540718D01*
X3554940Y11541670D01*
X3567040Y11568000D01*
X3567444Y11568986D01*
X3577344Y11596375D01*
X3577659Y11597374D01*
X3585359Y11625823D01*
X3585585Y11626814D01*
X3591085Y11656321D01*
X3591227Y11657285D01*
X3594527Y11687852D01*
X3594592Y11688774D01*
X3595266Y11708140D01*
X3770734Y11708140D01*
X3771407Y11688774D01*
%TO.N,/RS485/RS485_A*%
G36*
X2591602Y12249635D02*
G01*
X2580510Y12237910D01*
X2579857Y12237163D01*
X2564077Y12217632D01*
X2563466Y12216811D01*
X2549499Y12196348D01*
X2548946Y12195461D01*
X2536793Y12174066D01*
X2536312Y12173130D01*
X2525973Y12150803D01*
X2525573Y12149837D01*
X2517046Y12126578D01*
X2516732Y12125603D01*
X2510019Y12101413D01*
X2509792Y12100448D01*
X2504893Y12075326D01*
X2504746Y12074389D01*
X2501660Y12048335D01*
X2501586Y12047439D01*
X2500884Y12032555D01*
X2325431Y12032555D01*
X2325119Y12047113D01*
X2325066Y12048036D01*
X2322603Y12074090D01*
X2322473Y12075062D01*
X2318122Y12100184D01*
X2317906Y12101188D01*
X2311669Y12125378D01*
X2311361Y12126394D01*
X2303238Y12149653D01*
X2302836Y12150662D01*
X2292825Y12172989D01*
X2292336Y12173965D01*
X2280439Y12195360D01*
X2279873Y12196283D01*
X2266090Y12216746D01*
X2265463Y12217599D01*
X2249792Y12237130D01*
X2249121Y12237900D01*
X2238053Y12249626D01*
X2414830Y12556244D01*
X2591602Y12249635D01*
G37*
X2591602Y12249635D02*
X2580510Y12237910D01*
X2579857Y12237163D01*
X2564077Y12217632D01*
X2563466Y12216811D01*
X2549499Y12196348D01*
X2548946Y12195461D01*
X2536793Y12174066D01*
X2536312Y12173130D01*
X2525973Y12150803D01*
X2525573Y12149837D01*
X2517046Y12126578D01*
X2516732Y12125603D01*
X2510019Y12101413D01*
X2509792Y12100448D01*
X2504893Y12075326D01*
X2504746Y12074389D01*
X2501660Y12048335D01*
X2501586Y12047439D01*
X2500884Y12032555D01*
X2325431Y12032555D01*
X2325119Y12047113D01*
X2325066Y12048036D01*
X2322603Y12074090D01*
X2322473Y12075062D01*
X2318122Y12100184D01*
X2317906Y12101188D01*
X2311669Y12125378D01*
X2311361Y12126394D01*
X2303238Y12149653D01*
X2302836Y12150662D01*
X2292825Y12172989D01*
X2292336Y12173965D01*
X2280439Y12195360D01*
X2279873Y12196283D01*
X2266090Y12216746D01*
X2265463Y12217599D01*
X2249792Y12237130D01*
X2249121Y12237900D01*
X2238053Y12249626D01*
X2414830Y12556244D01*
X2591602Y12249635D01*
G36*
X2501407Y11688774D02*
G01*
X2501472Y11687852D01*
X2504772Y11657285D01*
X2504914Y11656321D01*
X2510414Y11626814D01*
X2510640Y11625823D01*
X2518340Y11597374D01*
X2518655Y11596375D01*
X2528555Y11568986D01*
X2528959Y11568000D01*
X2541059Y11541670D01*
X2541546Y11540718D01*
X2555846Y11515447D01*
X2556404Y11514550D01*
X2572904Y11490337D01*
X2573519Y11489509D01*
X2592219Y11466356D01*
X2592873Y11465608D01*
X2607272Y11450387D01*
X2413000Y11113426D01*
X2218728Y11450388D01*
X2233126Y11465609D01*
X2233780Y11466356D01*
X2252480Y11489509D01*
X2253095Y11490337D01*
X2269595Y11514550D01*
X2270153Y11515447D01*
X2284453Y11540718D01*
X2284940Y11541670D01*
X2297040Y11568000D01*
X2297444Y11568986D01*
X2307344Y11596375D01*
X2307659Y11597374D01*
X2315359Y11625823D01*
X2315585Y11626814D01*
X2321085Y11656321D01*
X2321227Y11657285D01*
X2324527Y11687852D01*
X2324592Y11688774D01*
X2325266Y11708140D01*
X2500734Y11708140D01*
X2501407Y11688774D01*
G37*
X2501407Y11688774D02*
X2501472Y11687852D01*
X2504772Y11657285D01*
X2504914Y11656321D01*
X2510414Y11626814D01*
X2510640Y11625823D01*
X2518340Y11597374D01*
X2518655Y11596375D01*
X2528555Y11568986D01*
X2528959Y11568000D01*
X2541059Y11541670D01*
X2541546Y11540718D01*
X2555846Y11515447D01*
X2556404Y11514550D01*
X2572904Y11490337D01*
X2573519Y11489509D01*
X2592219Y11466356D01*
X2592873Y11465608D01*
X2607272Y11450387D01*
X2413000Y11113426D01*
X2218728Y11450388D01*
X2233126Y11465609D01*
X2233780Y11466356D01*
X2252480Y11489509D01*
X2253095Y11490337D01*
X2269595Y11514550D01*
X2270153Y11515447D01*
X2284453Y11540718D01*
X2284940Y11541670D01*
X2297040Y11568000D01*
X2297444Y11568986D01*
X2307344Y11596375D01*
X2307659Y11597374D01*
X2315359Y11625823D01*
X2315585Y11626814D01*
X2321085Y11656321D01*
X2321227Y11657285D01*
X2324527Y11687852D01*
X2324592Y11688774D01*
X2325266Y11708140D01*
X2500734Y11708140D01*
X2501407Y11688774D01*
%TO.N,/LED_GREEN*%
G36*
X9701772Y10219465D02*
G01*
X9690698Y10207757D01*
X9690043Y10207008D01*
X9674318Y10187532D01*
X9673702Y10186703D01*
X9659827Y10166331D01*
X9659269Y10165433D01*
X9647244Y10144166D01*
X9646757Y10143214D01*
X9636582Y10121052D01*
X9636179Y10120066D01*
X9627854Y10097009D01*
X9627539Y10096010D01*
X9621064Y10072058D01*
X9620838Y10071068D01*
X9616213Y10046220D01*
X9616072Y10045257D01*
X9613297Y10019514D01*
X9613232Y10018593D01*
X9612733Y10004215D01*
X9437266Y10004215D01*
X9436767Y10018594D01*
X9436702Y10019514D01*
X9433927Y10045257D01*
X9433786Y10046220D01*
X9429161Y10071068D01*
X9428935Y10072058D01*
X9422460Y10096010D01*
X9422145Y10097009D01*
X9413820Y10120066D01*
X9413417Y10121052D01*
X9403242Y10143214D01*
X9402755Y10144166D01*
X9390730Y10165433D01*
X9390172Y10166331D01*
X9376297Y10186703D01*
X9375681Y10187532D01*
X9359956Y10207008D01*
X9359302Y10207757D01*
X9348228Y10219465D01*
X9525000Y10526074D01*
X9701772Y10219465D01*
G37*
X9701772Y10219465D02*
X9690698Y10207757D01*
X9690043Y10207008D01*
X9674318Y10187532D01*
X9673702Y10186703D01*
X9659827Y10166331D01*
X9659269Y10165433D01*
X9647244Y10144166D01*
X9646757Y10143214D01*
X9636582Y10121052D01*
X9636179Y10120066D01*
X9627854Y10097009D01*
X9627539Y10096010D01*
X9621064Y10072058D01*
X9620838Y10071068D01*
X9616213Y10046220D01*
X9616072Y10045257D01*
X9613297Y10019514D01*
X9613232Y10018593D01*
X9612733Y10004215D01*
X9437266Y10004215D01*
X9436767Y10018594D01*
X9436702Y10019514D01*
X9433927Y10045257D01*
X9433786Y10046220D01*
X9429161Y10071068D01*
X9428935Y10072058D01*
X9422460Y10096010D01*
X9422145Y10097009D01*
X9413820Y10120066D01*
X9413417Y10121052D01*
X9403242Y10143214D01*
X9402755Y10144166D01*
X9390730Y10165433D01*
X9390172Y10166331D01*
X9376297Y10186703D01*
X9375681Y10187532D01*
X9359956Y10207008D01*
X9359302Y10207757D01*
X9348228Y10219465D01*
X9525000Y10526074D01*
X9701772Y10219465D01*
G36*
X10069795Y6691985D02*
G01*
X10070492Y6691380D01*
X10090658Y6675139D01*
X10091439Y6674558D01*
X10112279Y6660259D01*
X10113138Y6659719D01*
X10134653Y6647360D01*
X10135582Y6646876D01*
X10157773Y6636459D01*
X10158756Y6636047D01*
X10181621Y6627571D01*
X10182638Y6627242D01*
X10206179Y6620707D01*
X10207209Y6620467D01*
X10231425Y6615873D01*
X10232446Y6615721D01*
X10257337Y6613069D01*
X10258329Y6613003D01*
X10274439Y6612554D01*
X10366248Y6270752D01*
X10024446Y6362561D01*
X10023997Y6378671D01*
X10023931Y6379663D01*
X10021279Y6404554D01*
X10021127Y6405575D01*
X10016533Y6429791D01*
X10016293Y6430821D01*
X10009758Y6454362D01*
X10009429Y6455379D01*
X10000953Y6478244D01*
X10000541Y6479227D01*
X9990124Y6501418D01*
X9989640Y6502347D01*
X9977281Y6523862D01*
X9976741Y6524721D01*
X9962442Y6545561D01*
X9961861Y6546342D01*
X9945620Y6566508D01*
X9945015Y6567205D01*
X9935202Y6577725D01*
X10059275Y6701798D01*
X10069795Y6691985D01*
G37*
X10069795Y6691985D02*
X10070492Y6691380D01*
X10090658Y6675139D01*
X10091439Y6674558D01*
X10112279Y6660259D01*
X10113138Y6659719D01*
X10134653Y6647360D01*
X10135582Y6646876D01*
X10157773Y6636459D01*
X10158756Y6636047D01*
X10181621Y6627571D01*
X10182638Y6627242D01*
X10206179Y6620707D01*
X10207209Y6620467D01*
X10231425Y6615873D01*
X10232446Y6615721D01*
X10257337Y6613069D01*
X10258329Y6613003D01*
X10274439Y6612554D01*
X10366248Y6270752D01*
X10024446Y6362561D01*
X10023997Y6378671D01*
X10023931Y6379663D01*
X10021279Y6404554D01*
X10021127Y6405575D01*
X10016533Y6429791D01*
X10016293Y6430821D01*
X10009758Y6454362D01*
X10009429Y6455379D01*
X10000953Y6478244D01*
X10000541Y6479227D01*
X9990124Y6501418D01*
X9989640Y6502347D01*
X9977281Y6523862D01*
X9976741Y6524721D01*
X9962442Y6545561D01*
X9961861Y6546342D01*
X9945620Y6566508D01*
X9945015Y6567205D01*
X9935202Y6577725D01*
X10059275Y6701798D01*
X10069795Y6691985D01*
%TO.N,/LED_RED*%
G36*
X10311732Y7697527D02*
G01*
X10311797Y7696606D01*
X10314572Y7670864D01*
X10314713Y7669901D01*
X10319338Y7645053D01*
X10319564Y7644063D01*
X10326039Y7620111D01*
X10326354Y7619112D01*
X10334679Y7596054D01*
X10335082Y7595068D01*
X10345257Y7572906D01*
X10345744Y7571954D01*
X10357769Y7550688D01*
X10358327Y7549790D01*
X10372202Y7529418D01*
X10372818Y7528589D01*
X10388543Y7509113D01*
X10389197Y7508364D01*
X10400272Y7496655D01*
X10223500Y7190046D01*
X10046728Y7496655D01*
X10057802Y7508364D01*
X10058456Y7509113D01*
X10074181Y7528589D01*
X10074797Y7529418D01*
X10088672Y7549790D01*
X10089230Y7550688D01*
X10101255Y7571954D01*
X10101742Y7572906D01*
X10111917Y7595068D01*
X10112320Y7596054D01*
X10120645Y7619112D01*
X10120960Y7620111D01*
X10127435Y7644063D01*
X10127661Y7645053D01*
X10132286Y7669901D01*
X10132427Y7670864D01*
X10135202Y7696606D01*
X10135267Y7697526D01*
X10135766Y7711905D01*
X10311233Y7711905D01*
X10311732Y7697527D01*
G37*
X10311732Y7697527D02*
X10311797Y7696606D01*
X10314572Y7670864D01*
X10314713Y7669901D01*
X10319338Y7645053D01*
X10319564Y7644063D01*
X10326039Y7620111D01*
X10326354Y7619112D01*
X10334679Y7596054D01*
X10335082Y7595068D01*
X10345257Y7572906D01*
X10345744Y7571954D01*
X10357769Y7550688D01*
X10358327Y7549790D01*
X10372202Y7529418D01*
X10372818Y7528589D01*
X10388543Y7509113D01*
X10389197Y7508364D01*
X10400272Y7496655D01*
X10223500Y7190046D01*
X10046728Y7496655D01*
X10057802Y7508364D01*
X10058456Y7509113D01*
X10074181Y7528589D01*
X10074797Y7529418D01*
X10088672Y7549790D01*
X10089230Y7550688D01*
X10101255Y7571954D01*
X10101742Y7572906D01*
X10111917Y7595068D01*
X10112320Y7596054D01*
X10120645Y7619112D01*
X10120960Y7620111D01*
X10127435Y7644063D01*
X10127661Y7645053D01*
X10132286Y7669901D01*
X10132427Y7670864D01*
X10135202Y7696606D01*
X10135267Y7697526D01*
X10135766Y7711905D01*
X10311233Y7711905D01*
X10311732Y7697527D01*
G36*
X10105054Y11480939D02*
G01*
X10105502Y11464831D01*
X10105568Y11463838D01*
X10108220Y11438947D01*
X10108372Y11437926D01*
X10112966Y11413710D01*
X10113206Y11412680D01*
X10119741Y11389139D01*
X10120070Y11388122D01*
X10128546Y11365257D01*
X10128958Y11364274D01*
X10139375Y11342083D01*
X10139859Y11341154D01*
X10152218Y11319639D01*
X10152758Y11318780D01*
X10167057Y11297940D01*
X10167638Y11297159D01*
X10183879Y11276993D01*
X10184484Y11276296D01*
X10194298Y11265775D01*
X10070225Y11141702D01*
X10059704Y11151516D01*
X10059007Y11152121D01*
X10038841Y11168362D01*
X10038060Y11168943D01*
X10017220Y11183242D01*
X10016361Y11183782D01*
X9994846Y11196141D01*
X9993917Y11196625D01*
X9971726Y11207042D01*
X9970743Y11207454D01*
X9947878Y11215930D01*
X9946861Y11216259D01*
X9923320Y11222794D01*
X9922290Y11223034D01*
X9898074Y11227628D01*
X9897053Y11227780D01*
X9872162Y11230432D01*
X9871169Y11230498D01*
X9855061Y11230946D01*
X9763252Y11572748D01*
X10105054Y11480939D01*
G37*
X10105054Y11480939D02*
X10105502Y11464831D01*
X10105568Y11463838D01*
X10108220Y11438947D01*
X10108372Y11437926D01*
X10112966Y11413710D01*
X10113206Y11412680D01*
X10119741Y11389139D01*
X10120070Y11388122D01*
X10128546Y11365257D01*
X10128958Y11364274D01*
X10139375Y11342083D01*
X10139859Y11341154D01*
X10152218Y11319639D01*
X10152758Y11318780D01*
X10167057Y11297940D01*
X10167638Y11297159D01*
X10183879Y11276993D01*
X10184484Y11276296D01*
X10194298Y11265775D01*
X10070225Y11141702D01*
X10059704Y11151516D01*
X10059007Y11152121D01*
X10038841Y11168362D01*
X10038060Y11168943D01*
X10017220Y11183242D01*
X10016361Y11183782D01*
X9994846Y11196141D01*
X9993917Y11196625D01*
X9971726Y11207042D01*
X9970743Y11207454D01*
X9947878Y11215930D01*
X9946861Y11216259D01*
X9923320Y11222794D01*
X9922290Y11223034D01*
X9898074Y11227628D01*
X9897053Y11227780D01*
X9872162Y11230432D01*
X9871169Y11230498D01*
X9855061Y11230946D01*
X9763252Y11572748D01*
X10105054Y11480939D01*
%TO.N,Net-(R4-Pad1)*%
G36*
X15136691Y3209248D02*
G01*
X15080098Y3175815D01*
X15079985Y3175748D01*
X15021857Y3140588D01*
X15021727Y3140508D01*
X14968304Y3107308D01*
X14968152Y3107212D01*
X14919435Y3075972D01*
X14919256Y3075855D01*
X14875244Y3046575D01*
X14875030Y3046429D01*
X14835723Y3019109D01*
X14835464Y3018924D01*
X14800862Y2993564D01*
X14800541Y2993322D01*
X14770644Y2969922D01*
X14770241Y2969592D01*
X14745050Y2948152D01*
X14744529Y2947684D01*
X14730918Y2934741D01*
X14424332Y3111500D01*
X14731803Y3288769D01*
X14745565Y3278243D01*
X14748591Y3276528D01*
X14773782Y3266518D01*
X14776643Y3265752D01*
X14806540Y3261402D01*
X14808849Y3261279D01*
X14843451Y3262589D01*
X14845188Y3262775D01*
X14884495Y3269745D01*
X14885781Y3270043D01*
X14929793Y3282673D01*
X14930754Y3282990D01*
X14979471Y3301280D01*
X14980202Y3301581D01*
X15033625Y3325531D01*
X15034194Y3325804D01*
X15092322Y3355414D01*
X15092774Y3355655D01*
X15136691Y3380307D01*
X15136691Y3209248D01*
G37*
X15136691Y3209248D02*
X15080098Y3175815D01*
X15079985Y3175748D01*
X15021857Y3140588D01*
X15021727Y3140508D01*
X14968304Y3107308D01*
X14968152Y3107212D01*
X14919435Y3075972D01*
X14919256Y3075855D01*
X14875244Y3046575D01*
X14875030Y3046429D01*
X14835723Y3019109D01*
X14835464Y3018924D01*
X14800862Y2993564D01*
X14800541Y2993322D01*
X14770644Y2969922D01*
X14770241Y2969592D01*
X14745050Y2948152D01*
X14744529Y2947684D01*
X14730918Y2934741D01*
X14424332Y3111500D01*
X14731803Y3288769D01*
X14745565Y3278243D01*
X14748591Y3276528D01*
X14773782Y3266518D01*
X14776643Y3265752D01*
X14806540Y3261402D01*
X14808849Y3261279D01*
X14843451Y3262589D01*
X14845188Y3262775D01*
X14884495Y3269745D01*
X14885781Y3270043D01*
X14929793Y3282673D01*
X14930754Y3282990D01*
X14979471Y3301280D01*
X14980202Y3301581D01*
X15033625Y3325531D01*
X15034194Y3325804D01*
X15092322Y3355414D01*
X15092774Y3355655D01*
X15136691Y3380307D01*
X15136691Y3209248D01*
G36*
X16780766Y2192212D02*
G01*
X16780844Y2192204D01*
X16833395Y2186758D01*
X16833483Y2186749D01*
X16882898Y2181975D01*
X16882997Y2181966D01*
X16929277Y2177862D01*
X16929392Y2177852D01*
X16972538Y2174420D01*
X16972671Y2174410D01*
X17012681Y2171649D01*
X17012836Y2171639D01*
X17049712Y2169549D01*
X17049897Y2169540D01*
X17083638Y2168121D01*
X17083862Y2168114D01*
X17114468Y2167367D01*
X17114742Y2167363D01*
X17132504Y2167313D01*
X17224248Y1825752D01*
X16881734Y1917752D01*
X16880028Y1934008D01*
X16879331Y1937026D01*
X16870964Y1960012D01*
X16869576Y1962744D01*
X16855457Y1983785D01*
X16853711Y1985866D01*
X16833841Y2004962D01*
X16832105Y2006359D01*
X16806484Y2023509D01*
X16804959Y2024383D01*
X16773587Y2039589D01*
X16772320Y2040121D01*
X16735196Y2053381D01*
X16734165Y2053701D01*
X16691291Y2065016D01*
X16690453Y2065207D01*
X16641827Y2074578D01*
X16641142Y2074690D01*
X16612128Y2078651D01*
X16731140Y2197663D01*
X16780766Y2192212D01*
G37*
X16780766Y2192212D02*
X16780844Y2192204D01*
X16833395Y2186758D01*
X16833483Y2186749D01*
X16882898Y2181975D01*
X16882997Y2181966D01*
X16929277Y2177862D01*
X16929392Y2177852D01*
X16972538Y2174420D01*
X16972671Y2174410D01*
X17012681Y2171649D01*
X17012836Y2171639D01*
X17049712Y2169549D01*
X17049897Y2169540D01*
X17083638Y2168121D01*
X17083862Y2168114D01*
X17114468Y2167367D01*
X17114742Y2167363D01*
X17132504Y2167313D01*
X17224248Y1825752D01*
X16881734Y1917752D01*
X16880028Y1934008D01*
X16879331Y1937026D01*
X16870964Y1960012D01*
X16869576Y1962744D01*
X16855457Y1983785D01*
X16853711Y1985866D01*
X16833841Y2004962D01*
X16832105Y2006359D01*
X16806484Y2023509D01*
X16804959Y2024383D01*
X16773587Y2039589D01*
X16772320Y2040121D01*
X16735196Y2053381D01*
X16734165Y2053701D01*
X16691291Y2065016D01*
X16690453Y2065207D01*
X16641827Y2074578D01*
X16641142Y2074690D01*
X16612128Y2078651D01*
X16731140Y2197663D01*
X16780766Y2192212D01*
%TO.N,/IN_PWM_A*%
G36*
X12153232Y8289407D02*
G01*
X12153297Y8288486D01*
X12156072Y8262744D01*
X12156213Y8261781D01*
X12160838Y8236933D01*
X12161064Y8235943D01*
X12167539Y8211991D01*
X12167854Y8210992D01*
X12176179Y8187934D01*
X12176582Y8186948D01*
X12186757Y8164786D01*
X12187244Y8163834D01*
X12199269Y8142568D01*
X12199827Y8141670D01*
X12213702Y8121298D01*
X12214318Y8120469D01*
X12230043Y8100993D01*
X12230697Y8100244D01*
X12241772Y8088535D01*
X12065000Y7781926D01*
X11888228Y8088535D01*
X11899302Y8100244D01*
X11899956Y8100993D01*
X11915681Y8120469D01*
X11916297Y8121298D01*
X11930172Y8141670D01*
X11930730Y8142568D01*
X11942755Y8163834D01*
X11943242Y8164786D01*
X11953417Y8186948D01*
X11953820Y8187934D01*
X11962145Y8210992D01*
X11962460Y8211991D01*
X11968935Y8235943D01*
X11969161Y8236933D01*
X11973786Y8261781D01*
X11973927Y8262744D01*
X11976702Y8288486D01*
X11976767Y8289406D01*
X11977266Y8303785D01*
X12152733Y8303785D01*
X12153232Y8289407D01*
G37*
X12153232Y8289407D02*
X12153297Y8288486D01*
X12156072Y8262744D01*
X12156213Y8261781D01*
X12160838Y8236933D01*
X12161064Y8235943D01*
X12167539Y8211991D01*
X12167854Y8210992D01*
X12176179Y8187934D01*
X12176582Y8186948D01*
X12186757Y8164786D01*
X12187244Y8163834D01*
X12199269Y8142568D01*
X12199827Y8141670D01*
X12213702Y8121298D01*
X12214318Y8120469D01*
X12230043Y8100993D01*
X12230697Y8100244D01*
X12241772Y8088535D01*
X12065000Y7781926D01*
X11888228Y8088535D01*
X11899302Y8100244D01*
X11899956Y8100993D01*
X11915681Y8120469D01*
X11916297Y8121298D01*
X11930172Y8141670D01*
X11930730Y8142568D01*
X11942755Y8163834D01*
X11943242Y8164786D01*
X11953417Y8186948D01*
X11953820Y8187934D01*
X11962145Y8210992D01*
X11962460Y8211991D01*
X11968935Y8235943D01*
X11969161Y8236933D01*
X11973786Y8261781D01*
X11973927Y8262744D01*
X11976702Y8288486D01*
X11976767Y8289406D01*
X11977266Y8303785D01*
X12152733Y8303785D01*
X12153232Y8289407D01*
G36*
X11946554Y19037439D02*
G01*
X11947002Y19021331D01*
X11947068Y19020338D01*
X11949720Y18995447D01*
X11949872Y18994426D01*
X11954466Y18970210D01*
X11954706Y18969180D01*
X11961241Y18945639D01*
X11961570Y18944622D01*
X11970046Y18921757D01*
X11970458Y18920774D01*
X11980875Y18898583D01*
X11981359Y18897654D01*
X11993718Y18876139D01*
X11994258Y18875280D01*
X12008557Y18854440D01*
X12009138Y18853659D01*
X12025379Y18833493D01*
X12025984Y18832796D01*
X12035798Y18822275D01*
X11911725Y18698202D01*
X11901204Y18708016D01*
X11900507Y18708621D01*
X11880341Y18724862D01*
X11879560Y18725443D01*
X11858720Y18739742D01*
X11857861Y18740282D01*
X11836346Y18752641D01*
X11835417Y18753125D01*
X11813226Y18763542D01*
X11812243Y18763954D01*
X11789378Y18772430D01*
X11788361Y18772759D01*
X11764820Y18779294D01*
X11763790Y18779534D01*
X11739574Y18784128D01*
X11738553Y18784280D01*
X11713662Y18786932D01*
X11712669Y18786998D01*
X11696561Y18787446D01*
X11604752Y19129248D01*
X11946554Y19037439D01*
G37*
X11946554Y19037439D02*
X11947002Y19021331D01*
X11947068Y19020338D01*
X11949720Y18995447D01*
X11949872Y18994426D01*
X11954466Y18970210D01*
X11954706Y18969180D01*
X11961241Y18945639D01*
X11961570Y18944622D01*
X11970046Y18921757D01*
X11970458Y18920774D01*
X11980875Y18898583D01*
X11981359Y18897654D01*
X11993718Y18876139D01*
X11994258Y18875280D01*
X12008557Y18854440D01*
X12009138Y18853659D01*
X12025379Y18833493D01*
X12025984Y18832796D01*
X12035798Y18822275D01*
X11911725Y18698202D01*
X11901204Y18708016D01*
X11900507Y18708621D01*
X11880341Y18724862D01*
X11879560Y18725443D01*
X11858720Y18739742D01*
X11857861Y18740282D01*
X11836346Y18752641D01*
X11835417Y18753125D01*
X11813226Y18763542D01*
X11812243Y18763954D01*
X11789378Y18772430D01*
X11788361Y18772759D01*
X11764820Y18779294D01*
X11763790Y18779534D01*
X11739574Y18784128D01*
X11738553Y18784280D01*
X11713662Y18786932D01*
X11712669Y18786998D01*
X11696561Y18787446D01*
X11604752Y19129248D01*
X11946554Y19037439D01*
%TO.N,/IN_PWM_B*%
G36*
X12905273Y12541170D02*
G01*
X12900847Y12536488D01*
X12900188Y12535734D01*
X12890413Y12523610D01*
X12889796Y12522778D01*
X12881171Y12510088D01*
X12880612Y12509186D01*
X12873137Y12495927D01*
X12872651Y12494974D01*
X12866326Y12481149D01*
X12865924Y12480162D01*
X12860749Y12465769D01*
X12860436Y12464771D01*
X12856411Y12449810D01*
X12856187Y12448823D01*
X12853312Y12433295D01*
X12853172Y12432336D01*
X12851447Y12416241D01*
X12851383Y12415326D01*
X12851231Y12410925D01*
X12675769Y12410925D01*
X12675617Y12415326D01*
X12675553Y12416241D01*
X12673828Y12432336D01*
X12673688Y12433295D01*
X12670813Y12448823D01*
X12670589Y12449810D01*
X12666564Y12464771D01*
X12666251Y12465769D01*
X12661076Y12480162D01*
X12660674Y12481149D01*
X12654349Y12494974D01*
X12653863Y12495927D01*
X12646388Y12509186D01*
X12645829Y12510088D01*
X12637204Y12522778D01*
X12636587Y12523610D01*
X12626812Y12535734D01*
X12626153Y12536488D01*
X12621727Y12541170D01*
X12763500Y12787074D01*
X12905273Y12541170D01*
G37*
X12905273Y12541170D02*
X12900847Y12536488D01*
X12900188Y12535734D01*
X12890413Y12523610D01*
X12889796Y12522778D01*
X12881171Y12510088D01*
X12880612Y12509186D01*
X12873137Y12495927D01*
X12872651Y12494974D01*
X12866326Y12481149D01*
X12865924Y12480162D01*
X12860749Y12465769D01*
X12860436Y12464771D01*
X12856411Y12449810D01*
X12856187Y12448823D01*
X12853312Y12433295D01*
X12853172Y12432336D01*
X12851447Y12416241D01*
X12851383Y12415326D01*
X12851231Y12410925D01*
X12675769Y12410925D01*
X12675617Y12415326D01*
X12675553Y12416241D01*
X12673828Y12432336D01*
X12673688Y12433295D01*
X12670813Y12448823D01*
X12670589Y12449810D01*
X12666564Y12464771D01*
X12666251Y12465769D01*
X12661076Y12480162D01*
X12660674Y12481149D01*
X12654349Y12494974D01*
X12653863Y12495927D01*
X12646388Y12509186D01*
X12645829Y12510088D01*
X12637204Y12522778D01*
X12636587Y12523610D01*
X12626812Y12535734D01*
X12626153Y12536488D01*
X12621727Y12541170D01*
X12763500Y12787074D01*
X12905273Y12541170D01*
G36*
X11391232Y8523407D02*
G01*
X11391297Y8522486D01*
X11394072Y8496744D01*
X11394213Y8495781D01*
X11398838Y8470933D01*
X11399064Y8469943D01*
X11405539Y8445991D01*
X11405854Y8444992D01*
X11414179Y8421934D01*
X11414582Y8420948D01*
X11424757Y8398786D01*
X11425244Y8397834D01*
X11437269Y8376568D01*
X11437827Y8375670D01*
X11451702Y8355298D01*
X11452318Y8354469D01*
X11468043Y8334993D01*
X11468697Y8334244D01*
X11479772Y8322535D01*
X11303000Y8015926D01*
X11126228Y8322535D01*
X11137302Y8334244D01*
X11137956Y8334993D01*
X11153681Y8354469D01*
X11154297Y8355298D01*
X11168172Y8375670D01*
X11168730Y8376568D01*
X11180755Y8397834D01*
X11181242Y8398786D01*
X11191417Y8420948D01*
X11191820Y8421934D01*
X11200145Y8444992D01*
X11200460Y8445991D01*
X11206935Y8469943D01*
X11207161Y8470933D01*
X11211786Y8495781D01*
X11211927Y8496744D01*
X11214702Y8522486D01*
X11214767Y8523406D01*
X11215266Y8537785D01*
X11390733Y8537785D01*
X11391232Y8523407D01*
G37*
X11391232Y8523407D02*
X11391297Y8522486D01*
X11394072Y8496744D01*
X11394213Y8495781D01*
X11398838Y8470933D01*
X11399064Y8469943D01*
X11405539Y8445991D01*
X11405854Y8444992D01*
X11414179Y8421934D01*
X11414582Y8420948D01*
X11424757Y8398786D01*
X11425244Y8397834D01*
X11437269Y8376568D01*
X11437827Y8375670D01*
X11451702Y8355298D01*
X11452318Y8354469D01*
X11468043Y8334993D01*
X11468697Y8334244D01*
X11479772Y8322535D01*
X11303000Y8015926D01*
X11126228Y8322535D01*
X11137302Y8334244D01*
X11137956Y8334993D01*
X11153681Y8354469D01*
X11154297Y8355298D01*
X11168172Y8375670D01*
X11168730Y8376568D01*
X11180755Y8397834D01*
X11181242Y8398786D01*
X11191417Y8420948D01*
X11191820Y8421934D01*
X11200145Y8444992D01*
X11200460Y8445991D01*
X11206935Y8469943D01*
X11207161Y8470933D01*
X11211786Y8495781D01*
X11211927Y8496744D01*
X11214702Y8522486D01*
X11214767Y8523406D01*
X11215266Y8537785D01*
X11390733Y8537785D01*
X11391232Y8523407D01*
%TO.N,/BTN2*%
G36*
X23037939Y6658946D02*
G01*
X23021830Y6658498D01*
X23020837Y6658432D01*
X22995946Y6655780D01*
X22994925Y6655628D01*
X22970709Y6651034D01*
X22969679Y6650794D01*
X22946138Y6644259D01*
X22945121Y6643930D01*
X22922256Y6635454D01*
X22921273Y6635042D01*
X22899082Y6624625D01*
X22898153Y6624141D01*
X22876638Y6611782D01*
X22875779Y6611242D01*
X22854939Y6596943D01*
X22854158Y6596362D01*
X22833992Y6580121D01*
X22833295Y6579516D01*
X22822775Y6569702D01*
X22698702Y6693775D01*
X22708516Y6704296D01*
X22709120Y6704993D01*
X22725361Y6725159D01*
X22725942Y6725940D01*
X22740241Y6746780D01*
X22740781Y6747639D01*
X22753140Y6769154D01*
X22753624Y6770083D01*
X22764041Y6792274D01*
X22764453Y6793257D01*
X22772929Y6816122D01*
X22773258Y6817139D01*
X22779793Y6840680D01*
X22780033Y6841710D01*
X22784627Y6865926D01*
X22784779Y6866947D01*
X22787431Y6891838D01*
X22787497Y6892830D01*
X22787946Y6908939D01*
X23129748Y7000748D01*
X23037939Y6658946D01*
G37*
X23037939Y6658946D02*
X23021830Y6658498D01*
X23020837Y6658432D01*
X22995946Y6655780D01*
X22994925Y6655628D01*
X22970709Y6651034D01*
X22969679Y6650794D01*
X22946138Y6644259D01*
X22945121Y6643930D01*
X22922256Y6635454D01*
X22921273Y6635042D01*
X22899082Y6624625D01*
X22898153Y6624141D01*
X22876638Y6611782D01*
X22875779Y6611242D01*
X22854939Y6596943D01*
X22854158Y6596362D01*
X22833992Y6580121D01*
X22833295Y6579516D01*
X22822775Y6569702D01*
X22698702Y6693775D01*
X22708516Y6704296D01*
X22709120Y6704993D01*
X22725361Y6725159D01*
X22725942Y6725940D01*
X22740241Y6746780D01*
X22740781Y6747639D01*
X22753140Y6769154D01*
X22753624Y6770083D01*
X22764041Y6792274D01*
X22764453Y6793257D01*
X22772929Y6816122D01*
X22773258Y6817139D01*
X22779793Y6840680D01*
X22780033Y6841710D01*
X22784627Y6865926D01*
X22784779Y6866947D01*
X22787431Y6891838D01*
X22787497Y6892830D01*
X22787946Y6908939D01*
X23129748Y7000748D01*
X23037939Y6658946D01*
G36*
X16328054Y3987939D02*
G01*
X16328502Y3971831D01*
X16328568Y3970838D01*
X16331220Y3945947D01*
X16331372Y3944926D01*
X16335966Y3920710D01*
X16336206Y3919680D01*
X16342741Y3896139D01*
X16343070Y3895122D01*
X16351546Y3872257D01*
X16351958Y3871274D01*
X16362375Y3849083D01*
X16362859Y3848154D01*
X16375218Y3826639D01*
X16375758Y3825780D01*
X16390057Y3804940D01*
X16390638Y3804159D01*
X16406879Y3783993D01*
X16407484Y3783296D01*
X16417298Y3772775D01*
X16293225Y3648702D01*
X16282704Y3658516D01*
X16282007Y3659121D01*
X16261841Y3675362D01*
X16261060Y3675943D01*
X16240220Y3690242D01*
X16239361Y3690782D01*
X16217846Y3703141D01*
X16216917Y3703625D01*
X16194726Y3714042D01*
X16193743Y3714454D01*
X16170878Y3722930D01*
X16169861Y3723259D01*
X16146320Y3729794D01*
X16145290Y3730034D01*
X16121074Y3734628D01*
X16120053Y3734780D01*
X16095162Y3737432D01*
X16094169Y3737498D01*
X16078061Y3737946D01*
X15986252Y4079748D01*
X16328054Y3987939D01*
G37*
X16328054Y3987939D02*
X16328502Y3971831D01*
X16328568Y3970838D01*
X16331220Y3945947D01*
X16331372Y3944926D01*
X16335966Y3920710D01*
X16336206Y3919680D01*
X16342741Y3896139D01*
X16343070Y3895122D01*
X16351546Y3872257D01*
X16351958Y3871274D01*
X16362375Y3849083D01*
X16362859Y3848154D01*
X16375218Y3826639D01*
X16375758Y3825780D01*
X16390057Y3804940D01*
X16390638Y3804159D01*
X16406879Y3783993D01*
X16407484Y3783296D01*
X16417298Y3772775D01*
X16293225Y3648702D01*
X16282704Y3658516D01*
X16282007Y3659121D01*
X16261841Y3675362D01*
X16261060Y3675943D01*
X16240220Y3690242D01*
X16239361Y3690782D01*
X16217846Y3703141D01*
X16216917Y3703625D01*
X16194726Y3714042D01*
X16193743Y3714454D01*
X16170878Y3722930D01*
X16169861Y3723259D01*
X16146320Y3729794D01*
X16145290Y3730034D01*
X16121074Y3734628D01*
X16120053Y3734780D01*
X16095162Y3737432D01*
X16094169Y3737498D01*
X16078061Y3737946D01*
X15986252Y4079748D01*
X16328054Y3987939D01*
%TO.N,/SPI1_SCK*%
G36*
X14566232Y8523407D02*
G01*
X14566297Y8522486D01*
X14569072Y8496744D01*
X14569213Y8495781D01*
X14573838Y8470933D01*
X14574064Y8469943D01*
X14580539Y8445991D01*
X14580854Y8444992D01*
X14589179Y8421934D01*
X14589582Y8420948D01*
X14599757Y8398786D01*
X14600244Y8397834D01*
X14612269Y8376568D01*
X14612827Y8375670D01*
X14626702Y8355298D01*
X14627318Y8354469D01*
X14643043Y8334993D01*
X14643697Y8334244D01*
X14654772Y8322535D01*
X14478000Y8015926D01*
X14301228Y8322535D01*
X14312302Y8334244D01*
X14312956Y8334993D01*
X14328681Y8354469D01*
X14329297Y8355298D01*
X14343172Y8375670D01*
X14343730Y8376568D01*
X14355755Y8397834D01*
X14356242Y8398786D01*
X14366417Y8420948D01*
X14366820Y8421934D01*
X14375145Y8444992D01*
X14375460Y8445991D01*
X14381935Y8469943D01*
X14382161Y8470933D01*
X14386786Y8495781D01*
X14386927Y8496744D01*
X14389702Y8522486D01*
X14389767Y8523406D01*
X14390266Y8537785D01*
X14565733Y8537785D01*
X14566232Y8523407D01*
G37*
X14566232Y8523407D02*
X14566297Y8522486D01*
X14569072Y8496744D01*
X14569213Y8495781D01*
X14573838Y8470933D01*
X14574064Y8469943D01*
X14580539Y8445991D01*
X14580854Y8444992D01*
X14589179Y8421934D01*
X14589582Y8420948D01*
X14599757Y8398786D01*
X14600244Y8397834D01*
X14612269Y8376568D01*
X14612827Y8375670D01*
X14626702Y8355298D01*
X14627318Y8354469D01*
X14643043Y8334993D01*
X14643697Y8334244D01*
X14654772Y8322535D01*
X14478000Y8015926D01*
X14301228Y8322535D01*
X14312302Y8334244D01*
X14312956Y8334993D01*
X14328681Y8354469D01*
X14329297Y8355298D01*
X14343172Y8375670D01*
X14343730Y8376568D01*
X14355755Y8397834D01*
X14356242Y8398786D01*
X14366417Y8420948D01*
X14366820Y8421934D01*
X14375145Y8444992D01*
X14375460Y8445991D01*
X14381935Y8469943D01*
X14382161Y8470933D01*
X14386786Y8495781D01*
X14386927Y8496744D01*
X14389702Y8522486D01*
X14389767Y8523406D01*
X14390266Y8537785D01*
X14565733Y8537785D01*
X14566232Y8523407D01*
G36*
X16599574Y13365000D02*
G01*
X16262613Y13170728D01*
X16247392Y13185127D01*
X16246644Y13185781D01*
X16223491Y13204481D01*
X16222663Y13205096D01*
X16198450Y13221596D01*
X16197553Y13222154D01*
X16172282Y13236454D01*
X16171330Y13236941D01*
X16145000Y13249041D01*
X16144014Y13249445D01*
X16116625Y13259345D01*
X16115626Y13259660D01*
X16087177Y13267360D01*
X16086186Y13267586D01*
X16056679Y13273086D01*
X16055715Y13273228D01*
X16025148Y13276528D01*
X16024226Y13276593D01*
X16004860Y13277266D01*
X16004860Y13452734D01*
X16024226Y13453408D01*
X16025148Y13453473D01*
X16055715Y13456773D01*
X16056679Y13456915D01*
X16086186Y13462415D01*
X16087177Y13462641D01*
X16115626Y13470341D01*
X16116625Y13470656D01*
X16144014Y13480556D01*
X16145000Y13480960D01*
X16171330Y13493060D01*
X16172282Y13493547D01*
X16197553Y13507847D01*
X16198450Y13508405D01*
X16222663Y13524905D01*
X16223491Y13525520D01*
X16246644Y13544220D01*
X16247391Y13544874D01*
X16262612Y13559272D01*
X16599574Y13365000D01*
G37*
X16599574Y13365000D02*
X16262613Y13170728D01*
X16247392Y13185127D01*
X16246644Y13185781D01*
X16223491Y13204481D01*
X16222663Y13205096D01*
X16198450Y13221596D01*
X16197553Y13222154D01*
X16172282Y13236454D01*
X16171330Y13236941D01*
X16145000Y13249041D01*
X16144014Y13249445D01*
X16116625Y13259345D01*
X16115626Y13259660D01*
X16087177Y13267360D01*
X16086186Y13267586D01*
X16056679Y13273086D01*
X16055715Y13273228D01*
X16025148Y13276528D01*
X16024226Y13276593D01*
X16004860Y13277266D01*
X16004860Y13452734D01*
X16024226Y13453408D01*
X16025148Y13453473D01*
X16055715Y13456773D01*
X16056679Y13456915D01*
X16086186Y13462415D01*
X16087177Y13462641D01*
X16115626Y13470341D01*
X16116625Y13470656D01*
X16144014Y13480556D01*
X16145000Y13480960D01*
X16171330Y13493060D01*
X16172282Y13493547D01*
X16197553Y13507847D01*
X16198450Y13508405D01*
X16222663Y13524905D01*
X16223491Y13525520D01*
X16246644Y13544220D01*
X16247391Y13544874D01*
X16262612Y13559272D01*
X16599574Y13365000D01*
%TO.N,/SPI1_MISO*%
G36*
X13931232Y7951907D02*
G01*
X13931297Y7950986D01*
X13934072Y7925244D01*
X13934213Y7924281D01*
X13938838Y7899433D01*
X13939064Y7898443D01*
X13945539Y7874491D01*
X13945854Y7873492D01*
X13954179Y7850434D01*
X13954582Y7849448D01*
X13964757Y7827286D01*
X13965244Y7826334D01*
X13977269Y7805068D01*
X13977827Y7804170D01*
X13991702Y7783798D01*
X13992318Y7782969D01*
X14008043Y7763493D01*
X14008697Y7762744D01*
X14019772Y7751035D01*
X13843000Y7444426D01*
X13666228Y7751035D01*
X13677302Y7762744D01*
X13677956Y7763493D01*
X13693681Y7782969D01*
X13694297Y7783798D01*
X13708172Y7804170D01*
X13708730Y7805068D01*
X13720755Y7826334D01*
X13721242Y7827286D01*
X13731417Y7849448D01*
X13731820Y7850434D01*
X13740145Y7873492D01*
X13740460Y7874491D01*
X13746935Y7898443D01*
X13747161Y7899433D01*
X13751786Y7924281D01*
X13751927Y7925244D01*
X13754702Y7950986D01*
X13754767Y7951906D01*
X13755266Y7966285D01*
X13930733Y7966285D01*
X13931232Y7951907D01*
G37*
X13931232Y7951907D02*
X13931297Y7950986D01*
X13934072Y7925244D01*
X13934213Y7924281D01*
X13938838Y7899433D01*
X13939064Y7898443D01*
X13945539Y7874491D01*
X13945854Y7873492D01*
X13954179Y7850434D01*
X13954582Y7849448D01*
X13964757Y7827286D01*
X13965244Y7826334D01*
X13977269Y7805068D01*
X13977827Y7804170D01*
X13991702Y7783798D01*
X13992318Y7782969D01*
X14008043Y7763493D01*
X14008697Y7762744D01*
X14019772Y7751035D01*
X13843000Y7444426D01*
X13666228Y7751035D01*
X13677302Y7762744D01*
X13677956Y7763493D01*
X13693681Y7782969D01*
X13694297Y7783798D01*
X13708172Y7804170D01*
X13708730Y7805068D01*
X13720755Y7826334D01*
X13721242Y7827286D01*
X13731417Y7849448D01*
X13731820Y7850434D01*
X13740145Y7873492D01*
X13740460Y7874491D01*
X13746935Y7898443D01*
X13747161Y7899433D01*
X13751786Y7924281D01*
X13751927Y7925244D01*
X13754702Y7950986D01*
X13754767Y7951906D01*
X13755266Y7966285D01*
X13930733Y7966285D01*
X13931232Y7951907D01*
G36*
X16599574Y14635000D02*
G01*
X16262613Y14440728D01*
X16247392Y14455127D01*
X16246644Y14455781D01*
X16223491Y14474481D01*
X16222663Y14475096D01*
X16198450Y14491596D01*
X16197553Y14492154D01*
X16172282Y14506454D01*
X16171330Y14506941D01*
X16145000Y14519041D01*
X16144014Y14519445D01*
X16116625Y14529345D01*
X16115626Y14529660D01*
X16087177Y14537360D01*
X16086186Y14537586D01*
X16056679Y14543086D01*
X16055715Y14543228D01*
X16025148Y14546528D01*
X16024226Y14546593D01*
X16004860Y14547266D01*
X16004860Y14722734D01*
X16024226Y14723408D01*
X16025148Y14723473D01*
X16055715Y14726773D01*
X16056679Y14726915D01*
X16086186Y14732415D01*
X16087177Y14732641D01*
X16115626Y14740341D01*
X16116625Y14740656D01*
X16144014Y14750556D01*
X16145000Y14750960D01*
X16171330Y14763060D01*
X16172282Y14763547D01*
X16197553Y14777847D01*
X16198450Y14778405D01*
X16222663Y14794905D01*
X16223491Y14795520D01*
X16246644Y14814220D01*
X16247391Y14814874D01*
X16262612Y14829272D01*
X16599574Y14635000D01*
G37*
X16599574Y14635000D02*
X16262613Y14440728D01*
X16247392Y14455127D01*
X16246644Y14455781D01*
X16223491Y14474481D01*
X16222663Y14475096D01*
X16198450Y14491596D01*
X16197553Y14492154D01*
X16172282Y14506454D01*
X16171330Y14506941D01*
X16145000Y14519041D01*
X16144014Y14519445D01*
X16116625Y14529345D01*
X16115626Y14529660D01*
X16087177Y14537360D01*
X16086186Y14537586D01*
X16056679Y14543086D01*
X16055715Y14543228D01*
X16025148Y14546528D01*
X16024226Y14546593D01*
X16004860Y14547266D01*
X16004860Y14722734D01*
X16024226Y14723408D01*
X16025148Y14723473D01*
X16055715Y14726773D01*
X16056679Y14726915D01*
X16086186Y14732415D01*
X16087177Y14732641D01*
X16115626Y14740341D01*
X16116625Y14740656D01*
X16144014Y14750556D01*
X16145000Y14750960D01*
X16171330Y14763060D01*
X16172282Y14763547D01*
X16197553Y14777847D01*
X16198450Y14778405D01*
X16222663Y14794905D01*
X16223491Y14795520D01*
X16246644Y14814220D01*
X16247391Y14814874D01*
X16262612Y14829272D01*
X16599574Y14635000D01*
%TO.N,/SPI1_MOSI*%
G36*
X13296232Y7062907D02*
G01*
X13296297Y7061986D01*
X13299072Y7036244D01*
X13299213Y7035281D01*
X13303838Y7010433D01*
X13304064Y7009443D01*
X13310539Y6985491D01*
X13310854Y6984492D01*
X13319179Y6961434D01*
X13319582Y6960448D01*
X13329757Y6938286D01*
X13330244Y6937334D01*
X13342269Y6916068D01*
X13342827Y6915170D01*
X13356702Y6894798D01*
X13357318Y6893969D01*
X13373043Y6874493D01*
X13373697Y6873744D01*
X13384772Y6862035D01*
X13208000Y6555426D01*
X13031228Y6862035D01*
X13042302Y6873744D01*
X13042956Y6874493D01*
X13058681Y6893969D01*
X13059297Y6894798D01*
X13073172Y6915170D01*
X13073730Y6916068D01*
X13085755Y6937334D01*
X13086242Y6938286D01*
X13096417Y6960448D01*
X13096820Y6961434D01*
X13105145Y6984492D01*
X13105460Y6985491D01*
X13111935Y7009443D01*
X13112161Y7010433D01*
X13116786Y7035281D01*
X13116927Y7036244D01*
X13119702Y7061986D01*
X13119767Y7062906D01*
X13120266Y7077285D01*
X13295733Y7077285D01*
X13296232Y7062907D01*
G37*
X13296232Y7062907D02*
X13296297Y7061986D01*
X13299072Y7036244D01*
X13299213Y7035281D01*
X13303838Y7010433D01*
X13304064Y7009443D01*
X13310539Y6985491D01*
X13310854Y6984492D01*
X13319179Y6961434D01*
X13319582Y6960448D01*
X13329757Y6938286D01*
X13330244Y6937334D01*
X13342269Y6916068D01*
X13342827Y6915170D01*
X13356702Y6894798D01*
X13357318Y6893969D01*
X13373043Y6874493D01*
X13373697Y6873744D01*
X13384772Y6862035D01*
X13208000Y6555426D01*
X13031228Y6862035D01*
X13042302Y6873744D01*
X13042956Y6874493D01*
X13058681Y6893969D01*
X13059297Y6894798D01*
X13073172Y6915170D01*
X13073730Y6916068D01*
X13085755Y6937334D01*
X13086242Y6938286D01*
X13096417Y6960448D01*
X13096820Y6961434D01*
X13105145Y6984492D01*
X13105460Y6985491D01*
X13111935Y7009443D01*
X13112161Y7010433D01*
X13116786Y7035281D01*
X13116927Y7036244D01*
X13119702Y7061986D01*
X13119767Y7062906D01*
X13120266Y7077285D01*
X13295733Y7077285D01*
X13296232Y7062907D01*
G36*
X16599574Y15905000D02*
G01*
X16262613Y15710728D01*
X16247392Y15725127D01*
X16246644Y15725781D01*
X16223491Y15744481D01*
X16222663Y15745096D01*
X16198450Y15761596D01*
X16197553Y15762154D01*
X16172282Y15776454D01*
X16171330Y15776941D01*
X16145000Y15789041D01*
X16144014Y15789445D01*
X16116625Y15799345D01*
X16115626Y15799660D01*
X16087177Y15807360D01*
X16086186Y15807586D01*
X16056679Y15813086D01*
X16055715Y15813228D01*
X16025148Y15816528D01*
X16024226Y15816593D01*
X16004860Y15817266D01*
X16004860Y15992734D01*
X16024226Y15993408D01*
X16025148Y15993473D01*
X16055715Y15996773D01*
X16056679Y15996915D01*
X16086186Y16002415D01*
X16087177Y16002641D01*
X16115626Y16010341D01*
X16116625Y16010656D01*
X16144014Y16020556D01*
X16145000Y16020960D01*
X16171330Y16033060D01*
X16172282Y16033547D01*
X16197553Y16047847D01*
X16198450Y16048405D01*
X16222663Y16064905D01*
X16223491Y16065520D01*
X16246644Y16084220D01*
X16247391Y16084874D01*
X16262612Y16099272D01*
X16599574Y15905000D01*
G37*
X16599574Y15905000D02*
X16262613Y15710728D01*
X16247392Y15725127D01*
X16246644Y15725781D01*
X16223491Y15744481D01*
X16222663Y15745096D01*
X16198450Y15761596D01*
X16197553Y15762154D01*
X16172282Y15776454D01*
X16171330Y15776941D01*
X16145000Y15789041D01*
X16144014Y15789445D01*
X16116625Y15799345D01*
X16115626Y15799660D01*
X16087177Y15807360D01*
X16086186Y15807586D01*
X16056679Y15813086D01*
X16055715Y15813228D01*
X16025148Y15816528D01*
X16024226Y15816593D01*
X16004860Y15817266D01*
X16004860Y15992734D01*
X16024226Y15993408D01*
X16025148Y15993473D01*
X16055715Y15996773D01*
X16056679Y15996915D01*
X16086186Y16002415D01*
X16087177Y16002641D01*
X16115626Y16010341D01*
X16116625Y16010656D01*
X16144014Y16020556D01*
X16145000Y16020960D01*
X16171330Y16033060D01*
X16172282Y16033547D01*
X16197553Y16047847D01*
X16198450Y16048405D01*
X16222663Y16064905D01*
X16223491Y16065520D01*
X16246644Y16084220D01*
X16247391Y16084874D01*
X16262612Y16099272D01*
X16599574Y15905000D01*
%TO.N,/MT6816_CS*%
G36*
X11719272Y11882613D02*
G01*
X11704873Y11867393D01*
X11704219Y11866645D01*
X11685519Y11843492D01*
X11684904Y11842664D01*
X11668404Y11818451D01*
X11667846Y11817554D01*
X11653546Y11792283D01*
X11653059Y11791331D01*
X11640959Y11765001D01*
X11640555Y11764015D01*
X11630655Y11736626D01*
X11630340Y11735627D01*
X11622640Y11707178D01*
X11622414Y11706187D01*
X11616914Y11676680D01*
X11616772Y11675716D01*
X11613472Y11645149D01*
X11613407Y11644227D01*
X11612734Y11624860D01*
X11437266Y11624860D01*
X11436592Y11644227D01*
X11436527Y11645149D01*
X11433227Y11675716D01*
X11433085Y11676680D01*
X11427585Y11706187D01*
X11427359Y11707178D01*
X11419659Y11735627D01*
X11419344Y11736626D01*
X11409444Y11764015D01*
X11409040Y11765001D01*
X11396940Y11791331D01*
X11396453Y11792283D01*
X11382153Y11817554D01*
X11381595Y11818451D01*
X11365095Y11842664D01*
X11364480Y11843492D01*
X11345780Y11866645D01*
X11345126Y11867393D01*
X11330728Y11882613D01*
X11525000Y12219574D01*
X11719272Y11882613D01*
G37*
X11719272Y11882613D02*
X11704873Y11867393D01*
X11704219Y11866645D01*
X11685519Y11843492D01*
X11684904Y11842664D01*
X11668404Y11818451D01*
X11667846Y11817554D01*
X11653546Y11792283D01*
X11653059Y11791331D01*
X11640959Y11765001D01*
X11640555Y11764015D01*
X11630655Y11736626D01*
X11630340Y11735627D01*
X11622640Y11707178D01*
X11622414Y11706187D01*
X11616914Y11676680D01*
X11616772Y11675716D01*
X11613472Y11645149D01*
X11613407Y11644227D01*
X11612734Y11624860D01*
X11437266Y11624860D01*
X11436592Y11644227D01*
X11436527Y11645149D01*
X11433227Y11675716D01*
X11433085Y11676680D01*
X11427585Y11706187D01*
X11427359Y11707178D01*
X11419659Y11735627D01*
X11419344Y11736626D01*
X11409444Y11764015D01*
X11409040Y11765001D01*
X11396940Y11791331D01*
X11396453Y11792283D01*
X11382153Y11817554D01*
X11381595Y11818451D01*
X11365095Y11842664D01*
X11364480Y11843492D01*
X11345780Y11866645D01*
X11345126Y11867393D01*
X11330728Y11882613D01*
X11525000Y12219574D01*
X11719272Y11882613D01*
G36*
X11201291Y7580421D02*
G01*
X11201920Y7579940D01*
X11224635Y7563699D01*
X11225336Y7563233D01*
X11248427Y7548934D01*
X11249195Y7548494D01*
X11272661Y7536135D01*
X11273494Y7535734D01*
X11297334Y7525317D01*
X11298223Y7524968D01*
X11322439Y7516492D01*
X11323373Y7516205D01*
X11347964Y7509670D01*
X11348928Y7509454D01*
X11373894Y7504860D01*
X11374870Y7504719D01*
X11400211Y7502067D01*
X11401182Y7502003D01*
X11417440Y7501553D01*
X11509248Y7159752D01*
X11167390Y7251576D01*
X11166845Y7267745D01*
X11166755Y7268888D01*
X11163653Y7293779D01*
X11163452Y7294945D01*
X11158108Y7319161D01*
X11157794Y7320319D01*
X11150209Y7343860D01*
X11149789Y7344979D01*
X11139963Y7367844D01*
X11139452Y7368897D01*
X11127384Y7391088D01*
X11126802Y7392054D01*
X11112493Y7413569D01*
X11111864Y7414434D01*
X11095315Y7435274D01*
X11094660Y7436034D01*
X11075869Y7456200D01*
X11075210Y7456857D01*
X11063854Y7467379D01*
X11187842Y7591367D01*
X11201291Y7580421D01*
G37*
X11201291Y7580421D02*
X11201920Y7579940D01*
X11224635Y7563699D01*
X11225336Y7563233D01*
X11248427Y7548934D01*
X11249195Y7548494D01*
X11272661Y7536135D01*
X11273494Y7535734D01*
X11297334Y7525317D01*
X11298223Y7524968D01*
X11322439Y7516492D01*
X11323373Y7516205D01*
X11347964Y7509670D01*
X11348928Y7509454D01*
X11373894Y7504860D01*
X11374870Y7504719D01*
X11400211Y7502067D01*
X11401182Y7502003D01*
X11417440Y7501553D01*
X11509248Y7159752D01*
X11167390Y7251576D01*
X11166845Y7267745D01*
X11166755Y7268888D01*
X11163653Y7293779D01*
X11163452Y7294945D01*
X11158108Y7319161D01*
X11157794Y7320319D01*
X11150209Y7343860D01*
X11149789Y7344979D01*
X11139963Y7367844D01*
X11139452Y7368897D01*
X11127384Y7391088D01*
X11126802Y7392054D01*
X11112493Y7413569D01*
X11111864Y7414434D01*
X11095315Y7435274D01*
X11094660Y7436034D01*
X11075869Y7456200D01*
X11075210Y7456857D01*
X11063854Y7467379D01*
X11187842Y7591367D01*
X11201291Y7580421D01*
%TO.N,/UART1_RX*%
G36*
X13535301Y3607500D02*
G01*
X13536501Y3606564D01*
X13549061Y3597929D01*
X13550247Y3597206D01*
X13564376Y3589617D01*
X13565500Y3589082D01*
X13581200Y3582539D01*
X13582233Y3582160D01*
X13599502Y3576664D01*
X13600435Y3576406D01*
X13619275Y3571957D01*
X13620105Y3571790D01*
X13640514Y3568387D01*
X13641249Y3568286D01*
X13663228Y3565929D01*
X13663876Y3565877D01*
X13687425Y3564566D01*
X13687998Y3564547D01*
X13703484Y3564384D01*
X13795248Y3222748D01*
X13453612Y3314512D01*
X13453449Y3329998D01*
X13453430Y3330571D01*
X13452119Y3354120D01*
X13452067Y3354768D01*
X13449710Y3376747D01*
X13449609Y3377482D01*
X13446206Y3397891D01*
X13446039Y3398721D01*
X13441590Y3417561D01*
X13441332Y3418494D01*
X13435836Y3435763D01*
X13435457Y3436796D01*
X13428914Y3452496D01*
X13428379Y3453620D01*
X13420790Y3467749D01*
X13420067Y3468935D01*
X13411432Y3481495D01*
X13410496Y3482695D01*
X13408696Y3484739D01*
X13533257Y3609300D01*
X13535301Y3607500D01*
G37*
X13535301Y3607500D02*
X13536501Y3606564D01*
X13549061Y3597929D01*
X13550247Y3597206D01*
X13564376Y3589617D01*
X13565500Y3589082D01*
X13581200Y3582539D01*
X13582233Y3582160D01*
X13599502Y3576664D01*
X13600435Y3576406D01*
X13619275Y3571957D01*
X13620105Y3571790D01*
X13640514Y3568387D01*
X13641249Y3568286D01*
X13663228Y3565929D01*
X13663876Y3565877D01*
X13687425Y3564566D01*
X13687998Y3564547D01*
X13703484Y3564384D01*
X13795248Y3222748D01*
X13453612Y3314512D01*
X13453449Y3329998D01*
X13453430Y3330571D01*
X13452119Y3354120D01*
X13452067Y3354768D01*
X13449710Y3376747D01*
X13449609Y3377482D01*
X13446206Y3397891D01*
X13446039Y3398721D01*
X13441590Y3417561D01*
X13441332Y3418494D01*
X13435836Y3435763D01*
X13435457Y3436796D01*
X13428914Y3452496D01*
X13428379Y3453620D01*
X13420790Y3467749D01*
X13420067Y3468935D01*
X13411432Y3481495D01*
X13410496Y3482695D01*
X13408696Y3484739D01*
X13533257Y3609300D01*
X13535301Y3607500D01*
G36*
X5240552Y6275190D02*
G01*
X5241133Y6254247D01*
X5241199Y6253255D01*
X5244348Y6223661D01*
X5244499Y6222641D01*
X5249952Y6193853D01*
X5250192Y6192824D01*
X5257950Y6164843D01*
X5258278Y6163826D01*
X5268340Y6136652D01*
X5268752Y6135669D01*
X5281119Y6109302D01*
X5281602Y6108373D01*
X5296273Y6082812D01*
X5296814Y6081951D01*
X5313790Y6057197D01*
X5314372Y6056415D01*
X5333653Y6032468D01*
X5334258Y6031770D01*
X5347477Y6017599D01*
X5223401Y5893523D01*
X5209230Y5906742D01*
X5208532Y5907347D01*
X5184585Y5926628D01*
X5183803Y5927210D01*
X5159049Y5944186D01*
X5158188Y5944727D01*
X5132627Y5959398D01*
X5131698Y5959881D01*
X5105331Y5972248D01*
X5104348Y5972660D01*
X5077174Y5982722D01*
X5076157Y5983050D01*
X5048176Y5990808D01*
X5047147Y5991048D01*
X5018359Y5996501D01*
X5017339Y5996652D01*
X4987745Y5999801D01*
X4986753Y5999867D01*
X4965810Y6000448D01*
X4864913Y6376087D01*
X5240552Y6275190D01*
G37*
X5240552Y6275190D02*
X5241133Y6254247D01*
X5241199Y6253255D01*
X5244348Y6223661D01*
X5244499Y6222641D01*
X5249952Y6193853D01*
X5250192Y6192824D01*
X5257950Y6164843D01*
X5258278Y6163826D01*
X5268340Y6136652D01*
X5268752Y6135669D01*
X5281119Y6109302D01*
X5281602Y6108373D01*
X5296273Y6082812D01*
X5296814Y6081951D01*
X5313790Y6057197D01*
X5314372Y6056415D01*
X5333653Y6032468D01*
X5334258Y6031770D01*
X5347477Y6017599D01*
X5223401Y5893523D01*
X5209230Y5906742D01*
X5208532Y5907347D01*
X5184585Y5926628D01*
X5183803Y5927210D01*
X5159049Y5944186D01*
X5158188Y5944727D01*
X5132627Y5959398D01*
X5131698Y5959881D01*
X5105331Y5972248D01*
X5104348Y5972660D01*
X5077174Y5982722D01*
X5076157Y5983050D01*
X5048176Y5990808D01*
X5047147Y5991048D01*
X5018359Y5996501D01*
X5017339Y5996652D01*
X4987745Y5999801D01*
X4986753Y5999867D01*
X4965810Y6000448D01*
X4864913Y6376087D01*
X5240552Y6275190D01*
%TO.N,/UART1_TX*%
G36*
X1231407Y6738774D02*
G01*
X1231472Y6737852D01*
X1234772Y6707285D01*
X1234914Y6706321D01*
X1240414Y6676814D01*
X1240640Y6675823D01*
X1248340Y6647374D01*
X1248655Y6646375D01*
X1258555Y6618986D01*
X1258959Y6618000D01*
X1271059Y6591670D01*
X1271546Y6590718D01*
X1285846Y6565447D01*
X1286404Y6564550D01*
X1302904Y6540337D01*
X1303519Y6539509D01*
X1322219Y6516356D01*
X1322873Y6515608D01*
X1337272Y6500387D01*
X1143000Y6163426D01*
X948728Y6500388D01*
X963126Y6515609D01*
X963780Y6516356D01*
X982480Y6539509D01*
X983095Y6540337D01*
X999595Y6564550D01*
X1000153Y6565447D01*
X1014453Y6590718D01*
X1014940Y6591670D01*
X1027040Y6618000D01*
X1027444Y6618986D01*
X1037344Y6646375D01*
X1037659Y6647374D01*
X1045359Y6675823D01*
X1045585Y6676814D01*
X1051085Y6706321D01*
X1051227Y6707285D01*
X1054527Y6737852D01*
X1054592Y6738774D01*
X1055266Y6758140D01*
X1230734Y6758140D01*
X1231407Y6738774D01*
G37*
X1231407Y6738774D02*
X1231472Y6737852D01*
X1234772Y6707285D01*
X1234914Y6706321D01*
X1240414Y6676814D01*
X1240640Y6675823D01*
X1248340Y6647374D01*
X1248655Y6646375D01*
X1258555Y6618986D01*
X1258959Y6618000D01*
X1271059Y6591670D01*
X1271546Y6590718D01*
X1285846Y6565447D01*
X1286404Y6564550D01*
X1302904Y6540337D01*
X1303519Y6539509D01*
X1322219Y6516356D01*
X1322873Y6515608D01*
X1337272Y6500387D01*
X1143000Y6163426D01*
X948728Y6500388D01*
X963126Y6515609D01*
X963780Y6516356D01*
X982480Y6539509D01*
X983095Y6540337D01*
X999595Y6564550D01*
X1000153Y6565447D01*
X1014453Y6590718D01*
X1014940Y6591670D01*
X1027040Y6618000D01*
X1027444Y6618986D01*
X1037344Y6646375D01*
X1037659Y6647374D01*
X1045359Y6675823D01*
X1045585Y6676814D01*
X1051085Y6706321D01*
X1051227Y6707285D01*
X1054527Y6737852D01*
X1054592Y6738774D01*
X1055266Y6758140D01*
X1230734Y6758140D01*
X1231407Y6738774D01*
G36*
X12897023Y3225777D02*
G01*
X12898151Y3224883D01*
X12911390Y3215568D01*
X12912527Y3214855D01*
X12927256Y3206667D01*
X12928357Y3206123D01*
X12944576Y3199061D01*
X12945610Y3198663D01*
X12963319Y3192727D01*
X12964269Y3192450D01*
X12983468Y3187641D01*
X12984328Y3187457D01*
X13005017Y3183774D01*
X13005789Y3183661D01*
X13027968Y3181105D01*
X13028656Y3181044D01*
X13052325Y3179613D01*
X13052938Y3179591D01*
X13068480Y3179403D01*
X13160248Y2837752D01*
X12818597Y2929520D01*
X12818409Y2945062D01*
X12818387Y2945675D01*
X12816956Y2969344D01*
X12816895Y2970032D01*
X12814339Y2992211D01*
X12814226Y2992983D01*
X12810543Y3013672D01*
X12810359Y3014532D01*
X12805550Y3033731D01*
X12805273Y3034681D01*
X12799337Y3052390D01*
X12798939Y3053424D01*
X12791877Y3069643D01*
X12791333Y3070744D01*
X12783145Y3085473D01*
X12782432Y3086610D01*
X12773117Y3099849D01*
X12772223Y3100977D01*
X12769736Y3103775D01*
X12894225Y3228264D01*
X12897023Y3225777D01*
G37*
X12897023Y3225777D02*
X12898151Y3224883D01*
X12911390Y3215568D01*
X12912527Y3214855D01*
X12927256Y3206667D01*
X12928357Y3206123D01*
X12944576Y3199061D01*
X12945610Y3198663D01*
X12963319Y3192727D01*
X12964269Y3192450D01*
X12983468Y3187641D01*
X12984328Y3187457D01*
X13005017Y3183774D01*
X13005789Y3183661D01*
X13027968Y3181105D01*
X13028656Y3181044D01*
X13052325Y3179613D01*
X13052938Y3179591D01*
X13068480Y3179403D01*
X13160248Y2837752D01*
X12818597Y2929520D01*
X12818409Y2945062D01*
X12818387Y2945675D01*
X12816956Y2969344D01*
X12816895Y2970032D01*
X12814339Y2992211D01*
X12814226Y2992983D01*
X12810543Y3013672D01*
X12810359Y3014532D01*
X12805550Y3033731D01*
X12805273Y3034681D01*
X12799337Y3052390D01*
X12798939Y3053424D01*
X12791877Y3069643D01*
X12791333Y3070744D01*
X12783145Y3085473D01*
X12782432Y3086610D01*
X12773117Y3099849D01*
X12772223Y3100977D01*
X12769736Y3103775D01*
X12894225Y3228264D01*
X12897023Y3225777D01*
%TO.N,/485_RE*%
G36*
X3160074Y6350000D02*
G01*
X2853176Y6173061D01*
X2840815Y6183976D01*
X2839329Y6185105D01*
X2817993Y6198970D01*
X2816371Y6199863D01*
X2792899Y6210638D01*
X2791252Y6211260D01*
X2765646Y6218945D01*
X2764070Y6219310D01*
X2736328Y6223905D01*
X2734892Y6224060D01*
X2705014Y6225565D01*
X2703747Y6225565D01*
X2671735Y6223980D01*
X2670640Y6223879D01*
X2636492Y6219204D01*
X2635557Y6219040D01*
X2599275Y6211275D01*
X2598480Y6211077D01*
X2576215Y6204785D01*
X2576215Y6378823D01*
X2605921Y6388647D01*
X2606308Y6388783D01*
X2642590Y6402098D01*
X2643010Y6402260D01*
X2677158Y6416185D01*
X2677614Y6416381D01*
X2709626Y6430916D01*
X2710117Y6431152D01*
X2739995Y6446297D01*
X2740525Y6446582D01*
X2768267Y6462337D01*
X2768834Y6462679D01*
X2794440Y6479044D01*
X2795043Y6479454D01*
X2818515Y6496429D01*
X2819150Y6496920D01*
X2840486Y6514505D01*
X2841144Y6515086D01*
X2853472Y6526768D01*
X3160074Y6350000D01*
G37*
X3160074Y6350000D02*
X2853176Y6173061D01*
X2840815Y6183976D01*
X2839329Y6185105D01*
X2817993Y6198970D01*
X2816371Y6199863D01*
X2792899Y6210638D01*
X2791252Y6211260D01*
X2765646Y6218945D01*
X2764070Y6219310D01*
X2736328Y6223905D01*
X2734892Y6224060D01*
X2705014Y6225565D01*
X2703747Y6225565D01*
X2671735Y6223980D01*
X2670640Y6223879D01*
X2636492Y6219204D01*
X2635557Y6219040D01*
X2599275Y6211275D01*
X2598480Y6211077D01*
X2576215Y6204785D01*
X2576215Y6378823D01*
X2605921Y6388647D01*
X2606308Y6388783D01*
X2642590Y6402098D01*
X2643010Y6402260D01*
X2677158Y6416185D01*
X2677614Y6416381D01*
X2709626Y6430916D01*
X2710117Y6431152D01*
X2739995Y6446297D01*
X2740525Y6446582D01*
X2768267Y6462337D01*
X2768834Y6462679D01*
X2794440Y6479044D01*
X2795043Y6479454D01*
X2818515Y6496429D01*
X2819150Y6496920D01*
X2840486Y6514505D01*
X2841144Y6515086D01*
X2853472Y6526768D01*
X3160074Y6350000D01*
G36*
X2640607Y6467874D02*
G01*
X2641355Y6467220D01*
X2664508Y6448520D01*
X2665336Y6447905D01*
X2689549Y6431405D01*
X2690446Y6430847D01*
X2715717Y6416547D01*
X2716669Y6416060D01*
X2742999Y6403960D01*
X2743985Y6403556D01*
X2771374Y6393656D01*
X2772373Y6393341D01*
X2800822Y6385641D01*
X2801813Y6385415D01*
X2831320Y6379915D01*
X2832284Y6379773D01*
X2862851Y6376473D01*
X2863773Y6376408D01*
X2883140Y6375734D01*
X2883140Y6200266D01*
X2863773Y6199593D01*
X2862851Y6199528D01*
X2832284Y6196228D01*
X2831320Y6196086D01*
X2801813Y6190586D01*
X2800822Y6190360D01*
X2772373Y6182660D01*
X2771374Y6182345D01*
X2743985Y6172445D01*
X2742999Y6172041D01*
X2716669Y6159941D01*
X2715717Y6159454D01*
X2690446Y6145154D01*
X2689549Y6144596D01*
X2665336Y6128096D01*
X2664508Y6127481D01*
X2641355Y6108781D01*
X2640607Y6108127D01*
X2625387Y6093728D01*
X2288426Y6288000D01*
X2625387Y6482272D01*
X2640607Y6467874D01*
G37*
X2640607Y6467874D02*
X2641355Y6467220D01*
X2664508Y6448520D01*
X2665336Y6447905D01*
X2689549Y6431405D01*
X2690446Y6430847D01*
X2715717Y6416547D01*
X2716669Y6416060D01*
X2742999Y6403960D01*
X2743985Y6403556D01*
X2771374Y6393656D01*
X2772373Y6393341D01*
X2800822Y6385641D01*
X2801813Y6385415D01*
X2831320Y6379915D01*
X2832284Y6379773D01*
X2862851Y6376473D01*
X2863773Y6376408D01*
X2883140Y6375734D01*
X2883140Y6200266D01*
X2863773Y6199593D01*
X2862851Y6199528D01*
X2832284Y6196228D01*
X2831320Y6196086D01*
X2801813Y6190586D01*
X2800822Y6190360D01*
X2772373Y6182660D01*
X2771374Y6182345D01*
X2743985Y6172445D01*
X2742999Y6172041D01*
X2716669Y6159941D01*
X2715717Y6159454D01*
X2690446Y6145154D01*
X2689549Y6144596D01*
X2665336Y6128096D01*
X2664508Y6127481D01*
X2641355Y6108781D01*
X2640607Y6108127D01*
X2625387Y6093728D01*
X2288426Y6288000D01*
X2625387Y6482272D01*
X2640607Y6467874D01*
G36*
X3253312Y6515383D02*
G01*
X3253378Y6515317D01*
X3270994Y6497732D01*
X3271064Y6497662D01*
X3288336Y6480687D01*
X3288411Y6480614D01*
X3305338Y6464249D01*
X3305417Y6464173D01*
X3321999Y6448418D01*
X3322084Y6448338D01*
X3338321Y6433193D01*
X3338413Y6433109D01*
X3354305Y6418574D01*
X3354403Y6418485D01*
X3369951Y6404560D01*
X3370057Y6404466D01*
X3385260Y6391151D01*
X3385373Y6391053D01*
X3395785Y6382150D01*
X3395785Y6212014D01*
X3384201Y6217931D01*
X3382081Y6218783D01*
X3366533Y6223458D01*
X3364136Y6223933D01*
X3348244Y6225518D01*
X3345812Y6225527D01*
X3329575Y6224022D01*
X3327356Y6223615D01*
X3310774Y6219020D01*
X3308915Y6218345D01*
X3291988Y6210660D01*
X3290516Y6209871D01*
X3273244Y6199096D01*
X3272111Y6198301D01*
X3254495Y6184436D01*
X3253632Y6183691D01*
X3242544Y6173223D01*
X2935926Y6350000D01*
X3242238Y6526601D01*
X3253312Y6515383D01*
G37*
X3253312Y6515383D02*
X3253378Y6515317D01*
X3270994Y6497732D01*
X3271064Y6497662D01*
X3288336Y6480687D01*
X3288411Y6480614D01*
X3305338Y6464249D01*
X3305417Y6464173D01*
X3321999Y6448418D01*
X3322084Y6448338D01*
X3338321Y6433193D01*
X3338413Y6433109D01*
X3354305Y6418574D01*
X3354403Y6418485D01*
X3369951Y6404560D01*
X3370057Y6404466D01*
X3385260Y6391151D01*
X3385373Y6391053D01*
X3395785Y6382150D01*
X3395785Y6212014D01*
X3384201Y6217931D01*
X3382081Y6218783D01*
X3366533Y6223458D01*
X3364136Y6223933D01*
X3348244Y6225518D01*
X3345812Y6225527D01*
X3329575Y6224022D01*
X3327356Y6223615D01*
X3310774Y6219020D01*
X3308915Y6218345D01*
X3291988Y6210660D01*
X3290516Y6209871D01*
X3273244Y6199096D01*
X3272111Y6198301D01*
X3254495Y6184436D01*
X3253632Y6183691D01*
X3242544Y6173223D01*
X2935926Y6350000D01*
X3242238Y6526601D01*
X3253312Y6515383D01*
G36*
X3807574Y6288000D02*
G01*
X3470613Y6093728D01*
X3455392Y6108127D01*
X3454644Y6108781D01*
X3431491Y6127481D01*
X3430663Y6128096D01*
X3406450Y6144596D01*
X3405553Y6145154D01*
X3380282Y6159454D01*
X3379330Y6159941D01*
X3353000Y6172041D01*
X3352014Y6172445D01*
X3324625Y6182345D01*
X3323626Y6182660D01*
X3295177Y6190360D01*
X3294186Y6190586D01*
X3264679Y6196086D01*
X3263715Y6196228D01*
X3233148Y6199528D01*
X3232226Y6199593D01*
X3212860Y6200266D01*
X3212860Y6375734D01*
X3232226Y6376408D01*
X3233148Y6376473D01*
X3263715Y6379773D01*
X3264679Y6379915D01*
X3294186Y6385415D01*
X3295177Y6385641D01*
X3323626Y6393341D01*
X3324625Y6393656D01*
X3352014Y6403556D01*
X3353000Y6403960D01*
X3379330Y6416060D01*
X3380282Y6416547D01*
X3405553Y6430847D01*
X3406450Y6431405D01*
X3430663Y6447905D01*
X3431491Y6448520D01*
X3454644Y6467220D01*
X3455391Y6467874D01*
X3470612Y6482272D01*
X3807574Y6288000D01*
G37*
X3807574Y6288000D02*
X3470613Y6093728D01*
X3455392Y6108127D01*
X3454644Y6108781D01*
X3431491Y6127481D01*
X3430663Y6128096D01*
X3406450Y6144596D01*
X3405553Y6145154D01*
X3380282Y6159454D01*
X3379330Y6159941D01*
X3353000Y6172041D01*
X3352014Y6172445D01*
X3324625Y6182345D01*
X3323626Y6182660D01*
X3295177Y6190360D01*
X3294186Y6190586D01*
X3264679Y6196086D01*
X3263715Y6196228D01*
X3233148Y6199528D01*
X3232226Y6199593D01*
X3212860Y6200266D01*
X3212860Y6375734D01*
X3232226Y6376408D01*
X3233148Y6376473D01*
X3263715Y6379773D01*
X3264679Y6379915D01*
X3294186Y6385415D01*
X3295177Y6385641D01*
X3323626Y6393341D01*
X3324625Y6393656D01*
X3352014Y6403556D01*
X3353000Y6403960D01*
X3379330Y6416060D01*
X3380282Y6416547D01*
X3405553Y6430847D01*
X3406450Y6431405D01*
X3430663Y6447905D01*
X3431491Y6448520D01*
X3454644Y6467220D01*
X3455391Y6467874D01*
X3470612Y6482272D01*
X3807574Y6288000D01*
%TD*%
D24*
X12319000Y19939000D03*
X15748000Y17272000D03*
X16764000Y17272000D03*
X12890500Y13652500D03*
X12827000Y15367000D03*
X15494000Y21844000D03*
X14859000Y22225000D03*
X6223000Y11049000D03*
X6223000Y12319000D03*
X19050000Y19558000D03*
X19050000Y20574000D03*
X18161000Y20574000D03*
X18161000Y19558000D03*
X19050000Y14605000D03*
X18161000Y14605000D03*
X18161000Y15494000D03*
X19050000Y15494000D03*
X24638000Y12827000D03*
X24638000Y18288000D03*
X24511000Y16637000D03*
X24511000Y15748000D03*
X5588000Y23495000D03*
X5588000Y22352000D03*
X1270000Y14478000D03*
X1778000Y17907000D03*
X1270000Y17907000D03*
X1270000Y13716000D03*
X1270000Y15113000D03*
X21209000Y6731000D03*
X16256000Y6350000D03*
X11811000Y18034000D03*
X5842000Y9334500D03*
X17018000Y11938000D03*
X8509000Y9144000D03*
X6246000Y7366000D03*
X18859500Y635000D03*
X17843500Y635000D03*
X19304000Y10731500D03*
X15240000Y2730504D03*
X3365500Y22860000D03*
X4445000Y23241000D03*
X25082500Y16192500D03*
X4572000Y9906000D03*
X7747000Y13970000D03*
X10287000Y16510000D03*
X5270500Y3429000D03*
X21249500Y9565500D03*
X20637500Y11430000D03*
X18605500Y4127500D03*
X3429000Y18542000D03*
X22479000Y18288000D03*
X21844000Y18288000D03*
X22352000Y12827000D03*
X21717000Y12827000D03*
X18542000Y12065000D03*
X18986500Y8382000D03*
X20066000Y10890250D03*
X3619500Y12509500D03*
X2414830Y12444170D03*
X9525000Y10414000D03*
X10287000Y6350000D03*
X9842500Y11493500D03*
X10223500Y7302120D03*
X17145000Y1905000D03*
X14536406Y3111500D03*
X11684000Y19050000D03*
X12065000Y7894000D03*
X12763500Y12700000D03*
X11303000Y8128000D03*
X23050500Y6921500D03*
X16065500Y4000500D03*
X14478000Y8128000D03*
X13843000Y7556500D03*
X13208000Y6667500D03*
X11430000Y7239000D03*
X13716000Y3301996D03*
X13081000Y2917000D03*
X3048000Y6350000D03*
D25*
X5461000Y1270000D03*
X6731000Y1270000D03*
X8001000Y1270000D03*
X9271000Y1270000D03*
X2500000Y2500000D03*
X4375000Y2500000D03*
X3825825Y1174175D03*
X2500000Y625000D03*
X1174175Y1174175D03*
X625000Y2500000D03*
X1174175Y3825825D03*
X2500000Y4375000D03*
X3825825Y3825825D03*
X25500000Y25500000D03*
X27375000Y25500000D03*
X26825825Y24174175D03*
X25500000Y23625000D03*
X24174175Y24174175D03*
X23625000Y25500000D03*
X24174175Y26825825D03*
X25500000Y27375000D03*
X26825825Y26825825D03*
X2500000Y25500000D03*
X4375000Y25500000D03*
X3825825Y24174175D03*
X2500000Y23625000D03*
X1174175Y24174175D03*
X625000Y25500000D03*
X1174175Y26825825D03*
X2500000Y27375000D03*
X3825825Y26825825D03*
X25500000Y2500000D03*
X27375000Y2500000D03*
X26825825Y1174175D03*
X25500000Y625000D03*
X24174175Y1174175D03*
X23625000Y2500000D03*
X24174175Y3825825D03*
X25500000Y4375000D03*
X26825825Y3825825D03*
X26543000Y20351000D03*
X26543000Y18351000D03*
X26543000Y16351000D03*
X26543000Y14351000D03*
X11335500Y25146000D03*
X13335500Y25146000D03*
X15335500Y25146000D03*
X17335500Y25146000D03*
M02*
